G75*
%MOIN*%
%OFA0B0*%
%FSLAX25Y25*%
%IPPOS*%
%LPD*%
%AMOC8*
5,1,8,0,0,1.08239X$1,22.5*
%
%ADD10C,0.05910*%
%ADD11C,0.03937*%
%ADD12C,0.05906*%
%ADD13R,0.07000X0.07000*%
%ADD14C,0.07000*%
%ADD15R,0.02800X0.03700*%
%ADD16R,0.03000X0.03200*%
%ADD17R,0.03200X0.03000*%
%ADD18R,0.05700X0.03800*%
%ADD19R,0.03150X0.07087*%
%ADD20R,0.08661X0.03937*%
%ADD21R,0.04134X0.03937*%
%ADD22R,0.02067X0.02165*%
%ADD23R,0.02760X0.03940*%
%ADD24R,0.05900X0.04400*%
%ADD25R,0.03800X0.03600*%
%ADD26R,0.03800X0.05700*%
%ADD27R,0.03350X0.06934*%
%ADD28R,0.12405X0.06934*%
%ADD29C,0.05600*%
%ADD30C,0.01000*%
%ADD31C,0.02400*%
%ADD32C,0.02578*%
%ADD33C,0.00700*%
%ADD34C,0.01600*%
%ADD35C,0.00600*%
D10*
X0134595Y0010045D02*
X0134595Y0015955D01*
X0144595Y0015955D02*
X0144595Y0010045D01*
X0144095Y0076045D02*
X0144095Y0081955D01*
X0134095Y0081955D02*
X0134095Y0076045D01*
X0141140Y0102500D02*
X0147050Y0102500D01*
X0147050Y0112500D02*
X0141140Y0112500D01*
X0041050Y0305000D02*
X0035140Y0305000D01*
X0035140Y0315000D02*
X0041050Y0315000D01*
X0045595Y0333045D02*
X0045595Y0338955D01*
X0035595Y0338955D02*
X0035595Y0333045D01*
X0067095Y0333045D02*
X0067095Y0338955D01*
X0077095Y0338955D02*
X0077095Y0333045D01*
X0098140Y0338000D02*
X0104050Y0338000D01*
X0104050Y0328000D02*
X0098140Y0328000D01*
X0122140Y0328000D02*
X0128050Y0328000D01*
X0128050Y0338000D02*
X0122140Y0338000D01*
D11*
X0061595Y0116000D03*
X0061595Y0111000D03*
X0056595Y0111000D03*
X0056595Y0116000D03*
X0051595Y0116000D03*
X0051595Y0111000D03*
X0046595Y0111000D03*
X0046595Y0116000D03*
X0041595Y0116000D03*
X0041595Y0111000D03*
D12*
X0052595Y0015953D02*
X0052595Y0010047D01*
X0062595Y0010047D02*
X0062595Y0015953D01*
X0072595Y0015953D02*
X0072595Y0010047D01*
X0093595Y0010047D02*
X0093595Y0015953D01*
X0103595Y0015953D02*
X0103595Y0010047D01*
X0113595Y0010047D02*
X0113595Y0015953D01*
D13*
X0079595Y0151000D03*
X0069595Y0151000D03*
X0059595Y0151000D03*
X0049595Y0151000D03*
D14*
X0049595Y0161000D03*
X0049595Y0171000D03*
X0049595Y0181000D03*
X0049595Y0191000D03*
X0049595Y0201000D03*
X0049595Y0211000D03*
X0049595Y0221000D03*
X0049595Y0231000D03*
X0049595Y0241000D03*
X0049595Y0251000D03*
X0049595Y0261000D03*
X0049595Y0271000D03*
X0049595Y0281000D03*
X0059595Y0281000D03*
X0059595Y0271000D03*
X0059595Y0261000D03*
X0059595Y0251000D03*
X0059595Y0241000D03*
X0059595Y0231000D03*
X0059595Y0221000D03*
X0059595Y0211000D03*
X0059595Y0201000D03*
X0059595Y0191000D03*
X0059595Y0181000D03*
X0059595Y0171000D03*
X0059595Y0161000D03*
X0069595Y0161000D03*
X0069595Y0171000D03*
X0069595Y0181000D03*
X0069595Y0191000D03*
X0069595Y0201000D03*
X0069595Y0211000D03*
X0069595Y0221000D03*
X0069595Y0231000D03*
X0069595Y0241000D03*
X0069595Y0251000D03*
X0069595Y0261000D03*
X0069595Y0271000D03*
X0069595Y0281000D03*
X0079595Y0281000D03*
X0079595Y0271000D03*
X0079595Y0261000D03*
X0079595Y0251000D03*
X0079595Y0241000D03*
X0079595Y0231000D03*
X0079595Y0221000D03*
X0079595Y0211000D03*
X0079595Y0201000D03*
X0079595Y0191000D03*
X0079595Y0181000D03*
X0079595Y0171000D03*
X0079595Y0161000D03*
X0034095Y0245500D03*
X0034095Y0255500D03*
X0034095Y0265500D03*
X0034095Y0275500D03*
X0152095Y0308000D03*
X0152095Y0318000D03*
X0152095Y0328000D03*
X0152095Y0338000D03*
X0210595Y0129500D03*
X0210595Y0119500D03*
X0210595Y0109500D03*
X0210595Y0099500D03*
X0210595Y0089500D03*
X0210595Y0079500D03*
X0210595Y0069500D03*
X0210595Y0059500D03*
X0210595Y0049500D03*
X0210595Y0039500D03*
X0210595Y0029500D03*
X0210595Y0019500D03*
X0210595Y0009500D03*
X0220595Y0009500D03*
X0220595Y0019500D03*
X0220595Y0029500D03*
X0220595Y0039500D03*
X0220595Y0049500D03*
X0220595Y0059500D03*
X0220595Y0069500D03*
X0220595Y0079500D03*
X0220595Y0089500D03*
X0220595Y0099500D03*
X0220595Y0109500D03*
X0220595Y0119500D03*
X0220595Y0129500D03*
X0191595Y0109500D03*
X0191595Y0099500D03*
X0191595Y0089500D03*
X0191595Y0079500D03*
X0191595Y0069500D03*
X0191595Y0059500D03*
X0191595Y0049500D03*
X0191595Y0039500D03*
X0191595Y0029500D03*
D15*
X0121845Y0220500D03*
X0116345Y0220500D03*
D16*
X0116045Y0214000D03*
X0116045Y0208000D03*
X0116045Y0202000D03*
X0116045Y0196000D03*
X0122145Y0196000D03*
X0122145Y0202000D03*
X0122145Y0208000D03*
X0122145Y0214000D03*
X0122145Y0185500D03*
X0116045Y0185500D03*
X0116045Y0179000D03*
X0122145Y0179000D03*
D17*
X0119595Y0158050D03*
X0119595Y0151950D03*
X0127095Y0151950D03*
X0127095Y0158050D03*
X0134595Y0158050D03*
X0134595Y0151950D03*
X0142095Y0151950D03*
X0142095Y0158050D03*
X0104095Y0194450D03*
X0104095Y0200550D03*
X0098095Y0200550D03*
X0098095Y0194450D03*
D18*
X0089095Y0148750D03*
X0089095Y0142250D03*
X0134995Y0213150D03*
X0134995Y0219650D03*
D19*
X0135123Y0243756D03*
X0139453Y0243756D03*
X0143784Y0243756D03*
X0148115Y0243756D03*
X0152446Y0243756D03*
X0123312Y0243756D03*
X0118981Y0243756D03*
X0114650Y0243756D03*
X0110320Y0243756D03*
X0105989Y0243756D03*
X0101658Y0243756D03*
X0097327Y0243756D03*
X0097327Y0291000D03*
X0101658Y0291000D03*
X0105989Y0291000D03*
X0110320Y0291000D03*
X0114650Y0291000D03*
X0118981Y0291000D03*
X0123312Y0291000D03*
X0135123Y0291000D03*
X0139453Y0291000D03*
X0143784Y0291000D03*
X0148115Y0291000D03*
X0152446Y0291000D03*
D20*
X0099595Y0300587D03*
X0099595Y0311413D03*
D21*
X0105599Y0306000D03*
D22*
X0113272Y0300000D03*
X0116918Y0300000D03*
D23*
X0117035Y0313000D03*
X0109155Y0313000D03*
D24*
X0125095Y0312750D03*
X0125095Y0306250D03*
D25*
X0150645Y0217000D03*
X0150645Y0207500D03*
X0157545Y0207500D03*
X0157545Y0217000D03*
X0157545Y0198000D03*
X0150645Y0198000D03*
X0150645Y0188000D03*
X0157545Y0188000D03*
X0157545Y0178500D03*
X0157545Y0169000D03*
X0150645Y0169000D03*
X0150645Y0178500D03*
D26*
X0104845Y0183500D03*
X0098345Y0183500D03*
X0099845Y0232500D03*
X0093345Y0232500D03*
D27*
X0092540Y0171909D03*
X0101595Y0171909D03*
X0110650Y0171909D03*
D28*
X0101595Y0148091D03*
D29*
X0191595Y0144500D03*
X0201595Y0144500D03*
X0211595Y0144500D03*
X0221595Y0144500D03*
X0086095Y0311500D03*
X0076095Y0311500D03*
X0066095Y0311500D03*
X0056095Y0311500D03*
D30*
X0028494Y0007221D02*
X0028494Y0005600D01*
X0051696Y0005600D01*
X0050073Y0006272D01*
X0048820Y0007525D01*
X0048142Y0009162D01*
X0048142Y0016838D01*
X0048820Y0018475D01*
X0050073Y0019728D01*
X0051709Y0020405D01*
X0053481Y0020405D01*
X0055117Y0019728D01*
X0056370Y0018475D01*
X0057048Y0016838D01*
X0057048Y0009162D01*
X0056370Y0007525D01*
X0055117Y0006272D01*
X0053494Y0005600D01*
X0061696Y0005600D01*
X0060073Y0006272D01*
X0058820Y0007525D01*
X0058142Y0009162D01*
X0058142Y0016838D01*
X0058820Y0018475D01*
X0060073Y0019728D01*
X0061709Y0020405D01*
X0063481Y0020405D01*
X0065117Y0019728D01*
X0066370Y0018475D01*
X0067048Y0016838D01*
X0067048Y0009162D01*
X0066370Y0007525D01*
X0065117Y0006272D01*
X0063494Y0005600D01*
X0071696Y0005600D01*
X0070073Y0006272D01*
X0068820Y0007525D01*
X0068142Y0009162D01*
X0068142Y0016838D01*
X0068820Y0018475D01*
X0070073Y0019728D01*
X0071709Y0020405D01*
X0073481Y0020405D01*
X0075117Y0019728D01*
X0076370Y0018475D01*
X0077048Y0016838D01*
X0077048Y0009162D01*
X0076370Y0007525D01*
X0075117Y0006272D01*
X0073494Y0005600D01*
X0092696Y0005600D01*
X0091073Y0006272D01*
X0089820Y0007525D01*
X0089142Y0009162D01*
X0089142Y0016838D01*
X0089820Y0018475D01*
X0091073Y0019728D01*
X0092709Y0020405D01*
X0094481Y0020405D01*
X0096117Y0019728D01*
X0097370Y0018475D01*
X0098048Y0016838D01*
X0098048Y0009162D01*
X0097370Y0007525D01*
X0096117Y0006272D01*
X0094494Y0005600D01*
X0102696Y0005600D01*
X0101073Y0006272D01*
X0099820Y0007525D01*
X0099142Y0009162D01*
X0099142Y0016838D01*
X0099820Y0018475D01*
X0101073Y0019728D01*
X0102709Y0020405D01*
X0104481Y0020405D01*
X0106117Y0019728D01*
X0107370Y0018475D01*
X0108048Y0016838D01*
X0108048Y0009162D01*
X0107370Y0007525D01*
X0106117Y0006272D01*
X0104494Y0005600D01*
X0112696Y0005600D01*
X0111073Y0006272D01*
X0109820Y0007525D01*
X0109142Y0009162D01*
X0109142Y0016838D01*
X0109820Y0018475D01*
X0111073Y0019728D01*
X0112709Y0020405D01*
X0114481Y0020405D01*
X0116117Y0019728D01*
X0117370Y0018475D01*
X0118048Y0016838D01*
X0118048Y0009162D01*
X0117370Y0007525D01*
X0116117Y0006272D01*
X0114494Y0005600D01*
X0133685Y0005600D01*
X0132072Y0006268D01*
X0130818Y0007521D01*
X0130140Y0009159D01*
X0130140Y0016841D01*
X0130818Y0018479D01*
X0132072Y0019732D01*
X0133709Y0020410D01*
X0135481Y0020410D01*
X0137119Y0019732D01*
X0138372Y0018479D01*
X0139050Y0016841D01*
X0139050Y0009159D01*
X0138372Y0007521D01*
X0137119Y0006268D01*
X0135505Y0005600D01*
X0152995Y0005600D01*
X0152995Y0120821D01*
X0073884Y0120821D01*
X0115407Y0078804D01*
X0115945Y0078266D01*
X0115945Y0078260D01*
X0115950Y0078255D01*
X0115949Y0078091D01*
X0116460Y0077580D01*
X0116884Y0076555D01*
X0116884Y0075445D01*
X0116460Y0074420D01*
X0115675Y0073636D01*
X0114650Y0073211D01*
X0113595Y0073211D01*
X0113595Y0072343D01*
X0112511Y0071259D01*
X0112336Y0071084D01*
X0111252Y0070000D01*
X0098211Y0070000D01*
X0090884Y0062673D01*
X0090884Y0061945D01*
X0090460Y0060920D01*
X0089675Y0060136D01*
X0088650Y0059711D01*
X0087540Y0059711D01*
X0086515Y0060136D01*
X0085731Y0060920D01*
X0085306Y0061945D01*
X0085306Y0063055D01*
X0085731Y0064080D01*
X0086515Y0064864D01*
X0087540Y0065289D01*
X0088268Y0065289D01*
X0094979Y0072000D01*
X0082954Y0072000D01*
X0083234Y0071720D01*
X0083645Y0070728D01*
X0083645Y0070195D01*
X0084625Y0069789D01*
X0085384Y0069029D01*
X0085795Y0068037D01*
X0085795Y0066963D01*
X0085384Y0065971D01*
X0084625Y0065211D01*
X0083632Y0064800D01*
X0083075Y0064800D01*
X0083384Y0064055D01*
X0083384Y0062945D01*
X0082960Y0061920D01*
X0082175Y0061136D01*
X0081150Y0060711D01*
X0080040Y0060711D01*
X0079565Y0060908D01*
X0079384Y0060471D01*
X0078625Y0059711D01*
X0077632Y0059300D01*
X0076558Y0059300D01*
X0075679Y0059664D01*
X0075679Y0059158D01*
X0128087Y0058859D01*
X0130956Y0072884D01*
X0130318Y0073521D01*
X0129640Y0075159D01*
X0129640Y0082841D01*
X0130318Y0084479D01*
X0131572Y0085732D01*
X0133209Y0086410D01*
X0134981Y0086410D01*
X0136619Y0085732D01*
X0137872Y0084479D01*
X0138550Y0082841D01*
X0138550Y0075159D01*
X0137872Y0073521D01*
X0136619Y0072268D01*
X0134981Y0071590D01*
X0134468Y0071590D01*
X0131444Y0056808D01*
X0131441Y0056223D01*
X0131295Y0056079D01*
X0131254Y0055879D01*
X0130766Y0055556D01*
X0130351Y0055146D01*
X0130146Y0055147D01*
X0129975Y0055034D01*
X0129403Y0055151D01*
X0125224Y0055175D01*
X0125484Y0054850D01*
X0135829Y0054850D01*
X0142724Y0061745D01*
X0142441Y0071908D01*
X0141572Y0072268D01*
X0140318Y0073521D01*
X0139640Y0075159D01*
X0139640Y0082841D01*
X0140318Y0084479D01*
X0141572Y0085732D01*
X0143209Y0086410D01*
X0144981Y0086410D01*
X0146619Y0085732D01*
X0147872Y0084479D01*
X0148550Y0082841D01*
X0148550Y0075159D01*
X0147872Y0073521D01*
X0146619Y0072268D01*
X0146138Y0072069D01*
X0146424Y0061787D01*
X0146445Y0061766D01*
X0146445Y0061025D01*
X0146466Y0060285D01*
X0146445Y0060264D01*
X0146445Y0060234D01*
X0145921Y0059710D01*
X0145413Y0059172D01*
X0145383Y0059171D01*
X0138445Y0052234D01*
X0137361Y0051150D01*
X0125244Y0051150D01*
X0125152Y0051077D01*
X0124493Y0051150D01*
X0123829Y0051150D01*
X0123746Y0051233D01*
X0123629Y0051246D01*
X0123215Y0051764D01*
X0122745Y0052234D01*
X0122745Y0052351D01*
X0121706Y0053650D01*
X0039990Y0053650D01*
X0038907Y0054734D01*
X0038907Y0054734D01*
X0032329Y0061312D01*
X0032329Y0061312D01*
X0031245Y0062395D01*
X0031245Y0079032D01*
X0030806Y0079471D01*
X0030395Y0080463D01*
X0030395Y0081537D01*
X0030806Y0082529D01*
X0031566Y0083289D01*
X0032558Y0083700D01*
X0033395Y0083700D01*
X0033395Y0086642D01*
X0032632Y0086325D01*
X0031558Y0086325D01*
X0030566Y0086737D01*
X0029806Y0087496D01*
X0029395Y0088488D01*
X0029395Y0089563D01*
X0029806Y0090555D01*
X0030566Y0091314D01*
X0031558Y0091725D01*
X0032179Y0091725D01*
X0034745Y0094292D01*
X0034745Y0094532D01*
X0034306Y0094971D01*
X0033895Y0095963D01*
X0033895Y0097037D01*
X0034306Y0098029D01*
X0035066Y0098789D01*
X0035741Y0099069D01*
X0034495Y0100315D01*
X0034495Y0100554D01*
X0034295Y0100754D01*
X0034295Y0105246D01*
X0036795Y0107746D01*
X0036795Y0118746D01*
X0038795Y0120746D01*
X0038871Y0120821D01*
X0028494Y0120821D01*
X0028494Y0020779D01*
X0028837Y0021121D01*
X0031924Y0022400D01*
X0035266Y0022400D01*
X0038353Y0021121D01*
X0040716Y0018758D01*
X0041995Y0015671D01*
X0041995Y0012329D01*
X0040716Y0009242D01*
X0038353Y0006879D01*
X0035266Y0005600D01*
X0031924Y0005600D01*
X0028837Y0006879D01*
X0028494Y0007221D01*
X0028494Y0006430D02*
X0029920Y0006430D01*
X0037270Y0006430D02*
X0049915Y0006430D01*
X0048917Y0007429D02*
X0038903Y0007429D01*
X0039902Y0008427D02*
X0048447Y0008427D01*
X0048142Y0009426D02*
X0040792Y0009426D01*
X0041206Y0010424D02*
X0048142Y0010424D01*
X0048142Y0011423D02*
X0041620Y0011423D01*
X0041995Y0012421D02*
X0048142Y0012421D01*
X0048142Y0013420D02*
X0041995Y0013420D01*
X0041995Y0014418D02*
X0048142Y0014418D01*
X0048142Y0015417D02*
X0041995Y0015417D01*
X0041687Y0016415D02*
X0048142Y0016415D01*
X0048381Y0017414D02*
X0041273Y0017414D01*
X0040860Y0018412D02*
X0048794Y0018412D01*
X0049756Y0019411D02*
X0040064Y0019411D01*
X0039065Y0020409D02*
X0133707Y0020409D01*
X0135483Y0020409D02*
X0152995Y0020409D01*
X0152995Y0019411D02*
X0147418Y0019411D01*
X0147497Y0019353D02*
X0146930Y0019765D01*
X0146305Y0020084D01*
X0145638Y0020300D01*
X0145080Y0020389D01*
X0145080Y0013485D01*
X0144110Y0013485D01*
X0144110Y0012515D01*
X0140140Y0012515D01*
X0140140Y0009694D01*
X0140250Y0009002D01*
X0140467Y0008335D01*
X0140785Y0007710D01*
X0141197Y0007143D01*
X0141693Y0006647D01*
X0142260Y0006235D01*
X0142885Y0005916D01*
X0143552Y0005700D01*
X0144110Y0005611D01*
X0144110Y0012515D01*
X0145080Y0012515D01*
X0145080Y0005611D01*
X0145638Y0005700D01*
X0146305Y0005916D01*
X0146930Y0006235D01*
X0147497Y0006647D01*
X0147993Y0007143D01*
X0148405Y0007710D01*
X0148724Y0008335D01*
X0148940Y0009002D01*
X0149050Y0009694D01*
X0149050Y0012515D01*
X0145080Y0012515D01*
X0145080Y0013485D01*
X0149050Y0013485D01*
X0149050Y0016306D01*
X0148940Y0016998D01*
X0148724Y0017665D01*
X0148405Y0018290D01*
X0147993Y0018857D01*
X0147497Y0019353D01*
X0148317Y0018412D02*
X0152995Y0018412D01*
X0152995Y0017414D02*
X0148805Y0017414D01*
X0149033Y0016415D02*
X0152995Y0016415D01*
X0152995Y0015417D02*
X0149050Y0015417D01*
X0149050Y0014418D02*
X0152995Y0014418D01*
X0152995Y0013420D02*
X0145080Y0013420D01*
X0144110Y0013420D02*
X0139050Y0013420D01*
X0139050Y0014418D02*
X0140140Y0014418D01*
X0140140Y0013485D02*
X0140140Y0016306D01*
X0140250Y0016998D01*
X0140467Y0017665D01*
X0140785Y0018290D01*
X0141197Y0018857D01*
X0141693Y0019353D01*
X0142260Y0019765D01*
X0142885Y0020084D01*
X0143552Y0020300D01*
X0144110Y0020389D01*
X0144110Y0013485D01*
X0140140Y0013485D01*
X0140140Y0012421D02*
X0139050Y0012421D01*
X0139050Y0011423D02*
X0140140Y0011423D01*
X0140140Y0010424D02*
X0139050Y0010424D01*
X0139050Y0009426D02*
X0140183Y0009426D01*
X0140437Y0008427D02*
X0138747Y0008427D01*
X0138279Y0007429D02*
X0140989Y0007429D01*
X0141991Y0006430D02*
X0137280Y0006430D01*
X0131910Y0006430D02*
X0116275Y0006430D01*
X0117274Y0007429D02*
X0130911Y0007429D01*
X0130443Y0008427D02*
X0117744Y0008427D01*
X0118048Y0009426D02*
X0130140Y0009426D01*
X0130140Y0010424D02*
X0118048Y0010424D01*
X0118048Y0011423D02*
X0130140Y0011423D01*
X0130140Y0012421D02*
X0118048Y0012421D01*
X0118048Y0013420D02*
X0130140Y0013420D01*
X0130140Y0014418D02*
X0118048Y0014418D01*
X0118048Y0015417D02*
X0130140Y0015417D01*
X0130140Y0016415D02*
X0118048Y0016415D01*
X0117810Y0017414D02*
X0130377Y0017414D01*
X0130791Y0018412D02*
X0117396Y0018412D01*
X0116434Y0019411D02*
X0131751Y0019411D01*
X0137440Y0019411D02*
X0141772Y0019411D01*
X0140874Y0018412D02*
X0138399Y0018412D01*
X0138813Y0017414D02*
X0140385Y0017414D01*
X0140157Y0016415D02*
X0139050Y0016415D01*
X0139050Y0015417D02*
X0140140Y0015417D01*
X0144110Y0015417D02*
X0145080Y0015417D01*
X0145080Y0016415D02*
X0144110Y0016415D01*
X0144110Y0017414D02*
X0145080Y0017414D01*
X0145080Y0018412D02*
X0144110Y0018412D01*
X0144110Y0019411D02*
X0145080Y0019411D01*
X0145080Y0014418D02*
X0144110Y0014418D01*
X0144110Y0012421D02*
X0145080Y0012421D01*
X0145080Y0011423D02*
X0144110Y0011423D01*
X0144110Y0010424D02*
X0145080Y0010424D01*
X0145080Y0009426D02*
X0144110Y0009426D01*
X0144110Y0008427D02*
X0145080Y0008427D01*
X0145080Y0007429D02*
X0144110Y0007429D01*
X0144110Y0006430D02*
X0145080Y0006430D01*
X0147199Y0006430D02*
X0152995Y0006430D01*
X0152995Y0007429D02*
X0148201Y0007429D01*
X0148754Y0008427D02*
X0152995Y0008427D01*
X0152995Y0009426D02*
X0149008Y0009426D01*
X0149050Y0010424D02*
X0152995Y0010424D01*
X0152995Y0011423D02*
X0149050Y0011423D01*
X0149050Y0012421D02*
X0152995Y0012421D01*
X0152995Y0021408D02*
X0099392Y0021408D01*
X0099132Y0021300D02*
X0100125Y0021711D01*
X0100884Y0022471D01*
X0101284Y0023436D01*
X0102548Y0024700D01*
X0111899Y0024700D01*
X0112112Y0024558D01*
X0112823Y0024700D01*
X0113548Y0024700D01*
X0113729Y0024881D01*
X0113980Y0024931D01*
X0114383Y0025535D01*
X0114895Y0026047D01*
X0114895Y0026304D01*
X0115722Y0027544D01*
X0116125Y0027711D01*
X0116884Y0028471D01*
X0117295Y0029463D01*
X0117295Y0030537D01*
X0116884Y0031529D01*
X0116125Y0032289D01*
X0115132Y0032700D01*
X0114058Y0032700D01*
X0113066Y0032289D01*
X0112306Y0031529D01*
X0111895Y0030537D01*
X0111895Y0030096D01*
X0111364Y0029300D01*
X0072098Y0029300D01*
X0071132Y0029700D01*
X0070058Y0029700D01*
X0069066Y0029289D01*
X0068306Y0028529D01*
X0067895Y0027537D01*
X0067895Y0026463D01*
X0068306Y0025471D01*
X0069066Y0024711D01*
X0070058Y0024300D01*
X0071132Y0024300D01*
X0072098Y0024700D01*
X0095963Y0024700D01*
X0095895Y0024537D01*
X0095895Y0023463D01*
X0096306Y0022471D01*
X0097066Y0021711D01*
X0098058Y0021300D01*
X0099132Y0021300D01*
X0097798Y0021408D02*
X0037662Y0021408D01*
X0029529Y0021408D02*
X0028494Y0021408D01*
X0028494Y0022406D02*
X0096371Y0022406D01*
X0095919Y0023405D02*
X0028494Y0023405D01*
X0028494Y0024403D02*
X0052809Y0024403D01*
X0053058Y0024300D02*
X0054132Y0024300D01*
X0055125Y0024711D01*
X0055884Y0025471D01*
X0056295Y0026463D01*
X0056295Y0026693D01*
X0058701Y0029700D01*
X0065692Y0029700D01*
X0066658Y0029300D01*
X0067732Y0029300D01*
X0068725Y0029711D01*
X0069484Y0030471D01*
X0069895Y0031463D01*
X0069895Y0032537D01*
X0069484Y0033529D01*
X0068725Y0034289D01*
X0067732Y0034700D01*
X0066658Y0034700D01*
X0065692Y0034300D01*
X0058402Y0034300D01*
X0058288Y0034391D01*
X0057468Y0034300D01*
X0056642Y0034300D01*
X0056539Y0034197D01*
X0056394Y0034181D01*
X0055879Y0033536D01*
X0055295Y0032953D01*
X0055295Y0032807D01*
X0052687Y0029546D01*
X0052066Y0029289D01*
X0051306Y0028529D01*
X0050895Y0027537D01*
X0050895Y0026463D01*
X0051306Y0025471D01*
X0052066Y0024711D01*
X0053058Y0024300D01*
X0054381Y0024403D02*
X0069809Y0024403D01*
X0071381Y0024403D02*
X0095895Y0024403D01*
X0096434Y0019411D02*
X0100756Y0019411D01*
X0099794Y0018412D02*
X0097396Y0018412D01*
X0097810Y0017414D02*
X0099381Y0017414D01*
X0099142Y0016415D02*
X0098048Y0016415D01*
X0098048Y0015417D02*
X0099142Y0015417D01*
X0099142Y0014418D02*
X0098048Y0014418D01*
X0098048Y0013420D02*
X0099142Y0013420D01*
X0099142Y0012421D02*
X0098048Y0012421D01*
X0098048Y0011423D02*
X0099142Y0011423D01*
X0099142Y0010424D02*
X0098048Y0010424D01*
X0098048Y0009426D02*
X0099142Y0009426D01*
X0099447Y0008427D02*
X0097744Y0008427D01*
X0097274Y0007429D02*
X0099917Y0007429D01*
X0100915Y0006430D02*
X0096275Y0006430D01*
X0090915Y0006430D02*
X0075275Y0006430D01*
X0076274Y0007429D02*
X0089917Y0007429D01*
X0089447Y0008427D02*
X0076744Y0008427D01*
X0077048Y0009426D02*
X0089142Y0009426D01*
X0089142Y0010424D02*
X0077048Y0010424D01*
X0077048Y0011423D02*
X0089142Y0011423D01*
X0089142Y0012421D02*
X0077048Y0012421D01*
X0077048Y0013420D02*
X0089142Y0013420D01*
X0089142Y0014418D02*
X0077048Y0014418D01*
X0077048Y0015417D02*
X0089142Y0015417D01*
X0089142Y0016415D02*
X0077048Y0016415D01*
X0076810Y0017414D02*
X0089381Y0017414D01*
X0089794Y0018412D02*
X0076396Y0018412D01*
X0075434Y0019411D02*
X0090756Y0019411D01*
X0100820Y0022406D02*
X0152995Y0022406D01*
X0152995Y0023405D02*
X0101271Y0023405D01*
X0102251Y0024403D02*
X0152995Y0024403D01*
X0152995Y0025402D02*
X0114294Y0025402D01*
X0114960Y0026400D02*
X0152995Y0026400D01*
X0152995Y0027399D02*
X0115625Y0027399D01*
X0116811Y0028397D02*
X0152995Y0028397D01*
X0152995Y0029396D02*
X0117267Y0029396D01*
X0117295Y0030394D02*
X0152995Y0030394D01*
X0152995Y0031393D02*
X0116941Y0031393D01*
X0115877Y0032391D02*
X0152995Y0032391D01*
X0152995Y0033390D02*
X0069542Y0033390D01*
X0069895Y0032391D02*
X0113313Y0032391D01*
X0112250Y0031393D02*
X0069866Y0031393D01*
X0069408Y0030394D02*
X0111895Y0030394D01*
X0111428Y0029396D02*
X0071867Y0029396D01*
X0069324Y0029396D02*
X0067963Y0029396D01*
X0068251Y0028397D02*
X0057658Y0028397D01*
X0056860Y0027399D02*
X0067895Y0027399D01*
X0067921Y0026400D02*
X0056269Y0026400D01*
X0055815Y0025402D02*
X0068375Y0025402D01*
X0066427Y0029396D02*
X0058457Y0029396D01*
X0054963Y0032391D02*
X0028494Y0032391D01*
X0028494Y0031393D02*
X0054164Y0031393D01*
X0053365Y0030394D02*
X0028494Y0030394D01*
X0028494Y0029396D02*
X0052324Y0029396D01*
X0051251Y0028397D02*
X0028494Y0028397D01*
X0028494Y0027399D02*
X0050895Y0027399D01*
X0050921Y0026400D02*
X0028494Y0026400D01*
X0028494Y0025402D02*
X0051375Y0025402D01*
X0055434Y0019411D02*
X0059756Y0019411D01*
X0058794Y0018412D02*
X0056396Y0018412D01*
X0056810Y0017414D02*
X0058381Y0017414D01*
X0058142Y0016415D02*
X0057048Y0016415D01*
X0057048Y0015417D02*
X0058142Y0015417D01*
X0058142Y0014418D02*
X0057048Y0014418D01*
X0057048Y0013420D02*
X0058142Y0013420D01*
X0058142Y0012421D02*
X0057048Y0012421D01*
X0057048Y0011423D02*
X0058142Y0011423D01*
X0058142Y0010424D02*
X0057048Y0010424D01*
X0057048Y0009426D02*
X0058142Y0009426D01*
X0058447Y0008427D02*
X0056744Y0008427D01*
X0056274Y0007429D02*
X0058917Y0007429D01*
X0059915Y0006430D02*
X0055275Y0006430D01*
X0065275Y0006430D02*
X0069915Y0006430D01*
X0068917Y0007429D02*
X0066274Y0007429D01*
X0066744Y0008427D02*
X0068447Y0008427D01*
X0068142Y0009426D02*
X0067048Y0009426D01*
X0067048Y0010424D02*
X0068142Y0010424D01*
X0068142Y0011423D02*
X0067048Y0011423D01*
X0067048Y0012421D02*
X0068142Y0012421D01*
X0068142Y0013420D02*
X0067048Y0013420D01*
X0067048Y0014418D02*
X0068142Y0014418D01*
X0068142Y0015417D02*
X0067048Y0015417D01*
X0067048Y0016415D02*
X0068142Y0016415D01*
X0068381Y0017414D02*
X0066810Y0017414D01*
X0066396Y0018412D02*
X0068794Y0018412D01*
X0069756Y0019411D02*
X0065434Y0019411D01*
X0065906Y0034388D02*
X0058291Y0034388D01*
X0058263Y0034388D02*
X0028494Y0034388D01*
X0028494Y0033390D02*
X0055732Y0033390D01*
X0068485Y0034388D02*
X0152995Y0034388D01*
X0152995Y0035387D02*
X0028494Y0035387D01*
X0028494Y0036385D02*
X0152995Y0036385D01*
X0152995Y0037384D02*
X0028494Y0037384D01*
X0028494Y0038382D02*
X0152995Y0038382D01*
X0152995Y0039381D02*
X0028494Y0039381D01*
X0028494Y0040379D02*
X0152995Y0040379D01*
X0152995Y0041378D02*
X0028494Y0041378D01*
X0028494Y0042376D02*
X0152995Y0042376D01*
X0152995Y0043375D02*
X0028494Y0043375D01*
X0028494Y0044373D02*
X0152995Y0044373D01*
X0152995Y0045372D02*
X0028494Y0045372D01*
X0028494Y0046370D02*
X0152995Y0046370D01*
X0152995Y0047369D02*
X0028494Y0047369D01*
X0028494Y0048368D02*
X0152995Y0048368D01*
X0152995Y0049366D02*
X0028494Y0049366D01*
X0028494Y0050365D02*
X0152995Y0050365D01*
X0152995Y0051363D02*
X0137574Y0051363D01*
X0138573Y0052362D02*
X0152995Y0052362D01*
X0152995Y0053360D02*
X0139571Y0053360D01*
X0140570Y0054359D02*
X0152995Y0054359D01*
X0152995Y0055357D02*
X0141569Y0055357D01*
X0142567Y0056356D02*
X0152995Y0056356D01*
X0152995Y0057354D02*
X0143566Y0057354D01*
X0144564Y0058353D02*
X0152995Y0058353D01*
X0152995Y0059351D02*
X0145582Y0059351D01*
X0146464Y0060350D02*
X0152995Y0060350D01*
X0152995Y0061348D02*
X0146445Y0061348D01*
X0146408Y0062347D02*
X0152995Y0062347D01*
X0152995Y0063345D02*
X0146381Y0063345D01*
X0146353Y0064344D02*
X0152995Y0064344D01*
X0152995Y0065342D02*
X0146325Y0065342D01*
X0146297Y0066341D02*
X0152995Y0066341D01*
X0152995Y0067339D02*
X0146270Y0067339D01*
X0146242Y0068338D02*
X0152995Y0068338D01*
X0152995Y0069336D02*
X0146214Y0069336D01*
X0146187Y0070335D02*
X0152995Y0070335D01*
X0152995Y0071333D02*
X0146159Y0071333D01*
X0146682Y0072332D02*
X0152995Y0072332D01*
X0152995Y0073330D02*
X0147681Y0073330D01*
X0148206Y0074329D02*
X0152995Y0074329D01*
X0152995Y0075327D02*
X0148550Y0075327D01*
X0148550Y0076326D02*
X0152995Y0076326D01*
X0152995Y0077324D02*
X0148550Y0077324D01*
X0148550Y0078323D02*
X0152995Y0078323D01*
X0152995Y0079321D02*
X0148550Y0079321D01*
X0148550Y0080320D02*
X0152995Y0080320D01*
X0152995Y0081318D02*
X0148550Y0081318D01*
X0148550Y0082317D02*
X0152995Y0082317D01*
X0152995Y0083315D02*
X0148354Y0083315D01*
X0147940Y0084314D02*
X0152995Y0084314D01*
X0152995Y0085312D02*
X0147038Y0085312D01*
X0145220Y0086311D02*
X0152995Y0086311D01*
X0152995Y0087309D02*
X0107002Y0087309D01*
X0107989Y0086311D02*
X0132970Y0086311D01*
X0131152Y0085312D02*
X0108976Y0085312D01*
X0109962Y0084314D02*
X0130250Y0084314D01*
X0129837Y0083315D02*
X0110949Y0083315D01*
X0111936Y0082317D02*
X0129640Y0082317D01*
X0129640Y0081318D02*
X0112923Y0081318D01*
X0113909Y0080320D02*
X0129640Y0080320D01*
X0129640Y0079321D02*
X0114896Y0079321D01*
X0115889Y0078323D02*
X0129640Y0078323D01*
X0129640Y0077324D02*
X0116565Y0077324D01*
X0116884Y0076326D02*
X0129640Y0076326D01*
X0129640Y0075327D02*
X0116835Y0075327D01*
X0116368Y0074329D02*
X0129984Y0074329D01*
X0130510Y0073330D02*
X0114938Y0073330D01*
X0113584Y0072332D02*
X0130843Y0072332D01*
X0130639Y0071333D02*
X0112585Y0071333D01*
X0111587Y0070335D02*
X0130434Y0070335D01*
X0130230Y0069336D02*
X0097548Y0069336D01*
X0096549Y0068338D02*
X0130026Y0068338D01*
X0129822Y0067339D02*
X0095551Y0067339D01*
X0094552Y0066341D02*
X0129617Y0066341D01*
X0129413Y0065342D02*
X0093554Y0065342D01*
X0092555Y0064344D02*
X0129209Y0064344D01*
X0129005Y0063345D02*
X0091557Y0063345D01*
X0090884Y0062347D02*
X0128800Y0062347D01*
X0128596Y0061348D02*
X0090637Y0061348D01*
X0089889Y0060350D02*
X0128392Y0060350D01*
X0128188Y0059351D02*
X0077756Y0059351D01*
X0076435Y0059351D02*
X0075679Y0059351D01*
X0079263Y0060350D02*
X0086301Y0060350D01*
X0085553Y0061348D02*
X0082388Y0061348D01*
X0083136Y0062347D02*
X0085306Y0062347D01*
X0085426Y0063345D02*
X0083384Y0063345D01*
X0083264Y0064344D02*
X0085995Y0064344D01*
X0084756Y0065342D02*
X0088321Y0065342D01*
X0089320Y0066341D02*
X0085537Y0066341D01*
X0085795Y0067339D02*
X0090318Y0067339D01*
X0091317Y0068338D02*
X0085671Y0068338D01*
X0085077Y0069336D02*
X0092315Y0069336D01*
X0093314Y0070335D02*
X0083645Y0070335D01*
X0083394Y0071333D02*
X0094312Y0071333D01*
X0092395Y0078357D02*
X0090252Y0080500D01*
X0085855Y0080500D01*
X0085813Y0080538D01*
X0085096Y0080500D01*
X0084379Y0080500D01*
X0084339Y0080460D01*
X0084163Y0080451D01*
X0083825Y0080789D01*
X0082832Y0081200D01*
X0081758Y0081200D01*
X0080766Y0080789D01*
X0080006Y0080029D01*
X0079595Y0079037D01*
X0079595Y0077963D01*
X0080006Y0076971D01*
X0080766Y0076211D01*
X0081275Y0076000D01*
X0073015Y0076000D01*
X0073705Y0076286D01*
X0074464Y0077045D01*
X0074875Y0078037D01*
X0074875Y0079112D01*
X0074464Y0080104D01*
X0074445Y0080123D01*
X0074445Y0082266D01*
X0073361Y0083350D01*
X0067525Y0089186D01*
X0067525Y0089348D01*
X0066441Y0090431D01*
X0064295Y0092578D01*
X0064295Y0094300D01*
X0065132Y0094300D01*
X0066125Y0094711D01*
X0066326Y0094912D01*
X0072227Y0089701D01*
X0072751Y0089177D01*
X0072820Y0089177D01*
X0072844Y0089156D01*
X0072881Y0089158D01*
X0072913Y0089129D01*
X0072914Y0089129D01*
X0073690Y0089172D01*
X0073775Y0089177D01*
X0092802Y0089177D01*
X0093245Y0088734D01*
X0093245Y0079968D01*
X0092806Y0079529D01*
X0092395Y0078537D01*
X0092395Y0078357D01*
X0092720Y0079321D02*
X0091431Y0079321D01*
X0090432Y0080320D02*
X0093245Y0080320D01*
X0093245Y0081318D02*
X0080173Y0081318D01*
X0080295Y0081613D02*
X0080295Y0081931D01*
X0083090Y0084150D01*
X0083627Y0084150D01*
X0084066Y0083711D01*
X0085058Y0083300D01*
X0086132Y0083300D01*
X0087125Y0083711D01*
X0087884Y0084471D01*
X0088295Y0085463D01*
X0088295Y0086537D01*
X0087884Y0087529D01*
X0087125Y0088289D01*
X0086132Y0088700D01*
X0085058Y0088700D01*
X0084066Y0088289D01*
X0083627Y0087850D01*
X0082551Y0087850D01*
X0081895Y0087925D01*
X0081800Y0087850D01*
X0081679Y0087850D01*
X0081212Y0087383D01*
X0078021Y0084850D01*
X0077058Y0084850D01*
X0076066Y0084439D01*
X0075306Y0083679D01*
X0074895Y0082687D01*
X0074895Y0081613D01*
X0075306Y0080621D01*
X0076066Y0079861D01*
X0077058Y0079450D01*
X0078132Y0079450D01*
X0079125Y0079861D01*
X0079884Y0080621D01*
X0080295Y0081613D01*
X0080781Y0082317D02*
X0093245Y0082317D01*
X0093245Y0083315D02*
X0086169Y0083315D01*
X0085021Y0083315D02*
X0082039Y0083315D01*
X0080297Y0080320D02*
X0079583Y0080320D01*
X0079713Y0079321D02*
X0074788Y0079321D01*
X0074875Y0078323D02*
X0079595Y0078323D01*
X0079860Y0077324D02*
X0074580Y0077324D01*
X0073745Y0076326D02*
X0080651Y0076326D01*
X0075607Y0080320D02*
X0074445Y0080320D01*
X0074445Y0081318D02*
X0075017Y0081318D01*
X0074895Y0082317D02*
X0074395Y0082317D01*
X0075155Y0083315D02*
X0073396Y0083315D01*
X0072398Y0084314D02*
X0075941Y0084314D01*
X0078603Y0085312D02*
X0071399Y0085312D01*
X0070400Y0086311D02*
X0079861Y0086311D01*
X0081119Y0087309D02*
X0069402Y0087309D01*
X0068403Y0088308D02*
X0084112Y0088308D01*
X0087079Y0088308D02*
X0093245Y0088308D01*
X0093245Y0087309D02*
X0087975Y0087309D01*
X0088295Y0086311D02*
X0093245Y0086311D01*
X0093245Y0085312D02*
X0088233Y0085312D01*
X0087727Y0084314D02*
X0093245Y0084314D01*
X0088561Y0092877D02*
X0074431Y0092877D01*
X0074387Y0092917D01*
X0074238Y0092909D01*
X0074229Y0092917D01*
X0074178Y0092914D01*
X0068646Y0097800D01*
X0070219Y0097800D01*
X0070463Y0097556D01*
X0070472Y0097460D01*
X0070662Y0097302D01*
X0071006Y0096471D01*
X0071766Y0095711D01*
X0072758Y0095300D01*
X0073832Y0095300D01*
X0074825Y0095711D01*
X0075584Y0096471D01*
X0075995Y0097463D01*
X0075995Y0098537D01*
X0075584Y0099529D01*
X0074825Y0100289D01*
X0073832Y0100700D01*
X0072758Y0100700D01*
X0072612Y0100640D01*
X0071752Y0101500D01*
X0063438Y0101500D01*
X0062355Y0100416D01*
X0060595Y0098657D01*
X0060595Y0091045D01*
X0061679Y0089962D01*
X0063825Y0087815D01*
X0063825Y0087654D01*
X0070631Y0080848D01*
X0069886Y0080104D01*
X0069475Y0079112D01*
X0069475Y0078037D01*
X0069886Y0077045D01*
X0070646Y0076286D01*
X0071335Y0076000D01*
X0068624Y0076000D01*
X0043536Y0099809D01*
X0043558Y0099800D01*
X0044632Y0099800D01*
X0045625Y0100211D01*
X0046384Y0100971D01*
X0046795Y0101963D01*
X0046795Y0103037D01*
X0046748Y0103150D01*
X0057861Y0103150D01*
X0058306Y0103595D01*
X0058306Y0102945D01*
X0058731Y0101920D01*
X0059515Y0101136D01*
X0060540Y0100711D01*
X0061650Y0100711D01*
X0062675Y0101136D01*
X0063460Y0101920D01*
X0063884Y0102945D01*
X0063884Y0103150D01*
X0065861Y0103150D01*
X0066945Y0104234D01*
X0069361Y0106650D01*
X0080329Y0106650D01*
X0088709Y0098270D01*
X0087595Y0097157D01*
X0087595Y0093843D01*
X0088561Y0092877D01*
X0088138Y0093301D02*
X0073741Y0093301D01*
X0072610Y0094299D02*
X0087595Y0094299D01*
X0087595Y0095298D02*
X0071480Y0095298D01*
X0071181Y0096296D02*
X0070349Y0096296D01*
X0070665Y0097295D02*
X0069218Y0097295D01*
X0067021Y0094299D02*
X0064295Y0094299D01*
X0064295Y0093301D02*
X0068151Y0093301D01*
X0069282Y0092302D02*
X0064571Y0092302D01*
X0065569Y0091303D02*
X0070413Y0091303D01*
X0071543Y0090305D02*
X0066568Y0090305D01*
X0067525Y0089306D02*
X0072622Y0089306D01*
X0072914Y0089129D02*
X0072914Y0089129D01*
X0067165Y0084314D02*
X0059863Y0084314D01*
X0058811Y0085312D02*
X0066166Y0085312D01*
X0065168Y0086311D02*
X0057759Y0086311D01*
X0056707Y0087309D02*
X0064169Y0087309D01*
X0063332Y0088308D02*
X0055655Y0088308D01*
X0054603Y0089306D02*
X0062334Y0089306D01*
X0061335Y0090305D02*
X0053551Y0090305D01*
X0052498Y0091303D02*
X0060595Y0091303D01*
X0060595Y0092302D02*
X0051446Y0092302D01*
X0050394Y0093301D02*
X0060595Y0093301D01*
X0060595Y0094299D02*
X0049342Y0094299D01*
X0048290Y0095298D02*
X0060595Y0095298D01*
X0060595Y0096296D02*
X0047238Y0096296D01*
X0046186Y0097295D02*
X0060595Y0097295D01*
X0060595Y0098293D02*
X0045133Y0098293D01*
X0044081Y0099292D02*
X0061230Y0099292D01*
X0062228Y0100290D02*
X0045704Y0100290D01*
X0046516Y0101289D02*
X0059362Y0101289D01*
X0058579Y0102287D02*
X0046795Y0102287D01*
X0042479Y0095298D02*
X0040595Y0095298D01*
X0040595Y0096296D02*
X0041427Y0096296D01*
X0040595Y0097085D02*
X0057176Y0081350D01*
X0043188Y0081350D01*
X0043047Y0081451D01*
X0042442Y0081350D01*
X0041829Y0081350D01*
X0041706Y0081227D01*
X0041535Y0081199D01*
X0041179Y0080700D01*
X0040745Y0080266D01*
X0040745Y0080093D01*
X0040113Y0079208D01*
X0039960Y0079580D01*
X0039445Y0080094D01*
X0039445Y0086193D01*
X0040595Y0087343D01*
X0040595Y0097085D01*
X0040595Y0094299D02*
X0043531Y0094299D01*
X0044583Y0093301D02*
X0040595Y0093301D01*
X0040595Y0092302D02*
X0045635Y0092302D01*
X0046688Y0091303D02*
X0040595Y0091303D01*
X0040595Y0090305D02*
X0047740Y0090305D01*
X0048792Y0089306D02*
X0040595Y0089306D01*
X0040595Y0088308D02*
X0049844Y0088308D01*
X0050896Y0087309D02*
X0040561Y0087309D01*
X0039563Y0086311D02*
X0051948Y0086311D01*
X0053000Y0085312D02*
X0039445Y0085312D01*
X0039445Y0084314D02*
X0054053Y0084314D01*
X0055105Y0083315D02*
X0039445Y0083315D01*
X0039445Y0082317D02*
X0056157Y0082317D01*
X0060915Y0083315D02*
X0068163Y0083315D01*
X0069162Y0082317D02*
X0061968Y0082317D01*
X0063020Y0081318D02*
X0070160Y0081318D01*
X0070102Y0080320D02*
X0064072Y0080320D01*
X0065124Y0079321D02*
X0069562Y0079321D01*
X0069475Y0078323D02*
X0066176Y0078323D01*
X0067228Y0077324D02*
X0069771Y0077324D01*
X0070606Y0076326D02*
X0068280Y0076326D01*
X0067826Y0074000D02*
X0038395Y0101931D01*
X0035519Y0099292D02*
X0028494Y0099292D01*
X0028494Y0100290D02*
X0034520Y0100290D01*
X0034295Y0101289D02*
X0028494Y0101289D01*
X0028494Y0102287D02*
X0034295Y0102287D01*
X0034295Y0103286D02*
X0028494Y0103286D01*
X0028494Y0104284D02*
X0034295Y0104284D01*
X0034332Y0105283D02*
X0028494Y0105283D01*
X0028494Y0106281D02*
X0035331Y0106281D01*
X0036329Y0107280D02*
X0028494Y0107280D01*
X0028494Y0108278D02*
X0036795Y0108278D01*
X0036795Y0109277D02*
X0028494Y0109277D01*
X0028494Y0110275D02*
X0036795Y0110275D01*
X0036795Y0111274D02*
X0028494Y0111274D01*
X0028494Y0112272D02*
X0036795Y0112272D01*
X0036795Y0113271D02*
X0028494Y0113271D01*
X0028494Y0114269D02*
X0036795Y0114269D01*
X0036795Y0115268D02*
X0028494Y0115268D01*
X0028494Y0116266D02*
X0036795Y0116266D01*
X0036795Y0117265D02*
X0028494Y0117265D01*
X0028494Y0118263D02*
X0036795Y0118263D01*
X0037311Y0119262D02*
X0028494Y0119262D01*
X0028494Y0120260D02*
X0038310Y0120260D01*
X0051595Y0116000D02*
X0056595Y0116000D01*
X0056595Y0116000D01*
X0053127Y0116000D01*
X0051595Y0116000D01*
X0051595Y0116000D01*
X0057997Y0103286D02*
X0058306Y0103286D01*
X0062828Y0101289D02*
X0063227Y0101289D01*
X0063612Y0102287D02*
X0084692Y0102287D01*
X0085690Y0101289D02*
X0071963Y0101289D01*
X0074822Y0100290D02*
X0086689Y0100290D01*
X0087687Y0099292D02*
X0075683Y0099292D01*
X0075995Y0098293D02*
X0088686Y0098293D01*
X0087733Y0097295D02*
X0075925Y0097295D01*
X0075410Y0096296D02*
X0087595Y0096296D01*
X0091295Y0095624D02*
X0091361Y0095691D01*
X0092445Y0096774D01*
X0092445Y0096776D01*
X0095013Y0094177D01*
X0093542Y0094177D01*
X0092494Y0094177D01*
X0091295Y0095376D01*
X0091295Y0095624D01*
X0091373Y0095298D02*
X0093906Y0095298D01*
X0092919Y0096296D02*
X0091967Y0096296D01*
X0092372Y0094299D02*
X0094893Y0094299D01*
X0097134Y0097295D02*
X0152995Y0097295D01*
X0152995Y0098293D02*
X0148535Y0098293D01*
X0147936Y0098045D02*
X0149574Y0098723D01*
X0150827Y0099976D01*
X0151505Y0101614D01*
X0151505Y0103386D01*
X0150827Y0105024D01*
X0149574Y0106277D01*
X0147936Y0106955D01*
X0140254Y0106955D01*
X0138617Y0106277D01*
X0137363Y0105024D01*
X0136685Y0103386D01*
X0136685Y0101614D01*
X0137363Y0099976D01*
X0138617Y0098723D01*
X0140254Y0098045D01*
X0147936Y0098045D01*
X0150142Y0099292D02*
X0152995Y0099292D01*
X0152995Y0100290D02*
X0150957Y0100290D01*
X0151370Y0101289D02*
X0152995Y0101289D01*
X0152995Y0102287D02*
X0151505Y0102287D01*
X0151505Y0103286D02*
X0152995Y0103286D01*
X0152995Y0104284D02*
X0151133Y0104284D01*
X0150568Y0105283D02*
X0152995Y0105283D01*
X0152995Y0106281D02*
X0149563Y0106281D01*
X0148760Y0108371D02*
X0149385Y0108690D01*
X0149952Y0109102D01*
X0150448Y0109598D01*
X0150860Y0110165D01*
X0151179Y0110790D01*
X0151395Y0111457D01*
X0151484Y0112015D01*
X0144580Y0112015D01*
X0144580Y0108045D01*
X0147401Y0108045D01*
X0148093Y0108155D01*
X0148760Y0108371D01*
X0148473Y0108278D02*
X0152995Y0108278D01*
X0152995Y0107280D02*
X0087267Y0107280D01*
X0086280Y0108278D02*
X0139717Y0108278D01*
X0139430Y0108371D02*
X0140097Y0108155D01*
X0140790Y0108045D01*
X0143610Y0108045D01*
X0143610Y0112015D01*
X0136706Y0112015D01*
X0136795Y0111457D01*
X0137012Y0110790D01*
X0137330Y0110165D01*
X0137742Y0109598D01*
X0138238Y0109102D01*
X0138805Y0108690D01*
X0139430Y0108371D01*
X0138063Y0109277D02*
X0085293Y0109277D01*
X0084306Y0110275D02*
X0137274Y0110275D01*
X0136854Y0111274D02*
X0083320Y0111274D01*
X0082333Y0112272D02*
X0143610Y0112272D01*
X0143610Y0112015D02*
X0143610Y0112985D01*
X0136706Y0112985D01*
X0136795Y0113543D01*
X0137012Y0114210D01*
X0137330Y0114835D01*
X0137742Y0115402D01*
X0138238Y0115898D01*
X0138805Y0116310D01*
X0139430Y0116629D01*
X0140097Y0116845D01*
X0140790Y0116955D01*
X0143610Y0116955D01*
X0143610Y0112985D01*
X0144580Y0112985D01*
X0144580Y0116955D01*
X0147401Y0116955D01*
X0148093Y0116845D01*
X0148760Y0116629D01*
X0149385Y0116310D01*
X0149952Y0115898D01*
X0150448Y0115402D01*
X0150860Y0114835D01*
X0151179Y0114210D01*
X0151395Y0113543D01*
X0151484Y0112985D01*
X0144580Y0112985D01*
X0144580Y0112015D01*
X0143610Y0112015D01*
X0143610Y0111274D02*
X0144580Y0111274D01*
X0144580Y0112272D02*
X0152995Y0112272D01*
X0152995Y0111274D02*
X0151336Y0111274D01*
X0150916Y0110275D02*
X0152995Y0110275D01*
X0152995Y0109277D02*
X0150127Y0109277D01*
X0151439Y0113271D02*
X0152995Y0113271D01*
X0152995Y0114269D02*
X0151149Y0114269D01*
X0150546Y0115268D02*
X0152995Y0115268D01*
X0152995Y0116266D02*
X0149446Y0116266D01*
X0152995Y0117265D02*
X0077399Y0117265D01*
X0076412Y0118263D02*
X0152995Y0118263D01*
X0152995Y0119262D02*
X0075426Y0119262D01*
X0074439Y0120260D02*
X0152995Y0120260D01*
X0144580Y0116266D02*
X0143610Y0116266D01*
X0143610Y0115268D02*
X0144580Y0115268D01*
X0144580Y0114269D02*
X0143610Y0114269D01*
X0143610Y0113271D02*
X0144580Y0113271D01*
X0144580Y0110275D02*
X0143610Y0110275D01*
X0143610Y0109277D02*
X0144580Y0109277D01*
X0144580Y0108278D02*
X0143610Y0108278D01*
X0138627Y0106281D02*
X0088254Y0106281D01*
X0089240Y0105283D02*
X0137622Y0105283D01*
X0137057Y0104284D02*
X0090227Y0104284D01*
X0091214Y0103286D02*
X0136685Y0103286D01*
X0136685Y0102287D02*
X0092201Y0102287D01*
X0093187Y0101289D02*
X0136820Y0101289D01*
X0137233Y0100290D02*
X0094174Y0100290D01*
X0095161Y0099292D02*
X0138048Y0099292D01*
X0139655Y0098293D02*
X0096148Y0098293D01*
X0098121Y0096296D02*
X0152995Y0096296D01*
X0152995Y0095298D02*
X0099108Y0095298D01*
X0100095Y0094299D02*
X0152995Y0094299D01*
X0152995Y0093301D02*
X0101081Y0093301D01*
X0102068Y0092302D02*
X0152995Y0092302D01*
X0152995Y0091303D02*
X0103055Y0091303D01*
X0104042Y0090305D02*
X0152995Y0090305D01*
X0152995Y0089306D02*
X0105028Y0089306D01*
X0106015Y0088308D02*
X0152995Y0088308D01*
X0142970Y0086311D02*
X0135220Y0086311D01*
X0137038Y0085312D02*
X0141152Y0085312D01*
X0140250Y0084314D02*
X0137940Y0084314D01*
X0138354Y0083315D02*
X0139837Y0083315D01*
X0139640Y0082317D02*
X0138550Y0082317D01*
X0138550Y0081318D02*
X0139640Y0081318D01*
X0139640Y0080320D02*
X0138550Y0080320D01*
X0138550Y0079321D02*
X0139640Y0079321D01*
X0139640Y0078323D02*
X0138550Y0078323D01*
X0138550Y0077324D02*
X0139640Y0077324D01*
X0139640Y0076326D02*
X0138550Y0076326D01*
X0138550Y0075327D02*
X0139640Y0075327D01*
X0139984Y0074329D02*
X0138206Y0074329D01*
X0137681Y0073330D02*
X0140510Y0073330D01*
X0141508Y0072332D02*
X0136682Y0072332D01*
X0134415Y0071333D02*
X0142457Y0071333D01*
X0142485Y0070335D02*
X0134211Y0070335D01*
X0134007Y0069336D02*
X0142513Y0069336D01*
X0142541Y0068338D02*
X0133802Y0068338D01*
X0133598Y0067339D02*
X0142568Y0067339D01*
X0142596Y0066341D02*
X0133394Y0066341D01*
X0133190Y0065342D02*
X0142624Y0065342D01*
X0142652Y0064344D02*
X0132986Y0064344D01*
X0132781Y0063345D02*
X0142679Y0063345D01*
X0142707Y0062347D02*
X0132577Y0062347D01*
X0132373Y0061348D02*
X0142327Y0061348D01*
X0141328Y0060350D02*
X0132169Y0060350D01*
X0131964Y0059351D02*
X0140330Y0059351D01*
X0139331Y0058353D02*
X0131760Y0058353D01*
X0131556Y0057354D02*
X0138333Y0057354D01*
X0137334Y0056356D02*
X0131441Y0056356D01*
X0130565Y0055357D02*
X0136336Y0055357D01*
X0123536Y0051363D02*
X0028494Y0051363D01*
X0028494Y0052362D02*
X0122737Y0052362D01*
X0121938Y0053360D02*
X0028494Y0053360D01*
X0028494Y0054359D02*
X0039282Y0054359D01*
X0038283Y0055357D02*
X0028494Y0055357D01*
X0028494Y0056356D02*
X0037285Y0056356D01*
X0036286Y0057354D02*
X0028494Y0057354D01*
X0028494Y0058353D02*
X0035288Y0058353D01*
X0034289Y0059351D02*
X0028494Y0059351D01*
X0028494Y0060350D02*
X0033291Y0060350D01*
X0032292Y0061348D02*
X0028494Y0061348D01*
X0028494Y0062347D02*
X0031294Y0062347D01*
X0031245Y0063345D02*
X0028494Y0063345D01*
X0028494Y0064344D02*
X0031245Y0064344D01*
X0031245Y0065342D02*
X0028494Y0065342D01*
X0028494Y0066341D02*
X0031245Y0066341D01*
X0031245Y0067339D02*
X0028494Y0067339D01*
X0028494Y0068338D02*
X0031245Y0068338D01*
X0031245Y0069336D02*
X0028494Y0069336D01*
X0028494Y0070335D02*
X0031245Y0070335D01*
X0031245Y0071333D02*
X0028494Y0071333D01*
X0028494Y0072332D02*
X0031245Y0072332D01*
X0031245Y0073330D02*
X0028494Y0073330D01*
X0028494Y0074329D02*
X0031245Y0074329D01*
X0031245Y0075327D02*
X0028494Y0075327D01*
X0028494Y0076326D02*
X0031245Y0076326D01*
X0031245Y0077324D02*
X0028494Y0077324D01*
X0028494Y0078323D02*
X0031245Y0078323D01*
X0030955Y0079321D02*
X0028494Y0079321D01*
X0028494Y0080320D02*
X0030454Y0080320D01*
X0030395Y0081318D02*
X0028494Y0081318D01*
X0028494Y0082317D02*
X0030718Y0082317D01*
X0031630Y0083315D02*
X0028494Y0083315D01*
X0028494Y0084314D02*
X0033395Y0084314D01*
X0033395Y0085312D02*
X0028494Y0085312D01*
X0028494Y0086311D02*
X0033395Y0086311D01*
X0029993Y0087309D02*
X0028494Y0087309D01*
X0028494Y0088308D02*
X0029470Y0088308D01*
X0029395Y0089306D02*
X0028494Y0089306D01*
X0028494Y0090305D02*
X0029703Y0090305D01*
X0030555Y0091303D02*
X0028494Y0091303D01*
X0028494Y0092302D02*
X0032755Y0092302D01*
X0033754Y0093301D02*
X0028494Y0093301D01*
X0028494Y0094299D02*
X0034745Y0094299D01*
X0034171Y0095298D02*
X0028494Y0095298D01*
X0028494Y0096296D02*
X0033895Y0096296D01*
X0034002Y0097295D02*
X0028494Y0097295D01*
X0028494Y0098293D02*
X0034570Y0098293D01*
X0039445Y0081318D02*
X0041797Y0081318D01*
X0040799Y0080320D02*
X0039445Y0080320D01*
X0040067Y0079321D02*
X0040194Y0079321D01*
X0065997Y0103286D02*
X0083693Y0103286D01*
X0082695Y0104284D02*
X0066996Y0104284D01*
X0067994Y0105283D02*
X0081696Y0105283D01*
X0080698Y0106281D02*
X0068993Y0106281D01*
X0078386Y0116266D02*
X0138745Y0116266D01*
X0137644Y0115268D02*
X0079373Y0115268D01*
X0080359Y0114269D02*
X0137042Y0114269D01*
X0136752Y0113271D02*
X0081346Y0113271D01*
X0084745Y0140500D02*
X0039702Y0140500D01*
X0039953Y0140752D01*
X0041095Y0143508D01*
X0041095Y0146492D01*
X0039953Y0149248D01*
X0037844Y0151358D01*
X0035087Y0152500D01*
X0032103Y0152500D01*
X0029347Y0151358D01*
X0028095Y0150107D01*
X0028095Y0247454D01*
X0029095Y0246454D01*
X0029095Y0244505D01*
X0029856Y0242668D01*
X0031263Y0241261D01*
X0033101Y0240500D01*
X0035090Y0240500D01*
X0036927Y0241261D01*
X0037295Y0241629D01*
X0037295Y0233022D01*
X0036650Y0233289D01*
X0035540Y0233289D01*
X0034515Y0232864D01*
X0033731Y0232080D01*
X0033306Y0231055D01*
X0033306Y0230257D01*
X0032106Y0229057D01*
X0032106Y0221848D01*
X0032795Y0221159D01*
X0032795Y0179254D01*
X0043395Y0168654D01*
X0043395Y0168432D01*
X0044450Y0167377D01*
X0046676Y0165151D01*
X0045356Y0163832D01*
X0044595Y0161995D01*
X0044595Y0160005D01*
X0045356Y0158168D01*
X0046763Y0156761D01*
X0048601Y0156000D01*
X0050590Y0156000D01*
X0052427Y0156761D01*
X0053834Y0158168D01*
X0054595Y0160005D01*
X0055356Y0158168D01*
X0056763Y0156761D01*
X0058601Y0156000D01*
X0060590Y0156000D01*
X0062427Y0156761D01*
X0063834Y0158168D01*
X0064595Y0160005D01*
X0065356Y0158168D01*
X0066763Y0156761D01*
X0068601Y0156000D01*
X0070590Y0156000D01*
X0072427Y0156761D01*
X0073834Y0158168D01*
X0074595Y0160005D01*
X0075356Y0158168D01*
X0076763Y0156761D01*
X0078601Y0156000D01*
X0080590Y0156000D01*
X0082427Y0156761D01*
X0083834Y0158168D01*
X0084306Y0159308D01*
X0084540Y0159211D01*
X0085403Y0159211D01*
X0085731Y0158420D01*
X0086515Y0157636D01*
X0087540Y0157211D01*
X0088650Y0157211D01*
X0089675Y0157636D01*
X0090460Y0158420D01*
X0090884Y0159445D01*
X0090884Y0160243D01*
X0092395Y0161754D01*
X0092395Y0163356D01*
X0092960Y0163920D01*
X0093384Y0164945D01*
X0093384Y0166055D01*
X0093016Y0166943D01*
X0094412Y0166943D01*
X0094794Y0167045D01*
X0095136Y0167242D01*
X0095415Y0167521D01*
X0095613Y0167864D01*
X0095715Y0168245D01*
X0095715Y0170846D01*
X0096040Y0170711D01*
X0097150Y0170711D01*
X0098175Y0171136D01*
X0098420Y0171381D01*
X0098420Y0167821D01*
X0099299Y0166943D01*
X0099795Y0166943D01*
X0099795Y0153057D01*
X0094771Y0153057D01*
X0093893Y0152179D01*
X0093893Y0150550D01*
X0093445Y0150550D01*
X0093445Y0151271D01*
X0092566Y0152150D01*
X0088241Y0152150D01*
X0087591Y0152800D01*
X0084595Y0152800D01*
X0084595Y0155121D01*
X0083716Y0156000D01*
X0075474Y0156000D01*
X0074595Y0155121D01*
X0073716Y0156000D01*
X0065474Y0156000D01*
X0064595Y0155121D01*
X0063716Y0156000D01*
X0055474Y0156000D01*
X0054595Y0155121D01*
X0053716Y0156000D01*
X0045474Y0156000D01*
X0044595Y0155121D01*
X0044595Y0146879D01*
X0045474Y0146000D01*
X0053716Y0146000D01*
X0054595Y0146879D01*
X0054595Y0155121D01*
X0054595Y0146879D01*
X0055474Y0146000D01*
X0063716Y0146000D01*
X0064595Y0146879D01*
X0064595Y0155121D01*
X0064595Y0146879D01*
X0065474Y0146000D01*
X0073716Y0146000D01*
X0074595Y0146879D01*
X0074595Y0155121D01*
X0074595Y0146879D01*
X0075474Y0146000D01*
X0083716Y0146000D01*
X0084595Y0146879D01*
X0084595Y0149200D01*
X0084745Y0149200D01*
X0084745Y0146229D01*
X0085514Y0145460D01*
X0085324Y0145350D01*
X0085045Y0145071D01*
X0084847Y0144729D01*
X0084745Y0144347D01*
X0084745Y0142700D01*
X0088645Y0142700D01*
X0088645Y0141800D01*
X0084745Y0141800D01*
X0084745Y0140500D01*
X0084745Y0141229D02*
X0040151Y0141229D01*
X0040565Y0142228D02*
X0088645Y0142228D01*
X0089545Y0142228D02*
X0158761Y0142228D01*
X0158847Y0142142D02*
X0161603Y0141000D01*
X0164587Y0141000D01*
X0167344Y0142142D01*
X0169453Y0144252D01*
X0170595Y0147008D01*
X0170595Y0149992D01*
X0169453Y0152748D01*
X0167344Y0154858D01*
X0164587Y0156000D01*
X0161603Y0156000D01*
X0158847Y0154858D01*
X0156737Y0152748D01*
X0155595Y0149992D01*
X0155595Y0147008D01*
X0156737Y0144252D01*
X0158847Y0142142D01*
X0157762Y0143226D02*
X0108521Y0143226D01*
X0108419Y0143124D02*
X0109297Y0144002D01*
X0109297Y0146291D01*
X0147608Y0146291D01*
X0151817Y0150500D01*
X0152641Y0150500D01*
X0158841Y0156700D01*
X0159895Y0157754D01*
X0159895Y0165700D01*
X0160066Y0165700D01*
X0160945Y0166579D01*
X0160945Y0171421D01*
X0160066Y0172300D01*
X0159345Y0172300D01*
X0159345Y0175200D01*
X0160066Y0175200D01*
X0160945Y0176079D01*
X0160945Y0176700D01*
X0164341Y0176700D01*
X0165852Y0178211D01*
X0166650Y0178211D01*
X0167675Y0178636D01*
X0168460Y0179420D01*
X0168884Y0180445D01*
X0168884Y0181555D01*
X0168622Y0182189D01*
X0168710Y0182200D01*
X0169341Y0182200D01*
X0169433Y0182293D01*
X0169564Y0182309D01*
X0169949Y0182808D01*
X0170395Y0183254D01*
X0170395Y0183386D01*
X0170595Y0183644D01*
X0170595Y0140500D01*
X0093445Y0140500D01*
X0093445Y0141800D01*
X0089545Y0141800D01*
X0089545Y0142700D01*
X0093445Y0142700D01*
X0093445Y0144347D01*
X0093343Y0144729D01*
X0093145Y0145071D01*
X0092866Y0145350D01*
X0092676Y0145460D01*
X0093445Y0146229D01*
X0093445Y0146950D01*
X0093893Y0146950D01*
X0093893Y0144002D01*
X0094771Y0143124D01*
X0108419Y0143124D01*
X0109297Y0144225D02*
X0156764Y0144225D01*
X0156335Y0145223D02*
X0109297Y0145223D01*
X0109297Y0146222D02*
X0155921Y0146222D01*
X0155595Y0147220D02*
X0148537Y0147220D01*
X0149536Y0148219D02*
X0155595Y0148219D01*
X0155595Y0149217D02*
X0150534Y0149217D01*
X0151533Y0150216D02*
X0155688Y0150216D01*
X0156101Y0151214D02*
X0153355Y0151214D01*
X0154353Y0152213D02*
X0156515Y0152213D01*
X0157200Y0153211D02*
X0155352Y0153211D01*
X0156350Y0154210D02*
X0158198Y0154210D01*
X0157349Y0155208D02*
X0159692Y0155208D01*
X0158347Y0156207D02*
X0170595Y0156207D01*
X0170595Y0157205D02*
X0159346Y0157205D01*
X0159895Y0158204D02*
X0170595Y0158204D01*
X0170595Y0159202D02*
X0159895Y0159202D01*
X0159895Y0160201D02*
X0170595Y0160201D01*
X0170595Y0161199D02*
X0159895Y0161199D01*
X0159895Y0162198D02*
X0170595Y0162198D01*
X0170595Y0163196D02*
X0159895Y0163196D01*
X0159895Y0164195D02*
X0170595Y0164195D01*
X0170595Y0165193D02*
X0159895Y0165193D01*
X0160558Y0166192D02*
X0170595Y0166192D01*
X0170595Y0167190D02*
X0160945Y0167190D01*
X0160945Y0168189D02*
X0170595Y0168189D01*
X0170595Y0169187D02*
X0160945Y0169187D01*
X0160945Y0170186D02*
X0170595Y0170186D01*
X0170595Y0171184D02*
X0160945Y0171184D01*
X0160184Y0172183D02*
X0170595Y0172183D01*
X0170595Y0173181D02*
X0159345Y0173181D01*
X0159345Y0174180D02*
X0170595Y0174180D01*
X0170595Y0175178D02*
X0159345Y0175178D01*
X0160945Y0176177D02*
X0170595Y0176177D01*
X0170595Y0177175D02*
X0164816Y0177175D01*
X0165815Y0178174D02*
X0170595Y0178174D01*
X0170595Y0179172D02*
X0168212Y0179172D01*
X0168771Y0180171D02*
X0170595Y0180171D01*
X0170595Y0181170D02*
X0168884Y0181170D01*
X0168630Y0182168D02*
X0170595Y0182168D01*
X0170595Y0183167D02*
X0170307Y0183167D01*
X0167295Y0198522D02*
X0166650Y0198789D01*
X0165852Y0198789D01*
X0163895Y0200746D01*
X0163895Y0206754D01*
X0164395Y0207254D01*
X0164395Y0214246D01*
X0163341Y0215300D01*
X0160945Y0217696D01*
X0160945Y0219421D01*
X0160066Y0220300D01*
X0155024Y0220300D01*
X0154145Y0219421D01*
X0154145Y0215289D01*
X0154045Y0215289D01*
X0154045Y0219421D01*
X0153166Y0220300D01*
X0149891Y0220300D01*
X0140945Y0229246D01*
X0139891Y0230300D01*
X0126841Y0230300D01*
X0120781Y0236360D01*
X0120781Y0238713D01*
X0125508Y0238713D01*
X0126386Y0239591D01*
X0126386Y0244285D01*
X0132312Y0250211D01*
X0133150Y0250211D01*
X0134175Y0250636D01*
X0134960Y0251420D01*
X0135384Y0252445D01*
X0135384Y0253555D01*
X0134960Y0254580D01*
X0134175Y0255364D01*
X0133150Y0255789D01*
X0132040Y0255789D01*
X0131015Y0255364D01*
X0130231Y0254580D01*
X0129806Y0253555D01*
X0129806Y0252796D01*
X0125659Y0248648D01*
X0125508Y0248799D01*
X0099462Y0248799D01*
X0099385Y0248723D01*
X0099100Y0248799D01*
X0097615Y0248799D01*
X0097615Y0244043D01*
X0097040Y0244043D01*
X0097040Y0243468D01*
X0094253Y0243468D01*
X0094253Y0240300D01*
X0092341Y0240300D01*
X0085895Y0246746D01*
X0084841Y0247800D01*
X0083466Y0247800D01*
X0083834Y0248168D01*
X0084595Y0250005D01*
X0084595Y0251995D01*
X0083834Y0253832D01*
X0082427Y0255239D01*
X0080590Y0256000D01*
X0082427Y0256761D01*
X0083834Y0258168D01*
X0084595Y0260005D01*
X0084595Y0261995D01*
X0083834Y0263832D01*
X0082427Y0265239D01*
X0080590Y0266000D01*
X0082306Y0266711D01*
X0082306Y0266445D01*
X0082731Y0265420D01*
X0083515Y0264636D01*
X0084540Y0264211D01*
X0085650Y0264211D01*
X0086675Y0264636D01*
X0087239Y0265200D01*
X0088860Y0265200D01*
X0089260Y0264800D01*
X0141536Y0264800D01*
X0142591Y0265854D01*
X0146694Y0269957D01*
X0147015Y0269636D01*
X0148040Y0269211D01*
X0149150Y0269211D01*
X0150175Y0269636D01*
X0150960Y0270420D01*
X0151384Y0271445D01*
X0151384Y0272555D01*
X0150960Y0273580D01*
X0150175Y0274364D01*
X0149150Y0274789D01*
X0148040Y0274789D01*
X0147015Y0274364D01*
X0146451Y0273800D01*
X0145445Y0273800D01*
X0144842Y0273197D01*
X0144395Y0273644D01*
X0144395Y0277246D01*
X0139884Y0281757D01*
X0139884Y0282211D01*
X0140150Y0282211D01*
X0141175Y0282636D01*
X0141960Y0283420D01*
X0142384Y0284445D01*
X0142384Y0285555D01*
X0142218Y0285957D01*
X0143497Y0285957D01*
X0143497Y0290713D01*
X0144072Y0290713D01*
X0144072Y0285957D01*
X0145556Y0285957D01*
X0145842Y0286033D01*
X0145919Y0285957D01*
X0150311Y0285957D01*
X0150388Y0286033D01*
X0150673Y0285957D01*
X0152158Y0285957D01*
X0152158Y0290713D01*
X0152733Y0290713D01*
X0152733Y0291287D01*
X0155520Y0291287D01*
X0155520Y0294741D01*
X0155418Y0295122D01*
X0155221Y0295464D01*
X0154941Y0295744D01*
X0154599Y0295941D01*
X0154218Y0296043D01*
X0152733Y0296043D01*
X0152733Y0291287D01*
X0152158Y0291287D01*
X0152158Y0296043D01*
X0150673Y0296043D01*
X0150388Y0295967D01*
X0150311Y0296043D01*
X0149395Y0296043D01*
X0149395Y0297246D01*
X0148341Y0298300D01*
X0147395Y0299246D01*
X0146341Y0300300D01*
X0145865Y0300300D01*
X0146675Y0300636D01*
X0147460Y0301420D01*
X0147884Y0302445D01*
X0147884Y0303555D01*
X0147460Y0304580D01*
X0146675Y0305364D01*
X0146221Y0305552D01*
X0146384Y0305945D01*
X0146384Y0307055D01*
X0145960Y0308080D01*
X0145395Y0308644D01*
X0145395Y0314977D01*
X0147191Y0316773D01*
X0147856Y0315168D01*
X0149263Y0313761D01*
X0151101Y0313000D01*
X0149263Y0312239D01*
X0147856Y0310832D01*
X0147095Y0308995D01*
X0147095Y0307005D01*
X0147856Y0305168D01*
X0149263Y0303761D01*
X0151101Y0303000D01*
X0153090Y0303000D01*
X0154927Y0303761D01*
X0155795Y0304629D01*
X0155795Y0285246D01*
X0152795Y0282246D01*
X0152795Y0274144D01*
X0152231Y0273580D01*
X0151806Y0272555D01*
X0151806Y0271445D01*
X0152231Y0270420D01*
X0153015Y0269636D01*
X0154040Y0269211D01*
X0155150Y0269211D01*
X0156175Y0269636D01*
X0156960Y0270420D01*
X0157384Y0271445D01*
X0157384Y0272555D01*
X0156960Y0273580D01*
X0156395Y0274144D01*
X0156395Y0280754D01*
X0158341Y0282700D01*
X0159295Y0283654D01*
X0159295Y0277144D01*
X0158731Y0276580D01*
X0158306Y0275555D01*
X0158306Y0274445D01*
X0158731Y0273420D01*
X0159515Y0272636D01*
X0160540Y0272211D01*
X0161650Y0272211D01*
X0162675Y0272636D01*
X0163460Y0273420D01*
X0163884Y0274445D01*
X0163884Y0275555D01*
X0163460Y0276580D01*
X0162895Y0277144D01*
X0162895Y0321856D01*
X0162960Y0321920D01*
X0163384Y0322945D01*
X0163384Y0324055D01*
X0162960Y0325080D01*
X0162175Y0325864D01*
X0161150Y0326289D01*
X0160395Y0326289D01*
X0160395Y0332246D01*
X0156668Y0335973D01*
X0157095Y0337005D01*
X0157095Y0338995D01*
X0156334Y0340832D01*
X0154927Y0342239D01*
X0153090Y0343000D01*
X0151101Y0343000D01*
X0149263Y0342239D01*
X0147856Y0340832D01*
X0147095Y0338995D01*
X0147095Y0337005D01*
X0147856Y0335168D01*
X0149263Y0333761D01*
X0151101Y0333000D01*
X0149263Y0332239D01*
X0147856Y0330832D01*
X0147095Y0328995D01*
X0147095Y0327005D01*
X0147523Y0325973D01*
X0138850Y0317300D01*
X0138850Y0317300D01*
X0137795Y0316246D01*
X0137795Y0308144D01*
X0137348Y0307697D01*
X0136995Y0308050D01*
X0129545Y0308050D01*
X0129545Y0309071D01*
X0129116Y0309500D01*
X0129545Y0309929D01*
X0129545Y0315571D01*
X0128666Y0316450D01*
X0121524Y0316450D01*
X0120645Y0315571D01*
X0120645Y0314800D01*
X0119915Y0314800D01*
X0119915Y0315591D01*
X0119036Y0316470D01*
X0115034Y0316470D01*
X0114155Y0315591D01*
X0114155Y0310409D01*
X0115034Y0309530D01*
X0115235Y0309530D01*
X0115235Y0308455D01*
X0115015Y0308364D01*
X0114231Y0307580D01*
X0113806Y0306555D01*
X0113806Y0305445D01*
X0113866Y0305300D01*
X0109166Y0305300D01*
X0109166Y0308590D01*
X0108287Y0309468D01*
X0105426Y0309468D01*
X0105426Y0310929D01*
X0100079Y0310929D01*
X0100079Y0307945D01*
X0102032Y0307945D01*
X0102032Y0304055D01*
X0100079Y0304055D01*
X0100079Y0301071D01*
X0099111Y0301071D01*
X0099111Y0304055D01*
X0095067Y0304055D01*
X0094685Y0303953D01*
X0094343Y0303755D01*
X0094064Y0303476D01*
X0093867Y0303134D01*
X0093764Y0302753D01*
X0093764Y0301071D01*
X0099111Y0301071D01*
X0099111Y0300102D01*
X0100079Y0300102D01*
X0100079Y0297118D01*
X0104123Y0297118D01*
X0104505Y0297220D01*
X0104847Y0297418D01*
X0105126Y0297697D01*
X0105324Y0298039D01*
X0105426Y0298421D01*
X0105426Y0300102D01*
X0100079Y0300102D01*
X0100079Y0301071D01*
X0105426Y0301071D01*
X0105426Y0302531D01*
X0106522Y0302531D01*
X0107353Y0301700D01*
X0110739Y0301700D01*
X0110739Y0300012D01*
X0110616Y0299889D01*
X0109650Y0300289D01*
X0108540Y0300289D01*
X0107515Y0299864D01*
X0106731Y0299080D01*
X0106306Y0298055D01*
X0106306Y0296945D01*
X0106680Y0296043D01*
X0095131Y0296043D01*
X0094253Y0295165D01*
X0094253Y0286835D01*
X0095131Y0285957D01*
X0113506Y0285957D01*
X0113295Y0285746D01*
X0104295Y0276746D01*
X0104295Y0275254D01*
X0104295Y0274144D01*
X0103731Y0273580D01*
X0103595Y0273252D01*
X0103460Y0273580D01*
X0102895Y0274144D01*
X0102895Y0277746D01*
X0092895Y0287746D01*
X0092895Y0305557D01*
X0093041Y0305703D01*
X0094095Y0306757D01*
X0094095Y0308493D01*
X0094343Y0308245D01*
X0094685Y0308047D01*
X0095067Y0307945D01*
X0099111Y0307945D01*
X0099111Y0310929D01*
X0100079Y0310929D01*
X0100079Y0311898D01*
X0099111Y0311898D01*
X0099111Y0314882D01*
X0095067Y0314882D01*
X0095006Y0314866D01*
X0097341Y0317200D01*
X0116841Y0317200D01*
X0123186Y0323545D01*
X0128936Y0323545D01*
X0130574Y0324223D01*
X0131827Y0325476D01*
X0132505Y0327114D01*
X0132505Y0328886D01*
X0131827Y0330524D01*
X0130574Y0331777D01*
X0128936Y0332455D01*
X0122096Y0332455D01*
X0123186Y0333545D01*
X0128936Y0333545D01*
X0130574Y0334223D01*
X0131827Y0335476D01*
X0132505Y0337114D01*
X0132505Y0338886D01*
X0131827Y0340524D01*
X0130574Y0341777D01*
X0128936Y0342455D01*
X0121254Y0342455D01*
X0119617Y0341777D01*
X0118363Y0340524D01*
X0117685Y0338886D01*
X0117685Y0337114D01*
X0118363Y0335476D01*
X0119195Y0334645D01*
X0114350Y0329800D01*
X0111350Y0329800D01*
X0110295Y0328746D01*
X0108393Y0326844D01*
X0108505Y0327114D01*
X0108505Y0328886D01*
X0107827Y0330524D01*
X0106574Y0331777D01*
X0104936Y0332455D01*
X0097254Y0332455D01*
X0095617Y0331777D01*
X0094363Y0330524D01*
X0093685Y0328886D01*
X0093685Y0327114D01*
X0094363Y0325476D01*
X0095617Y0324223D01*
X0097254Y0323545D01*
X0104936Y0323545D01*
X0105206Y0323657D01*
X0103850Y0322300D01*
X0095350Y0322300D01*
X0094295Y0321246D01*
X0089295Y0316246D01*
X0089295Y0314381D01*
X0088531Y0315145D01*
X0086950Y0315800D01*
X0085240Y0315800D01*
X0083659Y0315145D01*
X0082895Y0314381D01*
X0082895Y0318246D01*
X0075384Y0325757D01*
X0075384Y0326555D01*
X0074960Y0327580D01*
X0074175Y0328364D01*
X0073150Y0328789D01*
X0072040Y0328789D01*
X0071015Y0328364D01*
X0070231Y0327580D01*
X0069806Y0326555D01*
X0069806Y0325445D01*
X0070231Y0324420D01*
X0071015Y0323636D01*
X0072040Y0323211D01*
X0072839Y0323211D01*
X0079295Y0316754D01*
X0079295Y0314381D01*
X0078531Y0315145D01*
X0076950Y0315800D01*
X0075240Y0315800D01*
X0073659Y0315145D01*
X0072450Y0313936D01*
X0071795Y0312355D01*
X0071795Y0310645D01*
X0072450Y0309064D01*
X0073659Y0307855D01*
X0075240Y0307200D01*
X0076950Y0307200D01*
X0078531Y0307855D01*
X0079295Y0308619D01*
X0079295Y0306254D01*
X0080350Y0305200D01*
X0085295Y0300254D01*
X0085295Y0285254D01*
X0086350Y0284200D01*
X0089295Y0281254D01*
X0089295Y0274144D01*
X0089146Y0273995D01*
X0084341Y0278800D01*
X0084096Y0278800D01*
X0084595Y0280005D01*
X0084595Y0281995D01*
X0083834Y0283832D01*
X0082427Y0285239D01*
X0080590Y0286000D01*
X0078601Y0286000D01*
X0076763Y0285239D01*
X0075356Y0283832D01*
X0074595Y0281995D01*
X0073834Y0283832D01*
X0072427Y0285239D01*
X0070590Y0286000D01*
X0068601Y0286000D01*
X0066763Y0285239D01*
X0065356Y0283832D01*
X0064595Y0281995D01*
X0063834Y0283832D01*
X0062427Y0285239D01*
X0060590Y0286000D01*
X0058601Y0286000D01*
X0056763Y0285239D01*
X0055356Y0283832D01*
X0054595Y0281995D01*
X0053834Y0283832D01*
X0052427Y0285239D01*
X0050590Y0286000D01*
X0048601Y0286000D01*
X0046763Y0285239D01*
X0045895Y0284371D01*
X0045895Y0298254D01*
X0047341Y0299700D01*
X0048395Y0300754D01*
X0048395Y0329545D01*
X0049372Y0330521D01*
X0050050Y0332159D01*
X0050050Y0339841D01*
X0049372Y0341479D01*
X0048119Y0342732D01*
X0046481Y0343410D01*
X0044709Y0343410D01*
X0043072Y0342732D01*
X0041818Y0341479D01*
X0041140Y0339841D01*
X0041140Y0333001D01*
X0040050Y0334091D01*
X0040050Y0339841D01*
X0039372Y0341479D01*
X0038119Y0342732D01*
X0036481Y0343410D01*
X0034709Y0343410D01*
X0033072Y0342732D01*
X0031818Y0341479D01*
X0031140Y0339841D01*
X0031140Y0332159D01*
X0031818Y0330521D01*
X0033072Y0329268D01*
X0034709Y0328590D01*
X0036481Y0328590D01*
X0038119Y0329268D01*
X0038950Y0330100D01*
X0043105Y0325944D01*
X0043105Y0318971D01*
X0041936Y0319455D01*
X0034254Y0319455D01*
X0032617Y0318777D01*
X0031363Y0317524D01*
X0030685Y0315886D01*
X0030685Y0314114D01*
X0030825Y0313776D01*
X0030295Y0313246D01*
X0028095Y0311046D01*
X0028095Y0346500D01*
X0170595Y0346500D01*
X0170595Y0222785D01*
X0159595Y0234225D01*
X0159595Y0249743D01*
X0155903Y0253435D01*
X0154849Y0254489D01*
X0149384Y0254489D01*
X0149384Y0254555D01*
X0148960Y0255580D01*
X0148175Y0256364D01*
X0147150Y0256789D01*
X0146040Y0256789D01*
X0145015Y0256364D01*
X0144231Y0255580D01*
X0143806Y0254555D01*
X0143806Y0253445D01*
X0143871Y0253289D01*
X0143540Y0253289D01*
X0142515Y0252864D01*
X0141731Y0252080D01*
X0141306Y0251055D01*
X0141306Y0249945D01*
X0141731Y0248920D01*
X0141852Y0248799D01*
X0132927Y0248799D01*
X0132048Y0247921D01*
X0132048Y0239591D01*
X0132927Y0238713D01*
X0150311Y0238713D01*
X0150388Y0238789D01*
X0150673Y0238713D01*
X0152158Y0238713D01*
X0152158Y0243468D01*
X0152733Y0243468D01*
X0152733Y0238713D01*
X0154218Y0238713D01*
X0154599Y0238815D01*
X0154795Y0238928D01*
X0154795Y0233018D01*
X0154781Y0232290D01*
X0154795Y0232275D01*
X0154795Y0232254D01*
X0155310Y0231740D01*
X0167295Y0219275D01*
X0167295Y0198522D01*
X0167295Y0199143D02*
X0165498Y0199143D01*
X0164499Y0200141D02*
X0167295Y0200141D01*
X0167295Y0201140D02*
X0163895Y0201140D01*
X0163895Y0202138D02*
X0167295Y0202138D01*
X0167295Y0203137D02*
X0163895Y0203137D01*
X0163895Y0204135D02*
X0167295Y0204135D01*
X0167295Y0205134D02*
X0163895Y0205134D01*
X0163895Y0206132D02*
X0167295Y0206132D01*
X0167295Y0207131D02*
X0164272Y0207131D01*
X0164395Y0208129D02*
X0167295Y0208129D01*
X0167295Y0209128D02*
X0164395Y0209128D01*
X0164395Y0210126D02*
X0167295Y0210126D01*
X0167295Y0211125D02*
X0164395Y0211125D01*
X0164395Y0212123D02*
X0167295Y0212123D01*
X0167295Y0213122D02*
X0164395Y0213122D01*
X0164395Y0214120D02*
X0167295Y0214120D01*
X0167295Y0215119D02*
X0163522Y0215119D01*
X0162523Y0216117D02*
X0167295Y0216117D01*
X0167295Y0217116D02*
X0161525Y0217116D01*
X0160945Y0218114D02*
X0167295Y0218114D01*
X0167295Y0219113D02*
X0160945Y0219113D01*
X0160255Y0220111D02*
X0166491Y0220111D01*
X0165531Y0221110D02*
X0149081Y0221110D01*
X0148082Y0222108D02*
X0164571Y0222108D01*
X0163611Y0223107D02*
X0147084Y0223107D01*
X0146085Y0224105D02*
X0162650Y0224105D01*
X0161690Y0225104D02*
X0145087Y0225104D01*
X0144088Y0226103D02*
X0160730Y0226103D01*
X0159770Y0227101D02*
X0143090Y0227101D01*
X0142091Y0228100D02*
X0158810Y0228100D01*
X0157850Y0229098D02*
X0141093Y0229098D01*
X0140094Y0230097D02*
X0156890Y0230097D01*
X0155930Y0231095D02*
X0126046Y0231095D01*
X0125047Y0232094D02*
X0154956Y0232094D01*
X0154795Y0233092D02*
X0124049Y0233092D01*
X0123050Y0234091D02*
X0154795Y0234091D01*
X0154795Y0235089D02*
X0122052Y0235089D01*
X0121053Y0236088D02*
X0154795Y0236088D01*
X0154795Y0237086D02*
X0120781Y0237086D01*
X0120781Y0238085D02*
X0154795Y0238085D01*
X0152733Y0239083D02*
X0152158Y0239083D01*
X0152158Y0240082D02*
X0152733Y0240082D01*
X0152733Y0241080D02*
X0152158Y0241080D01*
X0152158Y0242079D02*
X0152733Y0242079D01*
X0152733Y0243077D02*
X0152158Y0243077D01*
X0157274Y0252064D02*
X0170595Y0252064D01*
X0170595Y0253062D02*
X0156275Y0253062D01*
X0155277Y0254061D02*
X0170595Y0254061D01*
X0170595Y0255059D02*
X0149175Y0255059D01*
X0148481Y0256058D02*
X0170595Y0256058D01*
X0170595Y0257056D02*
X0082723Y0257056D01*
X0083721Y0258055D02*
X0170595Y0258055D01*
X0170595Y0259053D02*
X0084201Y0259053D01*
X0084595Y0260052D02*
X0170595Y0260052D01*
X0170595Y0261050D02*
X0084595Y0261050D01*
X0084573Y0262049D02*
X0170595Y0262049D01*
X0170595Y0263047D02*
X0084159Y0263047D01*
X0083620Y0264046D02*
X0170595Y0264046D01*
X0170595Y0265044D02*
X0141781Y0265044D01*
X0142779Y0266043D02*
X0170595Y0266043D01*
X0170595Y0267041D02*
X0143778Y0267041D01*
X0144776Y0268040D02*
X0170595Y0268040D01*
X0170595Y0269039D02*
X0145775Y0269039D01*
X0146682Y0274031D02*
X0144395Y0274031D01*
X0144395Y0275030D02*
X0152795Y0275030D01*
X0152795Y0276028D02*
X0144395Y0276028D01*
X0144395Y0277027D02*
X0152795Y0277027D01*
X0152795Y0278025D02*
X0143616Y0278025D01*
X0142617Y0279024D02*
X0152795Y0279024D01*
X0152795Y0280022D02*
X0141619Y0280022D01*
X0140620Y0281021D02*
X0152795Y0281021D01*
X0152795Y0282019D02*
X0139884Y0282019D01*
X0141557Y0283018D02*
X0153567Y0283018D01*
X0154566Y0284016D02*
X0142206Y0284016D01*
X0142384Y0285015D02*
X0155564Y0285015D01*
X0155795Y0286013D02*
X0154429Y0286013D01*
X0154599Y0286059D02*
X0154941Y0286256D01*
X0155221Y0286536D01*
X0155418Y0286878D01*
X0155520Y0287259D01*
X0155520Y0290713D01*
X0152733Y0290713D01*
X0152733Y0285957D01*
X0154218Y0285957D01*
X0154599Y0286059D01*
X0155454Y0287012D02*
X0155795Y0287012D01*
X0155795Y0288010D02*
X0155520Y0288010D01*
X0155520Y0289009D02*
X0155795Y0289009D01*
X0155795Y0290007D02*
X0155520Y0290007D01*
X0155795Y0291006D02*
X0152733Y0291006D01*
X0152733Y0292004D02*
X0152158Y0292004D01*
X0152158Y0293003D02*
X0152733Y0293003D01*
X0152733Y0294001D02*
X0152158Y0294001D01*
X0152158Y0295000D02*
X0152733Y0295000D01*
X0152733Y0295998D02*
X0152158Y0295998D01*
X0150505Y0295998D02*
X0150356Y0295998D01*
X0149395Y0296997D02*
X0155795Y0296997D01*
X0155795Y0297995D02*
X0148645Y0297995D01*
X0147647Y0298994D02*
X0155795Y0298994D01*
X0155795Y0299992D02*
X0146648Y0299992D01*
X0147030Y0300991D02*
X0155795Y0300991D01*
X0155795Y0301989D02*
X0147695Y0301989D01*
X0147884Y0302988D02*
X0155795Y0302988D01*
X0155795Y0303986D02*
X0155153Y0303986D01*
X0155795Y0311371D02*
X0154927Y0312239D01*
X0153090Y0313000D01*
X0151101Y0313000D01*
X0153090Y0313000D01*
X0154927Y0313761D01*
X0155795Y0314629D01*
X0155795Y0311371D01*
X0155795Y0311974D02*
X0155192Y0311974D01*
X0155795Y0312973D02*
X0153155Y0312973D01*
X0151035Y0312973D02*
X0145395Y0312973D01*
X0145395Y0311974D02*
X0148999Y0311974D01*
X0148000Y0310976D02*
X0145395Y0310976D01*
X0145395Y0309977D02*
X0147502Y0309977D01*
X0147095Y0308979D02*
X0145395Y0308979D01*
X0146001Y0307980D02*
X0147095Y0307980D01*
X0147105Y0306982D02*
X0146384Y0306982D01*
X0146384Y0305983D02*
X0147518Y0305983D01*
X0147054Y0304985D02*
X0148039Y0304985D01*
X0147705Y0303986D02*
X0149038Y0303986D01*
X0144850Y0296700D02*
X0131117Y0296700D01*
X0131384Y0296055D01*
X0131384Y0294945D01*
X0130960Y0293920D01*
X0130175Y0293136D01*
X0129150Y0292711D01*
X0128895Y0292711D01*
X0128895Y0288244D01*
X0129015Y0288364D01*
X0130040Y0288789D01*
X0131150Y0288789D01*
X0132048Y0288417D01*
X0132048Y0295165D01*
X0132927Y0296043D01*
X0141650Y0296043D01*
X0141726Y0295967D01*
X0142012Y0296043D01*
X0143497Y0296043D01*
X0143497Y0291287D01*
X0144072Y0291287D01*
X0144072Y0296043D01*
X0145506Y0296043D01*
X0144850Y0296700D01*
X0144072Y0295998D02*
X0143497Y0295998D01*
X0143497Y0295000D02*
X0144072Y0295000D01*
X0144072Y0294001D02*
X0143497Y0294001D01*
X0143497Y0293003D02*
X0144072Y0293003D01*
X0144072Y0292004D02*
X0143497Y0292004D01*
X0143497Y0290007D02*
X0144072Y0290007D01*
X0144072Y0289009D02*
X0143497Y0289009D01*
X0143497Y0288010D02*
X0144072Y0288010D01*
X0144072Y0287012D02*
X0143497Y0287012D01*
X0143497Y0286013D02*
X0144072Y0286013D01*
X0145767Y0286013D02*
X0145862Y0286013D01*
X0150367Y0286013D02*
X0150462Y0286013D01*
X0152158Y0286013D02*
X0152733Y0286013D01*
X0152733Y0287012D02*
X0152158Y0287012D01*
X0152158Y0288010D02*
X0152733Y0288010D01*
X0152733Y0289009D02*
X0152158Y0289009D01*
X0152158Y0290007D02*
X0152733Y0290007D01*
X0155520Y0292004D02*
X0155795Y0292004D01*
X0155795Y0293003D02*
X0155520Y0293003D01*
X0155520Y0294001D02*
X0155795Y0294001D01*
X0155795Y0295000D02*
X0155451Y0295000D01*
X0155795Y0295998D02*
X0154386Y0295998D01*
X0162895Y0295998D02*
X0170595Y0295998D01*
X0170595Y0295000D02*
X0162895Y0295000D01*
X0162895Y0294001D02*
X0170595Y0294001D01*
X0170595Y0293003D02*
X0162895Y0293003D01*
X0162895Y0292004D02*
X0170595Y0292004D01*
X0170595Y0291006D02*
X0162895Y0291006D01*
X0162895Y0290007D02*
X0170595Y0290007D01*
X0170595Y0289009D02*
X0162895Y0289009D01*
X0162895Y0288010D02*
X0170595Y0288010D01*
X0170595Y0287012D02*
X0162895Y0287012D01*
X0162895Y0286013D02*
X0170595Y0286013D01*
X0170595Y0285015D02*
X0162895Y0285015D01*
X0162895Y0284016D02*
X0170595Y0284016D01*
X0170595Y0283018D02*
X0162895Y0283018D01*
X0162895Y0282019D02*
X0170595Y0282019D01*
X0170595Y0281021D02*
X0162895Y0281021D01*
X0162895Y0280022D02*
X0170595Y0280022D01*
X0170595Y0279024D02*
X0162895Y0279024D01*
X0162895Y0278025D02*
X0170595Y0278025D01*
X0170595Y0277027D02*
X0163013Y0277027D01*
X0163688Y0276028D02*
X0170595Y0276028D01*
X0170595Y0275030D02*
X0163884Y0275030D01*
X0163713Y0274031D02*
X0170595Y0274031D01*
X0170595Y0273033D02*
X0163072Y0273033D01*
X0159118Y0273033D02*
X0157186Y0273033D01*
X0157384Y0272034D02*
X0170595Y0272034D01*
X0170595Y0271036D02*
X0157214Y0271036D01*
X0156576Y0270037D02*
X0170595Y0270037D01*
X0158478Y0274031D02*
X0156508Y0274031D01*
X0156395Y0275030D02*
X0158306Y0275030D01*
X0158502Y0276028D02*
X0156395Y0276028D01*
X0156395Y0277027D02*
X0159178Y0277027D01*
X0159295Y0278025D02*
X0156395Y0278025D01*
X0156395Y0279024D02*
X0159295Y0279024D01*
X0159295Y0280022D02*
X0156395Y0280022D01*
X0156661Y0281021D02*
X0159295Y0281021D01*
X0159295Y0282019D02*
X0157660Y0282019D01*
X0158658Y0283018D02*
X0159295Y0283018D01*
X0152682Y0274031D02*
X0150508Y0274031D01*
X0151186Y0273033D02*
X0152004Y0273033D01*
X0151806Y0272034D02*
X0151384Y0272034D01*
X0151214Y0271036D02*
X0151976Y0271036D01*
X0152614Y0270037D02*
X0150576Y0270037D01*
X0144709Y0256058D02*
X0080729Y0256058D01*
X0080590Y0256000D02*
X0078601Y0256000D01*
X0076895Y0256706D01*
X0076895Y0255294D01*
X0078601Y0256000D01*
X0080590Y0256000D01*
X0078461Y0256058D02*
X0076895Y0256058D01*
X0073295Y0256058D02*
X0070729Y0256058D01*
X0070590Y0256000D02*
X0068601Y0256000D01*
X0066763Y0255239D01*
X0065356Y0253832D01*
X0064595Y0251995D01*
X0063834Y0253832D01*
X0062427Y0255239D01*
X0060590Y0256000D01*
X0058601Y0256000D01*
X0057568Y0255572D01*
X0055341Y0257800D01*
X0053466Y0257800D01*
X0053834Y0258168D01*
X0054595Y0260005D01*
X0054595Y0261995D01*
X0053834Y0263832D01*
X0052427Y0265239D01*
X0050590Y0266000D01*
X0048601Y0266000D01*
X0046763Y0265239D01*
X0045356Y0263832D01*
X0044595Y0261995D01*
X0044595Y0260005D01*
X0045164Y0258633D01*
X0044515Y0258364D01*
X0043731Y0257580D01*
X0043306Y0256555D01*
X0043306Y0255445D01*
X0043731Y0254420D01*
X0044515Y0253636D01*
X0045164Y0253367D01*
X0044595Y0251995D01*
X0044595Y0250005D01*
X0045356Y0248168D01*
X0046763Y0246761D01*
X0048601Y0246000D01*
X0046763Y0245239D01*
X0045356Y0243832D01*
X0044595Y0241995D01*
X0044595Y0240005D01*
X0045356Y0238168D01*
X0046763Y0236761D01*
X0048601Y0236000D01*
X0050590Y0236000D01*
X0052427Y0236761D01*
X0053834Y0238168D01*
X0054595Y0240005D01*
X0054595Y0241995D01*
X0053834Y0243832D01*
X0052427Y0245239D01*
X0050590Y0246000D01*
X0048601Y0246000D01*
X0050590Y0246000D01*
X0052427Y0246761D01*
X0053834Y0248168D01*
X0054595Y0250005D01*
X0055356Y0248168D01*
X0056763Y0246761D01*
X0058601Y0246000D01*
X0056763Y0245239D01*
X0055356Y0243832D01*
X0054595Y0241995D01*
X0054595Y0240005D01*
X0055356Y0238168D01*
X0056763Y0236761D01*
X0058601Y0236000D01*
X0060590Y0236000D01*
X0062427Y0236761D01*
X0063834Y0238168D01*
X0064595Y0240005D01*
X0065356Y0238168D01*
X0066763Y0236761D01*
X0068601Y0236000D01*
X0070590Y0236000D01*
X0072427Y0236761D01*
X0073834Y0238168D01*
X0074595Y0240005D01*
X0074595Y0241995D01*
X0073834Y0243832D01*
X0072427Y0245239D01*
X0070590Y0246000D01*
X0068601Y0246000D01*
X0066763Y0245239D01*
X0065356Y0243832D01*
X0064595Y0241995D01*
X0064595Y0240005D01*
X0064595Y0241995D01*
X0063834Y0243832D01*
X0062427Y0245239D01*
X0060590Y0246000D01*
X0058601Y0246000D01*
X0060590Y0246000D01*
X0062427Y0246761D01*
X0063834Y0248168D01*
X0064595Y0250005D01*
X0064595Y0251995D01*
X0064595Y0250005D01*
X0065356Y0248168D01*
X0066763Y0246761D01*
X0068601Y0246000D01*
X0070590Y0246000D01*
X0072427Y0246761D01*
X0073295Y0247629D01*
X0073295Y0247254D01*
X0074350Y0246200D01*
X0076037Y0244513D01*
X0075356Y0243832D01*
X0074595Y0241995D01*
X0074595Y0240005D01*
X0075356Y0238168D01*
X0076763Y0236761D01*
X0078601Y0236000D01*
X0076763Y0235239D01*
X0075356Y0233832D01*
X0074595Y0231995D01*
X0073834Y0233832D01*
X0072427Y0235239D01*
X0070590Y0236000D01*
X0068601Y0236000D01*
X0066763Y0235239D01*
X0065356Y0233832D01*
X0064595Y0231995D01*
X0063834Y0233832D01*
X0062427Y0235239D01*
X0060590Y0236000D01*
X0058601Y0236000D01*
X0056763Y0235239D01*
X0055356Y0233832D01*
X0054595Y0231995D01*
X0053834Y0233832D01*
X0052427Y0235239D01*
X0050590Y0236000D01*
X0048601Y0236000D01*
X0046763Y0235239D01*
X0045356Y0233832D01*
X0044691Y0232227D01*
X0042895Y0234023D01*
X0042895Y0272746D01*
X0039395Y0276246D01*
X0039059Y0276582D01*
X0038334Y0278332D01*
X0036927Y0279739D01*
X0035090Y0280500D01*
X0033101Y0280500D01*
X0031263Y0279739D01*
X0029895Y0278371D01*
X0029895Y0307754D01*
X0032841Y0310700D01*
X0033880Y0310700D01*
X0034254Y0310545D01*
X0041936Y0310545D01*
X0043105Y0311029D01*
X0043105Y0308953D01*
X0042760Y0309129D01*
X0042093Y0309345D01*
X0041401Y0309455D01*
X0038580Y0309455D01*
X0038580Y0305485D01*
X0037610Y0305485D01*
X0037610Y0304515D01*
X0030706Y0304515D01*
X0030795Y0303957D01*
X0031012Y0303290D01*
X0031330Y0302665D01*
X0031742Y0302098D01*
X0032238Y0301602D01*
X0032805Y0301190D01*
X0033430Y0300871D01*
X0034097Y0300655D01*
X0034790Y0300545D01*
X0037610Y0300545D01*
X0037610Y0304515D01*
X0038580Y0304515D01*
X0038580Y0300545D01*
X0040795Y0300545D01*
X0040795Y0279754D01*
X0041850Y0278700D01*
X0042195Y0278354D01*
X0042195Y0277935D01*
X0045827Y0274303D01*
X0045356Y0273832D01*
X0044595Y0271995D01*
X0044595Y0270005D01*
X0045356Y0268168D01*
X0046763Y0266761D01*
X0048601Y0266000D01*
X0050590Y0266000D01*
X0052427Y0266761D01*
X0053834Y0268168D01*
X0054595Y0270005D01*
X0055356Y0268168D01*
X0056763Y0266761D01*
X0058601Y0266000D01*
X0056763Y0265239D01*
X0055356Y0263832D01*
X0054595Y0261995D01*
X0054595Y0260005D01*
X0055356Y0258168D01*
X0056763Y0256761D01*
X0058601Y0256000D01*
X0060590Y0256000D01*
X0062427Y0256761D01*
X0063834Y0258168D01*
X0064595Y0260005D01*
X0064595Y0261995D01*
X0063834Y0263832D01*
X0062427Y0265239D01*
X0060590Y0266000D01*
X0058601Y0266000D01*
X0060590Y0266000D01*
X0062427Y0266761D01*
X0063834Y0268168D01*
X0064595Y0270005D01*
X0065356Y0268168D01*
X0066763Y0266761D01*
X0068601Y0266000D01*
X0066763Y0265239D01*
X0065356Y0263832D01*
X0064595Y0261995D01*
X0064595Y0260005D01*
X0065356Y0258168D01*
X0066763Y0256761D01*
X0068601Y0256000D01*
X0070590Y0256000D01*
X0072427Y0255239D01*
X0073295Y0254371D01*
X0073295Y0257629D01*
X0072427Y0256761D01*
X0070590Y0256000D01*
X0068461Y0256058D02*
X0060729Y0256058D01*
X0062607Y0255059D02*
X0066583Y0255059D01*
X0065585Y0254061D02*
X0063605Y0254061D01*
X0064153Y0253062D02*
X0065037Y0253062D01*
X0064624Y0252064D02*
X0064566Y0252064D01*
X0064595Y0251065D02*
X0064595Y0251065D01*
X0064595Y0250067D02*
X0064595Y0250067D01*
X0064207Y0249068D02*
X0064983Y0249068D01*
X0065454Y0248070D02*
X0063736Y0248070D01*
X0062737Y0247071D02*
X0066453Y0247071D01*
X0066598Y0245074D02*
X0062592Y0245074D01*
X0063590Y0244076D02*
X0065600Y0244076D01*
X0065044Y0243077D02*
X0064147Y0243077D01*
X0064560Y0242079D02*
X0064630Y0242079D01*
X0064595Y0241080D02*
X0064595Y0241080D01*
X0064595Y0240082D02*
X0064595Y0240082D01*
X0064213Y0239083D02*
X0064977Y0239083D01*
X0065439Y0238085D02*
X0063751Y0238085D01*
X0062752Y0237086D02*
X0066438Y0237086D01*
X0066613Y0235089D02*
X0062577Y0235089D01*
X0063576Y0234091D02*
X0065615Y0234091D01*
X0065050Y0233092D02*
X0064141Y0233092D01*
X0064554Y0232094D02*
X0064636Y0232094D01*
X0064595Y0231995D02*
X0064595Y0230005D01*
X0064595Y0231995D01*
X0064595Y0231095D02*
X0064595Y0231095D01*
X0064595Y0230097D02*
X0064595Y0230097D01*
X0064595Y0230005D02*
X0063930Y0228400D01*
X0065260Y0228400D01*
X0064595Y0230005D01*
X0064219Y0229098D02*
X0064971Y0229098D01*
X0068389Y0236088D02*
X0060801Y0236088D01*
X0058389Y0236088D02*
X0050801Y0236088D01*
X0052577Y0235089D02*
X0056613Y0235089D01*
X0055615Y0234091D02*
X0053576Y0234091D01*
X0054141Y0233092D02*
X0055050Y0233092D01*
X0054636Y0232094D02*
X0054554Y0232094D01*
X0054595Y0231995D02*
X0054595Y0230005D01*
X0053930Y0228400D01*
X0055260Y0228400D01*
X0054595Y0230005D01*
X0054595Y0231995D01*
X0054595Y0231095D02*
X0054595Y0231095D01*
X0054595Y0230097D02*
X0054595Y0230097D01*
X0054219Y0229098D02*
X0054971Y0229098D01*
X0056438Y0237086D02*
X0052752Y0237086D01*
X0053751Y0238085D02*
X0055439Y0238085D01*
X0054977Y0239083D02*
X0054213Y0239083D01*
X0054595Y0240082D02*
X0054595Y0240082D01*
X0054595Y0241080D02*
X0054595Y0241080D01*
X0054560Y0242079D02*
X0054630Y0242079D01*
X0055044Y0243077D02*
X0054147Y0243077D01*
X0053590Y0244076D02*
X0055600Y0244076D01*
X0056598Y0245074D02*
X0052592Y0245074D01*
X0052737Y0247071D02*
X0056453Y0247071D01*
X0055454Y0248070D02*
X0053736Y0248070D01*
X0054207Y0249068D02*
X0054983Y0249068D01*
X0054595Y0250005D02*
X0054595Y0251995D01*
X0055023Y0253027D01*
X0053850Y0254200D01*
X0053466Y0254200D01*
X0053834Y0253832D01*
X0054595Y0251995D01*
X0054595Y0250005D01*
X0054595Y0250067D02*
X0054595Y0250067D01*
X0054595Y0251065D02*
X0054595Y0251065D01*
X0054566Y0252064D02*
X0054624Y0252064D01*
X0054987Y0253062D02*
X0054153Y0253062D01*
X0053989Y0254061D02*
X0053605Y0254061D01*
X0056084Y0257056D02*
X0056468Y0257056D01*
X0057083Y0256058D02*
X0058461Y0256058D01*
X0055469Y0258055D02*
X0053721Y0258055D01*
X0054201Y0259053D02*
X0054989Y0259053D01*
X0054595Y0260052D02*
X0054595Y0260052D01*
X0054595Y0261050D02*
X0054595Y0261050D01*
X0054573Y0262049D02*
X0054618Y0262049D01*
X0055031Y0263047D02*
X0054159Y0263047D01*
X0053620Y0264046D02*
X0055570Y0264046D01*
X0056569Y0265044D02*
X0052622Y0265044D01*
X0052708Y0267041D02*
X0056483Y0267041D01*
X0055484Y0268040D02*
X0053706Y0268040D01*
X0054195Y0269039D02*
X0054996Y0269039D01*
X0054595Y0270005D02*
X0054595Y0271995D01*
X0055260Y0273600D01*
X0053930Y0273600D01*
X0054595Y0271995D01*
X0054595Y0270005D01*
X0054595Y0270037D02*
X0054595Y0270037D01*
X0054595Y0271036D02*
X0054595Y0271036D01*
X0054579Y0272034D02*
X0054612Y0272034D01*
X0055025Y0273033D02*
X0054165Y0273033D01*
X0053930Y0278400D02*
X0054595Y0280005D01*
X0054595Y0281995D01*
X0054595Y0280005D01*
X0055260Y0278400D01*
X0053930Y0278400D01*
X0054188Y0279024D02*
X0055002Y0279024D01*
X0054595Y0280022D02*
X0054595Y0280022D01*
X0054595Y0281021D02*
X0054595Y0281021D01*
X0054585Y0282019D02*
X0054605Y0282019D01*
X0055019Y0283018D02*
X0054171Y0283018D01*
X0053650Y0284016D02*
X0055540Y0284016D01*
X0056539Y0285015D02*
X0052652Y0285015D01*
X0057981Y0290007D02*
X0045895Y0290007D01*
X0045895Y0289009D02*
X0058980Y0289009D01*
X0059347Y0288642D02*
X0057237Y0290752D01*
X0056095Y0293508D01*
X0056095Y0296492D01*
X0057237Y0299248D01*
X0059347Y0301358D01*
X0062103Y0302500D01*
X0065087Y0302500D01*
X0067844Y0301358D01*
X0069953Y0299248D01*
X0071095Y0296492D01*
X0071095Y0293508D01*
X0069953Y0290752D01*
X0067844Y0288642D01*
X0065087Y0287500D01*
X0062103Y0287500D01*
X0059347Y0288642D01*
X0060871Y0288010D02*
X0045895Y0288010D01*
X0045895Y0287012D02*
X0085295Y0287012D01*
X0085295Y0288010D02*
X0066319Y0288010D01*
X0068210Y0289009D02*
X0085295Y0289009D01*
X0085295Y0290007D02*
X0069209Y0290007D01*
X0070059Y0291006D02*
X0085295Y0291006D01*
X0085295Y0292004D02*
X0070472Y0292004D01*
X0070886Y0293003D02*
X0085295Y0293003D01*
X0085295Y0294001D02*
X0071095Y0294001D01*
X0071095Y0295000D02*
X0085295Y0295000D01*
X0085295Y0295998D02*
X0071095Y0295998D01*
X0070886Y0296997D02*
X0085295Y0296997D01*
X0085295Y0297995D02*
X0070472Y0297995D01*
X0070059Y0298994D02*
X0085295Y0298994D01*
X0085295Y0299992D02*
X0069209Y0299992D01*
X0068211Y0300991D02*
X0084559Y0300991D01*
X0083560Y0301989D02*
X0066320Y0301989D01*
X0066950Y0307200D02*
X0065240Y0307200D01*
X0063659Y0307855D01*
X0062450Y0309064D01*
X0061795Y0310645D01*
X0061795Y0312355D01*
X0062450Y0313936D01*
X0063659Y0315145D01*
X0065240Y0315800D01*
X0066950Y0315800D01*
X0068531Y0315145D01*
X0069740Y0313936D01*
X0070395Y0312355D01*
X0070395Y0310645D01*
X0069740Y0309064D01*
X0068531Y0307855D01*
X0066950Y0307200D01*
X0068657Y0307980D02*
X0073534Y0307980D01*
X0072535Y0308979D02*
X0069655Y0308979D01*
X0070119Y0309977D02*
X0072071Y0309977D01*
X0071795Y0310976D02*
X0070395Y0310976D01*
X0070395Y0311974D02*
X0071795Y0311974D01*
X0072051Y0312973D02*
X0070139Y0312973D01*
X0069705Y0313972D02*
X0072486Y0313972D01*
X0073484Y0314970D02*
X0068706Y0314970D01*
X0063484Y0314970D02*
X0058635Y0314970D01*
X0058896Y0314780D02*
X0058349Y0315178D01*
X0057746Y0315485D01*
X0057102Y0315694D01*
X0056451Y0315797D01*
X0056451Y0311856D01*
X0055739Y0311856D01*
X0055739Y0311144D01*
X0051798Y0311144D01*
X0051901Y0310493D01*
X0052110Y0309849D01*
X0052417Y0309246D01*
X0052815Y0308699D01*
X0053294Y0308220D01*
X0053841Y0307822D01*
X0054445Y0307515D01*
X0055088Y0307306D01*
X0055739Y0307203D01*
X0055739Y0311144D01*
X0056451Y0311144D01*
X0056451Y0307203D01*
X0057102Y0307306D01*
X0057746Y0307515D01*
X0058349Y0307822D01*
X0058896Y0308220D01*
X0059375Y0308699D01*
X0059773Y0309246D01*
X0060080Y0309849D01*
X0060289Y0310493D01*
X0060392Y0311144D01*
X0056452Y0311144D01*
X0056452Y0311856D01*
X0060392Y0311856D01*
X0060289Y0312507D01*
X0060080Y0313151D01*
X0059773Y0313754D01*
X0059375Y0314301D01*
X0058896Y0314780D01*
X0059615Y0313972D02*
X0062486Y0313972D01*
X0062051Y0312973D02*
X0060138Y0312973D01*
X0060374Y0311974D02*
X0061795Y0311974D01*
X0061795Y0310976D02*
X0060366Y0310976D01*
X0060122Y0309977D02*
X0062071Y0309977D01*
X0062535Y0308979D02*
X0059579Y0308979D01*
X0058566Y0307980D02*
X0063534Y0307980D01*
X0060871Y0301989D02*
X0048395Y0301989D01*
X0048395Y0300991D02*
X0058979Y0300991D01*
X0057981Y0299992D02*
X0047633Y0299992D01*
X0046635Y0298994D02*
X0057132Y0298994D01*
X0056718Y0297995D02*
X0045895Y0297995D01*
X0045895Y0296997D02*
X0056304Y0296997D01*
X0056095Y0295998D02*
X0045895Y0295998D01*
X0045895Y0295000D02*
X0056095Y0295000D01*
X0056095Y0294001D02*
X0045895Y0294001D01*
X0045895Y0293003D02*
X0056304Y0293003D01*
X0056718Y0292004D02*
X0045895Y0292004D01*
X0045895Y0291006D02*
X0057132Y0291006D01*
X0062652Y0285015D02*
X0066539Y0285015D01*
X0065540Y0284016D02*
X0063650Y0284016D01*
X0064171Y0283018D02*
X0065019Y0283018D01*
X0064605Y0282019D02*
X0064585Y0282019D01*
X0064595Y0281995D02*
X0064595Y0280005D01*
X0063930Y0278400D01*
X0065260Y0278400D01*
X0064595Y0280005D01*
X0064595Y0281995D01*
X0064595Y0281021D02*
X0064595Y0281021D01*
X0064595Y0280022D02*
X0064595Y0280022D01*
X0064188Y0279024D02*
X0065002Y0279024D01*
X0065260Y0273600D02*
X0063930Y0273600D01*
X0064595Y0271995D01*
X0064595Y0270005D01*
X0064595Y0271995D01*
X0065260Y0273600D01*
X0065025Y0273033D02*
X0064165Y0273033D01*
X0064579Y0272034D02*
X0064612Y0272034D01*
X0064595Y0271036D02*
X0064595Y0271036D01*
X0064595Y0270037D02*
X0064595Y0270037D01*
X0064195Y0269039D02*
X0064996Y0269039D01*
X0065484Y0268040D02*
X0063706Y0268040D01*
X0062708Y0267041D02*
X0066483Y0267041D01*
X0066569Y0265044D02*
X0062622Y0265044D01*
X0063620Y0264046D02*
X0065570Y0264046D01*
X0065031Y0263047D02*
X0064159Y0263047D01*
X0064573Y0262049D02*
X0064618Y0262049D01*
X0064595Y0261050D02*
X0064595Y0261050D01*
X0064595Y0260052D02*
X0064595Y0260052D01*
X0064201Y0259053D02*
X0064989Y0259053D01*
X0065469Y0258055D02*
X0063721Y0258055D01*
X0062723Y0257056D02*
X0066468Y0257056D01*
X0072723Y0257056D02*
X0073295Y0257056D01*
X0073295Y0255059D02*
X0072607Y0255059D01*
X0072737Y0247071D02*
X0073478Y0247071D01*
X0074477Y0246073D02*
X0070765Y0246073D01*
X0072592Y0245074D02*
X0075475Y0245074D01*
X0075600Y0244076D02*
X0073590Y0244076D01*
X0074147Y0243077D02*
X0075044Y0243077D01*
X0074630Y0242079D02*
X0074560Y0242079D01*
X0074595Y0241080D02*
X0074595Y0241080D01*
X0074595Y0240082D02*
X0074595Y0240082D01*
X0074213Y0239083D02*
X0074977Y0239083D01*
X0075439Y0238085D02*
X0073751Y0238085D01*
X0072752Y0237086D02*
X0076438Y0237086D01*
X0076613Y0235089D02*
X0072577Y0235089D01*
X0073576Y0234091D02*
X0075615Y0234091D01*
X0075050Y0233092D02*
X0074141Y0233092D01*
X0074554Y0232094D02*
X0074636Y0232094D01*
X0074595Y0231995D02*
X0074595Y0230005D01*
X0074595Y0231995D01*
X0074595Y0231095D02*
X0074595Y0231095D01*
X0074595Y0230097D02*
X0074595Y0230097D01*
X0074595Y0230005D02*
X0073930Y0228400D01*
X0075260Y0228400D01*
X0074595Y0230005D01*
X0074219Y0229098D02*
X0074971Y0229098D01*
X0078389Y0236088D02*
X0070801Y0236088D01*
X0068425Y0246073D02*
X0060765Y0246073D01*
X0058425Y0246073D02*
X0050765Y0246073D01*
X0048425Y0246073D02*
X0042895Y0246073D01*
X0042895Y0247071D02*
X0046453Y0247071D01*
X0045454Y0248070D02*
X0042895Y0248070D01*
X0042895Y0249068D02*
X0044983Y0249068D01*
X0044595Y0250067D02*
X0042895Y0250067D01*
X0042895Y0251065D02*
X0044595Y0251065D01*
X0044624Y0252064D02*
X0042895Y0252064D01*
X0042895Y0253062D02*
X0045037Y0253062D01*
X0044090Y0254061D02*
X0042895Y0254061D01*
X0042895Y0255059D02*
X0043466Y0255059D01*
X0043306Y0256058D02*
X0042895Y0256058D01*
X0042895Y0257056D02*
X0043514Y0257056D01*
X0042895Y0258055D02*
X0044206Y0258055D01*
X0044989Y0259053D02*
X0042895Y0259053D01*
X0042895Y0260052D02*
X0044595Y0260052D01*
X0044595Y0261050D02*
X0042895Y0261050D01*
X0042895Y0262049D02*
X0044618Y0262049D01*
X0045031Y0263047D02*
X0042895Y0263047D01*
X0042895Y0264046D02*
X0045570Y0264046D01*
X0046569Y0265044D02*
X0042895Y0265044D01*
X0042895Y0266043D02*
X0048497Y0266043D01*
X0050693Y0266043D02*
X0058497Y0266043D01*
X0060693Y0266043D02*
X0068497Y0266043D01*
X0068601Y0266000D02*
X0070590Y0266000D01*
X0068601Y0266000D01*
X0070590Y0266000D02*
X0072384Y0265257D01*
X0072306Y0265445D01*
X0072306Y0266555D01*
X0072384Y0266743D01*
X0070590Y0266000D01*
X0070693Y0266043D02*
X0072306Y0266043D01*
X0077884Y0266043D02*
X0078497Y0266043D01*
X0078601Y0266000D02*
X0080590Y0266000D01*
X0078601Y0266000D01*
X0077884Y0266297D01*
X0077884Y0265703D01*
X0078601Y0266000D01*
X0080693Y0266043D02*
X0082473Y0266043D01*
X0082622Y0265044D02*
X0083106Y0265044D01*
X0087084Y0265044D02*
X0089015Y0265044D01*
X0089110Y0274031D02*
X0089182Y0274031D01*
X0089295Y0275030D02*
X0088111Y0275030D01*
X0087113Y0276028D02*
X0089295Y0276028D01*
X0089295Y0277027D02*
X0086114Y0277027D01*
X0085116Y0278025D02*
X0089295Y0278025D01*
X0089295Y0279024D02*
X0084188Y0279024D01*
X0084595Y0280022D02*
X0089295Y0280022D01*
X0089295Y0281021D02*
X0084595Y0281021D01*
X0084585Y0282019D02*
X0088530Y0282019D01*
X0087532Y0283018D02*
X0084171Y0283018D01*
X0083650Y0284016D02*
X0086533Y0284016D01*
X0085535Y0285015D02*
X0082652Y0285015D01*
X0085295Y0286013D02*
X0045895Y0286013D01*
X0045895Y0285015D02*
X0046539Y0285015D01*
X0040795Y0285015D02*
X0029895Y0285015D01*
X0029895Y0286013D02*
X0040795Y0286013D01*
X0040795Y0287012D02*
X0029895Y0287012D01*
X0029895Y0288010D02*
X0040795Y0288010D01*
X0040795Y0289009D02*
X0029895Y0289009D01*
X0029895Y0290007D02*
X0040795Y0290007D01*
X0040795Y0291006D02*
X0029895Y0291006D01*
X0029895Y0292004D02*
X0040795Y0292004D01*
X0040795Y0293003D02*
X0029895Y0293003D01*
X0029895Y0294001D02*
X0040795Y0294001D01*
X0040795Y0295000D02*
X0029895Y0295000D01*
X0029895Y0295998D02*
X0040795Y0295998D01*
X0040795Y0296997D02*
X0029895Y0296997D01*
X0029895Y0297995D02*
X0040795Y0297995D01*
X0040795Y0298994D02*
X0029895Y0298994D01*
X0029895Y0299992D02*
X0040795Y0299992D01*
X0038580Y0300991D02*
X0037610Y0300991D01*
X0037610Y0301989D02*
X0038580Y0301989D01*
X0038580Y0302988D02*
X0037610Y0302988D01*
X0037610Y0303986D02*
X0038580Y0303986D01*
X0037610Y0304985D02*
X0029895Y0304985D01*
X0030706Y0305485D02*
X0037610Y0305485D01*
X0037610Y0309455D01*
X0034790Y0309455D01*
X0034097Y0309345D01*
X0033430Y0309129D01*
X0032805Y0308810D01*
X0032238Y0308398D01*
X0031742Y0307902D01*
X0031330Y0307335D01*
X0031012Y0306710D01*
X0030795Y0306043D01*
X0030706Y0305485D01*
X0030785Y0305983D02*
X0029895Y0305983D01*
X0029895Y0306982D02*
X0031150Y0306982D01*
X0031820Y0307980D02*
X0030121Y0307980D01*
X0031120Y0308979D02*
X0033136Y0308979D01*
X0032118Y0309977D02*
X0043105Y0309977D01*
X0043105Y0308979D02*
X0043054Y0308979D01*
X0043105Y0310976D02*
X0042977Y0310976D01*
X0038580Y0308979D02*
X0037610Y0308979D01*
X0037610Y0307980D02*
X0038580Y0307980D01*
X0038580Y0306982D02*
X0037610Y0306982D01*
X0037610Y0305983D02*
X0038580Y0305983D01*
X0033195Y0300991D02*
X0029895Y0300991D01*
X0029895Y0301989D02*
X0031850Y0301989D01*
X0031165Y0302988D02*
X0029895Y0302988D01*
X0029895Y0303986D02*
X0030790Y0303986D01*
X0029024Y0311974D02*
X0028095Y0311974D01*
X0028095Y0312973D02*
X0030023Y0312973D01*
X0030744Y0313972D02*
X0028095Y0313972D01*
X0028095Y0314970D02*
X0030685Y0314970D01*
X0030719Y0315969D02*
X0028095Y0315969D01*
X0028095Y0316967D02*
X0031133Y0316967D01*
X0031805Y0317966D02*
X0028095Y0317966D01*
X0028095Y0318964D02*
X0033069Y0318964D01*
X0028095Y0319963D02*
X0043105Y0319963D01*
X0043105Y0320961D02*
X0028095Y0320961D01*
X0028095Y0321960D02*
X0043105Y0321960D01*
X0043105Y0322958D02*
X0028095Y0322958D01*
X0028095Y0323957D02*
X0043105Y0323957D01*
X0043105Y0324955D02*
X0028095Y0324955D01*
X0028095Y0325954D02*
X0043096Y0325954D01*
X0042097Y0326952D02*
X0028095Y0326952D01*
X0028095Y0327951D02*
X0041099Y0327951D01*
X0040100Y0328949D02*
X0037348Y0328949D01*
X0038798Y0329948D02*
X0039102Y0329948D01*
X0040199Y0333942D02*
X0041140Y0333942D01*
X0041140Y0334940D02*
X0040050Y0334940D01*
X0040050Y0335939D02*
X0041140Y0335939D01*
X0041140Y0336937D02*
X0040050Y0336937D01*
X0040050Y0337936D02*
X0041140Y0337936D01*
X0041140Y0338934D02*
X0040050Y0338934D01*
X0040012Y0339933D02*
X0041178Y0339933D01*
X0041592Y0340931D02*
X0039599Y0340931D01*
X0038921Y0341930D02*
X0042270Y0341930D01*
X0043546Y0342928D02*
X0037644Y0342928D01*
X0033546Y0342928D02*
X0028095Y0342928D01*
X0028095Y0341930D02*
X0032270Y0341930D01*
X0031592Y0340931D02*
X0028095Y0340931D01*
X0028095Y0339933D02*
X0031178Y0339933D01*
X0031140Y0338934D02*
X0028095Y0338934D01*
X0028095Y0337936D02*
X0031140Y0337936D01*
X0031140Y0336937D02*
X0028095Y0336937D01*
X0028095Y0335939D02*
X0031140Y0335939D01*
X0031140Y0334940D02*
X0028095Y0334940D01*
X0028095Y0333942D02*
X0031140Y0333942D01*
X0031140Y0332943D02*
X0028095Y0332943D01*
X0028095Y0331945D02*
X0031229Y0331945D01*
X0031642Y0330946D02*
X0028095Y0330946D01*
X0028095Y0329948D02*
X0032392Y0329948D01*
X0033842Y0328949D02*
X0028095Y0328949D01*
X0028095Y0343927D02*
X0170595Y0343927D01*
X0170595Y0344925D02*
X0028095Y0344925D01*
X0028095Y0345924D02*
X0170595Y0345924D01*
X0170595Y0342928D02*
X0153263Y0342928D01*
X0155236Y0341930D02*
X0170595Y0341930D01*
X0170595Y0340931D02*
X0156235Y0340931D01*
X0156706Y0339933D02*
X0170595Y0339933D01*
X0170595Y0338934D02*
X0157095Y0338934D01*
X0157095Y0337936D02*
X0170595Y0337936D01*
X0170595Y0336937D02*
X0157067Y0336937D01*
X0156702Y0335939D02*
X0170595Y0335939D01*
X0170595Y0334940D02*
X0157700Y0334940D01*
X0158699Y0333942D02*
X0170595Y0333942D01*
X0170595Y0332943D02*
X0159697Y0332943D01*
X0160395Y0331945D02*
X0170595Y0331945D01*
X0170595Y0330946D02*
X0160395Y0330946D01*
X0160395Y0329948D02*
X0170595Y0329948D01*
X0170595Y0328949D02*
X0160395Y0328949D01*
X0160395Y0327951D02*
X0170595Y0327951D01*
X0170595Y0326952D02*
X0160395Y0326952D01*
X0161959Y0325954D02*
X0170595Y0325954D01*
X0170595Y0324955D02*
X0163011Y0324955D01*
X0163384Y0323957D02*
X0170595Y0323957D01*
X0170595Y0322958D02*
X0163384Y0322958D01*
X0162976Y0321960D02*
X0170595Y0321960D01*
X0170595Y0320961D02*
X0162895Y0320961D01*
X0162895Y0319963D02*
X0170595Y0319963D01*
X0170595Y0318964D02*
X0162895Y0318964D01*
X0162895Y0317966D02*
X0170595Y0317966D01*
X0170595Y0316967D02*
X0162895Y0316967D01*
X0162895Y0315969D02*
X0170595Y0315969D01*
X0170595Y0314970D02*
X0162895Y0314970D01*
X0162895Y0313972D02*
X0170595Y0313972D01*
X0170595Y0312973D02*
X0162895Y0312973D01*
X0162895Y0311974D02*
X0170595Y0311974D01*
X0170595Y0310976D02*
X0162895Y0310976D01*
X0162895Y0309977D02*
X0170595Y0309977D01*
X0170595Y0308979D02*
X0162895Y0308979D01*
X0162895Y0307980D02*
X0170595Y0307980D01*
X0170595Y0306982D02*
X0162895Y0306982D01*
X0162895Y0305983D02*
X0170595Y0305983D01*
X0170595Y0304985D02*
X0162895Y0304985D01*
X0162895Y0303986D02*
X0170595Y0303986D01*
X0170595Y0302988D02*
X0162895Y0302988D01*
X0162895Y0301989D02*
X0170595Y0301989D01*
X0170595Y0300991D02*
X0162895Y0300991D01*
X0162895Y0299992D02*
X0170595Y0299992D01*
X0170595Y0298994D02*
X0162895Y0298994D01*
X0162895Y0297995D02*
X0170595Y0297995D01*
X0170595Y0296997D02*
X0162895Y0296997D01*
X0155795Y0313972D02*
X0155138Y0313972D01*
X0149053Y0313972D02*
X0145395Y0313972D01*
X0145395Y0314970D02*
X0148054Y0314970D01*
X0147525Y0315969D02*
X0146387Y0315969D01*
X0141512Y0319963D02*
X0119603Y0319963D01*
X0120602Y0320961D02*
X0142511Y0320961D01*
X0143509Y0321960D02*
X0121600Y0321960D01*
X0122599Y0322958D02*
X0144508Y0322958D01*
X0145506Y0323957D02*
X0129930Y0323957D01*
X0131306Y0324955D02*
X0146505Y0324955D01*
X0147503Y0325954D02*
X0132025Y0325954D01*
X0132438Y0326952D02*
X0147117Y0326952D01*
X0147095Y0327951D02*
X0132505Y0327951D01*
X0132479Y0328949D02*
X0147095Y0328949D01*
X0147490Y0329948D02*
X0132065Y0329948D01*
X0131404Y0330946D02*
X0147970Y0330946D01*
X0148969Y0331945D02*
X0130168Y0331945D01*
X0129894Y0333942D02*
X0149082Y0333942D01*
X0148084Y0334940D02*
X0131291Y0334940D01*
X0132018Y0335939D02*
X0147537Y0335939D01*
X0147123Y0336937D02*
X0132432Y0336937D01*
X0132505Y0337936D02*
X0147095Y0337936D01*
X0147095Y0338934D02*
X0132485Y0338934D01*
X0132072Y0339933D02*
X0147484Y0339933D01*
X0147955Y0340931D02*
X0131419Y0340931D01*
X0130204Y0341930D02*
X0148954Y0341930D01*
X0150928Y0342928D02*
X0079144Y0342928D01*
X0079619Y0342732D02*
X0077981Y0343410D01*
X0076209Y0343410D01*
X0074572Y0342732D01*
X0073318Y0341479D01*
X0072640Y0339841D01*
X0072640Y0332159D01*
X0073318Y0330521D01*
X0074572Y0329268D01*
X0076209Y0328590D01*
X0077981Y0328590D01*
X0079619Y0329268D01*
X0080872Y0330521D01*
X0081550Y0332159D01*
X0081550Y0339841D01*
X0080872Y0341479D01*
X0079619Y0342732D01*
X0080421Y0341930D02*
X0095986Y0341930D01*
X0095617Y0341777D02*
X0097254Y0342455D01*
X0104936Y0342455D01*
X0106574Y0341777D01*
X0107827Y0340524D01*
X0108505Y0338886D01*
X0108505Y0337114D01*
X0107827Y0335476D01*
X0106574Y0334223D01*
X0104936Y0333545D01*
X0097254Y0333545D01*
X0095617Y0334223D01*
X0094363Y0335476D01*
X0093685Y0337114D01*
X0093685Y0338886D01*
X0094363Y0340524D01*
X0095617Y0341777D01*
X0094771Y0340931D02*
X0081099Y0340931D01*
X0081512Y0339933D02*
X0094119Y0339933D01*
X0093705Y0338934D02*
X0081550Y0338934D01*
X0081550Y0337936D02*
X0093685Y0337936D01*
X0093758Y0336937D02*
X0081550Y0336937D01*
X0081550Y0335939D02*
X0094172Y0335939D01*
X0094900Y0334940D02*
X0081550Y0334940D01*
X0081550Y0333942D02*
X0096296Y0333942D01*
X0096022Y0331945D02*
X0081461Y0331945D01*
X0081550Y0332943D02*
X0117493Y0332943D01*
X0116494Y0331945D02*
X0106168Y0331945D01*
X0107404Y0330946D02*
X0115496Y0330946D01*
X0114497Y0329948D02*
X0108065Y0329948D01*
X0108479Y0328949D02*
X0110499Y0328949D01*
X0109500Y0327951D02*
X0108505Y0327951D01*
X0108502Y0326952D02*
X0108438Y0326952D01*
X0105894Y0333942D02*
X0118491Y0333942D01*
X0118900Y0334940D02*
X0107291Y0334940D01*
X0108018Y0335939D02*
X0118172Y0335939D01*
X0117758Y0336937D02*
X0108432Y0336937D01*
X0108505Y0337936D02*
X0117685Y0337936D01*
X0117705Y0338934D02*
X0108485Y0338934D01*
X0108072Y0339933D02*
X0118119Y0339933D01*
X0118771Y0340931D02*
X0107419Y0340931D01*
X0106204Y0341930D02*
X0119986Y0341930D01*
X0122584Y0332943D02*
X0150964Y0332943D01*
X0151101Y0333000D02*
X0153090Y0333000D01*
X0154927Y0332239D01*
X0156334Y0330832D01*
X0156795Y0329719D01*
X0156795Y0330754D01*
X0154122Y0333428D01*
X0153090Y0333000D01*
X0151101Y0333000D01*
X0153227Y0332943D02*
X0154606Y0332943D01*
X0155221Y0331945D02*
X0155605Y0331945D01*
X0156220Y0330946D02*
X0156603Y0330946D01*
X0156700Y0329948D02*
X0156795Y0329948D01*
X0140514Y0318964D02*
X0118605Y0318964D01*
X0117606Y0317966D02*
X0139515Y0317966D01*
X0138517Y0316967D02*
X0097108Y0316967D01*
X0096109Y0315969D02*
X0106652Y0315969D01*
X0106575Y0315891D02*
X0106377Y0315549D01*
X0106275Y0315167D01*
X0106275Y0313190D01*
X0108965Y0313190D01*
X0108965Y0312810D01*
X0106275Y0312810D01*
X0106275Y0310833D01*
X0106377Y0310451D01*
X0106575Y0310109D01*
X0106854Y0309830D01*
X0107196Y0309632D01*
X0107578Y0309530D01*
X0108965Y0309530D01*
X0108965Y0312810D01*
X0109345Y0312810D01*
X0109345Y0309530D01*
X0110733Y0309530D01*
X0111114Y0309632D01*
X0111456Y0309830D01*
X0111735Y0310109D01*
X0111933Y0310451D01*
X0112035Y0310833D01*
X0112035Y0312810D01*
X0109345Y0312810D01*
X0109345Y0313190D01*
X0108965Y0313190D01*
X0108965Y0316470D01*
X0107578Y0316470D01*
X0107196Y0316368D01*
X0106854Y0316170D01*
X0106575Y0315891D01*
X0106275Y0314970D02*
X0095111Y0314970D01*
X0092014Y0318964D02*
X0082177Y0318964D01*
X0082895Y0317966D02*
X0091015Y0317966D01*
X0090017Y0316967D02*
X0082895Y0316967D01*
X0082895Y0315969D02*
X0089295Y0315969D01*
X0089295Y0314970D02*
X0088706Y0314970D01*
X0093012Y0319963D02*
X0081178Y0319963D01*
X0080180Y0320961D02*
X0094011Y0320961D01*
X0095009Y0321960D02*
X0079181Y0321960D01*
X0078183Y0322958D02*
X0104508Y0322958D01*
X0104123Y0314882D02*
X0100079Y0314882D01*
X0100079Y0311898D01*
X0105426Y0311898D01*
X0105426Y0313579D01*
X0105324Y0313961D01*
X0105126Y0314303D01*
X0104847Y0314582D01*
X0104505Y0314780D01*
X0104123Y0314882D01*
X0105317Y0313972D02*
X0106275Y0313972D01*
X0105426Y0312973D02*
X0108965Y0312973D01*
X0109345Y0312973D02*
X0114155Y0312973D01*
X0114155Y0311974D02*
X0112035Y0311974D01*
X0112035Y0310976D02*
X0114155Y0310976D01*
X0114586Y0309977D02*
X0111604Y0309977D01*
X0109345Y0309977D02*
X0108965Y0309977D01*
X0108965Y0310976D02*
X0109345Y0310976D01*
X0109345Y0311974D02*
X0108965Y0311974D01*
X0109345Y0313190D02*
X0112035Y0313190D01*
X0112035Y0315167D01*
X0111933Y0315549D01*
X0111735Y0315891D01*
X0111456Y0316170D01*
X0111114Y0316368D01*
X0110733Y0316470D01*
X0109345Y0316470D01*
X0109345Y0313190D01*
X0109345Y0313972D02*
X0108965Y0313972D01*
X0108965Y0314970D02*
X0109345Y0314970D01*
X0109345Y0315969D02*
X0108965Y0315969D01*
X0111658Y0315969D02*
X0114532Y0315969D01*
X0114155Y0314970D02*
X0112035Y0314970D01*
X0112035Y0313972D02*
X0114155Y0313972D01*
X0115235Y0308979D02*
X0108777Y0308979D01*
X0109166Y0307980D02*
X0114631Y0307980D01*
X0113983Y0306982D02*
X0109166Y0306982D01*
X0109166Y0305983D02*
X0113806Y0305983D01*
X0110739Y0300991D02*
X0100079Y0300991D01*
X0099111Y0300991D02*
X0092895Y0300991D01*
X0092895Y0301989D02*
X0093764Y0301989D01*
X0093827Y0302988D02*
X0092895Y0302988D01*
X0092895Y0303986D02*
X0094811Y0303986D01*
X0092895Y0304985D02*
X0102032Y0304985D01*
X0102032Y0305983D02*
X0093321Y0305983D01*
X0094095Y0306982D02*
X0102032Y0306982D01*
X0100079Y0307980D02*
X0099111Y0307980D01*
X0099111Y0308979D02*
X0100079Y0308979D01*
X0100079Y0309977D02*
X0099111Y0309977D01*
X0100079Y0310976D02*
X0106275Y0310976D01*
X0106275Y0311974D02*
X0105426Y0311974D01*
X0105426Y0309977D02*
X0106706Y0309977D01*
X0100079Y0311974D02*
X0099111Y0311974D01*
X0099111Y0312973D02*
X0100079Y0312973D01*
X0100079Y0313972D02*
X0099111Y0313972D01*
X0094934Y0307980D02*
X0094095Y0307980D01*
X0099111Y0303986D02*
X0100079Y0303986D01*
X0100079Y0302988D02*
X0099111Y0302988D01*
X0099111Y0301989D02*
X0100079Y0301989D01*
X0100079Y0299992D02*
X0099111Y0299992D01*
X0099111Y0300102D02*
X0099111Y0297118D01*
X0095067Y0297118D01*
X0094685Y0297220D01*
X0094343Y0297418D01*
X0094064Y0297697D01*
X0093867Y0298039D01*
X0093764Y0298421D01*
X0093764Y0300102D01*
X0099111Y0300102D01*
X0099111Y0298994D02*
X0100079Y0298994D01*
X0100079Y0297995D02*
X0099111Y0297995D01*
X0095086Y0295998D02*
X0092895Y0295998D01*
X0092895Y0295000D02*
X0094253Y0295000D01*
X0094253Y0294001D02*
X0092895Y0294001D01*
X0092895Y0293003D02*
X0094253Y0293003D01*
X0094253Y0292004D02*
X0092895Y0292004D01*
X0092895Y0291006D02*
X0094253Y0291006D01*
X0094253Y0290007D02*
X0092895Y0290007D01*
X0092895Y0289009D02*
X0094253Y0289009D01*
X0094253Y0288010D02*
X0092895Y0288010D01*
X0093629Y0287012D02*
X0094253Y0287012D01*
X0094628Y0286013D02*
X0095075Y0286013D01*
X0095626Y0285015D02*
X0112564Y0285015D01*
X0111566Y0284016D02*
X0096625Y0284016D01*
X0097623Y0283018D02*
X0110567Y0283018D01*
X0109569Y0282019D02*
X0098622Y0282019D01*
X0099620Y0281021D02*
X0108570Y0281021D01*
X0107572Y0280022D02*
X0100619Y0280022D01*
X0101617Y0279024D02*
X0106573Y0279024D01*
X0105575Y0278025D02*
X0102616Y0278025D01*
X0102895Y0277027D02*
X0104576Y0277027D01*
X0104295Y0276028D02*
X0102895Y0276028D01*
X0102895Y0275030D02*
X0104295Y0275030D01*
X0104182Y0274031D02*
X0103008Y0274031D01*
X0106306Y0296997D02*
X0092895Y0296997D01*
X0092895Y0297995D02*
X0093892Y0297995D01*
X0093764Y0298994D02*
X0092895Y0298994D01*
X0092895Y0299992D02*
X0093764Y0299992D01*
X0105426Y0299992D02*
X0107824Y0299992D01*
X0106695Y0298994D02*
X0105426Y0298994D01*
X0105298Y0297995D02*
X0106306Y0297995D01*
X0107064Y0301989D02*
X0105426Y0301989D01*
X0110366Y0299992D02*
X0110719Y0299992D01*
X0113235Y0297417D02*
X0111861Y0296043D01*
X0121177Y0296043D01*
X0121254Y0295967D01*
X0121539Y0296043D01*
X0123024Y0296043D01*
X0123024Y0291287D01*
X0123599Y0291287D01*
X0123599Y0296043D01*
X0125084Y0296043D01*
X0125465Y0295941D01*
X0125806Y0295744D01*
X0125806Y0296055D01*
X0126073Y0296700D01*
X0117672Y0296700D01*
X0116955Y0297417D01*
X0115263Y0297417D01*
X0115095Y0297585D01*
X0114927Y0297417D01*
X0113235Y0297417D01*
X0112815Y0296997D02*
X0117376Y0296997D01*
X0121222Y0295998D02*
X0121372Y0295998D01*
X0123024Y0295998D02*
X0123599Y0295998D01*
X0123599Y0295000D02*
X0123024Y0295000D01*
X0123024Y0294001D02*
X0123599Y0294001D01*
X0123599Y0293003D02*
X0123024Y0293003D01*
X0123024Y0292004D02*
X0123599Y0292004D01*
X0125252Y0295998D02*
X0125806Y0295998D01*
X0129854Y0293003D02*
X0132048Y0293003D01*
X0132048Y0294001D02*
X0130993Y0294001D01*
X0131384Y0295000D02*
X0132048Y0295000D01*
X0131384Y0295998D02*
X0132882Y0295998D01*
X0132048Y0292004D02*
X0128895Y0292004D01*
X0128895Y0291006D02*
X0132048Y0291006D01*
X0132048Y0290007D02*
X0128895Y0290007D01*
X0128895Y0289009D02*
X0132048Y0289009D01*
X0141695Y0295998D02*
X0141844Y0295998D01*
X0137631Y0307980D02*
X0137065Y0307980D01*
X0137795Y0308979D02*
X0129545Y0308979D01*
X0129545Y0309977D02*
X0137795Y0309977D01*
X0137795Y0310976D02*
X0129545Y0310976D01*
X0129545Y0311974D02*
X0137795Y0311974D01*
X0137795Y0312973D02*
X0129545Y0312973D01*
X0129545Y0313972D02*
X0137795Y0313972D01*
X0137795Y0314970D02*
X0129545Y0314970D01*
X0129148Y0315969D02*
X0137795Y0315969D01*
X0121042Y0315969D02*
X0119538Y0315969D01*
X0119915Y0314970D02*
X0120645Y0314970D01*
X0096260Y0323957D02*
X0077184Y0323957D01*
X0076186Y0324955D02*
X0094885Y0324955D01*
X0094166Y0325954D02*
X0075384Y0325954D01*
X0075220Y0326952D02*
X0093752Y0326952D01*
X0093685Y0327951D02*
X0074589Y0327951D01*
X0075342Y0328949D02*
X0068848Y0328949D01*
X0069619Y0329268D02*
X0067981Y0328590D01*
X0066209Y0328590D01*
X0064572Y0329268D01*
X0063318Y0330521D01*
X0062640Y0332159D01*
X0062640Y0339841D01*
X0063318Y0341479D01*
X0064572Y0342732D01*
X0066209Y0343410D01*
X0067981Y0343410D01*
X0069619Y0342732D01*
X0070872Y0341479D01*
X0071550Y0339841D01*
X0071550Y0332159D01*
X0070872Y0330521D01*
X0069619Y0329268D01*
X0070298Y0329948D02*
X0073892Y0329948D01*
X0073142Y0330946D02*
X0071048Y0330946D01*
X0071461Y0331945D02*
X0072729Y0331945D01*
X0072640Y0332943D02*
X0071550Y0332943D01*
X0071550Y0333942D02*
X0072640Y0333942D01*
X0072640Y0334940D02*
X0071550Y0334940D01*
X0071550Y0335939D02*
X0072640Y0335939D01*
X0072640Y0336937D02*
X0071550Y0336937D01*
X0071550Y0337936D02*
X0072640Y0337936D01*
X0072640Y0338934D02*
X0071550Y0338934D01*
X0071512Y0339933D02*
X0072678Y0339933D01*
X0073092Y0340931D02*
X0071099Y0340931D01*
X0070421Y0341930D02*
X0073770Y0341930D01*
X0075046Y0342928D02*
X0069144Y0342928D01*
X0065046Y0342928D02*
X0047644Y0342928D01*
X0048921Y0341930D02*
X0063770Y0341930D01*
X0063092Y0340931D02*
X0049599Y0340931D01*
X0050012Y0339933D02*
X0062678Y0339933D01*
X0062640Y0338934D02*
X0050050Y0338934D01*
X0050050Y0337936D02*
X0062640Y0337936D01*
X0062640Y0336937D02*
X0050050Y0336937D01*
X0050050Y0335939D02*
X0062640Y0335939D01*
X0062640Y0334940D02*
X0050050Y0334940D01*
X0050050Y0333942D02*
X0062640Y0333942D01*
X0062640Y0332943D02*
X0050050Y0332943D01*
X0049961Y0331945D02*
X0062729Y0331945D01*
X0063142Y0330946D02*
X0049548Y0330946D01*
X0048798Y0329948D02*
X0063892Y0329948D01*
X0065342Y0328949D02*
X0048395Y0328949D01*
X0048395Y0327951D02*
X0070602Y0327951D01*
X0069971Y0326952D02*
X0048395Y0326952D01*
X0048395Y0325954D02*
X0069806Y0325954D01*
X0070009Y0324955D02*
X0048395Y0324955D01*
X0048395Y0323957D02*
X0070694Y0323957D01*
X0073091Y0322958D02*
X0048395Y0322958D01*
X0048395Y0321960D02*
X0074090Y0321960D01*
X0075088Y0320961D02*
X0048395Y0320961D01*
X0048395Y0319963D02*
X0076087Y0319963D01*
X0077085Y0318964D02*
X0048395Y0318964D01*
X0048395Y0317966D02*
X0078084Y0317966D01*
X0079082Y0316967D02*
X0048395Y0316967D01*
X0048395Y0315969D02*
X0079295Y0315969D01*
X0079295Y0314970D02*
X0078706Y0314970D01*
X0082895Y0314970D02*
X0083484Y0314970D01*
X0079295Y0307980D02*
X0078657Y0307980D01*
X0079295Y0306982D02*
X0048395Y0306982D01*
X0048395Y0307980D02*
X0053624Y0307980D01*
X0052612Y0308979D02*
X0048395Y0308979D01*
X0048395Y0309977D02*
X0052069Y0309977D01*
X0051825Y0310976D02*
X0048395Y0310976D01*
X0048395Y0311974D02*
X0051817Y0311974D01*
X0051798Y0311856D02*
X0055739Y0311856D01*
X0055739Y0315797D01*
X0055088Y0315694D01*
X0054445Y0315485D01*
X0053841Y0315178D01*
X0053294Y0314780D01*
X0052815Y0314301D01*
X0052417Y0313754D01*
X0052110Y0313151D01*
X0051901Y0312507D01*
X0051798Y0311856D01*
X0052052Y0312973D02*
X0048395Y0312973D01*
X0048395Y0313972D02*
X0052576Y0313972D01*
X0053556Y0314970D02*
X0048395Y0314970D01*
X0048395Y0305983D02*
X0079566Y0305983D01*
X0080565Y0304985D02*
X0048395Y0304985D01*
X0048395Y0303986D02*
X0081563Y0303986D01*
X0082562Y0302988D02*
X0048395Y0302988D01*
X0055739Y0307980D02*
X0056451Y0307980D01*
X0056451Y0308979D02*
X0055739Y0308979D01*
X0055739Y0309977D02*
X0056451Y0309977D01*
X0056451Y0310976D02*
X0055739Y0310976D01*
X0055739Y0311974D02*
X0056451Y0311974D01*
X0056451Y0312973D02*
X0055739Y0312973D01*
X0055739Y0313972D02*
X0056451Y0313972D01*
X0056451Y0314970D02*
X0055739Y0314970D01*
X0072652Y0285015D02*
X0076539Y0285015D01*
X0075540Y0284016D02*
X0073650Y0284016D01*
X0074171Y0283018D02*
X0075019Y0283018D01*
X0074605Y0282019D02*
X0074585Y0282019D01*
X0074595Y0281995D02*
X0074595Y0280005D01*
X0073930Y0278400D01*
X0075260Y0278400D01*
X0074595Y0280005D01*
X0074595Y0281995D01*
X0074595Y0281021D02*
X0074595Y0281021D01*
X0074595Y0280022D02*
X0074595Y0280022D01*
X0074188Y0279024D02*
X0075002Y0279024D01*
X0082607Y0255059D02*
X0130710Y0255059D01*
X0130016Y0254061D02*
X0083605Y0254061D01*
X0084153Y0253062D02*
X0129806Y0253062D01*
X0129074Y0252064D02*
X0084566Y0252064D01*
X0084595Y0251065D02*
X0128075Y0251065D01*
X0127077Y0250067D02*
X0084595Y0250067D01*
X0084207Y0249068D02*
X0126078Y0249068D01*
X0128174Y0246073D02*
X0132048Y0246073D01*
X0132048Y0247071D02*
X0129173Y0247071D01*
X0130171Y0248070D02*
X0132197Y0248070D01*
X0131170Y0249068D02*
X0141669Y0249068D01*
X0141306Y0250067D02*
X0132168Y0250067D01*
X0134605Y0251065D02*
X0141311Y0251065D01*
X0141724Y0252064D02*
X0135226Y0252064D01*
X0135384Y0253062D02*
X0142993Y0253062D01*
X0143806Y0254061D02*
X0135174Y0254061D01*
X0134480Y0255059D02*
X0144015Y0255059D01*
X0132048Y0245074D02*
X0127176Y0245074D01*
X0126386Y0244076D02*
X0132048Y0244076D01*
X0132048Y0243077D02*
X0126386Y0243077D01*
X0126386Y0242079D02*
X0132048Y0242079D01*
X0132048Y0241080D02*
X0126386Y0241080D01*
X0126386Y0240082D02*
X0132048Y0240082D01*
X0132556Y0239083D02*
X0125878Y0239083D01*
X0124116Y0223600D02*
X0135950Y0223600D01*
X0136500Y0223050D01*
X0135445Y0223050D01*
X0135445Y0220100D01*
X0134545Y0220100D01*
X0134545Y0219200D01*
X0130645Y0219200D01*
X0130645Y0217553D01*
X0130747Y0217171D01*
X0130945Y0216829D01*
X0131224Y0216550D01*
X0131414Y0216440D01*
X0130645Y0215671D01*
X0130645Y0214950D01*
X0129941Y0214950D01*
X0124745Y0220146D01*
X0124745Y0222971D01*
X0124116Y0223600D01*
X0124609Y0223107D02*
X0136443Y0223107D01*
X0135445Y0222108D02*
X0134545Y0222108D01*
X0134545Y0223050D02*
X0131948Y0223050D01*
X0131566Y0222948D01*
X0131224Y0222750D01*
X0130945Y0222471D01*
X0130747Y0222129D01*
X0130645Y0221747D01*
X0130645Y0220100D01*
X0134545Y0220100D01*
X0134545Y0223050D01*
X0134545Y0221110D02*
X0135445Y0221110D01*
X0135445Y0220111D02*
X0134545Y0220111D01*
X0130645Y0220111D02*
X0124779Y0220111D01*
X0124745Y0221110D02*
X0130645Y0221110D01*
X0130742Y0222108D02*
X0124745Y0222108D01*
X0125778Y0219113D02*
X0130645Y0219113D01*
X0130645Y0218114D02*
X0126776Y0218114D01*
X0127775Y0217116D02*
X0130779Y0217116D01*
X0131091Y0216117D02*
X0128773Y0216117D01*
X0129772Y0215119D02*
X0130645Y0215119D01*
X0114245Y0217100D02*
X0113924Y0217100D01*
X0113045Y0216221D01*
X0113045Y0211779D01*
X0113824Y0211000D01*
X0113045Y0210221D01*
X0113045Y0205779D01*
X0113824Y0205000D01*
X0113045Y0204221D01*
X0113045Y0203800D01*
X0104800Y0203800D01*
X0104550Y0203550D01*
X0101874Y0203550D01*
X0101095Y0202771D01*
X0100316Y0203550D01*
X0096395Y0203550D01*
X0096395Y0214254D01*
X0101352Y0219211D01*
X0102150Y0219211D01*
X0103175Y0219636D01*
X0103960Y0220420D01*
X0104384Y0221445D01*
X0104384Y0222555D01*
X0103960Y0223580D01*
X0103939Y0223600D01*
X0114074Y0223600D01*
X0113445Y0222971D01*
X0113445Y0218029D01*
X0114245Y0217229D01*
X0114245Y0217100D01*
X0114245Y0217116D02*
X0099257Y0217116D01*
X0100255Y0218114D02*
X0113445Y0218114D01*
X0113445Y0219113D02*
X0101254Y0219113D01*
X0103651Y0220111D02*
X0113445Y0220111D01*
X0113445Y0221110D02*
X0104245Y0221110D01*
X0104384Y0222108D02*
X0113445Y0222108D01*
X0113581Y0223107D02*
X0104155Y0223107D01*
X0098258Y0216117D02*
X0113045Y0216117D01*
X0113045Y0215119D02*
X0097260Y0215119D01*
X0096395Y0214120D02*
X0113045Y0214120D01*
X0113045Y0213122D02*
X0096395Y0213122D01*
X0096395Y0212123D02*
X0113045Y0212123D01*
X0113699Y0211125D02*
X0096395Y0211125D01*
X0096395Y0210126D02*
X0113045Y0210126D01*
X0113045Y0209128D02*
X0096395Y0209128D01*
X0096395Y0208129D02*
X0113045Y0208129D01*
X0113045Y0207131D02*
X0096395Y0207131D01*
X0096395Y0206132D02*
X0113045Y0206132D01*
X0113690Y0205134D02*
X0096395Y0205134D01*
X0096395Y0204135D02*
X0113045Y0204135D01*
X0101461Y0203137D02*
X0100730Y0203137D01*
X0100177Y0191450D02*
X0096395Y0191450D01*
X0096395Y0187850D01*
X0097895Y0187850D01*
X0097895Y0183950D01*
X0098795Y0183950D01*
X0098795Y0187850D01*
X0100443Y0187850D01*
X0100824Y0187748D01*
X0101166Y0187550D01*
X0101445Y0187271D01*
X0101555Y0187081D01*
X0102324Y0187850D01*
X0107366Y0187850D01*
X0108245Y0186971D01*
X0108245Y0184565D01*
X0113045Y0183462D01*
X0113045Y0187721D01*
X0113437Y0188113D01*
X0112850Y0188700D01*
X0104796Y0188700D01*
X0104607Y0188511D01*
X0103116Y0188511D01*
X0100177Y0191450D01*
X0100472Y0191155D02*
X0096395Y0191155D01*
X0096395Y0190156D02*
X0101471Y0190156D01*
X0102469Y0189158D02*
X0096395Y0189158D01*
X0096395Y0188159D02*
X0113390Y0188159D01*
X0113045Y0187161D02*
X0108056Y0187161D01*
X0108245Y0186162D02*
X0113045Y0186162D01*
X0113045Y0185164D02*
X0108245Y0185164D01*
X0109986Y0184165D02*
X0113045Y0184165D01*
X0112638Y0179862D02*
X0113045Y0179454D01*
X0113045Y0178546D01*
X0111376Y0176876D01*
X0108354Y0176876D01*
X0107475Y0175998D01*
X0107475Y0167821D01*
X0108354Y0166943D01*
X0108850Y0166943D01*
X0108850Y0156161D01*
X0108806Y0156055D01*
X0108806Y0154945D01*
X0109231Y0153920D01*
X0110015Y0153136D01*
X0111040Y0152711D01*
X0112150Y0152711D01*
X0113175Y0153136D01*
X0113294Y0153255D01*
X0113850Y0152700D01*
X0116400Y0150150D01*
X0116495Y0150150D01*
X0116495Y0149891D01*
X0109297Y0149891D01*
X0109297Y0152179D01*
X0108419Y0153057D01*
X0103395Y0153057D01*
X0103395Y0166943D01*
X0103891Y0166943D01*
X0104770Y0167821D01*
X0104770Y0175998D01*
X0103891Y0176876D01*
X0099299Y0176876D01*
X0099282Y0176859D01*
X0096991Y0179150D01*
X0097895Y0179150D01*
X0097895Y0183050D01*
X0098795Y0183050D01*
X0098795Y0179150D01*
X0100443Y0179150D01*
X0100824Y0179252D01*
X0101166Y0179450D01*
X0101445Y0179729D01*
X0101555Y0179919D01*
X0102324Y0179150D01*
X0107366Y0179150D01*
X0108245Y0180029D01*
X0108245Y0180871D01*
X0112638Y0179862D01*
X0113045Y0179172D02*
X0107389Y0179172D01*
X0108245Y0180171D02*
X0111292Y0180171D01*
X0112674Y0178174D02*
X0097967Y0178174D01*
X0097895Y0179172D02*
X0098795Y0179172D01*
X0098795Y0180171D02*
X0097895Y0180171D01*
X0097895Y0181170D02*
X0098795Y0181170D01*
X0098795Y0182168D02*
X0097895Y0182168D01*
X0097895Y0184165D02*
X0098795Y0184165D01*
X0098795Y0185164D02*
X0097895Y0185164D01*
X0097895Y0186162D02*
X0098795Y0186162D01*
X0098795Y0187161D02*
X0097895Y0187161D01*
X0101509Y0187161D02*
X0101634Y0187161D01*
X0102301Y0179172D02*
X0100527Y0179172D01*
X0098965Y0177175D02*
X0111675Y0177175D01*
X0107655Y0176177D02*
X0104591Y0176177D01*
X0104770Y0175178D02*
X0107475Y0175178D01*
X0107475Y0174180D02*
X0104770Y0174180D01*
X0104770Y0173181D02*
X0107475Y0173181D01*
X0107475Y0172183D02*
X0104770Y0172183D01*
X0104770Y0171184D02*
X0107475Y0171184D01*
X0107475Y0170186D02*
X0104770Y0170186D01*
X0104770Y0169187D02*
X0107475Y0169187D01*
X0107475Y0168189D02*
X0104770Y0168189D01*
X0104139Y0167190D02*
X0108106Y0167190D01*
X0108850Y0166192D02*
X0103395Y0166192D01*
X0103395Y0165193D02*
X0108850Y0165193D01*
X0108850Y0164195D02*
X0103395Y0164195D01*
X0103395Y0163196D02*
X0108850Y0163196D01*
X0108850Y0162198D02*
X0103395Y0162198D01*
X0103395Y0161199D02*
X0108850Y0161199D01*
X0108850Y0160201D02*
X0103395Y0160201D01*
X0103395Y0159202D02*
X0108850Y0159202D01*
X0108850Y0158204D02*
X0103395Y0158204D01*
X0103395Y0157205D02*
X0108850Y0157205D01*
X0108850Y0156207D02*
X0103395Y0156207D01*
X0103395Y0155208D02*
X0108806Y0155208D01*
X0109111Y0154210D02*
X0103395Y0154210D01*
X0103395Y0153211D02*
X0109940Y0153211D01*
X0109264Y0152213D02*
X0114337Y0152213D01*
X0113338Y0153211D02*
X0113251Y0153211D01*
X0115335Y0151214D02*
X0109297Y0151214D01*
X0109297Y0150216D02*
X0116334Y0150216D01*
X0099795Y0153211D02*
X0084595Y0153211D01*
X0084595Y0154210D02*
X0099795Y0154210D01*
X0099795Y0155208D02*
X0084508Y0155208D01*
X0082871Y0157205D02*
X0099795Y0157205D01*
X0099795Y0156207D02*
X0081089Y0156207D01*
X0078101Y0156207D02*
X0071089Y0156207D01*
X0072871Y0157205D02*
X0076319Y0157205D01*
X0075341Y0158204D02*
X0073849Y0158204D01*
X0074262Y0159202D02*
X0074928Y0159202D01*
X0074595Y0160005D02*
X0074595Y0161995D01*
X0075260Y0163600D01*
X0073930Y0163600D01*
X0074595Y0161995D01*
X0074595Y0160005D01*
X0074595Y0160201D02*
X0074595Y0160201D01*
X0074595Y0161199D02*
X0074595Y0161199D01*
X0074511Y0162198D02*
X0074679Y0162198D01*
X0075093Y0163196D02*
X0074097Y0163196D01*
X0073882Y0168400D02*
X0074229Y0169081D01*
X0074472Y0169829D01*
X0074581Y0170516D01*
X0070079Y0170516D01*
X0070079Y0171484D01*
X0074581Y0171484D01*
X0074472Y0172171D01*
X0074229Y0172919D01*
X0073882Y0173600D01*
X0075260Y0173600D01*
X0074595Y0171995D01*
X0074595Y0170005D01*
X0075260Y0168400D01*
X0073882Y0168400D01*
X0074263Y0169187D02*
X0074934Y0169187D01*
X0074595Y0170186D02*
X0074529Y0170186D01*
X0074595Y0171184D02*
X0070079Y0171184D01*
X0069111Y0171184D02*
X0064595Y0171184D01*
X0064610Y0171484D02*
X0069111Y0171484D01*
X0069111Y0170516D01*
X0064610Y0170516D01*
X0064718Y0169829D01*
X0064961Y0169081D01*
X0065308Y0168400D01*
X0063930Y0168400D01*
X0064595Y0170005D01*
X0064595Y0171995D01*
X0063930Y0173600D01*
X0065308Y0173600D01*
X0064961Y0172919D01*
X0064718Y0172171D01*
X0064610Y0171484D01*
X0064517Y0172183D02*
X0064722Y0172183D01*
X0065095Y0173181D02*
X0064104Y0173181D01*
X0064595Y0170186D02*
X0064662Y0170186D01*
X0064927Y0169187D02*
X0064256Y0169187D01*
X0063930Y0163600D02*
X0065260Y0163600D01*
X0064595Y0161995D01*
X0064595Y0160005D01*
X0064595Y0161995D01*
X0063930Y0163600D01*
X0064097Y0163196D02*
X0065093Y0163196D01*
X0064679Y0162198D02*
X0064511Y0162198D01*
X0064595Y0161199D02*
X0064595Y0161199D01*
X0064595Y0160201D02*
X0064595Y0160201D01*
X0064262Y0159202D02*
X0064928Y0159202D01*
X0065341Y0158204D02*
X0063849Y0158204D01*
X0062871Y0157205D02*
X0066319Y0157205D01*
X0068101Y0156207D02*
X0061089Y0156207D01*
X0058101Y0156207D02*
X0051089Y0156207D01*
X0052871Y0157205D02*
X0056319Y0157205D01*
X0055341Y0158204D02*
X0053849Y0158204D01*
X0054262Y0159202D02*
X0054928Y0159202D01*
X0054595Y0160005D02*
X0054595Y0161995D01*
X0055260Y0163600D01*
X0053930Y0163600D01*
X0054595Y0161995D01*
X0054595Y0160005D01*
X0054595Y0160201D02*
X0054595Y0160201D01*
X0054595Y0161199D02*
X0054595Y0161199D01*
X0054511Y0162198D02*
X0054679Y0162198D01*
X0055093Y0163196D02*
X0054097Y0163196D01*
X0054508Y0155208D02*
X0054682Y0155208D01*
X0054595Y0154210D02*
X0054595Y0154210D01*
X0054595Y0153211D02*
X0054595Y0153211D01*
X0054595Y0152213D02*
X0054595Y0152213D01*
X0054595Y0151214D02*
X0054595Y0151214D01*
X0054595Y0150216D02*
X0054595Y0150216D01*
X0054595Y0149217D02*
X0054595Y0149217D01*
X0054595Y0148219D02*
X0054595Y0148219D01*
X0054595Y0147220D02*
X0054595Y0147220D01*
X0053938Y0146222D02*
X0055252Y0146222D01*
X0063938Y0146222D02*
X0065252Y0146222D01*
X0064595Y0147220D02*
X0064595Y0147220D01*
X0064595Y0148219D02*
X0064595Y0148219D01*
X0064595Y0149217D02*
X0064595Y0149217D01*
X0064595Y0150216D02*
X0064595Y0150216D01*
X0064595Y0151214D02*
X0064595Y0151214D01*
X0064595Y0152213D02*
X0064595Y0152213D01*
X0064595Y0153211D02*
X0064595Y0153211D01*
X0064595Y0154210D02*
X0064595Y0154210D01*
X0064508Y0155208D02*
X0064682Y0155208D01*
X0074508Y0155208D02*
X0074682Y0155208D01*
X0074595Y0154210D02*
X0074595Y0154210D01*
X0074595Y0153211D02*
X0074595Y0153211D01*
X0074595Y0152213D02*
X0074595Y0152213D01*
X0074595Y0151214D02*
X0074595Y0151214D01*
X0074595Y0150216D02*
X0074595Y0150216D01*
X0074595Y0149217D02*
X0074595Y0149217D01*
X0074595Y0148219D02*
X0074595Y0148219D01*
X0074595Y0147220D02*
X0074595Y0147220D01*
X0073938Y0146222D02*
X0075252Y0146222D01*
X0083938Y0146222D02*
X0084752Y0146222D01*
X0084745Y0147220D02*
X0084595Y0147220D01*
X0084595Y0148219D02*
X0084745Y0148219D01*
X0085197Y0145223D02*
X0041095Y0145223D01*
X0041095Y0144225D02*
X0084745Y0144225D01*
X0084745Y0143226D02*
X0040978Y0143226D01*
X0041095Y0146222D02*
X0045252Y0146222D01*
X0044595Y0147220D02*
X0040793Y0147220D01*
X0040380Y0148219D02*
X0044595Y0148219D01*
X0044595Y0149217D02*
X0039966Y0149217D01*
X0038986Y0150216D02*
X0044595Y0150216D01*
X0044595Y0151214D02*
X0037988Y0151214D01*
X0035781Y0152213D02*
X0044595Y0152213D01*
X0044595Y0153211D02*
X0028095Y0153211D01*
X0028095Y0152213D02*
X0031410Y0152213D01*
X0029203Y0151214D02*
X0028095Y0151214D01*
X0028095Y0150216D02*
X0028204Y0150216D01*
X0028095Y0154210D02*
X0044595Y0154210D01*
X0044682Y0155208D02*
X0028095Y0155208D01*
X0028095Y0156207D02*
X0048101Y0156207D01*
X0046319Y0157205D02*
X0028095Y0157205D01*
X0028095Y0158204D02*
X0045341Y0158204D01*
X0044928Y0159202D02*
X0028095Y0159202D01*
X0028095Y0160201D02*
X0044595Y0160201D01*
X0044595Y0161199D02*
X0028095Y0161199D01*
X0028095Y0162198D02*
X0044679Y0162198D01*
X0045093Y0163196D02*
X0028095Y0163196D01*
X0028095Y0164195D02*
X0045719Y0164195D01*
X0046634Y0165193D02*
X0028095Y0165193D01*
X0028095Y0166192D02*
X0045635Y0166192D01*
X0044637Y0167190D02*
X0028095Y0167190D01*
X0028095Y0168189D02*
X0043638Y0168189D01*
X0044450Y0167377D02*
X0044450Y0167377D01*
X0042862Y0169187D02*
X0028095Y0169187D01*
X0028095Y0170186D02*
X0041864Y0170186D01*
X0040865Y0171184D02*
X0028095Y0171184D01*
X0028095Y0172183D02*
X0039867Y0172183D01*
X0038868Y0173181D02*
X0028095Y0173181D01*
X0028095Y0174180D02*
X0037870Y0174180D01*
X0036871Y0175178D02*
X0028095Y0175178D01*
X0028095Y0176177D02*
X0035873Y0176177D01*
X0034874Y0177175D02*
X0028095Y0177175D01*
X0028095Y0178174D02*
X0033876Y0178174D01*
X0032877Y0179172D02*
X0028095Y0179172D01*
X0028095Y0180171D02*
X0032795Y0180171D01*
X0032795Y0181170D02*
X0028095Y0181170D01*
X0028095Y0182168D02*
X0032795Y0182168D01*
X0032795Y0183167D02*
X0028095Y0183167D01*
X0028095Y0184165D02*
X0032795Y0184165D01*
X0032795Y0185164D02*
X0028095Y0185164D01*
X0028095Y0186162D02*
X0032795Y0186162D01*
X0032795Y0187161D02*
X0028095Y0187161D01*
X0028095Y0188159D02*
X0032795Y0188159D01*
X0032795Y0189158D02*
X0028095Y0189158D01*
X0028095Y0190156D02*
X0032795Y0190156D01*
X0032795Y0191155D02*
X0028095Y0191155D01*
X0028095Y0192153D02*
X0032795Y0192153D01*
X0032795Y0193152D02*
X0028095Y0193152D01*
X0028095Y0194150D02*
X0032795Y0194150D01*
X0032795Y0195149D02*
X0028095Y0195149D01*
X0028095Y0196147D02*
X0032795Y0196147D01*
X0032795Y0197146D02*
X0028095Y0197146D01*
X0028095Y0198144D02*
X0032795Y0198144D01*
X0032795Y0199143D02*
X0028095Y0199143D01*
X0028095Y0200141D02*
X0032795Y0200141D01*
X0032795Y0201140D02*
X0028095Y0201140D01*
X0028095Y0202138D02*
X0032795Y0202138D01*
X0032795Y0203137D02*
X0028095Y0203137D01*
X0028095Y0204135D02*
X0032795Y0204135D01*
X0032795Y0205134D02*
X0028095Y0205134D01*
X0028095Y0206132D02*
X0032795Y0206132D01*
X0032795Y0207131D02*
X0028095Y0207131D01*
X0028095Y0208129D02*
X0032795Y0208129D01*
X0032795Y0209128D02*
X0028095Y0209128D01*
X0028095Y0210126D02*
X0032795Y0210126D01*
X0032795Y0211125D02*
X0028095Y0211125D01*
X0028095Y0212123D02*
X0032795Y0212123D01*
X0032795Y0213122D02*
X0028095Y0213122D01*
X0028095Y0214120D02*
X0032795Y0214120D01*
X0032795Y0215119D02*
X0028095Y0215119D01*
X0028095Y0216117D02*
X0032795Y0216117D01*
X0032795Y0217116D02*
X0028095Y0217116D01*
X0028095Y0218114D02*
X0032795Y0218114D01*
X0032795Y0219113D02*
X0028095Y0219113D01*
X0028095Y0220111D02*
X0032795Y0220111D01*
X0032795Y0221110D02*
X0028095Y0221110D01*
X0028095Y0222108D02*
X0032106Y0222108D01*
X0032106Y0223107D02*
X0028095Y0223107D01*
X0028095Y0224105D02*
X0032106Y0224105D01*
X0032106Y0225104D02*
X0028095Y0225104D01*
X0028095Y0226103D02*
X0032106Y0226103D01*
X0032106Y0227101D02*
X0028095Y0227101D01*
X0028095Y0228100D02*
X0032106Y0228100D01*
X0032148Y0229098D02*
X0028095Y0229098D01*
X0028095Y0230097D02*
X0033146Y0230097D01*
X0033323Y0231095D02*
X0028095Y0231095D01*
X0028095Y0232094D02*
X0033745Y0232094D01*
X0035065Y0233092D02*
X0028095Y0233092D01*
X0028095Y0234091D02*
X0037295Y0234091D01*
X0037295Y0235089D02*
X0028095Y0235089D01*
X0028095Y0236088D02*
X0037295Y0236088D01*
X0037295Y0237086D02*
X0028095Y0237086D01*
X0028095Y0238085D02*
X0037295Y0238085D01*
X0037295Y0239083D02*
X0028095Y0239083D01*
X0028095Y0240082D02*
X0037295Y0240082D01*
X0037295Y0241080D02*
X0036490Y0241080D01*
X0031700Y0241080D02*
X0028095Y0241080D01*
X0028095Y0242079D02*
X0030445Y0242079D01*
X0029687Y0243077D02*
X0028095Y0243077D01*
X0028095Y0244076D02*
X0029273Y0244076D01*
X0029095Y0245074D02*
X0028095Y0245074D01*
X0028095Y0246073D02*
X0029095Y0246073D01*
X0028478Y0247071D02*
X0028095Y0247071D01*
X0031082Y0249558D02*
X0029895Y0250746D01*
X0029895Y0252774D01*
X0030281Y0252243D01*
X0030838Y0251686D01*
X0031475Y0251224D01*
X0032176Y0250866D01*
X0032924Y0250623D01*
X0033611Y0250514D01*
X0033611Y0255016D01*
X0034579Y0255016D01*
X0034579Y0250514D01*
X0035266Y0250623D01*
X0036014Y0250866D01*
X0036716Y0251224D01*
X0037295Y0251645D01*
X0037295Y0249371D01*
X0036927Y0249739D01*
X0035090Y0250500D01*
X0033101Y0250500D01*
X0031263Y0249739D01*
X0031082Y0249558D01*
X0030574Y0250067D02*
X0032055Y0250067D01*
X0031785Y0251065D02*
X0029895Y0251065D01*
X0029895Y0252064D02*
X0030460Y0252064D01*
X0033611Y0252064D02*
X0034579Y0252064D01*
X0034579Y0253062D02*
X0033611Y0253062D01*
X0033611Y0254061D02*
X0034579Y0254061D01*
X0034579Y0255984D02*
X0033611Y0255984D01*
X0033611Y0260486D01*
X0032924Y0260377D01*
X0032176Y0260134D01*
X0031475Y0259776D01*
X0030838Y0259314D01*
X0030281Y0258757D01*
X0029895Y0258226D01*
X0029895Y0262629D01*
X0031263Y0261261D01*
X0033101Y0260500D01*
X0035090Y0260500D01*
X0036927Y0261261D01*
X0037295Y0261629D01*
X0037295Y0259355D01*
X0036716Y0259776D01*
X0036014Y0260134D01*
X0035266Y0260377D01*
X0034579Y0260486D01*
X0034579Y0255984D01*
X0034579Y0256058D02*
X0033611Y0256058D01*
X0033611Y0257056D02*
X0034579Y0257056D01*
X0034579Y0258055D02*
X0033611Y0258055D01*
X0033611Y0259053D02*
X0034579Y0259053D01*
X0034579Y0260052D02*
X0033611Y0260052D01*
X0032015Y0260052D02*
X0029895Y0260052D01*
X0029895Y0261050D02*
X0031772Y0261050D01*
X0030475Y0262049D02*
X0029895Y0262049D01*
X0029895Y0259053D02*
X0030577Y0259053D01*
X0036175Y0260052D02*
X0037295Y0260052D01*
X0037295Y0261050D02*
X0036419Y0261050D01*
X0042895Y0267041D02*
X0046483Y0267041D01*
X0045484Y0268040D02*
X0042895Y0268040D01*
X0042895Y0269039D02*
X0044996Y0269039D01*
X0044595Y0270037D02*
X0042895Y0270037D01*
X0042895Y0271036D02*
X0044595Y0271036D01*
X0044612Y0272034D02*
X0042895Y0272034D01*
X0042608Y0273033D02*
X0045025Y0273033D01*
X0045555Y0274031D02*
X0041610Y0274031D01*
X0040611Y0275030D02*
X0045100Y0275030D01*
X0044102Y0276028D02*
X0039613Y0276028D01*
X0038875Y0277027D02*
X0043103Y0277027D01*
X0042195Y0278025D02*
X0038461Y0278025D01*
X0037643Y0279024D02*
X0041526Y0279024D01*
X0040795Y0280022D02*
X0036243Y0280022D01*
X0031947Y0280022D02*
X0029895Y0280022D01*
X0029895Y0279024D02*
X0030548Y0279024D01*
X0029895Y0281021D02*
X0040795Y0281021D01*
X0040795Y0282019D02*
X0029895Y0282019D01*
X0029895Y0283018D02*
X0040795Y0283018D01*
X0040795Y0284016D02*
X0029895Y0284016D01*
X0033611Y0251065D02*
X0034579Y0251065D01*
X0036405Y0251065D02*
X0037295Y0251065D01*
X0037295Y0250067D02*
X0036136Y0250067D01*
X0042895Y0245074D02*
X0046598Y0245074D01*
X0045600Y0244076D02*
X0042895Y0244076D01*
X0042895Y0243077D02*
X0045044Y0243077D01*
X0044630Y0242079D02*
X0042895Y0242079D01*
X0042895Y0241080D02*
X0044595Y0241080D01*
X0044595Y0240082D02*
X0042895Y0240082D01*
X0042895Y0239083D02*
X0044977Y0239083D01*
X0045439Y0238085D02*
X0042895Y0238085D01*
X0042895Y0237086D02*
X0046438Y0237086D01*
X0046613Y0235089D02*
X0042895Y0235089D01*
X0042895Y0234091D02*
X0045615Y0234091D01*
X0045050Y0233092D02*
X0043826Y0233092D01*
X0042895Y0236088D02*
X0048389Y0236088D01*
X0037295Y0233092D02*
X0037125Y0233092D01*
X0078601Y0236000D02*
X0080590Y0236000D01*
X0082427Y0235239D01*
X0083834Y0233832D01*
X0084595Y0231995D01*
X0084595Y0230005D01*
X0083930Y0228400D01*
X0090610Y0228400D01*
X0090524Y0228450D01*
X0090245Y0228729D01*
X0090047Y0229071D01*
X0089945Y0229453D01*
X0089945Y0232050D01*
X0092895Y0232050D01*
X0092895Y0232950D01*
X0089945Y0232950D01*
X0089945Y0235547D01*
X0090047Y0235929D01*
X0090245Y0236271D01*
X0090524Y0236550D01*
X0090825Y0236724D01*
X0083916Y0243633D01*
X0084595Y0241995D01*
X0084595Y0240005D01*
X0083834Y0238168D01*
X0082427Y0236761D01*
X0080590Y0236000D01*
X0078601Y0236000D01*
X0080801Y0236088D02*
X0090139Y0236088D01*
X0089945Y0235089D02*
X0082577Y0235089D01*
X0083576Y0234091D02*
X0089945Y0234091D01*
X0089945Y0233092D02*
X0084141Y0233092D01*
X0084554Y0232094D02*
X0092895Y0232094D01*
X0089945Y0231095D02*
X0084595Y0231095D01*
X0084595Y0230097D02*
X0089945Y0230097D01*
X0090040Y0229098D02*
X0084219Y0229098D01*
X0082752Y0237086D02*
X0090463Y0237086D01*
X0089465Y0238085D02*
X0083751Y0238085D01*
X0084213Y0239083D02*
X0088466Y0239083D01*
X0087468Y0240082D02*
X0084595Y0240082D01*
X0084595Y0241080D02*
X0086469Y0241080D01*
X0085471Y0242079D02*
X0084560Y0242079D01*
X0084472Y0243077D02*
X0084147Y0243077D01*
X0086568Y0246073D02*
X0094253Y0246073D01*
X0094253Y0247071D02*
X0085569Y0247071D01*
X0083736Y0248070D02*
X0094465Y0248070D01*
X0094552Y0248220D02*
X0094355Y0247878D01*
X0094253Y0247497D01*
X0094253Y0244043D01*
X0097040Y0244043D01*
X0097040Y0248799D01*
X0095555Y0248799D01*
X0095174Y0248697D01*
X0094832Y0248499D01*
X0094552Y0248220D01*
X0097040Y0248070D02*
X0097615Y0248070D01*
X0097615Y0247071D02*
X0097040Y0247071D01*
X0097040Y0246073D02*
X0097615Y0246073D01*
X0097615Y0245074D02*
X0097040Y0245074D01*
X0097040Y0244076D02*
X0097615Y0244076D01*
X0094253Y0244076D02*
X0088565Y0244076D01*
X0087566Y0245074D02*
X0094253Y0245074D01*
X0094253Y0243077D02*
X0089563Y0243077D01*
X0090562Y0242079D02*
X0094253Y0242079D01*
X0094253Y0241080D02*
X0091561Y0241080D01*
X0075087Y0173181D02*
X0074095Y0173181D01*
X0074468Y0172183D02*
X0074673Y0172183D01*
X0084262Y0159202D02*
X0085407Y0159202D01*
X0085947Y0158204D02*
X0083849Y0158204D01*
X0090243Y0158204D02*
X0099795Y0158204D01*
X0099795Y0159202D02*
X0090783Y0159202D01*
X0090884Y0160201D02*
X0099795Y0160201D01*
X0099795Y0161199D02*
X0091840Y0161199D01*
X0092395Y0162198D02*
X0099795Y0162198D01*
X0099795Y0163196D02*
X0092395Y0163196D01*
X0093073Y0164195D02*
X0099795Y0164195D01*
X0099795Y0165193D02*
X0093384Y0165193D01*
X0093327Y0166192D02*
X0099795Y0166192D01*
X0099051Y0167190D02*
X0095046Y0167190D01*
X0095700Y0168189D02*
X0098420Y0168189D01*
X0098420Y0169187D02*
X0095715Y0169187D01*
X0095715Y0170186D02*
X0098420Y0170186D01*
X0098420Y0171184D02*
X0098224Y0171184D01*
X0092203Y0171572D02*
X0090384Y0171572D01*
X0090384Y0172055D01*
X0090305Y0172247D01*
X0092203Y0172247D01*
X0092203Y0171572D01*
X0092203Y0172183D02*
X0090331Y0172183D01*
X0088178Y0152213D02*
X0093927Y0152213D01*
X0093893Y0151214D02*
X0093445Y0151214D01*
X0093438Y0146222D02*
X0093893Y0146222D01*
X0093893Y0145223D02*
X0092993Y0145223D01*
X0093445Y0144225D02*
X0093893Y0144225D01*
X0093445Y0143226D02*
X0094669Y0143226D01*
X0093445Y0141229D02*
X0161050Y0141229D01*
X0165140Y0141229D02*
X0170595Y0141229D01*
X0170595Y0142228D02*
X0167429Y0142228D01*
X0168428Y0143226D02*
X0170595Y0143226D01*
X0170595Y0144225D02*
X0169426Y0144225D01*
X0169856Y0145223D02*
X0170595Y0145223D01*
X0170595Y0146222D02*
X0170269Y0146222D01*
X0170595Y0147220D02*
X0170595Y0147220D01*
X0170595Y0148219D02*
X0170595Y0148219D01*
X0170595Y0149217D02*
X0170595Y0149217D01*
X0170595Y0150216D02*
X0170502Y0150216D01*
X0170595Y0151214D02*
X0170089Y0151214D01*
X0169675Y0152213D02*
X0170595Y0152213D01*
X0170595Y0153211D02*
X0168991Y0153211D01*
X0167992Y0154210D02*
X0170595Y0154210D01*
X0170595Y0155208D02*
X0166498Y0155208D01*
X0187095Y0155208D02*
X0241595Y0155208D01*
X0241595Y0154210D02*
X0187095Y0154210D01*
X0187095Y0153211D02*
X0241595Y0153211D01*
X0241595Y0152213D02*
X0187095Y0152213D01*
X0187095Y0151214D02*
X0241595Y0151214D01*
X0241595Y0150216D02*
X0187095Y0150216D01*
X0187095Y0149217D02*
X0241595Y0149217D01*
X0241595Y0148219D02*
X0222809Y0148219D01*
X0222371Y0148400D02*
X0220819Y0148400D01*
X0219386Y0147806D01*
X0218289Y0146709D01*
X0217695Y0145276D01*
X0217695Y0143724D01*
X0218289Y0142291D01*
X0219386Y0141194D01*
X0220195Y0140859D01*
X0220195Y0134143D01*
X0220238Y0134100D01*
X0219680Y0134100D01*
X0217989Y0133400D01*
X0216695Y0132106D01*
X0216395Y0131381D01*
X0216395Y0131902D01*
X0212995Y0135302D01*
X0212995Y0140859D01*
X0213804Y0141194D01*
X0214901Y0142291D01*
X0215495Y0143724D01*
X0215495Y0145276D01*
X0214901Y0146709D01*
X0213804Y0147806D01*
X0212371Y0148400D01*
X0210819Y0148400D01*
X0209386Y0147806D01*
X0208289Y0146709D01*
X0207695Y0145276D01*
X0207695Y0143724D01*
X0208289Y0142291D01*
X0209386Y0141194D01*
X0210195Y0140859D01*
X0210195Y0134143D01*
X0210238Y0134100D01*
X0209680Y0134100D01*
X0207989Y0133400D01*
X0206695Y0132106D01*
X0205995Y0130415D01*
X0205995Y0128585D01*
X0206695Y0126894D01*
X0207989Y0125600D01*
X0209680Y0124900D01*
X0211510Y0124900D01*
X0213201Y0125600D01*
X0213306Y0125706D01*
X0213306Y0123294D01*
X0213201Y0123400D01*
X0211510Y0124100D01*
X0209680Y0124100D01*
X0207989Y0123400D01*
X0206695Y0122106D01*
X0205995Y0120415D01*
X0205995Y0118585D01*
X0206695Y0116894D01*
X0207989Y0115600D01*
X0209680Y0114900D01*
X0211510Y0114900D01*
X0213201Y0115600D01*
X0213595Y0115995D01*
X0213595Y0113005D01*
X0213201Y0113400D01*
X0211510Y0114100D01*
X0209680Y0114100D01*
X0207989Y0113400D01*
X0206695Y0112106D01*
X0205995Y0110415D01*
X0205995Y0108585D01*
X0206695Y0106894D01*
X0207989Y0105600D01*
X0209680Y0104900D01*
X0211510Y0104900D01*
X0213201Y0105600D01*
X0213595Y0105995D01*
X0213595Y0103005D01*
X0213201Y0103400D01*
X0211510Y0104100D01*
X0209680Y0104100D01*
X0207989Y0103400D01*
X0206695Y0102106D01*
X0205995Y0100415D01*
X0205995Y0098585D01*
X0206695Y0096894D01*
X0207989Y0095600D01*
X0209680Y0094900D01*
X0211510Y0094900D01*
X0213201Y0095600D01*
X0213595Y0095995D01*
X0213595Y0094520D01*
X0214415Y0093700D01*
X0216495Y0091621D01*
X0215995Y0090415D01*
X0215995Y0088585D01*
X0216695Y0086894D01*
X0217989Y0085600D01*
X0219680Y0084900D01*
X0221510Y0084900D01*
X0223201Y0085600D01*
X0224495Y0086894D01*
X0225195Y0088585D01*
X0225195Y0090415D01*
X0224495Y0092106D01*
X0223201Y0093400D01*
X0221510Y0094100D01*
X0219680Y0094100D01*
X0218474Y0093601D01*
X0216395Y0095680D01*
X0216395Y0097619D01*
X0216695Y0096894D01*
X0217989Y0095600D01*
X0219680Y0094900D01*
X0221510Y0094900D01*
X0223201Y0095600D01*
X0224495Y0096894D01*
X0225195Y0098585D01*
X0225195Y0100415D01*
X0224696Y0101621D01*
X0226395Y0103320D01*
X0226395Y0131902D01*
X0225575Y0132723D01*
X0222995Y0135302D01*
X0222995Y0140859D01*
X0223804Y0141194D01*
X0224901Y0142291D01*
X0225495Y0143724D01*
X0225495Y0145276D01*
X0224901Y0146709D01*
X0223804Y0147806D01*
X0222371Y0148400D01*
X0220382Y0148219D02*
X0212809Y0148219D01*
X0214390Y0147220D02*
X0218800Y0147220D01*
X0218087Y0146222D02*
X0215103Y0146222D01*
X0215495Y0145223D02*
X0217695Y0145223D01*
X0217695Y0144225D02*
X0215495Y0144225D01*
X0215289Y0143226D02*
X0217901Y0143226D01*
X0218352Y0142228D02*
X0214838Y0142228D01*
X0213840Y0141229D02*
X0219351Y0141229D01*
X0220195Y0140231D02*
X0212995Y0140231D01*
X0212995Y0139232D02*
X0220195Y0139232D01*
X0220195Y0138234D02*
X0212995Y0138234D01*
X0212995Y0137235D02*
X0220195Y0137235D01*
X0220195Y0136237D02*
X0212995Y0136237D01*
X0213060Y0135238D02*
X0220195Y0135238D01*
X0220195Y0134239D02*
X0214058Y0134239D01*
X0215057Y0133241D02*
X0217831Y0133241D01*
X0216832Y0132242D02*
X0216055Y0132242D01*
X0210195Y0134239D02*
X0187095Y0134239D01*
X0187095Y0133241D02*
X0207831Y0133241D01*
X0206832Y0132242D02*
X0187095Y0132242D01*
X0187095Y0131244D02*
X0206339Y0131244D01*
X0205995Y0130245D02*
X0187095Y0130245D01*
X0187095Y0129247D02*
X0205995Y0129247D01*
X0206135Y0128248D02*
X0187095Y0128248D01*
X0187095Y0127250D02*
X0206548Y0127250D01*
X0207338Y0126251D02*
X0187095Y0126251D01*
X0187095Y0125253D02*
X0208828Y0125253D01*
X0207846Y0123256D02*
X0187095Y0123256D01*
X0187095Y0124254D02*
X0213306Y0124254D01*
X0213306Y0125253D02*
X0212362Y0125253D01*
X0206847Y0122257D02*
X0187095Y0122257D01*
X0187095Y0121259D02*
X0206345Y0121259D01*
X0205995Y0120260D02*
X0187095Y0120260D01*
X0187095Y0119262D02*
X0205995Y0119262D01*
X0206128Y0118263D02*
X0187095Y0118263D01*
X0187095Y0117265D02*
X0206542Y0117265D01*
X0207323Y0116266D02*
X0187095Y0116266D01*
X0187095Y0115268D02*
X0208792Y0115268D01*
X0207861Y0113271D02*
X0194330Y0113271D01*
X0194201Y0113400D02*
X0192510Y0114100D01*
X0190680Y0114100D01*
X0188989Y0113400D01*
X0187695Y0112106D01*
X0187095Y0110656D01*
X0187095Y0163000D01*
X0241595Y0163000D01*
X0241595Y0005000D01*
X0221752Y0005000D01*
X0223201Y0005600D01*
X0224495Y0006894D01*
X0225195Y0008585D01*
X0225195Y0010415D01*
X0224696Y0011621D01*
X0226995Y0013920D01*
X0226995Y0073080D01*
X0226175Y0073900D01*
X0224175Y0075900D01*
X0223500Y0075900D01*
X0224495Y0076894D01*
X0225195Y0078585D01*
X0225195Y0080415D01*
X0224495Y0082106D01*
X0223201Y0083400D01*
X0221510Y0084100D01*
X0219680Y0084100D01*
X0217989Y0083400D01*
X0216695Y0082106D01*
X0215995Y0080415D01*
X0215995Y0078585D01*
X0216695Y0076894D01*
X0217690Y0075900D01*
X0216175Y0075900D01*
X0215575Y0076500D01*
X0214100Y0076500D01*
X0214495Y0076894D01*
X0215195Y0078585D01*
X0215195Y0080415D01*
X0214495Y0082106D01*
X0213201Y0083400D01*
X0211510Y0084100D01*
X0209680Y0084100D01*
X0207989Y0083400D01*
X0206695Y0082106D01*
X0205995Y0080415D01*
X0205995Y0079857D01*
X0201995Y0083857D01*
X0201995Y0088521D01*
X0202984Y0089510D01*
X0202984Y0091490D01*
X0201585Y0092889D01*
X0199995Y0092889D01*
X0199995Y0104521D01*
X0200984Y0105510D01*
X0200984Y0107490D01*
X0199585Y0108889D01*
X0197606Y0108889D01*
X0196206Y0107490D01*
X0196206Y0105510D01*
X0197195Y0104521D01*
X0197195Y0092176D01*
X0197006Y0091987D01*
X0197006Y0089013D01*
X0197195Y0088824D01*
X0197195Y0083880D01*
X0197175Y0083900D01*
X0194838Y0086237D01*
X0195495Y0086894D01*
X0196195Y0088585D01*
X0196195Y0090415D01*
X0195495Y0092106D01*
X0194201Y0093400D01*
X0192510Y0094100D01*
X0190680Y0094100D01*
X0188989Y0093400D01*
X0187695Y0092106D01*
X0187095Y0090656D01*
X0187095Y0098344D01*
X0187695Y0096894D01*
X0188989Y0095600D01*
X0190680Y0094900D01*
X0192510Y0094900D01*
X0194201Y0095600D01*
X0195495Y0096894D01*
X0196195Y0098585D01*
X0196195Y0100415D01*
X0195495Y0102106D01*
X0194201Y0103400D01*
X0192510Y0104100D01*
X0190680Y0104100D01*
X0188989Y0103400D01*
X0187695Y0102106D01*
X0187095Y0100656D01*
X0187095Y0108344D01*
X0187695Y0106894D01*
X0188989Y0105600D01*
X0190680Y0104900D01*
X0192510Y0104900D01*
X0194201Y0105600D01*
X0195495Y0106894D01*
X0196195Y0108585D01*
X0196195Y0110415D01*
X0195495Y0112106D01*
X0194201Y0113400D01*
X0195328Y0112272D02*
X0206862Y0112272D01*
X0206351Y0111274D02*
X0195839Y0111274D01*
X0196195Y0110275D02*
X0205995Y0110275D01*
X0205995Y0109277D02*
X0196195Y0109277D01*
X0196068Y0108278D02*
X0196995Y0108278D01*
X0196206Y0107280D02*
X0195654Y0107280D01*
X0196206Y0106281D02*
X0194882Y0106281D01*
X0193434Y0105283D02*
X0196434Y0105283D01*
X0197195Y0104284D02*
X0187095Y0104284D01*
X0187095Y0103286D02*
X0188875Y0103286D01*
X0187877Y0102287D02*
X0187095Y0102287D01*
X0187095Y0101289D02*
X0187357Y0101289D01*
X0187116Y0098293D02*
X0187095Y0098293D01*
X0187095Y0097295D02*
X0187530Y0097295D01*
X0187095Y0096296D02*
X0188294Y0096296D01*
X0187095Y0095298D02*
X0189720Y0095298D01*
X0188890Y0093301D02*
X0187095Y0093301D01*
X0187095Y0094299D02*
X0197195Y0094299D01*
X0197195Y0093301D02*
X0194300Y0093301D01*
X0195298Y0092302D02*
X0197195Y0092302D01*
X0197006Y0091303D02*
X0195827Y0091303D01*
X0196195Y0090305D02*
X0197006Y0090305D01*
X0197006Y0089306D02*
X0196195Y0089306D01*
X0196080Y0088308D02*
X0197195Y0088308D01*
X0197195Y0087309D02*
X0195667Y0087309D01*
X0194911Y0086311D02*
X0197195Y0086311D01*
X0197195Y0085312D02*
X0195763Y0085312D01*
X0196761Y0084314D02*
X0197195Y0084314D01*
X0199995Y0081898D02*
X0208193Y0073700D01*
X0208714Y0073700D01*
X0207989Y0073400D01*
X0206695Y0072106D01*
X0205995Y0070415D01*
X0205995Y0068585D01*
X0206695Y0066894D01*
X0207690Y0065900D01*
X0207574Y0065900D01*
X0206585Y0066889D01*
X0204606Y0066889D01*
X0203206Y0065490D01*
X0203206Y0063510D01*
X0204606Y0062111D01*
X0206585Y0062111D01*
X0207574Y0063100D01*
X0207690Y0063100D01*
X0206695Y0062106D01*
X0205995Y0060415D01*
X0205995Y0058585D01*
X0206695Y0056894D01*
X0207989Y0055600D01*
X0209680Y0054900D01*
X0211510Y0054900D01*
X0213201Y0055600D01*
X0214495Y0056894D01*
X0215195Y0058585D01*
X0215195Y0060415D01*
X0214495Y0062106D01*
X0213500Y0063100D01*
X0215015Y0063100D01*
X0216495Y0061621D01*
X0215995Y0060415D01*
X0215995Y0058585D01*
X0216695Y0056894D01*
X0217989Y0055600D01*
X0219680Y0054900D01*
X0221510Y0054900D01*
X0223201Y0055600D01*
X0224195Y0056595D01*
X0224195Y0052405D01*
X0223201Y0053400D01*
X0221510Y0054100D01*
X0219680Y0054100D01*
X0217989Y0053400D01*
X0216695Y0052106D01*
X0215995Y0050415D01*
X0215995Y0048585D01*
X0216695Y0046894D01*
X0217989Y0045600D01*
X0219680Y0044900D01*
X0221510Y0044900D01*
X0223201Y0045600D01*
X0224195Y0046595D01*
X0224195Y0042971D01*
X0223852Y0043314D01*
X0223216Y0043776D01*
X0222514Y0044134D01*
X0221766Y0044377D01*
X0221079Y0044486D01*
X0221079Y0039984D01*
X0220111Y0039984D01*
X0220111Y0039016D01*
X0215610Y0039016D01*
X0215718Y0038329D01*
X0215961Y0037581D01*
X0216319Y0036879D01*
X0216781Y0036243D01*
X0217338Y0035686D01*
X0217975Y0035224D01*
X0218676Y0034866D01*
X0219424Y0034623D01*
X0220111Y0034514D01*
X0220111Y0039016D01*
X0221079Y0039016D01*
X0221079Y0034514D01*
X0221766Y0034623D01*
X0222514Y0034866D01*
X0223216Y0035224D01*
X0223852Y0035686D01*
X0224195Y0036029D01*
X0224195Y0032405D01*
X0223201Y0033400D01*
X0221510Y0034100D01*
X0219680Y0034100D01*
X0218474Y0033601D01*
X0216395Y0035680D01*
X0215575Y0036500D01*
X0214100Y0036500D01*
X0214495Y0036894D01*
X0215195Y0038585D01*
X0215195Y0040415D01*
X0214495Y0042106D01*
X0213201Y0043400D01*
X0211510Y0044100D01*
X0209680Y0044100D01*
X0207989Y0043400D01*
X0206695Y0042106D01*
X0205995Y0040415D01*
X0205995Y0039857D01*
X0197995Y0047857D01*
X0197995Y0060120D01*
X0198015Y0060100D01*
X0206495Y0051621D01*
X0205995Y0050415D01*
X0205995Y0048585D01*
X0206695Y0046894D01*
X0207989Y0045600D01*
X0209680Y0044900D01*
X0211510Y0044900D01*
X0213201Y0045600D01*
X0214495Y0046894D01*
X0215195Y0048585D01*
X0215195Y0050415D01*
X0214495Y0052106D01*
X0213201Y0053400D01*
X0211510Y0054100D01*
X0209680Y0054100D01*
X0208474Y0053601D01*
X0199995Y0062080D01*
X0199995Y0081898D01*
X0199995Y0081318D02*
X0200574Y0081318D01*
X0199995Y0080320D02*
X0201573Y0080320D01*
X0202571Y0079321D02*
X0199995Y0079321D01*
X0199995Y0078323D02*
X0203570Y0078323D01*
X0204568Y0077324D02*
X0199995Y0077324D01*
X0199995Y0076326D02*
X0205567Y0076326D01*
X0206565Y0075327D02*
X0199995Y0075327D01*
X0199995Y0074329D02*
X0207564Y0074329D01*
X0207920Y0073330D02*
X0199995Y0073330D01*
X0199995Y0072332D02*
X0206922Y0072332D01*
X0206376Y0071333D02*
X0199995Y0071333D01*
X0199995Y0070335D02*
X0205995Y0070335D01*
X0205995Y0069336D02*
X0199995Y0069336D01*
X0199995Y0068338D02*
X0206098Y0068338D01*
X0206511Y0067339D02*
X0199995Y0067339D01*
X0199995Y0066341D02*
X0204057Y0066341D01*
X0203206Y0065342D02*
X0199995Y0065342D01*
X0199995Y0064344D02*
X0203206Y0064344D01*
X0203371Y0063345D02*
X0199995Y0063345D01*
X0199995Y0062347D02*
X0204370Y0062347D01*
X0206382Y0061348D02*
X0200727Y0061348D01*
X0201725Y0060350D02*
X0205995Y0060350D01*
X0205995Y0059351D02*
X0202724Y0059351D01*
X0203722Y0058353D02*
X0206091Y0058353D01*
X0206505Y0057354D02*
X0204721Y0057354D01*
X0205719Y0056356D02*
X0207234Y0056356D01*
X0206718Y0055357D02*
X0208577Y0055357D01*
X0207716Y0054359D02*
X0224195Y0054359D01*
X0224195Y0055357D02*
X0222614Y0055357D01*
X0223956Y0056356D02*
X0224195Y0056356D01*
X0226995Y0056356D02*
X0241595Y0056356D01*
X0241595Y0057354D02*
X0226995Y0057354D01*
X0226995Y0058353D02*
X0241595Y0058353D01*
X0241595Y0059351D02*
X0226995Y0059351D01*
X0226995Y0060350D02*
X0241595Y0060350D01*
X0241595Y0061348D02*
X0226995Y0061348D01*
X0226995Y0062347D02*
X0241595Y0062347D01*
X0241595Y0063345D02*
X0226995Y0063345D01*
X0226995Y0064344D02*
X0241595Y0064344D01*
X0241595Y0065342D02*
X0226995Y0065342D01*
X0226995Y0066341D02*
X0241595Y0066341D01*
X0241595Y0067339D02*
X0226995Y0067339D01*
X0226995Y0068338D02*
X0241595Y0068338D01*
X0241595Y0069336D02*
X0226995Y0069336D01*
X0226995Y0070335D02*
X0241595Y0070335D01*
X0241595Y0071333D02*
X0226995Y0071333D01*
X0226995Y0072332D02*
X0241595Y0072332D01*
X0241595Y0073330D02*
X0226745Y0073330D01*
X0225746Y0074329D02*
X0241595Y0074329D01*
X0241595Y0075327D02*
X0224748Y0075327D01*
X0223926Y0076326D02*
X0241595Y0076326D01*
X0241595Y0077324D02*
X0224673Y0077324D01*
X0225087Y0078323D02*
X0241595Y0078323D01*
X0241595Y0079321D02*
X0225195Y0079321D01*
X0225195Y0080320D02*
X0241595Y0080320D01*
X0241595Y0081318D02*
X0224821Y0081318D01*
X0224284Y0082317D02*
X0241595Y0082317D01*
X0241595Y0083315D02*
X0223285Y0083315D01*
X0222506Y0085312D02*
X0241595Y0085312D01*
X0241595Y0084314D02*
X0201995Y0084314D01*
X0201995Y0085312D02*
X0207852Y0085312D01*
X0207975Y0085224D02*
X0208676Y0084866D01*
X0209424Y0084623D01*
X0210111Y0084514D01*
X0210111Y0089016D01*
X0205610Y0089016D01*
X0205718Y0088329D01*
X0205961Y0087581D01*
X0206319Y0086879D01*
X0206781Y0086243D01*
X0207338Y0085686D01*
X0207975Y0085224D01*
X0206732Y0086311D02*
X0201995Y0086311D01*
X0201995Y0087309D02*
X0206100Y0087309D01*
X0205725Y0088308D02*
X0201995Y0088308D01*
X0202780Y0089306D02*
X0210111Y0089306D01*
X0210111Y0089016D02*
X0210111Y0089984D01*
X0205610Y0089984D01*
X0205718Y0090671D01*
X0205961Y0091419D01*
X0206319Y0092121D01*
X0206781Y0092757D01*
X0207338Y0093314D01*
X0207975Y0093776D01*
X0208676Y0094134D01*
X0209424Y0094377D01*
X0210111Y0094486D01*
X0210111Y0089984D01*
X0211079Y0089984D01*
X0211079Y0094486D01*
X0211766Y0094377D01*
X0212514Y0094134D01*
X0213216Y0093776D01*
X0213852Y0093314D01*
X0214409Y0092757D01*
X0214872Y0092121D01*
X0215229Y0091419D01*
X0215472Y0090671D01*
X0215581Y0089984D01*
X0211079Y0089984D01*
X0211079Y0089016D01*
X0211079Y0084514D01*
X0211766Y0084623D01*
X0212514Y0084866D01*
X0213216Y0085224D01*
X0213852Y0085686D01*
X0214409Y0086243D01*
X0214872Y0086879D01*
X0215229Y0087581D01*
X0215472Y0088329D01*
X0215581Y0089016D01*
X0211079Y0089016D01*
X0210111Y0089016D01*
X0210111Y0088308D02*
X0211079Y0088308D01*
X0211079Y0089306D02*
X0215995Y0089306D01*
X0215995Y0090305D02*
X0215530Y0090305D01*
X0215266Y0091303D02*
X0216363Y0091303D01*
X0215813Y0092302D02*
X0214740Y0092302D01*
X0214815Y0093301D02*
X0213866Y0093301D01*
X0213816Y0094299D02*
X0212006Y0094299D01*
X0211079Y0094299D02*
X0210111Y0094299D01*
X0209185Y0094299D02*
X0199995Y0094299D01*
X0199995Y0093301D02*
X0207325Y0093301D01*
X0206451Y0092302D02*
X0202172Y0092302D01*
X0202984Y0091303D02*
X0205924Y0091303D01*
X0205660Y0090305D02*
X0202984Y0090305D01*
X0199995Y0095298D02*
X0208720Y0095298D01*
X0207294Y0096296D02*
X0199995Y0096296D01*
X0199995Y0097295D02*
X0206530Y0097295D01*
X0206116Y0098293D02*
X0199995Y0098293D01*
X0199995Y0099292D02*
X0205995Y0099292D01*
X0205995Y0100290D02*
X0199995Y0100290D01*
X0199995Y0101289D02*
X0206357Y0101289D01*
X0206877Y0102287D02*
X0199995Y0102287D01*
X0199995Y0103286D02*
X0207875Y0103286D01*
X0208756Y0105283D02*
X0200756Y0105283D01*
X0200984Y0106281D02*
X0207309Y0106281D01*
X0206536Y0107280D02*
X0200984Y0107280D01*
X0200195Y0108278D02*
X0206122Y0108278D01*
X0199995Y0104284D02*
X0213595Y0104284D01*
X0213595Y0103286D02*
X0213315Y0103286D01*
X0213595Y0105283D02*
X0212434Y0105283D01*
X0216395Y0105283D02*
X0217893Y0105283D01*
X0217975Y0105224D02*
X0218676Y0104866D01*
X0219424Y0104623D01*
X0220111Y0104514D01*
X0220111Y0109016D01*
X0221079Y0109016D01*
X0221079Y0104514D01*
X0221766Y0104623D01*
X0222514Y0104866D01*
X0223216Y0105224D01*
X0223595Y0105499D01*
X0223595Y0104480D01*
X0222716Y0103601D01*
X0221510Y0104100D01*
X0219680Y0104100D01*
X0217989Y0103400D01*
X0216695Y0102106D01*
X0216395Y0101381D01*
X0216395Y0106774D01*
X0216781Y0106243D01*
X0217338Y0105686D01*
X0217975Y0105224D01*
X0216753Y0106281D02*
X0216395Y0106281D01*
X0216395Y0104284D02*
X0223399Y0104284D01*
X0223297Y0105283D02*
X0223595Y0105283D01*
X0221079Y0105283D02*
X0220111Y0105283D01*
X0220111Y0106281D02*
X0221079Y0106281D01*
X0221079Y0107280D02*
X0220111Y0107280D01*
X0220111Y0108278D02*
X0221079Y0108278D01*
X0221079Y0109984D02*
X0220111Y0109984D01*
X0220111Y0114486D01*
X0219424Y0114377D01*
X0218676Y0114134D01*
X0217975Y0113776D01*
X0217338Y0113314D01*
X0216781Y0112757D01*
X0216395Y0112226D01*
X0216395Y0117619D01*
X0216695Y0116894D01*
X0217989Y0115600D01*
X0219680Y0114900D01*
X0221510Y0114900D01*
X0223201Y0115600D01*
X0223595Y0115995D01*
X0223595Y0113501D01*
X0223216Y0113776D01*
X0222514Y0114134D01*
X0221766Y0114377D01*
X0221079Y0114486D01*
X0221079Y0109984D01*
X0221079Y0110275D02*
X0220111Y0110275D01*
X0220111Y0111274D02*
X0221079Y0111274D01*
X0221079Y0112272D02*
X0220111Y0112272D01*
X0220111Y0113271D02*
X0221079Y0113271D01*
X0221079Y0114269D02*
X0220111Y0114269D01*
X0219093Y0114269D02*
X0216395Y0114269D01*
X0216395Y0113271D02*
X0217295Y0113271D01*
X0216429Y0112272D02*
X0216395Y0112272D01*
X0213595Y0113271D02*
X0213330Y0113271D01*
X0213595Y0114269D02*
X0187095Y0114269D01*
X0187095Y0113271D02*
X0188861Y0113271D01*
X0187862Y0112272D02*
X0187095Y0112272D01*
X0187095Y0111274D02*
X0187351Y0111274D01*
X0187122Y0108278D02*
X0187095Y0108278D01*
X0187095Y0107280D02*
X0187536Y0107280D01*
X0187095Y0106281D02*
X0188309Y0106281D01*
X0187095Y0105283D02*
X0189756Y0105283D01*
X0194315Y0103286D02*
X0197195Y0103286D01*
X0197195Y0102287D02*
X0195313Y0102287D01*
X0195833Y0101289D02*
X0197195Y0101289D01*
X0197195Y0100290D02*
X0196195Y0100290D01*
X0196195Y0099292D02*
X0197195Y0099292D01*
X0197195Y0098293D02*
X0196074Y0098293D01*
X0195661Y0097295D02*
X0197195Y0097295D01*
X0197195Y0096296D02*
X0194897Y0096296D01*
X0193470Y0095298D02*
X0197195Y0095298D01*
X0187892Y0092302D02*
X0187095Y0092302D01*
X0187095Y0091303D02*
X0187363Y0091303D01*
X0202537Y0083315D02*
X0207905Y0083315D01*
X0206907Y0082317D02*
X0203536Y0082317D01*
X0204534Y0081318D02*
X0206369Y0081318D01*
X0205995Y0080320D02*
X0205533Y0080320D01*
X0210111Y0085312D02*
X0211079Y0085312D01*
X0211079Y0086311D02*
X0210111Y0086311D01*
X0210111Y0087309D02*
X0211079Y0087309D01*
X0211079Y0090305D02*
X0210111Y0090305D01*
X0210111Y0091303D02*
X0211079Y0091303D01*
X0211079Y0092302D02*
X0210111Y0092302D01*
X0210111Y0093301D02*
X0211079Y0093301D01*
X0212470Y0095298D02*
X0213595Y0095298D01*
X0216395Y0096296D02*
X0217294Y0096296D01*
X0216777Y0095298D02*
X0218720Y0095298D01*
X0217776Y0094299D02*
X0241595Y0094299D01*
X0241595Y0093301D02*
X0223300Y0093301D01*
X0224298Y0092302D02*
X0241595Y0092302D01*
X0241595Y0091303D02*
X0224827Y0091303D01*
X0225195Y0090305D02*
X0241595Y0090305D01*
X0241595Y0089306D02*
X0225195Y0089306D01*
X0225080Y0088308D02*
X0241595Y0088308D01*
X0241595Y0087309D02*
X0224667Y0087309D01*
X0223911Y0086311D02*
X0241595Y0086311D01*
X0241595Y0095298D02*
X0222470Y0095298D01*
X0223897Y0096296D02*
X0241595Y0096296D01*
X0241595Y0097295D02*
X0224661Y0097295D01*
X0225074Y0098293D02*
X0241595Y0098293D01*
X0241595Y0099292D02*
X0225195Y0099292D01*
X0225195Y0100290D02*
X0241595Y0100290D01*
X0241595Y0101289D02*
X0224833Y0101289D01*
X0225362Y0102287D02*
X0241595Y0102287D01*
X0241595Y0103286D02*
X0226361Y0103286D01*
X0226395Y0104284D02*
X0241595Y0104284D01*
X0241595Y0105283D02*
X0226395Y0105283D01*
X0226395Y0106281D02*
X0241595Y0106281D01*
X0241595Y0107280D02*
X0226395Y0107280D01*
X0226395Y0108278D02*
X0241595Y0108278D01*
X0241595Y0109277D02*
X0226395Y0109277D01*
X0226395Y0110275D02*
X0241595Y0110275D01*
X0241595Y0111274D02*
X0226395Y0111274D01*
X0226395Y0112272D02*
X0241595Y0112272D01*
X0241595Y0113271D02*
X0226395Y0113271D01*
X0226395Y0114269D02*
X0241595Y0114269D01*
X0241595Y0115268D02*
X0226395Y0115268D01*
X0226395Y0116266D02*
X0241595Y0116266D01*
X0241595Y0117265D02*
X0226395Y0117265D01*
X0226395Y0118263D02*
X0241595Y0118263D01*
X0241595Y0119262D02*
X0226395Y0119262D01*
X0226395Y0120260D02*
X0241595Y0120260D01*
X0241595Y0121259D02*
X0226395Y0121259D01*
X0226395Y0122257D02*
X0241595Y0122257D01*
X0241595Y0123256D02*
X0226395Y0123256D01*
X0226395Y0124254D02*
X0241595Y0124254D01*
X0241595Y0125253D02*
X0226395Y0125253D01*
X0226395Y0126251D02*
X0241595Y0126251D01*
X0241595Y0127250D02*
X0226395Y0127250D01*
X0226395Y0128248D02*
X0241595Y0128248D01*
X0241595Y0129247D02*
X0226395Y0129247D01*
X0226395Y0130245D02*
X0241595Y0130245D01*
X0241595Y0131244D02*
X0226395Y0131244D01*
X0226055Y0132242D02*
X0241595Y0132242D01*
X0241595Y0133241D02*
X0225057Y0133241D01*
X0224058Y0134239D02*
X0241595Y0134239D01*
X0241595Y0135238D02*
X0223060Y0135238D01*
X0222995Y0136237D02*
X0241595Y0136237D01*
X0241595Y0137235D02*
X0222995Y0137235D01*
X0222995Y0138234D02*
X0241595Y0138234D01*
X0241595Y0139232D02*
X0222995Y0139232D01*
X0222995Y0140231D02*
X0241595Y0140231D01*
X0241595Y0141229D02*
X0223840Y0141229D01*
X0224838Y0142228D02*
X0241595Y0142228D01*
X0241595Y0143226D02*
X0225289Y0143226D01*
X0225495Y0144225D02*
X0241595Y0144225D01*
X0241595Y0145223D02*
X0225495Y0145223D01*
X0225103Y0146222D02*
X0241595Y0146222D01*
X0241595Y0147220D02*
X0224390Y0147220D01*
X0210382Y0148219D02*
X0202809Y0148219D01*
X0202371Y0148400D02*
X0200819Y0148400D01*
X0199386Y0147806D01*
X0198289Y0146709D01*
X0197695Y0145276D01*
X0197695Y0143724D01*
X0198289Y0142291D01*
X0199386Y0141194D01*
X0200819Y0140600D01*
X0202371Y0140600D01*
X0203804Y0141194D01*
X0204901Y0142291D01*
X0205495Y0143724D01*
X0205495Y0145276D01*
X0204901Y0146709D01*
X0203804Y0147806D01*
X0202371Y0148400D01*
X0200382Y0148219D02*
X0193768Y0148219D01*
X0193849Y0148178D02*
X0193246Y0148485D01*
X0192602Y0148694D01*
X0191951Y0148797D01*
X0191951Y0144856D01*
X0191239Y0144856D01*
X0191239Y0144144D01*
X0187298Y0144144D01*
X0187401Y0143493D01*
X0187610Y0142849D01*
X0187917Y0142246D01*
X0188315Y0141699D01*
X0188794Y0141220D01*
X0189341Y0140822D01*
X0189945Y0140515D01*
X0190588Y0140306D01*
X0191239Y0140203D01*
X0191239Y0144144D01*
X0191951Y0144144D01*
X0191951Y0140203D01*
X0192602Y0140306D01*
X0193246Y0140515D01*
X0193849Y0140822D01*
X0194396Y0141220D01*
X0194875Y0141699D01*
X0195273Y0142246D01*
X0195580Y0142849D01*
X0195789Y0143493D01*
X0195892Y0144144D01*
X0191952Y0144144D01*
X0191952Y0144856D01*
X0195892Y0144856D01*
X0195789Y0145507D01*
X0195580Y0146151D01*
X0195273Y0146754D01*
X0194875Y0147301D01*
X0194396Y0147780D01*
X0193849Y0148178D01*
X0194934Y0147220D02*
X0198800Y0147220D01*
X0198087Y0146222D02*
X0195544Y0146222D01*
X0195834Y0145223D02*
X0197695Y0145223D01*
X0197695Y0144225D02*
X0191952Y0144225D01*
X0191239Y0144225D02*
X0187095Y0144225D01*
X0187298Y0144856D02*
X0191239Y0144856D01*
X0191239Y0148797D01*
X0190588Y0148694D01*
X0189945Y0148485D01*
X0189341Y0148178D01*
X0188794Y0147780D01*
X0188315Y0147301D01*
X0187917Y0146754D01*
X0187610Y0146151D01*
X0187401Y0145507D01*
X0187298Y0144856D01*
X0187356Y0145223D02*
X0187095Y0145223D01*
X0187095Y0146222D02*
X0187646Y0146222D01*
X0187095Y0147220D02*
X0188256Y0147220D01*
X0187095Y0148219D02*
X0189422Y0148219D01*
X0191239Y0148219D02*
X0191951Y0148219D01*
X0191951Y0147220D02*
X0191239Y0147220D01*
X0191239Y0146222D02*
X0191951Y0146222D01*
X0191951Y0145223D02*
X0191239Y0145223D01*
X0191239Y0143226D02*
X0191951Y0143226D01*
X0191951Y0142228D02*
X0191239Y0142228D01*
X0191239Y0141229D02*
X0191951Y0141229D01*
X0191951Y0140231D02*
X0191239Y0140231D01*
X0191064Y0140231D02*
X0187095Y0140231D01*
X0187095Y0141229D02*
X0188785Y0141229D01*
X0187931Y0142228D02*
X0187095Y0142228D01*
X0187095Y0143226D02*
X0187488Y0143226D01*
X0187095Y0139232D02*
X0210195Y0139232D01*
X0210195Y0138234D02*
X0187095Y0138234D01*
X0187095Y0137235D02*
X0210195Y0137235D01*
X0210195Y0136237D02*
X0187095Y0136237D01*
X0187095Y0135238D02*
X0210195Y0135238D01*
X0210195Y0140231D02*
X0192126Y0140231D01*
X0194405Y0141229D02*
X0199351Y0141229D01*
X0198352Y0142228D02*
X0195259Y0142228D01*
X0195702Y0143226D02*
X0197901Y0143226D01*
X0203840Y0141229D02*
X0209351Y0141229D01*
X0208352Y0142228D02*
X0204838Y0142228D01*
X0205289Y0143226D02*
X0207901Y0143226D01*
X0207695Y0144225D02*
X0205495Y0144225D01*
X0205495Y0145223D02*
X0207695Y0145223D01*
X0208087Y0146222D02*
X0205103Y0146222D01*
X0204390Y0147220D02*
X0208800Y0147220D01*
X0187095Y0156207D02*
X0241595Y0156207D01*
X0241595Y0157205D02*
X0187095Y0157205D01*
X0187095Y0158204D02*
X0241595Y0158204D01*
X0241595Y0159202D02*
X0187095Y0159202D01*
X0187095Y0160201D02*
X0241595Y0160201D01*
X0241595Y0161199D02*
X0187095Y0161199D01*
X0187095Y0162198D02*
X0241595Y0162198D01*
X0216542Y0117265D02*
X0216395Y0117265D01*
X0216395Y0116266D02*
X0217323Y0116266D01*
X0216395Y0115268D02*
X0218792Y0115268D01*
X0222097Y0114269D02*
X0223595Y0114269D01*
X0223595Y0115268D02*
X0222398Y0115268D01*
X0217875Y0103286D02*
X0216395Y0103286D01*
X0216395Y0102287D02*
X0216877Y0102287D01*
X0216530Y0097295D02*
X0216395Y0097295D01*
X0216110Y0088308D02*
X0215465Y0088308D01*
X0215091Y0087309D02*
X0216523Y0087309D01*
X0217279Y0086311D02*
X0214458Y0086311D01*
X0213338Y0085312D02*
X0218684Y0085312D01*
X0217905Y0083315D02*
X0213285Y0083315D01*
X0214284Y0082317D02*
X0216907Y0082317D01*
X0216369Y0081318D02*
X0214821Y0081318D01*
X0215195Y0080320D02*
X0215995Y0080320D01*
X0215995Y0079321D02*
X0215195Y0079321D01*
X0215087Y0078323D02*
X0216104Y0078323D01*
X0216517Y0077324D02*
X0214673Y0077324D01*
X0215749Y0076326D02*
X0217264Y0076326D01*
X0217124Y0073100D02*
X0215015Y0073100D01*
X0214415Y0073700D01*
X0212476Y0073700D01*
X0213201Y0073400D01*
X0214495Y0072106D01*
X0215195Y0070415D01*
X0215195Y0068585D01*
X0214495Y0066894D01*
X0213500Y0065900D01*
X0215015Y0065900D01*
X0216175Y0065900D01*
X0218474Y0063601D01*
X0219680Y0064100D01*
X0221510Y0064100D01*
X0223201Y0063400D01*
X0224195Y0062405D01*
X0224195Y0066029D01*
X0223852Y0065686D01*
X0223216Y0065224D01*
X0222514Y0064866D01*
X0221766Y0064623D01*
X0221079Y0064514D01*
X0221079Y0069016D01*
X0220111Y0069016D01*
X0215610Y0069016D01*
X0215718Y0068329D01*
X0215961Y0067581D01*
X0216319Y0066879D01*
X0216781Y0066243D01*
X0217338Y0065686D01*
X0217975Y0065224D01*
X0218676Y0064866D01*
X0219424Y0064623D01*
X0220111Y0064514D01*
X0220111Y0069016D01*
X0220111Y0069984D01*
X0215610Y0069984D01*
X0215718Y0070671D01*
X0215961Y0071419D01*
X0216319Y0072121D01*
X0216781Y0072757D01*
X0217124Y0073100D01*
X0216472Y0072332D02*
X0214269Y0072332D01*
X0214785Y0073330D02*
X0213270Y0073330D01*
X0214815Y0071333D02*
X0215934Y0071333D01*
X0215665Y0070335D02*
X0215195Y0070335D01*
X0215195Y0069336D02*
X0220111Y0069336D01*
X0220111Y0068338D02*
X0221079Y0068338D01*
X0221079Y0067339D02*
X0220111Y0067339D01*
X0220111Y0066341D02*
X0221079Y0066341D01*
X0221079Y0065342D02*
X0220111Y0065342D01*
X0217811Y0065342D02*
X0216733Y0065342D01*
X0216710Y0066341D02*
X0213941Y0066341D01*
X0214679Y0067339D02*
X0216084Y0067339D01*
X0215717Y0068338D02*
X0215093Y0068338D01*
X0217731Y0064344D02*
X0224195Y0064344D01*
X0224195Y0065342D02*
X0223379Y0065342D01*
X0223255Y0063345D02*
X0224195Y0063345D01*
X0226995Y0055357D02*
X0241595Y0055357D01*
X0241595Y0054359D02*
X0226995Y0054359D01*
X0226995Y0053360D02*
X0241595Y0053360D01*
X0241595Y0052362D02*
X0226995Y0052362D01*
X0226995Y0051363D02*
X0241595Y0051363D01*
X0241595Y0050365D02*
X0226995Y0050365D01*
X0226995Y0049366D02*
X0241595Y0049366D01*
X0241595Y0048368D02*
X0226995Y0048368D01*
X0226995Y0047369D02*
X0241595Y0047369D01*
X0241595Y0046370D02*
X0226995Y0046370D01*
X0226995Y0045372D02*
X0241595Y0045372D01*
X0241595Y0044373D02*
X0226995Y0044373D01*
X0226995Y0043375D02*
X0241595Y0043375D01*
X0241595Y0042376D02*
X0226995Y0042376D01*
X0226995Y0041378D02*
X0241595Y0041378D01*
X0241595Y0040379D02*
X0226995Y0040379D01*
X0226995Y0039381D02*
X0241595Y0039381D01*
X0241595Y0038382D02*
X0226995Y0038382D01*
X0226995Y0037384D02*
X0241595Y0037384D01*
X0241595Y0036385D02*
X0226995Y0036385D01*
X0226995Y0035387D02*
X0241595Y0035387D01*
X0241595Y0034388D02*
X0226995Y0034388D01*
X0226995Y0033390D02*
X0241595Y0033390D01*
X0241595Y0032391D02*
X0226995Y0032391D01*
X0226995Y0031393D02*
X0241595Y0031393D01*
X0241595Y0030394D02*
X0226995Y0030394D01*
X0226995Y0029396D02*
X0241595Y0029396D01*
X0241595Y0028397D02*
X0226995Y0028397D01*
X0226995Y0027399D02*
X0241595Y0027399D01*
X0241595Y0026400D02*
X0226995Y0026400D01*
X0226995Y0025402D02*
X0241595Y0025402D01*
X0241595Y0024403D02*
X0226995Y0024403D01*
X0226995Y0023405D02*
X0241595Y0023405D01*
X0241595Y0022406D02*
X0226995Y0022406D01*
X0226995Y0021408D02*
X0241595Y0021408D01*
X0241595Y0020409D02*
X0226995Y0020409D01*
X0226995Y0019411D02*
X0241595Y0019411D01*
X0241595Y0018412D02*
X0226995Y0018412D01*
X0226995Y0017414D02*
X0241595Y0017414D01*
X0241595Y0016415D02*
X0226995Y0016415D01*
X0226995Y0015417D02*
X0241595Y0015417D01*
X0241595Y0014418D02*
X0226995Y0014418D01*
X0226495Y0013420D02*
X0241595Y0013420D01*
X0241595Y0012421D02*
X0225496Y0012421D01*
X0224778Y0011423D02*
X0241595Y0011423D01*
X0241595Y0010424D02*
X0225191Y0010424D01*
X0225195Y0009426D02*
X0241595Y0009426D01*
X0241595Y0008427D02*
X0225130Y0008427D01*
X0224716Y0007429D02*
X0241595Y0007429D01*
X0241595Y0006430D02*
X0224031Y0006430D01*
X0222793Y0005432D02*
X0241595Y0005432D01*
X0224195Y0015080D02*
X0222716Y0013601D01*
X0221510Y0014100D01*
X0219680Y0014100D01*
X0217989Y0013400D01*
X0216695Y0012106D01*
X0215995Y0010415D01*
X0215995Y0008585D01*
X0216695Y0006894D01*
X0217989Y0005600D01*
X0219439Y0005000D01*
X0212777Y0005000D01*
X0213216Y0005224D01*
X0213852Y0005686D01*
X0214409Y0006243D01*
X0214872Y0006879D01*
X0215229Y0007581D01*
X0215472Y0008329D01*
X0215581Y0009016D01*
X0211079Y0009016D01*
X0211079Y0009984D01*
X0210111Y0009984D01*
X0210111Y0009016D01*
X0205610Y0009016D01*
X0205718Y0008329D01*
X0205961Y0007581D01*
X0206319Y0006879D01*
X0206781Y0006243D01*
X0207338Y0005686D01*
X0207975Y0005224D01*
X0208413Y0005000D01*
X0187095Y0005000D01*
X0187095Y0028344D01*
X0187695Y0026894D01*
X0188989Y0025600D01*
X0190680Y0024900D01*
X0192510Y0024900D01*
X0194201Y0025600D01*
X0195495Y0026894D01*
X0196195Y0028585D01*
X0196195Y0030415D01*
X0195495Y0032106D01*
X0194201Y0033400D01*
X0192510Y0034100D01*
X0190680Y0034100D01*
X0188989Y0033400D01*
X0187695Y0032106D01*
X0187095Y0030656D01*
X0187095Y0037318D01*
X0187319Y0036879D01*
X0187781Y0036243D01*
X0188338Y0035686D01*
X0188975Y0035224D01*
X0189676Y0034866D01*
X0190424Y0034623D01*
X0191111Y0034514D01*
X0191111Y0039016D01*
X0192079Y0039016D01*
X0192079Y0034514D01*
X0192766Y0034623D01*
X0193514Y0034866D01*
X0194216Y0035224D01*
X0194852Y0035686D01*
X0195409Y0036243D01*
X0195872Y0036879D01*
X0196229Y0037581D01*
X0196472Y0038329D01*
X0196581Y0039016D01*
X0192079Y0039016D01*
X0192079Y0039984D01*
X0191111Y0039984D01*
X0191111Y0044486D01*
X0190424Y0044377D01*
X0189676Y0044134D01*
X0188975Y0043776D01*
X0188338Y0043314D01*
X0187781Y0042757D01*
X0187319Y0042121D01*
X0187095Y0041682D01*
X0187095Y0048344D01*
X0187695Y0046894D01*
X0188989Y0045600D01*
X0190680Y0044900D01*
X0192510Y0044900D01*
X0194201Y0045600D01*
X0195247Y0046646D01*
X0196015Y0045877D01*
X0196015Y0045877D01*
X0207373Y0034520D01*
X0207373Y0034520D01*
X0208193Y0033700D01*
X0208715Y0033700D01*
X0207989Y0033400D01*
X0206695Y0032106D01*
X0205995Y0030415D01*
X0205995Y0028585D01*
X0206695Y0026894D01*
X0207989Y0025600D01*
X0209680Y0024900D01*
X0211510Y0024900D01*
X0213201Y0025600D01*
X0214495Y0026894D01*
X0215195Y0028585D01*
X0215195Y0030415D01*
X0214495Y0032106D01*
X0213201Y0033400D01*
X0212476Y0033700D01*
X0214415Y0033700D01*
X0216495Y0031621D01*
X0215995Y0030415D01*
X0215995Y0028585D01*
X0216695Y0026894D01*
X0217989Y0025600D01*
X0219680Y0024900D01*
X0221510Y0024900D01*
X0223201Y0025600D01*
X0224195Y0026595D01*
X0224195Y0022405D01*
X0223201Y0023400D01*
X0221510Y0024100D01*
X0219680Y0024100D01*
X0217989Y0023400D01*
X0216695Y0022106D01*
X0215995Y0020415D01*
X0215995Y0018585D01*
X0216695Y0016894D01*
X0217989Y0015600D01*
X0219680Y0014900D01*
X0221510Y0014900D01*
X0223201Y0015600D01*
X0224195Y0016595D01*
X0224195Y0015080D01*
X0224195Y0015417D02*
X0222757Y0015417D01*
X0223533Y0014418D02*
X0211505Y0014418D01*
X0211766Y0014377D02*
X0211079Y0014486D01*
X0211079Y0009984D01*
X0215581Y0009984D01*
X0215472Y0010671D01*
X0215229Y0011419D01*
X0214872Y0012121D01*
X0214409Y0012757D01*
X0213852Y0013314D01*
X0213216Y0013776D01*
X0212514Y0014134D01*
X0211766Y0014377D01*
X0211510Y0014900D02*
X0213201Y0015600D01*
X0214495Y0016894D01*
X0215195Y0018585D01*
X0215195Y0020415D01*
X0214495Y0022106D01*
X0213201Y0023400D01*
X0211510Y0024100D01*
X0209680Y0024100D01*
X0207989Y0023400D01*
X0206695Y0022106D01*
X0205995Y0020415D01*
X0205995Y0018585D01*
X0206695Y0016894D01*
X0207989Y0015600D01*
X0209680Y0014900D01*
X0211510Y0014900D01*
X0211079Y0014418D02*
X0210111Y0014418D01*
X0210111Y0014486D02*
X0209424Y0014377D01*
X0208676Y0014134D01*
X0207975Y0013776D01*
X0207338Y0013314D01*
X0206781Y0012757D01*
X0206319Y0012121D01*
X0205961Y0011419D01*
X0205718Y0010671D01*
X0205610Y0009984D01*
X0210111Y0009984D01*
X0210111Y0014486D01*
X0209685Y0014418D02*
X0187095Y0014418D01*
X0187095Y0013420D02*
X0207484Y0013420D01*
X0206537Y0012421D02*
X0187095Y0012421D01*
X0187095Y0011423D02*
X0205963Y0011423D01*
X0205679Y0010424D02*
X0187095Y0010424D01*
X0187095Y0009426D02*
X0210111Y0009426D01*
X0211079Y0009426D02*
X0215995Y0009426D01*
X0215999Y0010424D02*
X0215511Y0010424D01*
X0215227Y0011423D02*
X0216412Y0011423D01*
X0217011Y0012421D02*
X0214653Y0012421D01*
X0213707Y0013420D02*
X0218038Y0013420D01*
X0218433Y0015417D02*
X0212757Y0015417D01*
X0214016Y0016415D02*
X0217175Y0016415D01*
X0216480Y0017414D02*
X0214710Y0017414D01*
X0215124Y0018412D02*
X0216067Y0018412D01*
X0215995Y0019411D02*
X0215195Y0019411D01*
X0215195Y0020409D02*
X0215995Y0020409D01*
X0216406Y0021408D02*
X0214784Y0021408D01*
X0214194Y0022406D02*
X0216996Y0022406D01*
X0218002Y0023405D02*
X0213189Y0023405D01*
X0212721Y0025402D02*
X0218469Y0025402D01*
X0217189Y0026400D02*
X0214001Y0026400D01*
X0214704Y0027399D02*
X0216486Y0027399D01*
X0216073Y0028397D02*
X0215117Y0028397D01*
X0215195Y0029396D02*
X0215995Y0029396D01*
X0215995Y0030394D02*
X0215195Y0030394D01*
X0214790Y0031393D02*
X0216400Y0031393D01*
X0215724Y0032391D02*
X0214209Y0032391D01*
X0214725Y0033390D02*
X0213211Y0033390D01*
X0215690Y0036385D02*
X0216678Y0036385D01*
X0216688Y0035387D02*
X0217750Y0035387D01*
X0217687Y0034388D02*
X0224195Y0034388D01*
X0224195Y0033390D02*
X0223211Y0033390D01*
X0223440Y0035387D02*
X0224195Y0035387D01*
X0221079Y0035387D02*
X0220111Y0035387D01*
X0220111Y0036385D02*
X0221079Y0036385D01*
X0221079Y0037384D02*
X0220111Y0037384D01*
X0220111Y0038382D02*
X0221079Y0038382D01*
X0220111Y0039381D02*
X0215195Y0039381D01*
X0215610Y0039984D02*
X0220111Y0039984D01*
X0220111Y0044486D01*
X0219424Y0044377D01*
X0218676Y0044134D01*
X0217975Y0043776D01*
X0217338Y0043314D01*
X0216781Y0042757D01*
X0216319Y0042121D01*
X0215961Y0041419D01*
X0215718Y0040671D01*
X0215610Y0039984D01*
X0215672Y0040379D02*
X0215195Y0040379D01*
X0214796Y0041378D02*
X0215948Y0041378D01*
X0216505Y0042376D02*
X0214224Y0042376D01*
X0213226Y0043375D02*
X0217422Y0043375D01*
X0219414Y0044373D02*
X0201479Y0044373D01*
X0202477Y0043375D02*
X0207965Y0043375D01*
X0206966Y0042376D02*
X0203476Y0042376D01*
X0204475Y0041378D02*
X0206394Y0041378D01*
X0205995Y0040379D02*
X0205473Y0040379D01*
X0203510Y0038382D02*
X0196480Y0038382D01*
X0196129Y0037384D02*
X0204509Y0037384D01*
X0205507Y0036385D02*
X0195513Y0036385D01*
X0194440Y0035387D02*
X0206506Y0035387D01*
X0207504Y0034388D02*
X0187095Y0034388D01*
X0187095Y0033390D02*
X0188980Y0033390D01*
X0187981Y0032391D02*
X0187095Y0032391D01*
X0187095Y0031393D02*
X0187400Y0031393D01*
X0187486Y0027399D02*
X0187095Y0027399D01*
X0187095Y0026400D02*
X0188189Y0026400D01*
X0187095Y0025402D02*
X0189469Y0025402D01*
X0187095Y0024403D02*
X0224195Y0024403D01*
X0224195Y0023405D02*
X0223189Y0023405D01*
X0224194Y0022406D02*
X0224195Y0022406D01*
X0224195Y0025402D02*
X0222721Y0025402D01*
X0224001Y0026400D02*
X0224195Y0026400D01*
X0224195Y0016415D02*
X0224016Y0016415D01*
X0217160Y0006430D02*
X0214545Y0006430D01*
X0215151Y0007429D02*
X0216474Y0007429D01*
X0216061Y0008427D02*
X0215488Y0008427D01*
X0213502Y0005432D02*
X0218397Y0005432D01*
X0211079Y0010424D02*
X0210111Y0010424D01*
X0210111Y0011423D02*
X0211079Y0011423D01*
X0211079Y0012421D02*
X0210111Y0012421D01*
X0210111Y0013420D02*
X0211079Y0013420D01*
X0208433Y0015417D02*
X0187095Y0015417D01*
X0187095Y0016415D02*
X0207175Y0016415D01*
X0206480Y0017414D02*
X0187095Y0017414D01*
X0187095Y0018412D02*
X0206067Y0018412D01*
X0205995Y0019411D02*
X0187095Y0019411D01*
X0187095Y0020409D02*
X0205995Y0020409D01*
X0206406Y0021408D02*
X0187095Y0021408D01*
X0187095Y0022406D02*
X0206996Y0022406D01*
X0208002Y0023405D02*
X0187095Y0023405D01*
X0193721Y0025402D02*
X0208469Y0025402D01*
X0207189Y0026400D02*
X0195001Y0026400D01*
X0195704Y0027399D02*
X0206486Y0027399D01*
X0206073Y0028397D02*
X0196117Y0028397D01*
X0196195Y0029396D02*
X0205995Y0029396D01*
X0205995Y0030394D02*
X0196195Y0030394D01*
X0195790Y0031393D02*
X0206400Y0031393D01*
X0206981Y0032391D02*
X0195209Y0032391D01*
X0194211Y0033390D02*
X0207980Y0033390D01*
X0202512Y0039381D02*
X0192079Y0039381D01*
X0192079Y0039984D02*
X0196581Y0039984D01*
X0196472Y0040671D01*
X0196229Y0041419D01*
X0195872Y0042121D01*
X0195409Y0042757D01*
X0194852Y0043314D01*
X0194216Y0043776D01*
X0193514Y0044134D01*
X0192766Y0044377D01*
X0192079Y0044486D01*
X0192079Y0039984D01*
X0192079Y0040379D02*
X0191111Y0040379D01*
X0191111Y0041378D02*
X0192079Y0041378D01*
X0192079Y0042376D02*
X0191111Y0042376D01*
X0191111Y0043375D02*
X0192079Y0043375D01*
X0192079Y0044373D02*
X0191111Y0044373D01*
X0190414Y0044373D02*
X0187095Y0044373D01*
X0187095Y0043375D02*
X0188422Y0043375D01*
X0187505Y0042376D02*
X0187095Y0042376D01*
X0187095Y0045372D02*
X0189541Y0045372D01*
X0188219Y0046370D02*
X0187095Y0046370D01*
X0187095Y0047369D02*
X0187499Y0047369D01*
X0192776Y0044373D02*
X0197519Y0044373D01*
X0198518Y0043375D02*
X0194768Y0043375D01*
X0195686Y0042376D02*
X0199516Y0042376D01*
X0200515Y0041378D02*
X0196242Y0041378D01*
X0196518Y0040379D02*
X0201513Y0040379D01*
X0200480Y0045372D02*
X0208541Y0045372D01*
X0207219Y0046370D02*
X0199482Y0046370D01*
X0198483Y0047369D02*
X0206499Y0047369D01*
X0206085Y0048368D02*
X0197995Y0048368D01*
X0197995Y0049366D02*
X0205995Y0049366D01*
X0205995Y0050365D02*
X0197995Y0050365D01*
X0197995Y0051363D02*
X0206388Y0051363D01*
X0205754Y0052362D02*
X0197995Y0052362D01*
X0197995Y0053360D02*
X0204755Y0053360D01*
X0203757Y0054359D02*
X0197995Y0054359D01*
X0197995Y0055357D02*
X0202758Y0055357D01*
X0201760Y0056356D02*
X0197995Y0056356D01*
X0197995Y0057354D02*
X0200761Y0057354D01*
X0199763Y0058353D02*
X0197995Y0058353D01*
X0197995Y0059351D02*
X0198764Y0059351D01*
X0195522Y0046370D02*
X0194971Y0046370D01*
X0193650Y0045372D02*
X0196521Y0045372D01*
X0192079Y0038382D02*
X0191111Y0038382D01*
X0191111Y0037384D02*
X0192079Y0037384D01*
X0192079Y0036385D02*
X0191111Y0036385D01*
X0191111Y0035387D02*
X0192079Y0035387D01*
X0188750Y0035387D02*
X0187095Y0035387D01*
X0187095Y0036385D02*
X0187678Y0036385D01*
X0187095Y0008427D02*
X0205703Y0008427D01*
X0206039Y0007429D02*
X0187095Y0007429D01*
X0187095Y0006430D02*
X0206645Y0006430D01*
X0207688Y0005432D02*
X0187095Y0005432D01*
X0214698Y0037384D02*
X0216062Y0037384D01*
X0215710Y0038382D02*
X0215111Y0038382D01*
X0220111Y0040379D02*
X0221079Y0040379D01*
X0221079Y0041378D02*
X0220111Y0041378D01*
X0220111Y0042376D02*
X0221079Y0042376D01*
X0221079Y0043375D02*
X0220111Y0043375D01*
X0220111Y0044373D02*
X0221079Y0044373D01*
X0221776Y0044373D02*
X0224195Y0044373D01*
X0224195Y0043375D02*
X0223768Y0043375D01*
X0224195Y0045372D02*
X0222650Y0045372D01*
X0223971Y0046370D02*
X0224195Y0046370D01*
X0224195Y0053360D02*
X0223240Y0053360D01*
X0218577Y0055357D02*
X0212614Y0055357D01*
X0213956Y0056356D02*
X0217234Y0056356D01*
X0216505Y0057354D02*
X0214685Y0057354D01*
X0215099Y0058353D02*
X0216091Y0058353D01*
X0215995Y0059351D02*
X0215195Y0059351D01*
X0215195Y0060350D02*
X0215995Y0060350D01*
X0216382Y0061348D02*
X0214809Y0061348D01*
X0214254Y0062347D02*
X0215769Y0062347D01*
X0217950Y0053360D02*
X0213240Y0053360D01*
X0214239Y0052362D02*
X0216951Y0052362D01*
X0216388Y0051363D02*
X0214802Y0051363D01*
X0215195Y0050365D02*
X0215995Y0050365D01*
X0215995Y0049366D02*
X0215195Y0049366D01*
X0215105Y0048368D02*
X0216085Y0048368D01*
X0216499Y0047369D02*
X0214691Y0047369D01*
X0213971Y0046370D02*
X0217219Y0046370D01*
X0218541Y0045372D02*
X0212650Y0045372D01*
X0206936Y0062347D02*
X0206820Y0062347D01*
X0207133Y0066341D02*
X0207249Y0066341D01*
X0212398Y0115268D02*
X0213595Y0115268D01*
X0154145Y0216117D02*
X0154045Y0216117D01*
X0154045Y0217116D02*
X0154145Y0217116D01*
X0154145Y0218114D02*
X0154045Y0218114D01*
X0154045Y0219113D02*
X0154145Y0219113D01*
X0154835Y0220111D02*
X0153355Y0220111D01*
X0163565Y0230097D02*
X0170595Y0230097D01*
X0170595Y0231095D02*
X0162605Y0231095D01*
X0161645Y0232094D02*
X0170595Y0232094D01*
X0170595Y0233092D02*
X0160684Y0233092D01*
X0159724Y0234091D02*
X0170595Y0234091D01*
X0170595Y0235089D02*
X0159595Y0235089D01*
X0159595Y0236088D02*
X0170595Y0236088D01*
X0170595Y0237086D02*
X0159595Y0237086D01*
X0159595Y0238085D02*
X0170595Y0238085D01*
X0170595Y0239083D02*
X0159595Y0239083D01*
X0159595Y0240082D02*
X0170595Y0240082D01*
X0170595Y0241080D02*
X0159595Y0241080D01*
X0159595Y0242079D02*
X0170595Y0242079D01*
X0170595Y0243077D02*
X0159595Y0243077D01*
X0159595Y0244076D02*
X0170595Y0244076D01*
X0170595Y0245074D02*
X0159595Y0245074D01*
X0159595Y0246073D02*
X0170595Y0246073D01*
X0170595Y0247071D02*
X0159595Y0247071D01*
X0159595Y0248070D02*
X0170595Y0248070D01*
X0170595Y0249068D02*
X0159595Y0249068D01*
X0159271Y0250067D02*
X0170595Y0250067D01*
X0170595Y0251065D02*
X0158272Y0251065D01*
X0164525Y0229098D02*
X0170595Y0229098D01*
X0170595Y0228100D02*
X0165485Y0228100D01*
X0166445Y0227101D02*
X0170595Y0227101D01*
X0170595Y0226103D02*
X0167405Y0226103D01*
X0168365Y0225104D02*
X0170595Y0225104D01*
X0170595Y0224105D02*
X0169325Y0224105D01*
X0170286Y0223107D02*
X0170595Y0223107D01*
X0093711Y0328949D02*
X0078848Y0328949D01*
X0080298Y0329948D02*
X0094125Y0329948D01*
X0094786Y0330946D02*
X0081048Y0330946D01*
X0067826Y0074000D02*
X0109595Y0074000D01*
X0110756Y0019411D02*
X0106434Y0019411D01*
X0107396Y0018412D02*
X0109794Y0018412D01*
X0109381Y0017414D02*
X0107810Y0017414D01*
X0108048Y0016415D02*
X0109142Y0016415D01*
X0109142Y0015417D02*
X0108048Y0015417D01*
X0108048Y0014418D02*
X0109142Y0014418D01*
X0109142Y0013420D02*
X0108048Y0013420D01*
X0108048Y0012421D02*
X0109142Y0012421D01*
X0109142Y0011423D02*
X0108048Y0011423D01*
X0108048Y0010424D02*
X0109142Y0010424D01*
X0109142Y0009426D02*
X0108048Y0009426D01*
X0107744Y0008427D02*
X0109447Y0008427D01*
X0109917Y0007429D02*
X0107274Y0007429D01*
X0106275Y0006430D02*
X0110915Y0006430D01*
D31*
X0098595Y0024000D03*
X0114595Y0030000D03*
X0122595Y0040000D03*
X0109595Y0074000D03*
X0099395Y0076500D03*
X0095095Y0078000D03*
X0088595Y0088000D03*
X0085595Y0086000D03*
X0082295Y0078500D03*
X0077595Y0082150D03*
X0072175Y0078575D03*
X0071095Y0088500D03*
X0066595Y0093000D03*
X0064595Y0097000D03*
X0071095Y0105000D03*
X0073295Y0098000D03*
X0078095Y0098000D03*
X0091595Y0095500D03*
X0108095Y0090500D03*
X0083095Y0067500D03*
X0080945Y0070191D03*
X0077095Y0062000D03*
X0072979Y0059500D03*
X0063595Y0074000D03*
X0060095Y0076500D03*
X0056095Y0074000D03*
X0051595Y0074000D03*
X0046595Y0074000D03*
X0040095Y0075500D03*
X0038745Y0069000D03*
X0043095Y0060000D03*
X0033095Y0081000D03*
X0032095Y0089025D03*
X0036595Y0090000D03*
X0036595Y0096500D03*
X0038395Y0101931D03*
X0044095Y0102500D03*
X0044930Y0107335D03*
X0051095Y0107150D03*
X0059595Y0107500D03*
X0054595Y0094000D03*
X0044595Y0084500D03*
X0067195Y0032000D03*
X0070595Y0027000D03*
X0077595Y0031000D03*
X0053595Y0027000D03*
D32*
X0052095Y0052500D03*
X0056595Y0052500D03*
X0061095Y0052500D03*
X0065595Y0052500D03*
X0080595Y0063500D03*
X0088095Y0062500D03*
X0096095Y0061000D03*
X0100595Y0061000D03*
X0105095Y0061000D03*
X0109595Y0061000D03*
X0109595Y0052500D03*
X0105095Y0052500D03*
X0100595Y0052500D03*
X0096095Y0052500D03*
X0114095Y0076000D03*
X0095595Y0142000D03*
X0097595Y0154500D03*
X0096095Y0163000D03*
X0092095Y0170500D03*
X0090595Y0165500D03*
X0087595Y0168000D03*
X0087595Y0171500D03*
X0090595Y0178500D03*
X0090595Y0182000D03*
X0091595Y0187500D03*
X0092095Y0191500D03*
X0091095Y0195000D03*
X0090095Y0199000D03*
X0092095Y0206000D03*
X0101595Y0222000D03*
X0103095Y0229500D03*
X0110595Y0211500D03*
X0112595Y0205000D03*
X0118095Y0196000D03*
X0119595Y0192500D03*
X0120595Y0189000D03*
X0125095Y0188500D03*
X0125595Y0181500D03*
X0125095Y0175500D03*
X0127595Y0172000D03*
X0118095Y0185500D03*
X0127095Y0196000D03*
X0126595Y0202000D03*
X0127595Y0206500D03*
X0128095Y0210000D03*
X0136095Y0208500D03*
X0145095Y0218500D03*
X0140595Y0221500D03*
X0154095Y0212500D03*
X0158095Y0212500D03*
X0155595Y0203000D03*
X0156595Y0193000D03*
X0150595Y0183500D03*
X0150595Y0174000D03*
X0144095Y0173500D03*
X0144095Y0169500D03*
X0149595Y0164500D03*
X0166095Y0181000D03*
X0166095Y0189000D03*
X0166095Y0196000D03*
X0161595Y0252000D03*
X0146595Y0254000D03*
X0144095Y0250500D03*
X0132595Y0253000D03*
X0131595Y0272000D03*
X0126095Y0272000D03*
X0121095Y0272000D03*
X0116095Y0272000D03*
X0106095Y0272000D03*
X0101095Y0272000D03*
X0096095Y0272000D03*
X0091095Y0272000D03*
X0085095Y0267000D03*
X0075095Y0266000D03*
X0087595Y0235500D03*
X0121095Y0285000D03*
X0123095Y0296000D03*
X0128595Y0295500D03*
X0130595Y0286000D03*
X0134095Y0284500D03*
X0137095Y0282000D03*
X0139595Y0285000D03*
X0137095Y0271500D03*
X0142595Y0271500D03*
X0148595Y0272000D03*
X0154595Y0272000D03*
X0161095Y0275000D03*
X0145095Y0303000D03*
X0143595Y0306500D03*
X0139595Y0306000D03*
X0158095Y0320500D03*
X0160595Y0323500D03*
X0116595Y0306000D03*
X0109095Y0297500D03*
X0072595Y0326000D03*
X0046095Y0256000D03*
X0036095Y0230500D03*
X0036095Y0223500D03*
X0039595Y0221000D03*
X0043595Y0220500D03*
X0085095Y0162000D03*
X0088095Y0160000D03*
X0096595Y0173500D03*
X0099095Y0178000D03*
X0111595Y0155500D03*
X0061095Y0103500D03*
X0037595Y0078000D03*
X0036095Y0153500D03*
X0198595Y0106500D03*
X0200595Y0090500D03*
X0205595Y0064500D03*
D33*
X0144595Y0061000D02*
X0136595Y0053000D01*
X0124595Y0053000D01*
X0122595Y0055500D01*
X0040757Y0055500D01*
X0033095Y0063162D01*
X0033095Y0081000D01*
X0035095Y0079959D02*
X0035245Y0080109D01*
X0035245Y0088650D01*
X0036595Y0090000D01*
X0038745Y0088109D02*
X0037595Y0086959D01*
X0037595Y0078000D01*
X0035095Y0079959D02*
X0035095Y0064500D01*
X0042095Y0057500D01*
X0129595Y0057000D01*
X0134095Y0079000D01*
X0144095Y0079000D02*
X0144595Y0061000D01*
X0114095Y0076000D02*
X0114095Y0077500D01*
X0072095Y0120000D01*
X0068595Y0108500D02*
X0065095Y0105000D01*
X0062595Y0105000D01*
X0061095Y0103500D01*
X0059595Y0107500D02*
X0057095Y0105000D01*
X0044595Y0105000D01*
X0044095Y0104500D01*
X0044095Y0102500D01*
X0044930Y0107335D02*
X0050910Y0107335D01*
X0051095Y0107150D01*
X0062445Y0097891D02*
X0062445Y0091812D01*
X0065675Y0088581D01*
X0065675Y0088420D01*
X0072595Y0081500D01*
X0072595Y0078994D01*
X0072175Y0078575D01*
X0077595Y0082150D02*
X0082445Y0086000D01*
X0085595Y0086000D01*
X0085145Y0078650D02*
X0082295Y0078500D01*
X0085145Y0078650D02*
X0089486Y0078650D01*
X0092286Y0075850D01*
X0095986Y0075850D01*
X0096636Y0076500D01*
X0099395Y0076500D01*
X0097445Y0071850D02*
X0110486Y0071850D01*
X0111745Y0073109D01*
X0111745Y0074891D01*
X0094309Y0092327D01*
X0091268Y0092327D01*
X0091095Y0092500D01*
X0091095Y0092959D01*
X0089445Y0094609D01*
X0089445Y0096391D01*
X0090595Y0097541D01*
X0090595Y0099000D01*
X0081095Y0108500D01*
X0068595Y0108500D01*
X0070986Y0099650D02*
X0064205Y0099650D01*
X0062445Y0097891D01*
X0064595Y0097000D02*
X0066757Y0097000D01*
X0073495Y0091050D01*
X0073517Y0091027D01*
X0073567Y0091027D01*
X0073576Y0091019D01*
X0073724Y0091027D01*
X0093568Y0091027D01*
X0095095Y0089500D01*
X0095095Y0078000D01*
X0097445Y0071850D02*
X0088095Y0062500D01*
X0083095Y0067500D02*
X0080595Y0067500D01*
X0080595Y0063500D01*
X0077095Y0062000D02*
X0069095Y0069000D01*
X0038745Y0069000D01*
X0040095Y0075500D02*
X0040095Y0076000D01*
X0042595Y0079500D01*
X0057095Y0079500D01*
X0060095Y0076500D01*
X0063595Y0074000D02*
X0065995Y0071600D01*
X0078334Y0071600D01*
X0079743Y0070191D01*
X0080945Y0070191D01*
X0080595Y0067500D02*
X0077795Y0070300D01*
X0061295Y0070300D01*
X0056095Y0074000D01*
X0051595Y0074000D01*
X0046595Y0074000D01*
X0043095Y0060000D02*
X0072479Y0060000D01*
X0072979Y0059500D01*
X0073031Y0097736D02*
X0073295Y0098000D01*
X0073031Y0097736D02*
X0072245Y0098391D01*
X0070986Y0099650D01*
X0038745Y0097391D02*
X0038745Y0088109D01*
X0036595Y0093525D02*
X0036595Y0096500D01*
X0036595Y0093525D02*
X0032095Y0089025D01*
D34*
X0057595Y0032000D02*
X0053595Y0027000D01*
X0057595Y0032000D02*
X0067195Y0032000D01*
X0070595Y0027000D02*
X0100595Y0027000D01*
X0100595Y0026000D01*
X0098595Y0024000D01*
X0100595Y0027000D02*
X0112595Y0027000D01*
X0114595Y0030000D01*
D35*
X0072095Y0120000D02*
X0040595Y0120000D01*
X0038595Y0118000D01*
X0038595Y0107000D01*
X0036095Y0104500D01*
X0036095Y0101500D01*
X0036295Y0101300D01*
X0036295Y0101061D01*
X0038745Y0098611D01*
X0038745Y0097391D01*
X0079595Y0151000D02*
X0086845Y0151000D01*
X0089095Y0148750D01*
X0100936Y0148750D01*
X0101595Y0149409D01*
X0101595Y0171909D01*
X0101595Y0172000D01*
X0094595Y0179000D01*
X0094595Y0215000D01*
X0101595Y0222000D01*
X0102845Y0229500D02*
X0103095Y0229500D01*
X0102845Y0229500D02*
X0099845Y0232500D01*
X0099845Y0235750D01*
X0097095Y0238500D01*
X0091595Y0238500D01*
X0084095Y0246000D01*
X0077095Y0246000D01*
X0075095Y0248000D01*
X0075095Y0266000D01*
X0081915Y0275400D02*
X0047276Y0275400D01*
X0043995Y0278680D01*
X0043995Y0279100D01*
X0042595Y0280500D01*
X0042595Y0301093D01*
X0044905Y0303403D01*
X0044905Y0326690D01*
X0035595Y0336000D01*
X0045595Y0336000D02*
X0046595Y0335000D01*
X0046595Y0301500D01*
X0044095Y0299000D01*
X0044095Y0281000D01*
X0045195Y0279900D01*
X0045195Y0279177D01*
X0047773Y0276600D01*
X0081418Y0276600D01*
X0081818Y0277000D01*
X0083595Y0277000D01*
X0088906Y0271689D01*
X0088906Y0271093D01*
X0090999Y0269000D01*
X0130095Y0269000D01*
X0131595Y0270500D01*
X0131595Y0272000D01*
X0134292Y0271500D02*
X0130592Y0267800D01*
X0090502Y0267800D01*
X0087706Y0270596D01*
X0087706Y0271192D01*
X0083497Y0275401D01*
X0081916Y0275401D01*
X0081915Y0275400D01*
X0085095Y0267000D02*
X0089605Y0267000D01*
X0090005Y0266600D01*
X0140791Y0266600D01*
X0146191Y0272000D01*
X0148595Y0272000D01*
X0154595Y0272000D02*
X0154595Y0281500D01*
X0157595Y0284500D01*
X0157595Y0320000D01*
X0158095Y0320500D01*
X0155095Y0323000D02*
X0158595Y0326500D01*
X0158595Y0331500D01*
X0152095Y0338000D01*
X0152095Y0328000D02*
X0139595Y0315500D01*
X0139595Y0306000D01*
X0138688Y0303811D02*
X0144284Y0303811D01*
X0145095Y0303000D01*
X0143595Y0306500D02*
X0143595Y0315723D01*
X0150273Y0322400D01*
X0150495Y0322400D01*
X0151095Y0323000D01*
X0155095Y0323000D01*
X0160595Y0323500D02*
X0161095Y0323000D01*
X0161095Y0275000D01*
X0155095Y0258500D02*
X0161595Y0252000D01*
X0157795Y0248997D02*
X0154103Y0252689D01*
X0147906Y0252689D01*
X0146595Y0254000D01*
X0144095Y0250500D02*
X0154595Y0250500D01*
X0156595Y0248500D01*
X0156595Y0233000D01*
X0169095Y0220000D01*
X0169095Y0195000D01*
X0167595Y0193000D01*
X0156595Y0193000D01*
X0155645Y0193000D01*
X0150645Y0198000D01*
X0155145Y0203000D02*
X0150645Y0207500D01*
X0153456Y0210311D01*
X0155002Y0210311D01*
X0157191Y0212500D01*
X0158095Y0212500D01*
X0157545Y0217000D02*
X0159095Y0217000D01*
X0162595Y0213500D01*
X0162595Y0208000D01*
X0162095Y0207500D01*
X0162095Y0199000D01*
X0163095Y0199000D01*
X0166095Y0196000D01*
X0162095Y0199000D02*
X0161095Y0198000D01*
X0157545Y0198000D01*
X0155595Y0203000D02*
X0155145Y0203000D01*
X0157545Y0207500D02*
X0162095Y0207500D01*
X0154095Y0212500D02*
X0150645Y0215950D01*
X0150645Y0217000D01*
X0139145Y0228500D01*
X0126095Y0228500D01*
X0118981Y0235614D01*
X0118981Y0243756D01*
X0123312Y0243756D02*
X0132556Y0253000D01*
X0132595Y0253000D01*
X0139595Y0252500D02*
X0145595Y0258500D01*
X0155095Y0258500D01*
X0157795Y0248997D02*
X0157795Y0233500D01*
X0170295Y0220500D01*
X0170295Y0186200D01*
X0168595Y0184000D01*
X0160595Y0184000D01*
X0159595Y0184000D01*
X0151095Y0184000D01*
X0150595Y0183500D01*
X0150595Y0187950D01*
X0150645Y0188000D01*
X0157545Y0188000D02*
X0158545Y0189000D01*
X0166095Y0189000D01*
X0166095Y0181000D02*
X0163595Y0178500D01*
X0157545Y0178500D01*
X0157545Y0169000D01*
X0158095Y0168450D01*
X0157545Y0169000D01*
X0158095Y0168450D02*
X0158095Y0158500D01*
X0151895Y0152300D01*
X0151071Y0152300D01*
X0146862Y0148091D01*
X0101595Y0148091D01*
X0100936Y0148750D01*
X0110650Y0156445D02*
X0111595Y0155500D01*
X0110650Y0156445D02*
X0110650Y0171909D01*
X0110650Y0173605D01*
X0116045Y0179000D01*
X0116045Y0185500D01*
X0118095Y0185500D01*
X0120595Y0189000D02*
X0115095Y0189000D01*
X0113595Y0190500D01*
X0104050Y0190500D01*
X0103861Y0190311D01*
X0099722Y0194450D01*
X0098095Y0194450D01*
X0092284Y0196189D02*
X0091095Y0195000D01*
X0084734Y0188139D01*
X0082956Y0188139D01*
X0081418Y0186600D01*
X0067773Y0186600D01*
X0065195Y0189177D01*
X0065195Y0193703D01*
X0062298Y0196600D01*
X0057773Y0196600D01*
X0055195Y0199177D01*
X0055195Y0203900D01*
X0054595Y0204500D01*
X0054595Y0216000D01*
X0049595Y0221000D01*
X0047734Y0225361D02*
X0047695Y0225400D01*
X0047276Y0225400D01*
X0039095Y0233580D01*
X0039095Y0262500D01*
X0036095Y0265500D01*
X0034095Y0265500D01*
X0041095Y0272000D02*
X0037595Y0275500D01*
X0034095Y0275500D01*
X0041095Y0272000D02*
X0041095Y0233277D01*
X0047773Y0226600D01*
X0125695Y0226600D01*
X0126095Y0227000D01*
X0138191Y0227000D01*
X0142784Y0222407D01*
X0142784Y0220811D01*
X0145095Y0218500D01*
X0140595Y0221500D02*
X0136695Y0225400D01*
X0047773Y0225400D01*
X0047734Y0225361D01*
X0043595Y0220500D02*
X0045095Y0219000D01*
X0045095Y0195000D01*
X0045195Y0194900D01*
X0045195Y0189177D01*
X0047773Y0186600D01*
X0053495Y0186600D01*
X0055195Y0184900D01*
X0055195Y0179177D01*
X0057773Y0176600D01*
X0081418Y0176600D01*
X0091595Y0186777D01*
X0091595Y0187500D01*
X0093395Y0185700D01*
X0093395Y0178503D01*
X0096095Y0174803D01*
X0096595Y0173500D01*
X0099095Y0178000D02*
X0098345Y0178750D01*
X0098345Y0183500D01*
X0092095Y0191500D02*
X0089792Y0191500D01*
X0083692Y0185400D01*
X0067276Y0185400D01*
X0063995Y0188680D01*
X0063995Y0193206D01*
X0061801Y0195400D01*
X0057276Y0195400D01*
X0053995Y0198680D01*
X0053995Y0203403D01*
X0053395Y0204003D01*
X0053395Y0207200D01*
X0049595Y0211000D01*
X0043595Y0217000D02*
X0039595Y0221000D01*
X0037406Y0222189D02*
X0037406Y0186966D01*
X0047773Y0176600D01*
X0054378Y0176600D01*
X0054378Y0169994D01*
X0057773Y0166600D01*
X0081418Y0166600D01*
X0083995Y0169177D01*
X0083995Y0171400D01*
X0090595Y0178500D01*
X0090595Y0182000D02*
X0083995Y0175400D01*
X0057276Y0175400D01*
X0053995Y0178680D01*
X0053995Y0182823D01*
X0051418Y0185400D01*
X0047195Y0185400D01*
X0043595Y0189000D01*
X0043595Y0217000D01*
X0037406Y0222189D02*
X0036095Y0223500D01*
X0034595Y0221904D02*
X0033906Y0222593D01*
X0033906Y0228311D01*
X0036095Y0230500D01*
X0034595Y0221904D02*
X0034595Y0180000D01*
X0045195Y0169400D01*
X0045195Y0169177D01*
X0048973Y0165400D01*
X0081915Y0165400D01*
X0085195Y0168680D01*
X0085195Y0169100D01*
X0087595Y0171500D01*
X0087595Y0168000D02*
X0084595Y0165000D01*
X0085095Y0162000D01*
X0088095Y0160000D02*
X0090595Y0162500D01*
X0090595Y0165500D01*
X0092540Y0166651D02*
X0092540Y0171909D01*
X0092540Y0166651D02*
X0092784Y0166407D01*
X0092784Y0166311D01*
X0096095Y0163000D01*
X0110650Y0171909D02*
X0114595Y0167965D01*
X0114595Y0154500D01*
X0117145Y0151950D01*
X0119595Y0151950D01*
X0127095Y0151950D01*
X0134595Y0151950D01*
X0142095Y0151950D01*
X0142095Y0158050D02*
X0144095Y0160050D01*
X0144095Y0169500D01*
X0141906Y0170407D02*
X0141906Y0165361D01*
X0134595Y0158050D01*
X0127095Y0158050D02*
X0127095Y0171500D01*
X0127595Y0172000D01*
X0125095Y0175500D02*
X0119595Y0170000D01*
X0119595Y0158050D01*
X0122145Y0179000D02*
X0123095Y0179000D01*
X0125595Y0181500D01*
X0122145Y0185500D02*
X0122145Y0185550D01*
X0125095Y0188500D01*
X0119595Y0192500D02*
X0114095Y0192500D01*
X0112145Y0194450D01*
X0104095Y0194450D01*
X0104095Y0200550D02*
X0105545Y0202000D01*
X0116045Y0202000D01*
X0116045Y0208000D01*
X0116045Y0214000D01*
X0116045Y0220200D01*
X0116345Y0220500D01*
X0114322Y0223000D02*
X0112095Y0223000D01*
X0112095Y0213000D01*
X0110595Y0211500D01*
X0116045Y0202000D02*
X0116045Y0196000D01*
X0116545Y0195500D01*
X0118095Y0196000D01*
X0122145Y0196000D02*
X0127095Y0196000D01*
X0126595Y0202000D02*
X0122145Y0202000D01*
X0123645Y0206500D02*
X0127595Y0206500D01*
X0128095Y0210000D02*
X0126145Y0210000D01*
X0122145Y0214000D01*
X0122145Y0208000D02*
X0123645Y0206500D01*
X0129195Y0213150D02*
X0134995Y0213150D01*
X0136095Y0212050D01*
X0136095Y0208500D01*
X0129195Y0213150D02*
X0121845Y0220500D01*
X0123618Y0223250D02*
X0114572Y0223250D01*
X0114322Y0223000D01*
X0123618Y0223250D02*
X0127218Y0219650D01*
X0134995Y0219650D01*
X0152446Y0243756D02*
X0151090Y0245612D01*
X0151090Y0247672D01*
X0149951Y0248311D01*
X0143188Y0248311D01*
X0141906Y0249593D01*
X0141906Y0249689D01*
X0139595Y0252000D01*
X0139595Y0252500D01*
X0137095Y0271500D02*
X0134292Y0271500D01*
X0126095Y0272000D02*
X0126095Y0276500D01*
X0134095Y0284500D01*
X0130595Y0286000D02*
X0121095Y0276500D01*
X0121095Y0272000D01*
X0116095Y0272000D02*
X0116095Y0275500D01*
X0127095Y0286500D01*
X0127095Y0294000D01*
X0128595Y0295500D01*
X0125095Y0306250D02*
X0136249Y0306250D01*
X0138688Y0303811D01*
X0145595Y0298500D02*
X0118418Y0298500D01*
X0116918Y0300000D01*
X0116918Y0301677D01*
X0115095Y0303500D01*
X0108099Y0303500D01*
X0105599Y0306000D01*
X0109095Y0297500D02*
X0110772Y0297500D01*
X0113272Y0300000D01*
X0116595Y0306000D02*
X0117035Y0306440D01*
X0117035Y0313000D01*
X0124845Y0313000D01*
X0125095Y0312750D01*
X0116095Y0319000D02*
X0125095Y0328000D01*
X0115095Y0328000D02*
X0125095Y0338000D01*
X0115095Y0328000D02*
X0112095Y0328000D01*
X0104595Y0320500D01*
X0096095Y0320500D01*
X0091095Y0315500D01*
X0091095Y0308000D01*
X0089595Y0306500D01*
X0089595Y0286500D01*
X0096095Y0280000D01*
X0096095Y0272000D01*
X0091095Y0272000D02*
X0091095Y0282000D01*
X0087095Y0286000D01*
X0087095Y0301000D01*
X0081095Y0307000D01*
X0081095Y0317500D01*
X0072595Y0326000D01*
X0092295Y0314700D02*
X0092295Y0307503D01*
X0091095Y0306303D01*
X0091095Y0287000D01*
X0101095Y0277000D01*
X0101095Y0272000D01*
X0106095Y0272000D02*
X0106095Y0276000D01*
X0115095Y0285000D01*
X0121095Y0285000D01*
X0137095Y0282000D02*
X0142595Y0276500D01*
X0142595Y0271500D01*
X0139595Y0285000D02*
X0139595Y0290858D01*
X0139453Y0291000D01*
X0147595Y0291520D02*
X0148115Y0291000D01*
X0147595Y0291520D02*
X0147595Y0296500D01*
X0145595Y0298500D01*
X0116095Y0319000D02*
X0096595Y0319000D01*
X0092295Y0314700D01*
X0054595Y0256000D02*
X0059595Y0251000D01*
X0054595Y0256000D02*
X0046095Y0256000D01*
X0034095Y0245500D02*
X0032595Y0245500D01*
X0028095Y0250000D01*
X0028095Y0308500D01*
X0032095Y0312500D01*
X0035595Y0312500D01*
X0038095Y0315000D01*
X0101658Y0234313D02*
X0099845Y0232500D01*
X0101658Y0234313D02*
X0101658Y0243756D01*
X0105989Y0243756D01*
X0092095Y0206000D02*
X0092095Y0200096D01*
X0092284Y0199907D01*
X0092284Y0196189D01*
X0090095Y0199000D02*
X0087595Y0196500D01*
X0064095Y0196500D01*
X0059595Y0201000D01*
X0098095Y0200550D02*
X0104095Y0200550D01*
X0104845Y0183500D02*
X0113545Y0181500D01*
X0116045Y0179000D01*
X0141906Y0170407D02*
X0144095Y0172596D01*
X0144095Y0173500D01*
X0150595Y0174000D02*
X0150645Y0176050D01*
X0150645Y0178500D01*
X0150645Y0169000D02*
X0150645Y0165550D01*
X0149595Y0164500D01*
X0198595Y0106500D02*
X0198595Y0091596D01*
X0198406Y0091407D01*
X0198406Y0089593D01*
X0198595Y0089404D01*
X0198595Y0061500D01*
X0210595Y0049500D01*
X0220595Y0059500D02*
X0215595Y0064500D01*
X0205595Y0064500D01*
X0208773Y0075100D02*
X0200595Y0083277D01*
X0200595Y0090500D01*
X0196595Y0082500D02*
X0196595Y0047277D01*
X0208773Y0035100D01*
X0214995Y0035100D01*
X0220595Y0029500D01*
X0225595Y0014500D02*
X0220595Y0009500D01*
X0225595Y0014500D02*
X0225595Y0072500D01*
X0223595Y0074500D01*
X0215595Y0074500D01*
X0214995Y0075100D01*
X0208773Y0075100D01*
X0196595Y0082500D02*
X0191595Y0087500D01*
X0191595Y0089500D01*
X0214995Y0095100D02*
X0214995Y0121323D01*
X0214706Y0121611D01*
X0214706Y0127389D01*
X0214995Y0127677D01*
X0214995Y0131323D01*
X0211595Y0134723D01*
X0211595Y0144500D01*
X0221595Y0144500D02*
X0221595Y0134723D01*
X0224995Y0131323D01*
X0224995Y0103900D01*
X0220595Y0099500D01*
X0214995Y0095100D02*
X0220595Y0089500D01*
M02*
