G75*
%MOIN*%
%OFA0B0*%
%FSLAX25Y25*%
%IPPOS*%
%LPD*%
%AMOC8*
5,1,8,0,0,1.08239X$1,22.5*
%
%ADD10C,0.11800*%
%ADD11C,0.10000*%
%ADD12C,0.05910*%
%ADD13C,0.03937*%
%ADD14C,0.05906*%
%ADD15R,0.07000X0.07000*%
%ADD16C,0.07000*%
%ADD17R,0.02800X0.03700*%
%ADD18R,0.03000X0.03200*%
%ADD19R,0.03200X0.03000*%
%ADD20R,0.05700X0.03800*%
%ADD21R,0.03150X0.07087*%
%ADD22R,0.08661X0.03937*%
%ADD23R,0.04134X0.03937*%
%ADD24R,0.02067X0.02165*%
%ADD25R,0.02760X0.03940*%
%ADD26R,0.05900X0.04400*%
%ADD27R,0.03800X0.03600*%
%ADD28R,0.03800X0.05700*%
%ADD29R,0.03350X0.06934*%
%ADD30R,0.12405X0.06934*%
%ADD31C,0.05600*%
D10*
X0033595Y0014000D03*
D11*
X0033595Y0145000D03*
X0063595Y0295000D03*
X0163095Y0148500D03*
D12*
X0147050Y0112500D02*
X0141140Y0112500D01*
X0141140Y0102500D02*
X0147050Y0102500D01*
X0144095Y0081955D02*
X0144095Y0076045D01*
X0134095Y0076045D02*
X0134095Y0081955D01*
X0134595Y0015955D02*
X0134595Y0010045D01*
X0144595Y0010045D02*
X0144595Y0015955D01*
X0041050Y0305000D02*
X0035140Y0305000D01*
X0035140Y0315000D02*
X0041050Y0315000D01*
X0045595Y0333045D02*
X0045595Y0338955D01*
X0035595Y0338955D02*
X0035595Y0333045D01*
X0067095Y0333045D02*
X0067095Y0338955D01*
X0077095Y0338955D02*
X0077095Y0333045D01*
X0098140Y0338000D02*
X0104050Y0338000D01*
X0104050Y0328000D02*
X0098140Y0328000D01*
X0122140Y0328000D02*
X0128050Y0328000D01*
X0128050Y0338000D02*
X0122140Y0338000D01*
D13*
X0061595Y0116000D03*
X0061595Y0111000D03*
X0056595Y0111000D03*
X0056595Y0116000D03*
X0051595Y0116000D03*
X0051595Y0111000D03*
X0046595Y0111000D03*
X0046595Y0116000D03*
X0041595Y0116000D03*
X0041595Y0111000D03*
D14*
X0052595Y0015953D02*
X0052595Y0010047D01*
X0062595Y0010047D02*
X0062595Y0015953D01*
X0072595Y0015953D02*
X0072595Y0010047D01*
X0093595Y0010047D02*
X0093595Y0015953D01*
X0103595Y0015953D02*
X0103595Y0010047D01*
X0113595Y0010047D02*
X0113595Y0015953D01*
D15*
X0079595Y0151000D03*
X0069595Y0151000D03*
X0059595Y0151000D03*
X0049595Y0151000D03*
D16*
X0049595Y0161000D03*
X0049595Y0171000D03*
X0049595Y0181000D03*
X0049595Y0191000D03*
X0049595Y0201000D03*
X0049595Y0211000D03*
X0049595Y0221000D03*
X0049595Y0231000D03*
X0049595Y0241000D03*
X0049595Y0251000D03*
X0049595Y0261000D03*
X0049595Y0271000D03*
X0049595Y0281000D03*
X0059595Y0281000D03*
X0059595Y0271000D03*
X0059595Y0261000D03*
X0059595Y0251000D03*
X0059595Y0241000D03*
X0059595Y0231000D03*
X0059595Y0221000D03*
X0059595Y0211000D03*
X0059595Y0201000D03*
X0059595Y0191000D03*
X0059595Y0181000D03*
X0059595Y0171000D03*
X0059595Y0161000D03*
X0069595Y0161000D03*
X0069595Y0171000D03*
X0069595Y0181000D03*
X0069595Y0191000D03*
X0069595Y0201000D03*
X0069595Y0211000D03*
X0069595Y0221000D03*
X0069595Y0231000D03*
X0069595Y0241000D03*
X0069595Y0251000D03*
X0069595Y0261000D03*
X0069595Y0271000D03*
X0069595Y0281000D03*
X0079595Y0281000D03*
X0079595Y0271000D03*
X0079595Y0261000D03*
X0079595Y0251000D03*
X0079595Y0241000D03*
X0079595Y0231000D03*
X0079595Y0221000D03*
X0079595Y0211000D03*
X0079595Y0201000D03*
X0079595Y0191000D03*
X0079595Y0181000D03*
X0079595Y0171000D03*
X0079595Y0161000D03*
X0034095Y0245500D03*
X0034095Y0255500D03*
X0034095Y0265500D03*
X0034095Y0275500D03*
X0152095Y0308000D03*
X0152095Y0318000D03*
X0152095Y0328000D03*
X0152095Y0338000D03*
X0210595Y0129500D03*
X0210595Y0119500D03*
X0210595Y0109500D03*
X0210595Y0099500D03*
X0210595Y0089500D03*
X0210595Y0079500D03*
X0210595Y0069500D03*
X0210595Y0059500D03*
X0210595Y0049500D03*
X0210595Y0039500D03*
X0210595Y0029500D03*
X0210595Y0019500D03*
X0210595Y0009500D03*
X0220595Y0009500D03*
X0220595Y0019500D03*
X0220595Y0029500D03*
X0220595Y0039500D03*
X0220595Y0049500D03*
X0220595Y0059500D03*
X0220595Y0069500D03*
X0220595Y0079500D03*
X0220595Y0089500D03*
X0220595Y0099500D03*
X0220595Y0109500D03*
X0220595Y0119500D03*
X0220595Y0129500D03*
X0191595Y0109500D03*
X0191595Y0099500D03*
X0191595Y0089500D03*
X0191595Y0079500D03*
X0191595Y0069500D03*
X0191595Y0059500D03*
X0191595Y0049500D03*
X0191595Y0039500D03*
X0191595Y0029500D03*
D17*
X0121845Y0220500D03*
X0116345Y0220500D03*
D18*
X0116045Y0214000D03*
X0116045Y0208000D03*
X0116045Y0202000D03*
X0116045Y0196000D03*
X0122145Y0196000D03*
X0122145Y0202000D03*
X0122145Y0208000D03*
X0122145Y0214000D03*
X0122145Y0185500D03*
X0116045Y0185500D03*
X0116045Y0179000D03*
X0122145Y0179000D03*
D19*
X0119595Y0158050D03*
X0119595Y0151950D03*
X0127095Y0151950D03*
X0127095Y0158050D03*
X0134595Y0158050D03*
X0134595Y0151950D03*
X0142095Y0151950D03*
X0142095Y0158050D03*
X0104095Y0194450D03*
X0104095Y0200550D03*
X0098095Y0200550D03*
X0098095Y0194450D03*
D20*
X0089095Y0148750D03*
X0089095Y0142250D03*
X0134995Y0213150D03*
X0134995Y0219650D03*
D21*
X0135123Y0243756D03*
X0139453Y0243756D03*
X0143784Y0243756D03*
X0148115Y0243756D03*
X0152446Y0243756D03*
X0123312Y0243756D03*
X0118981Y0243756D03*
X0114650Y0243756D03*
X0110320Y0243756D03*
X0105989Y0243756D03*
X0101658Y0243756D03*
X0097327Y0243756D03*
X0097327Y0291000D03*
X0101658Y0291000D03*
X0105989Y0291000D03*
X0110320Y0291000D03*
X0114650Y0291000D03*
X0118981Y0291000D03*
X0123312Y0291000D03*
X0135123Y0291000D03*
X0139453Y0291000D03*
X0143784Y0291000D03*
X0148115Y0291000D03*
X0152446Y0291000D03*
D22*
X0099595Y0300587D03*
X0099595Y0311413D03*
D23*
X0105599Y0306000D03*
D24*
X0113272Y0300000D03*
X0116918Y0300000D03*
D25*
X0117035Y0313000D03*
X0109155Y0313000D03*
D26*
X0125095Y0312750D03*
X0125095Y0306250D03*
D27*
X0150645Y0217000D03*
X0150645Y0207500D03*
X0157545Y0207500D03*
X0157545Y0217000D03*
X0157545Y0198000D03*
X0150645Y0198000D03*
X0150645Y0188000D03*
X0157545Y0188000D03*
X0157545Y0178500D03*
X0157545Y0169000D03*
X0150645Y0169000D03*
X0150645Y0178500D03*
D28*
X0104845Y0183500D03*
X0098345Y0183500D03*
X0099845Y0232500D03*
X0093345Y0232500D03*
D29*
X0092540Y0171909D03*
X0101595Y0171909D03*
X0110650Y0171909D03*
D30*
X0101595Y0148091D03*
D31*
X0191595Y0144500D03*
X0201595Y0144500D03*
X0211595Y0144500D03*
X0221595Y0144500D03*
X0086095Y0311500D03*
X0076095Y0311500D03*
X0066095Y0311500D03*
X0056095Y0311500D03*
M02*
