%
M48
M72
T01C0.01200
T02C0.01378
T03C0.03543
T04C0.03800
T05C0.03900
T06C0.03937
T07C0.04000
T08C0.06298
T09C0.10000
T10C0.11811
%
T01
X110500Y22550
X125700Y39450
X125700Y42850
X117900Y43650
X117900Y47050
X127100Y54650
X127100Y58050
X130500Y64950
X127100Y66650
X127100Y70250
X111500Y71550
X111700Y74750
X111900Y78050
X111700Y81650
X130700Y91450
X130700Y94850
X149100Y98750
X150700Y103750
X156100Y103350
X161688Y93063
X172300Y72950
X184900Y77550
X197300Y73150
X201200Y67950
X205700Y63350
X202100Y54550
X202500Y50550
X192300Y46750
X194100Y65150
X200900Y81750
X182300Y109150
X179900Y118150
X177500Y121350
X173100Y123750
X181900Y134750
X178500Y143350
X170700Y150150
X167700Y146350
X155900Y149550
X147700Y147950
X148300Y144550
X144100Y147350
X143900Y150550
X144063Y153787
X142500Y156750
X131100Y164550
X130826Y168950
X131500Y172150
X130700Y175550
X124900Y171350
X122800Y167950
X99900Y166950
X99655Y163750
X99900Y159150
X99700Y155950
X99900Y170350
X100100Y173550
X100508Y198868
X101100Y204150
X111900Y196950
X114071Y208275
X116500Y210419
X123300Y219313
X120875Y221413
X117315Y221735
X110326Y223124
X109100Y219924
X103300Y221550
X103300Y224950
X107500Y225224
X110459Y227350
X118100Y235150
X122500Y243950
X131100Y238350
X143700Y236950
X143100Y233650
X144900Y240997
X148500Y240750
X145300Y247950
X142300Y249350
X130700Y258950
X120500Y265750
X115100Y265350
X113500Y268150
X111900Y263550
X116300Y259950
X111300Y278550
X144300Y268950
X157900Y263550
X158300Y256550
X154300Y232750
X159900Y229750
X159100Y224150
X166900Y231550
X181500Y232750
X186900Y230550
X204100Y215150
X202100Y212350
X207300Y213750
X214500Y202950
X213700Y193750
X219100Y222150
X188500Y260550
X158500Y292750
X152500Y292550
X147700Y292550
X142700Y292550
X124337Y216113
X126700Y213950
X126700Y210750
X144115Y195935
X147700Y190750
X152100Y191850
X151100Y196350
X155100Y197150
X172300Y191750
X172100Y184550
X179900Y196050
X157500Y175350
X170900Y162350
X176700Y161750
X196100Y145850
X197100Y142650
X195300Y131150
X191700Y128350
X208500Y127350
X209700Y148150
X153100Y138150
X147700Y135950
X146300Y132750
X143500Y135150
X143900Y138350
X127900Y125750
X124900Y124150
X122800Y127750
X120500Y132550
X117300Y134950
X115500Y132150
X112100Y132150
X129718Y120962
X145100Y56350
X142900Y53350
X142500Y50150
X147300Y53150
X149500Y55950
X156500Y53150
X172500Y54750
X165900Y30550
X162100Y30750
X158300Y30550
X154300Y30350
X148100Y31950
X141100Y19350
X130300Y49350
X172100Y27550
T02
X10000Y29150
X15400Y32150
X21200Y37350
X24011Y34950
X32752Y30102
X39400Y34750
X39000Y41750
X40000Y45350
X36000Y53950
X41904Y58654
X31400Y49750
X28800Y46350
X28400Y78350
X32000Y78750
X25800Y80950
X21000Y90044
X18424Y97374
X23376Y105326
X41800Y107750
X42400Y101856
X51411Y98350
X64400Y79750
X62600Y119750
X64600Y136150
X61800Y151750
X49000Y165750
X44000Y168150
X42600Y137350
X39400Y135150
X42400Y129150
X41200Y121550
X19800Y125950
X20600Y132150
X8000Y131550
X15800Y200350
X13200Y203350
X36200Y240550
X19800Y247950
X19629Y258921
X11200Y259750
X10200Y271750
X38400Y258750
X45400Y262150
X58000Y241750
X50400Y286150
X14000Y319350
X26200Y334950
X22200Y338950
X9847Y349350
X56600Y344856
X60800Y350750
X60100Y335650
X58400Y328550
X125300Y276750
X128984Y271344
X125760Y269150
X130552Y266898
X130100Y263350
X119589Y259550
X123900Y249150
X130100Y250150
X130100Y246550
X125100Y232750
X129100Y231950
X120500Y232350
X135100Y218950
X132306Y216767
X137084Y215550
X144100Y218950
X146351Y223699
X148900Y207550
X129900Y205950
X126689Y195350
X130637Y190613
X129700Y185950
X142300Y179950
X141974Y176572
X152952Y176802
X154500Y172339
X157778Y169917
X154900Y167728
X155700Y164350
X155300Y160750
X170900Y167150
X170700Y170550
X172900Y173750
X179100Y175950
X182700Y176150
X182249Y166099
X193700Y169350
X200500Y159150
X200089Y154550
X203900Y153539
X210100Y155150
X214300Y161350
X220500Y161550
X211700Y169150
X209900Y175150
X209300Y179150
X199100Y185750
X195652Y185398
X193700Y181750
X195700Y192461
X190700Y202150
X182900Y207350
X201100Y207550
X206700Y198550
X221300Y181750
X231700Y210350
X214900Y231350
X195100Y256714
X185500Y245750
X182900Y243350
X183182Y239972
X183100Y236550
X167300Y237150
X157100Y247350
X156900Y250750
X153300Y247950
X153500Y244572
X148300Y251794
X148182Y255172
X147900Y258550
X144100Y260350
X144037Y252961
X143300Y273750
X155700Y280750
X137700Y292350
X99700Y218950
X111300Y168350
X99600Y152650
X148700Y140261
X167900Y128550
X168700Y122350
X165100Y112350
X165100Y106550
X171300Y103950
X180700Y114750
X183100Y126550
X173996Y137054
X189900Y145550
X193900Y153550
X183939Y153201
X200900Y130550
X205500Y129539
X218300Y135150
X218300Y139150
X225500Y126350
X237300Y97750
X239100Y91350
X239300Y87150
X268500Y87150
X278000Y84150
X282500Y84650
X286700Y90050
X286700Y93450
X290300Y93450
X290500Y90050
X294500Y85650
X287500Y76650
X290500Y74650
X292367Y71183
X288700Y68350
X278900Y72150
X269000Y67150
X270751Y59650
X282000Y56650
X281500Y47150
X283500Y36650
X297000Y35150
X307000Y36150
X308000Y46150
X304000Y52461
X307500Y53650
X311122Y53650
X314500Y54650
X316500Y51650
X320000Y51650
X322000Y62650
X326500Y63650
X325795Y67445
X325000Y78150
X321000Y84650
X312900Y78750
X310600Y81550
X313700Y96650
X318100Y96050
X292000Y99650
X287000Y100650
X310500Y63150
X294500Y46150
X307000Y23650
X311111Y23039
X315500Y23250
X325500Y19399
X332100Y20750
X337300Y18450
X322000Y37650
X333700Y54250
X315500Y7250
X310900Y5050
X205524Y81150
X207300Y91550
X204900Y98150
X197100Y99350
X183700Y94200
X180500Y70950
X158300Y93750
X157500Y118750
X151351Y120950
X156452Y182302
X281500Y163150
X285500Y174150
X298500Y155150
X300500Y204150
X311100Y233650
X317700Y237050
X327900Y236850
X336100Y243850
X335300Y267650
X331100Y268450
X343300Y273250
X340700Y287050
X336300Y287050
X337700Y293050
X330900Y296050
X192300Y35150
X192700Y30950
X62600Y17950
T03
X273500Y240850
X283500Y240850
X293500Y240850
X303500Y240850
X303500Y251550
X293500Y251550
X283500Y251550
X273500Y251550
X273500Y261950
X273500Y272250
X283500Y272250
X283500Y261950
X293500Y261950
X303500Y261950
X303500Y272250
X293500Y272250
X293500Y282750
X303500Y282750
X303500Y293250
X293500Y293250
X283500Y293250
X273500Y293250
X273500Y282750
X283500Y282750
X283500Y303850
X273500Y303850
X273500Y314450
X283500Y314450
X293500Y314450
X303500Y314450
X303500Y303850
X293500Y303850
T04
X121200Y18885
T05
X49050Y191250
X32550Y191250
X332000Y80681
X332000Y72650
X332000Y64619
T06
X312500Y30650
X302500Y30650
X292500Y30650
X282500Y30650
X272500Y30650
T07
X210900Y111150
X200900Y111150
X186900Y162550
X186900Y172550
X186900Y182550
X287300Y329450
X297300Y329450
X307300Y329450
X317300Y329450
T08
X121200Y281877
T09
X101600Y292050
X239500Y292050
X272500Y183150
X272500Y145150
X315500Y145150
X316500Y184150
X240700Y8850
T10
X269500Y9650
X331500Y9650
X271500Y109650
X344100Y236450
X341500Y327850
X271100Y328850
M30
