G75*
%MOIN*%
%OFA0B0*%
%FSLAX25Y25*%
%IPPOS*%
%LPD*%
%AMOC8*
5,1,8,0,0,1.08239X$1,22.5*
%
%ADD10C,0.00000*%
D10*
X0001000Y0012436D02*
X0001000Y0176436D01*
X0126000Y0176436D01*
X0126000Y0145436D01*
X0138000Y0145436D01*
X0138000Y0243436D01*
X0251000Y0243436D01*
X0251000Y0157436D01*
X0205000Y0157436D01*
X0205000Y0104436D01*
X0216000Y0104436D01*
X0216000Y0012436D01*
X0138000Y0012436D01*
X0138000Y0035436D01*
X0126000Y0035436D01*
X0126000Y0012436D01*
X0001000Y0012436D01*
X0004100Y0021436D02*
X0004102Y0021589D01*
X0004108Y0021742D01*
X0004118Y0021895D01*
X0004132Y0022048D01*
X0004150Y0022200D01*
X0004171Y0022351D01*
X0004197Y0022502D01*
X0004227Y0022653D01*
X0004260Y0022802D01*
X0004298Y0022951D01*
X0004339Y0023098D01*
X0004384Y0023245D01*
X0004433Y0023390D01*
X0004485Y0023534D01*
X0004542Y0023676D01*
X0004602Y0023817D01*
X0004665Y0023956D01*
X0004733Y0024094D01*
X0004803Y0024230D01*
X0004878Y0024364D01*
X0004955Y0024496D01*
X0005037Y0024626D01*
X0005121Y0024754D01*
X0005209Y0024879D01*
X0005300Y0025002D01*
X0005394Y0025123D01*
X0005491Y0025241D01*
X0005592Y0025357D01*
X0005695Y0025470D01*
X0005801Y0025581D01*
X0005910Y0025688D01*
X0006022Y0025793D01*
X0006136Y0025895D01*
X0006253Y0025994D01*
X0006373Y0026089D01*
X0006495Y0026182D01*
X0006619Y0026271D01*
X0006746Y0026358D01*
X0006875Y0026440D01*
X0007006Y0026520D01*
X0007139Y0026596D01*
X0007274Y0026668D01*
X0007411Y0026737D01*
X0007549Y0026803D01*
X0007689Y0026865D01*
X0007831Y0026923D01*
X0007974Y0026977D01*
X0008119Y0027028D01*
X0008264Y0027075D01*
X0008411Y0027118D01*
X0008559Y0027157D01*
X0008708Y0027193D01*
X0008858Y0027224D01*
X0009009Y0027252D01*
X0009160Y0027276D01*
X0009312Y0027296D01*
X0009465Y0027312D01*
X0009617Y0027324D01*
X0009770Y0027332D01*
X0009923Y0027336D01*
X0010077Y0027336D01*
X0010230Y0027332D01*
X0010383Y0027324D01*
X0010535Y0027312D01*
X0010688Y0027296D01*
X0010840Y0027276D01*
X0010991Y0027252D01*
X0011142Y0027224D01*
X0011292Y0027193D01*
X0011441Y0027157D01*
X0011589Y0027118D01*
X0011736Y0027075D01*
X0011881Y0027028D01*
X0012026Y0026977D01*
X0012169Y0026923D01*
X0012311Y0026865D01*
X0012451Y0026803D01*
X0012589Y0026737D01*
X0012726Y0026668D01*
X0012861Y0026596D01*
X0012994Y0026520D01*
X0013125Y0026440D01*
X0013254Y0026358D01*
X0013381Y0026271D01*
X0013505Y0026182D01*
X0013627Y0026089D01*
X0013747Y0025994D01*
X0013864Y0025895D01*
X0013978Y0025793D01*
X0014090Y0025688D01*
X0014199Y0025581D01*
X0014305Y0025470D01*
X0014408Y0025357D01*
X0014509Y0025241D01*
X0014606Y0025123D01*
X0014700Y0025002D01*
X0014791Y0024879D01*
X0014879Y0024754D01*
X0014963Y0024626D01*
X0015045Y0024496D01*
X0015122Y0024364D01*
X0015197Y0024230D01*
X0015267Y0024094D01*
X0015335Y0023956D01*
X0015398Y0023817D01*
X0015458Y0023676D01*
X0015515Y0023534D01*
X0015567Y0023390D01*
X0015616Y0023245D01*
X0015661Y0023098D01*
X0015702Y0022951D01*
X0015740Y0022802D01*
X0015773Y0022653D01*
X0015803Y0022502D01*
X0015829Y0022351D01*
X0015850Y0022200D01*
X0015868Y0022048D01*
X0015882Y0021895D01*
X0015892Y0021742D01*
X0015898Y0021589D01*
X0015900Y0021436D01*
X0015898Y0021283D01*
X0015892Y0021130D01*
X0015882Y0020977D01*
X0015868Y0020824D01*
X0015850Y0020672D01*
X0015829Y0020521D01*
X0015803Y0020370D01*
X0015773Y0020219D01*
X0015740Y0020070D01*
X0015702Y0019921D01*
X0015661Y0019774D01*
X0015616Y0019627D01*
X0015567Y0019482D01*
X0015515Y0019338D01*
X0015458Y0019196D01*
X0015398Y0019055D01*
X0015335Y0018916D01*
X0015267Y0018778D01*
X0015197Y0018642D01*
X0015122Y0018508D01*
X0015045Y0018376D01*
X0014963Y0018246D01*
X0014879Y0018118D01*
X0014791Y0017993D01*
X0014700Y0017870D01*
X0014606Y0017749D01*
X0014509Y0017631D01*
X0014408Y0017515D01*
X0014305Y0017402D01*
X0014199Y0017291D01*
X0014090Y0017184D01*
X0013978Y0017079D01*
X0013864Y0016977D01*
X0013747Y0016878D01*
X0013627Y0016783D01*
X0013505Y0016690D01*
X0013381Y0016601D01*
X0013254Y0016514D01*
X0013125Y0016432D01*
X0012994Y0016352D01*
X0012861Y0016276D01*
X0012726Y0016204D01*
X0012589Y0016135D01*
X0012451Y0016069D01*
X0012311Y0016007D01*
X0012169Y0015949D01*
X0012026Y0015895D01*
X0011881Y0015844D01*
X0011736Y0015797D01*
X0011589Y0015754D01*
X0011441Y0015715D01*
X0011292Y0015679D01*
X0011142Y0015648D01*
X0010991Y0015620D01*
X0010840Y0015596D01*
X0010688Y0015576D01*
X0010535Y0015560D01*
X0010383Y0015548D01*
X0010230Y0015540D01*
X0010077Y0015536D01*
X0009923Y0015536D01*
X0009770Y0015540D01*
X0009617Y0015548D01*
X0009465Y0015560D01*
X0009312Y0015576D01*
X0009160Y0015596D01*
X0009009Y0015620D01*
X0008858Y0015648D01*
X0008708Y0015679D01*
X0008559Y0015715D01*
X0008411Y0015754D01*
X0008264Y0015797D01*
X0008119Y0015844D01*
X0007974Y0015895D01*
X0007831Y0015949D01*
X0007689Y0016007D01*
X0007549Y0016069D01*
X0007411Y0016135D01*
X0007274Y0016204D01*
X0007139Y0016276D01*
X0007006Y0016352D01*
X0006875Y0016432D01*
X0006746Y0016514D01*
X0006619Y0016601D01*
X0006495Y0016690D01*
X0006373Y0016783D01*
X0006253Y0016878D01*
X0006136Y0016977D01*
X0006022Y0017079D01*
X0005910Y0017184D01*
X0005801Y0017291D01*
X0005695Y0017402D01*
X0005592Y0017515D01*
X0005491Y0017631D01*
X0005394Y0017749D01*
X0005300Y0017870D01*
X0005209Y0017993D01*
X0005121Y0018118D01*
X0005037Y0018246D01*
X0004955Y0018376D01*
X0004878Y0018508D01*
X0004803Y0018642D01*
X0004733Y0018778D01*
X0004665Y0018916D01*
X0004602Y0019055D01*
X0004542Y0019196D01*
X0004485Y0019338D01*
X0004433Y0019482D01*
X0004384Y0019627D01*
X0004339Y0019774D01*
X0004298Y0019921D01*
X0004260Y0020070D01*
X0004227Y0020219D01*
X0004197Y0020370D01*
X0004171Y0020521D01*
X0004150Y0020672D01*
X0004132Y0020824D01*
X0004118Y0020977D01*
X0004108Y0021130D01*
X0004102Y0021283D01*
X0004100Y0021436D01*
X0112100Y0021436D02*
X0112102Y0021589D01*
X0112108Y0021742D01*
X0112118Y0021895D01*
X0112132Y0022048D01*
X0112150Y0022200D01*
X0112171Y0022351D01*
X0112197Y0022502D01*
X0112227Y0022653D01*
X0112260Y0022802D01*
X0112298Y0022951D01*
X0112339Y0023098D01*
X0112384Y0023245D01*
X0112433Y0023390D01*
X0112485Y0023534D01*
X0112542Y0023676D01*
X0112602Y0023817D01*
X0112665Y0023956D01*
X0112733Y0024094D01*
X0112803Y0024230D01*
X0112878Y0024364D01*
X0112955Y0024496D01*
X0113037Y0024626D01*
X0113121Y0024754D01*
X0113209Y0024879D01*
X0113300Y0025002D01*
X0113394Y0025123D01*
X0113491Y0025241D01*
X0113592Y0025357D01*
X0113695Y0025470D01*
X0113801Y0025581D01*
X0113910Y0025688D01*
X0114022Y0025793D01*
X0114136Y0025895D01*
X0114253Y0025994D01*
X0114373Y0026089D01*
X0114495Y0026182D01*
X0114619Y0026271D01*
X0114746Y0026358D01*
X0114875Y0026440D01*
X0115006Y0026520D01*
X0115139Y0026596D01*
X0115274Y0026668D01*
X0115411Y0026737D01*
X0115549Y0026803D01*
X0115689Y0026865D01*
X0115831Y0026923D01*
X0115974Y0026977D01*
X0116119Y0027028D01*
X0116264Y0027075D01*
X0116411Y0027118D01*
X0116559Y0027157D01*
X0116708Y0027193D01*
X0116858Y0027224D01*
X0117009Y0027252D01*
X0117160Y0027276D01*
X0117312Y0027296D01*
X0117465Y0027312D01*
X0117617Y0027324D01*
X0117770Y0027332D01*
X0117923Y0027336D01*
X0118077Y0027336D01*
X0118230Y0027332D01*
X0118383Y0027324D01*
X0118535Y0027312D01*
X0118688Y0027296D01*
X0118840Y0027276D01*
X0118991Y0027252D01*
X0119142Y0027224D01*
X0119292Y0027193D01*
X0119441Y0027157D01*
X0119589Y0027118D01*
X0119736Y0027075D01*
X0119881Y0027028D01*
X0120026Y0026977D01*
X0120169Y0026923D01*
X0120311Y0026865D01*
X0120451Y0026803D01*
X0120589Y0026737D01*
X0120726Y0026668D01*
X0120861Y0026596D01*
X0120994Y0026520D01*
X0121125Y0026440D01*
X0121254Y0026358D01*
X0121381Y0026271D01*
X0121505Y0026182D01*
X0121627Y0026089D01*
X0121747Y0025994D01*
X0121864Y0025895D01*
X0121978Y0025793D01*
X0122090Y0025688D01*
X0122199Y0025581D01*
X0122305Y0025470D01*
X0122408Y0025357D01*
X0122509Y0025241D01*
X0122606Y0025123D01*
X0122700Y0025002D01*
X0122791Y0024879D01*
X0122879Y0024754D01*
X0122963Y0024626D01*
X0123045Y0024496D01*
X0123122Y0024364D01*
X0123197Y0024230D01*
X0123267Y0024094D01*
X0123335Y0023956D01*
X0123398Y0023817D01*
X0123458Y0023676D01*
X0123515Y0023534D01*
X0123567Y0023390D01*
X0123616Y0023245D01*
X0123661Y0023098D01*
X0123702Y0022951D01*
X0123740Y0022802D01*
X0123773Y0022653D01*
X0123803Y0022502D01*
X0123829Y0022351D01*
X0123850Y0022200D01*
X0123868Y0022048D01*
X0123882Y0021895D01*
X0123892Y0021742D01*
X0123898Y0021589D01*
X0123900Y0021436D01*
X0123898Y0021283D01*
X0123892Y0021130D01*
X0123882Y0020977D01*
X0123868Y0020824D01*
X0123850Y0020672D01*
X0123829Y0020521D01*
X0123803Y0020370D01*
X0123773Y0020219D01*
X0123740Y0020070D01*
X0123702Y0019921D01*
X0123661Y0019774D01*
X0123616Y0019627D01*
X0123567Y0019482D01*
X0123515Y0019338D01*
X0123458Y0019196D01*
X0123398Y0019055D01*
X0123335Y0018916D01*
X0123267Y0018778D01*
X0123197Y0018642D01*
X0123122Y0018508D01*
X0123045Y0018376D01*
X0122963Y0018246D01*
X0122879Y0018118D01*
X0122791Y0017993D01*
X0122700Y0017870D01*
X0122606Y0017749D01*
X0122509Y0017631D01*
X0122408Y0017515D01*
X0122305Y0017402D01*
X0122199Y0017291D01*
X0122090Y0017184D01*
X0121978Y0017079D01*
X0121864Y0016977D01*
X0121747Y0016878D01*
X0121627Y0016783D01*
X0121505Y0016690D01*
X0121381Y0016601D01*
X0121254Y0016514D01*
X0121125Y0016432D01*
X0120994Y0016352D01*
X0120861Y0016276D01*
X0120726Y0016204D01*
X0120589Y0016135D01*
X0120451Y0016069D01*
X0120311Y0016007D01*
X0120169Y0015949D01*
X0120026Y0015895D01*
X0119881Y0015844D01*
X0119736Y0015797D01*
X0119589Y0015754D01*
X0119441Y0015715D01*
X0119292Y0015679D01*
X0119142Y0015648D01*
X0118991Y0015620D01*
X0118840Y0015596D01*
X0118688Y0015576D01*
X0118535Y0015560D01*
X0118383Y0015548D01*
X0118230Y0015540D01*
X0118077Y0015536D01*
X0117923Y0015536D01*
X0117770Y0015540D01*
X0117617Y0015548D01*
X0117465Y0015560D01*
X0117312Y0015576D01*
X0117160Y0015596D01*
X0117009Y0015620D01*
X0116858Y0015648D01*
X0116708Y0015679D01*
X0116559Y0015715D01*
X0116411Y0015754D01*
X0116264Y0015797D01*
X0116119Y0015844D01*
X0115974Y0015895D01*
X0115831Y0015949D01*
X0115689Y0016007D01*
X0115549Y0016069D01*
X0115411Y0016135D01*
X0115274Y0016204D01*
X0115139Y0016276D01*
X0115006Y0016352D01*
X0114875Y0016432D01*
X0114746Y0016514D01*
X0114619Y0016601D01*
X0114495Y0016690D01*
X0114373Y0016783D01*
X0114253Y0016878D01*
X0114136Y0016977D01*
X0114022Y0017079D01*
X0113910Y0017184D01*
X0113801Y0017291D01*
X0113695Y0017402D01*
X0113592Y0017515D01*
X0113491Y0017631D01*
X0113394Y0017749D01*
X0113300Y0017870D01*
X0113209Y0017993D01*
X0113121Y0018118D01*
X0113037Y0018246D01*
X0112955Y0018376D01*
X0112878Y0018508D01*
X0112803Y0018642D01*
X0112733Y0018778D01*
X0112665Y0018916D01*
X0112602Y0019055D01*
X0112542Y0019196D01*
X0112485Y0019338D01*
X0112433Y0019482D01*
X0112384Y0019627D01*
X0112339Y0019774D01*
X0112298Y0019921D01*
X0112260Y0020070D01*
X0112227Y0020219D01*
X0112197Y0020370D01*
X0112171Y0020521D01*
X0112150Y0020672D01*
X0112132Y0020824D01*
X0112118Y0020977D01*
X0112108Y0021130D01*
X0112102Y0021283D01*
X0112100Y0021436D01*
X0126000Y0061436D02*
X0126000Y0121436D01*
X0138000Y0121436D01*
X0138000Y0061436D01*
X0126000Y0061436D01*
X0184921Y0111620D02*
X0184923Y0111773D01*
X0184929Y0111927D01*
X0184939Y0112080D01*
X0184953Y0112232D01*
X0184971Y0112385D01*
X0184993Y0112536D01*
X0185018Y0112687D01*
X0185048Y0112838D01*
X0185082Y0112988D01*
X0185119Y0113136D01*
X0185160Y0113284D01*
X0185205Y0113430D01*
X0185254Y0113576D01*
X0185307Y0113720D01*
X0185363Y0113862D01*
X0185423Y0114003D01*
X0185487Y0114143D01*
X0185554Y0114281D01*
X0185625Y0114417D01*
X0185700Y0114551D01*
X0185777Y0114683D01*
X0185859Y0114813D01*
X0185943Y0114941D01*
X0186031Y0115067D01*
X0186122Y0115190D01*
X0186216Y0115311D01*
X0186314Y0115429D01*
X0186414Y0115545D01*
X0186518Y0115658D01*
X0186624Y0115769D01*
X0186733Y0115877D01*
X0186845Y0115982D01*
X0186959Y0116083D01*
X0187077Y0116182D01*
X0187196Y0116278D01*
X0187318Y0116371D01*
X0187443Y0116460D01*
X0187570Y0116547D01*
X0187699Y0116629D01*
X0187830Y0116709D01*
X0187963Y0116785D01*
X0188098Y0116858D01*
X0188235Y0116927D01*
X0188374Y0116992D01*
X0188514Y0117054D01*
X0188656Y0117112D01*
X0188799Y0117167D01*
X0188944Y0117218D01*
X0189090Y0117265D01*
X0189237Y0117308D01*
X0189385Y0117347D01*
X0189534Y0117383D01*
X0189684Y0117414D01*
X0189835Y0117442D01*
X0189986Y0117466D01*
X0190139Y0117486D01*
X0190291Y0117502D01*
X0190444Y0117514D01*
X0190597Y0117522D01*
X0190750Y0117526D01*
X0190904Y0117526D01*
X0191057Y0117522D01*
X0191210Y0117514D01*
X0191363Y0117502D01*
X0191515Y0117486D01*
X0191668Y0117466D01*
X0191819Y0117442D01*
X0191970Y0117414D01*
X0192120Y0117383D01*
X0192269Y0117347D01*
X0192417Y0117308D01*
X0192564Y0117265D01*
X0192710Y0117218D01*
X0192855Y0117167D01*
X0192998Y0117112D01*
X0193140Y0117054D01*
X0193280Y0116992D01*
X0193419Y0116927D01*
X0193556Y0116858D01*
X0193691Y0116785D01*
X0193824Y0116709D01*
X0193955Y0116629D01*
X0194084Y0116547D01*
X0194211Y0116460D01*
X0194336Y0116371D01*
X0194458Y0116278D01*
X0194577Y0116182D01*
X0194695Y0116083D01*
X0194809Y0115982D01*
X0194921Y0115877D01*
X0195030Y0115769D01*
X0195136Y0115658D01*
X0195240Y0115545D01*
X0195340Y0115429D01*
X0195438Y0115311D01*
X0195532Y0115190D01*
X0195623Y0115067D01*
X0195711Y0114941D01*
X0195795Y0114813D01*
X0195877Y0114683D01*
X0195954Y0114551D01*
X0196029Y0114417D01*
X0196100Y0114281D01*
X0196167Y0114143D01*
X0196231Y0114003D01*
X0196291Y0113862D01*
X0196347Y0113720D01*
X0196400Y0113576D01*
X0196449Y0113430D01*
X0196494Y0113284D01*
X0196535Y0113136D01*
X0196572Y0112988D01*
X0196606Y0112838D01*
X0196636Y0112687D01*
X0196661Y0112536D01*
X0196683Y0112385D01*
X0196701Y0112232D01*
X0196715Y0112080D01*
X0196725Y0111927D01*
X0196731Y0111773D01*
X0196733Y0111620D01*
X0196731Y0111467D01*
X0196725Y0111313D01*
X0196715Y0111160D01*
X0196701Y0111008D01*
X0196683Y0110855D01*
X0196661Y0110704D01*
X0196636Y0110553D01*
X0196606Y0110402D01*
X0196572Y0110252D01*
X0196535Y0110104D01*
X0196494Y0109956D01*
X0196449Y0109810D01*
X0196400Y0109664D01*
X0196347Y0109520D01*
X0196291Y0109378D01*
X0196231Y0109237D01*
X0196167Y0109097D01*
X0196100Y0108959D01*
X0196029Y0108823D01*
X0195954Y0108689D01*
X0195877Y0108557D01*
X0195795Y0108427D01*
X0195711Y0108299D01*
X0195623Y0108173D01*
X0195532Y0108050D01*
X0195438Y0107929D01*
X0195340Y0107811D01*
X0195240Y0107695D01*
X0195136Y0107582D01*
X0195030Y0107471D01*
X0194921Y0107363D01*
X0194809Y0107258D01*
X0194695Y0107157D01*
X0194577Y0107058D01*
X0194458Y0106962D01*
X0194336Y0106869D01*
X0194211Y0106780D01*
X0194084Y0106693D01*
X0193955Y0106611D01*
X0193824Y0106531D01*
X0193691Y0106455D01*
X0193556Y0106382D01*
X0193419Y0106313D01*
X0193280Y0106248D01*
X0193140Y0106186D01*
X0192998Y0106128D01*
X0192855Y0106073D01*
X0192710Y0106022D01*
X0192564Y0105975D01*
X0192417Y0105932D01*
X0192269Y0105893D01*
X0192120Y0105857D01*
X0191970Y0105826D01*
X0191819Y0105798D01*
X0191668Y0105774D01*
X0191515Y0105754D01*
X0191363Y0105738D01*
X0191210Y0105726D01*
X0191057Y0105718D01*
X0190904Y0105714D01*
X0190750Y0105714D01*
X0190597Y0105718D01*
X0190444Y0105726D01*
X0190291Y0105738D01*
X0190139Y0105754D01*
X0189986Y0105774D01*
X0189835Y0105798D01*
X0189684Y0105826D01*
X0189534Y0105857D01*
X0189385Y0105893D01*
X0189237Y0105932D01*
X0189090Y0105975D01*
X0188944Y0106022D01*
X0188799Y0106073D01*
X0188656Y0106128D01*
X0188514Y0106186D01*
X0188374Y0106248D01*
X0188235Y0106313D01*
X0188098Y0106382D01*
X0187963Y0106455D01*
X0187830Y0106531D01*
X0187699Y0106611D01*
X0187570Y0106693D01*
X0187443Y0106780D01*
X0187318Y0106869D01*
X0187196Y0106962D01*
X0187077Y0107058D01*
X0186959Y0107157D01*
X0186845Y0107258D01*
X0186733Y0107363D01*
X0186624Y0107471D01*
X0186518Y0107582D01*
X0186414Y0107695D01*
X0186314Y0107811D01*
X0186216Y0107929D01*
X0186122Y0108050D01*
X0186031Y0108173D01*
X0185943Y0108299D01*
X0185859Y0108427D01*
X0185777Y0108557D01*
X0185700Y0108689D01*
X0185625Y0108823D01*
X0185554Y0108959D01*
X0185487Y0109097D01*
X0185423Y0109237D01*
X0185363Y0109378D01*
X0185307Y0109520D01*
X0185254Y0109664D01*
X0185205Y0109810D01*
X0185160Y0109956D01*
X0185119Y0110104D01*
X0185082Y0110252D01*
X0185048Y0110402D01*
X0185018Y0110553D01*
X0184993Y0110704D01*
X0184971Y0110855D01*
X0184953Y0111008D01*
X0184939Y0111160D01*
X0184929Y0111313D01*
X0184923Y0111467D01*
X0184921Y0111620D01*
X0234921Y0168339D02*
X0234923Y0168492D01*
X0234929Y0168646D01*
X0234939Y0168799D01*
X0234953Y0168951D01*
X0234971Y0169104D01*
X0234993Y0169255D01*
X0235018Y0169406D01*
X0235048Y0169557D01*
X0235082Y0169707D01*
X0235119Y0169855D01*
X0235160Y0170003D01*
X0235205Y0170149D01*
X0235254Y0170295D01*
X0235307Y0170439D01*
X0235363Y0170581D01*
X0235423Y0170722D01*
X0235487Y0170862D01*
X0235554Y0171000D01*
X0235625Y0171136D01*
X0235700Y0171270D01*
X0235777Y0171402D01*
X0235859Y0171532D01*
X0235943Y0171660D01*
X0236031Y0171786D01*
X0236122Y0171909D01*
X0236216Y0172030D01*
X0236314Y0172148D01*
X0236414Y0172264D01*
X0236518Y0172377D01*
X0236624Y0172488D01*
X0236733Y0172596D01*
X0236845Y0172701D01*
X0236959Y0172802D01*
X0237077Y0172901D01*
X0237196Y0172997D01*
X0237318Y0173090D01*
X0237443Y0173179D01*
X0237570Y0173266D01*
X0237699Y0173348D01*
X0237830Y0173428D01*
X0237963Y0173504D01*
X0238098Y0173577D01*
X0238235Y0173646D01*
X0238374Y0173711D01*
X0238514Y0173773D01*
X0238656Y0173831D01*
X0238799Y0173886D01*
X0238944Y0173937D01*
X0239090Y0173984D01*
X0239237Y0174027D01*
X0239385Y0174066D01*
X0239534Y0174102D01*
X0239684Y0174133D01*
X0239835Y0174161D01*
X0239986Y0174185D01*
X0240139Y0174205D01*
X0240291Y0174221D01*
X0240444Y0174233D01*
X0240597Y0174241D01*
X0240750Y0174245D01*
X0240904Y0174245D01*
X0241057Y0174241D01*
X0241210Y0174233D01*
X0241363Y0174221D01*
X0241515Y0174205D01*
X0241668Y0174185D01*
X0241819Y0174161D01*
X0241970Y0174133D01*
X0242120Y0174102D01*
X0242269Y0174066D01*
X0242417Y0174027D01*
X0242564Y0173984D01*
X0242710Y0173937D01*
X0242855Y0173886D01*
X0242998Y0173831D01*
X0243140Y0173773D01*
X0243280Y0173711D01*
X0243419Y0173646D01*
X0243556Y0173577D01*
X0243691Y0173504D01*
X0243824Y0173428D01*
X0243955Y0173348D01*
X0244084Y0173266D01*
X0244211Y0173179D01*
X0244336Y0173090D01*
X0244458Y0172997D01*
X0244577Y0172901D01*
X0244695Y0172802D01*
X0244809Y0172701D01*
X0244921Y0172596D01*
X0245030Y0172488D01*
X0245136Y0172377D01*
X0245240Y0172264D01*
X0245340Y0172148D01*
X0245438Y0172030D01*
X0245532Y0171909D01*
X0245623Y0171786D01*
X0245711Y0171660D01*
X0245795Y0171532D01*
X0245877Y0171402D01*
X0245954Y0171270D01*
X0246029Y0171136D01*
X0246100Y0171000D01*
X0246167Y0170862D01*
X0246231Y0170722D01*
X0246291Y0170581D01*
X0246347Y0170439D01*
X0246400Y0170295D01*
X0246449Y0170149D01*
X0246494Y0170003D01*
X0246535Y0169855D01*
X0246572Y0169707D01*
X0246606Y0169557D01*
X0246636Y0169406D01*
X0246661Y0169255D01*
X0246683Y0169104D01*
X0246701Y0168951D01*
X0246715Y0168799D01*
X0246725Y0168646D01*
X0246731Y0168492D01*
X0246733Y0168339D01*
X0246731Y0168186D01*
X0246725Y0168032D01*
X0246715Y0167879D01*
X0246701Y0167727D01*
X0246683Y0167574D01*
X0246661Y0167423D01*
X0246636Y0167272D01*
X0246606Y0167121D01*
X0246572Y0166971D01*
X0246535Y0166823D01*
X0246494Y0166675D01*
X0246449Y0166529D01*
X0246400Y0166383D01*
X0246347Y0166239D01*
X0246291Y0166097D01*
X0246231Y0165956D01*
X0246167Y0165816D01*
X0246100Y0165678D01*
X0246029Y0165542D01*
X0245954Y0165408D01*
X0245877Y0165276D01*
X0245795Y0165146D01*
X0245711Y0165018D01*
X0245623Y0164892D01*
X0245532Y0164769D01*
X0245438Y0164648D01*
X0245340Y0164530D01*
X0245240Y0164414D01*
X0245136Y0164301D01*
X0245030Y0164190D01*
X0244921Y0164082D01*
X0244809Y0163977D01*
X0244695Y0163876D01*
X0244577Y0163777D01*
X0244458Y0163681D01*
X0244336Y0163588D01*
X0244211Y0163499D01*
X0244084Y0163412D01*
X0243955Y0163330D01*
X0243824Y0163250D01*
X0243691Y0163174D01*
X0243556Y0163101D01*
X0243419Y0163032D01*
X0243280Y0162967D01*
X0243140Y0162905D01*
X0242998Y0162847D01*
X0242855Y0162792D01*
X0242710Y0162741D01*
X0242564Y0162694D01*
X0242417Y0162651D01*
X0242269Y0162612D01*
X0242120Y0162576D01*
X0241970Y0162545D01*
X0241819Y0162517D01*
X0241668Y0162493D01*
X0241515Y0162473D01*
X0241363Y0162457D01*
X0241210Y0162445D01*
X0241057Y0162437D01*
X0240904Y0162433D01*
X0240750Y0162433D01*
X0240597Y0162437D01*
X0240444Y0162445D01*
X0240291Y0162457D01*
X0240139Y0162473D01*
X0239986Y0162493D01*
X0239835Y0162517D01*
X0239684Y0162545D01*
X0239534Y0162576D01*
X0239385Y0162612D01*
X0239237Y0162651D01*
X0239090Y0162694D01*
X0238944Y0162741D01*
X0238799Y0162792D01*
X0238656Y0162847D01*
X0238514Y0162905D01*
X0238374Y0162967D01*
X0238235Y0163032D01*
X0238098Y0163101D01*
X0237963Y0163174D01*
X0237830Y0163250D01*
X0237699Y0163330D01*
X0237570Y0163412D01*
X0237443Y0163499D01*
X0237318Y0163588D01*
X0237196Y0163681D01*
X0237077Y0163777D01*
X0236959Y0163876D01*
X0236845Y0163977D01*
X0236733Y0164082D01*
X0236624Y0164190D01*
X0236518Y0164301D01*
X0236414Y0164414D01*
X0236314Y0164530D01*
X0236216Y0164648D01*
X0236122Y0164769D01*
X0236031Y0164892D01*
X0235943Y0165018D01*
X0235859Y0165146D01*
X0235777Y0165276D01*
X0235700Y0165408D01*
X0235625Y0165542D01*
X0235554Y0165678D01*
X0235487Y0165816D01*
X0235423Y0165956D01*
X0235363Y0166097D01*
X0235307Y0166239D01*
X0235254Y0166383D01*
X0235205Y0166529D01*
X0235160Y0166675D01*
X0235119Y0166823D01*
X0235082Y0166971D01*
X0235048Y0167121D01*
X0235018Y0167272D01*
X0234993Y0167423D01*
X0234971Y0167574D01*
X0234953Y0167727D01*
X0234939Y0167879D01*
X0234929Y0168032D01*
X0234923Y0168186D01*
X0234921Y0168339D01*
X0229639Y0218046D02*
X0229641Y0218204D01*
X0229647Y0218362D01*
X0229657Y0218520D01*
X0229671Y0218678D01*
X0229689Y0218835D01*
X0229710Y0218992D01*
X0229736Y0219148D01*
X0229766Y0219304D01*
X0229799Y0219459D01*
X0229837Y0219612D01*
X0229878Y0219765D01*
X0229923Y0219917D01*
X0229972Y0220068D01*
X0230025Y0220217D01*
X0230081Y0220365D01*
X0230141Y0220511D01*
X0230205Y0220656D01*
X0230273Y0220799D01*
X0230344Y0220941D01*
X0230418Y0221081D01*
X0230496Y0221218D01*
X0230578Y0221354D01*
X0230662Y0221488D01*
X0230751Y0221619D01*
X0230842Y0221748D01*
X0230937Y0221875D01*
X0231034Y0222000D01*
X0231135Y0222122D01*
X0231239Y0222241D01*
X0231346Y0222358D01*
X0231456Y0222472D01*
X0231569Y0222583D01*
X0231684Y0222692D01*
X0231802Y0222797D01*
X0231923Y0222899D01*
X0232046Y0222999D01*
X0232172Y0223095D01*
X0232300Y0223188D01*
X0232430Y0223278D01*
X0232563Y0223364D01*
X0232698Y0223448D01*
X0232834Y0223527D01*
X0232973Y0223604D01*
X0233114Y0223676D01*
X0233256Y0223746D01*
X0233400Y0223811D01*
X0233546Y0223873D01*
X0233693Y0223931D01*
X0233842Y0223986D01*
X0233992Y0224037D01*
X0234143Y0224084D01*
X0234295Y0224127D01*
X0234448Y0224166D01*
X0234603Y0224202D01*
X0234758Y0224233D01*
X0234914Y0224261D01*
X0235070Y0224285D01*
X0235227Y0224305D01*
X0235385Y0224321D01*
X0235542Y0224333D01*
X0235701Y0224341D01*
X0235859Y0224345D01*
X0236017Y0224345D01*
X0236175Y0224341D01*
X0236334Y0224333D01*
X0236491Y0224321D01*
X0236649Y0224305D01*
X0236806Y0224285D01*
X0236962Y0224261D01*
X0237118Y0224233D01*
X0237273Y0224202D01*
X0237428Y0224166D01*
X0237581Y0224127D01*
X0237733Y0224084D01*
X0237884Y0224037D01*
X0238034Y0223986D01*
X0238183Y0223931D01*
X0238330Y0223873D01*
X0238476Y0223811D01*
X0238620Y0223746D01*
X0238762Y0223676D01*
X0238903Y0223604D01*
X0239042Y0223527D01*
X0239178Y0223448D01*
X0239313Y0223364D01*
X0239446Y0223278D01*
X0239576Y0223188D01*
X0239704Y0223095D01*
X0239830Y0222999D01*
X0239953Y0222899D01*
X0240074Y0222797D01*
X0240192Y0222692D01*
X0240307Y0222583D01*
X0240420Y0222472D01*
X0240530Y0222358D01*
X0240637Y0222241D01*
X0240741Y0222122D01*
X0240842Y0222000D01*
X0240939Y0221875D01*
X0241034Y0221748D01*
X0241125Y0221619D01*
X0241214Y0221488D01*
X0241298Y0221354D01*
X0241380Y0221218D01*
X0241458Y0221081D01*
X0241532Y0220941D01*
X0241603Y0220799D01*
X0241671Y0220656D01*
X0241735Y0220511D01*
X0241795Y0220365D01*
X0241851Y0220217D01*
X0241904Y0220068D01*
X0241953Y0219917D01*
X0241998Y0219765D01*
X0242039Y0219612D01*
X0242077Y0219459D01*
X0242110Y0219304D01*
X0242140Y0219148D01*
X0242166Y0218992D01*
X0242187Y0218835D01*
X0242205Y0218678D01*
X0242219Y0218520D01*
X0242229Y0218362D01*
X0242235Y0218204D01*
X0242237Y0218046D01*
X0242235Y0217888D01*
X0242229Y0217730D01*
X0242219Y0217572D01*
X0242205Y0217414D01*
X0242187Y0217257D01*
X0242166Y0217100D01*
X0242140Y0216944D01*
X0242110Y0216788D01*
X0242077Y0216633D01*
X0242039Y0216480D01*
X0241998Y0216327D01*
X0241953Y0216175D01*
X0241904Y0216024D01*
X0241851Y0215875D01*
X0241795Y0215727D01*
X0241735Y0215581D01*
X0241671Y0215436D01*
X0241603Y0215293D01*
X0241532Y0215151D01*
X0241458Y0215011D01*
X0241380Y0214874D01*
X0241298Y0214738D01*
X0241214Y0214604D01*
X0241125Y0214473D01*
X0241034Y0214344D01*
X0240939Y0214217D01*
X0240842Y0214092D01*
X0240741Y0213970D01*
X0240637Y0213851D01*
X0240530Y0213734D01*
X0240420Y0213620D01*
X0240307Y0213509D01*
X0240192Y0213400D01*
X0240074Y0213295D01*
X0239953Y0213193D01*
X0239830Y0213093D01*
X0239704Y0212997D01*
X0239576Y0212904D01*
X0239446Y0212814D01*
X0239313Y0212728D01*
X0239178Y0212644D01*
X0239042Y0212565D01*
X0238903Y0212488D01*
X0238762Y0212416D01*
X0238620Y0212346D01*
X0238476Y0212281D01*
X0238330Y0212219D01*
X0238183Y0212161D01*
X0238034Y0212106D01*
X0237884Y0212055D01*
X0237733Y0212008D01*
X0237581Y0211965D01*
X0237428Y0211926D01*
X0237273Y0211890D01*
X0237118Y0211859D01*
X0236962Y0211831D01*
X0236806Y0211807D01*
X0236649Y0211787D01*
X0236491Y0211771D01*
X0236334Y0211759D01*
X0236175Y0211751D01*
X0236017Y0211747D01*
X0235859Y0211747D01*
X0235701Y0211751D01*
X0235542Y0211759D01*
X0235385Y0211771D01*
X0235227Y0211787D01*
X0235070Y0211807D01*
X0234914Y0211831D01*
X0234758Y0211859D01*
X0234603Y0211890D01*
X0234448Y0211926D01*
X0234295Y0211965D01*
X0234143Y0212008D01*
X0233992Y0212055D01*
X0233842Y0212106D01*
X0233693Y0212161D01*
X0233546Y0212219D01*
X0233400Y0212281D01*
X0233256Y0212346D01*
X0233114Y0212416D01*
X0232973Y0212488D01*
X0232834Y0212565D01*
X0232698Y0212644D01*
X0232563Y0212728D01*
X0232430Y0212814D01*
X0232300Y0212904D01*
X0232172Y0212997D01*
X0232046Y0213093D01*
X0231923Y0213193D01*
X0231802Y0213295D01*
X0231684Y0213400D01*
X0231569Y0213509D01*
X0231456Y0213620D01*
X0231346Y0213734D01*
X0231239Y0213851D01*
X0231135Y0213970D01*
X0231034Y0214092D01*
X0230937Y0214217D01*
X0230842Y0214344D01*
X0230751Y0214473D01*
X0230662Y0214604D01*
X0230578Y0214738D01*
X0230496Y0214874D01*
X0230418Y0215011D01*
X0230344Y0215151D01*
X0230273Y0215293D01*
X0230205Y0215436D01*
X0230141Y0215581D01*
X0230081Y0215727D01*
X0230025Y0215875D01*
X0229972Y0216024D01*
X0229923Y0216175D01*
X0229878Y0216327D01*
X0229837Y0216480D01*
X0229799Y0216633D01*
X0229766Y0216788D01*
X0229736Y0216944D01*
X0229710Y0217100D01*
X0229689Y0217257D01*
X0229671Y0217414D01*
X0229657Y0217572D01*
X0229647Y0217730D01*
X0229641Y0217888D01*
X0229639Y0218046D01*
X0184639Y0218046D02*
X0184641Y0218204D01*
X0184647Y0218362D01*
X0184657Y0218520D01*
X0184671Y0218678D01*
X0184689Y0218835D01*
X0184710Y0218992D01*
X0184736Y0219148D01*
X0184766Y0219304D01*
X0184799Y0219459D01*
X0184837Y0219612D01*
X0184878Y0219765D01*
X0184923Y0219917D01*
X0184972Y0220068D01*
X0185025Y0220217D01*
X0185081Y0220365D01*
X0185141Y0220511D01*
X0185205Y0220656D01*
X0185273Y0220799D01*
X0185344Y0220941D01*
X0185418Y0221081D01*
X0185496Y0221218D01*
X0185578Y0221354D01*
X0185662Y0221488D01*
X0185751Y0221619D01*
X0185842Y0221748D01*
X0185937Y0221875D01*
X0186034Y0222000D01*
X0186135Y0222122D01*
X0186239Y0222241D01*
X0186346Y0222358D01*
X0186456Y0222472D01*
X0186569Y0222583D01*
X0186684Y0222692D01*
X0186802Y0222797D01*
X0186923Y0222899D01*
X0187046Y0222999D01*
X0187172Y0223095D01*
X0187300Y0223188D01*
X0187430Y0223278D01*
X0187563Y0223364D01*
X0187698Y0223448D01*
X0187834Y0223527D01*
X0187973Y0223604D01*
X0188114Y0223676D01*
X0188256Y0223746D01*
X0188400Y0223811D01*
X0188546Y0223873D01*
X0188693Y0223931D01*
X0188842Y0223986D01*
X0188992Y0224037D01*
X0189143Y0224084D01*
X0189295Y0224127D01*
X0189448Y0224166D01*
X0189603Y0224202D01*
X0189758Y0224233D01*
X0189914Y0224261D01*
X0190070Y0224285D01*
X0190227Y0224305D01*
X0190385Y0224321D01*
X0190542Y0224333D01*
X0190701Y0224341D01*
X0190859Y0224345D01*
X0191017Y0224345D01*
X0191175Y0224341D01*
X0191334Y0224333D01*
X0191491Y0224321D01*
X0191649Y0224305D01*
X0191806Y0224285D01*
X0191962Y0224261D01*
X0192118Y0224233D01*
X0192273Y0224202D01*
X0192428Y0224166D01*
X0192581Y0224127D01*
X0192733Y0224084D01*
X0192884Y0224037D01*
X0193034Y0223986D01*
X0193183Y0223931D01*
X0193330Y0223873D01*
X0193476Y0223811D01*
X0193620Y0223746D01*
X0193762Y0223676D01*
X0193903Y0223604D01*
X0194042Y0223527D01*
X0194178Y0223448D01*
X0194313Y0223364D01*
X0194446Y0223278D01*
X0194576Y0223188D01*
X0194704Y0223095D01*
X0194830Y0222999D01*
X0194953Y0222899D01*
X0195074Y0222797D01*
X0195192Y0222692D01*
X0195307Y0222583D01*
X0195420Y0222472D01*
X0195530Y0222358D01*
X0195637Y0222241D01*
X0195741Y0222122D01*
X0195842Y0222000D01*
X0195939Y0221875D01*
X0196034Y0221748D01*
X0196125Y0221619D01*
X0196214Y0221488D01*
X0196298Y0221354D01*
X0196380Y0221218D01*
X0196458Y0221081D01*
X0196532Y0220941D01*
X0196603Y0220799D01*
X0196671Y0220656D01*
X0196735Y0220511D01*
X0196795Y0220365D01*
X0196851Y0220217D01*
X0196904Y0220068D01*
X0196953Y0219917D01*
X0196998Y0219765D01*
X0197039Y0219612D01*
X0197077Y0219459D01*
X0197110Y0219304D01*
X0197140Y0219148D01*
X0197166Y0218992D01*
X0197187Y0218835D01*
X0197205Y0218678D01*
X0197219Y0218520D01*
X0197229Y0218362D01*
X0197235Y0218204D01*
X0197237Y0218046D01*
X0197235Y0217888D01*
X0197229Y0217730D01*
X0197219Y0217572D01*
X0197205Y0217414D01*
X0197187Y0217257D01*
X0197166Y0217100D01*
X0197140Y0216944D01*
X0197110Y0216788D01*
X0197077Y0216633D01*
X0197039Y0216480D01*
X0196998Y0216327D01*
X0196953Y0216175D01*
X0196904Y0216024D01*
X0196851Y0215875D01*
X0196795Y0215727D01*
X0196735Y0215581D01*
X0196671Y0215436D01*
X0196603Y0215293D01*
X0196532Y0215151D01*
X0196458Y0215011D01*
X0196380Y0214874D01*
X0196298Y0214738D01*
X0196214Y0214604D01*
X0196125Y0214473D01*
X0196034Y0214344D01*
X0195939Y0214217D01*
X0195842Y0214092D01*
X0195741Y0213970D01*
X0195637Y0213851D01*
X0195530Y0213734D01*
X0195420Y0213620D01*
X0195307Y0213509D01*
X0195192Y0213400D01*
X0195074Y0213295D01*
X0194953Y0213193D01*
X0194830Y0213093D01*
X0194704Y0212997D01*
X0194576Y0212904D01*
X0194446Y0212814D01*
X0194313Y0212728D01*
X0194178Y0212644D01*
X0194042Y0212565D01*
X0193903Y0212488D01*
X0193762Y0212416D01*
X0193620Y0212346D01*
X0193476Y0212281D01*
X0193330Y0212219D01*
X0193183Y0212161D01*
X0193034Y0212106D01*
X0192884Y0212055D01*
X0192733Y0212008D01*
X0192581Y0211965D01*
X0192428Y0211926D01*
X0192273Y0211890D01*
X0192118Y0211859D01*
X0191962Y0211831D01*
X0191806Y0211807D01*
X0191649Y0211787D01*
X0191491Y0211771D01*
X0191334Y0211759D01*
X0191175Y0211751D01*
X0191017Y0211747D01*
X0190859Y0211747D01*
X0190701Y0211751D01*
X0190542Y0211759D01*
X0190385Y0211771D01*
X0190227Y0211787D01*
X0190070Y0211807D01*
X0189914Y0211831D01*
X0189758Y0211859D01*
X0189603Y0211890D01*
X0189448Y0211926D01*
X0189295Y0211965D01*
X0189143Y0212008D01*
X0188992Y0212055D01*
X0188842Y0212106D01*
X0188693Y0212161D01*
X0188546Y0212219D01*
X0188400Y0212281D01*
X0188256Y0212346D01*
X0188114Y0212416D01*
X0187973Y0212488D01*
X0187834Y0212565D01*
X0187698Y0212644D01*
X0187563Y0212728D01*
X0187430Y0212814D01*
X0187300Y0212904D01*
X0187172Y0212997D01*
X0187046Y0213093D01*
X0186923Y0213193D01*
X0186802Y0213295D01*
X0186684Y0213400D01*
X0186569Y0213509D01*
X0186456Y0213620D01*
X0186346Y0213734D01*
X0186239Y0213851D01*
X0186135Y0213970D01*
X0186034Y0214092D01*
X0185937Y0214217D01*
X0185842Y0214344D01*
X0185751Y0214473D01*
X0185662Y0214604D01*
X0185578Y0214738D01*
X0185496Y0214874D01*
X0185418Y0215011D01*
X0185344Y0215151D01*
X0185273Y0215293D01*
X0185205Y0215436D01*
X0185141Y0215581D01*
X0185081Y0215727D01*
X0185025Y0215875D01*
X0184972Y0216024D01*
X0184923Y0216175D01*
X0184878Y0216327D01*
X0184837Y0216480D01*
X0184799Y0216633D01*
X0184766Y0216788D01*
X0184736Y0216944D01*
X0184710Y0217100D01*
X0184689Y0217257D01*
X0184671Y0217414D01*
X0184657Y0217572D01*
X0184647Y0217730D01*
X0184641Y0217888D01*
X0184639Y0218046D01*
X0163023Y0194348D02*
X0163025Y0194501D01*
X0163031Y0194655D01*
X0163041Y0194808D01*
X0163055Y0194960D01*
X0163073Y0195113D01*
X0163095Y0195264D01*
X0163120Y0195415D01*
X0163150Y0195566D01*
X0163184Y0195716D01*
X0163221Y0195864D01*
X0163262Y0196012D01*
X0163307Y0196158D01*
X0163356Y0196304D01*
X0163409Y0196448D01*
X0163465Y0196590D01*
X0163525Y0196731D01*
X0163589Y0196871D01*
X0163656Y0197009D01*
X0163727Y0197145D01*
X0163802Y0197279D01*
X0163879Y0197411D01*
X0163961Y0197541D01*
X0164045Y0197669D01*
X0164133Y0197795D01*
X0164224Y0197918D01*
X0164318Y0198039D01*
X0164416Y0198157D01*
X0164516Y0198273D01*
X0164620Y0198386D01*
X0164726Y0198497D01*
X0164835Y0198605D01*
X0164947Y0198710D01*
X0165061Y0198811D01*
X0165179Y0198910D01*
X0165298Y0199006D01*
X0165420Y0199099D01*
X0165545Y0199188D01*
X0165672Y0199275D01*
X0165801Y0199357D01*
X0165932Y0199437D01*
X0166065Y0199513D01*
X0166200Y0199586D01*
X0166337Y0199655D01*
X0166476Y0199720D01*
X0166616Y0199782D01*
X0166758Y0199840D01*
X0166901Y0199895D01*
X0167046Y0199946D01*
X0167192Y0199993D01*
X0167339Y0200036D01*
X0167487Y0200075D01*
X0167636Y0200111D01*
X0167786Y0200142D01*
X0167937Y0200170D01*
X0168088Y0200194D01*
X0168241Y0200214D01*
X0168393Y0200230D01*
X0168546Y0200242D01*
X0168699Y0200250D01*
X0168852Y0200254D01*
X0169006Y0200254D01*
X0169159Y0200250D01*
X0169312Y0200242D01*
X0169465Y0200230D01*
X0169617Y0200214D01*
X0169770Y0200194D01*
X0169921Y0200170D01*
X0170072Y0200142D01*
X0170222Y0200111D01*
X0170371Y0200075D01*
X0170519Y0200036D01*
X0170666Y0199993D01*
X0170812Y0199946D01*
X0170957Y0199895D01*
X0171100Y0199840D01*
X0171242Y0199782D01*
X0171382Y0199720D01*
X0171521Y0199655D01*
X0171658Y0199586D01*
X0171793Y0199513D01*
X0171926Y0199437D01*
X0172057Y0199357D01*
X0172186Y0199275D01*
X0172313Y0199188D01*
X0172438Y0199099D01*
X0172560Y0199006D01*
X0172679Y0198910D01*
X0172797Y0198811D01*
X0172911Y0198710D01*
X0173023Y0198605D01*
X0173132Y0198497D01*
X0173238Y0198386D01*
X0173342Y0198273D01*
X0173442Y0198157D01*
X0173540Y0198039D01*
X0173634Y0197918D01*
X0173725Y0197795D01*
X0173813Y0197669D01*
X0173897Y0197541D01*
X0173979Y0197411D01*
X0174056Y0197279D01*
X0174131Y0197145D01*
X0174202Y0197009D01*
X0174269Y0196871D01*
X0174333Y0196731D01*
X0174393Y0196590D01*
X0174449Y0196448D01*
X0174502Y0196304D01*
X0174551Y0196158D01*
X0174596Y0196012D01*
X0174637Y0195864D01*
X0174674Y0195716D01*
X0174708Y0195566D01*
X0174738Y0195415D01*
X0174763Y0195264D01*
X0174785Y0195113D01*
X0174803Y0194960D01*
X0174817Y0194808D01*
X0174827Y0194655D01*
X0174833Y0194501D01*
X0174835Y0194348D01*
X0174833Y0194195D01*
X0174827Y0194041D01*
X0174817Y0193888D01*
X0174803Y0193736D01*
X0174785Y0193583D01*
X0174763Y0193432D01*
X0174738Y0193281D01*
X0174708Y0193130D01*
X0174674Y0192980D01*
X0174637Y0192832D01*
X0174596Y0192684D01*
X0174551Y0192538D01*
X0174502Y0192392D01*
X0174449Y0192248D01*
X0174393Y0192106D01*
X0174333Y0191965D01*
X0174269Y0191825D01*
X0174202Y0191687D01*
X0174131Y0191551D01*
X0174056Y0191417D01*
X0173979Y0191285D01*
X0173897Y0191155D01*
X0173813Y0191027D01*
X0173725Y0190901D01*
X0173634Y0190778D01*
X0173540Y0190657D01*
X0173442Y0190539D01*
X0173342Y0190423D01*
X0173238Y0190310D01*
X0173132Y0190199D01*
X0173023Y0190091D01*
X0172911Y0189986D01*
X0172797Y0189885D01*
X0172679Y0189786D01*
X0172560Y0189690D01*
X0172438Y0189597D01*
X0172313Y0189508D01*
X0172186Y0189421D01*
X0172057Y0189339D01*
X0171926Y0189259D01*
X0171793Y0189183D01*
X0171658Y0189110D01*
X0171521Y0189041D01*
X0171382Y0188976D01*
X0171242Y0188914D01*
X0171100Y0188856D01*
X0170957Y0188801D01*
X0170812Y0188750D01*
X0170666Y0188703D01*
X0170519Y0188660D01*
X0170371Y0188621D01*
X0170222Y0188585D01*
X0170072Y0188554D01*
X0169921Y0188526D01*
X0169770Y0188502D01*
X0169617Y0188482D01*
X0169465Y0188466D01*
X0169312Y0188454D01*
X0169159Y0188446D01*
X0169006Y0188442D01*
X0168852Y0188442D01*
X0168699Y0188446D01*
X0168546Y0188454D01*
X0168393Y0188466D01*
X0168241Y0188482D01*
X0168088Y0188502D01*
X0167937Y0188526D01*
X0167786Y0188554D01*
X0167636Y0188585D01*
X0167487Y0188621D01*
X0167339Y0188660D01*
X0167192Y0188703D01*
X0167046Y0188750D01*
X0166901Y0188801D01*
X0166758Y0188856D01*
X0166616Y0188914D01*
X0166476Y0188976D01*
X0166337Y0189041D01*
X0166200Y0189110D01*
X0166065Y0189183D01*
X0165932Y0189259D01*
X0165801Y0189339D01*
X0165672Y0189421D01*
X0165545Y0189508D01*
X0165420Y0189597D01*
X0165298Y0189690D01*
X0165179Y0189786D01*
X0165061Y0189885D01*
X0164947Y0189986D01*
X0164835Y0190091D01*
X0164726Y0190199D01*
X0164620Y0190310D01*
X0164516Y0190423D01*
X0164416Y0190539D01*
X0164318Y0190657D01*
X0164224Y0190778D01*
X0164133Y0190901D01*
X0164045Y0191027D01*
X0163961Y0191155D01*
X0163879Y0191285D01*
X0163802Y0191417D01*
X0163727Y0191551D01*
X0163656Y0191687D01*
X0163589Y0191825D01*
X0163525Y0191965D01*
X0163465Y0192106D01*
X0163409Y0192248D01*
X0163356Y0192392D01*
X0163307Y0192538D01*
X0163262Y0192684D01*
X0163221Y0192832D01*
X0163184Y0192980D01*
X0163150Y0193130D01*
X0163120Y0193281D01*
X0163095Y0193432D01*
X0163073Y0193583D01*
X0163055Y0193736D01*
X0163041Y0193888D01*
X0163031Y0194041D01*
X0163025Y0194195D01*
X0163023Y0194348D01*
X0109100Y0165436D02*
X0109102Y0165589D01*
X0109108Y0165742D01*
X0109118Y0165895D01*
X0109132Y0166048D01*
X0109150Y0166200D01*
X0109171Y0166351D01*
X0109197Y0166502D01*
X0109227Y0166653D01*
X0109260Y0166802D01*
X0109298Y0166951D01*
X0109339Y0167098D01*
X0109384Y0167245D01*
X0109433Y0167390D01*
X0109485Y0167534D01*
X0109542Y0167676D01*
X0109602Y0167817D01*
X0109665Y0167956D01*
X0109733Y0168094D01*
X0109803Y0168230D01*
X0109878Y0168364D01*
X0109955Y0168496D01*
X0110037Y0168626D01*
X0110121Y0168754D01*
X0110209Y0168879D01*
X0110300Y0169002D01*
X0110394Y0169123D01*
X0110491Y0169241D01*
X0110592Y0169357D01*
X0110695Y0169470D01*
X0110801Y0169581D01*
X0110910Y0169688D01*
X0111022Y0169793D01*
X0111136Y0169895D01*
X0111253Y0169994D01*
X0111373Y0170089D01*
X0111495Y0170182D01*
X0111619Y0170271D01*
X0111746Y0170358D01*
X0111875Y0170440D01*
X0112006Y0170520D01*
X0112139Y0170596D01*
X0112274Y0170668D01*
X0112411Y0170737D01*
X0112549Y0170803D01*
X0112689Y0170865D01*
X0112831Y0170923D01*
X0112974Y0170977D01*
X0113119Y0171028D01*
X0113264Y0171075D01*
X0113411Y0171118D01*
X0113559Y0171157D01*
X0113708Y0171193D01*
X0113858Y0171224D01*
X0114009Y0171252D01*
X0114160Y0171276D01*
X0114312Y0171296D01*
X0114465Y0171312D01*
X0114617Y0171324D01*
X0114770Y0171332D01*
X0114923Y0171336D01*
X0115077Y0171336D01*
X0115230Y0171332D01*
X0115383Y0171324D01*
X0115535Y0171312D01*
X0115688Y0171296D01*
X0115840Y0171276D01*
X0115991Y0171252D01*
X0116142Y0171224D01*
X0116292Y0171193D01*
X0116441Y0171157D01*
X0116589Y0171118D01*
X0116736Y0171075D01*
X0116881Y0171028D01*
X0117026Y0170977D01*
X0117169Y0170923D01*
X0117311Y0170865D01*
X0117451Y0170803D01*
X0117589Y0170737D01*
X0117726Y0170668D01*
X0117861Y0170596D01*
X0117994Y0170520D01*
X0118125Y0170440D01*
X0118254Y0170358D01*
X0118381Y0170271D01*
X0118505Y0170182D01*
X0118627Y0170089D01*
X0118747Y0169994D01*
X0118864Y0169895D01*
X0118978Y0169793D01*
X0119090Y0169688D01*
X0119199Y0169581D01*
X0119305Y0169470D01*
X0119408Y0169357D01*
X0119509Y0169241D01*
X0119606Y0169123D01*
X0119700Y0169002D01*
X0119791Y0168879D01*
X0119879Y0168754D01*
X0119963Y0168626D01*
X0120045Y0168496D01*
X0120122Y0168364D01*
X0120197Y0168230D01*
X0120267Y0168094D01*
X0120335Y0167956D01*
X0120398Y0167817D01*
X0120458Y0167676D01*
X0120515Y0167534D01*
X0120567Y0167390D01*
X0120616Y0167245D01*
X0120661Y0167098D01*
X0120702Y0166951D01*
X0120740Y0166802D01*
X0120773Y0166653D01*
X0120803Y0166502D01*
X0120829Y0166351D01*
X0120850Y0166200D01*
X0120868Y0166048D01*
X0120882Y0165895D01*
X0120892Y0165742D01*
X0120898Y0165589D01*
X0120900Y0165436D01*
X0120898Y0165283D01*
X0120892Y0165130D01*
X0120882Y0164977D01*
X0120868Y0164824D01*
X0120850Y0164672D01*
X0120829Y0164521D01*
X0120803Y0164370D01*
X0120773Y0164219D01*
X0120740Y0164070D01*
X0120702Y0163921D01*
X0120661Y0163774D01*
X0120616Y0163627D01*
X0120567Y0163482D01*
X0120515Y0163338D01*
X0120458Y0163196D01*
X0120398Y0163055D01*
X0120335Y0162916D01*
X0120267Y0162778D01*
X0120197Y0162642D01*
X0120122Y0162508D01*
X0120045Y0162376D01*
X0119963Y0162246D01*
X0119879Y0162118D01*
X0119791Y0161993D01*
X0119700Y0161870D01*
X0119606Y0161749D01*
X0119509Y0161631D01*
X0119408Y0161515D01*
X0119305Y0161402D01*
X0119199Y0161291D01*
X0119090Y0161184D01*
X0118978Y0161079D01*
X0118864Y0160977D01*
X0118747Y0160878D01*
X0118627Y0160783D01*
X0118505Y0160690D01*
X0118381Y0160601D01*
X0118254Y0160514D01*
X0118125Y0160432D01*
X0117994Y0160352D01*
X0117861Y0160276D01*
X0117726Y0160204D01*
X0117589Y0160135D01*
X0117451Y0160069D01*
X0117311Y0160007D01*
X0117169Y0159949D01*
X0117026Y0159895D01*
X0116881Y0159844D01*
X0116736Y0159797D01*
X0116589Y0159754D01*
X0116441Y0159715D01*
X0116292Y0159679D01*
X0116142Y0159648D01*
X0115991Y0159620D01*
X0115840Y0159596D01*
X0115688Y0159576D01*
X0115535Y0159560D01*
X0115383Y0159548D01*
X0115230Y0159540D01*
X0115077Y0159536D01*
X0114923Y0159536D01*
X0114770Y0159540D01*
X0114617Y0159548D01*
X0114465Y0159560D01*
X0114312Y0159576D01*
X0114160Y0159596D01*
X0114009Y0159620D01*
X0113858Y0159648D01*
X0113708Y0159679D01*
X0113559Y0159715D01*
X0113411Y0159754D01*
X0113264Y0159797D01*
X0113119Y0159844D01*
X0112974Y0159895D01*
X0112831Y0159949D01*
X0112689Y0160007D01*
X0112549Y0160069D01*
X0112411Y0160135D01*
X0112274Y0160204D01*
X0112139Y0160276D01*
X0112006Y0160352D01*
X0111875Y0160432D01*
X0111746Y0160514D01*
X0111619Y0160601D01*
X0111495Y0160690D01*
X0111373Y0160783D01*
X0111253Y0160878D01*
X0111136Y0160977D01*
X0111022Y0161079D01*
X0110910Y0161184D01*
X0110801Y0161291D01*
X0110695Y0161402D01*
X0110592Y0161515D01*
X0110491Y0161631D01*
X0110394Y0161749D01*
X0110300Y0161870D01*
X0110209Y0161993D01*
X0110121Y0162118D01*
X0110037Y0162246D01*
X0109955Y0162376D01*
X0109878Y0162508D01*
X0109803Y0162642D01*
X0109733Y0162778D01*
X0109665Y0162916D01*
X0109602Y0163055D01*
X0109542Y0163196D01*
X0109485Y0163338D01*
X0109433Y0163482D01*
X0109384Y0163627D01*
X0109339Y0163774D01*
X0109298Y0163921D01*
X0109260Y0164070D01*
X0109227Y0164219D01*
X0109197Y0164370D01*
X0109171Y0164521D01*
X0109150Y0164672D01*
X0109132Y0164824D01*
X0109118Y0164977D01*
X0109108Y0165130D01*
X0109102Y0165283D01*
X0109100Y0165436D01*
X0006100Y0165436D02*
X0006102Y0165589D01*
X0006108Y0165742D01*
X0006118Y0165895D01*
X0006132Y0166048D01*
X0006150Y0166200D01*
X0006171Y0166351D01*
X0006197Y0166502D01*
X0006227Y0166653D01*
X0006260Y0166802D01*
X0006298Y0166951D01*
X0006339Y0167098D01*
X0006384Y0167245D01*
X0006433Y0167390D01*
X0006485Y0167534D01*
X0006542Y0167676D01*
X0006602Y0167817D01*
X0006665Y0167956D01*
X0006733Y0168094D01*
X0006803Y0168230D01*
X0006878Y0168364D01*
X0006955Y0168496D01*
X0007037Y0168626D01*
X0007121Y0168754D01*
X0007209Y0168879D01*
X0007300Y0169002D01*
X0007394Y0169123D01*
X0007491Y0169241D01*
X0007592Y0169357D01*
X0007695Y0169470D01*
X0007801Y0169581D01*
X0007910Y0169688D01*
X0008022Y0169793D01*
X0008136Y0169895D01*
X0008253Y0169994D01*
X0008373Y0170089D01*
X0008495Y0170182D01*
X0008619Y0170271D01*
X0008746Y0170358D01*
X0008875Y0170440D01*
X0009006Y0170520D01*
X0009139Y0170596D01*
X0009274Y0170668D01*
X0009411Y0170737D01*
X0009549Y0170803D01*
X0009689Y0170865D01*
X0009831Y0170923D01*
X0009974Y0170977D01*
X0010119Y0171028D01*
X0010264Y0171075D01*
X0010411Y0171118D01*
X0010559Y0171157D01*
X0010708Y0171193D01*
X0010858Y0171224D01*
X0011009Y0171252D01*
X0011160Y0171276D01*
X0011312Y0171296D01*
X0011465Y0171312D01*
X0011617Y0171324D01*
X0011770Y0171332D01*
X0011923Y0171336D01*
X0012077Y0171336D01*
X0012230Y0171332D01*
X0012383Y0171324D01*
X0012535Y0171312D01*
X0012688Y0171296D01*
X0012840Y0171276D01*
X0012991Y0171252D01*
X0013142Y0171224D01*
X0013292Y0171193D01*
X0013441Y0171157D01*
X0013589Y0171118D01*
X0013736Y0171075D01*
X0013881Y0171028D01*
X0014026Y0170977D01*
X0014169Y0170923D01*
X0014311Y0170865D01*
X0014451Y0170803D01*
X0014589Y0170737D01*
X0014726Y0170668D01*
X0014861Y0170596D01*
X0014994Y0170520D01*
X0015125Y0170440D01*
X0015254Y0170358D01*
X0015381Y0170271D01*
X0015505Y0170182D01*
X0015627Y0170089D01*
X0015747Y0169994D01*
X0015864Y0169895D01*
X0015978Y0169793D01*
X0016090Y0169688D01*
X0016199Y0169581D01*
X0016305Y0169470D01*
X0016408Y0169357D01*
X0016509Y0169241D01*
X0016606Y0169123D01*
X0016700Y0169002D01*
X0016791Y0168879D01*
X0016879Y0168754D01*
X0016963Y0168626D01*
X0017045Y0168496D01*
X0017122Y0168364D01*
X0017197Y0168230D01*
X0017267Y0168094D01*
X0017335Y0167956D01*
X0017398Y0167817D01*
X0017458Y0167676D01*
X0017515Y0167534D01*
X0017567Y0167390D01*
X0017616Y0167245D01*
X0017661Y0167098D01*
X0017702Y0166951D01*
X0017740Y0166802D01*
X0017773Y0166653D01*
X0017803Y0166502D01*
X0017829Y0166351D01*
X0017850Y0166200D01*
X0017868Y0166048D01*
X0017882Y0165895D01*
X0017892Y0165742D01*
X0017898Y0165589D01*
X0017900Y0165436D01*
X0017898Y0165283D01*
X0017892Y0165130D01*
X0017882Y0164977D01*
X0017868Y0164824D01*
X0017850Y0164672D01*
X0017829Y0164521D01*
X0017803Y0164370D01*
X0017773Y0164219D01*
X0017740Y0164070D01*
X0017702Y0163921D01*
X0017661Y0163774D01*
X0017616Y0163627D01*
X0017567Y0163482D01*
X0017515Y0163338D01*
X0017458Y0163196D01*
X0017398Y0163055D01*
X0017335Y0162916D01*
X0017267Y0162778D01*
X0017197Y0162642D01*
X0017122Y0162508D01*
X0017045Y0162376D01*
X0016963Y0162246D01*
X0016879Y0162118D01*
X0016791Y0161993D01*
X0016700Y0161870D01*
X0016606Y0161749D01*
X0016509Y0161631D01*
X0016408Y0161515D01*
X0016305Y0161402D01*
X0016199Y0161291D01*
X0016090Y0161184D01*
X0015978Y0161079D01*
X0015864Y0160977D01*
X0015747Y0160878D01*
X0015627Y0160783D01*
X0015505Y0160690D01*
X0015381Y0160601D01*
X0015254Y0160514D01*
X0015125Y0160432D01*
X0014994Y0160352D01*
X0014861Y0160276D01*
X0014726Y0160204D01*
X0014589Y0160135D01*
X0014451Y0160069D01*
X0014311Y0160007D01*
X0014169Y0159949D01*
X0014026Y0159895D01*
X0013881Y0159844D01*
X0013736Y0159797D01*
X0013589Y0159754D01*
X0013441Y0159715D01*
X0013292Y0159679D01*
X0013142Y0159648D01*
X0012991Y0159620D01*
X0012840Y0159596D01*
X0012688Y0159576D01*
X0012535Y0159560D01*
X0012383Y0159548D01*
X0012230Y0159540D01*
X0012077Y0159536D01*
X0011923Y0159536D01*
X0011770Y0159540D01*
X0011617Y0159548D01*
X0011465Y0159560D01*
X0011312Y0159576D01*
X0011160Y0159596D01*
X0011009Y0159620D01*
X0010858Y0159648D01*
X0010708Y0159679D01*
X0010559Y0159715D01*
X0010411Y0159754D01*
X0010264Y0159797D01*
X0010119Y0159844D01*
X0009974Y0159895D01*
X0009831Y0159949D01*
X0009689Y0160007D01*
X0009549Y0160069D01*
X0009411Y0160135D01*
X0009274Y0160204D01*
X0009139Y0160276D01*
X0009006Y0160352D01*
X0008875Y0160432D01*
X0008746Y0160514D01*
X0008619Y0160601D01*
X0008495Y0160690D01*
X0008373Y0160783D01*
X0008253Y0160878D01*
X0008136Y0160977D01*
X0008022Y0161079D01*
X0007910Y0161184D01*
X0007801Y0161291D01*
X0007695Y0161402D01*
X0007592Y0161515D01*
X0007491Y0161631D01*
X0007394Y0161749D01*
X0007300Y0161870D01*
X0007209Y0161993D01*
X0007121Y0162118D01*
X0007037Y0162246D01*
X0006955Y0162376D01*
X0006878Y0162508D01*
X0006803Y0162642D01*
X0006733Y0162778D01*
X0006665Y0162916D01*
X0006602Y0163055D01*
X0006542Y0163196D01*
X0006485Y0163338D01*
X0006433Y0163482D01*
X0006384Y0163627D01*
X0006339Y0163774D01*
X0006298Y0163921D01*
X0006260Y0164070D01*
X0006227Y0164219D01*
X0006197Y0164370D01*
X0006171Y0164521D01*
X0006150Y0164672D01*
X0006132Y0164824D01*
X0006118Y0164977D01*
X0006108Y0165130D01*
X0006102Y0165283D01*
X0006100Y0165436D01*
M02*
