G75*
%MOIN*%
%OFA0B0*%
%FSLAX25Y25*%
%IPPOS*%
%LPD*%
%AMOC8*
5,1,8,0,0,1.08239X$1,22.5*
%
%ADD10C,0.00000*%
%ADD11C,0.00787*%
%ADD12C,0.07400*%
%ADD13C,0.09449*%
%ADD14C,0.06693*%
%ADD15C,0.05906*%
%ADD16C,0.07972*%
%ADD17C,0.02756*%
%ADD18R,0.06496X0.02362*%
%ADD19R,0.06000X0.02300*%
%ADD20R,0.03600X0.04100*%
%ADD21R,0.03800X0.05700*%
%ADD22R,0.03200X0.04200*%
%ADD23R,0.02200X0.02400*%
%ADD24R,0.04400X0.05900*%
%ADD25R,0.03400X0.02400*%
%ADD26R,0.02400X0.03400*%
%ADD27R,0.02800X0.02800*%
%ADD28R,0.05700X0.03800*%
%ADD29R,0.02400X0.02200*%
%ADD30C,0.05000*%
%ADD31R,0.02362X0.06102*%
%ADD32R,0.04724X0.07087*%
%ADD33C,0.01969*%
%ADD34C,0.00600*%
%ADD35C,0.02400*%
%ADD36C,0.01000*%
D10*
X0001000Y0012436D02*
X0001000Y0176436D01*
X0126000Y0176436D01*
X0126000Y0145436D01*
X0138000Y0145436D01*
X0138000Y0243436D01*
X0251000Y0243436D01*
X0251000Y0157436D01*
X0205000Y0157436D01*
X0205000Y0104436D01*
X0216000Y0104436D01*
X0216000Y0012436D01*
X0138000Y0012436D01*
X0138000Y0035436D01*
X0126000Y0035436D01*
X0126000Y0012436D01*
X0001000Y0012436D01*
X0004100Y0021436D02*
X0004102Y0021589D01*
X0004108Y0021742D01*
X0004118Y0021895D01*
X0004132Y0022048D01*
X0004150Y0022200D01*
X0004171Y0022351D01*
X0004197Y0022502D01*
X0004227Y0022653D01*
X0004260Y0022802D01*
X0004298Y0022951D01*
X0004339Y0023098D01*
X0004384Y0023245D01*
X0004433Y0023390D01*
X0004485Y0023534D01*
X0004542Y0023676D01*
X0004602Y0023817D01*
X0004665Y0023956D01*
X0004733Y0024094D01*
X0004803Y0024230D01*
X0004878Y0024364D01*
X0004955Y0024496D01*
X0005037Y0024626D01*
X0005121Y0024754D01*
X0005209Y0024879D01*
X0005300Y0025002D01*
X0005394Y0025123D01*
X0005491Y0025241D01*
X0005592Y0025357D01*
X0005695Y0025470D01*
X0005801Y0025581D01*
X0005910Y0025688D01*
X0006022Y0025793D01*
X0006136Y0025895D01*
X0006253Y0025994D01*
X0006373Y0026089D01*
X0006495Y0026182D01*
X0006619Y0026271D01*
X0006746Y0026358D01*
X0006875Y0026440D01*
X0007006Y0026520D01*
X0007139Y0026596D01*
X0007274Y0026668D01*
X0007411Y0026737D01*
X0007549Y0026803D01*
X0007689Y0026865D01*
X0007831Y0026923D01*
X0007974Y0026977D01*
X0008119Y0027028D01*
X0008264Y0027075D01*
X0008411Y0027118D01*
X0008559Y0027157D01*
X0008708Y0027193D01*
X0008858Y0027224D01*
X0009009Y0027252D01*
X0009160Y0027276D01*
X0009312Y0027296D01*
X0009465Y0027312D01*
X0009617Y0027324D01*
X0009770Y0027332D01*
X0009923Y0027336D01*
X0010077Y0027336D01*
X0010230Y0027332D01*
X0010383Y0027324D01*
X0010535Y0027312D01*
X0010688Y0027296D01*
X0010840Y0027276D01*
X0010991Y0027252D01*
X0011142Y0027224D01*
X0011292Y0027193D01*
X0011441Y0027157D01*
X0011589Y0027118D01*
X0011736Y0027075D01*
X0011881Y0027028D01*
X0012026Y0026977D01*
X0012169Y0026923D01*
X0012311Y0026865D01*
X0012451Y0026803D01*
X0012589Y0026737D01*
X0012726Y0026668D01*
X0012861Y0026596D01*
X0012994Y0026520D01*
X0013125Y0026440D01*
X0013254Y0026358D01*
X0013381Y0026271D01*
X0013505Y0026182D01*
X0013627Y0026089D01*
X0013747Y0025994D01*
X0013864Y0025895D01*
X0013978Y0025793D01*
X0014090Y0025688D01*
X0014199Y0025581D01*
X0014305Y0025470D01*
X0014408Y0025357D01*
X0014509Y0025241D01*
X0014606Y0025123D01*
X0014700Y0025002D01*
X0014791Y0024879D01*
X0014879Y0024754D01*
X0014963Y0024626D01*
X0015045Y0024496D01*
X0015122Y0024364D01*
X0015197Y0024230D01*
X0015267Y0024094D01*
X0015335Y0023956D01*
X0015398Y0023817D01*
X0015458Y0023676D01*
X0015515Y0023534D01*
X0015567Y0023390D01*
X0015616Y0023245D01*
X0015661Y0023098D01*
X0015702Y0022951D01*
X0015740Y0022802D01*
X0015773Y0022653D01*
X0015803Y0022502D01*
X0015829Y0022351D01*
X0015850Y0022200D01*
X0015868Y0022048D01*
X0015882Y0021895D01*
X0015892Y0021742D01*
X0015898Y0021589D01*
X0015900Y0021436D01*
X0015898Y0021283D01*
X0015892Y0021130D01*
X0015882Y0020977D01*
X0015868Y0020824D01*
X0015850Y0020672D01*
X0015829Y0020521D01*
X0015803Y0020370D01*
X0015773Y0020219D01*
X0015740Y0020070D01*
X0015702Y0019921D01*
X0015661Y0019774D01*
X0015616Y0019627D01*
X0015567Y0019482D01*
X0015515Y0019338D01*
X0015458Y0019196D01*
X0015398Y0019055D01*
X0015335Y0018916D01*
X0015267Y0018778D01*
X0015197Y0018642D01*
X0015122Y0018508D01*
X0015045Y0018376D01*
X0014963Y0018246D01*
X0014879Y0018118D01*
X0014791Y0017993D01*
X0014700Y0017870D01*
X0014606Y0017749D01*
X0014509Y0017631D01*
X0014408Y0017515D01*
X0014305Y0017402D01*
X0014199Y0017291D01*
X0014090Y0017184D01*
X0013978Y0017079D01*
X0013864Y0016977D01*
X0013747Y0016878D01*
X0013627Y0016783D01*
X0013505Y0016690D01*
X0013381Y0016601D01*
X0013254Y0016514D01*
X0013125Y0016432D01*
X0012994Y0016352D01*
X0012861Y0016276D01*
X0012726Y0016204D01*
X0012589Y0016135D01*
X0012451Y0016069D01*
X0012311Y0016007D01*
X0012169Y0015949D01*
X0012026Y0015895D01*
X0011881Y0015844D01*
X0011736Y0015797D01*
X0011589Y0015754D01*
X0011441Y0015715D01*
X0011292Y0015679D01*
X0011142Y0015648D01*
X0010991Y0015620D01*
X0010840Y0015596D01*
X0010688Y0015576D01*
X0010535Y0015560D01*
X0010383Y0015548D01*
X0010230Y0015540D01*
X0010077Y0015536D01*
X0009923Y0015536D01*
X0009770Y0015540D01*
X0009617Y0015548D01*
X0009465Y0015560D01*
X0009312Y0015576D01*
X0009160Y0015596D01*
X0009009Y0015620D01*
X0008858Y0015648D01*
X0008708Y0015679D01*
X0008559Y0015715D01*
X0008411Y0015754D01*
X0008264Y0015797D01*
X0008119Y0015844D01*
X0007974Y0015895D01*
X0007831Y0015949D01*
X0007689Y0016007D01*
X0007549Y0016069D01*
X0007411Y0016135D01*
X0007274Y0016204D01*
X0007139Y0016276D01*
X0007006Y0016352D01*
X0006875Y0016432D01*
X0006746Y0016514D01*
X0006619Y0016601D01*
X0006495Y0016690D01*
X0006373Y0016783D01*
X0006253Y0016878D01*
X0006136Y0016977D01*
X0006022Y0017079D01*
X0005910Y0017184D01*
X0005801Y0017291D01*
X0005695Y0017402D01*
X0005592Y0017515D01*
X0005491Y0017631D01*
X0005394Y0017749D01*
X0005300Y0017870D01*
X0005209Y0017993D01*
X0005121Y0018118D01*
X0005037Y0018246D01*
X0004955Y0018376D01*
X0004878Y0018508D01*
X0004803Y0018642D01*
X0004733Y0018778D01*
X0004665Y0018916D01*
X0004602Y0019055D01*
X0004542Y0019196D01*
X0004485Y0019338D01*
X0004433Y0019482D01*
X0004384Y0019627D01*
X0004339Y0019774D01*
X0004298Y0019921D01*
X0004260Y0020070D01*
X0004227Y0020219D01*
X0004197Y0020370D01*
X0004171Y0020521D01*
X0004150Y0020672D01*
X0004132Y0020824D01*
X0004118Y0020977D01*
X0004108Y0021130D01*
X0004102Y0021283D01*
X0004100Y0021436D01*
X0112100Y0021436D02*
X0112102Y0021589D01*
X0112108Y0021742D01*
X0112118Y0021895D01*
X0112132Y0022048D01*
X0112150Y0022200D01*
X0112171Y0022351D01*
X0112197Y0022502D01*
X0112227Y0022653D01*
X0112260Y0022802D01*
X0112298Y0022951D01*
X0112339Y0023098D01*
X0112384Y0023245D01*
X0112433Y0023390D01*
X0112485Y0023534D01*
X0112542Y0023676D01*
X0112602Y0023817D01*
X0112665Y0023956D01*
X0112733Y0024094D01*
X0112803Y0024230D01*
X0112878Y0024364D01*
X0112955Y0024496D01*
X0113037Y0024626D01*
X0113121Y0024754D01*
X0113209Y0024879D01*
X0113300Y0025002D01*
X0113394Y0025123D01*
X0113491Y0025241D01*
X0113592Y0025357D01*
X0113695Y0025470D01*
X0113801Y0025581D01*
X0113910Y0025688D01*
X0114022Y0025793D01*
X0114136Y0025895D01*
X0114253Y0025994D01*
X0114373Y0026089D01*
X0114495Y0026182D01*
X0114619Y0026271D01*
X0114746Y0026358D01*
X0114875Y0026440D01*
X0115006Y0026520D01*
X0115139Y0026596D01*
X0115274Y0026668D01*
X0115411Y0026737D01*
X0115549Y0026803D01*
X0115689Y0026865D01*
X0115831Y0026923D01*
X0115974Y0026977D01*
X0116119Y0027028D01*
X0116264Y0027075D01*
X0116411Y0027118D01*
X0116559Y0027157D01*
X0116708Y0027193D01*
X0116858Y0027224D01*
X0117009Y0027252D01*
X0117160Y0027276D01*
X0117312Y0027296D01*
X0117465Y0027312D01*
X0117617Y0027324D01*
X0117770Y0027332D01*
X0117923Y0027336D01*
X0118077Y0027336D01*
X0118230Y0027332D01*
X0118383Y0027324D01*
X0118535Y0027312D01*
X0118688Y0027296D01*
X0118840Y0027276D01*
X0118991Y0027252D01*
X0119142Y0027224D01*
X0119292Y0027193D01*
X0119441Y0027157D01*
X0119589Y0027118D01*
X0119736Y0027075D01*
X0119881Y0027028D01*
X0120026Y0026977D01*
X0120169Y0026923D01*
X0120311Y0026865D01*
X0120451Y0026803D01*
X0120589Y0026737D01*
X0120726Y0026668D01*
X0120861Y0026596D01*
X0120994Y0026520D01*
X0121125Y0026440D01*
X0121254Y0026358D01*
X0121381Y0026271D01*
X0121505Y0026182D01*
X0121627Y0026089D01*
X0121747Y0025994D01*
X0121864Y0025895D01*
X0121978Y0025793D01*
X0122090Y0025688D01*
X0122199Y0025581D01*
X0122305Y0025470D01*
X0122408Y0025357D01*
X0122509Y0025241D01*
X0122606Y0025123D01*
X0122700Y0025002D01*
X0122791Y0024879D01*
X0122879Y0024754D01*
X0122963Y0024626D01*
X0123045Y0024496D01*
X0123122Y0024364D01*
X0123197Y0024230D01*
X0123267Y0024094D01*
X0123335Y0023956D01*
X0123398Y0023817D01*
X0123458Y0023676D01*
X0123515Y0023534D01*
X0123567Y0023390D01*
X0123616Y0023245D01*
X0123661Y0023098D01*
X0123702Y0022951D01*
X0123740Y0022802D01*
X0123773Y0022653D01*
X0123803Y0022502D01*
X0123829Y0022351D01*
X0123850Y0022200D01*
X0123868Y0022048D01*
X0123882Y0021895D01*
X0123892Y0021742D01*
X0123898Y0021589D01*
X0123900Y0021436D01*
X0123898Y0021283D01*
X0123892Y0021130D01*
X0123882Y0020977D01*
X0123868Y0020824D01*
X0123850Y0020672D01*
X0123829Y0020521D01*
X0123803Y0020370D01*
X0123773Y0020219D01*
X0123740Y0020070D01*
X0123702Y0019921D01*
X0123661Y0019774D01*
X0123616Y0019627D01*
X0123567Y0019482D01*
X0123515Y0019338D01*
X0123458Y0019196D01*
X0123398Y0019055D01*
X0123335Y0018916D01*
X0123267Y0018778D01*
X0123197Y0018642D01*
X0123122Y0018508D01*
X0123045Y0018376D01*
X0122963Y0018246D01*
X0122879Y0018118D01*
X0122791Y0017993D01*
X0122700Y0017870D01*
X0122606Y0017749D01*
X0122509Y0017631D01*
X0122408Y0017515D01*
X0122305Y0017402D01*
X0122199Y0017291D01*
X0122090Y0017184D01*
X0121978Y0017079D01*
X0121864Y0016977D01*
X0121747Y0016878D01*
X0121627Y0016783D01*
X0121505Y0016690D01*
X0121381Y0016601D01*
X0121254Y0016514D01*
X0121125Y0016432D01*
X0120994Y0016352D01*
X0120861Y0016276D01*
X0120726Y0016204D01*
X0120589Y0016135D01*
X0120451Y0016069D01*
X0120311Y0016007D01*
X0120169Y0015949D01*
X0120026Y0015895D01*
X0119881Y0015844D01*
X0119736Y0015797D01*
X0119589Y0015754D01*
X0119441Y0015715D01*
X0119292Y0015679D01*
X0119142Y0015648D01*
X0118991Y0015620D01*
X0118840Y0015596D01*
X0118688Y0015576D01*
X0118535Y0015560D01*
X0118383Y0015548D01*
X0118230Y0015540D01*
X0118077Y0015536D01*
X0117923Y0015536D01*
X0117770Y0015540D01*
X0117617Y0015548D01*
X0117465Y0015560D01*
X0117312Y0015576D01*
X0117160Y0015596D01*
X0117009Y0015620D01*
X0116858Y0015648D01*
X0116708Y0015679D01*
X0116559Y0015715D01*
X0116411Y0015754D01*
X0116264Y0015797D01*
X0116119Y0015844D01*
X0115974Y0015895D01*
X0115831Y0015949D01*
X0115689Y0016007D01*
X0115549Y0016069D01*
X0115411Y0016135D01*
X0115274Y0016204D01*
X0115139Y0016276D01*
X0115006Y0016352D01*
X0114875Y0016432D01*
X0114746Y0016514D01*
X0114619Y0016601D01*
X0114495Y0016690D01*
X0114373Y0016783D01*
X0114253Y0016878D01*
X0114136Y0016977D01*
X0114022Y0017079D01*
X0113910Y0017184D01*
X0113801Y0017291D01*
X0113695Y0017402D01*
X0113592Y0017515D01*
X0113491Y0017631D01*
X0113394Y0017749D01*
X0113300Y0017870D01*
X0113209Y0017993D01*
X0113121Y0018118D01*
X0113037Y0018246D01*
X0112955Y0018376D01*
X0112878Y0018508D01*
X0112803Y0018642D01*
X0112733Y0018778D01*
X0112665Y0018916D01*
X0112602Y0019055D01*
X0112542Y0019196D01*
X0112485Y0019338D01*
X0112433Y0019482D01*
X0112384Y0019627D01*
X0112339Y0019774D01*
X0112298Y0019921D01*
X0112260Y0020070D01*
X0112227Y0020219D01*
X0112197Y0020370D01*
X0112171Y0020521D01*
X0112150Y0020672D01*
X0112132Y0020824D01*
X0112118Y0020977D01*
X0112108Y0021130D01*
X0112102Y0021283D01*
X0112100Y0021436D01*
X0126000Y0061436D02*
X0126000Y0121436D01*
X0138000Y0121436D01*
X0138000Y0061436D01*
X0126000Y0061436D01*
X0184921Y0111620D02*
X0184923Y0111773D01*
X0184929Y0111927D01*
X0184939Y0112080D01*
X0184953Y0112232D01*
X0184971Y0112385D01*
X0184993Y0112536D01*
X0185018Y0112687D01*
X0185048Y0112838D01*
X0185082Y0112988D01*
X0185119Y0113136D01*
X0185160Y0113284D01*
X0185205Y0113430D01*
X0185254Y0113576D01*
X0185307Y0113720D01*
X0185363Y0113862D01*
X0185423Y0114003D01*
X0185487Y0114143D01*
X0185554Y0114281D01*
X0185625Y0114417D01*
X0185700Y0114551D01*
X0185777Y0114683D01*
X0185859Y0114813D01*
X0185943Y0114941D01*
X0186031Y0115067D01*
X0186122Y0115190D01*
X0186216Y0115311D01*
X0186314Y0115429D01*
X0186414Y0115545D01*
X0186518Y0115658D01*
X0186624Y0115769D01*
X0186733Y0115877D01*
X0186845Y0115982D01*
X0186959Y0116083D01*
X0187077Y0116182D01*
X0187196Y0116278D01*
X0187318Y0116371D01*
X0187443Y0116460D01*
X0187570Y0116547D01*
X0187699Y0116629D01*
X0187830Y0116709D01*
X0187963Y0116785D01*
X0188098Y0116858D01*
X0188235Y0116927D01*
X0188374Y0116992D01*
X0188514Y0117054D01*
X0188656Y0117112D01*
X0188799Y0117167D01*
X0188944Y0117218D01*
X0189090Y0117265D01*
X0189237Y0117308D01*
X0189385Y0117347D01*
X0189534Y0117383D01*
X0189684Y0117414D01*
X0189835Y0117442D01*
X0189986Y0117466D01*
X0190139Y0117486D01*
X0190291Y0117502D01*
X0190444Y0117514D01*
X0190597Y0117522D01*
X0190750Y0117526D01*
X0190904Y0117526D01*
X0191057Y0117522D01*
X0191210Y0117514D01*
X0191363Y0117502D01*
X0191515Y0117486D01*
X0191668Y0117466D01*
X0191819Y0117442D01*
X0191970Y0117414D01*
X0192120Y0117383D01*
X0192269Y0117347D01*
X0192417Y0117308D01*
X0192564Y0117265D01*
X0192710Y0117218D01*
X0192855Y0117167D01*
X0192998Y0117112D01*
X0193140Y0117054D01*
X0193280Y0116992D01*
X0193419Y0116927D01*
X0193556Y0116858D01*
X0193691Y0116785D01*
X0193824Y0116709D01*
X0193955Y0116629D01*
X0194084Y0116547D01*
X0194211Y0116460D01*
X0194336Y0116371D01*
X0194458Y0116278D01*
X0194577Y0116182D01*
X0194695Y0116083D01*
X0194809Y0115982D01*
X0194921Y0115877D01*
X0195030Y0115769D01*
X0195136Y0115658D01*
X0195240Y0115545D01*
X0195340Y0115429D01*
X0195438Y0115311D01*
X0195532Y0115190D01*
X0195623Y0115067D01*
X0195711Y0114941D01*
X0195795Y0114813D01*
X0195877Y0114683D01*
X0195954Y0114551D01*
X0196029Y0114417D01*
X0196100Y0114281D01*
X0196167Y0114143D01*
X0196231Y0114003D01*
X0196291Y0113862D01*
X0196347Y0113720D01*
X0196400Y0113576D01*
X0196449Y0113430D01*
X0196494Y0113284D01*
X0196535Y0113136D01*
X0196572Y0112988D01*
X0196606Y0112838D01*
X0196636Y0112687D01*
X0196661Y0112536D01*
X0196683Y0112385D01*
X0196701Y0112232D01*
X0196715Y0112080D01*
X0196725Y0111927D01*
X0196731Y0111773D01*
X0196733Y0111620D01*
X0196731Y0111467D01*
X0196725Y0111313D01*
X0196715Y0111160D01*
X0196701Y0111008D01*
X0196683Y0110855D01*
X0196661Y0110704D01*
X0196636Y0110553D01*
X0196606Y0110402D01*
X0196572Y0110252D01*
X0196535Y0110104D01*
X0196494Y0109956D01*
X0196449Y0109810D01*
X0196400Y0109664D01*
X0196347Y0109520D01*
X0196291Y0109378D01*
X0196231Y0109237D01*
X0196167Y0109097D01*
X0196100Y0108959D01*
X0196029Y0108823D01*
X0195954Y0108689D01*
X0195877Y0108557D01*
X0195795Y0108427D01*
X0195711Y0108299D01*
X0195623Y0108173D01*
X0195532Y0108050D01*
X0195438Y0107929D01*
X0195340Y0107811D01*
X0195240Y0107695D01*
X0195136Y0107582D01*
X0195030Y0107471D01*
X0194921Y0107363D01*
X0194809Y0107258D01*
X0194695Y0107157D01*
X0194577Y0107058D01*
X0194458Y0106962D01*
X0194336Y0106869D01*
X0194211Y0106780D01*
X0194084Y0106693D01*
X0193955Y0106611D01*
X0193824Y0106531D01*
X0193691Y0106455D01*
X0193556Y0106382D01*
X0193419Y0106313D01*
X0193280Y0106248D01*
X0193140Y0106186D01*
X0192998Y0106128D01*
X0192855Y0106073D01*
X0192710Y0106022D01*
X0192564Y0105975D01*
X0192417Y0105932D01*
X0192269Y0105893D01*
X0192120Y0105857D01*
X0191970Y0105826D01*
X0191819Y0105798D01*
X0191668Y0105774D01*
X0191515Y0105754D01*
X0191363Y0105738D01*
X0191210Y0105726D01*
X0191057Y0105718D01*
X0190904Y0105714D01*
X0190750Y0105714D01*
X0190597Y0105718D01*
X0190444Y0105726D01*
X0190291Y0105738D01*
X0190139Y0105754D01*
X0189986Y0105774D01*
X0189835Y0105798D01*
X0189684Y0105826D01*
X0189534Y0105857D01*
X0189385Y0105893D01*
X0189237Y0105932D01*
X0189090Y0105975D01*
X0188944Y0106022D01*
X0188799Y0106073D01*
X0188656Y0106128D01*
X0188514Y0106186D01*
X0188374Y0106248D01*
X0188235Y0106313D01*
X0188098Y0106382D01*
X0187963Y0106455D01*
X0187830Y0106531D01*
X0187699Y0106611D01*
X0187570Y0106693D01*
X0187443Y0106780D01*
X0187318Y0106869D01*
X0187196Y0106962D01*
X0187077Y0107058D01*
X0186959Y0107157D01*
X0186845Y0107258D01*
X0186733Y0107363D01*
X0186624Y0107471D01*
X0186518Y0107582D01*
X0186414Y0107695D01*
X0186314Y0107811D01*
X0186216Y0107929D01*
X0186122Y0108050D01*
X0186031Y0108173D01*
X0185943Y0108299D01*
X0185859Y0108427D01*
X0185777Y0108557D01*
X0185700Y0108689D01*
X0185625Y0108823D01*
X0185554Y0108959D01*
X0185487Y0109097D01*
X0185423Y0109237D01*
X0185363Y0109378D01*
X0185307Y0109520D01*
X0185254Y0109664D01*
X0185205Y0109810D01*
X0185160Y0109956D01*
X0185119Y0110104D01*
X0185082Y0110252D01*
X0185048Y0110402D01*
X0185018Y0110553D01*
X0184993Y0110704D01*
X0184971Y0110855D01*
X0184953Y0111008D01*
X0184939Y0111160D01*
X0184929Y0111313D01*
X0184923Y0111467D01*
X0184921Y0111620D01*
X0234921Y0168339D02*
X0234923Y0168492D01*
X0234929Y0168646D01*
X0234939Y0168799D01*
X0234953Y0168951D01*
X0234971Y0169104D01*
X0234993Y0169255D01*
X0235018Y0169406D01*
X0235048Y0169557D01*
X0235082Y0169707D01*
X0235119Y0169855D01*
X0235160Y0170003D01*
X0235205Y0170149D01*
X0235254Y0170295D01*
X0235307Y0170439D01*
X0235363Y0170581D01*
X0235423Y0170722D01*
X0235487Y0170862D01*
X0235554Y0171000D01*
X0235625Y0171136D01*
X0235700Y0171270D01*
X0235777Y0171402D01*
X0235859Y0171532D01*
X0235943Y0171660D01*
X0236031Y0171786D01*
X0236122Y0171909D01*
X0236216Y0172030D01*
X0236314Y0172148D01*
X0236414Y0172264D01*
X0236518Y0172377D01*
X0236624Y0172488D01*
X0236733Y0172596D01*
X0236845Y0172701D01*
X0236959Y0172802D01*
X0237077Y0172901D01*
X0237196Y0172997D01*
X0237318Y0173090D01*
X0237443Y0173179D01*
X0237570Y0173266D01*
X0237699Y0173348D01*
X0237830Y0173428D01*
X0237963Y0173504D01*
X0238098Y0173577D01*
X0238235Y0173646D01*
X0238374Y0173711D01*
X0238514Y0173773D01*
X0238656Y0173831D01*
X0238799Y0173886D01*
X0238944Y0173937D01*
X0239090Y0173984D01*
X0239237Y0174027D01*
X0239385Y0174066D01*
X0239534Y0174102D01*
X0239684Y0174133D01*
X0239835Y0174161D01*
X0239986Y0174185D01*
X0240139Y0174205D01*
X0240291Y0174221D01*
X0240444Y0174233D01*
X0240597Y0174241D01*
X0240750Y0174245D01*
X0240904Y0174245D01*
X0241057Y0174241D01*
X0241210Y0174233D01*
X0241363Y0174221D01*
X0241515Y0174205D01*
X0241668Y0174185D01*
X0241819Y0174161D01*
X0241970Y0174133D01*
X0242120Y0174102D01*
X0242269Y0174066D01*
X0242417Y0174027D01*
X0242564Y0173984D01*
X0242710Y0173937D01*
X0242855Y0173886D01*
X0242998Y0173831D01*
X0243140Y0173773D01*
X0243280Y0173711D01*
X0243419Y0173646D01*
X0243556Y0173577D01*
X0243691Y0173504D01*
X0243824Y0173428D01*
X0243955Y0173348D01*
X0244084Y0173266D01*
X0244211Y0173179D01*
X0244336Y0173090D01*
X0244458Y0172997D01*
X0244577Y0172901D01*
X0244695Y0172802D01*
X0244809Y0172701D01*
X0244921Y0172596D01*
X0245030Y0172488D01*
X0245136Y0172377D01*
X0245240Y0172264D01*
X0245340Y0172148D01*
X0245438Y0172030D01*
X0245532Y0171909D01*
X0245623Y0171786D01*
X0245711Y0171660D01*
X0245795Y0171532D01*
X0245877Y0171402D01*
X0245954Y0171270D01*
X0246029Y0171136D01*
X0246100Y0171000D01*
X0246167Y0170862D01*
X0246231Y0170722D01*
X0246291Y0170581D01*
X0246347Y0170439D01*
X0246400Y0170295D01*
X0246449Y0170149D01*
X0246494Y0170003D01*
X0246535Y0169855D01*
X0246572Y0169707D01*
X0246606Y0169557D01*
X0246636Y0169406D01*
X0246661Y0169255D01*
X0246683Y0169104D01*
X0246701Y0168951D01*
X0246715Y0168799D01*
X0246725Y0168646D01*
X0246731Y0168492D01*
X0246733Y0168339D01*
X0246731Y0168186D01*
X0246725Y0168032D01*
X0246715Y0167879D01*
X0246701Y0167727D01*
X0246683Y0167574D01*
X0246661Y0167423D01*
X0246636Y0167272D01*
X0246606Y0167121D01*
X0246572Y0166971D01*
X0246535Y0166823D01*
X0246494Y0166675D01*
X0246449Y0166529D01*
X0246400Y0166383D01*
X0246347Y0166239D01*
X0246291Y0166097D01*
X0246231Y0165956D01*
X0246167Y0165816D01*
X0246100Y0165678D01*
X0246029Y0165542D01*
X0245954Y0165408D01*
X0245877Y0165276D01*
X0245795Y0165146D01*
X0245711Y0165018D01*
X0245623Y0164892D01*
X0245532Y0164769D01*
X0245438Y0164648D01*
X0245340Y0164530D01*
X0245240Y0164414D01*
X0245136Y0164301D01*
X0245030Y0164190D01*
X0244921Y0164082D01*
X0244809Y0163977D01*
X0244695Y0163876D01*
X0244577Y0163777D01*
X0244458Y0163681D01*
X0244336Y0163588D01*
X0244211Y0163499D01*
X0244084Y0163412D01*
X0243955Y0163330D01*
X0243824Y0163250D01*
X0243691Y0163174D01*
X0243556Y0163101D01*
X0243419Y0163032D01*
X0243280Y0162967D01*
X0243140Y0162905D01*
X0242998Y0162847D01*
X0242855Y0162792D01*
X0242710Y0162741D01*
X0242564Y0162694D01*
X0242417Y0162651D01*
X0242269Y0162612D01*
X0242120Y0162576D01*
X0241970Y0162545D01*
X0241819Y0162517D01*
X0241668Y0162493D01*
X0241515Y0162473D01*
X0241363Y0162457D01*
X0241210Y0162445D01*
X0241057Y0162437D01*
X0240904Y0162433D01*
X0240750Y0162433D01*
X0240597Y0162437D01*
X0240444Y0162445D01*
X0240291Y0162457D01*
X0240139Y0162473D01*
X0239986Y0162493D01*
X0239835Y0162517D01*
X0239684Y0162545D01*
X0239534Y0162576D01*
X0239385Y0162612D01*
X0239237Y0162651D01*
X0239090Y0162694D01*
X0238944Y0162741D01*
X0238799Y0162792D01*
X0238656Y0162847D01*
X0238514Y0162905D01*
X0238374Y0162967D01*
X0238235Y0163032D01*
X0238098Y0163101D01*
X0237963Y0163174D01*
X0237830Y0163250D01*
X0237699Y0163330D01*
X0237570Y0163412D01*
X0237443Y0163499D01*
X0237318Y0163588D01*
X0237196Y0163681D01*
X0237077Y0163777D01*
X0236959Y0163876D01*
X0236845Y0163977D01*
X0236733Y0164082D01*
X0236624Y0164190D01*
X0236518Y0164301D01*
X0236414Y0164414D01*
X0236314Y0164530D01*
X0236216Y0164648D01*
X0236122Y0164769D01*
X0236031Y0164892D01*
X0235943Y0165018D01*
X0235859Y0165146D01*
X0235777Y0165276D01*
X0235700Y0165408D01*
X0235625Y0165542D01*
X0235554Y0165678D01*
X0235487Y0165816D01*
X0235423Y0165956D01*
X0235363Y0166097D01*
X0235307Y0166239D01*
X0235254Y0166383D01*
X0235205Y0166529D01*
X0235160Y0166675D01*
X0235119Y0166823D01*
X0235082Y0166971D01*
X0235048Y0167121D01*
X0235018Y0167272D01*
X0234993Y0167423D01*
X0234971Y0167574D01*
X0234953Y0167727D01*
X0234939Y0167879D01*
X0234929Y0168032D01*
X0234923Y0168186D01*
X0234921Y0168339D01*
X0229639Y0218046D02*
X0229641Y0218204D01*
X0229647Y0218362D01*
X0229657Y0218520D01*
X0229671Y0218678D01*
X0229689Y0218835D01*
X0229710Y0218992D01*
X0229736Y0219148D01*
X0229766Y0219304D01*
X0229799Y0219459D01*
X0229837Y0219612D01*
X0229878Y0219765D01*
X0229923Y0219917D01*
X0229972Y0220068D01*
X0230025Y0220217D01*
X0230081Y0220365D01*
X0230141Y0220511D01*
X0230205Y0220656D01*
X0230273Y0220799D01*
X0230344Y0220941D01*
X0230418Y0221081D01*
X0230496Y0221218D01*
X0230578Y0221354D01*
X0230662Y0221488D01*
X0230751Y0221619D01*
X0230842Y0221748D01*
X0230937Y0221875D01*
X0231034Y0222000D01*
X0231135Y0222122D01*
X0231239Y0222241D01*
X0231346Y0222358D01*
X0231456Y0222472D01*
X0231569Y0222583D01*
X0231684Y0222692D01*
X0231802Y0222797D01*
X0231923Y0222899D01*
X0232046Y0222999D01*
X0232172Y0223095D01*
X0232300Y0223188D01*
X0232430Y0223278D01*
X0232563Y0223364D01*
X0232698Y0223448D01*
X0232834Y0223527D01*
X0232973Y0223604D01*
X0233114Y0223676D01*
X0233256Y0223746D01*
X0233400Y0223811D01*
X0233546Y0223873D01*
X0233693Y0223931D01*
X0233842Y0223986D01*
X0233992Y0224037D01*
X0234143Y0224084D01*
X0234295Y0224127D01*
X0234448Y0224166D01*
X0234603Y0224202D01*
X0234758Y0224233D01*
X0234914Y0224261D01*
X0235070Y0224285D01*
X0235227Y0224305D01*
X0235385Y0224321D01*
X0235542Y0224333D01*
X0235701Y0224341D01*
X0235859Y0224345D01*
X0236017Y0224345D01*
X0236175Y0224341D01*
X0236334Y0224333D01*
X0236491Y0224321D01*
X0236649Y0224305D01*
X0236806Y0224285D01*
X0236962Y0224261D01*
X0237118Y0224233D01*
X0237273Y0224202D01*
X0237428Y0224166D01*
X0237581Y0224127D01*
X0237733Y0224084D01*
X0237884Y0224037D01*
X0238034Y0223986D01*
X0238183Y0223931D01*
X0238330Y0223873D01*
X0238476Y0223811D01*
X0238620Y0223746D01*
X0238762Y0223676D01*
X0238903Y0223604D01*
X0239042Y0223527D01*
X0239178Y0223448D01*
X0239313Y0223364D01*
X0239446Y0223278D01*
X0239576Y0223188D01*
X0239704Y0223095D01*
X0239830Y0222999D01*
X0239953Y0222899D01*
X0240074Y0222797D01*
X0240192Y0222692D01*
X0240307Y0222583D01*
X0240420Y0222472D01*
X0240530Y0222358D01*
X0240637Y0222241D01*
X0240741Y0222122D01*
X0240842Y0222000D01*
X0240939Y0221875D01*
X0241034Y0221748D01*
X0241125Y0221619D01*
X0241214Y0221488D01*
X0241298Y0221354D01*
X0241380Y0221218D01*
X0241458Y0221081D01*
X0241532Y0220941D01*
X0241603Y0220799D01*
X0241671Y0220656D01*
X0241735Y0220511D01*
X0241795Y0220365D01*
X0241851Y0220217D01*
X0241904Y0220068D01*
X0241953Y0219917D01*
X0241998Y0219765D01*
X0242039Y0219612D01*
X0242077Y0219459D01*
X0242110Y0219304D01*
X0242140Y0219148D01*
X0242166Y0218992D01*
X0242187Y0218835D01*
X0242205Y0218678D01*
X0242219Y0218520D01*
X0242229Y0218362D01*
X0242235Y0218204D01*
X0242237Y0218046D01*
X0242235Y0217888D01*
X0242229Y0217730D01*
X0242219Y0217572D01*
X0242205Y0217414D01*
X0242187Y0217257D01*
X0242166Y0217100D01*
X0242140Y0216944D01*
X0242110Y0216788D01*
X0242077Y0216633D01*
X0242039Y0216480D01*
X0241998Y0216327D01*
X0241953Y0216175D01*
X0241904Y0216024D01*
X0241851Y0215875D01*
X0241795Y0215727D01*
X0241735Y0215581D01*
X0241671Y0215436D01*
X0241603Y0215293D01*
X0241532Y0215151D01*
X0241458Y0215011D01*
X0241380Y0214874D01*
X0241298Y0214738D01*
X0241214Y0214604D01*
X0241125Y0214473D01*
X0241034Y0214344D01*
X0240939Y0214217D01*
X0240842Y0214092D01*
X0240741Y0213970D01*
X0240637Y0213851D01*
X0240530Y0213734D01*
X0240420Y0213620D01*
X0240307Y0213509D01*
X0240192Y0213400D01*
X0240074Y0213295D01*
X0239953Y0213193D01*
X0239830Y0213093D01*
X0239704Y0212997D01*
X0239576Y0212904D01*
X0239446Y0212814D01*
X0239313Y0212728D01*
X0239178Y0212644D01*
X0239042Y0212565D01*
X0238903Y0212488D01*
X0238762Y0212416D01*
X0238620Y0212346D01*
X0238476Y0212281D01*
X0238330Y0212219D01*
X0238183Y0212161D01*
X0238034Y0212106D01*
X0237884Y0212055D01*
X0237733Y0212008D01*
X0237581Y0211965D01*
X0237428Y0211926D01*
X0237273Y0211890D01*
X0237118Y0211859D01*
X0236962Y0211831D01*
X0236806Y0211807D01*
X0236649Y0211787D01*
X0236491Y0211771D01*
X0236334Y0211759D01*
X0236175Y0211751D01*
X0236017Y0211747D01*
X0235859Y0211747D01*
X0235701Y0211751D01*
X0235542Y0211759D01*
X0235385Y0211771D01*
X0235227Y0211787D01*
X0235070Y0211807D01*
X0234914Y0211831D01*
X0234758Y0211859D01*
X0234603Y0211890D01*
X0234448Y0211926D01*
X0234295Y0211965D01*
X0234143Y0212008D01*
X0233992Y0212055D01*
X0233842Y0212106D01*
X0233693Y0212161D01*
X0233546Y0212219D01*
X0233400Y0212281D01*
X0233256Y0212346D01*
X0233114Y0212416D01*
X0232973Y0212488D01*
X0232834Y0212565D01*
X0232698Y0212644D01*
X0232563Y0212728D01*
X0232430Y0212814D01*
X0232300Y0212904D01*
X0232172Y0212997D01*
X0232046Y0213093D01*
X0231923Y0213193D01*
X0231802Y0213295D01*
X0231684Y0213400D01*
X0231569Y0213509D01*
X0231456Y0213620D01*
X0231346Y0213734D01*
X0231239Y0213851D01*
X0231135Y0213970D01*
X0231034Y0214092D01*
X0230937Y0214217D01*
X0230842Y0214344D01*
X0230751Y0214473D01*
X0230662Y0214604D01*
X0230578Y0214738D01*
X0230496Y0214874D01*
X0230418Y0215011D01*
X0230344Y0215151D01*
X0230273Y0215293D01*
X0230205Y0215436D01*
X0230141Y0215581D01*
X0230081Y0215727D01*
X0230025Y0215875D01*
X0229972Y0216024D01*
X0229923Y0216175D01*
X0229878Y0216327D01*
X0229837Y0216480D01*
X0229799Y0216633D01*
X0229766Y0216788D01*
X0229736Y0216944D01*
X0229710Y0217100D01*
X0229689Y0217257D01*
X0229671Y0217414D01*
X0229657Y0217572D01*
X0229647Y0217730D01*
X0229641Y0217888D01*
X0229639Y0218046D01*
X0184639Y0218046D02*
X0184641Y0218204D01*
X0184647Y0218362D01*
X0184657Y0218520D01*
X0184671Y0218678D01*
X0184689Y0218835D01*
X0184710Y0218992D01*
X0184736Y0219148D01*
X0184766Y0219304D01*
X0184799Y0219459D01*
X0184837Y0219612D01*
X0184878Y0219765D01*
X0184923Y0219917D01*
X0184972Y0220068D01*
X0185025Y0220217D01*
X0185081Y0220365D01*
X0185141Y0220511D01*
X0185205Y0220656D01*
X0185273Y0220799D01*
X0185344Y0220941D01*
X0185418Y0221081D01*
X0185496Y0221218D01*
X0185578Y0221354D01*
X0185662Y0221488D01*
X0185751Y0221619D01*
X0185842Y0221748D01*
X0185937Y0221875D01*
X0186034Y0222000D01*
X0186135Y0222122D01*
X0186239Y0222241D01*
X0186346Y0222358D01*
X0186456Y0222472D01*
X0186569Y0222583D01*
X0186684Y0222692D01*
X0186802Y0222797D01*
X0186923Y0222899D01*
X0187046Y0222999D01*
X0187172Y0223095D01*
X0187300Y0223188D01*
X0187430Y0223278D01*
X0187563Y0223364D01*
X0187698Y0223448D01*
X0187834Y0223527D01*
X0187973Y0223604D01*
X0188114Y0223676D01*
X0188256Y0223746D01*
X0188400Y0223811D01*
X0188546Y0223873D01*
X0188693Y0223931D01*
X0188842Y0223986D01*
X0188992Y0224037D01*
X0189143Y0224084D01*
X0189295Y0224127D01*
X0189448Y0224166D01*
X0189603Y0224202D01*
X0189758Y0224233D01*
X0189914Y0224261D01*
X0190070Y0224285D01*
X0190227Y0224305D01*
X0190385Y0224321D01*
X0190542Y0224333D01*
X0190701Y0224341D01*
X0190859Y0224345D01*
X0191017Y0224345D01*
X0191175Y0224341D01*
X0191334Y0224333D01*
X0191491Y0224321D01*
X0191649Y0224305D01*
X0191806Y0224285D01*
X0191962Y0224261D01*
X0192118Y0224233D01*
X0192273Y0224202D01*
X0192428Y0224166D01*
X0192581Y0224127D01*
X0192733Y0224084D01*
X0192884Y0224037D01*
X0193034Y0223986D01*
X0193183Y0223931D01*
X0193330Y0223873D01*
X0193476Y0223811D01*
X0193620Y0223746D01*
X0193762Y0223676D01*
X0193903Y0223604D01*
X0194042Y0223527D01*
X0194178Y0223448D01*
X0194313Y0223364D01*
X0194446Y0223278D01*
X0194576Y0223188D01*
X0194704Y0223095D01*
X0194830Y0222999D01*
X0194953Y0222899D01*
X0195074Y0222797D01*
X0195192Y0222692D01*
X0195307Y0222583D01*
X0195420Y0222472D01*
X0195530Y0222358D01*
X0195637Y0222241D01*
X0195741Y0222122D01*
X0195842Y0222000D01*
X0195939Y0221875D01*
X0196034Y0221748D01*
X0196125Y0221619D01*
X0196214Y0221488D01*
X0196298Y0221354D01*
X0196380Y0221218D01*
X0196458Y0221081D01*
X0196532Y0220941D01*
X0196603Y0220799D01*
X0196671Y0220656D01*
X0196735Y0220511D01*
X0196795Y0220365D01*
X0196851Y0220217D01*
X0196904Y0220068D01*
X0196953Y0219917D01*
X0196998Y0219765D01*
X0197039Y0219612D01*
X0197077Y0219459D01*
X0197110Y0219304D01*
X0197140Y0219148D01*
X0197166Y0218992D01*
X0197187Y0218835D01*
X0197205Y0218678D01*
X0197219Y0218520D01*
X0197229Y0218362D01*
X0197235Y0218204D01*
X0197237Y0218046D01*
X0197235Y0217888D01*
X0197229Y0217730D01*
X0197219Y0217572D01*
X0197205Y0217414D01*
X0197187Y0217257D01*
X0197166Y0217100D01*
X0197140Y0216944D01*
X0197110Y0216788D01*
X0197077Y0216633D01*
X0197039Y0216480D01*
X0196998Y0216327D01*
X0196953Y0216175D01*
X0196904Y0216024D01*
X0196851Y0215875D01*
X0196795Y0215727D01*
X0196735Y0215581D01*
X0196671Y0215436D01*
X0196603Y0215293D01*
X0196532Y0215151D01*
X0196458Y0215011D01*
X0196380Y0214874D01*
X0196298Y0214738D01*
X0196214Y0214604D01*
X0196125Y0214473D01*
X0196034Y0214344D01*
X0195939Y0214217D01*
X0195842Y0214092D01*
X0195741Y0213970D01*
X0195637Y0213851D01*
X0195530Y0213734D01*
X0195420Y0213620D01*
X0195307Y0213509D01*
X0195192Y0213400D01*
X0195074Y0213295D01*
X0194953Y0213193D01*
X0194830Y0213093D01*
X0194704Y0212997D01*
X0194576Y0212904D01*
X0194446Y0212814D01*
X0194313Y0212728D01*
X0194178Y0212644D01*
X0194042Y0212565D01*
X0193903Y0212488D01*
X0193762Y0212416D01*
X0193620Y0212346D01*
X0193476Y0212281D01*
X0193330Y0212219D01*
X0193183Y0212161D01*
X0193034Y0212106D01*
X0192884Y0212055D01*
X0192733Y0212008D01*
X0192581Y0211965D01*
X0192428Y0211926D01*
X0192273Y0211890D01*
X0192118Y0211859D01*
X0191962Y0211831D01*
X0191806Y0211807D01*
X0191649Y0211787D01*
X0191491Y0211771D01*
X0191334Y0211759D01*
X0191175Y0211751D01*
X0191017Y0211747D01*
X0190859Y0211747D01*
X0190701Y0211751D01*
X0190542Y0211759D01*
X0190385Y0211771D01*
X0190227Y0211787D01*
X0190070Y0211807D01*
X0189914Y0211831D01*
X0189758Y0211859D01*
X0189603Y0211890D01*
X0189448Y0211926D01*
X0189295Y0211965D01*
X0189143Y0212008D01*
X0188992Y0212055D01*
X0188842Y0212106D01*
X0188693Y0212161D01*
X0188546Y0212219D01*
X0188400Y0212281D01*
X0188256Y0212346D01*
X0188114Y0212416D01*
X0187973Y0212488D01*
X0187834Y0212565D01*
X0187698Y0212644D01*
X0187563Y0212728D01*
X0187430Y0212814D01*
X0187300Y0212904D01*
X0187172Y0212997D01*
X0187046Y0213093D01*
X0186923Y0213193D01*
X0186802Y0213295D01*
X0186684Y0213400D01*
X0186569Y0213509D01*
X0186456Y0213620D01*
X0186346Y0213734D01*
X0186239Y0213851D01*
X0186135Y0213970D01*
X0186034Y0214092D01*
X0185937Y0214217D01*
X0185842Y0214344D01*
X0185751Y0214473D01*
X0185662Y0214604D01*
X0185578Y0214738D01*
X0185496Y0214874D01*
X0185418Y0215011D01*
X0185344Y0215151D01*
X0185273Y0215293D01*
X0185205Y0215436D01*
X0185141Y0215581D01*
X0185081Y0215727D01*
X0185025Y0215875D01*
X0184972Y0216024D01*
X0184923Y0216175D01*
X0184878Y0216327D01*
X0184837Y0216480D01*
X0184799Y0216633D01*
X0184766Y0216788D01*
X0184736Y0216944D01*
X0184710Y0217100D01*
X0184689Y0217257D01*
X0184671Y0217414D01*
X0184657Y0217572D01*
X0184647Y0217730D01*
X0184641Y0217888D01*
X0184639Y0218046D01*
X0163023Y0194348D02*
X0163025Y0194501D01*
X0163031Y0194655D01*
X0163041Y0194808D01*
X0163055Y0194960D01*
X0163073Y0195113D01*
X0163095Y0195264D01*
X0163120Y0195415D01*
X0163150Y0195566D01*
X0163184Y0195716D01*
X0163221Y0195864D01*
X0163262Y0196012D01*
X0163307Y0196158D01*
X0163356Y0196304D01*
X0163409Y0196448D01*
X0163465Y0196590D01*
X0163525Y0196731D01*
X0163589Y0196871D01*
X0163656Y0197009D01*
X0163727Y0197145D01*
X0163802Y0197279D01*
X0163879Y0197411D01*
X0163961Y0197541D01*
X0164045Y0197669D01*
X0164133Y0197795D01*
X0164224Y0197918D01*
X0164318Y0198039D01*
X0164416Y0198157D01*
X0164516Y0198273D01*
X0164620Y0198386D01*
X0164726Y0198497D01*
X0164835Y0198605D01*
X0164947Y0198710D01*
X0165061Y0198811D01*
X0165179Y0198910D01*
X0165298Y0199006D01*
X0165420Y0199099D01*
X0165545Y0199188D01*
X0165672Y0199275D01*
X0165801Y0199357D01*
X0165932Y0199437D01*
X0166065Y0199513D01*
X0166200Y0199586D01*
X0166337Y0199655D01*
X0166476Y0199720D01*
X0166616Y0199782D01*
X0166758Y0199840D01*
X0166901Y0199895D01*
X0167046Y0199946D01*
X0167192Y0199993D01*
X0167339Y0200036D01*
X0167487Y0200075D01*
X0167636Y0200111D01*
X0167786Y0200142D01*
X0167937Y0200170D01*
X0168088Y0200194D01*
X0168241Y0200214D01*
X0168393Y0200230D01*
X0168546Y0200242D01*
X0168699Y0200250D01*
X0168852Y0200254D01*
X0169006Y0200254D01*
X0169159Y0200250D01*
X0169312Y0200242D01*
X0169465Y0200230D01*
X0169617Y0200214D01*
X0169770Y0200194D01*
X0169921Y0200170D01*
X0170072Y0200142D01*
X0170222Y0200111D01*
X0170371Y0200075D01*
X0170519Y0200036D01*
X0170666Y0199993D01*
X0170812Y0199946D01*
X0170957Y0199895D01*
X0171100Y0199840D01*
X0171242Y0199782D01*
X0171382Y0199720D01*
X0171521Y0199655D01*
X0171658Y0199586D01*
X0171793Y0199513D01*
X0171926Y0199437D01*
X0172057Y0199357D01*
X0172186Y0199275D01*
X0172313Y0199188D01*
X0172438Y0199099D01*
X0172560Y0199006D01*
X0172679Y0198910D01*
X0172797Y0198811D01*
X0172911Y0198710D01*
X0173023Y0198605D01*
X0173132Y0198497D01*
X0173238Y0198386D01*
X0173342Y0198273D01*
X0173442Y0198157D01*
X0173540Y0198039D01*
X0173634Y0197918D01*
X0173725Y0197795D01*
X0173813Y0197669D01*
X0173897Y0197541D01*
X0173979Y0197411D01*
X0174056Y0197279D01*
X0174131Y0197145D01*
X0174202Y0197009D01*
X0174269Y0196871D01*
X0174333Y0196731D01*
X0174393Y0196590D01*
X0174449Y0196448D01*
X0174502Y0196304D01*
X0174551Y0196158D01*
X0174596Y0196012D01*
X0174637Y0195864D01*
X0174674Y0195716D01*
X0174708Y0195566D01*
X0174738Y0195415D01*
X0174763Y0195264D01*
X0174785Y0195113D01*
X0174803Y0194960D01*
X0174817Y0194808D01*
X0174827Y0194655D01*
X0174833Y0194501D01*
X0174835Y0194348D01*
X0174833Y0194195D01*
X0174827Y0194041D01*
X0174817Y0193888D01*
X0174803Y0193736D01*
X0174785Y0193583D01*
X0174763Y0193432D01*
X0174738Y0193281D01*
X0174708Y0193130D01*
X0174674Y0192980D01*
X0174637Y0192832D01*
X0174596Y0192684D01*
X0174551Y0192538D01*
X0174502Y0192392D01*
X0174449Y0192248D01*
X0174393Y0192106D01*
X0174333Y0191965D01*
X0174269Y0191825D01*
X0174202Y0191687D01*
X0174131Y0191551D01*
X0174056Y0191417D01*
X0173979Y0191285D01*
X0173897Y0191155D01*
X0173813Y0191027D01*
X0173725Y0190901D01*
X0173634Y0190778D01*
X0173540Y0190657D01*
X0173442Y0190539D01*
X0173342Y0190423D01*
X0173238Y0190310D01*
X0173132Y0190199D01*
X0173023Y0190091D01*
X0172911Y0189986D01*
X0172797Y0189885D01*
X0172679Y0189786D01*
X0172560Y0189690D01*
X0172438Y0189597D01*
X0172313Y0189508D01*
X0172186Y0189421D01*
X0172057Y0189339D01*
X0171926Y0189259D01*
X0171793Y0189183D01*
X0171658Y0189110D01*
X0171521Y0189041D01*
X0171382Y0188976D01*
X0171242Y0188914D01*
X0171100Y0188856D01*
X0170957Y0188801D01*
X0170812Y0188750D01*
X0170666Y0188703D01*
X0170519Y0188660D01*
X0170371Y0188621D01*
X0170222Y0188585D01*
X0170072Y0188554D01*
X0169921Y0188526D01*
X0169770Y0188502D01*
X0169617Y0188482D01*
X0169465Y0188466D01*
X0169312Y0188454D01*
X0169159Y0188446D01*
X0169006Y0188442D01*
X0168852Y0188442D01*
X0168699Y0188446D01*
X0168546Y0188454D01*
X0168393Y0188466D01*
X0168241Y0188482D01*
X0168088Y0188502D01*
X0167937Y0188526D01*
X0167786Y0188554D01*
X0167636Y0188585D01*
X0167487Y0188621D01*
X0167339Y0188660D01*
X0167192Y0188703D01*
X0167046Y0188750D01*
X0166901Y0188801D01*
X0166758Y0188856D01*
X0166616Y0188914D01*
X0166476Y0188976D01*
X0166337Y0189041D01*
X0166200Y0189110D01*
X0166065Y0189183D01*
X0165932Y0189259D01*
X0165801Y0189339D01*
X0165672Y0189421D01*
X0165545Y0189508D01*
X0165420Y0189597D01*
X0165298Y0189690D01*
X0165179Y0189786D01*
X0165061Y0189885D01*
X0164947Y0189986D01*
X0164835Y0190091D01*
X0164726Y0190199D01*
X0164620Y0190310D01*
X0164516Y0190423D01*
X0164416Y0190539D01*
X0164318Y0190657D01*
X0164224Y0190778D01*
X0164133Y0190901D01*
X0164045Y0191027D01*
X0163961Y0191155D01*
X0163879Y0191285D01*
X0163802Y0191417D01*
X0163727Y0191551D01*
X0163656Y0191687D01*
X0163589Y0191825D01*
X0163525Y0191965D01*
X0163465Y0192106D01*
X0163409Y0192248D01*
X0163356Y0192392D01*
X0163307Y0192538D01*
X0163262Y0192684D01*
X0163221Y0192832D01*
X0163184Y0192980D01*
X0163150Y0193130D01*
X0163120Y0193281D01*
X0163095Y0193432D01*
X0163073Y0193583D01*
X0163055Y0193736D01*
X0163041Y0193888D01*
X0163031Y0194041D01*
X0163025Y0194195D01*
X0163023Y0194348D01*
X0109100Y0165436D02*
X0109102Y0165589D01*
X0109108Y0165742D01*
X0109118Y0165895D01*
X0109132Y0166048D01*
X0109150Y0166200D01*
X0109171Y0166351D01*
X0109197Y0166502D01*
X0109227Y0166653D01*
X0109260Y0166802D01*
X0109298Y0166951D01*
X0109339Y0167098D01*
X0109384Y0167245D01*
X0109433Y0167390D01*
X0109485Y0167534D01*
X0109542Y0167676D01*
X0109602Y0167817D01*
X0109665Y0167956D01*
X0109733Y0168094D01*
X0109803Y0168230D01*
X0109878Y0168364D01*
X0109955Y0168496D01*
X0110037Y0168626D01*
X0110121Y0168754D01*
X0110209Y0168879D01*
X0110300Y0169002D01*
X0110394Y0169123D01*
X0110491Y0169241D01*
X0110592Y0169357D01*
X0110695Y0169470D01*
X0110801Y0169581D01*
X0110910Y0169688D01*
X0111022Y0169793D01*
X0111136Y0169895D01*
X0111253Y0169994D01*
X0111373Y0170089D01*
X0111495Y0170182D01*
X0111619Y0170271D01*
X0111746Y0170358D01*
X0111875Y0170440D01*
X0112006Y0170520D01*
X0112139Y0170596D01*
X0112274Y0170668D01*
X0112411Y0170737D01*
X0112549Y0170803D01*
X0112689Y0170865D01*
X0112831Y0170923D01*
X0112974Y0170977D01*
X0113119Y0171028D01*
X0113264Y0171075D01*
X0113411Y0171118D01*
X0113559Y0171157D01*
X0113708Y0171193D01*
X0113858Y0171224D01*
X0114009Y0171252D01*
X0114160Y0171276D01*
X0114312Y0171296D01*
X0114465Y0171312D01*
X0114617Y0171324D01*
X0114770Y0171332D01*
X0114923Y0171336D01*
X0115077Y0171336D01*
X0115230Y0171332D01*
X0115383Y0171324D01*
X0115535Y0171312D01*
X0115688Y0171296D01*
X0115840Y0171276D01*
X0115991Y0171252D01*
X0116142Y0171224D01*
X0116292Y0171193D01*
X0116441Y0171157D01*
X0116589Y0171118D01*
X0116736Y0171075D01*
X0116881Y0171028D01*
X0117026Y0170977D01*
X0117169Y0170923D01*
X0117311Y0170865D01*
X0117451Y0170803D01*
X0117589Y0170737D01*
X0117726Y0170668D01*
X0117861Y0170596D01*
X0117994Y0170520D01*
X0118125Y0170440D01*
X0118254Y0170358D01*
X0118381Y0170271D01*
X0118505Y0170182D01*
X0118627Y0170089D01*
X0118747Y0169994D01*
X0118864Y0169895D01*
X0118978Y0169793D01*
X0119090Y0169688D01*
X0119199Y0169581D01*
X0119305Y0169470D01*
X0119408Y0169357D01*
X0119509Y0169241D01*
X0119606Y0169123D01*
X0119700Y0169002D01*
X0119791Y0168879D01*
X0119879Y0168754D01*
X0119963Y0168626D01*
X0120045Y0168496D01*
X0120122Y0168364D01*
X0120197Y0168230D01*
X0120267Y0168094D01*
X0120335Y0167956D01*
X0120398Y0167817D01*
X0120458Y0167676D01*
X0120515Y0167534D01*
X0120567Y0167390D01*
X0120616Y0167245D01*
X0120661Y0167098D01*
X0120702Y0166951D01*
X0120740Y0166802D01*
X0120773Y0166653D01*
X0120803Y0166502D01*
X0120829Y0166351D01*
X0120850Y0166200D01*
X0120868Y0166048D01*
X0120882Y0165895D01*
X0120892Y0165742D01*
X0120898Y0165589D01*
X0120900Y0165436D01*
X0120898Y0165283D01*
X0120892Y0165130D01*
X0120882Y0164977D01*
X0120868Y0164824D01*
X0120850Y0164672D01*
X0120829Y0164521D01*
X0120803Y0164370D01*
X0120773Y0164219D01*
X0120740Y0164070D01*
X0120702Y0163921D01*
X0120661Y0163774D01*
X0120616Y0163627D01*
X0120567Y0163482D01*
X0120515Y0163338D01*
X0120458Y0163196D01*
X0120398Y0163055D01*
X0120335Y0162916D01*
X0120267Y0162778D01*
X0120197Y0162642D01*
X0120122Y0162508D01*
X0120045Y0162376D01*
X0119963Y0162246D01*
X0119879Y0162118D01*
X0119791Y0161993D01*
X0119700Y0161870D01*
X0119606Y0161749D01*
X0119509Y0161631D01*
X0119408Y0161515D01*
X0119305Y0161402D01*
X0119199Y0161291D01*
X0119090Y0161184D01*
X0118978Y0161079D01*
X0118864Y0160977D01*
X0118747Y0160878D01*
X0118627Y0160783D01*
X0118505Y0160690D01*
X0118381Y0160601D01*
X0118254Y0160514D01*
X0118125Y0160432D01*
X0117994Y0160352D01*
X0117861Y0160276D01*
X0117726Y0160204D01*
X0117589Y0160135D01*
X0117451Y0160069D01*
X0117311Y0160007D01*
X0117169Y0159949D01*
X0117026Y0159895D01*
X0116881Y0159844D01*
X0116736Y0159797D01*
X0116589Y0159754D01*
X0116441Y0159715D01*
X0116292Y0159679D01*
X0116142Y0159648D01*
X0115991Y0159620D01*
X0115840Y0159596D01*
X0115688Y0159576D01*
X0115535Y0159560D01*
X0115383Y0159548D01*
X0115230Y0159540D01*
X0115077Y0159536D01*
X0114923Y0159536D01*
X0114770Y0159540D01*
X0114617Y0159548D01*
X0114465Y0159560D01*
X0114312Y0159576D01*
X0114160Y0159596D01*
X0114009Y0159620D01*
X0113858Y0159648D01*
X0113708Y0159679D01*
X0113559Y0159715D01*
X0113411Y0159754D01*
X0113264Y0159797D01*
X0113119Y0159844D01*
X0112974Y0159895D01*
X0112831Y0159949D01*
X0112689Y0160007D01*
X0112549Y0160069D01*
X0112411Y0160135D01*
X0112274Y0160204D01*
X0112139Y0160276D01*
X0112006Y0160352D01*
X0111875Y0160432D01*
X0111746Y0160514D01*
X0111619Y0160601D01*
X0111495Y0160690D01*
X0111373Y0160783D01*
X0111253Y0160878D01*
X0111136Y0160977D01*
X0111022Y0161079D01*
X0110910Y0161184D01*
X0110801Y0161291D01*
X0110695Y0161402D01*
X0110592Y0161515D01*
X0110491Y0161631D01*
X0110394Y0161749D01*
X0110300Y0161870D01*
X0110209Y0161993D01*
X0110121Y0162118D01*
X0110037Y0162246D01*
X0109955Y0162376D01*
X0109878Y0162508D01*
X0109803Y0162642D01*
X0109733Y0162778D01*
X0109665Y0162916D01*
X0109602Y0163055D01*
X0109542Y0163196D01*
X0109485Y0163338D01*
X0109433Y0163482D01*
X0109384Y0163627D01*
X0109339Y0163774D01*
X0109298Y0163921D01*
X0109260Y0164070D01*
X0109227Y0164219D01*
X0109197Y0164370D01*
X0109171Y0164521D01*
X0109150Y0164672D01*
X0109132Y0164824D01*
X0109118Y0164977D01*
X0109108Y0165130D01*
X0109102Y0165283D01*
X0109100Y0165436D01*
X0006100Y0165436D02*
X0006102Y0165589D01*
X0006108Y0165742D01*
X0006118Y0165895D01*
X0006132Y0166048D01*
X0006150Y0166200D01*
X0006171Y0166351D01*
X0006197Y0166502D01*
X0006227Y0166653D01*
X0006260Y0166802D01*
X0006298Y0166951D01*
X0006339Y0167098D01*
X0006384Y0167245D01*
X0006433Y0167390D01*
X0006485Y0167534D01*
X0006542Y0167676D01*
X0006602Y0167817D01*
X0006665Y0167956D01*
X0006733Y0168094D01*
X0006803Y0168230D01*
X0006878Y0168364D01*
X0006955Y0168496D01*
X0007037Y0168626D01*
X0007121Y0168754D01*
X0007209Y0168879D01*
X0007300Y0169002D01*
X0007394Y0169123D01*
X0007491Y0169241D01*
X0007592Y0169357D01*
X0007695Y0169470D01*
X0007801Y0169581D01*
X0007910Y0169688D01*
X0008022Y0169793D01*
X0008136Y0169895D01*
X0008253Y0169994D01*
X0008373Y0170089D01*
X0008495Y0170182D01*
X0008619Y0170271D01*
X0008746Y0170358D01*
X0008875Y0170440D01*
X0009006Y0170520D01*
X0009139Y0170596D01*
X0009274Y0170668D01*
X0009411Y0170737D01*
X0009549Y0170803D01*
X0009689Y0170865D01*
X0009831Y0170923D01*
X0009974Y0170977D01*
X0010119Y0171028D01*
X0010264Y0171075D01*
X0010411Y0171118D01*
X0010559Y0171157D01*
X0010708Y0171193D01*
X0010858Y0171224D01*
X0011009Y0171252D01*
X0011160Y0171276D01*
X0011312Y0171296D01*
X0011465Y0171312D01*
X0011617Y0171324D01*
X0011770Y0171332D01*
X0011923Y0171336D01*
X0012077Y0171336D01*
X0012230Y0171332D01*
X0012383Y0171324D01*
X0012535Y0171312D01*
X0012688Y0171296D01*
X0012840Y0171276D01*
X0012991Y0171252D01*
X0013142Y0171224D01*
X0013292Y0171193D01*
X0013441Y0171157D01*
X0013589Y0171118D01*
X0013736Y0171075D01*
X0013881Y0171028D01*
X0014026Y0170977D01*
X0014169Y0170923D01*
X0014311Y0170865D01*
X0014451Y0170803D01*
X0014589Y0170737D01*
X0014726Y0170668D01*
X0014861Y0170596D01*
X0014994Y0170520D01*
X0015125Y0170440D01*
X0015254Y0170358D01*
X0015381Y0170271D01*
X0015505Y0170182D01*
X0015627Y0170089D01*
X0015747Y0169994D01*
X0015864Y0169895D01*
X0015978Y0169793D01*
X0016090Y0169688D01*
X0016199Y0169581D01*
X0016305Y0169470D01*
X0016408Y0169357D01*
X0016509Y0169241D01*
X0016606Y0169123D01*
X0016700Y0169002D01*
X0016791Y0168879D01*
X0016879Y0168754D01*
X0016963Y0168626D01*
X0017045Y0168496D01*
X0017122Y0168364D01*
X0017197Y0168230D01*
X0017267Y0168094D01*
X0017335Y0167956D01*
X0017398Y0167817D01*
X0017458Y0167676D01*
X0017515Y0167534D01*
X0017567Y0167390D01*
X0017616Y0167245D01*
X0017661Y0167098D01*
X0017702Y0166951D01*
X0017740Y0166802D01*
X0017773Y0166653D01*
X0017803Y0166502D01*
X0017829Y0166351D01*
X0017850Y0166200D01*
X0017868Y0166048D01*
X0017882Y0165895D01*
X0017892Y0165742D01*
X0017898Y0165589D01*
X0017900Y0165436D01*
X0017898Y0165283D01*
X0017892Y0165130D01*
X0017882Y0164977D01*
X0017868Y0164824D01*
X0017850Y0164672D01*
X0017829Y0164521D01*
X0017803Y0164370D01*
X0017773Y0164219D01*
X0017740Y0164070D01*
X0017702Y0163921D01*
X0017661Y0163774D01*
X0017616Y0163627D01*
X0017567Y0163482D01*
X0017515Y0163338D01*
X0017458Y0163196D01*
X0017398Y0163055D01*
X0017335Y0162916D01*
X0017267Y0162778D01*
X0017197Y0162642D01*
X0017122Y0162508D01*
X0017045Y0162376D01*
X0016963Y0162246D01*
X0016879Y0162118D01*
X0016791Y0161993D01*
X0016700Y0161870D01*
X0016606Y0161749D01*
X0016509Y0161631D01*
X0016408Y0161515D01*
X0016305Y0161402D01*
X0016199Y0161291D01*
X0016090Y0161184D01*
X0015978Y0161079D01*
X0015864Y0160977D01*
X0015747Y0160878D01*
X0015627Y0160783D01*
X0015505Y0160690D01*
X0015381Y0160601D01*
X0015254Y0160514D01*
X0015125Y0160432D01*
X0014994Y0160352D01*
X0014861Y0160276D01*
X0014726Y0160204D01*
X0014589Y0160135D01*
X0014451Y0160069D01*
X0014311Y0160007D01*
X0014169Y0159949D01*
X0014026Y0159895D01*
X0013881Y0159844D01*
X0013736Y0159797D01*
X0013589Y0159754D01*
X0013441Y0159715D01*
X0013292Y0159679D01*
X0013142Y0159648D01*
X0012991Y0159620D01*
X0012840Y0159596D01*
X0012688Y0159576D01*
X0012535Y0159560D01*
X0012383Y0159548D01*
X0012230Y0159540D01*
X0012077Y0159536D01*
X0011923Y0159536D01*
X0011770Y0159540D01*
X0011617Y0159548D01*
X0011465Y0159560D01*
X0011312Y0159576D01*
X0011160Y0159596D01*
X0011009Y0159620D01*
X0010858Y0159648D01*
X0010708Y0159679D01*
X0010559Y0159715D01*
X0010411Y0159754D01*
X0010264Y0159797D01*
X0010119Y0159844D01*
X0009974Y0159895D01*
X0009831Y0159949D01*
X0009689Y0160007D01*
X0009549Y0160069D01*
X0009411Y0160135D01*
X0009274Y0160204D01*
X0009139Y0160276D01*
X0009006Y0160352D01*
X0008875Y0160432D01*
X0008746Y0160514D01*
X0008619Y0160601D01*
X0008495Y0160690D01*
X0008373Y0160783D01*
X0008253Y0160878D01*
X0008136Y0160977D01*
X0008022Y0161079D01*
X0007910Y0161184D01*
X0007801Y0161291D01*
X0007695Y0161402D01*
X0007592Y0161515D01*
X0007491Y0161631D01*
X0007394Y0161749D01*
X0007300Y0161870D01*
X0007209Y0161993D01*
X0007121Y0162118D01*
X0007037Y0162246D01*
X0006955Y0162376D01*
X0006878Y0162508D01*
X0006803Y0162642D01*
X0006733Y0162778D01*
X0006665Y0162916D01*
X0006602Y0163055D01*
X0006542Y0163196D01*
X0006485Y0163338D01*
X0006433Y0163482D01*
X0006384Y0163627D01*
X0006339Y0163774D01*
X0006298Y0163921D01*
X0006260Y0164070D01*
X0006227Y0164219D01*
X0006197Y0164370D01*
X0006171Y0164521D01*
X0006150Y0164672D01*
X0006132Y0164824D01*
X0006118Y0164977D01*
X0006108Y0165130D01*
X0006102Y0165283D01*
X0006100Y0165436D01*
D11*
X0149895Y0116603D02*
X0151865Y0116603D01*
X0149895Y0116603D02*
X0149895Y0116603D01*
X0151865Y0116603D01*
X0151865Y0116603D01*
X0151865Y0115028D02*
X0149895Y0115028D01*
X0149895Y0115028D01*
X0151865Y0115028D01*
X0151865Y0115028D01*
X0151865Y0113454D02*
X0149895Y0113454D01*
X0149895Y0113454D01*
X0151865Y0113454D01*
X0151865Y0113454D01*
X0151865Y0111879D02*
X0149895Y0111879D01*
X0149895Y0111879D01*
X0151865Y0111879D01*
X0151865Y0111879D01*
X0151865Y0110304D02*
X0149895Y0110304D01*
X0149895Y0110304D01*
X0151865Y0110304D01*
X0151865Y0110304D01*
X0151865Y0108729D02*
X0149895Y0108729D01*
X0149895Y0108729D01*
X0151865Y0108729D01*
X0151865Y0108729D01*
X0153046Y0107549D02*
X0153046Y0105579D01*
X0153046Y0105579D01*
X0153046Y0107549D01*
X0153046Y0107549D01*
X0153046Y0106365D02*
X0153046Y0106365D01*
X0153046Y0107151D02*
X0153046Y0107151D01*
X0154620Y0107549D02*
X0154620Y0105579D01*
X0154620Y0105579D01*
X0154620Y0107549D01*
X0154620Y0107549D01*
X0154620Y0106365D02*
X0154620Y0106365D01*
X0154620Y0107151D02*
X0154620Y0107151D01*
X0156195Y0107549D02*
X0156195Y0105579D01*
X0156195Y0105579D01*
X0156195Y0107549D01*
X0156195Y0107549D01*
X0156195Y0106365D02*
X0156195Y0106365D01*
X0156195Y0107151D02*
X0156195Y0107151D01*
X0157770Y0107549D02*
X0157770Y0105579D01*
X0157770Y0105579D01*
X0157770Y0107549D01*
X0157770Y0107549D01*
X0157770Y0106365D02*
X0157770Y0106365D01*
X0157770Y0107151D02*
X0157770Y0107151D01*
X0159345Y0107549D02*
X0159345Y0105579D01*
X0159345Y0105579D01*
X0159345Y0107549D01*
X0159345Y0107549D01*
X0159345Y0106365D02*
X0159345Y0106365D01*
X0159345Y0107151D02*
X0159345Y0107151D01*
X0160920Y0107549D02*
X0160920Y0105579D01*
X0160920Y0105579D01*
X0160920Y0107549D01*
X0160920Y0107549D01*
X0160920Y0106365D02*
X0160920Y0106365D01*
X0160920Y0107151D02*
X0160920Y0107151D01*
X0162100Y0108729D02*
X0164070Y0108729D01*
X0164070Y0108729D01*
X0162100Y0108729D01*
X0162100Y0108729D01*
X0162100Y0110304D02*
X0164070Y0110304D01*
X0164070Y0110304D01*
X0162100Y0110304D01*
X0162100Y0110304D01*
X0162100Y0111879D02*
X0164070Y0111879D01*
X0164070Y0111879D01*
X0162100Y0111879D01*
X0162100Y0111879D01*
X0162100Y0113454D02*
X0164070Y0113454D01*
X0164070Y0113454D01*
X0162100Y0113454D01*
X0162100Y0113454D01*
X0162100Y0115028D02*
X0164070Y0115028D01*
X0164070Y0115028D01*
X0162100Y0115028D01*
X0162100Y0115028D01*
X0162100Y0116603D02*
X0164070Y0116603D01*
X0164070Y0116603D01*
X0162100Y0116603D01*
X0162100Y0116603D01*
X0160920Y0117784D02*
X0160920Y0119754D01*
X0160920Y0119754D01*
X0160920Y0117784D01*
X0160920Y0117784D01*
X0160920Y0118570D02*
X0160920Y0118570D01*
X0160920Y0119356D02*
X0160920Y0119356D01*
X0159345Y0119754D02*
X0159345Y0117784D01*
X0159345Y0119754D02*
X0159345Y0119754D01*
X0159345Y0117784D01*
X0159345Y0117784D01*
X0159345Y0118570D02*
X0159345Y0118570D01*
X0159345Y0119356D02*
X0159345Y0119356D01*
X0157770Y0119754D02*
X0157770Y0117784D01*
X0157770Y0119754D02*
X0157770Y0119754D01*
X0157770Y0117784D01*
X0157770Y0117784D01*
X0157770Y0118570D02*
X0157770Y0118570D01*
X0157770Y0119356D02*
X0157770Y0119356D01*
X0156195Y0119754D02*
X0156195Y0117784D01*
X0156195Y0119754D02*
X0156195Y0119754D01*
X0156195Y0117784D01*
X0156195Y0117784D01*
X0156195Y0118570D02*
X0156195Y0118570D01*
X0156195Y0119356D02*
X0156195Y0119356D01*
X0154620Y0119754D02*
X0154620Y0117784D01*
X0154620Y0119754D02*
X0154620Y0119754D01*
X0154620Y0117784D01*
X0154620Y0117784D01*
X0154620Y0118570D02*
X0154620Y0118570D01*
X0154620Y0119356D02*
X0154620Y0119356D01*
X0153046Y0119754D02*
X0153046Y0117784D01*
X0153046Y0119754D02*
X0153046Y0119754D01*
X0153046Y0117784D01*
X0153046Y0117784D01*
X0153046Y0118570D02*
X0153046Y0118570D01*
X0153046Y0119356D02*
X0153046Y0119356D01*
D12*
X0195938Y0183046D03*
X0205938Y0183046D03*
X0215938Y0183046D03*
X0225938Y0183046D03*
X0230938Y0193046D03*
X0220938Y0193046D03*
X0210938Y0193046D03*
X0200938Y0193046D03*
D13*
X0183595Y0206216D03*
X0243438Y0206216D03*
D14*
X0228339Y0231354D03*
X0238339Y0237338D03*
X0198536Y0237338D03*
X0188536Y0231354D03*
D15*
X0161693Y0234087D03*
X0161693Y0226213D03*
X0161693Y0218339D03*
X0161693Y0210465D03*
D16*
X0150984Y0209402D03*
X0172402Y0209402D03*
X0172402Y0236961D03*
X0150984Y0236961D03*
D17*
X0160119Y0099047D02*
X0160119Y0092749D01*
X0160119Y0099047D02*
X0161299Y0099047D01*
X0161299Y0092749D01*
X0160119Y0092749D01*
X0160119Y0095504D02*
X0161299Y0095504D01*
X0161299Y0098259D02*
X0160119Y0098259D01*
X0165040Y0099047D02*
X0165040Y0092749D01*
X0165040Y0099047D02*
X0166220Y0099047D01*
X0166220Y0092749D01*
X0165040Y0092749D01*
X0165040Y0095504D02*
X0166220Y0095504D01*
X0166220Y0098259D02*
X0165040Y0098259D01*
X0169961Y0099047D02*
X0169961Y0092749D01*
X0169961Y0099047D02*
X0171141Y0099047D01*
X0171141Y0092749D01*
X0169961Y0092749D01*
X0169961Y0095504D02*
X0171141Y0095504D01*
X0171141Y0098259D02*
X0169961Y0098259D01*
X0174882Y0099047D02*
X0174882Y0092749D01*
X0174882Y0099047D02*
X0176062Y0099047D01*
X0176062Y0092749D01*
X0174882Y0092749D01*
X0174882Y0095504D02*
X0176062Y0095504D01*
X0176062Y0098259D02*
X0174882Y0098259D01*
X0179804Y0099047D02*
X0179804Y0092749D01*
X0179804Y0099047D02*
X0180984Y0099047D01*
X0180984Y0092749D01*
X0179804Y0092749D01*
X0179804Y0095504D02*
X0180984Y0095504D01*
X0180984Y0098259D02*
X0179804Y0098259D01*
X0184725Y0099047D02*
X0184725Y0092749D01*
X0184725Y0099047D02*
X0185905Y0099047D01*
X0185905Y0092749D01*
X0184725Y0092749D01*
X0184725Y0095504D02*
X0185905Y0095504D01*
X0185905Y0098259D02*
X0184725Y0098259D01*
X0189646Y0099047D02*
X0189646Y0092749D01*
X0189646Y0099047D02*
X0190826Y0099047D01*
X0190826Y0092749D01*
X0189646Y0092749D01*
X0189646Y0095504D02*
X0190826Y0095504D01*
X0190826Y0098259D02*
X0189646Y0098259D01*
X0194567Y0099047D02*
X0194567Y0092749D01*
X0194567Y0099047D02*
X0195747Y0099047D01*
X0195747Y0092749D01*
X0194567Y0092749D01*
X0194567Y0095504D02*
X0195747Y0095504D01*
X0195747Y0098259D02*
X0194567Y0098259D01*
X0201654Y0093141D02*
X0207952Y0093141D01*
X0207952Y0091961D01*
X0201654Y0091961D01*
X0201654Y0093141D01*
X0201654Y0088220D02*
X0207952Y0088220D01*
X0207952Y0087040D01*
X0201654Y0087040D01*
X0201654Y0088220D01*
X0201654Y0083299D02*
X0207952Y0083299D01*
X0207952Y0082119D01*
X0201654Y0082119D01*
X0201654Y0083299D01*
X0201654Y0078377D02*
X0207952Y0078377D01*
X0207952Y0077197D01*
X0201654Y0077197D01*
X0201654Y0078377D01*
X0201654Y0073456D02*
X0207952Y0073456D01*
X0207952Y0072276D01*
X0201654Y0072276D01*
X0201654Y0073456D01*
X0201654Y0068535D02*
X0207952Y0068535D01*
X0207952Y0067355D01*
X0201654Y0067355D01*
X0201654Y0068535D01*
X0201654Y0063614D02*
X0207952Y0063614D01*
X0207952Y0062434D01*
X0201654Y0062434D01*
X0201654Y0063614D01*
X0201654Y0058692D02*
X0207952Y0058692D01*
X0207952Y0057512D01*
X0201654Y0057512D01*
X0201654Y0058692D01*
X0201654Y0053771D02*
X0207952Y0053771D01*
X0207952Y0052591D01*
X0201654Y0052591D01*
X0201654Y0053771D01*
X0201654Y0048850D02*
X0207952Y0048850D01*
X0207952Y0047670D01*
X0201654Y0047670D01*
X0201654Y0048850D01*
X0201654Y0043929D02*
X0207952Y0043929D01*
X0207952Y0042749D01*
X0201654Y0042749D01*
X0201654Y0043929D01*
X0201654Y0039007D02*
X0207952Y0039007D01*
X0207952Y0037827D01*
X0201654Y0037827D01*
X0201654Y0039007D01*
X0201654Y0034086D02*
X0207952Y0034086D01*
X0207952Y0032906D01*
X0201654Y0032906D01*
X0201654Y0034086D01*
X0201654Y0029165D02*
X0207952Y0029165D01*
X0207952Y0027985D01*
X0201654Y0027985D01*
X0201654Y0029165D01*
X0201654Y0024244D02*
X0207952Y0024244D01*
X0207952Y0023064D01*
X0201654Y0023064D01*
X0201654Y0024244D01*
X0201654Y0019322D02*
X0207952Y0019322D01*
X0207952Y0018142D01*
X0201654Y0018142D01*
X0201654Y0019322D01*
X0190039Y0043929D02*
X0183741Y0043929D01*
X0190039Y0043929D02*
X0190039Y0042749D01*
X0183741Y0042749D01*
X0183741Y0043929D01*
X0183741Y0048850D02*
X0190039Y0048850D01*
X0190039Y0047670D01*
X0183741Y0047670D01*
X0183741Y0048850D01*
X0183741Y0053771D02*
X0190039Y0053771D01*
X0190039Y0052591D01*
X0183741Y0052591D01*
X0183741Y0053771D01*
X0183741Y0058692D02*
X0190039Y0058692D01*
X0190039Y0057512D01*
X0183741Y0057512D01*
X0183741Y0058692D01*
X0183741Y0063614D02*
X0190039Y0063614D01*
X0190039Y0062434D01*
X0183741Y0062434D01*
X0183741Y0063614D01*
X0183741Y0068535D02*
X0190039Y0068535D01*
X0190039Y0067355D01*
X0183741Y0067355D01*
X0183741Y0068535D01*
X0171929Y0068535D02*
X0165631Y0068535D01*
X0171929Y0068535D02*
X0171929Y0067355D01*
X0165631Y0067355D01*
X0165631Y0068535D01*
X0165631Y0063614D02*
X0171929Y0063614D01*
X0171929Y0062434D01*
X0165631Y0062434D01*
X0165631Y0063614D01*
X0165631Y0058692D02*
X0171929Y0058692D01*
X0171929Y0057512D01*
X0165631Y0057512D01*
X0165631Y0058692D01*
X0165631Y0053771D02*
X0171929Y0053771D01*
X0171929Y0052591D01*
X0165631Y0052591D01*
X0165631Y0053771D01*
X0165631Y0048850D02*
X0171929Y0048850D01*
X0171929Y0047670D01*
X0165631Y0047670D01*
X0165631Y0048850D01*
X0165631Y0043929D02*
X0171929Y0043929D01*
X0171929Y0042749D01*
X0165631Y0042749D01*
X0165631Y0043929D01*
X0154015Y0043929D02*
X0147717Y0043929D01*
X0154015Y0043929D02*
X0154015Y0042749D01*
X0147717Y0042749D01*
X0147717Y0043929D01*
X0147717Y0048850D02*
X0154015Y0048850D01*
X0154015Y0047670D01*
X0147717Y0047670D01*
X0147717Y0048850D01*
X0147717Y0053771D02*
X0154015Y0053771D01*
X0154015Y0052591D01*
X0147717Y0052591D01*
X0147717Y0053771D01*
X0147717Y0058692D02*
X0154015Y0058692D01*
X0154015Y0057512D01*
X0147717Y0057512D01*
X0147717Y0058692D01*
X0147717Y0063614D02*
X0154015Y0063614D01*
X0154015Y0062434D01*
X0147717Y0062434D01*
X0147717Y0063614D01*
X0147717Y0068535D02*
X0154015Y0068535D01*
X0154015Y0067355D01*
X0147717Y0067355D01*
X0147717Y0068535D01*
X0147717Y0073456D02*
X0154015Y0073456D01*
X0154015Y0072276D01*
X0147717Y0072276D01*
X0147717Y0073456D01*
X0147717Y0078377D02*
X0154015Y0078377D01*
X0154015Y0077197D01*
X0147717Y0077197D01*
X0147717Y0078377D01*
X0147717Y0083299D02*
X0154015Y0083299D01*
X0154015Y0082119D01*
X0147717Y0082119D01*
X0147717Y0083299D01*
X0147717Y0088220D02*
X0154015Y0088220D01*
X0154015Y0087040D01*
X0147717Y0087040D01*
X0147717Y0088220D01*
X0147717Y0093141D02*
X0154015Y0093141D01*
X0154015Y0091961D01*
X0147717Y0091961D01*
X0147717Y0093141D01*
X0147717Y0039007D02*
X0154015Y0039007D01*
X0154015Y0037827D01*
X0147717Y0037827D01*
X0147717Y0039007D01*
X0147717Y0034086D02*
X0154015Y0034086D01*
X0154015Y0032906D01*
X0147717Y0032906D01*
X0147717Y0034086D01*
X0147717Y0029165D02*
X0154015Y0029165D01*
X0154015Y0027985D01*
X0147717Y0027985D01*
X0147717Y0029165D01*
X0147717Y0024244D02*
X0154015Y0024244D01*
X0154015Y0023064D01*
X0147717Y0023064D01*
X0147717Y0024244D01*
X0147717Y0019322D02*
X0154015Y0019322D01*
X0154015Y0018142D01*
X0147717Y0018142D01*
X0147717Y0019322D01*
D18*
X0159365Y0156649D03*
X0159365Y0160586D03*
X0159365Y0164523D03*
X0159365Y0168460D03*
X0159365Y0172397D03*
X0159365Y0176334D03*
X0159365Y0180271D03*
X0159365Y0184208D03*
X0159365Y0188145D03*
D19*
X0144200Y0188145D03*
X0144200Y0184208D03*
X0144200Y0180271D03*
X0144200Y0176334D03*
X0144200Y0172397D03*
X0144200Y0168460D03*
X0144200Y0164523D03*
X0144200Y0160586D03*
X0144200Y0156649D03*
D20*
X0162492Y0145189D03*
X0168192Y0145189D03*
X0165528Y0155531D03*
X0171228Y0155531D03*
D21*
X0176811Y0161611D03*
X0183311Y0161611D03*
D22*
X0162850Y0136436D03*
X0156750Y0136436D03*
D23*
X0210400Y0175636D03*
X0214500Y0175636D03*
X0117050Y0046436D03*
X0112950Y0046436D03*
D24*
X0199150Y0173236D03*
X0205650Y0173236D03*
D25*
X0180800Y0178836D03*
X0175600Y0178836D03*
D26*
X0165800Y0179636D03*
X0165800Y0184836D03*
D27*
X0165800Y0163236D03*
X0169800Y0163236D03*
X0182800Y0152236D03*
X0186800Y0152236D03*
X0186800Y0143836D03*
X0182800Y0143836D03*
X0182800Y0133036D03*
X0186800Y0133036D03*
X0167400Y0116636D03*
X0167400Y0112636D03*
X0151400Y0133036D03*
X0151400Y0137036D03*
X0146800Y0116836D03*
X0146800Y0112836D03*
D28*
X0115000Y0058686D03*
X0115000Y0052186D03*
D29*
X0110000Y0040486D03*
X0110000Y0036386D03*
D30*
X0106614Y0047436D03*
X0106614Y0055310D03*
X0106614Y0063184D03*
X0106614Y0071058D03*
X0106614Y0078932D03*
X0106614Y0086806D03*
X0106614Y0094680D03*
X0106614Y0102554D03*
X0106614Y0110428D03*
X0106614Y0118302D03*
X0020000Y0118302D03*
X0020000Y0110428D03*
X0020000Y0102554D03*
X0020000Y0094680D03*
X0020000Y0086806D03*
X0020000Y0078932D03*
X0020000Y0071058D03*
X0020000Y0063184D03*
X0020000Y0055310D03*
X0020000Y0047436D03*
D31*
X0057094Y0156436D03*
X0061031Y0156436D03*
X0064969Y0156436D03*
X0068906Y0156436D03*
D32*
X0074024Y0166377D03*
X0051976Y0166377D03*
D33*
X0140984Y0153915D02*
X0140984Y0144843D01*
X0140530Y0143746D01*
X0140033Y0143249D01*
X0140033Y0123624D01*
X0140530Y0123127D01*
X0140984Y0122030D01*
X0140984Y0121782D01*
X0141820Y0122618D01*
X0141820Y0122618D01*
X0143316Y0124114D01*
X0143316Y0151834D01*
X0145397Y0153915D01*
X0140984Y0153915D01*
X0140984Y0152094D02*
X0143576Y0152094D01*
X0143316Y0150127D02*
X0140984Y0150127D01*
X0140984Y0148160D02*
X0143316Y0148160D01*
X0143316Y0146193D02*
X0140984Y0146193D01*
X0140729Y0144226D02*
X0143316Y0144226D01*
X0143316Y0142259D02*
X0140033Y0142259D01*
X0140033Y0140292D02*
X0143316Y0140292D01*
X0143316Y0138325D02*
X0140033Y0138325D01*
X0140033Y0136358D02*
X0143316Y0136358D01*
X0143316Y0134391D02*
X0140033Y0134391D01*
X0140033Y0132424D02*
X0143316Y0132424D01*
X0143316Y0130457D02*
X0140033Y0130457D01*
X0140033Y0128490D02*
X0143316Y0128490D01*
X0143316Y0126523D02*
X0140033Y0126523D01*
X0140033Y0124556D02*
X0143316Y0124556D01*
X0141791Y0122589D02*
X0140753Y0122589D01*
X0146449Y0120220D02*
X0147180Y0120952D01*
X0147180Y0120952D01*
X0148284Y0122056D01*
X0148284Y0130640D01*
X0148412Y0130418D01*
X0148782Y0130048D01*
X0149234Y0129787D01*
X0149739Y0129652D01*
X0151400Y0129652D01*
X0153061Y0129652D01*
X0153566Y0129787D01*
X0154018Y0130048D01*
X0154388Y0130418D01*
X0154649Y0130870D01*
X0154784Y0131375D01*
X0154784Y0132752D01*
X0154866Y0132752D01*
X0154866Y0127441D01*
X0150882Y0123458D01*
X0150209Y0123458D01*
X0149186Y0123034D01*
X0148402Y0122251D01*
X0147978Y0121227D01*
X0147978Y0120220D01*
X0146800Y0120220D01*
X0146800Y0116836D01*
X0146800Y0120220D01*
X0146449Y0120220D01*
X0146851Y0120622D02*
X0147978Y0120622D01*
X0148284Y0122589D02*
X0148741Y0122589D01*
X0148284Y0124556D02*
X0151981Y0124556D01*
X0153948Y0126523D02*
X0148284Y0126523D01*
X0148284Y0128490D02*
X0154866Y0128490D01*
X0154866Y0130457D02*
X0154410Y0130457D01*
X0154784Y0132424D02*
X0154866Y0132424D01*
X0151400Y0132424D02*
X0151400Y0132424D01*
X0151400Y0133036D02*
X0151400Y0129652D01*
X0151400Y0133036D01*
X0151400Y0133036D01*
X0148284Y0133036D01*
X0148284Y0133036D01*
X0151400Y0133036D01*
X0151400Y0133036D01*
X0151400Y0130457D02*
X0151400Y0130457D01*
X0148390Y0130457D02*
X0148284Y0130457D01*
X0155343Y0122589D02*
X0159035Y0122589D01*
X0159035Y0122736D02*
X0159035Y0121731D01*
X0154485Y0121731D01*
X0157916Y0125162D01*
X0157916Y0123856D01*
X0159035Y0122736D01*
X0157916Y0124556D02*
X0157310Y0124556D01*
X0161684Y0125417D02*
X0162277Y0124824D01*
X0162277Y0125790D01*
X0162701Y0126813D01*
X0163484Y0127597D01*
X0164508Y0128020D01*
X0165181Y0128020D01*
X0166316Y0129155D01*
X0166316Y0133633D01*
X0166299Y0133570D01*
X0166038Y0133118D01*
X0165668Y0132748D01*
X0165216Y0132487D01*
X0164711Y0132352D01*
X0162850Y0132352D01*
X0162850Y0136436D01*
X0162850Y0136436D01*
X0162850Y0132352D01*
X0161684Y0132352D01*
X0161684Y0125417D01*
X0161684Y0126523D02*
X0162581Y0126523D01*
X0161684Y0128490D02*
X0165651Y0128490D01*
X0166316Y0130457D02*
X0161684Y0130457D01*
X0162850Y0132424D02*
X0162850Y0132424D01*
X0162850Y0134391D02*
X0162850Y0134391D01*
X0162850Y0136358D02*
X0162850Y0136358D01*
X0162850Y0136436D02*
X0162850Y0140520D01*
X0160989Y0140520D01*
X0160824Y0140476D01*
X0160580Y0140720D01*
X0152484Y0148817D01*
X0152484Y0151687D01*
X0152520Y0151652D01*
X0159107Y0145064D01*
X0159107Y0142483D01*
X0160036Y0141555D01*
X0164038Y0141555D01*
X0165205Y0140388D01*
X0164711Y0140520D01*
X0162850Y0140520D01*
X0162850Y0136436D01*
X0162850Y0136436D01*
X0162850Y0138325D02*
X0162850Y0138325D01*
X0162850Y0140292D02*
X0162850Y0140292D01*
X0160580Y0140720D02*
X0160580Y0140720D01*
X0159331Y0142259D02*
X0159042Y0142259D01*
X0159107Y0144226D02*
X0157075Y0144226D01*
X0157978Y0146193D02*
X0155108Y0146193D01*
X0156011Y0148160D02*
X0153141Y0148160D01*
X0152484Y0150127D02*
X0154044Y0150127D01*
X0166249Y0159852D02*
X0167461Y0159852D01*
X0167966Y0159987D01*
X0168418Y0160248D01*
X0168422Y0160252D01*
X0169344Y0160252D01*
X0169344Y0159165D01*
X0168772Y0159165D01*
X0168378Y0158771D01*
X0167984Y0159165D01*
X0166936Y0159165D01*
X0166308Y0159793D01*
X0166249Y0159852D01*
X0167873Y0159962D02*
X0169344Y0159962D01*
X0177484Y0157177D02*
X0177484Y0151056D01*
X0171576Y0145147D01*
X0171576Y0142483D01*
X0170648Y0141555D01*
X0169368Y0141555D01*
X0170084Y0140838D01*
X0170084Y0127256D01*
X0168980Y0126152D01*
X0168642Y0126152D01*
X0167846Y0125356D01*
X0167846Y0124682D01*
X0167422Y0123659D01*
X0166639Y0122876D01*
X0165615Y0122452D01*
X0164508Y0122452D01*
X0163484Y0122876D01*
X0162804Y0123556D01*
X0162804Y0120666D01*
X0162898Y0120572D01*
X0162898Y0118581D01*
X0164092Y0118581D01*
X0164151Y0118802D01*
X0164412Y0119255D01*
X0164782Y0119624D01*
X0165234Y0119885D01*
X0165739Y0120020D01*
X0167400Y0120020D01*
X0167400Y0116636D01*
X0167400Y0120020D01*
X0168660Y0120020D01*
X0168740Y0120213D01*
X0169523Y0120997D01*
X0170546Y0121420D01*
X0171654Y0121420D01*
X0172677Y0120997D01*
X0172686Y0120987D01*
X0181351Y0129652D01*
X0181139Y0129652D01*
X0180634Y0129787D01*
X0180182Y0130048D01*
X0179812Y0130418D01*
X0179551Y0130870D01*
X0179416Y0131375D01*
X0179416Y0133036D01*
X0182800Y0133036D01*
X0182800Y0133036D01*
X0179416Y0133036D01*
X0179416Y0134697D01*
X0179551Y0135202D01*
X0179812Y0135655D01*
X0180182Y0136024D01*
X0180634Y0136285D01*
X0181139Y0136420D01*
X0182800Y0136420D01*
X0182800Y0133036D01*
X0182800Y0133036D01*
X0182800Y0136420D01*
X0184461Y0136420D01*
X0184966Y0136285D01*
X0185418Y0136024D01*
X0185422Y0136020D01*
X0188856Y0136020D01*
X0189214Y0135662D01*
X0189706Y0135866D01*
X0190814Y0135866D01*
X0191837Y0135442D01*
X0192620Y0134659D01*
X0193044Y0133636D01*
X0193044Y0132528D01*
X0192620Y0131505D01*
X0191837Y0130722D01*
X0190814Y0130298D01*
X0189706Y0130298D01*
X0189279Y0130475D01*
X0188856Y0130052D01*
X0187080Y0130052D01*
X0173780Y0116752D01*
X0173153Y0116752D01*
X0172677Y0116276D01*
X0171654Y0115852D01*
X0170784Y0115852D01*
X0170784Y0114975D01*
X0170649Y0114470D01*
X0170388Y0114018D01*
X0170384Y0114014D01*
X0170384Y0110879D01*
X0170562Y0111057D01*
X0171586Y0111481D01*
X0172693Y0111481D01*
X0173716Y0111057D01*
X0174500Y0110274D01*
X0174924Y0109251D01*
X0174924Y0108143D01*
X0174500Y0107120D01*
X0174351Y0106971D01*
X0174488Y0106840D01*
X0174489Y0106812D01*
X0174509Y0106792D01*
X0174509Y0106665D01*
X0175021Y0106153D01*
X0175445Y0105129D01*
X0175445Y0104022D01*
X0175021Y0102998D01*
X0174238Y0102215D01*
X0173214Y0101791D01*
X0172258Y0101791D01*
X0172820Y0101558D01*
X0173012Y0101366D01*
X0173204Y0101558D01*
X0174293Y0102009D01*
X0176652Y0102009D01*
X0177741Y0101558D01*
X0177933Y0101366D01*
X0178125Y0101558D01*
X0179214Y0102009D01*
X0181573Y0102009D01*
X0182662Y0101558D01*
X0182854Y0101366D01*
X0183046Y0101558D01*
X0184135Y0102009D01*
X0186495Y0102009D01*
X0187583Y0101558D01*
X0187776Y0101366D01*
X0187968Y0101558D01*
X0189056Y0102009D01*
X0191416Y0102009D01*
X0192505Y0101558D01*
X0192697Y0101366D01*
X0192889Y0101558D01*
X0193978Y0102009D01*
X0196337Y0102009D01*
X0197426Y0101558D01*
X0198259Y0100725D01*
X0198710Y0099636D01*
X0198710Y0094789D01*
X0199042Y0095285D01*
X0199510Y0095753D01*
X0200061Y0096121D01*
X0200673Y0096375D01*
X0201322Y0096504D01*
X0204803Y0096504D01*
X0204803Y0092551D01*
X0204803Y0092551D01*
X0211315Y0092551D01*
X0211315Y0091629D01*
X0211186Y0090980D01*
X0210932Y0090368D01*
X0210564Y0089817D01*
X0210517Y0089770D01*
X0210915Y0088810D01*
X0210915Y0086450D01*
X0210464Y0085361D01*
X0210272Y0085169D01*
X0210464Y0084977D01*
X0210915Y0083888D01*
X0210915Y0081529D01*
X0210464Y0080440D01*
X0210272Y0080248D01*
X0210464Y0080056D01*
X0210915Y0078967D01*
X0210915Y0076608D01*
X0210464Y0075519D01*
X0210272Y0075327D01*
X0210464Y0075135D01*
X0210915Y0074046D01*
X0210915Y0071686D01*
X0210464Y0070598D01*
X0210272Y0070405D01*
X0210464Y0070213D01*
X0210915Y0069125D01*
X0210915Y0066765D01*
X0210464Y0065676D01*
X0210272Y0065484D01*
X0210464Y0065292D01*
X0210915Y0064203D01*
X0210915Y0061844D01*
X0210464Y0060755D01*
X0210272Y0060563D01*
X0210464Y0060371D01*
X0210915Y0059282D01*
X0210915Y0056923D01*
X0210464Y0055834D01*
X0210272Y0055642D01*
X0210464Y0055450D01*
X0210915Y0054361D01*
X0210915Y0052001D01*
X0210464Y0050913D01*
X0210272Y0050720D01*
X0210464Y0050528D01*
X0210915Y0049440D01*
X0210915Y0047080D01*
X0210464Y0045991D01*
X0210272Y0045799D01*
X0210464Y0045607D01*
X0210915Y0044518D01*
X0210915Y0042159D01*
X0210464Y0041070D01*
X0210272Y0040878D01*
X0210464Y0040686D01*
X0210915Y0039597D01*
X0210915Y0037238D01*
X0210464Y0036149D01*
X0210272Y0035957D01*
X0210464Y0035765D01*
X0210915Y0034676D01*
X0210915Y0032316D01*
X0210464Y0031228D01*
X0210272Y0031035D01*
X0210464Y0030843D01*
X0210915Y0029755D01*
X0210915Y0027395D01*
X0210464Y0026306D01*
X0210272Y0026114D01*
X0210464Y0025922D01*
X0210915Y0024833D01*
X0210915Y0022474D01*
X0210517Y0021513D01*
X0210564Y0021466D01*
X0210932Y0020915D01*
X0211186Y0020304D01*
X0211315Y0019654D01*
X0211315Y0018732D01*
X0204803Y0018732D01*
X0198291Y0018732D01*
X0198291Y0017811D01*
X0198421Y0017161D01*
X0198674Y0016549D01*
X0199042Y0015998D01*
X0199510Y0015530D01*
X0199674Y0015420D01*
X0198017Y0015420D01*
X0198017Y0030288D01*
X0197264Y0031040D01*
X0157618Y0031040D01*
X0156865Y0030288D01*
X0156865Y0030026D01*
X0156527Y0030843D01*
X0156335Y0031035D01*
X0156527Y0031228D01*
X0156978Y0032316D01*
X0156978Y0034676D01*
X0156527Y0035765D01*
X0156335Y0035957D01*
X0156527Y0036149D01*
X0156978Y0037238D01*
X0156978Y0039597D01*
X0156624Y0040452D01*
X0156954Y0040452D01*
X0157977Y0040876D01*
X0158760Y0041659D01*
X0159184Y0042682D01*
X0159184Y0043790D01*
X0158760Y0044813D01*
X0157977Y0045597D01*
X0156954Y0046020D01*
X0156539Y0046020D01*
X0156978Y0047080D01*
X0156978Y0049440D01*
X0156527Y0050528D01*
X0156335Y0050720D01*
X0156527Y0050913D01*
X0156978Y0052001D01*
X0156978Y0054361D01*
X0156527Y0055450D01*
X0156335Y0055642D01*
X0156527Y0055834D01*
X0156978Y0056923D01*
X0156978Y0059282D01*
X0156527Y0060371D01*
X0156335Y0060563D01*
X0156527Y0060755D01*
X0156978Y0061844D01*
X0156978Y0064203D01*
X0156527Y0065292D01*
X0156335Y0065484D01*
X0156527Y0065676D01*
X0156978Y0066765D01*
X0156978Y0069125D01*
X0156527Y0070213D01*
X0156335Y0070405D01*
X0156527Y0070598D01*
X0156978Y0071686D01*
X0156978Y0074046D01*
X0156527Y0075135D01*
X0156335Y0075327D01*
X0156527Y0075519D01*
X0156978Y0076608D01*
X0156978Y0078967D01*
X0156527Y0080056D01*
X0156335Y0080248D01*
X0156527Y0080440D01*
X0156978Y0081529D01*
X0156978Y0083888D01*
X0156527Y0084977D01*
X0156335Y0085169D01*
X0156527Y0085361D01*
X0156978Y0086450D01*
X0156978Y0088810D01*
X0156580Y0089770D01*
X0156627Y0089817D01*
X0156995Y0090368D01*
X0157249Y0090980D01*
X0157377Y0091625D01*
X0157607Y0091070D01*
X0158440Y0090237D01*
X0159529Y0089786D01*
X0159539Y0089786D01*
X0159840Y0089059D01*
X0160623Y0088276D01*
X0161646Y0087852D01*
X0162754Y0087852D01*
X0163777Y0088276D01*
X0164560Y0089059D01*
X0164861Y0089786D01*
X0166810Y0089786D01*
X0167898Y0090237D01*
X0168091Y0090429D01*
X0168283Y0090237D01*
X0169371Y0089786D01*
X0171731Y0089786D01*
X0172820Y0090237D01*
X0173012Y0090429D01*
X0173204Y0090237D01*
X0174293Y0089786D01*
X0176652Y0089786D01*
X0177741Y0090237D01*
X0177933Y0090429D01*
X0178125Y0090237D01*
X0179214Y0089786D01*
X0181573Y0089786D01*
X0182662Y0090237D01*
X0182854Y0090429D01*
X0183046Y0090237D01*
X0184135Y0089786D01*
X0186495Y0089786D01*
X0187583Y0090237D01*
X0187776Y0090429D01*
X0187968Y0090237D01*
X0189056Y0089786D01*
X0191416Y0089786D01*
X0192505Y0090237D01*
X0192697Y0090429D01*
X0192889Y0090237D01*
X0193978Y0089786D01*
X0196337Y0089786D01*
X0197426Y0090237D01*
X0198259Y0091070D01*
X0198356Y0091304D01*
X0198421Y0090980D01*
X0198674Y0090368D01*
X0199042Y0089817D01*
X0199089Y0089770D01*
X0198691Y0088810D01*
X0198691Y0086450D01*
X0199142Y0085361D01*
X0199334Y0085169D01*
X0199142Y0084977D01*
X0198691Y0083888D01*
X0198691Y0081529D01*
X0199142Y0080440D01*
X0199334Y0080248D01*
X0199142Y0080056D01*
X0198691Y0078967D01*
X0198691Y0076608D01*
X0199142Y0075519D01*
X0199334Y0075327D01*
X0199142Y0075135D01*
X0198691Y0074046D01*
X0198691Y0071686D01*
X0199142Y0070598D01*
X0199334Y0070405D01*
X0199142Y0070213D01*
X0198691Y0069125D01*
X0198691Y0066765D01*
X0199142Y0065676D01*
X0199334Y0065484D01*
X0199142Y0065292D01*
X0198691Y0064203D01*
X0198691Y0061844D01*
X0199142Y0060755D01*
X0199334Y0060563D01*
X0199142Y0060371D01*
X0198691Y0059282D01*
X0198691Y0056923D01*
X0199142Y0055834D01*
X0199334Y0055642D01*
X0199142Y0055450D01*
X0198691Y0054361D01*
X0198691Y0052001D01*
X0199142Y0050913D01*
X0199334Y0050720D01*
X0199142Y0050528D01*
X0198691Y0049440D01*
X0198691Y0047080D01*
X0199142Y0045991D01*
X0199334Y0045799D01*
X0199142Y0045607D01*
X0198691Y0044518D01*
X0198691Y0042159D01*
X0199142Y0041070D01*
X0199334Y0040878D01*
X0199142Y0040686D01*
X0198691Y0039597D01*
X0198691Y0037238D01*
X0199142Y0036149D01*
X0199334Y0035957D01*
X0199142Y0035765D01*
X0198691Y0034676D01*
X0198691Y0032316D01*
X0199142Y0031228D01*
X0199334Y0031035D01*
X0199142Y0030843D01*
X0198691Y0029755D01*
X0198691Y0027395D01*
X0199142Y0026306D01*
X0199334Y0026114D01*
X0199142Y0025922D01*
X0198691Y0024833D01*
X0198691Y0022474D01*
X0199089Y0021513D01*
X0199042Y0021466D01*
X0198674Y0020915D01*
X0198421Y0020304D01*
X0198017Y0020304D01*
X0198421Y0020304D02*
X0198291Y0019654D01*
X0198291Y0018732D01*
X0204803Y0018732D01*
X0204803Y0018732D01*
X0204803Y0018732D01*
X0211315Y0018732D01*
X0211315Y0017811D01*
X0211186Y0017161D01*
X0210932Y0016549D01*
X0210564Y0015998D01*
X0210096Y0015530D01*
X0209932Y0015420D01*
X0213016Y0015420D01*
X0213016Y0101452D01*
X0204406Y0101452D01*
X0203310Y0101906D01*
X0202470Y0102746D01*
X0202016Y0103843D01*
X0202016Y0158030D01*
X0202470Y0159127D01*
X0203310Y0159966D01*
X0204406Y0160420D01*
X0236713Y0160420D01*
X0235791Y0160802D01*
X0233290Y0163303D01*
X0231937Y0166570D01*
X0231937Y0170107D01*
X0233290Y0173374D01*
X0235791Y0175875D01*
X0239058Y0177228D01*
X0242595Y0177228D01*
X0245862Y0175875D01*
X0248016Y0173722D01*
X0248016Y0201306D01*
X0247871Y0201161D01*
X0247173Y0200626D01*
X0246411Y0200186D01*
X0245599Y0199849D01*
X0244749Y0199622D01*
X0244028Y0199527D01*
X0244028Y0205625D01*
X0242847Y0205625D01*
X0236749Y0205625D01*
X0236844Y0204904D01*
X0237072Y0204055D01*
X0237408Y0203242D01*
X0237848Y0202481D01*
X0238383Y0201783D01*
X0239005Y0201161D01*
X0239703Y0200626D01*
X0240464Y0200186D01*
X0241277Y0199849D01*
X0242126Y0199622D01*
X0242847Y0199527D01*
X0242847Y0205625D01*
X0242847Y0206806D01*
X0236749Y0206806D01*
X0236844Y0207527D01*
X0237072Y0208377D01*
X0237232Y0208763D01*
X0234091Y0208763D01*
X0230679Y0210176D01*
X0228068Y0212788D01*
X0226654Y0216200D01*
X0226654Y0219893D01*
X0228068Y0223305D01*
X0230679Y0225917D01*
X0234091Y0227330D01*
X0237784Y0227330D01*
X0241196Y0225917D01*
X0243808Y0223305D01*
X0245221Y0219893D01*
X0245221Y0216200D01*
X0243808Y0212788D01*
X0242847Y0211827D01*
X0242847Y0206806D01*
X0244028Y0206806D01*
X0244028Y0212905D01*
X0244749Y0212810D01*
X0245599Y0212582D01*
X0246411Y0212245D01*
X0247173Y0211806D01*
X0247871Y0211270D01*
X0248016Y0211125D01*
X0248016Y0240452D01*
X0242666Y0240452D01*
X0242899Y0240132D01*
X0243280Y0239384D01*
X0243539Y0238586D01*
X0243670Y0237757D01*
X0243670Y0237338D01*
X0238339Y0237338D01*
X0238339Y0237338D01*
X0233009Y0237338D01*
X0233009Y0237757D01*
X0233140Y0238586D01*
X0233399Y0239384D01*
X0233780Y0240132D01*
X0234013Y0240452D01*
X0202863Y0240452D01*
X0203095Y0240132D01*
X0203476Y0239384D01*
X0203736Y0238586D01*
X0203867Y0237757D01*
X0203867Y0237338D01*
X0198536Y0237338D01*
X0198536Y0237338D01*
X0193205Y0237338D01*
X0193206Y0237757D01*
X0193337Y0238586D01*
X0193596Y0239384D01*
X0193977Y0240132D01*
X0194210Y0240452D01*
X0177245Y0240452D01*
X0177508Y0240090D01*
X0177935Y0239252D01*
X0178225Y0238359D01*
X0178372Y0237431D01*
X0178372Y0237305D01*
X0172746Y0237305D01*
X0172746Y0236616D01*
X0172746Y0230990D01*
X0172871Y0230990D01*
X0173800Y0231137D01*
X0174693Y0231428D01*
X0175531Y0231854D01*
X0176291Y0232407D01*
X0176956Y0233071D01*
X0177508Y0233831D01*
X0177935Y0234669D01*
X0178225Y0235563D01*
X0178372Y0236491D01*
X0178372Y0236616D01*
X0172746Y0236616D01*
X0172057Y0236616D01*
X0172057Y0230990D01*
X0171932Y0230990D01*
X0171003Y0231137D01*
X0170110Y0231428D01*
X0169272Y0231854D01*
X0168512Y0232407D01*
X0167848Y0233071D01*
X0167295Y0233831D01*
X0166869Y0234669D01*
X0166578Y0235563D01*
X0166431Y0236491D01*
X0166431Y0236616D01*
X0172057Y0236616D01*
X0172057Y0237305D01*
X0166431Y0237305D01*
X0166431Y0237431D01*
X0166578Y0238359D01*
X0166869Y0239252D01*
X0167295Y0240090D01*
X0167558Y0240452D01*
X0155828Y0240452D01*
X0156091Y0240090D01*
X0156517Y0239252D01*
X0156808Y0238359D01*
X0156955Y0237431D01*
X0156955Y0237305D01*
X0151329Y0237305D01*
X0151329Y0236616D01*
X0156955Y0236616D01*
X0156955Y0236491D01*
X0156808Y0235563D01*
X0156517Y0234669D01*
X0156091Y0233831D01*
X0155538Y0233071D01*
X0154874Y0232407D01*
X0154113Y0231854D01*
X0153276Y0231428D01*
X0152382Y0231137D01*
X0151454Y0230990D01*
X0151329Y0230990D01*
X0151329Y0236616D01*
X0150640Y0236616D01*
X0150640Y0230990D01*
X0150514Y0230990D01*
X0149586Y0231137D01*
X0148692Y0231428D01*
X0147855Y0231854D01*
X0147095Y0232407D01*
X0146430Y0233071D01*
X0145878Y0233831D01*
X0145451Y0234669D01*
X0145161Y0235563D01*
X0145014Y0236491D01*
X0145014Y0236616D01*
X0150640Y0236616D01*
X0150640Y0237305D01*
X0145014Y0237305D01*
X0145014Y0237431D01*
X0145161Y0238359D01*
X0145451Y0239252D01*
X0145878Y0240090D01*
X0146141Y0240452D01*
X0140984Y0240452D01*
X0140984Y0190879D01*
X0147856Y0190879D01*
X0148784Y0189951D01*
X0148784Y0186339D01*
X0148622Y0186176D01*
X0148784Y0186014D01*
X0148784Y0185582D01*
X0149294Y0186092D01*
X0154329Y0186092D01*
X0154268Y0186198D01*
X0154133Y0186703D01*
X0154133Y0188145D01*
X0159365Y0188145D01*
X0159365Y0188145D01*
X0159365Y0191310D01*
X0155856Y0191310D01*
X0155351Y0191175D01*
X0154899Y0190914D01*
X0154530Y0190544D01*
X0154268Y0190092D01*
X0154133Y0189587D01*
X0154133Y0188145D01*
X0159365Y0188145D01*
X0159365Y0188145D01*
X0159365Y0191310D01*
X0160565Y0191310D01*
X0160039Y0192580D01*
X0160039Y0196116D01*
X0161393Y0199384D01*
X0163893Y0201884D01*
X0167161Y0203238D01*
X0170697Y0203238D01*
X0173965Y0201884D01*
X0176466Y0199384D01*
X0177819Y0196116D01*
X0177819Y0192580D01*
X0176466Y0189312D01*
X0173965Y0186812D01*
X0172296Y0186120D01*
X0174971Y0186120D01*
X0178316Y0189465D01*
X0178316Y0196265D01*
X0181802Y0199751D01*
X0181434Y0199849D01*
X0180622Y0200186D01*
X0179860Y0200626D01*
X0179162Y0201161D01*
X0178541Y0201783D01*
X0178005Y0202481D01*
X0177566Y0203242D01*
X0177229Y0204055D01*
X0177001Y0204904D01*
X0176925Y0205482D01*
X0176291Y0204848D01*
X0175531Y0204295D01*
X0174693Y0203869D01*
X0173800Y0203578D01*
X0172871Y0203431D01*
X0172746Y0203431D01*
X0172746Y0209057D01*
X0172057Y0209057D01*
X0172057Y0203431D01*
X0171932Y0203431D01*
X0171003Y0203578D01*
X0170110Y0203869D01*
X0169272Y0204295D01*
X0168512Y0204848D01*
X0167848Y0205512D01*
X0167295Y0206272D01*
X0166869Y0207110D01*
X0166578Y0208003D01*
X0166431Y0208932D01*
X0166431Y0209057D01*
X0172057Y0209057D01*
X0172057Y0209746D01*
X0166578Y0209746D01*
X0166508Y0209308D01*
X0166268Y0208569D01*
X0165915Y0207877D01*
X0165459Y0207248D01*
X0164909Y0206699D01*
X0164280Y0206242D01*
X0163588Y0205889D01*
X0162849Y0205649D01*
X0162081Y0205528D01*
X0161693Y0205528D01*
X0161693Y0210464D01*
X0161693Y0210464D01*
X0161693Y0205528D01*
X0161304Y0205528D01*
X0160537Y0205649D01*
X0159798Y0205889D01*
X0159105Y0206242D01*
X0158477Y0206699D01*
X0157927Y0207248D01*
X0157470Y0207877D01*
X0157118Y0208569D01*
X0156877Y0209308D01*
X0156808Y0209746D01*
X0151329Y0209746D01*
X0151329Y0209057D01*
X0156955Y0209057D01*
X0156955Y0208932D01*
X0156808Y0208003D01*
X0156517Y0207110D01*
X0156091Y0206272D01*
X0155538Y0205512D01*
X0154874Y0204848D01*
X0154113Y0204295D01*
X0153276Y0203869D01*
X0152382Y0203578D01*
X0151454Y0203431D01*
X0151329Y0203431D01*
X0151329Y0209057D01*
X0150640Y0209057D01*
X0150640Y0203431D01*
X0150514Y0203431D01*
X0149586Y0203578D01*
X0148692Y0203869D01*
X0147855Y0204295D01*
X0147095Y0204848D01*
X0146430Y0205512D01*
X0145878Y0206272D01*
X0145451Y0207110D01*
X0145161Y0208003D01*
X0145014Y0208932D01*
X0145014Y0209057D01*
X0150640Y0209057D01*
X0150640Y0209746D01*
X0150640Y0215372D01*
X0150514Y0215372D01*
X0149586Y0215225D01*
X0148692Y0214935D01*
X0147855Y0214508D01*
X0147095Y0213956D01*
X0146430Y0213291D01*
X0145878Y0212531D01*
X0145451Y0211693D01*
X0145161Y0210800D01*
X0145014Y0209871D01*
X0145014Y0209746D01*
X0150640Y0209746D01*
X0151329Y0209746D01*
X0151329Y0215372D01*
X0151454Y0215372D01*
X0152382Y0215225D01*
X0153276Y0214935D01*
X0154113Y0214508D01*
X0154874Y0213956D01*
X0155538Y0213291D01*
X0156091Y0212531D01*
X0156517Y0211693D01*
X0156767Y0210924D01*
X0156877Y0211621D01*
X0157118Y0212360D01*
X0157470Y0213052D01*
X0157927Y0213681D01*
X0158477Y0214230D01*
X0159003Y0214612D01*
X0157847Y0215769D01*
X0157156Y0217436D01*
X0157156Y0219241D01*
X0157847Y0220909D01*
X0159123Y0222185D01*
X0159342Y0222276D01*
X0159123Y0222366D01*
X0157847Y0223643D01*
X0157156Y0225310D01*
X0157156Y0227115D01*
X0157847Y0228783D01*
X0159123Y0230059D01*
X0159342Y0230150D01*
X0159123Y0230240D01*
X0157847Y0231517D01*
X0157156Y0233184D01*
X0157156Y0234989D01*
X0157847Y0236657D01*
X0159123Y0237933D01*
X0160790Y0238624D01*
X0162595Y0238624D01*
X0164263Y0237933D01*
X0165539Y0236657D01*
X0166230Y0234989D01*
X0166230Y0233184D01*
X0165539Y0231517D01*
X0164263Y0230240D01*
X0164044Y0230150D01*
X0164263Y0230059D01*
X0165539Y0228783D01*
X0166230Y0227115D01*
X0166230Y0225310D01*
X0165539Y0223643D01*
X0164263Y0222366D01*
X0164044Y0222276D01*
X0164263Y0222185D01*
X0165539Y0220909D01*
X0166230Y0219241D01*
X0166230Y0217436D01*
X0165539Y0215769D01*
X0164383Y0214612D01*
X0164909Y0214230D01*
X0165459Y0213681D01*
X0165915Y0213052D01*
X0166268Y0212360D01*
X0166508Y0211621D01*
X0166619Y0210924D01*
X0166869Y0211693D01*
X0167295Y0212531D01*
X0167848Y0213291D01*
X0168512Y0213956D01*
X0169272Y0214508D01*
X0170110Y0214935D01*
X0171003Y0215225D01*
X0171932Y0215372D01*
X0172057Y0215372D01*
X0172057Y0209746D01*
X0172746Y0209746D01*
X0172746Y0215372D01*
X0172871Y0215372D01*
X0173800Y0215225D01*
X0174693Y0214935D01*
X0175531Y0214508D01*
X0176291Y0213956D01*
X0176956Y0213291D01*
X0177508Y0212531D01*
X0177935Y0211693D01*
X0178225Y0210800D01*
X0178299Y0210333D01*
X0178541Y0210649D01*
X0179162Y0211270D01*
X0179860Y0211806D01*
X0180622Y0212245D01*
X0181434Y0212582D01*
X0182284Y0212810D01*
X0183005Y0212905D01*
X0183005Y0206806D01*
X0184186Y0206806D01*
X0190284Y0206806D01*
X0190189Y0207527D01*
X0189962Y0208377D01*
X0189802Y0208763D01*
X0192784Y0208763D01*
X0196196Y0210176D01*
X0198808Y0212788D01*
X0200221Y0216200D01*
X0200221Y0219893D01*
X0198808Y0223305D01*
X0196196Y0225917D01*
X0192784Y0227330D01*
X0191486Y0227330D01*
X0192716Y0228561D01*
X0193467Y0230373D01*
X0193467Y0232334D01*
X0192716Y0234147D01*
X0191329Y0235534D01*
X0189517Y0236284D01*
X0187555Y0236284D01*
X0185743Y0235534D01*
X0184356Y0234147D01*
X0183606Y0232334D01*
X0183606Y0230373D01*
X0184356Y0228561D01*
X0185743Y0227173D01*
X0187228Y0226558D01*
X0185679Y0225917D01*
X0183068Y0223305D01*
X0181654Y0219893D01*
X0181654Y0216200D01*
X0183068Y0212788D01*
X0184186Y0211670D01*
X0184186Y0206806D01*
X0184186Y0205625D01*
X0190284Y0205625D01*
X0190189Y0204904D01*
X0189962Y0204055D01*
X0189625Y0203242D01*
X0189185Y0202481D01*
X0188650Y0201783D01*
X0188587Y0201720D01*
X0217994Y0201720D01*
X0218240Y0202313D01*
X0219023Y0203097D01*
X0220046Y0203520D01*
X0221154Y0203520D01*
X0222177Y0203097D01*
X0222960Y0202313D01*
X0223206Y0201720D01*
X0225629Y0201720D01*
X0228507Y0198843D01*
X0229053Y0198336D01*
X0229055Y0198295D01*
X0229084Y0198265D01*
X0229084Y0197998D01*
X0229887Y0198331D01*
X0231989Y0198331D01*
X0233931Y0197526D01*
X0235418Y0196040D01*
X0236222Y0194098D01*
X0236222Y0191995D01*
X0235418Y0190053D01*
X0233931Y0188567D01*
X0231989Y0187762D01*
X0229887Y0187762D01*
X0228301Y0188419D01*
X0228252Y0188397D01*
X0227884Y0188539D01*
X0227884Y0187960D01*
X0228931Y0187526D01*
X0230418Y0186040D01*
X0231222Y0184098D01*
X0231222Y0181995D01*
X0230418Y0180053D01*
X0228931Y0178567D01*
X0226989Y0177762D01*
X0224887Y0177762D01*
X0222945Y0178567D01*
X0221458Y0180053D01*
X0220938Y0181309D01*
X0220418Y0180053D01*
X0218931Y0178567D01*
X0217286Y0177885D01*
X0217449Y0177602D01*
X0217584Y0177097D01*
X0217584Y0175636D01*
X0214500Y0175636D01*
X0214500Y0172452D01*
X0215861Y0172452D01*
X0216366Y0172587D01*
X0216818Y0172848D01*
X0217188Y0173218D01*
X0217449Y0173670D01*
X0217584Y0174175D01*
X0217584Y0175636D01*
X0214500Y0175636D01*
X0214500Y0175636D01*
X0214500Y0172452D01*
X0213139Y0172452D01*
X0212634Y0172587D01*
X0212182Y0172848D01*
X0212167Y0172863D01*
X0212156Y0172852D01*
X0209434Y0172852D01*
X0209434Y0169630D01*
X0208506Y0168702D01*
X0202794Y0168702D01*
X0202400Y0169096D01*
X0202006Y0168702D01*
X0197280Y0168702D01*
X0191834Y0163256D01*
X0190730Y0162152D01*
X0189253Y0162152D01*
X0189084Y0161983D01*
X0189084Y0155272D01*
X0190011Y0155656D01*
X0191118Y0155656D01*
X0192142Y0155232D01*
X0192925Y0154449D01*
X0193349Y0153426D01*
X0193349Y0152318D01*
X0192925Y0151295D01*
X0192142Y0150511D01*
X0191118Y0150087D01*
X0190011Y0150087D01*
X0189784Y0150181D01*
X0189784Y0150180D01*
X0188856Y0149252D01*
X0188684Y0149252D01*
X0188684Y0146820D01*
X0188856Y0146820D01*
X0189193Y0146484D01*
X0189306Y0146597D01*
X0190329Y0147020D01*
X0191436Y0147020D01*
X0192460Y0146597D01*
X0193243Y0145813D01*
X0193667Y0144790D01*
X0193667Y0143682D01*
X0193243Y0142659D01*
X0192460Y0141876D01*
X0191436Y0141452D01*
X0190329Y0141452D01*
X0189712Y0141708D01*
X0188856Y0140852D01*
X0185422Y0140852D01*
X0185418Y0140848D01*
X0184966Y0140587D01*
X0184461Y0140452D01*
X0182800Y0140452D01*
X0182800Y0143836D01*
X0182800Y0143836D01*
X0182800Y0140452D01*
X0181139Y0140452D01*
X0180634Y0140587D01*
X0180182Y0140848D01*
X0179812Y0141218D01*
X0179551Y0141670D01*
X0179416Y0142175D01*
X0179416Y0143836D01*
X0182800Y0143836D01*
X0182800Y0143836D01*
X0179416Y0143836D01*
X0179416Y0145497D01*
X0179551Y0146002D01*
X0179812Y0146455D01*
X0180182Y0146824D01*
X0180634Y0147085D01*
X0181139Y0147220D01*
X0182800Y0147220D01*
X0182800Y0143836D01*
X0182800Y0143836D01*
X0182800Y0147220D01*
X0184461Y0147220D01*
X0184916Y0147099D01*
X0184916Y0148974D01*
X0184461Y0148852D01*
X0182800Y0148852D01*
X0182800Y0152236D01*
X0182800Y0152236D01*
X0182800Y0148852D01*
X0181139Y0148852D01*
X0180634Y0148987D01*
X0180182Y0149248D01*
X0179812Y0149618D01*
X0179551Y0150070D01*
X0179416Y0150575D01*
X0179416Y0152236D01*
X0182800Y0152236D01*
X0182800Y0152236D01*
X0179416Y0152236D01*
X0179416Y0153897D01*
X0179551Y0154402D01*
X0179812Y0154855D01*
X0180182Y0155224D01*
X0180634Y0155485D01*
X0181139Y0155620D01*
X0182800Y0155620D01*
X0182800Y0152236D01*
X0182800Y0152236D01*
X0182800Y0155620D01*
X0184461Y0155620D01*
X0184966Y0155485D01*
X0185316Y0155283D01*
X0185316Y0156777D01*
X0183311Y0156777D01*
X0183311Y0161611D01*
X0183311Y0161611D01*
X0183311Y0166445D01*
X0182520Y0166445D01*
X0182784Y0167082D01*
X0182784Y0168190D01*
X0182360Y0169213D01*
X0181577Y0169997D01*
X0181284Y0170118D01*
X0181517Y0170352D01*
X0182547Y0170352D01*
X0183023Y0169876D01*
X0184046Y0169452D01*
X0185154Y0169452D01*
X0186177Y0169876D01*
X0186960Y0170659D01*
X0187384Y0171682D01*
X0187384Y0172790D01*
X0186960Y0173813D01*
X0186177Y0174597D01*
X0185154Y0175020D01*
X0184046Y0175020D01*
X0183023Y0174597D01*
X0182764Y0174337D01*
X0181980Y0175120D01*
X0181049Y0176052D01*
X0183156Y0176052D01*
X0184084Y0176980D01*
X0184084Y0180692D01*
X0183156Y0181620D01*
X0180680Y0181620D01*
X0179241Y0183060D01*
X0178937Y0183060D01*
X0182180Y0186303D01*
X0183284Y0187407D01*
X0183284Y0194207D01*
X0183716Y0194639D01*
X0183716Y0194082D01*
X0184140Y0193059D01*
X0184923Y0192276D01*
X0185946Y0191852D01*
X0186116Y0191852D01*
X0186116Y0178807D01*
X0187001Y0177922D01*
X0186755Y0177329D01*
X0186755Y0176222D01*
X0187179Y0175198D01*
X0187962Y0174415D01*
X0188986Y0173991D01*
X0190093Y0173991D01*
X0191116Y0174415D01*
X0191734Y0175033D01*
X0192507Y0174713D01*
X0193614Y0174713D01*
X0194638Y0175137D01*
X0195366Y0175864D01*
X0195366Y0172117D01*
X0189211Y0165962D01*
X0188777Y0166397D01*
X0187754Y0166820D01*
X0186646Y0166820D01*
X0185635Y0166402D01*
X0185473Y0166445D01*
X0183311Y0166445D01*
X0183311Y0161611D01*
X0183311Y0161611D01*
X0183311Y0156777D01*
X0181150Y0156777D01*
X0180646Y0156912D01*
X0180193Y0157173D01*
X0179824Y0157543D01*
X0179791Y0157600D01*
X0179368Y0157177D01*
X0177484Y0157177D01*
X0177484Y0156028D02*
X0185316Y0156028D01*
X0183311Y0157995D02*
X0183311Y0157995D01*
X0183311Y0159962D02*
X0183311Y0159962D01*
X0183311Y0161929D02*
X0183311Y0161929D01*
X0183311Y0163896D02*
X0183311Y0163896D01*
X0183311Y0165863D02*
X0183311Y0165863D01*
X0182784Y0167830D02*
X0191079Y0167830D01*
X0193047Y0169797D02*
X0185988Y0169797D01*
X0187384Y0171764D02*
X0195014Y0171764D01*
X0195366Y0173731D02*
X0186994Y0173731D01*
X0186972Y0175698D02*
X0181402Y0175698D01*
X0184084Y0177666D02*
X0186894Y0177666D01*
X0186116Y0179633D02*
X0184084Y0179633D01*
X0183177Y0181600D02*
X0186116Y0181600D01*
X0186116Y0183567D02*
X0179444Y0183567D01*
X0181411Y0185534D02*
X0186116Y0185534D01*
X0186116Y0187501D02*
X0183284Y0187501D01*
X0183284Y0189468D02*
X0186116Y0189468D01*
X0186116Y0191435D02*
X0183284Y0191435D01*
X0183284Y0193402D02*
X0183998Y0193402D01*
X0179386Y0197336D02*
X0177314Y0197336D01*
X0177819Y0195369D02*
X0178316Y0195369D01*
X0178316Y0193402D02*
X0177819Y0193402D01*
X0177345Y0191435D02*
X0178316Y0191435D01*
X0178316Y0189468D02*
X0176530Y0189468D01*
X0176351Y0187501D02*
X0174654Y0187501D01*
X0176499Y0199303D02*
X0181353Y0199303D01*
X0179054Y0201270D02*
X0174579Y0201270D01*
X0177569Y0203237D02*
X0170700Y0203237D01*
X0172057Y0205204D02*
X0172746Y0205204D01*
X0172746Y0207171D02*
X0172057Y0207171D01*
X0172057Y0209138D02*
X0166453Y0209138D01*
X0166590Y0211105D02*
X0166677Y0211105D01*
X0165901Y0213072D02*
X0167688Y0213072D01*
X0170430Y0215039D02*
X0164809Y0215039D01*
X0166052Y0217006D02*
X0181654Y0217006D01*
X0181654Y0218973D02*
X0166230Y0218973D01*
X0165508Y0220940D02*
X0182088Y0220940D01*
X0182903Y0222907D02*
X0164803Y0222907D01*
X0166049Y0224874D02*
X0184636Y0224874D01*
X0186546Y0226841D02*
X0166230Y0226841D01*
X0165514Y0228808D02*
X0184254Y0228808D01*
X0183606Y0230775D02*
X0164798Y0230775D01*
X0166047Y0232742D02*
X0168177Y0232742D01*
X0166855Y0234709D02*
X0166230Y0234709D01*
X0165520Y0236676D02*
X0172057Y0236676D01*
X0172746Y0236676D02*
X0193244Y0236676D01*
X0193206Y0236918D02*
X0193337Y0236090D01*
X0193596Y0235292D01*
X0193977Y0234544D01*
X0194470Y0233865D01*
X0195063Y0233272D01*
X0195742Y0232779D01*
X0196490Y0232398D01*
X0197288Y0232138D01*
X0198117Y0232007D01*
X0198536Y0232007D01*
X0198536Y0237338D01*
X0193206Y0237338D01*
X0193206Y0236918D01*
X0193355Y0238643D02*
X0178133Y0238643D01*
X0177948Y0234709D02*
X0184919Y0234709D01*
X0183774Y0232742D02*
X0176626Y0232742D01*
X0172746Y0232742D02*
X0172057Y0232742D01*
X0172057Y0234709D02*
X0172746Y0234709D01*
X0166670Y0238643D02*
X0156715Y0238643D01*
X0157866Y0236676D02*
X0151329Y0236676D01*
X0150640Y0236676D02*
X0140984Y0236676D01*
X0140984Y0238643D02*
X0145253Y0238643D01*
X0145438Y0234709D02*
X0140984Y0234709D01*
X0140984Y0232742D02*
X0146759Y0232742D01*
X0150640Y0232742D02*
X0151329Y0232742D01*
X0151329Y0234709D02*
X0150640Y0234709D01*
X0155209Y0232742D02*
X0157339Y0232742D01*
X0157156Y0234709D02*
X0156530Y0234709D01*
X0158588Y0230775D02*
X0140984Y0230775D01*
X0140984Y0228808D02*
X0157872Y0228808D01*
X0157156Y0226841D02*
X0140984Y0226841D01*
X0140984Y0224874D02*
X0157337Y0224874D01*
X0158582Y0222907D02*
X0140984Y0222907D01*
X0140984Y0220940D02*
X0157878Y0220940D01*
X0157156Y0218973D02*
X0140984Y0218973D01*
X0140984Y0217006D02*
X0157334Y0217006D01*
X0158576Y0215039D02*
X0152956Y0215039D01*
X0151329Y0215039D02*
X0150640Y0215039D01*
X0149013Y0215039D02*
X0140984Y0215039D01*
X0140984Y0213072D02*
X0146271Y0213072D01*
X0145260Y0211105D02*
X0140984Y0211105D01*
X0140984Y0209138D02*
X0150640Y0209138D01*
X0151329Y0209138D02*
X0156933Y0209138D01*
X0156796Y0211105D02*
X0156709Y0211105D01*
X0157485Y0213072D02*
X0155698Y0213072D01*
X0151329Y0213072D02*
X0150640Y0213072D01*
X0150640Y0211105D02*
X0151329Y0211105D01*
X0151329Y0207171D02*
X0150640Y0207171D01*
X0150640Y0205204D02*
X0151329Y0205204D01*
X0146739Y0205204D02*
X0140984Y0205204D01*
X0140984Y0207171D02*
X0145431Y0207171D01*
X0140984Y0203237D02*
X0167158Y0203237D01*
X0168156Y0205204D02*
X0155230Y0205204D01*
X0156537Y0207171D02*
X0158005Y0207171D01*
X0161693Y0207171D02*
X0161693Y0207171D01*
X0161693Y0209138D02*
X0161693Y0209138D01*
X0165381Y0207171D02*
X0166849Y0207171D01*
X0172057Y0211105D02*
X0172746Y0211105D01*
X0172746Y0213072D02*
X0172057Y0213072D01*
X0172057Y0215039D02*
X0172746Y0215039D01*
X0174373Y0215039D02*
X0182135Y0215039D01*
X0182950Y0213072D02*
X0177115Y0213072D01*
X0178126Y0211105D02*
X0178997Y0211105D01*
X0183005Y0211105D02*
X0184186Y0211105D01*
X0184186Y0209138D02*
X0183005Y0209138D01*
X0183005Y0207171D02*
X0184186Y0207171D01*
X0176962Y0205204D02*
X0176647Y0205204D01*
X0163279Y0201270D02*
X0140984Y0201270D01*
X0140984Y0199303D02*
X0161359Y0199303D01*
X0160544Y0197336D02*
X0140984Y0197336D01*
X0140984Y0195369D02*
X0160039Y0195369D01*
X0160039Y0193402D02*
X0140984Y0193402D01*
X0140984Y0191435D02*
X0160514Y0191435D01*
X0159365Y0189468D02*
X0159365Y0189468D01*
X0154133Y0189468D02*
X0148784Y0189468D01*
X0148784Y0187501D02*
X0154133Y0187501D01*
X0153089Y0181052D02*
X0151311Y0181052D01*
X0151184Y0180926D01*
X0151184Y0170720D01*
X0154269Y0170720D01*
X0154613Y0170377D01*
X0154664Y0170428D01*
X0154533Y0170560D01*
X0154533Y0174234D01*
X0154664Y0174365D01*
X0154533Y0174497D01*
X0154533Y0178171D01*
X0154664Y0178302D01*
X0154533Y0178434D01*
X0154533Y0179608D01*
X0153089Y0181052D01*
X0154509Y0179633D02*
X0151184Y0179633D01*
X0151184Y0177666D02*
X0154533Y0177666D01*
X0154533Y0175698D02*
X0151184Y0175698D01*
X0151184Y0173731D02*
X0154533Y0173731D01*
X0154533Y0171764D02*
X0151184Y0171764D01*
X0172622Y0146193D02*
X0179661Y0146193D01*
X0179416Y0144226D02*
X0171576Y0144226D01*
X0171352Y0142259D02*
X0179416Y0142259D01*
X0182800Y0142259D02*
X0182800Y0142259D01*
X0182800Y0144226D02*
X0182800Y0144226D01*
X0182800Y0146193D02*
X0182800Y0146193D01*
X0184916Y0148160D02*
X0174589Y0148160D01*
X0176556Y0150127D02*
X0179536Y0150127D01*
X0179416Y0152094D02*
X0177484Y0152094D01*
X0177484Y0154061D02*
X0179460Y0154061D01*
X0182800Y0154061D02*
X0182800Y0154061D01*
X0182800Y0152094D02*
X0182800Y0152094D01*
X0182800Y0150127D02*
X0182800Y0150127D01*
X0188684Y0148160D02*
X0202016Y0148160D01*
X0202016Y0146193D02*
X0192863Y0146193D01*
X0193667Y0144226D02*
X0202016Y0144226D01*
X0202016Y0142259D02*
X0192843Y0142259D01*
X0191215Y0150127D02*
X0202016Y0150127D01*
X0202016Y0152094D02*
X0193256Y0152094D01*
X0193085Y0154061D02*
X0202016Y0154061D01*
X0202016Y0156028D02*
X0189084Y0156028D01*
X0189084Y0157995D02*
X0202016Y0157995D01*
X0203306Y0159962D02*
X0189084Y0159962D01*
X0189084Y0161929D02*
X0234664Y0161929D01*
X0233045Y0163896D02*
X0192475Y0163896D01*
X0194442Y0165863D02*
X0232230Y0165863D01*
X0231937Y0167830D02*
X0196409Y0167830D01*
X0195366Y0175698D02*
X0195200Y0175698D01*
X0183212Y0169797D02*
X0181776Y0169797D01*
X0189732Y0150127D02*
X0189914Y0150127D01*
X0184694Y0136358D02*
X0202016Y0136358D01*
X0202016Y0134391D02*
X0192731Y0134391D01*
X0193001Y0132424D02*
X0202016Y0132424D01*
X0202016Y0130457D02*
X0191199Y0130457D01*
X0189321Y0130457D02*
X0189261Y0130457D01*
X0185519Y0128490D02*
X0202016Y0128490D01*
X0202016Y0126523D02*
X0183552Y0126523D01*
X0181585Y0124556D02*
X0202016Y0124556D01*
X0202016Y0122589D02*
X0179618Y0122589D01*
X0177651Y0120622D02*
X0202016Y0120622D01*
X0202016Y0118655D02*
X0196364Y0118655D01*
X0195862Y0119157D02*
X0192595Y0120510D01*
X0189058Y0120510D01*
X0185791Y0119157D01*
X0183290Y0116656D01*
X0181937Y0113389D01*
X0181937Y0109852D01*
X0183290Y0106585D01*
X0185791Y0104084D01*
X0189058Y0102731D01*
X0192595Y0102731D01*
X0195862Y0104084D01*
X0198363Y0106585D01*
X0199717Y0109852D01*
X0199717Y0113389D01*
X0198363Y0116656D01*
X0195862Y0119157D01*
X0198331Y0116688D02*
X0202016Y0116688D01*
X0202016Y0114721D02*
X0199165Y0114721D01*
X0199717Y0112754D02*
X0202016Y0112754D01*
X0202016Y0110787D02*
X0199717Y0110787D01*
X0199289Y0108820D02*
X0202016Y0108820D01*
X0202016Y0106853D02*
X0198474Y0106853D01*
X0196664Y0104886D02*
X0202016Y0104886D01*
X0202398Y0102919D02*
X0193049Y0102919D01*
X0188604Y0102919D02*
X0174942Y0102919D01*
X0175445Y0104886D02*
X0184989Y0104886D01*
X0183179Y0106853D02*
X0174474Y0106853D01*
X0174924Y0108820D02*
X0182365Y0108820D01*
X0181937Y0110787D02*
X0173987Y0110787D01*
X0170384Y0112754D02*
X0181937Y0112754D01*
X0182489Y0114721D02*
X0170716Y0114721D01*
X0173089Y0116688D02*
X0183322Y0116688D01*
X0185289Y0118655D02*
X0175684Y0118655D01*
X0174288Y0122589D02*
X0165946Y0122589D01*
X0164177Y0122589D02*
X0162804Y0122589D01*
X0162848Y0120622D02*
X0169148Y0120622D01*
X0167400Y0118655D02*
X0167400Y0118655D01*
X0167400Y0116688D02*
X0167400Y0116688D01*
X0167400Y0116636D02*
X0167400Y0116636D01*
X0164112Y0118655D02*
X0162898Y0118655D01*
X0167793Y0124556D02*
X0176255Y0124556D01*
X0178222Y0126523D02*
X0169352Y0126523D01*
X0170084Y0128490D02*
X0180189Y0128490D01*
X0179790Y0130457D02*
X0170084Y0130457D01*
X0170084Y0132424D02*
X0179416Y0132424D01*
X0179416Y0134391D02*
X0170084Y0134391D01*
X0170084Y0136358D02*
X0180906Y0136358D01*
X0182800Y0136358D02*
X0182800Y0136358D01*
X0182800Y0134391D02*
X0182800Y0134391D01*
X0170084Y0138325D02*
X0202016Y0138325D01*
X0202016Y0140292D02*
X0170084Y0140292D01*
X0166316Y0132424D02*
X0164981Y0132424D01*
X0146800Y0118655D02*
X0146800Y0118655D01*
X0146800Y0116836D02*
X0146800Y0116836D01*
X0140984Y0109690D02*
X0142726Y0107949D01*
X0143830Y0106845D01*
X0148983Y0106845D01*
X0149077Y0106751D01*
X0151068Y0106751D01*
X0151068Y0104760D01*
X0152226Y0103602D01*
X0161739Y0103602D01*
X0162898Y0104760D01*
X0162898Y0106751D01*
X0164889Y0106751D01*
X0166047Y0107910D01*
X0166047Y0109652D01*
X0169456Y0109652D01*
X0169567Y0109763D01*
X0169355Y0109251D01*
X0169355Y0108143D01*
X0169659Y0107409D01*
X0166820Y0104569D01*
X0165716Y0103465D01*
X0165716Y0102009D01*
X0164450Y0102009D01*
X0163361Y0101558D01*
X0163169Y0101366D01*
X0162977Y0101558D01*
X0161888Y0102009D01*
X0159529Y0102009D01*
X0158440Y0101558D01*
X0157607Y0100725D01*
X0157156Y0099636D01*
X0157156Y0094347D01*
X0156995Y0094734D01*
X0156627Y0095285D01*
X0156159Y0095753D01*
X0155608Y0096121D01*
X0154996Y0096375D01*
X0154347Y0096504D01*
X0150866Y0096504D01*
X0147385Y0096504D01*
X0146736Y0096375D01*
X0146124Y0096121D01*
X0145573Y0095753D01*
X0145105Y0095285D01*
X0144737Y0094734D01*
X0144484Y0094122D01*
X0144354Y0093473D01*
X0144354Y0092551D01*
X0144354Y0091629D01*
X0144484Y0090980D01*
X0144737Y0090368D01*
X0145105Y0089817D01*
X0145152Y0089770D01*
X0144754Y0088810D01*
X0144754Y0086450D01*
X0145205Y0085361D01*
X0145397Y0085169D01*
X0145205Y0084977D01*
X0144754Y0083888D01*
X0144754Y0081529D01*
X0145205Y0080440D01*
X0145397Y0080248D01*
X0145205Y0080056D01*
X0144754Y0078967D01*
X0144754Y0076608D01*
X0145205Y0075519D01*
X0145397Y0075327D01*
X0145205Y0075135D01*
X0144754Y0074046D01*
X0144754Y0071686D01*
X0145205Y0070598D01*
X0145397Y0070405D01*
X0145205Y0070213D01*
X0144754Y0069125D01*
X0144754Y0066765D01*
X0145205Y0065676D01*
X0145397Y0065484D01*
X0145205Y0065292D01*
X0144754Y0064203D01*
X0144754Y0061844D01*
X0145205Y0060755D01*
X0145397Y0060563D01*
X0145205Y0060371D01*
X0144754Y0059282D01*
X0144754Y0056923D01*
X0145205Y0055834D01*
X0145397Y0055642D01*
X0145205Y0055450D01*
X0144754Y0054361D01*
X0144754Y0052001D01*
X0145202Y0050920D01*
X0144423Y0050597D01*
X0143640Y0049813D01*
X0143216Y0048790D01*
X0143216Y0047682D01*
X0143640Y0046659D01*
X0144423Y0045876D01*
X0145186Y0045560D01*
X0144754Y0044518D01*
X0144754Y0042159D01*
X0145205Y0041070D01*
X0145397Y0040878D01*
X0145205Y0040686D01*
X0144754Y0039597D01*
X0144754Y0037238D01*
X0145176Y0036220D01*
X0144846Y0036220D01*
X0143823Y0035797D01*
X0143040Y0035013D01*
X0142616Y0033990D01*
X0142616Y0032882D01*
X0143040Y0031859D01*
X0143823Y0031076D01*
X0144846Y0030652D01*
X0145126Y0030652D01*
X0144754Y0029755D01*
X0144754Y0027395D01*
X0145205Y0026306D01*
X0145397Y0026114D01*
X0145205Y0025922D01*
X0144754Y0024833D01*
X0144754Y0022474D01*
X0145152Y0021513D01*
X0145105Y0021466D01*
X0144737Y0020915D01*
X0144484Y0020304D01*
X0140984Y0020304D01*
X0140984Y0018337D02*
X0144354Y0018337D01*
X0144354Y0018732D02*
X0144354Y0017811D01*
X0144484Y0017161D01*
X0144737Y0016549D01*
X0145105Y0015998D01*
X0145573Y0015530D01*
X0145737Y0015420D01*
X0140984Y0015420D01*
X0140984Y0036030D01*
X0140530Y0037127D01*
X0140033Y0037624D01*
X0140033Y0059249D01*
X0140530Y0059746D01*
X0140984Y0060843D01*
X0140984Y0109690D01*
X0140984Y0108820D02*
X0141854Y0108820D01*
X0140984Y0106853D02*
X0143821Y0106853D01*
X0140984Y0104886D02*
X0151068Y0104886D01*
X0157834Y0100952D02*
X0140984Y0100952D01*
X0140984Y0102919D02*
X0165716Y0102919D01*
X0167136Y0104886D02*
X0162898Y0104886D01*
X0164990Y0106853D02*
X0169103Y0106853D01*
X0169355Y0108820D02*
X0166047Y0108820D01*
X0157156Y0098985D02*
X0140984Y0098985D01*
X0140984Y0097018D02*
X0157156Y0097018D01*
X0157156Y0095051D02*
X0156784Y0095051D01*
X0157276Y0091117D02*
X0157588Y0091117D01*
X0156837Y0089150D02*
X0159802Y0089150D01*
X0156978Y0087183D02*
X0198691Y0087183D01*
X0198832Y0089150D02*
X0164598Y0089150D01*
X0156978Y0083249D02*
X0198691Y0083249D01*
X0198794Y0081282D02*
X0156876Y0081282D01*
X0156834Y0079315D02*
X0198835Y0079315D01*
X0198691Y0077348D02*
X0156978Y0077348D01*
X0156389Y0075381D02*
X0199280Y0075381D01*
X0198691Y0073414D02*
X0156978Y0073414D01*
X0156879Y0071447D02*
X0164918Y0071447D01*
X0165041Y0071498D02*
X0163952Y0071047D01*
X0163119Y0070213D01*
X0162668Y0069125D01*
X0162668Y0066765D01*
X0163119Y0065676D01*
X0163311Y0065484D01*
X0163119Y0065292D01*
X0162668Y0064203D01*
X0162668Y0061844D01*
X0163066Y0060883D01*
X0163018Y0060836D01*
X0162650Y0060286D01*
X0162397Y0059674D01*
X0162268Y0059024D01*
X0162268Y0058102D01*
X0162268Y0057181D01*
X0162397Y0056531D01*
X0162650Y0055919D01*
X0162836Y0055642D01*
X0162650Y0055364D01*
X0162397Y0054752D01*
X0162268Y0054103D01*
X0162268Y0053181D01*
X0162268Y0052259D01*
X0162397Y0051610D01*
X0162650Y0050998D01*
X0162836Y0050720D01*
X0162650Y0050443D01*
X0162397Y0049831D01*
X0162268Y0049182D01*
X0162268Y0048260D01*
X0168779Y0048260D01*
X0168779Y0048260D01*
X0162268Y0048260D01*
X0162268Y0047338D01*
X0162397Y0046689D01*
X0162650Y0046077D01*
X0162836Y0045799D01*
X0162650Y0045522D01*
X0162397Y0044910D01*
X0162268Y0044260D01*
X0162268Y0043339D01*
X0168779Y0043339D01*
X0168779Y0043339D01*
X0168779Y0048260D01*
X0168779Y0053181D01*
X0162268Y0053181D01*
X0168779Y0053181D01*
X0168779Y0053181D01*
X0168780Y0053181D01*
X0168780Y0053181D01*
X0175291Y0053181D01*
X0175291Y0052259D01*
X0175162Y0051610D01*
X0174909Y0050998D01*
X0174723Y0050720D01*
X0174909Y0050443D01*
X0175162Y0049831D01*
X0175291Y0049182D01*
X0175291Y0048260D01*
X0168780Y0048260D01*
X0168780Y0048260D01*
X0175291Y0048260D01*
X0175291Y0047338D01*
X0175162Y0046689D01*
X0174909Y0046077D01*
X0174723Y0045799D01*
X0174909Y0045522D01*
X0175162Y0044910D01*
X0175291Y0044260D01*
X0175291Y0043339D01*
X0168780Y0043339D01*
X0168780Y0043339D01*
X0168779Y0043339D01*
X0162268Y0043339D01*
X0162268Y0042417D01*
X0162397Y0041767D01*
X0162650Y0041155D01*
X0163018Y0040605D01*
X0163487Y0040136D01*
X0164037Y0039768D01*
X0164649Y0039515D01*
X0165299Y0039386D01*
X0168779Y0039386D01*
X0168779Y0043338D01*
X0168780Y0043338D01*
X0168780Y0043339D02*
X0175291Y0043339D01*
X0175291Y0042417D01*
X0175162Y0041767D01*
X0174909Y0041155D01*
X0174541Y0040605D01*
X0174072Y0040136D01*
X0173522Y0039768D01*
X0172910Y0039515D01*
X0172260Y0039386D01*
X0168780Y0039386D01*
X0168780Y0043338D01*
X0168780Y0043339D02*
X0168780Y0047291D01*
X0168780Y0048260D01*
X0168779Y0048260D01*
X0168780Y0048260D01*
X0168780Y0049228D01*
X0168780Y0053181D01*
X0175291Y0053181D01*
X0175291Y0054103D01*
X0175162Y0054752D01*
X0174909Y0055364D01*
X0174723Y0055642D01*
X0174909Y0055919D01*
X0175162Y0056531D01*
X0175291Y0057181D01*
X0175291Y0058102D01*
X0168780Y0058102D01*
X0168780Y0058102D01*
X0168780Y0054150D01*
X0168780Y0053181D01*
X0168779Y0053181D01*
X0168779Y0058102D01*
X0162268Y0058102D01*
X0168779Y0058102D01*
X0168779Y0058102D01*
X0168780Y0058102D01*
X0175291Y0058102D01*
X0175291Y0059024D01*
X0175162Y0059674D01*
X0174909Y0060286D01*
X0174541Y0060836D01*
X0174493Y0060883D01*
X0174891Y0061844D01*
X0174891Y0064203D01*
X0174440Y0065292D01*
X0174248Y0065484D01*
X0174440Y0065676D01*
X0174891Y0066765D01*
X0174891Y0069125D01*
X0174440Y0070213D01*
X0173607Y0071047D01*
X0172518Y0071498D01*
X0165041Y0071498D01*
X0162815Y0069480D02*
X0156831Y0069480D01*
X0156978Y0067513D02*
X0162668Y0067513D01*
X0163249Y0065546D02*
X0156396Y0065546D01*
X0156978Y0063579D02*
X0162668Y0063579D01*
X0162764Y0061612D02*
X0156882Y0061612D01*
X0156828Y0059645D02*
X0162391Y0059645D01*
X0162268Y0057678D02*
X0156978Y0057678D01*
X0156404Y0055711D02*
X0162790Y0055711D01*
X0162268Y0053744D02*
X0156978Y0053744D01*
X0156885Y0051777D02*
X0162364Y0051777D01*
X0162393Y0049810D02*
X0156825Y0049810D01*
X0156978Y0047842D02*
X0162268Y0047842D01*
X0162785Y0045875D02*
X0157304Y0045875D01*
X0159135Y0043908D02*
X0162268Y0043908D01*
X0162362Y0041941D02*
X0158877Y0041941D01*
X0156822Y0039974D02*
X0163729Y0039974D01*
X0168779Y0039974D02*
X0168780Y0039974D01*
X0168779Y0041941D02*
X0168780Y0041941D01*
X0168779Y0043908D02*
X0168780Y0043908D01*
X0168779Y0045875D02*
X0168780Y0045875D01*
X0168779Y0047842D02*
X0168780Y0047842D01*
X0168779Y0049810D02*
X0168780Y0049810D01*
X0168779Y0051777D02*
X0168780Y0051777D01*
X0168779Y0053744D02*
X0168780Y0053744D01*
X0168779Y0055711D02*
X0168780Y0055711D01*
X0168779Y0057678D02*
X0168780Y0057678D01*
X0174769Y0055711D02*
X0181352Y0055711D01*
X0181421Y0055642D02*
X0181229Y0055450D01*
X0180778Y0054361D01*
X0180778Y0052001D01*
X0181229Y0050913D01*
X0181421Y0050720D01*
X0181229Y0050528D01*
X0180778Y0049440D01*
X0180778Y0047080D01*
X0181229Y0045991D01*
X0181421Y0045799D01*
X0181229Y0045607D01*
X0180778Y0044518D01*
X0180778Y0042159D01*
X0181229Y0041070D01*
X0182062Y0040237D01*
X0183151Y0039786D01*
X0190629Y0039786D01*
X0191717Y0040237D01*
X0192551Y0041070D01*
X0193002Y0042159D01*
X0193002Y0044518D01*
X0192551Y0045607D01*
X0192358Y0045799D01*
X0192551Y0045991D01*
X0193002Y0047080D01*
X0193002Y0049440D01*
X0192551Y0050528D01*
X0192358Y0050720D01*
X0192551Y0050913D01*
X0193002Y0052001D01*
X0193002Y0054361D01*
X0192551Y0055450D01*
X0192358Y0055642D01*
X0192551Y0055834D01*
X0193002Y0056923D01*
X0193002Y0059282D01*
X0192551Y0060371D01*
X0192358Y0060563D01*
X0192551Y0060755D01*
X0193002Y0061844D01*
X0193002Y0064203D01*
X0192551Y0065292D01*
X0192358Y0065484D01*
X0192420Y0065546D01*
X0192646Y0065452D01*
X0193754Y0065452D01*
X0194777Y0065876D01*
X0195560Y0066659D01*
X0195984Y0067682D01*
X0195984Y0068790D01*
X0195560Y0069813D01*
X0194777Y0070597D01*
X0193754Y0071020D01*
X0192646Y0071020D01*
X0192008Y0070756D01*
X0191717Y0071047D01*
X0190629Y0071498D01*
X0183151Y0071498D01*
X0182062Y0071047D01*
X0181229Y0070213D01*
X0180778Y0069125D01*
X0180778Y0066765D01*
X0181229Y0065676D01*
X0181421Y0065484D01*
X0181229Y0065292D01*
X0180778Y0064203D01*
X0180778Y0061844D01*
X0181229Y0060755D01*
X0181421Y0060563D01*
X0181229Y0060371D01*
X0180778Y0059282D01*
X0180778Y0056923D01*
X0181229Y0055834D01*
X0181421Y0055642D01*
X0180778Y0053744D02*
X0175291Y0053744D01*
X0175195Y0051777D02*
X0180871Y0051777D01*
X0180931Y0049810D02*
X0175166Y0049810D01*
X0175291Y0047842D02*
X0180778Y0047842D01*
X0181345Y0045875D02*
X0174774Y0045875D01*
X0175291Y0043908D02*
X0180778Y0043908D01*
X0180868Y0041941D02*
X0175197Y0041941D01*
X0173830Y0039974D02*
X0182696Y0039974D01*
X0191084Y0039974D02*
X0198848Y0039974D01*
X0198781Y0041941D02*
X0192912Y0041941D01*
X0193002Y0043908D02*
X0198691Y0043908D01*
X0199258Y0045875D02*
X0192435Y0045875D01*
X0193002Y0047842D02*
X0198691Y0047842D01*
X0198845Y0049810D02*
X0192848Y0049810D01*
X0192908Y0051777D02*
X0198784Y0051777D01*
X0198691Y0053744D02*
X0193002Y0053744D01*
X0192427Y0055711D02*
X0199266Y0055711D01*
X0198691Y0057678D02*
X0193002Y0057678D01*
X0192851Y0059645D02*
X0198841Y0059645D01*
X0198788Y0061612D02*
X0192905Y0061612D01*
X0193002Y0063579D02*
X0198691Y0063579D01*
X0199273Y0065546D02*
X0193980Y0065546D01*
X0192420Y0065546D02*
X0192420Y0065546D01*
X0195914Y0067513D02*
X0198691Y0067513D01*
X0198838Y0069480D02*
X0195699Y0069480D01*
X0198791Y0071447D02*
X0190752Y0071447D01*
X0183028Y0071447D02*
X0172641Y0071447D01*
X0174744Y0069480D02*
X0180925Y0069480D01*
X0180778Y0067513D02*
X0174891Y0067513D01*
X0174310Y0065546D02*
X0181360Y0065546D01*
X0180778Y0063579D02*
X0174891Y0063579D01*
X0174795Y0061612D02*
X0180874Y0061612D01*
X0180928Y0059645D02*
X0175168Y0059645D01*
X0175291Y0057678D02*
X0180778Y0057678D01*
X0198691Y0038007D02*
X0156978Y0038007D01*
X0156419Y0036040D02*
X0199251Y0036040D01*
X0198691Y0034073D02*
X0156978Y0034073D01*
X0156891Y0032106D02*
X0198778Y0032106D01*
X0198851Y0030139D02*
X0198017Y0030139D01*
X0198017Y0028172D02*
X0198691Y0028172D01*
X0199243Y0026205D02*
X0198017Y0026205D01*
X0198017Y0024238D02*
X0198691Y0024238D01*
X0198775Y0022271D02*
X0198017Y0022271D01*
X0198017Y0018337D02*
X0198291Y0018337D01*
X0198017Y0016370D02*
X0198794Y0016370D01*
X0210813Y0016370D02*
X0213016Y0016370D01*
X0213016Y0018337D02*
X0211315Y0018337D01*
X0211185Y0020304D02*
X0213016Y0020304D01*
X0213016Y0022271D02*
X0210831Y0022271D01*
X0210915Y0024238D02*
X0213016Y0024238D01*
X0213016Y0026205D02*
X0210363Y0026205D01*
X0210915Y0028172D02*
X0213016Y0028172D01*
X0213016Y0030139D02*
X0210756Y0030139D01*
X0210828Y0032106D02*
X0213016Y0032106D01*
X0213016Y0034073D02*
X0210915Y0034073D01*
X0210356Y0036040D02*
X0213016Y0036040D01*
X0213016Y0038007D02*
X0210915Y0038007D01*
X0210759Y0039974D02*
X0213016Y0039974D01*
X0213016Y0041941D02*
X0210825Y0041941D01*
X0210915Y0043908D02*
X0213016Y0043908D01*
X0213016Y0045875D02*
X0210348Y0045875D01*
X0210915Y0047842D02*
X0213016Y0047842D01*
X0213016Y0049810D02*
X0210762Y0049810D01*
X0210822Y0051777D02*
X0213016Y0051777D01*
X0213016Y0053744D02*
X0210915Y0053744D01*
X0210341Y0055711D02*
X0213016Y0055711D01*
X0213016Y0057678D02*
X0210915Y0057678D01*
X0210765Y0059645D02*
X0213016Y0059645D01*
X0213016Y0061612D02*
X0210819Y0061612D01*
X0210915Y0063579D02*
X0213016Y0063579D01*
X0213016Y0065546D02*
X0210333Y0065546D01*
X0210915Y0067513D02*
X0213016Y0067513D01*
X0213016Y0069480D02*
X0210768Y0069480D01*
X0210816Y0071447D02*
X0213016Y0071447D01*
X0213016Y0073414D02*
X0210915Y0073414D01*
X0210326Y0075381D02*
X0213016Y0075381D01*
X0213016Y0077348D02*
X0210915Y0077348D01*
X0210771Y0079315D02*
X0213016Y0079315D01*
X0213016Y0081282D02*
X0210813Y0081282D01*
X0210915Y0083249D02*
X0213016Y0083249D01*
X0213016Y0085216D02*
X0210318Y0085216D01*
X0210915Y0087183D02*
X0213016Y0087183D01*
X0213016Y0089150D02*
X0210774Y0089150D01*
X0211213Y0091117D02*
X0213016Y0091117D01*
X0213016Y0093084D02*
X0211315Y0093084D01*
X0211315Y0093473D02*
X0211186Y0094122D01*
X0210932Y0094734D01*
X0210564Y0095285D01*
X0210096Y0095753D01*
X0209545Y0096121D01*
X0208933Y0096375D01*
X0208284Y0096504D01*
X0204803Y0096504D01*
X0204803Y0092551D01*
X0204803Y0092551D01*
X0211315Y0092551D01*
X0211315Y0093473D01*
X0210721Y0095051D02*
X0213016Y0095051D01*
X0213016Y0097018D02*
X0198710Y0097018D01*
X0198710Y0098985D02*
X0213016Y0098985D01*
X0213016Y0100952D02*
X0198033Y0100952D01*
X0198710Y0095051D02*
X0198886Y0095051D01*
X0198393Y0091117D02*
X0198279Y0091117D01*
X0199288Y0085216D02*
X0156381Y0085216D01*
X0150866Y0092551D02*
X0144354Y0092551D01*
X0150866Y0092551D01*
X0150866Y0092551D01*
X0150866Y0096504D01*
X0150866Y0092551D01*
X0150866Y0092551D01*
X0150866Y0093084D02*
X0150866Y0093084D01*
X0150866Y0095051D02*
X0150866Y0095051D01*
X0144948Y0095051D02*
X0140984Y0095051D01*
X0140984Y0093084D02*
X0144354Y0093084D01*
X0144456Y0091117D02*
X0140984Y0091117D01*
X0140984Y0089150D02*
X0144895Y0089150D01*
X0144754Y0087183D02*
X0140984Y0087183D01*
X0140984Y0085216D02*
X0145351Y0085216D01*
X0144754Y0083249D02*
X0140984Y0083249D01*
X0140984Y0081282D02*
X0144857Y0081282D01*
X0144898Y0079315D02*
X0140984Y0079315D01*
X0140984Y0077348D02*
X0144754Y0077348D01*
X0145343Y0075381D02*
X0140984Y0075381D01*
X0140984Y0073414D02*
X0144754Y0073414D01*
X0144854Y0071447D02*
X0140984Y0071447D01*
X0140984Y0069480D02*
X0144901Y0069480D01*
X0144754Y0067513D02*
X0140984Y0067513D01*
X0140984Y0065546D02*
X0145336Y0065546D01*
X0144754Y0063579D02*
X0140984Y0063579D01*
X0140984Y0061612D02*
X0144851Y0061612D01*
X0144904Y0059645D02*
X0140429Y0059645D01*
X0140033Y0057678D02*
X0144754Y0057678D01*
X0145329Y0055711D02*
X0140033Y0055711D01*
X0140033Y0053744D02*
X0144754Y0053744D01*
X0144847Y0051777D02*
X0140033Y0051777D01*
X0140033Y0049810D02*
X0143638Y0049810D01*
X0143216Y0047842D02*
X0140033Y0047842D01*
X0140033Y0045875D02*
X0144424Y0045875D01*
X0144754Y0043908D02*
X0140033Y0043908D01*
X0140033Y0041941D02*
X0144844Y0041941D01*
X0144911Y0039974D02*
X0140033Y0039974D01*
X0140033Y0038007D02*
X0144754Y0038007D01*
X0144411Y0036040D02*
X0140980Y0036040D01*
X0140984Y0034073D02*
X0142650Y0034073D01*
X0142937Y0032106D02*
X0140984Y0032106D01*
X0140984Y0030139D02*
X0144914Y0030139D01*
X0144754Y0028172D02*
X0140984Y0028172D01*
X0140984Y0026205D02*
X0145306Y0026205D01*
X0144754Y0024238D02*
X0140984Y0024238D01*
X0140984Y0022271D02*
X0144838Y0022271D01*
X0144484Y0020304D02*
X0144354Y0019654D01*
X0144354Y0018732D01*
X0150866Y0018732D01*
X0150866Y0018732D01*
X0144354Y0018732D01*
X0144856Y0016370D02*
X0140984Y0016370D01*
X0156819Y0030139D02*
X0156865Y0030139D01*
X0204803Y0093084D02*
X0204803Y0093084D01*
X0204803Y0095051D02*
X0204803Y0095051D01*
X0209434Y0169797D02*
X0231937Y0169797D01*
X0232624Y0171764D02*
X0209434Y0171764D01*
X0214500Y0173731D02*
X0214500Y0173731D01*
X0214500Y0175636D02*
X0214500Y0175636D01*
X0217584Y0175698D02*
X0235615Y0175698D01*
X0233648Y0173731D02*
X0217465Y0173731D01*
X0217412Y0177666D02*
X0248016Y0177666D01*
X0248016Y0179633D02*
X0229997Y0179633D01*
X0231058Y0181600D02*
X0248016Y0181600D01*
X0248016Y0183567D02*
X0231222Y0183567D01*
X0230627Y0185534D02*
X0248016Y0185534D01*
X0248016Y0187501D02*
X0228957Y0187501D01*
X0234832Y0189468D02*
X0248016Y0189468D01*
X0248016Y0191435D02*
X0235990Y0191435D01*
X0236222Y0193402D02*
X0248016Y0193402D01*
X0248016Y0195369D02*
X0235696Y0195369D01*
X0234122Y0197336D02*
X0248016Y0197336D01*
X0248016Y0199303D02*
X0228047Y0199303D01*
X0226080Y0201270D02*
X0238896Y0201270D01*
X0237411Y0203237D02*
X0221839Y0203237D01*
X0219361Y0203237D02*
X0189622Y0203237D01*
X0190229Y0205204D02*
X0236804Y0205204D01*
X0236797Y0207171D02*
X0190236Y0207171D01*
X0193689Y0209138D02*
X0233186Y0209138D01*
X0229751Y0211105D02*
X0197125Y0211105D01*
X0198926Y0213072D02*
X0227950Y0213072D01*
X0227135Y0215039D02*
X0199740Y0215039D01*
X0200221Y0217006D02*
X0226654Y0217006D01*
X0226654Y0218973D02*
X0200221Y0218973D01*
X0199788Y0220940D02*
X0227088Y0220940D01*
X0227903Y0222907D02*
X0198973Y0222907D01*
X0197239Y0224874D02*
X0229636Y0224874D01*
X0229320Y0226423D02*
X0231132Y0227173D01*
X0232519Y0228561D01*
X0233270Y0230373D01*
X0233270Y0232334D01*
X0232519Y0234147D01*
X0231132Y0235534D01*
X0229320Y0236284D01*
X0227359Y0236284D01*
X0225546Y0235534D01*
X0224159Y0234147D01*
X0223409Y0232334D01*
X0223409Y0230373D01*
X0224159Y0228561D01*
X0225546Y0227173D01*
X0227359Y0226423D01*
X0229320Y0226423D01*
X0230329Y0226841D02*
X0232911Y0226841D01*
X0232622Y0228808D02*
X0248016Y0228808D01*
X0248016Y0230775D02*
X0233270Y0230775D01*
X0233101Y0232742D02*
X0235617Y0232742D01*
X0235545Y0232779D02*
X0236293Y0232398D01*
X0237091Y0232138D01*
X0237920Y0232007D01*
X0238339Y0232007D01*
X0238339Y0237338D01*
X0233009Y0237338D01*
X0233009Y0236918D01*
X0233140Y0236090D01*
X0233399Y0235292D01*
X0233780Y0234544D01*
X0234273Y0233865D01*
X0234867Y0233272D01*
X0235545Y0232779D01*
X0233696Y0234709D02*
X0231957Y0234709D01*
X0233047Y0236676D02*
X0203829Y0236676D01*
X0203867Y0236918D02*
X0203867Y0237338D01*
X0198536Y0237338D01*
X0198536Y0237338D01*
X0198536Y0237338D01*
X0198536Y0232007D01*
X0198956Y0232007D01*
X0199784Y0232138D01*
X0200582Y0232398D01*
X0201330Y0232779D01*
X0202009Y0233272D01*
X0202602Y0233865D01*
X0203095Y0234544D01*
X0203476Y0235292D01*
X0203736Y0236090D01*
X0203867Y0236918D01*
X0203717Y0238643D02*
X0233158Y0238643D01*
X0238339Y0237338D02*
X0238339Y0237338D01*
X0238339Y0237338D01*
X0238339Y0232007D01*
X0238759Y0232007D01*
X0239588Y0232138D01*
X0240386Y0232398D01*
X0241133Y0232779D01*
X0241812Y0233272D01*
X0242405Y0233865D01*
X0242899Y0234544D01*
X0243280Y0235292D01*
X0243539Y0236090D01*
X0243670Y0236918D01*
X0243670Y0237338D01*
X0238339Y0237338D01*
X0238339Y0236676D02*
X0238339Y0236676D01*
X0238339Y0234709D02*
X0238339Y0234709D01*
X0238339Y0232742D02*
X0238339Y0232742D01*
X0241061Y0232742D02*
X0248016Y0232742D01*
X0248016Y0234709D02*
X0242983Y0234709D01*
X0243632Y0236676D02*
X0248016Y0236676D01*
X0248016Y0238643D02*
X0243520Y0238643D01*
X0248016Y0226841D02*
X0238965Y0226841D01*
X0242239Y0224874D02*
X0248016Y0224874D01*
X0248016Y0222907D02*
X0243973Y0222907D01*
X0244788Y0220940D02*
X0248016Y0220940D01*
X0248016Y0218973D02*
X0245221Y0218973D01*
X0245221Y0217006D02*
X0248016Y0217006D01*
X0248016Y0215039D02*
X0244740Y0215039D01*
X0243926Y0213072D02*
X0248016Y0213072D01*
X0244028Y0211105D02*
X0242847Y0211105D01*
X0242847Y0209138D02*
X0244028Y0209138D01*
X0244028Y0207171D02*
X0242847Y0207171D01*
X0242847Y0205204D02*
X0244028Y0205204D01*
X0244028Y0203237D02*
X0242847Y0203237D01*
X0242847Y0201270D02*
X0244028Y0201270D01*
X0247979Y0201270D02*
X0248016Y0201270D01*
X0248016Y0175698D02*
X0246039Y0175698D01*
X0248006Y0173731D02*
X0248016Y0173731D01*
X0221879Y0179633D02*
X0219997Y0179633D01*
X0226349Y0226841D02*
X0193965Y0226841D01*
X0192819Y0228808D02*
X0224057Y0228808D01*
X0223409Y0230775D02*
X0193467Y0230775D01*
X0193298Y0232742D02*
X0195814Y0232742D01*
X0198536Y0232742D02*
X0198536Y0232742D01*
X0198536Y0234709D02*
X0198536Y0234709D01*
X0198536Y0236676D02*
X0198536Y0236676D01*
X0201258Y0232742D02*
X0223577Y0232742D01*
X0224722Y0234709D02*
X0203180Y0234709D01*
X0193893Y0234709D02*
X0192154Y0234709D01*
D34*
X0184551Y0199836D02*
X0220600Y0199836D01*
X0220600Y0200736D01*
X0220600Y0199836D02*
X0224849Y0199836D01*
X0227200Y0197485D01*
X0227400Y0192236D01*
X0228200Y0190436D01*
X0230810Y0193046D01*
X0230938Y0193046D01*
X0226000Y0196988D02*
X0226000Y0183109D01*
X0225938Y0183046D01*
X0218128Y0190236D02*
X0216200Y0190236D01*
X0213600Y0187636D01*
X0210000Y0187636D01*
X0206400Y0184036D01*
X0205938Y0184036D01*
X0205938Y0183046D01*
X0205938Y0182698D01*
X0210400Y0178236D01*
X0210400Y0175636D01*
X0208050Y0175636D01*
X0205650Y0173236D01*
X0199150Y0173236D02*
X0189950Y0164036D01*
X0187200Y0164036D01*
X0187200Y0152636D01*
X0186800Y0152236D01*
X0186800Y0143836D01*
X0187200Y0144236D01*
X0190883Y0144236D01*
X0190565Y0152872D02*
X0187435Y0152872D01*
X0186800Y0152236D01*
X0175600Y0151836D02*
X0168953Y0145189D01*
X0168192Y0145189D01*
X0165528Y0147648D02*
X0165492Y0147612D01*
X0165492Y0142766D01*
X0168200Y0140058D01*
X0168200Y0128036D01*
X0167861Y0128036D01*
X0165061Y0125236D01*
X0160920Y0123517D02*
X0159800Y0124636D01*
X0159800Y0138836D01*
X0150600Y0148036D01*
X0150600Y0167636D01*
X0151800Y0168836D01*
X0153489Y0168836D01*
X0155019Y0167306D01*
X0155019Y0166617D01*
X0156000Y0165636D01*
X0158252Y0165636D01*
X0159365Y0164523D01*
X0159365Y0168460D02*
X0159542Y0168636D01*
X0162400Y0168636D01*
X0163400Y0169636D01*
X0165449Y0169636D01*
X0169049Y0173236D01*
X0171351Y0173236D01*
X0172576Y0172012D01*
X0171139Y0171976D01*
X0173424Y0172860D02*
X0171849Y0174436D01*
X0168551Y0174436D01*
X0164951Y0170836D01*
X0163600Y0170836D01*
X0162000Y0172436D01*
X0161961Y0172397D01*
X0159365Y0172397D01*
X0159365Y0176334D02*
X0166502Y0176334D01*
X0167200Y0175636D01*
X0171351Y0175636D01*
X0171351Y0175636D01*
X0175091Y0175636D01*
X0177861Y0172867D01*
X0177861Y0172330D01*
X0179961Y0171997D02*
X0181200Y0173236D01*
X0175600Y0178836D01*
X0166800Y0178836D01*
X0165898Y0179558D01*
X0165807Y0179468D01*
X0164413Y0179468D01*
X0165800Y0179636D02*
X0165898Y0179558D01*
X0168739Y0182097D02*
X0165800Y0184836D01*
X0168739Y0182097D02*
X0169776Y0181860D01*
X0172151Y0184236D01*
X0175751Y0184236D01*
X0180200Y0188685D01*
X0180200Y0195485D01*
X0184551Y0199836D01*
X0185049Y0198636D02*
X0181400Y0194988D01*
X0181400Y0188188D01*
X0176249Y0183036D01*
X0172649Y0183036D01*
X0170624Y0181012D01*
X0172061Y0181176D01*
X0178461Y0181176D01*
X0180800Y0178836D01*
X0181200Y0173236D02*
X0182200Y0172236D01*
X0184600Y0172236D01*
X0179961Y0171997D02*
X0179961Y0171460D01*
X0175337Y0166836D01*
X0170700Y0166836D01*
X0170700Y0164336D01*
X0169800Y0163236D01*
X0168100Y0164936D01*
X0168100Y0165009D01*
X0166073Y0167036D01*
X0165000Y0167036D01*
X0165800Y0163236D02*
X0167500Y0161536D01*
X0167500Y0161463D01*
X0168000Y0160963D01*
X0168000Y0159636D01*
X0165528Y0157908D02*
X0165528Y0155531D01*
X0165528Y0147648D01*
X0162492Y0145189D02*
X0161647Y0145189D01*
X0153300Y0153536D01*
X0153300Y0162555D01*
X0152819Y0163036D01*
X0155013Y0164343D02*
X0152919Y0166436D01*
X0155013Y0164343D02*
X0155013Y0158036D01*
X0156400Y0156649D01*
X0159365Y0156649D01*
X0159715Y0160236D02*
X0163200Y0160236D01*
X0165528Y0157908D01*
X0171228Y0155531D02*
X0171228Y0161392D01*
X0169401Y0163220D01*
X0169800Y0163236D01*
X0175600Y0160400D02*
X0175600Y0151836D01*
X0175600Y0160400D02*
X0176811Y0161611D01*
X0180000Y0165050D01*
X0180000Y0167636D01*
X0174661Y0173097D02*
X0173424Y0172860D01*
X0159365Y0180271D02*
X0156535Y0180271D01*
X0153870Y0182936D01*
X0150530Y0182936D01*
X0150030Y0182436D01*
X0150000Y0182436D01*
X0149300Y0181736D01*
X0149300Y0153456D01*
X0146400Y0150556D01*
X0146400Y0122836D01*
X0143800Y0120236D01*
X0143800Y0111236D01*
X0144800Y0110236D01*
X0150813Y0110236D01*
X0150880Y0110304D01*
X0150838Y0111836D02*
X0148600Y0111836D01*
X0147600Y0112836D01*
X0146800Y0112836D01*
X0148500Y0115136D02*
X0146800Y0116836D01*
X0148500Y0115136D02*
X0148573Y0115136D01*
X0148681Y0115028D01*
X0150880Y0115028D01*
X0152119Y0115028D01*
X0153158Y0116067D01*
X0153158Y0117139D01*
X0153046Y0117252D01*
X0153046Y0118769D01*
X0153327Y0119050D01*
X0153327Y0120289D01*
X0154085Y0121046D01*
X0155610Y0121046D01*
X0157400Y0122836D01*
X0160920Y0123517D02*
X0160920Y0118769D01*
X0160920Y0117252D01*
X0160807Y0117139D01*
X0160807Y0111836D01*
X0160765Y0111879D01*
X0150880Y0111879D01*
X0150838Y0111836D01*
X0150880Y0108729D02*
X0144610Y0108729D01*
X0142600Y0110739D01*
X0142600Y0120733D01*
X0145200Y0123333D01*
X0145200Y0151053D01*
X0148100Y0153953D01*
X0148100Y0182233D01*
X0150075Y0184208D01*
X0159365Y0184208D01*
X0159365Y0160586D02*
X0159715Y0160236D01*
X0155013Y0158036D02*
X0155000Y0158036D01*
X0148600Y0141036D02*
X0148600Y0139836D01*
X0151400Y0137036D01*
X0152000Y0136436D01*
X0156750Y0136436D01*
X0156750Y0126661D01*
X0150763Y0120673D01*
X0160807Y0111836D02*
X0160807Y0111229D01*
X0161000Y0111036D01*
X0161843Y0111879D01*
X0163085Y0111879D01*
X0163085Y0113454D02*
X0166583Y0113454D01*
X0167400Y0112636D01*
X0165792Y0115028D02*
X0167400Y0116636D01*
X0165792Y0115028D02*
X0163085Y0115028D01*
X0161000Y0111036D02*
X0161732Y0110304D01*
X0163085Y0110304D01*
X0167600Y0102685D02*
X0167600Y0100836D01*
X0166000Y0099236D01*
X0165800Y0099236D01*
X0165630Y0099066D01*
X0165630Y0095898D01*
X0162200Y0094406D02*
X0162200Y0090636D01*
X0162200Y0094406D02*
X0160709Y0095898D01*
X0168800Y0100836D02*
X0168800Y0102188D01*
X0172624Y0106012D01*
X0172661Y0104576D01*
X0171776Y0106860D02*
X0167600Y0102685D01*
X0168800Y0100836D02*
X0169800Y0099836D01*
X0170200Y0099836D01*
X0170551Y0099485D01*
X0170551Y0095898D01*
X0171776Y0106860D02*
X0172139Y0108697D01*
X0173000Y0118636D02*
X0171100Y0118636D01*
X0173000Y0118636D02*
X0187400Y0133036D01*
X0190214Y0133036D01*
X0190260Y0133082D01*
X0187400Y0133036D02*
X0186800Y0133036D01*
X0166000Y0136236D02*
X0163050Y0136236D01*
X0162850Y0136436D01*
X0189539Y0176776D02*
X0190776Y0176812D01*
X0188000Y0179588D01*
X0188000Y0194036D01*
X0186500Y0194636D01*
X0189200Y0194036D02*
X0190100Y0193236D01*
X0189200Y0194036D02*
X0189200Y0180085D01*
X0191624Y0177660D01*
X0193061Y0177497D01*
X0185049Y0198636D02*
X0216600Y0198636D01*
X0216600Y0197636D01*
X0216600Y0198636D02*
X0224351Y0198636D01*
X0226000Y0196988D01*
X0220938Y0193046D02*
X0218128Y0190236D01*
X0193200Y0068236D02*
X0192909Y0067945D01*
X0186890Y0067945D01*
X0156400Y0043236D02*
X0150969Y0043236D01*
X0150866Y0043339D01*
X0150866Y0048260D02*
X0146024Y0048260D01*
X0146000Y0048236D01*
X0145460Y0033496D02*
X0145400Y0033436D01*
X0145460Y0033496D02*
X0150866Y0033496D01*
X0150866Y0028575D02*
X0148528Y0026236D01*
X0148400Y0026236D01*
X0148400Y0026120D01*
X0150866Y0023654D01*
D35*
X0148400Y0026236D03*
X0145400Y0033436D03*
X0156400Y0043236D03*
X0146000Y0048236D03*
X0144400Y0018436D03*
X0175800Y0043236D03*
X0193200Y0068236D03*
X0162200Y0090636D03*
X0172661Y0104576D03*
X0172139Y0108697D03*
X0171100Y0118636D03*
X0173000Y0123036D03*
X0165061Y0125236D03*
X0157400Y0122836D03*
X0150763Y0120673D03*
X0148600Y0123036D03*
X0149200Y0133036D03*
X0142800Y0132636D03*
X0148600Y0141036D03*
X0166000Y0136236D03*
X0171200Y0136436D03*
X0179000Y0133236D03*
X0190260Y0133082D03*
X0190883Y0144236D03*
X0195400Y0144036D03*
X0190565Y0152872D03*
X0187200Y0164036D03*
X0180000Y0167636D03*
X0177861Y0172330D03*
X0174661Y0173097D03*
X0171139Y0171976D03*
X0170700Y0166836D03*
X0165000Y0167036D03*
X0168000Y0159636D03*
X0152819Y0163036D03*
X0152919Y0166436D03*
X0153000Y0177036D03*
X0151400Y0180836D03*
X0152600Y0190036D03*
X0157400Y0190436D03*
X0164413Y0179468D03*
X0168739Y0182097D03*
X0172061Y0181176D03*
X0184600Y0172236D03*
X0191000Y0172636D03*
X0189539Y0176776D03*
X0193061Y0177497D03*
X0190100Y0193236D03*
X0186500Y0194636D03*
X0216600Y0197636D03*
X0220600Y0200736D03*
X0161000Y0111036D03*
X0142800Y0106236D03*
D36*
X0123500Y0121934D02*
X0123881Y0122852D01*
X0124000Y0122972D01*
X0124000Y0143901D01*
X0123881Y0144020D01*
X0123500Y0144939D01*
X0123500Y0173936D01*
X0003500Y0173936D01*
X0003500Y0045436D01*
X0016932Y0045436D01*
X0016400Y0046720D01*
X0016400Y0048152D01*
X0016948Y0049475D01*
X0017961Y0050488D01*
X0019284Y0051036D01*
X0020716Y0051036D01*
X0022039Y0050488D01*
X0023052Y0049475D01*
X0023600Y0048152D01*
X0023600Y0046720D01*
X0023068Y0045436D01*
X0103546Y0045436D01*
X0103014Y0046720D01*
X0103014Y0048152D01*
X0103562Y0049475D01*
X0104575Y0050488D01*
X0105898Y0051036D01*
X0107330Y0051036D01*
X0108653Y0050488D01*
X0109666Y0049475D01*
X0110214Y0048152D01*
X0110214Y0048036D01*
X0110750Y0048036D01*
X0110750Y0048092D01*
X0111394Y0048736D01*
X0111400Y0048736D01*
X0111400Y0049481D01*
X0111050Y0049831D01*
X0111050Y0053873D01*
X0110214Y0054709D01*
X0110214Y0054594D01*
X0109666Y0053271D01*
X0108653Y0052258D01*
X0107330Y0051710D01*
X0105898Y0051710D01*
X0104575Y0052258D01*
X0103562Y0053271D01*
X0103014Y0054594D01*
X0103014Y0056026D01*
X0103196Y0056466D01*
X0056432Y0103230D01*
X0055494Y0104167D01*
X0055494Y0152285D01*
X0055458Y0152285D01*
X0054813Y0152929D01*
X0054813Y0159943D01*
X0055458Y0160587D01*
X0058731Y0160587D01*
X0059063Y0160256D01*
X0059395Y0160587D01*
X0062668Y0160587D01*
X0063000Y0160256D01*
X0063332Y0160587D01*
X0066605Y0160587D01*
X0066654Y0160538D01*
X0066803Y0160688D01*
X0067145Y0160885D01*
X0067527Y0160987D01*
X0068815Y0160987D01*
X0068815Y0156527D01*
X0068996Y0156527D01*
X0068996Y0160987D01*
X0070284Y0160987D01*
X0070666Y0160885D01*
X0071008Y0160688D01*
X0071287Y0160408D01*
X0071484Y0160066D01*
X0071587Y0159685D01*
X0071587Y0156527D01*
X0068996Y0156527D01*
X0068996Y0156346D01*
X0071587Y0156346D01*
X0071587Y0153188D01*
X0071484Y0152806D01*
X0071287Y0152464D01*
X0071008Y0152185D01*
X0070666Y0151987D01*
X0070284Y0151885D01*
X0068996Y0151885D01*
X0068996Y0156346D01*
X0068815Y0156346D01*
X0068815Y0151885D01*
X0067527Y0151885D01*
X0067145Y0151987D01*
X0066803Y0152185D01*
X0066654Y0152334D01*
X0066605Y0152285D01*
X0066568Y0152285D01*
X0066568Y0121241D01*
X0105459Y0082350D01*
X0105898Y0082532D01*
X0107330Y0082532D01*
X0108653Y0081984D01*
X0109666Y0080972D01*
X0110214Y0079648D01*
X0110214Y0078485D01*
X0113663Y0075036D01*
X0114600Y0074099D01*
X0114600Y0062773D01*
X0113913Y0062086D01*
X0114550Y0062086D01*
X0114550Y0059136D01*
X0115450Y0059136D01*
X0119350Y0059136D01*
X0119350Y0060784D01*
X0119248Y0061165D01*
X0119050Y0061507D01*
X0118771Y0061787D01*
X0118429Y0061984D01*
X0118047Y0062086D01*
X0115450Y0062086D01*
X0115450Y0059136D01*
X0115450Y0058236D01*
X0115450Y0055286D01*
X0118047Y0055286D01*
X0118429Y0055388D01*
X0118771Y0055586D01*
X0119050Y0055865D01*
X0119248Y0056207D01*
X0119350Y0056589D01*
X0119350Y0058236D01*
X0115450Y0058236D01*
X0114550Y0058236D01*
X0114550Y0055286D01*
X0114163Y0055286D01*
X0114263Y0055186D01*
X0118306Y0055186D01*
X0118950Y0054542D01*
X0118950Y0049831D01*
X0118306Y0049186D01*
X0115013Y0049186D01*
X0114600Y0048773D01*
X0114600Y0048642D01*
X0114726Y0048516D01*
X0114750Y0048557D01*
X0115029Y0048837D01*
X0115371Y0049034D01*
X0115753Y0049136D01*
X0117000Y0049136D01*
X0117000Y0046486D01*
X0117100Y0046486D01*
X0119650Y0046486D01*
X0119650Y0047834D01*
X0119548Y0048215D01*
X0119350Y0048557D01*
X0119071Y0048837D01*
X0118729Y0049034D01*
X0118347Y0049136D01*
X0117100Y0049136D01*
X0117100Y0046486D01*
X0117100Y0046386D01*
X0117100Y0043736D01*
X0118347Y0043736D01*
X0118729Y0043838D01*
X0119071Y0044036D01*
X0119350Y0044315D01*
X0119548Y0044657D01*
X0119650Y0045039D01*
X0119650Y0046386D01*
X0117100Y0046386D01*
X0117000Y0046386D01*
X0117000Y0043736D01*
X0115753Y0043736D01*
X0115371Y0043838D01*
X0115029Y0044036D01*
X0114750Y0044315D01*
X0114726Y0044356D01*
X0114506Y0044136D01*
X0112913Y0044136D01*
X0111600Y0042823D01*
X0111600Y0042686D01*
X0111656Y0042686D01*
X0112300Y0042042D01*
X0112300Y0038931D01*
X0112080Y0038710D01*
X0112121Y0038687D01*
X0112400Y0038407D01*
X0112598Y0038065D01*
X0112700Y0037684D01*
X0112700Y0036436D01*
X0110050Y0036436D01*
X0110050Y0036336D01*
X0110050Y0033786D01*
X0111397Y0033786D01*
X0111779Y0033888D01*
X0112121Y0034086D01*
X0112400Y0034365D01*
X0112598Y0034707D01*
X0112700Y0035089D01*
X0112700Y0036336D01*
X0110050Y0036336D01*
X0109950Y0036336D01*
X0109950Y0033786D01*
X0108603Y0033786D01*
X0108221Y0033888D01*
X0107879Y0034086D01*
X0107600Y0034365D01*
X0107402Y0034707D01*
X0107300Y0035089D01*
X0107300Y0036336D01*
X0109950Y0036336D01*
X0109950Y0036436D01*
X0107300Y0036436D01*
X0107300Y0037684D01*
X0107402Y0038065D01*
X0107600Y0038407D01*
X0107879Y0038687D01*
X0107920Y0038710D01*
X0107700Y0038931D01*
X0107700Y0042042D01*
X0108344Y0042686D01*
X0108400Y0042686D01*
X0108400Y0044149D01*
X0108623Y0044372D01*
X0107330Y0043836D01*
X0106000Y0043836D01*
X0106000Y0014936D01*
X0112621Y0014936D01*
X0110879Y0016678D01*
X0109600Y0019765D01*
X0109600Y0023107D01*
X0110879Y0026194D01*
X0113242Y0028557D01*
X0116329Y0029836D01*
X0119671Y0029836D01*
X0122758Y0028557D01*
X0123500Y0027816D01*
X0123500Y0035934D01*
X0123881Y0036852D01*
X0124000Y0036972D01*
X0124000Y0059901D01*
X0123881Y0060020D01*
X0123500Y0060939D01*
X0123500Y0121934D01*
X0123640Y0122272D02*
X0107158Y0122272D01*
X0107008Y0122302D02*
X0106902Y0122302D01*
X0106902Y0118590D01*
X0110614Y0118590D01*
X0110614Y0118696D01*
X0110460Y0119469D01*
X0110159Y0120197D01*
X0109721Y0120852D01*
X0109164Y0121409D01*
X0108509Y0121847D01*
X0107781Y0122149D01*
X0107008Y0122302D01*
X0106902Y0122272D02*
X0106327Y0122272D01*
X0106327Y0122302D02*
X0106220Y0122302D01*
X0105447Y0122149D01*
X0104719Y0121847D01*
X0104064Y0121409D01*
X0103507Y0120852D01*
X0103069Y0120197D01*
X0102768Y0119469D01*
X0102614Y0118696D01*
X0102614Y0118590D01*
X0106327Y0118590D01*
X0106327Y0122302D01*
X0106070Y0122272D02*
X0066568Y0122272D01*
X0066568Y0121274D02*
X0103929Y0121274D01*
X0103122Y0120275D02*
X0067534Y0120275D01*
X0068532Y0119277D02*
X0102730Y0119277D01*
X0102614Y0118015D02*
X0102614Y0117908D01*
X0102768Y0117136D01*
X0103069Y0116408D01*
X0103507Y0115753D01*
X0104064Y0115195D01*
X0104719Y0114758D01*
X0105447Y0114456D01*
X0106220Y0114302D01*
X0106327Y0114302D01*
X0106327Y0118015D01*
X0106902Y0118015D01*
X0106902Y0118590D01*
X0106327Y0118590D01*
X0106327Y0118015D01*
X0102614Y0118015D01*
X0102739Y0117280D02*
X0070529Y0117280D01*
X0069531Y0118278D02*
X0106327Y0118278D01*
X0106902Y0118278D02*
X0123500Y0118278D01*
X0123500Y0117280D02*
X0110489Y0117280D01*
X0110460Y0117136D02*
X0110614Y0117908D01*
X0110614Y0118015D01*
X0106902Y0118015D01*
X0106902Y0114302D01*
X0107008Y0114302D01*
X0107781Y0114456D01*
X0108509Y0114758D01*
X0109164Y0115195D01*
X0109721Y0115753D01*
X0110159Y0116408D01*
X0110460Y0117136D01*
X0110075Y0116281D02*
X0123500Y0116281D01*
X0123500Y0115283D02*
X0109252Y0115283D01*
X0108653Y0113480D02*
X0107330Y0114028D01*
X0105898Y0114028D01*
X0104575Y0113480D01*
X0103562Y0112468D01*
X0103014Y0111144D01*
X0103014Y0109712D01*
X0103562Y0108389D01*
X0104575Y0107376D01*
X0105898Y0106828D01*
X0107330Y0106828D01*
X0108653Y0107376D01*
X0109666Y0108389D01*
X0110214Y0109712D01*
X0110214Y0111144D01*
X0109666Y0112468D01*
X0108653Y0113480D01*
X0108848Y0113286D02*
X0123500Y0113286D01*
X0123500Y0114284D02*
X0073525Y0114284D01*
X0074523Y0113286D02*
X0104381Y0113286D01*
X0103488Y0112287D02*
X0075522Y0112287D01*
X0076520Y0111289D02*
X0103074Y0111289D01*
X0103014Y0110290D02*
X0077519Y0110290D01*
X0078517Y0109292D02*
X0103188Y0109292D01*
X0103658Y0108293D02*
X0079516Y0108293D01*
X0080514Y0107295D02*
X0104772Y0107295D01*
X0105898Y0106154D02*
X0104575Y0105606D01*
X0103562Y0104594D01*
X0103014Y0103270D01*
X0103014Y0101838D01*
X0103562Y0100515D01*
X0104575Y0099502D01*
X0105898Y0098954D01*
X0107330Y0098954D01*
X0108653Y0099502D01*
X0109666Y0100515D01*
X0110214Y0101838D01*
X0110214Y0103270D01*
X0109666Y0104594D01*
X0108653Y0105606D01*
X0107330Y0106154D01*
X0105898Y0106154D01*
X0104266Y0105298D02*
X0082511Y0105298D01*
X0081513Y0106296D02*
X0123500Y0106296D01*
X0123500Y0105298D02*
X0108962Y0105298D01*
X0109788Y0104299D02*
X0123500Y0104299D01*
X0123500Y0103301D02*
X0110202Y0103301D01*
X0110214Y0102302D02*
X0123500Y0102302D01*
X0123500Y0101304D02*
X0109993Y0101304D01*
X0109456Y0100305D02*
X0123500Y0100305D01*
X0123500Y0099307D02*
X0108181Y0099307D01*
X0107330Y0098280D02*
X0105898Y0098280D01*
X0104575Y0097732D01*
X0103562Y0096720D01*
X0103014Y0095396D01*
X0103014Y0093964D01*
X0103562Y0092641D01*
X0104575Y0091628D01*
X0105898Y0091080D01*
X0107330Y0091080D01*
X0108653Y0091628D01*
X0109666Y0092641D01*
X0110214Y0093964D01*
X0110214Y0095396D01*
X0109666Y0096720D01*
X0108653Y0097732D01*
X0107330Y0098280D01*
X0109076Y0097310D02*
X0123500Y0097310D01*
X0123500Y0098308D02*
X0089501Y0098308D01*
X0090499Y0097310D02*
X0104152Y0097310D01*
X0103393Y0096311D02*
X0091498Y0096311D01*
X0092497Y0095313D02*
X0103014Y0095313D01*
X0103014Y0094314D02*
X0093495Y0094314D01*
X0094494Y0093316D02*
X0103283Y0093316D01*
X0103886Y0092317D02*
X0095492Y0092317D01*
X0096491Y0091319D02*
X0105323Y0091319D01*
X0105690Y0090320D02*
X0097489Y0090320D01*
X0098488Y0089322D02*
X0104038Y0089322D01*
X0103562Y0088846D02*
X0104575Y0089858D01*
X0105898Y0090406D01*
X0107330Y0090406D01*
X0108653Y0089858D01*
X0109666Y0088846D01*
X0110214Y0087522D01*
X0110214Y0086090D01*
X0109666Y0084767D01*
X0108653Y0083754D01*
X0107330Y0083206D01*
X0105898Y0083206D01*
X0104575Y0083754D01*
X0103562Y0084767D01*
X0103014Y0086090D01*
X0103014Y0087522D01*
X0103562Y0088846D01*
X0103346Y0088323D02*
X0099486Y0088323D01*
X0100485Y0087325D02*
X0103014Y0087325D01*
X0103014Y0086326D02*
X0101483Y0086326D01*
X0102482Y0085328D02*
X0103330Y0085328D01*
X0103480Y0084329D02*
X0104000Y0084329D01*
X0104479Y0083331D02*
X0105598Y0083331D01*
X0107630Y0083331D02*
X0123500Y0083331D01*
X0123500Y0084329D02*
X0109228Y0084329D01*
X0109898Y0085328D02*
X0123500Y0085328D01*
X0123500Y0086326D02*
X0110214Y0086326D01*
X0110214Y0087325D02*
X0123500Y0087325D01*
X0123500Y0088323D02*
X0109883Y0088323D01*
X0109190Y0089322D02*
X0123500Y0089322D01*
X0123500Y0090320D02*
X0107538Y0090320D01*
X0107906Y0091319D02*
X0123500Y0091319D01*
X0123500Y0092317D02*
X0109342Y0092317D01*
X0109945Y0093316D02*
X0123500Y0093316D01*
X0123500Y0094314D02*
X0110214Y0094314D01*
X0110214Y0095313D02*
X0123500Y0095313D01*
X0123500Y0096311D02*
X0109835Y0096311D01*
X0105047Y0099307D02*
X0088502Y0099307D01*
X0087504Y0100305D02*
X0103772Y0100305D01*
X0103236Y0101304D02*
X0086505Y0101304D01*
X0085507Y0102302D02*
X0103014Y0102302D01*
X0103027Y0103301D02*
X0084508Y0103301D01*
X0083510Y0104299D02*
X0103440Y0104299D01*
X0108456Y0107295D02*
X0123500Y0107295D01*
X0123500Y0108293D02*
X0109570Y0108293D01*
X0110040Y0109292D02*
X0123500Y0109292D01*
X0123500Y0110290D02*
X0110214Y0110290D01*
X0110154Y0111289D02*
X0123500Y0111289D01*
X0123500Y0112287D02*
X0109741Y0112287D01*
X0106902Y0115283D02*
X0106327Y0115283D01*
X0106327Y0116281D02*
X0106902Y0116281D01*
X0106902Y0117280D02*
X0106327Y0117280D01*
X0106327Y0119277D02*
X0106902Y0119277D01*
X0106902Y0120275D02*
X0106327Y0120275D01*
X0106327Y0121274D02*
X0106902Y0121274D01*
X0109299Y0121274D02*
X0123500Y0121274D01*
X0123500Y0120275D02*
X0110107Y0120275D01*
X0110499Y0119277D02*
X0123500Y0119277D01*
X0124000Y0123271D02*
X0066568Y0123271D01*
X0066568Y0124269D02*
X0124000Y0124269D01*
X0124000Y0125268D02*
X0066568Y0125268D01*
X0066568Y0126267D02*
X0124000Y0126267D01*
X0124000Y0127265D02*
X0066568Y0127265D01*
X0066568Y0128264D02*
X0124000Y0128264D01*
X0124000Y0129262D02*
X0066568Y0129262D01*
X0066568Y0130261D02*
X0124000Y0130261D01*
X0124000Y0131259D02*
X0066568Y0131259D01*
X0066568Y0132258D02*
X0124000Y0132258D01*
X0124000Y0133256D02*
X0066568Y0133256D01*
X0066568Y0134255D02*
X0124000Y0134255D01*
X0124000Y0135253D02*
X0066568Y0135253D01*
X0066568Y0136252D02*
X0124000Y0136252D01*
X0124000Y0137250D02*
X0066568Y0137250D01*
X0066568Y0138249D02*
X0124000Y0138249D01*
X0124000Y0139247D02*
X0066568Y0139247D01*
X0066568Y0140246D02*
X0124000Y0140246D01*
X0124000Y0141244D02*
X0066568Y0141244D01*
X0066568Y0142243D02*
X0124000Y0142243D01*
X0124000Y0143241D02*
X0066568Y0143241D01*
X0066568Y0144240D02*
X0123790Y0144240D01*
X0123500Y0145238D02*
X0066568Y0145238D01*
X0066568Y0146237D02*
X0123500Y0146237D01*
X0123500Y0147235D02*
X0066568Y0147235D01*
X0066568Y0148234D02*
X0123500Y0148234D01*
X0123500Y0149232D02*
X0066568Y0149232D01*
X0066568Y0150231D02*
X0123500Y0150231D01*
X0123500Y0151229D02*
X0066568Y0151229D01*
X0066568Y0152228D02*
X0066760Y0152228D01*
X0068815Y0152228D02*
X0068996Y0152228D01*
X0068996Y0153226D02*
X0068815Y0153226D01*
X0068815Y0154225D02*
X0068996Y0154225D01*
X0068996Y0155223D02*
X0068815Y0155223D01*
X0068815Y0156222D02*
X0068996Y0156222D01*
X0068996Y0157220D02*
X0068815Y0157220D01*
X0068815Y0158219D02*
X0068996Y0158219D01*
X0068996Y0159217D02*
X0068815Y0159217D01*
X0068815Y0160216D02*
X0068996Y0160216D01*
X0071398Y0160216D02*
X0108341Y0160216D01*
X0107879Y0160678D02*
X0110242Y0158315D01*
X0113329Y0157036D01*
X0116671Y0157036D01*
X0119758Y0158315D01*
X0122121Y0160678D01*
X0123400Y0163765D01*
X0123400Y0167107D01*
X0122121Y0170194D01*
X0119758Y0172557D01*
X0116671Y0173836D01*
X0113329Y0173836D01*
X0110242Y0172557D01*
X0107879Y0170194D01*
X0106600Y0167107D01*
X0106600Y0163765D01*
X0107879Y0160678D01*
X0107657Y0161214D02*
X0019343Y0161214D01*
X0019121Y0160678D02*
X0020400Y0163765D01*
X0020400Y0167107D01*
X0019121Y0170194D01*
X0016758Y0172557D01*
X0013671Y0173836D01*
X0010329Y0173836D01*
X0007242Y0172557D01*
X0004879Y0170194D01*
X0003600Y0167107D01*
X0003600Y0163765D01*
X0004879Y0160678D01*
X0007242Y0158315D01*
X0010329Y0157036D01*
X0013671Y0157036D01*
X0016758Y0158315D01*
X0019121Y0160678D01*
X0018659Y0160216D02*
X0055086Y0160216D01*
X0054813Y0159217D02*
X0017661Y0159217D01*
X0016526Y0158219D02*
X0054813Y0158219D01*
X0054813Y0157220D02*
X0014115Y0157220D01*
X0009885Y0157220D02*
X0003500Y0157220D01*
X0003500Y0156222D02*
X0054813Y0156222D01*
X0054813Y0155223D02*
X0003500Y0155223D01*
X0003500Y0154225D02*
X0054813Y0154225D01*
X0054813Y0153226D02*
X0003500Y0153226D01*
X0003500Y0152228D02*
X0055494Y0152228D01*
X0055494Y0151229D02*
X0003500Y0151229D01*
X0003500Y0150231D02*
X0055494Y0150231D01*
X0055494Y0149232D02*
X0003500Y0149232D01*
X0003500Y0148234D02*
X0055494Y0148234D01*
X0055494Y0147235D02*
X0003500Y0147235D01*
X0003500Y0146237D02*
X0055494Y0146237D01*
X0055494Y0145238D02*
X0003500Y0145238D01*
X0003500Y0144240D02*
X0055494Y0144240D01*
X0055494Y0143241D02*
X0003500Y0143241D01*
X0003500Y0142243D02*
X0055494Y0142243D01*
X0055494Y0141244D02*
X0003500Y0141244D01*
X0003500Y0140246D02*
X0055494Y0140246D01*
X0055494Y0139247D02*
X0003500Y0139247D01*
X0003500Y0138249D02*
X0055494Y0138249D01*
X0055494Y0137250D02*
X0003500Y0137250D01*
X0003500Y0136252D02*
X0055494Y0136252D01*
X0055494Y0135253D02*
X0003500Y0135253D01*
X0003500Y0134255D02*
X0055494Y0134255D01*
X0055494Y0133256D02*
X0003500Y0133256D01*
X0003500Y0132258D02*
X0055494Y0132258D01*
X0055494Y0131259D02*
X0003500Y0131259D01*
X0003500Y0130261D02*
X0055494Y0130261D01*
X0055494Y0129262D02*
X0003500Y0129262D01*
X0003500Y0128264D02*
X0055494Y0128264D01*
X0055494Y0127265D02*
X0003500Y0127265D01*
X0003500Y0126267D02*
X0055494Y0126267D01*
X0055494Y0125268D02*
X0003500Y0125268D01*
X0003500Y0124269D02*
X0055494Y0124269D01*
X0055494Y0123271D02*
X0003500Y0123271D01*
X0003500Y0122272D02*
X0055494Y0122272D01*
X0055494Y0121274D02*
X0022120Y0121274D01*
X0022039Y0121354D02*
X0020716Y0121902D01*
X0019284Y0121902D01*
X0017961Y0121354D01*
X0016948Y0120342D01*
X0016400Y0119018D01*
X0016400Y0117586D01*
X0016948Y0116263D01*
X0017961Y0115250D01*
X0019284Y0114702D01*
X0020716Y0114702D01*
X0022039Y0115250D01*
X0023052Y0116263D01*
X0023600Y0117586D01*
X0023600Y0119018D01*
X0023052Y0120342D01*
X0022039Y0121354D01*
X0023079Y0120275D02*
X0055494Y0120275D01*
X0055494Y0119277D02*
X0023493Y0119277D01*
X0023600Y0118278D02*
X0055494Y0118278D01*
X0055494Y0117280D02*
X0023473Y0117280D01*
X0023059Y0116281D02*
X0055494Y0116281D01*
X0055494Y0115283D02*
X0022072Y0115283D01*
X0022039Y0113480D02*
X0020716Y0114028D01*
X0019284Y0114028D01*
X0017961Y0113480D01*
X0016948Y0112468D01*
X0016400Y0111144D01*
X0016400Y0109712D01*
X0016948Y0108389D01*
X0017961Y0107376D01*
X0019284Y0106828D01*
X0020716Y0106828D01*
X0022039Y0107376D01*
X0023052Y0108389D01*
X0023600Y0109712D01*
X0023600Y0111144D01*
X0023052Y0112468D01*
X0022039Y0113480D01*
X0022234Y0113286D02*
X0055494Y0113286D01*
X0055494Y0114284D02*
X0003500Y0114284D01*
X0003500Y0113286D02*
X0017766Y0113286D01*
X0016873Y0112287D02*
X0003500Y0112287D01*
X0003500Y0111289D02*
X0016460Y0111289D01*
X0016400Y0110290D02*
X0003500Y0110290D01*
X0003500Y0109292D02*
X0016574Y0109292D01*
X0017044Y0108293D02*
X0003500Y0108293D01*
X0003500Y0107295D02*
X0018158Y0107295D01*
X0019284Y0106154D02*
X0017961Y0105606D01*
X0016948Y0104594D01*
X0016400Y0103270D01*
X0016400Y0101838D01*
X0016948Y0100515D01*
X0017961Y0099502D01*
X0019284Y0098954D01*
X0020716Y0098954D01*
X0022039Y0099502D01*
X0023052Y0100515D01*
X0023600Y0101838D01*
X0023600Y0103270D01*
X0023052Y0104594D01*
X0022039Y0105606D01*
X0020716Y0106154D01*
X0019284Y0106154D01*
X0017652Y0105298D02*
X0003500Y0105298D01*
X0003500Y0106296D02*
X0055494Y0106296D01*
X0055494Y0105298D02*
X0022348Y0105298D01*
X0023174Y0104299D02*
X0055494Y0104299D01*
X0056361Y0103301D02*
X0023587Y0103301D01*
X0023600Y0102302D02*
X0057359Y0102302D01*
X0058358Y0101304D02*
X0023379Y0101304D01*
X0022842Y0100305D02*
X0059356Y0100305D01*
X0060355Y0099307D02*
X0021567Y0099307D01*
X0021167Y0098527D02*
X0020394Y0098680D01*
X0020287Y0098680D01*
X0020287Y0094968D01*
X0019713Y0094968D01*
X0019713Y0098680D01*
X0019606Y0098680D01*
X0018833Y0098527D01*
X0018105Y0098225D01*
X0017450Y0097787D01*
X0016893Y0097230D01*
X0016455Y0096575D01*
X0016154Y0095847D01*
X0016000Y0095074D01*
X0016000Y0094968D01*
X0019713Y0094968D01*
X0019713Y0094393D01*
X0020287Y0094393D01*
X0020287Y0090680D01*
X0020394Y0090680D01*
X0021167Y0090834D01*
X0021895Y0091136D01*
X0022550Y0091573D01*
X0023107Y0092130D01*
X0023545Y0092786D01*
X0023846Y0093514D01*
X0024000Y0094286D01*
X0024000Y0094393D01*
X0020287Y0094393D01*
X0020287Y0094968D01*
X0024000Y0094968D01*
X0024000Y0095074D01*
X0023846Y0095847D01*
X0023545Y0096575D01*
X0023107Y0097230D01*
X0022550Y0097787D01*
X0021895Y0098225D01*
X0021167Y0098527D01*
X0021694Y0098308D02*
X0061353Y0098308D01*
X0062352Y0097310D02*
X0023027Y0097310D01*
X0023654Y0096311D02*
X0063350Y0096311D01*
X0064349Y0095313D02*
X0023953Y0095313D01*
X0024000Y0094314D02*
X0065348Y0094314D01*
X0066346Y0093316D02*
X0023764Y0093316D01*
X0023232Y0092317D02*
X0067345Y0092317D01*
X0068343Y0091319D02*
X0022169Y0091319D01*
X0022039Y0089858D02*
X0020716Y0090406D01*
X0019284Y0090406D01*
X0017961Y0089858D01*
X0016948Y0088846D01*
X0016400Y0087522D01*
X0016400Y0086090D01*
X0016948Y0084767D01*
X0017961Y0083754D01*
X0019284Y0083206D01*
X0020716Y0083206D01*
X0022039Y0083754D01*
X0023052Y0084767D01*
X0023600Y0086090D01*
X0023600Y0087522D01*
X0023052Y0088846D01*
X0022039Y0089858D01*
X0022576Y0089322D02*
X0070340Y0089322D01*
X0069342Y0090320D02*
X0020924Y0090320D01*
X0020287Y0091319D02*
X0019713Y0091319D01*
X0019713Y0090680D02*
X0019713Y0094393D01*
X0016000Y0094393D01*
X0016000Y0094286D01*
X0016154Y0093514D01*
X0016455Y0092786D01*
X0016893Y0092130D01*
X0017450Y0091573D01*
X0018105Y0091136D01*
X0018833Y0090834D01*
X0019606Y0090680D01*
X0019713Y0090680D01*
X0019076Y0090320D02*
X0003500Y0090320D01*
X0003500Y0089322D02*
X0017424Y0089322D01*
X0016732Y0088323D02*
X0003500Y0088323D01*
X0003500Y0087325D02*
X0016400Y0087325D01*
X0016400Y0086326D02*
X0003500Y0086326D01*
X0003500Y0085328D02*
X0016716Y0085328D01*
X0017386Y0084329D02*
X0003500Y0084329D01*
X0003500Y0083331D02*
X0018984Y0083331D01*
X0019284Y0082532D02*
X0017961Y0081984D01*
X0016948Y0080972D01*
X0016400Y0079648D01*
X0016400Y0078216D01*
X0016948Y0076893D01*
X0017961Y0075880D01*
X0019284Y0075332D01*
X0020716Y0075332D01*
X0022039Y0075880D01*
X0023052Y0076893D01*
X0023600Y0078216D01*
X0023600Y0079648D01*
X0023052Y0080972D01*
X0022039Y0081984D01*
X0020716Y0082532D01*
X0019284Y0082532D01*
X0018800Y0082332D02*
X0003500Y0082332D01*
X0003500Y0081334D02*
X0017310Y0081334D01*
X0016684Y0080335D02*
X0003500Y0080335D01*
X0003500Y0079336D02*
X0016400Y0079336D01*
X0016400Y0078338D02*
X0003500Y0078338D01*
X0003500Y0077339D02*
X0016763Y0077339D01*
X0017500Y0076341D02*
X0003500Y0076341D01*
X0003500Y0075342D02*
X0019259Y0075342D01*
X0019284Y0074658D02*
X0017961Y0074110D01*
X0016948Y0073098D01*
X0016400Y0071774D01*
X0016400Y0070342D01*
X0016948Y0069019D01*
X0017961Y0068006D01*
X0019284Y0067458D01*
X0020716Y0067458D01*
X0022039Y0068006D01*
X0023052Y0069019D01*
X0023600Y0070342D01*
X0023600Y0071774D01*
X0023052Y0073098D01*
X0022039Y0074110D01*
X0020716Y0074658D01*
X0019284Y0074658D01*
X0018525Y0074344D02*
X0003500Y0074344D01*
X0003500Y0073345D02*
X0017196Y0073345D01*
X0016637Y0072347D02*
X0003500Y0072347D01*
X0003500Y0071348D02*
X0016400Y0071348D01*
X0016400Y0070350D02*
X0003500Y0070350D01*
X0003500Y0069351D02*
X0016810Y0069351D01*
X0017614Y0068353D02*
X0003500Y0068353D01*
X0003500Y0067354D02*
X0092307Y0067354D01*
X0093306Y0066356D02*
X0021750Y0066356D01*
X0022039Y0066236D02*
X0020716Y0066784D01*
X0019284Y0066784D01*
X0017961Y0066236D01*
X0016948Y0065223D01*
X0016400Y0063900D01*
X0016400Y0062468D01*
X0016948Y0061145D01*
X0017961Y0060132D01*
X0019284Y0059584D01*
X0020716Y0059584D01*
X0022039Y0060132D01*
X0023052Y0061145D01*
X0023600Y0062468D01*
X0023600Y0063900D01*
X0023052Y0065223D01*
X0022039Y0066236D01*
X0022918Y0065357D02*
X0094304Y0065357D01*
X0095303Y0064359D02*
X0023410Y0064359D01*
X0023600Y0063360D02*
X0096301Y0063360D01*
X0097300Y0062362D02*
X0023556Y0062362D01*
X0023142Y0061363D02*
X0098298Y0061363D01*
X0099297Y0060365D02*
X0022272Y0060365D01*
X0022026Y0058368D02*
X0101294Y0058368D01*
X0100295Y0059366D02*
X0003500Y0059366D01*
X0003500Y0058368D02*
X0017974Y0058368D01*
X0017961Y0058362D02*
X0016948Y0057349D01*
X0016400Y0056026D01*
X0016400Y0054594D01*
X0016948Y0053271D01*
X0017961Y0052258D01*
X0019284Y0051710D01*
X0020716Y0051710D01*
X0022039Y0052258D01*
X0023052Y0053271D01*
X0023600Y0054594D01*
X0023600Y0056026D01*
X0023052Y0057349D01*
X0022039Y0058362D01*
X0020716Y0058910D01*
X0019284Y0058910D01*
X0017961Y0058362D01*
X0016968Y0057369D02*
X0003500Y0057369D01*
X0003500Y0056371D02*
X0016543Y0056371D01*
X0016400Y0055372D02*
X0003500Y0055372D01*
X0003500Y0054374D02*
X0016491Y0054374D01*
X0016905Y0053375D02*
X0003500Y0053375D01*
X0003500Y0052377D02*
X0017842Y0052377D01*
X0017852Y0050380D02*
X0003500Y0050380D01*
X0003500Y0051378D02*
X0111050Y0051378D01*
X0111050Y0050380D02*
X0108762Y0050380D01*
X0109705Y0049381D02*
X0111400Y0049381D01*
X0111041Y0048383D02*
X0110119Y0048383D01*
X0113000Y0049436D02*
X0113000Y0046486D01*
X0112950Y0046436D01*
X0107614Y0046436D01*
X0106614Y0047436D01*
X0104466Y0050380D02*
X0022148Y0050380D01*
X0023091Y0049381D02*
X0103523Y0049381D01*
X0103110Y0048383D02*
X0023505Y0048383D01*
X0023600Y0047384D02*
X0103014Y0047384D01*
X0103153Y0046386D02*
X0023461Y0046386D01*
X0022158Y0052377D02*
X0104457Y0052377D01*
X0103519Y0053375D02*
X0023095Y0053375D01*
X0023509Y0054374D02*
X0103105Y0054374D01*
X0103014Y0055372D02*
X0023600Y0055372D01*
X0023457Y0056371D02*
X0103157Y0056371D01*
X0102292Y0057369D02*
X0023032Y0057369D01*
X0017728Y0060365D02*
X0003500Y0060365D01*
X0003500Y0061363D02*
X0016858Y0061363D01*
X0016444Y0062362D02*
X0003500Y0062362D01*
X0003500Y0063360D02*
X0016400Y0063360D01*
X0016590Y0064359D02*
X0003500Y0064359D01*
X0003500Y0065357D02*
X0017082Y0065357D01*
X0018250Y0066356D02*
X0003500Y0066356D01*
X0003500Y0049381D02*
X0016909Y0049381D01*
X0016495Y0048383D02*
X0003500Y0048383D01*
X0003500Y0047384D02*
X0016400Y0047384D01*
X0016539Y0046386D02*
X0003500Y0046386D01*
X0022386Y0068353D02*
X0091309Y0068353D01*
X0090310Y0069351D02*
X0023190Y0069351D01*
X0023600Y0070350D02*
X0089312Y0070350D01*
X0088313Y0071348D02*
X0023600Y0071348D01*
X0023363Y0072347D02*
X0087315Y0072347D01*
X0086316Y0073345D02*
X0022804Y0073345D01*
X0021475Y0074344D02*
X0085318Y0074344D01*
X0084319Y0075342D02*
X0020741Y0075342D01*
X0022500Y0076341D02*
X0083321Y0076341D01*
X0082322Y0077339D02*
X0023237Y0077339D01*
X0023600Y0078338D02*
X0081324Y0078338D01*
X0080325Y0079336D02*
X0023600Y0079336D01*
X0023316Y0080335D02*
X0079327Y0080335D01*
X0078328Y0081334D02*
X0022690Y0081334D01*
X0021200Y0082332D02*
X0077330Y0082332D01*
X0076331Y0083331D02*
X0021016Y0083331D01*
X0022614Y0084329D02*
X0075333Y0084329D01*
X0074334Y0085328D02*
X0023284Y0085328D01*
X0023600Y0086326D02*
X0073336Y0086326D01*
X0072337Y0087325D02*
X0023600Y0087325D01*
X0023268Y0088323D02*
X0071339Y0088323D01*
X0057094Y0104830D02*
X0057094Y0156436D01*
X0061031Y0156436D02*
X0061031Y0108767D01*
X0106614Y0063184D01*
X0111000Y0061436D02*
X0111000Y0056186D01*
X0115000Y0052186D01*
X0115000Y0051436D01*
X0113000Y0049436D01*
X0112950Y0046436D02*
X0110000Y0043486D01*
X0110000Y0040486D01*
X0112300Y0040395D02*
X0124000Y0040395D01*
X0124000Y0041393D02*
X0112300Y0041393D01*
X0111950Y0042392D02*
X0124000Y0042392D01*
X0124000Y0043390D02*
X0112167Y0043390D01*
X0108400Y0043390D02*
X0106000Y0043390D01*
X0106000Y0042392D02*
X0108050Y0042392D01*
X0107700Y0041393D02*
X0106000Y0041393D01*
X0106000Y0040395D02*
X0107700Y0040395D01*
X0107700Y0039396D02*
X0106000Y0039396D01*
X0106000Y0038398D02*
X0107594Y0038398D01*
X0107300Y0037399D02*
X0106000Y0037399D01*
X0106000Y0036400D02*
X0109950Y0036400D01*
X0110050Y0036400D02*
X0123693Y0036400D01*
X0123500Y0035402D02*
X0112700Y0035402D01*
X0112422Y0034403D02*
X0123500Y0034403D01*
X0123500Y0033405D02*
X0106000Y0033405D01*
X0106000Y0034403D02*
X0107578Y0034403D01*
X0107300Y0035402D02*
X0106000Y0035402D01*
X0106000Y0032406D02*
X0123500Y0032406D01*
X0123500Y0031408D02*
X0106000Y0031408D01*
X0106000Y0030409D02*
X0123500Y0030409D01*
X0123500Y0029411D02*
X0120698Y0029411D01*
X0122903Y0028412D02*
X0123500Y0028412D01*
X0115302Y0029411D02*
X0106000Y0029411D01*
X0106000Y0028412D02*
X0113097Y0028412D01*
X0112098Y0027414D02*
X0106000Y0027414D01*
X0106000Y0026415D02*
X0111100Y0026415D01*
X0110557Y0025417D02*
X0106000Y0025417D01*
X0106000Y0024418D02*
X0110143Y0024418D01*
X0109730Y0023420D02*
X0106000Y0023420D01*
X0106000Y0022421D02*
X0109600Y0022421D01*
X0109600Y0021423D02*
X0106000Y0021423D01*
X0106000Y0020424D02*
X0109600Y0020424D01*
X0109741Y0019426D02*
X0106000Y0019426D01*
X0106000Y0018427D02*
X0110154Y0018427D01*
X0110568Y0017429D02*
X0106000Y0017429D01*
X0106000Y0016430D02*
X0111127Y0016430D01*
X0112125Y0015432D02*
X0106000Y0015432D01*
X0109950Y0034403D02*
X0110050Y0034403D01*
X0110050Y0035402D02*
X0109950Y0035402D01*
X0112700Y0037399D02*
X0124000Y0037399D01*
X0124000Y0038398D02*
X0112406Y0038398D01*
X0112300Y0039396D02*
X0124000Y0039396D01*
X0124000Y0044389D02*
X0119393Y0044389D01*
X0119650Y0045387D02*
X0124000Y0045387D01*
X0124000Y0046386D02*
X0119650Y0046386D01*
X0119650Y0047384D02*
X0124000Y0047384D01*
X0124000Y0048383D02*
X0119451Y0048383D01*
X0118501Y0049381D02*
X0124000Y0049381D01*
X0124000Y0050380D02*
X0118950Y0050380D01*
X0118950Y0051378D02*
X0124000Y0051378D01*
X0124000Y0052377D02*
X0118950Y0052377D01*
X0118950Y0053375D02*
X0124000Y0053375D01*
X0124000Y0054374D02*
X0118950Y0054374D01*
X0118368Y0055372D02*
X0124000Y0055372D01*
X0124000Y0056371D02*
X0119292Y0056371D01*
X0119350Y0057369D02*
X0124000Y0057369D01*
X0124000Y0058368D02*
X0115450Y0058368D01*
X0115450Y0059366D02*
X0114550Y0059366D01*
X0114550Y0060365D02*
X0115450Y0060365D01*
X0115450Y0061363D02*
X0114550Y0061363D01*
X0114188Y0062362D02*
X0123500Y0062362D01*
X0123500Y0063360D02*
X0114600Y0063360D01*
X0114600Y0064359D02*
X0123500Y0064359D01*
X0123500Y0065357D02*
X0114600Y0065357D01*
X0114600Y0066356D02*
X0123500Y0066356D01*
X0123500Y0067354D02*
X0114600Y0067354D01*
X0114600Y0068353D02*
X0123500Y0068353D01*
X0123500Y0069351D02*
X0114600Y0069351D01*
X0114600Y0070350D02*
X0123500Y0070350D01*
X0123500Y0071348D02*
X0114600Y0071348D01*
X0114600Y0072347D02*
X0123500Y0072347D01*
X0123500Y0073345D02*
X0114600Y0073345D01*
X0114355Y0074344D02*
X0123500Y0074344D01*
X0123500Y0075342D02*
X0113357Y0075342D01*
X0112358Y0076341D02*
X0123500Y0076341D01*
X0123500Y0077339D02*
X0111359Y0077339D01*
X0110361Y0078338D02*
X0123500Y0078338D01*
X0123500Y0079336D02*
X0110214Y0079336D01*
X0109930Y0080335D02*
X0123500Y0080335D01*
X0123500Y0081334D02*
X0109304Y0081334D01*
X0107814Y0082332D02*
X0123500Y0082332D01*
X0113000Y0073436D02*
X0113000Y0063436D01*
X0111000Y0061436D01*
X0114550Y0057369D02*
X0115450Y0057369D01*
X0115450Y0056371D02*
X0114550Y0056371D01*
X0114550Y0055372D02*
X0115450Y0055372D01*
X0111050Y0053375D02*
X0109709Y0053375D01*
X0110123Y0054374D02*
X0110550Y0054374D01*
X0111050Y0052377D02*
X0108772Y0052377D01*
X0106614Y0055310D02*
X0057094Y0104830D01*
X0055494Y0107295D02*
X0021842Y0107295D01*
X0022956Y0108293D02*
X0055494Y0108293D01*
X0055494Y0109292D02*
X0023426Y0109292D01*
X0023600Y0110290D02*
X0055494Y0110290D01*
X0055494Y0111289D02*
X0023540Y0111289D01*
X0023127Y0112287D02*
X0055494Y0112287D01*
X0064969Y0120578D02*
X0064969Y0156436D01*
X0070727Y0162213D02*
X0055273Y0162213D01*
X0055439Y0162378D02*
X0055439Y0170376D01*
X0054794Y0171020D01*
X0049159Y0171020D01*
X0048514Y0170376D01*
X0048514Y0162378D01*
X0049159Y0161734D01*
X0054794Y0161734D01*
X0055439Y0162378D01*
X0055439Y0163211D02*
X0070561Y0163211D01*
X0070561Y0162378D02*
X0071206Y0161734D01*
X0076841Y0161734D01*
X0077486Y0162378D01*
X0077486Y0170376D01*
X0076841Y0171020D01*
X0071206Y0171020D01*
X0070561Y0170376D01*
X0070561Y0162378D01*
X0070561Y0164210D02*
X0055439Y0164210D01*
X0055439Y0165208D02*
X0070561Y0165208D01*
X0070561Y0166207D02*
X0055439Y0166207D01*
X0055439Y0167205D02*
X0070561Y0167205D01*
X0070561Y0168204D02*
X0055439Y0168204D01*
X0055439Y0169202D02*
X0070561Y0169202D01*
X0070561Y0170201D02*
X0055439Y0170201D01*
X0048514Y0170201D02*
X0019115Y0170201D01*
X0019532Y0169202D02*
X0048514Y0169202D01*
X0048514Y0168204D02*
X0019946Y0168204D01*
X0020359Y0167205D02*
X0048514Y0167205D01*
X0048514Y0166207D02*
X0020400Y0166207D01*
X0020400Y0165208D02*
X0048514Y0165208D01*
X0048514Y0164210D02*
X0020400Y0164210D01*
X0020171Y0163211D02*
X0048514Y0163211D01*
X0048679Y0162213D02*
X0019757Y0162213D01*
X0018116Y0171200D02*
X0108884Y0171200D01*
X0109882Y0172198D02*
X0017118Y0172198D01*
X0015215Y0173197D02*
X0111785Y0173197D01*
X0107885Y0170201D02*
X0077486Y0170201D01*
X0077486Y0169202D02*
X0107468Y0169202D01*
X0107054Y0168204D02*
X0077486Y0168204D01*
X0077486Y0167205D02*
X0106641Y0167205D01*
X0106600Y0166207D02*
X0077486Y0166207D01*
X0077486Y0165208D02*
X0106600Y0165208D01*
X0106600Y0164210D02*
X0077486Y0164210D01*
X0077486Y0163211D02*
X0106829Y0163211D01*
X0107243Y0162213D02*
X0077321Y0162213D01*
X0071587Y0159217D02*
X0109339Y0159217D01*
X0110474Y0158219D02*
X0071587Y0158219D01*
X0071587Y0157220D02*
X0112885Y0157220D01*
X0117115Y0157220D02*
X0123500Y0157220D01*
X0123500Y0156222D02*
X0071587Y0156222D01*
X0071587Y0155223D02*
X0123500Y0155223D01*
X0123500Y0154225D02*
X0071587Y0154225D01*
X0071587Y0153226D02*
X0123500Y0153226D01*
X0123500Y0152228D02*
X0071051Y0152228D01*
X0064969Y0120578D02*
X0106614Y0078932D01*
X0107504Y0078932D01*
X0113000Y0073436D01*
X0119133Y0061363D02*
X0123500Y0061363D01*
X0123738Y0060365D02*
X0119350Y0060365D01*
X0119350Y0059366D02*
X0124000Y0059366D01*
X0117100Y0048383D02*
X0117000Y0048383D01*
X0117000Y0047384D02*
X0117100Y0047384D01*
X0117100Y0046386D02*
X0117000Y0046386D01*
X0117000Y0045387D02*
X0117100Y0045387D01*
X0117100Y0044389D02*
X0117000Y0044389D01*
X0103977Y0115283D02*
X0072526Y0115283D01*
X0071528Y0116281D02*
X0103154Y0116281D01*
X0119526Y0158219D02*
X0123500Y0158219D01*
X0123500Y0159217D02*
X0120661Y0159217D01*
X0121659Y0160216D02*
X0123500Y0160216D01*
X0123500Y0161214D02*
X0122343Y0161214D01*
X0122757Y0162213D02*
X0123500Y0162213D01*
X0123500Y0163211D02*
X0123171Y0163211D01*
X0123400Y0164210D02*
X0123500Y0164210D01*
X0123500Y0165208D02*
X0123400Y0165208D01*
X0123400Y0166207D02*
X0123500Y0166207D01*
X0123500Y0167205D02*
X0123359Y0167205D01*
X0123500Y0168204D02*
X0122946Y0168204D01*
X0122532Y0169202D02*
X0123500Y0169202D01*
X0123500Y0170201D02*
X0122115Y0170201D01*
X0121116Y0171200D02*
X0123500Y0171200D01*
X0123500Y0172198D02*
X0120118Y0172198D01*
X0118215Y0173197D02*
X0123500Y0173197D01*
X0020287Y0098308D02*
X0019713Y0098308D01*
X0019713Y0097310D02*
X0020287Y0097310D01*
X0020287Y0096311D02*
X0019713Y0096311D01*
X0019713Y0095313D02*
X0020287Y0095313D01*
X0020287Y0094314D02*
X0019713Y0094314D01*
X0019713Y0093316D02*
X0020287Y0093316D01*
X0020287Y0092317D02*
X0019713Y0092317D01*
X0017831Y0091319D02*
X0003500Y0091319D01*
X0003500Y0092317D02*
X0016768Y0092317D01*
X0016236Y0093316D02*
X0003500Y0093316D01*
X0003500Y0094314D02*
X0016000Y0094314D01*
X0016047Y0095313D02*
X0003500Y0095313D01*
X0003500Y0096311D02*
X0016346Y0096311D01*
X0016973Y0097310D02*
X0003500Y0097310D01*
X0003500Y0098308D02*
X0018306Y0098308D01*
X0018433Y0099307D02*
X0003500Y0099307D01*
X0003500Y0100305D02*
X0017158Y0100305D01*
X0016621Y0101304D02*
X0003500Y0101304D01*
X0003500Y0102302D02*
X0016400Y0102302D01*
X0016413Y0103301D02*
X0003500Y0103301D01*
X0003500Y0104299D02*
X0016826Y0104299D01*
X0017928Y0115283D02*
X0003500Y0115283D01*
X0003500Y0116281D02*
X0016940Y0116281D01*
X0016527Y0117280D02*
X0003500Y0117280D01*
X0003500Y0118278D02*
X0016400Y0118278D01*
X0016507Y0119277D02*
X0003500Y0119277D01*
X0003500Y0120275D02*
X0016921Y0120275D01*
X0017880Y0121274D02*
X0003500Y0121274D01*
X0003500Y0158219D02*
X0007474Y0158219D01*
X0006339Y0159217D02*
X0003500Y0159217D01*
X0003500Y0160216D02*
X0005341Y0160216D01*
X0004657Y0161214D02*
X0003500Y0161214D01*
X0003500Y0162213D02*
X0004243Y0162213D01*
X0003829Y0163211D02*
X0003500Y0163211D01*
X0003500Y0164210D02*
X0003600Y0164210D01*
X0003600Y0165208D02*
X0003500Y0165208D01*
X0003500Y0166207D02*
X0003600Y0166207D01*
X0003641Y0167205D02*
X0003500Y0167205D01*
X0003500Y0168204D02*
X0004054Y0168204D01*
X0004468Y0169202D02*
X0003500Y0169202D01*
X0003500Y0170201D02*
X0004885Y0170201D01*
X0005884Y0171200D02*
X0003500Y0171200D01*
X0003500Y0172198D02*
X0006882Y0172198D01*
X0008785Y0173197D02*
X0003500Y0173197D01*
M02*
