G75*
%MOIN*%
%OFA0B0*%
%FSLAX25Y25*%
%IPPOS*%
%LPD*%
%AMOC8*
5,1,8,0,0,1.08239X$1,22.5*
%
%ADD10C,0.00000*%
%ADD11R,0.03400X0.02400*%
%ADD12R,0.03200X0.01200*%
%ADD13R,0.01200X0.03200*%
%ADD14R,0.29500X0.29500*%
%ADD15R,0.04724X0.03959*%
%ADD16C,0.07400*%
%ADD17C,0.09449*%
%ADD18C,0.06693*%
%ADD19C,0.05906*%
%ADD20C,0.07972*%
%ADD21C,0.10000*%
%ADD22R,0.02600X0.02600*%
%ADD23R,0.02400X0.02200*%
%ADD24R,0.02200X0.02400*%
%ADD25R,0.02800X0.04900*%
%ADD26R,0.02800X0.02800*%
%ADD27R,0.03200X0.04200*%
%ADD28C,0.05000*%
%ADD29C,0.01969*%
%ADD30C,0.02400*%
%ADD31C,0.00600*%
%ADD32C,0.01000*%
D10*
X0001000Y0012436D02*
X0001000Y0176436D01*
X0126000Y0176436D01*
X0126000Y0145436D01*
X0138000Y0145436D01*
X0138000Y0243436D01*
X0251000Y0243436D01*
X0251000Y0157436D01*
X0205000Y0157436D01*
X0205000Y0104436D01*
X0216000Y0104436D01*
X0216000Y0012436D01*
X0138000Y0012436D01*
X0138000Y0035436D01*
X0126000Y0035436D01*
X0126000Y0012436D01*
X0001000Y0012436D01*
X0004100Y0021436D02*
X0004102Y0021589D01*
X0004108Y0021742D01*
X0004118Y0021895D01*
X0004132Y0022048D01*
X0004150Y0022200D01*
X0004171Y0022351D01*
X0004197Y0022502D01*
X0004227Y0022653D01*
X0004260Y0022802D01*
X0004298Y0022951D01*
X0004339Y0023098D01*
X0004384Y0023245D01*
X0004433Y0023390D01*
X0004485Y0023534D01*
X0004542Y0023676D01*
X0004602Y0023817D01*
X0004665Y0023956D01*
X0004733Y0024094D01*
X0004803Y0024230D01*
X0004878Y0024364D01*
X0004955Y0024496D01*
X0005037Y0024626D01*
X0005121Y0024754D01*
X0005209Y0024879D01*
X0005300Y0025002D01*
X0005394Y0025123D01*
X0005491Y0025241D01*
X0005592Y0025357D01*
X0005695Y0025470D01*
X0005801Y0025581D01*
X0005910Y0025688D01*
X0006022Y0025793D01*
X0006136Y0025895D01*
X0006253Y0025994D01*
X0006373Y0026089D01*
X0006495Y0026182D01*
X0006619Y0026271D01*
X0006746Y0026358D01*
X0006875Y0026440D01*
X0007006Y0026520D01*
X0007139Y0026596D01*
X0007274Y0026668D01*
X0007411Y0026737D01*
X0007549Y0026803D01*
X0007689Y0026865D01*
X0007831Y0026923D01*
X0007974Y0026977D01*
X0008119Y0027028D01*
X0008264Y0027075D01*
X0008411Y0027118D01*
X0008559Y0027157D01*
X0008708Y0027193D01*
X0008858Y0027224D01*
X0009009Y0027252D01*
X0009160Y0027276D01*
X0009312Y0027296D01*
X0009465Y0027312D01*
X0009617Y0027324D01*
X0009770Y0027332D01*
X0009923Y0027336D01*
X0010077Y0027336D01*
X0010230Y0027332D01*
X0010383Y0027324D01*
X0010535Y0027312D01*
X0010688Y0027296D01*
X0010840Y0027276D01*
X0010991Y0027252D01*
X0011142Y0027224D01*
X0011292Y0027193D01*
X0011441Y0027157D01*
X0011589Y0027118D01*
X0011736Y0027075D01*
X0011881Y0027028D01*
X0012026Y0026977D01*
X0012169Y0026923D01*
X0012311Y0026865D01*
X0012451Y0026803D01*
X0012589Y0026737D01*
X0012726Y0026668D01*
X0012861Y0026596D01*
X0012994Y0026520D01*
X0013125Y0026440D01*
X0013254Y0026358D01*
X0013381Y0026271D01*
X0013505Y0026182D01*
X0013627Y0026089D01*
X0013747Y0025994D01*
X0013864Y0025895D01*
X0013978Y0025793D01*
X0014090Y0025688D01*
X0014199Y0025581D01*
X0014305Y0025470D01*
X0014408Y0025357D01*
X0014509Y0025241D01*
X0014606Y0025123D01*
X0014700Y0025002D01*
X0014791Y0024879D01*
X0014879Y0024754D01*
X0014963Y0024626D01*
X0015045Y0024496D01*
X0015122Y0024364D01*
X0015197Y0024230D01*
X0015267Y0024094D01*
X0015335Y0023956D01*
X0015398Y0023817D01*
X0015458Y0023676D01*
X0015515Y0023534D01*
X0015567Y0023390D01*
X0015616Y0023245D01*
X0015661Y0023098D01*
X0015702Y0022951D01*
X0015740Y0022802D01*
X0015773Y0022653D01*
X0015803Y0022502D01*
X0015829Y0022351D01*
X0015850Y0022200D01*
X0015868Y0022048D01*
X0015882Y0021895D01*
X0015892Y0021742D01*
X0015898Y0021589D01*
X0015900Y0021436D01*
X0015898Y0021283D01*
X0015892Y0021130D01*
X0015882Y0020977D01*
X0015868Y0020824D01*
X0015850Y0020672D01*
X0015829Y0020521D01*
X0015803Y0020370D01*
X0015773Y0020219D01*
X0015740Y0020070D01*
X0015702Y0019921D01*
X0015661Y0019774D01*
X0015616Y0019627D01*
X0015567Y0019482D01*
X0015515Y0019338D01*
X0015458Y0019196D01*
X0015398Y0019055D01*
X0015335Y0018916D01*
X0015267Y0018778D01*
X0015197Y0018642D01*
X0015122Y0018508D01*
X0015045Y0018376D01*
X0014963Y0018246D01*
X0014879Y0018118D01*
X0014791Y0017993D01*
X0014700Y0017870D01*
X0014606Y0017749D01*
X0014509Y0017631D01*
X0014408Y0017515D01*
X0014305Y0017402D01*
X0014199Y0017291D01*
X0014090Y0017184D01*
X0013978Y0017079D01*
X0013864Y0016977D01*
X0013747Y0016878D01*
X0013627Y0016783D01*
X0013505Y0016690D01*
X0013381Y0016601D01*
X0013254Y0016514D01*
X0013125Y0016432D01*
X0012994Y0016352D01*
X0012861Y0016276D01*
X0012726Y0016204D01*
X0012589Y0016135D01*
X0012451Y0016069D01*
X0012311Y0016007D01*
X0012169Y0015949D01*
X0012026Y0015895D01*
X0011881Y0015844D01*
X0011736Y0015797D01*
X0011589Y0015754D01*
X0011441Y0015715D01*
X0011292Y0015679D01*
X0011142Y0015648D01*
X0010991Y0015620D01*
X0010840Y0015596D01*
X0010688Y0015576D01*
X0010535Y0015560D01*
X0010383Y0015548D01*
X0010230Y0015540D01*
X0010077Y0015536D01*
X0009923Y0015536D01*
X0009770Y0015540D01*
X0009617Y0015548D01*
X0009465Y0015560D01*
X0009312Y0015576D01*
X0009160Y0015596D01*
X0009009Y0015620D01*
X0008858Y0015648D01*
X0008708Y0015679D01*
X0008559Y0015715D01*
X0008411Y0015754D01*
X0008264Y0015797D01*
X0008119Y0015844D01*
X0007974Y0015895D01*
X0007831Y0015949D01*
X0007689Y0016007D01*
X0007549Y0016069D01*
X0007411Y0016135D01*
X0007274Y0016204D01*
X0007139Y0016276D01*
X0007006Y0016352D01*
X0006875Y0016432D01*
X0006746Y0016514D01*
X0006619Y0016601D01*
X0006495Y0016690D01*
X0006373Y0016783D01*
X0006253Y0016878D01*
X0006136Y0016977D01*
X0006022Y0017079D01*
X0005910Y0017184D01*
X0005801Y0017291D01*
X0005695Y0017402D01*
X0005592Y0017515D01*
X0005491Y0017631D01*
X0005394Y0017749D01*
X0005300Y0017870D01*
X0005209Y0017993D01*
X0005121Y0018118D01*
X0005037Y0018246D01*
X0004955Y0018376D01*
X0004878Y0018508D01*
X0004803Y0018642D01*
X0004733Y0018778D01*
X0004665Y0018916D01*
X0004602Y0019055D01*
X0004542Y0019196D01*
X0004485Y0019338D01*
X0004433Y0019482D01*
X0004384Y0019627D01*
X0004339Y0019774D01*
X0004298Y0019921D01*
X0004260Y0020070D01*
X0004227Y0020219D01*
X0004197Y0020370D01*
X0004171Y0020521D01*
X0004150Y0020672D01*
X0004132Y0020824D01*
X0004118Y0020977D01*
X0004108Y0021130D01*
X0004102Y0021283D01*
X0004100Y0021436D01*
X0112100Y0021436D02*
X0112102Y0021589D01*
X0112108Y0021742D01*
X0112118Y0021895D01*
X0112132Y0022048D01*
X0112150Y0022200D01*
X0112171Y0022351D01*
X0112197Y0022502D01*
X0112227Y0022653D01*
X0112260Y0022802D01*
X0112298Y0022951D01*
X0112339Y0023098D01*
X0112384Y0023245D01*
X0112433Y0023390D01*
X0112485Y0023534D01*
X0112542Y0023676D01*
X0112602Y0023817D01*
X0112665Y0023956D01*
X0112733Y0024094D01*
X0112803Y0024230D01*
X0112878Y0024364D01*
X0112955Y0024496D01*
X0113037Y0024626D01*
X0113121Y0024754D01*
X0113209Y0024879D01*
X0113300Y0025002D01*
X0113394Y0025123D01*
X0113491Y0025241D01*
X0113592Y0025357D01*
X0113695Y0025470D01*
X0113801Y0025581D01*
X0113910Y0025688D01*
X0114022Y0025793D01*
X0114136Y0025895D01*
X0114253Y0025994D01*
X0114373Y0026089D01*
X0114495Y0026182D01*
X0114619Y0026271D01*
X0114746Y0026358D01*
X0114875Y0026440D01*
X0115006Y0026520D01*
X0115139Y0026596D01*
X0115274Y0026668D01*
X0115411Y0026737D01*
X0115549Y0026803D01*
X0115689Y0026865D01*
X0115831Y0026923D01*
X0115974Y0026977D01*
X0116119Y0027028D01*
X0116264Y0027075D01*
X0116411Y0027118D01*
X0116559Y0027157D01*
X0116708Y0027193D01*
X0116858Y0027224D01*
X0117009Y0027252D01*
X0117160Y0027276D01*
X0117312Y0027296D01*
X0117465Y0027312D01*
X0117617Y0027324D01*
X0117770Y0027332D01*
X0117923Y0027336D01*
X0118077Y0027336D01*
X0118230Y0027332D01*
X0118383Y0027324D01*
X0118535Y0027312D01*
X0118688Y0027296D01*
X0118840Y0027276D01*
X0118991Y0027252D01*
X0119142Y0027224D01*
X0119292Y0027193D01*
X0119441Y0027157D01*
X0119589Y0027118D01*
X0119736Y0027075D01*
X0119881Y0027028D01*
X0120026Y0026977D01*
X0120169Y0026923D01*
X0120311Y0026865D01*
X0120451Y0026803D01*
X0120589Y0026737D01*
X0120726Y0026668D01*
X0120861Y0026596D01*
X0120994Y0026520D01*
X0121125Y0026440D01*
X0121254Y0026358D01*
X0121381Y0026271D01*
X0121505Y0026182D01*
X0121627Y0026089D01*
X0121747Y0025994D01*
X0121864Y0025895D01*
X0121978Y0025793D01*
X0122090Y0025688D01*
X0122199Y0025581D01*
X0122305Y0025470D01*
X0122408Y0025357D01*
X0122509Y0025241D01*
X0122606Y0025123D01*
X0122700Y0025002D01*
X0122791Y0024879D01*
X0122879Y0024754D01*
X0122963Y0024626D01*
X0123045Y0024496D01*
X0123122Y0024364D01*
X0123197Y0024230D01*
X0123267Y0024094D01*
X0123335Y0023956D01*
X0123398Y0023817D01*
X0123458Y0023676D01*
X0123515Y0023534D01*
X0123567Y0023390D01*
X0123616Y0023245D01*
X0123661Y0023098D01*
X0123702Y0022951D01*
X0123740Y0022802D01*
X0123773Y0022653D01*
X0123803Y0022502D01*
X0123829Y0022351D01*
X0123850Y0022200D01*
X0123868Y0022048D01*
X0123882Y0021895D01*
X0123892Y0021742D01*
X0123898Y0021589D01*
X0123900Y0021436D01*
X0123898Y0021283D01*
X0123892Y0021130D01*
X0123882Y0020977D01*
X0123868Y0020824D01*
X0123850Y0020672D01*
X0123829Y0020521D01*
X0123803Y0020370D01*
X0123773Y0020219D01*
X0123740Y0020070D01*
X0123702Y0019921D01*
X0123661Y0019774D01*
X0123616Y0019627D01*
X0123567Y0019482D01*
X0123515Y0019338D01*
X0123458Y0019196D01*
X0123398Y0019055D01*
X0123335Y0018916D01*
X0123267Y0018778D01*
X0123197Y0018642D01*
X0123122Y0018508D01*
X0123045Y0018376D01*
X0122963Y0018246D01*
X0122879Y0018118D01*
X0122791Y0017993D01*
X0122700Y0017870D01*
X0122606Y0017749D01*
X0122509Y0017631D01*
X0122408Y0017515D01*
X0122305Y0017402D01*
X0122199Y0017291D01*
X0122090Y0017184D01*
X0121978Y0017079D01*
X0121864Y0016977D01*
X0121747Y0016878D01*
X0121627Y0016783D01*
X0121505Y0016690D01*
X0121381Y0016601D01*
X0121254Y0016514D01*
X0121125Y0016432D01*
X0120994Y0016352D01*
X0120861Y0016276D01*
X0120726Y0016204D01*
X0120589Y0016135D01*
X0120451Y0016069D01*
X0120311Y0016007D01*
X0120169Y0015949D01*
X0120026Y0015895D01*
X0119881Y0015844D01*
X0119736Y0015797D01*
X0119589Y0015754D01*
X0119441Y0015715D01*
X0119292Y0015679D01*
X0119142Y0015648D01*
X0118991Y0015620D01*
X0118840Y0015596D01*
X0118688Y0015576D01*
X0118535Y0015560D01*
X0118383Y0015548D01*
X0118230Y0015540D01*
X0118077Y0015536D01*
X0117923Y0015536D01*
X0117770Y0015540D01*
X0117617Y0015548D01*
X0117465Y0015560D01*
X0117312Y0015576D01*
X0117160Y0015596D01*
X0117009Y0015620D01*
X0116858Y0015648D01*
X0116708Y0015679D01*
X0116559Y0015715D01*
X0116411Y0015754D01*
X0116264Y0015797D01*
X0116119Y0015844D01*
X0115974Y0015895D01*
X0115831Y0015949D01*
X0115689Y0016007D01*
X0115549Y0016069D01*
X0115411Y0016135D01*
X0115274Y0016204D01*
X0115139Y0016276D01*
X0115006Y0016352D01*
X0114875Y0016432D01*
X0114746Y0016514D01*
X0114619Y0016601D01*
X0114495Y0016690D01*
X0114373Y0016783D01*
X0114253Y0016878D01*
X0114136Y0016977D01*
X0114022Y0017079D01*
X0113910Y0017184D01*
X0113801Y0017291D01*
X0113695Y0017402D01*
X0113592Y0017515D01*
X0113491Y0017631D01*
X0113394Y0017749D01*
X0113300Y0017870D01*
X0113209Y0017993D01*
X0113121Y0018118D01*
X0113037Y0018246D01*
X0112955Y0018376D01*
X0112878Y0018508D01*
X0112803Y0018642D01*
X0112733Y0018778D01*
X0112665Y0018916D01*
X0112602Y0019055D01*
X0112542Y0019196D01*
X0112485Y0019338D01*
X0112433Y0019482D01*
X0112384Y0019627D01*
X0112339Y0019774D01*
X0112298Y0019921D01*
X0112260Y0020070D01*
X0112227Y0020219D01*
X0112197Y0020370D01*
X0112171Y0020521D01*
X0112150Y0020672D01*
X0112132Y0020824D01*
X0112118Y0020977D01*
X0112108Y0021130D01*
X0112102Y0021283D01*
X0112100Y0021436D01*
X0126000Y0061436D02*
X0126000Y0121436D01*
X0138000Y0121436D01*
X0138000Y0061436D01*
X0126000Y0061436D01*
X0184921Y0111620D02*
X0184923Y0111773D01*
X0184929Y0111927D01*
X0184939Y0112080D01*
X0184953Y0112232D01*
X0184971Y0112385D01*
X0184993Y0112536D01*
X0185018Y0112687D01*
X0185048Y0112838D01*
X0185082Y0112988D01*
X0185119Y0113136D01*
X0185160Y0113284D01*
X0185205Y0113430D01*
X0185254Y0113576D01*
X0185307Y0113720D01*
X0185363Y0113862D01*
X0185423Y0114003D01*
X0185487Y0114143D01*
X0185554Y0114281D01*
X0185625Y0114417D01*
X0185700Y0114551D01*
X0185777Y0114683D01*
X0185859Y0114813D01*
X0185943Y0114941D01*
X0186031Y0115067D01*
X0186122Y0115190D01*
X0186216Y0115311D01*
X0186314Y0115429D01*
X0186414Y0115545D01*
X0186518Y0115658D01*
X0186624Y0115769D01*
X0186733Y0115877D01*
X0186845Y0115982D01*
X0186959Y0116083D01*
X0187077Y0116182D01*
X0187196Y0116278D01*
X0187318Y0116371D01*
X0187443Y0116460D01*
X0187570Y0116547D01*
X0187699Y0116629D01*
X0187830Y0116709D01*
X0187963Y0116785D01*
X0188098Y0116858D01*
X0188235Y0116927D01*
X0188374Y0116992D01*
X0188514Y0117054D01*
X0188656Y0117112D01*
X0188799Y0117167D01*
X0188944Y0117218D01*
X0189090Y0117265D01*
X0189237Y0117308D01*
X0189385Y0117347D01*
X0189534Y0117383D01*
X0189684Y0117414D01*
X0189835Y0117442D01*
X0189986Y0117466D01*
X0190139Y0117486D01*
X0190291Y0117502D01*
X0190444Y0117514D01*
X0190597Y0117522D01*
X0190750Y0117526D01*
X0190904Y0117526D01*
X0191057Y0117522D01*
X0191210Y0117514D01*
X0191363Y0117502D01*
X0191515Y0117486D01*
X0191668Y0117466D01*
X0191819Y0117442D01*
X0191970Y0117414D01*
X0192120Y0117383D01*
X0192269Y0117347D01*
X0192417Y0117308D01*
X0192564Y0117265D01*
X0192710Y0117218D01*
X0192855Y0117167D01*
X0192998Y0117112D01*
X0193140Y0117054D01*
X0193280Y0116992D01*
X0193419Y0116927D01*
X0193556Y0116858D01*
X0193691Y0116785D01*
X0193824Y0116709D01*
X0193955Y0116629D01*
X0194084Y0116547D01*
X0194211Y0116460D01*
X0194336Y0116371D01*
X0194458Y0116278D01*
X0194577Y0116182D01*
X0194695Y0116083D01*
X0194809Y0115982D01*
X0194921Y0115877D01*
X0195030Y0115769D01*
X0195136Y0115658D01*
X0195240Y0115545D01*
X0195340Y0115429D01*
X0195438Y0115311D01*
X0195532Y0115190D01*
X0195623Y0115067D01*
X0195711Y0114941D01*
X0195795Y0114813D01*
X0195877Y0114683D01*
X0195954Y0114551D01*
X0196029Y0114417D01*
X0196100Y0114281D01*
X0196167Y0114143D01*
X0196231Y0114003D01*
X0196291Y0113862D01*
X0196347Y0113720D01*
X0196400Y0113576D01*
X0196449Y0113430D01*
X0196494Y0113284D01*
X0196535Y0113136D01*
X0196572Y0112988D01*
X0196606Y0112838D01*
X0196636Y0112687D01*
X0196661Y0112536D01*
X0196683Y0112385D01*
X0196701Y0112232D01*
X0196715Y0112080D01*
X0196725Y0111927D01*
X0196731Y0111773D01*
X0196733Y0111620D01*
X0196731Y0111467D01*
X0196725Y0111313D01*
X0196715Y0111160D01*
X0196701Y0111008D01*
X0196683Y0110855D01*
X0196661Y0110704D01*
X0196636Y0110553D01*
X0196606Y0110402D01*
X0196572Y0110252D01*
X0196535Y0110104D01*
X0196494Y0109956D01*
X0196449Y0109810D01*
X0196400Y0109664D01*
X0196347Y0109520D01*
X0196291Y0109378D01*
X0196231Y0109237D01*
X0196167Y0109097D01*
X0196100Y0108959D01*
X0196029Y0108823D01*
X0195954Y0108689D01*
X0195877Y0108557D01*
X0195795Y0108427D01*
X0195711Y0108299D01*
X0195623Y0108173D01*
X0195532Y0108050D01*
X0195438Y0107929D01*
X0195340Y0107811D01*
X0195240Y0107695D01*
X0195136Y0107582D01*
X0195030Y0107471D01*
X0194921Y0107363D01*
X0194809Y0107258D01*
X0194695Y0107157D01*
X0194577Y0107058D01*
X0194458Y0106962D01*
X0194336Y0106869D01*
X0194211Y0106780D01*
X0194084Y0106693D01*
X0193955Y0106611D01*
X0193824Y0106531D01*
X0193691Y0106455D01*
X0193556Y0106382D01*
X0193419Y0106313D01*
X0193280Y0106248D01*
X0193140Y0106186D01*
X0192998Y0106128D01*
X0192855Y0106073D01*
X0192710Y0106022D01*
X0192564Y0105975D01*
X0192417Y0105932D01*
X0192269Y0105893D01*
X0192120Y0105857D01*
X0191970Y0105826D01*
X0191819Y0105798D01*
X0191668Y0105774D01*
X0191515Y0105754D01*
X0191363Y0105738D01*
X0191210Y0105726D01*
X0191057Y0105718D01*
X0190904Y0105714D01*
X0190750Y0105714D01*
X0190597Y0105718D01*
X0190444Y0105726D01*
X0190291Y0105738D01*
X0190139Y0105754D01*
X0189986Y0105774D01*
X0189835Y0105798D01*
X0189684Y0105826D01*
X0189534Y0105857D01*
X0189385Y0105893D01*
X0189237Y0105932D01*
X0189090Y0105975D01*
X0188944Y0106022D01*
X0188799Y0106073D01*
X0188656Y0106128D01*
X0188514Y0106186D01*
X0188374Y0106248D01*
X0188235Y0106313D01*
X0188098Y0106382D01*
X0187963Y0106455D01*
X0187830Y0106531D01*
X0187699Y0106611D01*
X0187570Y0106693D01*
X0187443Y0106780D01*
X0187318Y0106869D01*
X0187196Y0106962D01*
X0187077Y0107058D01*
X0186959Y0107157D01*
X0186845Y0107258D01*
X0186733Y0107363D01*
X0186624Y0107471D01*
X0186518Y0107582D01*
X0186414Y0107695D01*
X0186314Y0107811D01*
X0186216Y0107929D01*
X0186122Y0108050D01*
X0186031Y0108173D01*
X0185943Y0108299D01*
X0185859Y0108427D01*
X0185777Y0108557D01*
X0185700Y0108689D01*
X0185625Y0108823D01*
X0185554Y0108959D01*
X0185487Y0109097D01*
X0185423Y0109237D01*
X0185363Y0109378D01*
X0185307Y0109520D01*
X0185254Y0109664D01*
X0185205Y0109810D01*
X0185160Y0109956D01*
X0185119Y0110104D01*
X0185082Y0110252D01*
X0185048Y0110402D01*
X0185018Y0110553D01*
X0184993Y0110704D01*
X0184971Y0110855D01*
X0184953Y0111008D01*
X0184939Y0111160D01*
X0184929Y0111313D01*
X0184923Y0111467D01*
X0184921Y0111620D01*
X0234921Y0168339D02*
X0234923Y0168492D01*
X0234929Y0168646D01*
X0234939Y0168799D01*
X0234953Y0168951D01*
X0234971Y0169104D01*
X0234993Y0169255D01*
X0235018Y0169406D01*
X0235048Y0169557D01*
X0235082Y0169707D01*
X0235119Y0169855D01*
X0235160Y0170003D01*
X0235205Y0170149D01*
X0235254Y0170295D01*
X0235307Y0170439D01*
X0235363Y0170581D01*
X0235423Y0170722D01*
X0235487Y0170862D01*
X0235554Y0171000D01*
X0235625Y0171136D01*
X0235700Y0171270D01*
X0235777Y0171402D01*
X0235859Y0171532D01*
X0235943Y0171660D01*
X0236031Y0171786D01*
X0236122Y0171909D01*
X0236216Y0172030D01*
X0236314Y0172148D01*
X0236414Y0172264D01*
X0236518Y0172377D01*
X0236624Y0172488D01*
X0236733Y0172596D01*
X0236845Y0172701D01*
X0236959Y0172802D01*
X0237077Y0172901D01*
X0237196Y0172997D01*
X0237318Y0173090D01*
X0237443Y0173179D01*
X0237570Y0173266D01*
X0237699Y0173348D01*
X0237830Y0173428D01*
X0237963Y0173504D01*
X0238098Y0173577D01*
X0238235Y0173646D01*
X0238374Y0173711D01*
X0238514Y0173773D01*
X0238656Y0173831D01*
X0238799Y0173886D01*
X0238944Y0173937D01*
X0239090Y0173984D01*
X0239237Y0174027D01*
X0239385Y0174066D01*
X0239534Y0174102D01*
X0239684Y0174133D01*
X0239835Y0174161D01*
X0239986Y0174185D01*
X0240139Y0174205D01*
X0240291Y0174221D01*
X0240444Y0174233D01*
X0240597Y0174241D01*
X0240750Y0174245D01*
X0240904Y0174245D01*
X0241057Y0174241D01*
X0241210Y0174233D01*
X0241363Y0174221D01*
X0241515Y0174205D01*
X0241668Y0174185D01*
X0241819Y0174161D01*
X0241970Y0174133D01*
X0242120Y0174102D01*
X0242269Y0174066D01*
X0242417Y0174027D01*
X0242564Y0173984D01*
X0242710Y0173937D01*
X0242855Y0173886D01*
X0242998Y0173831D01*
X0243140Y0173773D01*
X0243280Y0173711D01*
X0243419Y0173646D01*
X0243556Y0173577D01*
X0243691Y0173504D01*
X0243824Y0173428D01*
X0243955Y0173348D01*
X0244084Y0173266D01*
X0244211Y0173179D01*
X0244336Y0173090D01*
X0244458Y0172997D01*
X0244577Y0172901D01*
X0244695Y0172802D01*
X0244809Y0172701D01*
X0244921Y0172596D01*
X0245030Y0172488D01*
X0245136Y0172377D01*
X0245240Y0172264D01*
X0245340Y0172148D01*
X0245438Y0172030D01*
X0245532Y0171909D01*
X0245623Y0171786D01*
X0245711Y0171660D01*
X0245795Y0171532D01*
X0245877Y0171402D01*
X0245954Y0171270D01*
X0246029Y0171136D01*
X0246100Y0171000D01*
X0246167Y0170862D01*
X0246231Y0170722D01*
X0246291Y0170581D01*
X0246347Y0170439D01*
X0246400Y0170295D01*
X0246449Y0170149D01*
X0246494Y0170003D01*
X0246535Y0169855D01*
X0246572Y0169707D01*
X0246606Y0169557D01*
X0246636Y0169406D01*
X0246661Y0169255D01*
X0246683Y0169104D01*
X0246701Y0168951D01*
X0246715Y0168799D01*
X0246725Y0168646D01*
X0246731Y0168492D01*
X0246733Y0168339D01*
X0246731Y0168186D01*
X0246725Y0168032D01*
X0246715Y0167879D01*
X0246701Y0167727D01*
X0246683Y0167574D01*
X0246661Y0167423D01*
X0246636Y0167272D01*
X0246606Y0167121D01*
X0246572Y0166971D01*
X0246535Y0166823D01*
X0246494Y0166675D01*
X0246449Y0166529D01*
X0246400Y0166383D01*
X0246347Y0166239D01*
X0246291Y0166097D01*
X0246231Y0165956D01*
X0246167Y0165816D01*
X0246100Y0165678D01*
X0246029Y0165542D01*
X0245954Y0165408D01*
X0245877Y0165276D01*
X0245795Y0165146D01*
X0245711Y0165018D01*
X0245623Y0164892D01*
X0245532Y0164769D01*
X0245438Y0164648D01*
X0245340Y0164530D01*
X0245240Y0164414D01*
X0245136Y0164301D01*
X0245030Y0164190D01*
X0244921Y0164082D01*
X0244809Y0163977D01*
X0244695Y0163876D01*
X0244577Y0163777D01*
X0244458Y0163681D01*
X0244336Y0163588D01*
X0244211Y0163499D01*
X0244084Y0163412D01*
X0243955Y0163330D01*
X0243824Y0163250D01*
X0243691Y0163174D01*
X0243556Y0163101D01*
X0243419Y0163032D01*
X0243280Y0162967D01*
X0243140Y0162905D01*
X0242998Y0162847D01*
X0242855Y0162792D01*
X0242710Y0162741D01*
X0242564Y0162694D01*
X0242417Y0162651D01*
X0242269Y0162612D01*
X0242120Y0162576D01*
X0241970Y0162545D01*
X0241819Y0162517D01*
X0241668Y0162493D01*
X0241515Y0162473D01*
X0241363Y0162457D01*
X0241210Y0162445D01*
X0241057Y0162437D01*
X0240904Y0162433D01*
X0240750Y0162433D01*
X0240597Y0162437D01*
X0240444Y0162445D01*
X0240291Y0162457D01*
X0240139Y0162473D01*
X0239986Y0162493D01*
X0239835Y0162517D01*
X0239684Y0162545D01*
X0239534Y0162576D01*
X0239385Y0162612D01*
X0239237Y0162651D01*
X0239090Y0162694D01*
X0238944Y0162741D01*
X0238799Y0162792D01*
X0238656Y0162847D01*
X0238514Y0162905D01*
X0238374Y0162967D01*
X0238235Y0163032D01*
X0238098Y0163101D01*
X0237963Y0163174D01*
X0237830Y0163250D01*
X0237699Y0163330D01*
X0237570Y0163412D01*
X0237443Y0163499D01*
X0237318Y0163588D01*
X0237196Y0163681D01*
X0237077Y0163777D01*
X0236959Y0163876D01*
X0236845Y0163977D01*
X0236733Y0164082D01*
X0236624Y0164190D01*
X0236518Y0164301D01*
X0236414Y0164414D01*
X0236314Y0164530D01*
X0236216Y0164648D01*
X0236122Y0164769D01*
X0236031Y0164892D01*
X0235943Y0165018D01*
X0235859Y0165146D01*
X0235777Y0165276D01*
X0235700Y0165408D01*
X0235625Y0165542D01*
X0235554Y0165678D01*
X0235487Y0165816D01*
X0235423Y0165956D01*
X0235363Y0166097D01*
X0235307Y0166239D01*
X0235254Y0166383D01*
X0235205Y0166529D01*
X0235160Y0166675D01*
X0235119Y0166823D01*
X0235082Y0166971D01*
X0235048Y0167121D01*
X0235018Y0167272D01*
X0234993Y0167423D01*
X0234971Y0167574D01*
X0234953Y0167727D01*
X0234939Y0167879D01*
X0234929Y0168032D01*
X0234923Y0168186D01*
X0234921Y0168339D01*
X0229639Y0218046D02*
X0229641Y0218204D01*
X0229647Y0218362D01*
X0229657Y0218520D01*
X0229671Y0218678D01*
X0229689Y0218835D01*
X0229710Y0218992D01*
X0229736Y0219148D01*
X0229766Y0219304D01*
X0229799Y0219459D01*
X0229837Y0219612D01*
X0229878Y0219765D01*
X0229923Y0219917D01*
X0229972Y0220068D01*
X0230025Y0220217D01*
X0230081Y0220365D01*
X0230141Y0220511D01*
X0230205Y0220656D01*
X0230273Y0220799D01*
X0230344Y0220941D01*
X0230418Y0221081D01*
X0230496Y0221218D01*
X0230578Y0221354D01*
X0230662Y0221488D01*
X0230751Y0221619D01*
X0230842Y0221748D01*
X0230937Y0221875D01*
X0231034Y0222000D01*
X0231135Y0222122D01*
X0231239Y0222241D01*
X0231346Y0222358D01*
X0231456Y0222472D01*
X0231569Y0222583D01*
X0231684Y0222692D01*
X0231802Y0222797D01*
X0231923Y0222899D01*
X0232046Y0222999D01*
X0232172Y0223095D01*
X0232300Y0223188D01*
X0232430Y0223278D01*
X0232563Y0223364D01*
X0232698Y0223448D01*
X0232834Y0223527D01*
X0232973Y0223604D01*
X0233114Y0223676D01*
X0233256Y0223746D01*
X0233400Y0223811D01*
X0233546Y0223873D01*
X0233693Y0223931D01*
X0233842Y0223986D01*
X0233992Y0224037D01*
X0234143Y0224084D01*
X0234295Y0224127D01*
X0234448Y0224166D01*
X0234603Y0224202D01*
X0234758Y0224233D01*
X0234914Y0224261D01*
X0235070Y0224285D01*
X0235227Y0224305D01*
X0235385Y0224321D01*
X0235542Y0224333D01*
X0235701Y0224341D01*
X0235859Y0224345D01*
X0236017Y0224345D01*
X0236175Y0224341D01*
X0236334Y0224333D01*
X0236491Y0224321D01*
X0236649Y0224305D01*
X0236806Y0224285D01*
X0236962Y0224261D01*
X0237118Y0224233D01*
X0237273Y0224202D01*
X0237428Y0224166D01*
X0237581Y0224127D01*
X0237733Y0224084D01*
X0237884Y0224037D01*
X0238034Y0223986D01*
X0238183Y0223931D01*
X0238330Y0223873D01*
X0238476Y0223811D01*
X0238620Y0223746D01*
X0238762Y0223676D01*
X0238903Y0223604D01*
X0239042Y0223527D01*
X0239178Y0223448D01*
X0239313Y0223364D01*
X0239446Y0223278D01*
X0239576Y0223188D01*
X0239704Y0223095D01*
X0239830Y0222999D01*
X0239953Y0222899D01*
X0240074Y0222797D01*
X0240192Y0222692D01*
X0240307Y0222583D01*
X0240420Y0222472D01*
X0240530Y0222358D01*
X0240637Y0222241D01*
X0240741Y0222122D01*
X0240842Y0222000D01*
X0240939Y0221875D01*
X0241034Y0221748D01*
X0241125Y0221619D01*
X0241214Y0221488D01*
X0241298Y0221354D01*
X0241380Y0221218D01*
X0241458Y0221081D01*
X0241532Y0220941D01*
X0241603Y0220799D01*
X0241671Y0220656D01*
X0241735Y0220511D01*
X0241795Y0220365D01*
X0241851Y0220217D01*
X0241904Y0220068D01*
X0241953Y0219917D01*
X0241998Y0219765D01*
X0242039Y0219612D01*
X0242077Y0219459D01*
X0242110Y0219304D01*
X0242140Y0219148D01*
X0242166Y0218992D01*
X0242187Y0218835D01*
X0242205Y0218678D01*
X0242219Y0218520D01*
X0242229Y0218362D01*
X0242235Y0218204D01*
X0242237Y0218046D01*
X0242235Y0217888D01*
X0242229Y0217730D01*
X0242219Y0217572D01*
X0242205Y0217414D01*
X0242187Y0217257D01*
X0242166Y0217100D01*
X0242140Y0216944D01*
X0242110Y0216788D01*
X0242077Y0216633D01*
X0242039Y0216480D01*
X0241998Y0216327D01*
X0241953Y0216175D01*
X0241904Y0216024D01*
X0241851Y0215875D01*
X0241795Y0215727D01*
X0241735Y0215581D01*
X0241671Y0215436D01*
X0241603Y0215293D01*
X0241532Y0215151D01*
X0241458Y0215011D01*
X0241380Y0214874D01*
X0241298Y0214738D01*
X0241214Y0214604D01*
X0241125Y0214473D01*
X0241034Y0214344D01*
X0240939Y0214217D01*
X0240842Y0214092D01*
X0240741Y0213970D01*
X0240637Y0213851D01*
X0240530Y0213734D01*
X0240420Y0213620D01*
X0240307Y0213509D01*
X0240192Y0213400D01*
X0240074Y0213295D01*
X0239953Y0213193D01*
X0239830Y0213093D01*
X0239704Y0212997D01*
X0239576Y0212904D01*
X0239446Y0212814D01*
X0239313Y0212728D01*
X0239178Y0212644D01*
X0239042Y0212565D01*
X0238903Y0212488D01*
X0238762Y0212416D01*
X0238620Y0212346D01*
X0238476Y0212281D01*
X0238330Y0212219D01*
X0238183Y0212161D01*
X0238034Y0212106D01*
X0237884Y0212055D01*
X0237733Y0212008D01*
X0237581Y0211965D01*
X0237428Y0211926D01*
X0237273Y0211890D01*
X0237118Y0211859D01*
X0236962Y0211831D01*
X0236806Y0211807D01*
X0236649Y0211787D01*
X0236491Y0211771D01*
X0236334Y0211759D01*
X0236175Y0211751D01*
X0236017Y0211747D01*
X0235859Y0211747D01*
X0235701Y0211751D01*
X0235542Y0211759D01*
X0235385Y0211771D01*
X0235227Y0211787D01*
X0235070Y0211807D01*
X0234914Y0211831D01*
X0234758Y0211859D01*
X0234603Y0211890D01*
X0234448Y0211926D01*
X0234295Y0211965D01*
X0234143Y0212008D01*
X0233992Y0212055D01*
X0233842Y0212106D01*
X0233693Y0212161D01*
X0233546Y0212219D01*
X0233400Y0212281D01*
X0233256Y0212346D01*
X0233114Y0212416D01*
X0232973Y0212488D01*
X0232834Y0212565D01*
X0232698Y0212644D01*
X0232563Y0212728D01*
X0232430Y0212814D01*
X0232300Y0212904D01*
X0232172Y0212997D01*
X0232046Y0213093D01*
X0231923Y0213193D01*
X0231802Y0213295D01*
X0231684Y0213400D01*
X0231569Y0213509D01*
X0231456Y0213620D01*
X0231346Y0213734D01*
X0231239Y0213851D01*
X0231135Y0213970D01*
X0231034Y0214092D01*
X0230937Y0214217D01*
X0230842Y0214344D01*
X0230751Y0214473D01*
X0230662Y0214604D01*
X0230578Y0214738D01*
X0230496Y0214874D01*
X0230418Y0215011D01*
X0230344Y0215151D01*
X0230273Y0215293D01*
X0230205Y0215436D01*
X0230141Y0215581D01*
X0230081Y0215727D01*
X0230025Y0215875D01*
X0229972Y0216024D01*
X0229923Y0216175D01*
X0229878Y0216327D01*
X0229837Y0216480D01*
X0229799Y0216633D01*
X0229766Y0216788D01*
X0229736Y0216944D01*
X0229710Y0217100D01*
X0229689Y0217257D01*
X0229671Y0217414D01*
X0229657Y0217572D01*
X0229647Y0217730D01*
X0229641Y0217888D01*
X0229639Y0218046D01*
X0184639Y0218046D02*
X0184641Y0218204D01*
X0184647Y0218362D01*
X0184657Y0218520D01*
X0184671Y0218678D01*
X0184689Y0218835D01*
X0184710Y0218992D01*
X0184736Y0219148D01*
X0184766Y0219304D01*
X0184799Y0219459D01*
X0184837Y0219612D01*
X0184878Y0219765D01*
X0184923Y0219917D01*
X0184972Y0220068D01*
X0185025Y0220217D01*
X0185081Y0220365D01*
X0185141Y0220511D01*
X0185205Y0220656D01*
X0185273Y0220799D01*
X0185344Y0220941D01*
X0185418Y0221081D01*
X0185496Y0221218D01*
X0185578Y0221354D01*
X0185662Y0221488D01*
X0185751Y0221619D01*
X0185842Y0221748D01*
X0185937Y0221875D01*
X0186034Y0222000D01*
X0186135Y0222122D01*
X0186239Y0222241D01*
X0186346Y0222358D01*
X0186456Y0222472D01*
X0186569Y0222583D01*
X0186684Y0222692D01*
X0186802Y0222797D01*
X0186923Y0222899D01*
X0187046Y0222999D01*
X0187172Y0223095D01*
X0187300Y0223188D01*
X0187430Y0223278D01*
X0187563Y0223364D01*
X0187698Y0223448D01*
X0187834Y0223527D01*
X0187973Y0223604D01*
X0188114Y0223676D01*
X0188256Y0223746D01*
X0188400Y0223811D01*
X0188546Y0223873D01*
X0188693Y0223931D01*
X0188842Y0223986D01*
X0188992Y0224037D01*
X0189143Y0224084D01*
X0189295Y0224127D01*
X0189448Y0224166D01*
X0189603Y0224202D01*
X0189758Y0224233D01*
X0189914Y0224261D01*
X0190070Y0224285D01*
X0190227Y0224305D01*
X0190385Y0224321D01*
X0190542Y0224333D01*
X0190701Y0224341D01*
X0190859Y0224345D01*
X0191017Y0224345D01*
X0191175Y0224341D01*
X0191334Y0224333D01*
X0191491Y0224321D01*
X0191649Y0224305D01*
X0191806Y0224285D01*
X0191962Y0224261D01*
X0192118Y0224233D01*
X0192273Y0224202D01*
X0192428Y0224166D01*
X0192581Y0224127D01*
X0192733Y0224084D01*
X0192884Y0224037D01*
X0193034Y0223986D01*
X0193183Y0223931D01*
X0193330Y0223873D01*
X0193476Y0223811D01*
X0193620Y0223746D01*
X0193762Y0223676D01*
X0193903Y0223604D01*
X0194042Y0223527D01*
X0194178Y0223448D01*
X0194313Y0223364D01*
X0194446Y0223278D01*
X0194576Y0223188D01*
X0194704Y0223095D01*
X0194830Y0222999D01*
X0194953Y0222899D01*
X0195074Y0222797D01*
X0195192Y0222692D01*
X0195307Y0222583D01*
X0195420Y0222472D01*
X0195530Y0222358D01*
X0195637Y0222241D01*
X0195741Y0222122D01*
X0195842Y0222000D01*
X0195939Y0221875D01*
X0196034Y0221748D01*
X0196125Y0221619D01*
X0196214Y0221488D01*
X0196298Y0221354D01*
X0196380Y0221218D01*
X0196458Y0221081D01*
X0196532Y0220941D01*
X0196603Y0220799D01*
X0196671Y0220656D01*
X0196735Y0220511D01*
X0196795Y0220365D01*
X0196851Y0220217D01*
X0196904Y0220068D01*
X0196953Y0219917D01*
X0196998Y0219765D01*
X0197039Y0219612D01*
X0197077Y0219459D01*
X0197110Y0219304D01*
X0197140Y0219148D01*
X0197166Y0218992D01*
X0197187Y0218835D01*
X0197205Y0218678D01*
X0197219Y0218520D01*
X0197229Y0218362D01*
X0197235Y0218204D01*
X0197237Y0218046D01*
X0197235Y0217888D01*
X0197229Y0217730D01*
X0197219Y0217572D01*
X0197205Y0217414D01*
X0197187Y0217257D01*
X0197166Y0217100D01*
X0197140Y0216944D01*
X0197110Y0216788D01*
X0197077Y0216633D01*
X0197039Y0216480D01*
X0196998Y0216327D01*
X0196953Y0216175D01*
X0196904Y0216024D01*
X0196851Y0215875D01*
X0196795Y0215727D01*
X0196735Y0215581D01*
X0196671Y0215436D01*
X0196603Y0215293D01*
X0196532Y0215151D01*
X0196458Y0215011D01*
X0196380Y0214874D01*
X0196298Y0214738D01*
X0196214Y0214604D01*
X0196125Y0214473D01*
X0196034Y0214344D01*
X0195939Y0214217D01*
X0195842Y0214092D01*
X0195741Y0213970D01*
X0195637Y0213851D01*
X0195530Y0213734D01*
X0195420Y0213620D01*
X0195307Y0213509D01*
X0195192Y0213400D01*
X0195074Y0213295D01*
X0194953Y0213193D01*
X0194830Y0213093D01*
X0194704Y0212997D01*
X0194576Y0212904D01*
X0194446Y0212814D01*
X0194313Y0212728D01*
X0194178Y0212644D01*
X0194042Y0212565D01*
X0193903Y0212488D01*
X0193762Y0212416D01*
X0193620Y0212346D01*
X0193476Y0212281D01*
X0193330Y0212219D01*
X0193183Y0212161D01*
X0193034Y0212106D01*
X0192884Y0212055D01*
X0192733Y0212008D01*
X0192581Y0211965D01*
X0192428Y0211926D01*
X0192273Y0211890D01*
X0192118Y0211859D01*
X0191962Y0211831D01*
X0191806Y0211807D01*
X0191649Y0211787D01*
X0191491Y0211771D01*
X0191334Y0211759D01*
X0191175Y0211751D01*
X0191017Y0211747D01*
X0190859Y0211747D01*
X0190701Y0211751D01*
X0190542Y0211759D01*
X0190385Y0211771D01*
X0190227Y0211787D01*
X0190070Y0211807D01*
X0189914Y0211831D01*
X0189758Y0211859D01*
X0189603Y0211890D01*
X0189448Y0211926D01*
X0189295Y0211965D01*
X0189143Y0212008D01*
X0188992Y0212055D01*
X0188842Y0212106D01*
X0188693Y0212161D01*
X0188546Y0212219D01*
X0188400Y0212281D01*
X0188256Y0212346D01*
X0188114Y0212416D01*
X0187973Y0212488D01*
X0187834Y0212565D01*
X0187698Y0212644D01*
X0187563Y0212728D01*
X0187430Y0212814D01*
X0187300Y0212904D01*
X0187172Y0212997D01*
X0187046Y0213093D01*
X0186923Y0213193D01*
X0186802Y0213295D01*
X0186684Y0213400D01*
X0186569Y0213509D01*
X0186456Y0213620D01*
X0186346Y0213734D01*
X0186239Y0213851D01*
X0186135Y0213970D01*
X0186034Y0214092D01*
X0185937Y0214217D01*
X0185842Y0214344D01*
X0185751Y0214473D01*
X0185662Y0214604D01*
X0185578Y0214738D01*
X0185496Y0214874D01*
X0185418Y0215011D01*
X0185344Y0215151D01*
X0185273Y0215293D01*
X0185205Y0215436D01*
X0185141Y0215581D01*
X0185081Y0215727D01*
X0185025Y0215875D01*
X0184972Y0216024D01*
X0184923Y0216175D01*
X0184878Y0216327D01*
X0184837Y0216480D01*
X0184799Y0216633D01*
X0184766Y0216788D01*
X0184736Y0216944D01*
X0184710Y0217100D01*
X0184689Y0217257D01*
X0184671Y0217414D01*
X0184657Y0217572D01*
X0184647Y0217730D01*
X0184641Y0217888D01*
X0184639Y0218046D01*
X0163023Y0194348D02*
X0163025Y0194501D01*
X0163031Y0194655D01*
X0163041Y0194808D01*
X0163055Y0194960D01*
X0163073Y0195113D01*
X0163095Y0195264D01*
X0163120Y0195415D01*
X0163150Y0195566D01*
X0163184Y0195716D01*
X0163221Y0195864D01*
X0163262Y0196012D01*
X0163307Y0196158D01*
X0163356Y0196304D01*
X0163409Y0196448D01*
X0163465Y0196590D01*
X0163525Y0196731D01*
X0163589Y0196871D01*
X0163656Y0197009D01*
X0163727Y0197145D01*
X0163802Y0197279D01*
X0163879Y0197411D01*
X0163961Y0197541D01*
X0164045Y0197669D01*
X0164133Y0197795D01*
X0164224Y0197918D01*
X0164318Y0198039D01*
X0164416Y0198157D01*
X0164516Y0198273D01*
X0164620Y0198386D01*
X0164726Y0198497D01*
X0164835Y0198605D01*
X0164947Y0198710D01*
X0165061Y0198811D01*
X0165179Y0198910D01*
X0165298Y0199006D01*
X0165420Y0199099D01*
X0165545Y0199188D01*
X0165672Y0199275D01*
X0165801Y0199357D01*
X0165932Y0199437D01*
X0166065Y0199513D01*
X0166200Y0199586D01*
X0166337Y0199655D01*
X0166476Y0199720D01*
X0166616Y0199782D01*
X0166758Y0199840D01*
X0166901Y0199895D01*
X0167046Y0199946D01*
X0167192Y0199993D01*
X0167339Y0200036D01*
X0167487Y0200075D01*
X0167636Y0200111D01*
X0167786Y0200142D01*
X0167937Y0200170D01*
X0168088Y0200194D01*
X0168241Y0200214D01*
X0168393Y0200230D01*
X0168546Y0200242D01*
X0168699Y0200250D01*
X0168852Y0200254D01*
X0169006Y0200254D01*
X0169159Y0200250D01*
X0169312Y0200242D01*
X0169465Y0200230D01*
X0169617Y0200214D01*
X0169770Y0200194D01*
X0169921Y0200170D01*
X0170072Y0200142D01*
X0170222Y0200111D01*
X0170371Y0200075D01*
X0170519Y0200036D01*
X0170666Y0199993D01*
X0170812Y0199946D01*
X0170957Y0199895D01*
X0171100Y0199840D01*
X0171242Y0199782D01*
X0171382Y0199720D01*
X0171521Y0199655D01*
X0171658Y0199586D01*
X0171793Y0199513D01*
X0171926Y0199437D01*
X0172057Y0199357D01*
X0172186Y0199275D01*
X0172313Y0199188D01*
X0172438Y0199099D01*
X0172560Y0199006D01*
X0172679Y0198910D01*
X0172797Y0198811D01*
X0172911Y0198710D01*
X0173023Y0198605D01*
X0173132Y0198497D01*
X0173238Y0198386D01*
X0173342Y0198273D01*
X0173442Y0198157D01*
X0173540Y0198039D01*
X0173634Y0197918D01*
X0173725Y0197795D01*
X0173813Y0197669D01*
X0173897Y0197541D01*
X0173979Y0197411D01*
X0174056Y0197279D01*
X0174131Y0197145D01*
X0174202Y0197009D01*
X0174269Y0196871D01*
X0174333Y0196731D01*
X0174393Y0196590D01*
X0174449Y0196448D01*
X0174502Y0196304D01*
X0174551Y0196158D01*
X0174596Y0196012D01*
X0174637Y0195864D01*
X0174674Y0195716D01*
X0174708Y0195566D01*
X0174738Y0195415D01*
X0174763Y0195264D01*
X0174785Y0195113D01*
X0174803Y0194960D01*
X0174817Y0194808D01*
X0174827Y0194655D01*
X0174833Y0194501D01*
X0174835Y0194348D01*
X0174833Y0194195D01*
X0174827Y0194041D01*
X0174817Y0193888D01*
X0174803Y0193736D01*
X0174785Y0193583D01*
X0174763Y0193432D01*
X0174738Y0193281D01*
X0174708Y0193130D01*
X0174674Y0192980D01*
X0174637Y0192832D01*
X0174596Y0192684D01*
X0174551Y0192538D01*
X0174502Y0192392D01*
X0174449Y0192248D01*
X0174393Y0192106D01*
X0174333Y0191965D01*
X0174269Y0191825D01*
X0174202Y0191687D01*
X0174131Y0191551D01*
X0174056Y0191417D01*
X0173979Y0191285D01*
X0173897Y0191155D01*
X0173813Y0191027D01*
X0173725Y0190901D01*
X0173634Y0190778D01*
X0173540Y0190657D01*
X0173442Y0190539D01*
X0173342Y0190423D01*
X0173238Y0190310D01*
X0173132Y0190199D01*
X0173023Y0190091D01*
X0172911Y0189986D01*
X0172797Y0189885D01*
X0172679Y0189786D01*
X0172560Y0189690D01*
X0172438Y0189597D01*
X0172313Y0189508D01*
X0172186Y0189421D01*
X0172057Y0189339D01*
X0171926Y0189259D01*
X0171793Y0189183D01*
X0171658Y0189110D01*
X0171521Y0189041D01*
X0171382Y0188976D01*
X0171242Y0188914D01*
X0171100Y0188856D01*
X0170957Y0188801D01*
X0170812Y0188750D01*
X0170666Y0188703D01*
X0170519Y0188660D01*
X0170371Y0188621D01*
X0170222Y0188585D01*
X0170072Y0188554D01*
X0169921Y0188526D01*
X0169770Y0188502D01*
X0169617Y0188482D01*
X0169465Y0188466D01*
X0169312Y0188454D01*
X0169159Y0188446D01*
X0169006Y0188442D01*
X0168852Y0188442D01*
X0168699Y0188446D01*
X0168546Y0188454D01*
X0168393Y0188466D01*
X0168241Y0188482D01*
X0168088Y0188502D01*
X0167937Y0188526D01*
X0167786Y0188554D01*
X0167636Y0188585D01*
X0167487Y0188621D01*
X0167339Y0188660D01*
X0167192Y0188703D01*
X0167046Y0188750D01*
X0166901Y0188801D01*
X0166758Y0188856D01*
X0166616Y0188914D01*
X0166476Y0188976D01*
X0166337Y0189041D01*
X0166200Y0189110D01*
X0166065Y0189183D01*
X0165932Y0189259D01*
X0165801Y0189339D01*
X0165672Y0189421D01*
X0165545Y0189508D01*
X0165420Y0189597D01*
X0165298Y0189690D01*
X0165179Y0189786D01*
X0165061Y0189885D01*
X0164947Y0189986D01*
X0164835Y0190091D01*
X0164726Y0190199D01*
X0164620Y0190310D01*
X0164516Y0190423D01*
X0164416Y0190539D01*
X0164318Y0190657D01*
X0164224Y0190778D01*
X0164133Y0190901D01*
X0164045Y0191027D01*
X0163961Y0191155D01*
X0163879Y0191285D01*
X0163802Y0191417D01*
X0163727Y0191551D01*
X0163656Y0191687D01*
X0163589Y0191825D01*
X0163525Y0191965D01*
X0163465Y0192106D01*
X0163409Y0192248D01*
X0163356Y0192392D01*
X0163307Y0192538D01*
X0163262Y0192684D01*
X0163221Y0192832D01*
X0163184Y0192980D01*
X0163150Y0193130D01*
X0163120Y0193281D01*
X0163095Y0193432D01*
X0163073Y0193583D01*
X0163055Y0193736D01*
X0163041Y0193888D01*
X0163031Y0194041D01*
X0163025Y0194195D01*
X0163023Y0194348D01*
X0109100Y0165436D02*
X0109102Y0165589D01*
X0109108Y0165742D01*
X0109118Y0165895D01*
X0109132Y0166048D01*
X0109150Y0166200D01*
X0109171Y0166351D01*
X0109197Y0166502D01*
X0109227Y0166653D01*
X0109260Y0166802D01*
X0109298Y0166951D01*
X0109339Y0167098D01*
X0109384Y0167245D01*
X0109433Y0167390D01*
X0109485Y0167534D01*
X0109542Y0167676D01*
X0109602Y0167817D01*
X0109665Y0167956D01*
X0109733Y0168094D01*
X0109803Y0168230D01*
X0109878Y0168364D01*
X0109955Y0168496D01*
X0110037Y0168626D01*
X0110121Y0168754D01*
X0110209Y0168879D01*
X0110300Y0169002D01*
X0110394Y0169123D01*
X0110491Y0169241D01*
X0110592Y0169357D01*
X0110695Y0169470D01*
X0110801Y0169581D01*
X0110910Y0169688D01*
X0111022Y0169793D01*
X0111136Y0169895D01*
X0111253Y0169994D01*
X0111373Y0170089D01*
X0111495Y0170182D01*
X0111619Y0170271D01*
X0111746Y0170358D01*
X0111875Y0170440D01*
X0112006Y0170520D01*
X0112139Y0170596D01*
X0112274Y0170668D01*
X0112411Y0170737D01*
X0112549Y0170803D01*
X0112689Y0170865D01*
X0112831Y0170923D01*
X0112974Y0170977D01*
X0113119Y0171028D01*
X0113264Y0171075D01*
X0113411Y0171118D01*
X0113559Y0171157D01*
X0113708Y0171193D01*
X0113858Y0171224D01*
X0114009Y0171252D01*
X0114160Y0171276D01*
X0114312Y0171296D01*
X0114465Y0171312D01*
X0114617Y0171324D01*
X0114770Y0171332D01*
X0114923Y0171336D01*
X0115077Y0171336D01*
X0115230Y0171332D01*
X0115383Y0171324D01*
X0115535Y0171312D01*
X0115688Y0171296D01*
X0115840Y0171276D01*
X0115991Y0171252D01*
X0116142Y0171224D01*
X0116292Y0171193D01*
X0116441Y0171157D01*
X0116589Y0171118D01*
X0116736Y0171075D01*
X0116881Y0171028D01*
X0117026Y0170977D01*
X0117169Y0170923D01*
X0117311Y0170865D01*
X0117451Y0170803D01*
X0117589Y0170737D01*
X0117726Y0170668D01*
X0117861Y0170596D01*
X0117994Y0170520D01*
X0118125Y0170440D01*
X0118254Y0170358D01*
X0118381Y0170271D01*
X0118505Y0170182D01*
X0118627Y0170089D01*
X0118747Y0169994D01*
X0118864Y0169895D01*
X0118978Y0169793D01*
X0119090Y0169688D01*
X0119199Y0169581D01*
X0119305Y0169470D01*
X0119408Y0169357D01*
X0119509Y0169241D01*
X0119606Y0169123D01*
X0119700Y0169002D01*
X0119791Y0168879D01*
X0119879Y0168754D01*
X0119963Y0168626D01*
X0120045Y0168496D01*
X0120122Y0168364D01*
X0120197Y0168230D01*
X0120267Y0168094D01*
X0120335Y0167956D01*
X0120398Y0167817D01*
X0120458Y0167676D01*
X0120515Y0167534D01*
X0120567Y0167390D01*
X0120616Y0167245D01*
X0120661Y0167098D01*
X0120702Y0166951D01*
X0120740Y0166802D01*
X0120773Y0166653D01*
X0120803Y0166502D01*
X0120829Y0166351D01*
X0120850Y0166200D01*
X0120868Y0166048D01*
X0120882Y0165895D01*
X0120892Y0165742D01*
X0120898Y0165589D01*
X0120900Y0165436D01*
X0120898Y0165283D01*
X0120892Y0165130D01*
X0120882Y0164977D01*
X0120868Y0164824D01*
X0120850Y0164672D01*
X0120829Y0164521D01*
X0120803Y0164370D01*
X0120773Y0164219D01*
X0120740Y0164070D01*
X0120702Y0163921D01*
X0120661Y0163774D01*
X0120616Y0163627D01*
X0120567Y0163482D01*
X0120515Y0163338D01*
X0120458Y0163196D01*
X0120398Y0163055D01*
X0120335Y0162916D01*
X0120267Y0162778D01*
X0120197Y0162642D01*
X0120122Y0162508D01*
X0120045Y0162376D01*
X0119963Y0162246D01*
X0119879Y0162118D01*
X0119791Y0161993D01*
X0119700Y0161870D01*
X0119606Y0161749D01*
X0119509Y0161631D01*
X0119408Y0161515D01*
X0119305Y0161402D01*
X0119199Y0161291D01*
X0119090Y0161184D01*
X0118978Y0161079D01*
X0118864Y0160977D01*
X0118747Y0160878D01*
X0118627Y0160783D01*
X0118505Y0160690D01*
X0118381Y0160601D01*
X0118254Y0160514D01*
X0118125Y0160432D01*
X0117994Y0160352D01*
X0117861Y0160276D01*
X0117726Y0160204D01*
X0117589Y0160135D01*
X0117451Y0160069D01*
X0117311Y0160007D01*
X0117169Y0159949D01*
X0117026Y0159895D01*
X0116881Y0159844D01*
X0116736Y0159797D01*
X0116589Y0159754D01*
X0116441Y0159715D01*
X0116292Y0159679D01*
X0116142Y0159648D01*
X0115991Y0159620D01*
X0115840Y0159596D01*
X0115688Y0159576D01*
X0115535Y0159560D01*
X0115383Y0159548D01*
X0115230Y0159540D01*
X0115077Y0159536D01*
X0114923Y0159536D01*
X0114770Y0159540D01*
X0114617Y0159548D01*
X0114465Y0159560D01*
X0114312Y0159576D01*
X0114160Y0159596D01*
X0114009Y0159620D01*
X0113858Y0159648D01*
X0113708Y0159679D01*
X0113559Y0159715D01*
X0113411Y0159754D01*
X0113264Y0159797D01*
X0113119Y0159844D01*
X0112974Y0159895D01*
X0112831Y0159949D01*
X0112689Y0160007D01*
X0112549Y0160069D01*
X0112411Y0160135D01*
X0112274Y0160204D01*
X0112139Y0160276D01*
X0112006Y0160352D01*
X0111875Y0160432D01*
X0111746Y0160514D01*
X0111619Y0160601D01*
X0111495Y0160690D01*
X0111373Y0160783D01*
X0111253Y0160878D01*
X0111136Y0160977D01*
X0111022Y0161079D01*
X0110910Y0161184D01*
X0110801Y0161291D01*
X0110695Y0161402D01*
X0110592Y0161515D01*
X0110491Y0161631D01*
X0110394Y0161749D01*
X0110300Y0161870D01*
X0110209Y0161993D01*
X0110121Y0162118D01*
X0110037Y0162246D01*
X0109955Y0162376D01*
X0109878Y0162508D01*
X0109803Y0162642D01*
X0109733Y0162778D01*
X0109665Y0162916D01*
X0109602Y0163055D01*
X0109542Y0163196D01*
X0109485Y0163338D01*
X0109433Y0163482D01*
X0109384Y0163627D01*
X0109339Y0163774D01*
X0109298Y0163921D01*
X0109260Y0164070D01*
X0109227Y0164219D01*
X0109197Y0164370D01*
X0109171Y0164521D01*
X0109150Y0164672D01*
X0109132Y0164824D01*
X0109118Y0164977D01*
X0109108Y0165130D01*
X0109102Y0165283D01*
X0109100Y0165436D01*
X0006100Y0165436D02*
X0006102Y0165589D01*
X0006108Y0165742D01*
X0006118Y0165895D01*
X0006132Y0166048D01*
X0006150Y0166200D01*
X0006171Y0166351D01*
X0006197Y0166502D01*
X0006227Y0166653D01*
X0006260Y0166802D01*
X0006298Y0166951D01*
X0006339Y0167098D01*
X0006384Y0167245D01*
X0006433Y0167390D01*
X0006485Y0167534D01*
X0006542Y0167676D01*
X0006602Y0167817D01*
X0006665Y0167956D01*
X0006733Y0168094D01*
X0006803Y0168230D01*
X0006878Y0168364D01*
X0006955Y0168496D01*
X0007037Y0168626D01*
X0007121Y0168754D01*
X0007209Y0168879D01*
X0007300Y0169002D01*
X0007394Y0169123D01*
X0007491Y0169241D01*
X0007592Y0169357D01*
X0007695Y0169470D01*
X0007801Y0169581D01*
X0007910Y0169688D01*
X0008022Y0169793D01*
X0008136Y0169895D01*
X0008253Y0169994D01*
X0008373Y0170089D01*
X0008495Y0170182D01*
X0008619Y0170271D01*
X0008746Y0170358D01*
X0008875Y0170440D01*
X0009006Y0170520D01*
X0009139Y0170596D01*
X0009274Y0170668D01*
X0009411Y0170737D01*
X0009549Y0170803D01*
X0009689Y0170865D01*
X0009831Y0170923D01*
X0009974Y0170977D01*
X0010119Y0171028D01*
X0010264Y0171075D01*
X0010411Y0171118D01*
X0010559Y0171157D01*
X0010708Y0171193D01*
X0010858Y0171224D01*
X0011009Y0171252D01*
X0011160Y0171276D01*
X0011312Y0171296D01*
X0011465Y0171312D01*
X0011617Y0171324D01*
X0011770Y0171332D01*
X0011923Y0171336D01*
X0012077Y0171336D01*
X0012230Y0171332D01*
X0012383Y0171324D01*
X0012535Y0171312D01*
X0012688Y0171296D01*
X0012840Y0171276D01*
X0012991Y0171252D01*
X0013142Y0171224D01*
X0013292Y0171193D01*
X0013441Y0171157D01*
X0013589Y0171118D01*
X0013736Y0171075D01*
X0013881Y0171028D01*
X0014026Y0170977D01*
X0014169Y0170923D01*
X0014311Y0170865D01*
X0014451Y0170803D01*
X0014589Y0170737D01*
X0014726Y0170668D01*
X0014861Y0170596D01*
X0014994Y0170520D01*
X0015125Y0170440D01*
X0015254Y0170358D01*
X0015381Y0170271D01*
X0015505Y0170182D01*
X0015627Y0170089D01*
X0015747Y0169994D01*
X0015864Y0169895D01*
X0015978Y0169793D01*
X0016090Y0169688D01*
X0016199Y0169581D01*
X0016305Y0169470D01*
X0016408Y0169357D01*
X0016509Y0169241D01*
X0016606Y0169123D01*
X0016700Y0169002D01*
X0016791Y0168879D01*
X0016879Y0168754D01*
X0016963Y0168626D01*
X0017045Y0168496D01*
X0017122Y0168364D01*
X0017197Y0168230D01*
X0017267Y0168094D01*
X0017335Y0167956D01*
X0017398Y0167817D01*
X0017458Y0167676D01*
X0017515Y0167534D01*
X0017567Y0167390D01*
X0017616Y0167245D01*
X0017661Y0167098D01*
X0017702Y0166951D01*
X0017740Y0166802D01*
X0017773Y0166653D01*
X0017803Y0166502D01*
X0017829Y0166351D01*
X0017850Y0166200D01*
X0017868Y0166048D01*
X0017882Y0165895D01*
X0017892Y0165742D01*
X0017898Y0165589D01*
X0017900Y0165436D01*
X0017898Y0165283D01*
X0017892Y0165130D01*
X0017882Y0164977D01*
X0017868Y0164824D01*
X0017850Y0164672D01*
X0017829Y0164521D01*
X0017803Y0164370D01*
X0017773Y0164219D01*
X0017740Y0164070D01*
X0017702Y0163921D01*
X0017661Y0163774D01*
X0017616Y0163627D01*
X0017567Y0163482D01*
X0017515Y0163338D01*
X0017458Y0163196D01*
X0017398Y0163055D01*
X0017335Y0162916D01*
X0017267Y0162778D01*
X0017197Y0162642D01*
X0017122Y0162508D01*
X0017045Y0162376D01*
X0016963Y0162246D01*
X0016879Y0162118D01*
X0016791Y0161993D01*
X0016700Y0161870D01*
X0016606Y0161749D01*
X0016509Y0161631D01*
X0016408Y0161515D01*
X0016305Y0161402D01*
X0016199Y0161291D01*
X0016090Y0161184D01*
X0015978Y0161079D01*
X0015864Y0160977D01*
X0015747Y0160878D01*
X0015627Y0160783D01*
X0015505Y0160690D01*
X0015381Y0160601D01*
X0015254Y0160514D01*
X0015125Y0160432D01*
X0014994Y0160352D01*
X0014861Y0160276D01*
X0014726Y0160204D01*
X0014589Y0160135D01*
X0014451Y0160069D01*
X0014311Y0160007D01*
X0014169Y0159949D01*
X0014026Y0159895D01*
X0013881Y0159844D01*
X0013736Y0159797D01*
X0013589Y0159754D01*
X0013441Y0159715D01*
X0013292Y0159679D01*
X0013142Y0159648D01*
X0012991Y0159620D01*
X0012840Y0159596D01*
X0012688Y0159576D01*
X0012535Y0159560D01*
X0012383Y0159548D01*
X0012230Y0159540D01*
X0012077Y0159536D01*
X0011923Y0159536D01*
X0011770Y0159540D01*
X0011617Y0159548D01*
X0011465Y0159560D01*
X0011312Y0159576D01*
X0011160Y0159596D01*
X0011009Y0159620D01*
X0010858Y0159648D01*
X0010708Y0159679D01*
X0010559Y0159715D01*
X0010411Y0159754D01*
X0010264Y0159797D01*
X0010119Y0159844D01*
X0009974Y0159895D01*
X0009831Y0159949D01*
X0009689Y0160007D01*
X0009549Y0160069D01*
X0009411Y0160135D01*
X0009274Y0160204D01*
X0009139Y0160276D01*
X0009006Y0160352D01*
X0008875Y0160432D01*
X0008746Y0160514D01*
X0008619Y0160601D01*
X0008495Y0160690D01*
X0008373Y0160783D01*
X0008253Y0160878D01*
X0008136Y0160977D01*
X0008022Y0161079D01*
X0007910Y0161184D01*
X0007801Y0161291D01*
X0007695Y0161402D01*
X0007592Y0161515D01*
X0007491Y0161631D01*
X0007394Y0161749D01*
X0007300Y0161870D01*
X0007209Y0161993D01*
X0007121Y0162118D01*
X0007037Y0162246D01*
X0006955Y0162376D01*
X0006878Y0162508D01*
X0006803Y0162642D01*
X0006733Y0162778D01*
X0006665Y0162916D01*
X0006602Y0163055D01*
X0006542Y0163196D01*
X0006485Y0163338D01*
X0006433Y0163482D01*
X0006384Y0163627D01*
X0006339Y0163774D01*
X0006298Y0163921D01*
X0006260Y0164070D01*
X0006227Y0164219D01*
X0006197Y0164370D01*
X0006171Y0164521D01*
X0006150Y0164672D01*
X0006132Y0164824D01*
X0006118Y0164977D01*
X0006108Y0165130D01*
X0006102Y0165283D01*
X0006100Y0165436D01*
D11*
G36*
X0175012Y0185551D02*
X0172609Y0183148D01*
X0170912Y0184845D01*
X0173315Y0187248D01*
X0175012Y0185551D01*
G37*
G36*
X0178688Y0189228D02*
X0176285Y0186825D01*
X0174588Y0188522D01*
X0176991Y0190925D01*
X0178688Y0189228D01*
G37*
X0181200Y0174436D03*
X0186400Y0174436D03*
X0186043Y0169146D03*
X0191243Y0169146D03*
D12*
X0187483Y0160641D03*
X0187483Y0158672D03*
X0187483Y0156704D03*
X0187483Y0154735D03*
X0187483Y0152767D03*
X0187483Y0150798D03*
X0187483Y0148830D03*
X0187483Y0146861D03*
X0187483Y0144893D03*
X0187483Y0142924D03*
X0187483Y0140956D03*
X0187483Y0138987D03*
X0187483Y0137019D03*
X0187483Y0135050D03*
X0187483Y0133082D03*
X0187483Y0131113D03*
X0152483Y0131113D03*
X0152483Y0133082D03*
X0152483Y0135050D03*
X0152483Y0137019D03*
X0152483Y0138987D03*
X0152483Y0140956D03*
X0152483Y0142924D03*
X0152483Y0144893D03*
X0152483Y0146861D03*
X0152483Y0148830D03*
X0152483Y0150798D03*
X0152483Y0152767D03*
X0152483Y0154735D03*
X0152483Y0156704D03*
X0152483Y0158672D03*
X0152483Y0160641D03*
D13*
X0155219Y0163377D03*
X0157187Y0163377D03*
X0159156Y0163377D03*
X0161124Y0163377D03*
X0163093Y0163377D03*
X0165061Y0163377D03*
X0167030Y0163377D03*
X0168998Y0163377D03*
X0170967Y0163377D03*
X0172935Y0163377D03*
X0174904Y0163377D03*
X0176872Y0163377D03*
X0178841Y0163377D03*
X0180809Y0163377D03*
X0182778Y0163377D03*
X0184746Y0163377D03*
X0184746Y0128377D03*
X0182778Y0128377D03*
X0180809Y0128377D03*
X0178841Y0128377D03*
X0176872Y0128377D03*
X0174904Y0128377D03*
X0172935Y0128377D03*
X0170967Y0128377D03*
X0168998Y0128377D03*
X0167030Y0128377D03*
X0165061Y0128377D03*
X0163093Y0128377D03*
X0161124Y0128377D03*
X0159156Y0128377D03*
X0157187Y0128377D03*
X0155219Y0128377D03*
D14*
X0169983Y0145877D03*
D15*
X0146639Y0145112D03*
X0146639Y0151827D03*
D16*
X0195938Y0183046D03*
X0205938Y0183046D03*
X0215938Y0183046D03*
X0225938Y0183046D03*
X0230938Y0193046D03*
X0220938Y0193046D03*
X0210938Y0193046D03*
X0200938Y0193046D03*
D17*
X0183595Y0206216D03*
X0243438Y0206216D03*
D18*
X0228339Y0231354D03*
X0238339Y0237338D03*
X0198536Y0237338D03*
X0188536Y0231354D03*
D19*
X0161693Y0234087D03*
X0161693Y0226213D03*
X0161693Y0218339D03*
X0161693Y0210465D03*
D20*
X0150984Y0209402D03*
X0172402Y0209402D03*
X0172402Y0236961D03*
X0150984Y0236961D03*
D21*
X0154213Y0064008D03*
X0154213Y0048260D03*
X0154213Y0034087D03*
D22*
X0157200Y0181436D03*
X0157200Y0185436D03*
D23*
X0193600Y0192986D03*
X0193600Y0197086D03*
X0198800Y0176886D03*
X0198800Y0172786D03*
X0216600Y0199786D03*
X0216600Y0203886D03*
D24*
X0220550Y0202836D03*
X0224650Y0202836D03*
D25*
X0154150Y0226836D03*
X0147450Y0226836D03*
D26*
X0153000Y0175036D03*
X0153000Y0171036D03*
X0146800Y0170236D03*
X0146800Y0166236D03*
X0147400Y0161236D03*
X0147400Y0157236D03*
X0159000Y0169036D03*
X0159000Y0173036D03*
X0147400Y0137236D03*
X0143400Y0137236D03*
X0143800Y0127436D03*
X0147800Y0127436D03*
X0161000Y0122836D03*
X0165000Y0122836D03*
X0176600Y0123036D03*
X0180600Y0123036D03*
X0191400Y0141036D03*
X0195400Y0141036D03*
X0163200Y0110836D03*
X0163200Y0106836D03*
X0162200Y0087836D03*
X0166200Y0087836D03*
X0190800Y0073036D03*
X0190800Y0069036D03*
X0145400Y0025436D03*
X0145400Y0021436D03*
D27*
X0161550Y0097436D03*
X0167650Y0097436D03*
D28*
X0106614Y0094680D03*
X0106614Y0086806D03*
X0106614Y0078932D03*
X0106614Y0071058D03*
X0106614Y0063184D03*
X0106614Y0055310D03*
X0106614Y0047436D03*
X0106614Y0102554D03*
X0106614Y0110428D03*
X0106614Y0118302D03*
X0020000Y0118302D03*
X0020000Y0110428D03*
X0020000Y0102554D03*
X0020000Y0094680D03*
X0020000Y0086806D03*
X0020000Y0078932D03*
X0020000Y0071058D03*
X0020000Y0063184D03*
X0020000Y0055310D03*
X0020000Y0047436D03*
D29*
X0140033Y0047842D02*
X0141716Y0047842D01*
X0141716Y0045875D02*
X0140033Y0045875D01*
X0140033Y0043908D02*
X0141716Y0043908D01*
X0141716Y0041941D02*
X0140033Y0041941D01*
X0140033Y0039974D02*
X0141716Y0039974D01*
X0141716Y0038817D02*
X0140716Y0037817D01*
X0140716Y0036678D01*
X0140530Y0037127D01*
X0140033Y0037624D01*
X0140033Y0059249D01*
X0140530Y0059746D01*
X0140984Y0060843D01*
X0140984Y0122030D01*
X0140530Y0123127D01*
X0140033Y0123624D01*
X0140033Y0135510D01*
X0140151Y0135070D01*
X0140412Y0134618D01*
X0140782Y0134248D01*
X0141234Y0133987D01*
X0141739Y0133852D01*
X0143400Y0133852D01*
X0145061Y0133852D01*
X0145216Y0133893D01*
X0145216Y0131386D01*
X0145898Y0130703D01*
X0145461Y0130820D01*
X0143800Y0130820D01*
X0142139Y0130820D01*
X0141634Y0130685D01*
X0141182Y0130424D01*
X0140812Y0130055D01*
X0140551Y0129602D01*
X0140416Y0129097D01*
X0140416Y0127436D01*
X0140416Y0125775D01*
X0140551Y0125270D01*
X0140812Y0124818D01*
X0141182Y0124448D01*
X0141634Y0124187D01*
X0142139Y0124052D01*
X0143800Y0124052D01*
X0145461Y0124052D01*
X0145966Y0124187D01*
X0146418Y0124448D01*
X0146422Y0124452D01*
X0148120Y0124452D01*
X0149435Y0123137D01*
X0149186Y0123034D01*
X0148402Y0122251D01*
X0147978Y0121227D01*
X0147978Y0120120D01*
X0148402Y0119096D01*
X0149186Y0118313D01*
X0150209Y0117889D01*
X0150882Y0117889D01*
X0151916Y0116856D01*
X0153020Y0115752D01*
X0167380Y0115752D01*
X0168380Y0116752D01*
X0169047Y0116752D01*
X0169284Y0116515D01*
X0167716Y0114947D01*
X0167716Y0113386D01*
X0167716Y0107617D01*
X0166584Y0106485D01*
X0166584Y0106836D01*
X0163200Y0106836D01*
X0163200Y0103452D01*
X0163551Y0103452D01*
X0161220Y0101120D01*
X0159294Y0101120D01*
X0158366Y0100192D01*
X0158366Y0094680D01*
X0159294Y0093752D01*
X0160316Y0093752D01*
X0160316Y0092689D01*
X0159840Y0092213D01*
X0159416Y0091190D01*
X0159416Y0090092D01*
X0159216Y0089892D01*
X0159216Y0085780D01*
X0160144Y0084852D01*
X0160316Y0084852D01*
X0160316Y0083017D01*
X0142820Y0065520D01*
X0141716Y0064417D01*
X0141716Y0038817D01*
X0140906Y0038007D02*
X0140033Y0038007D01*
X0144484Y0030802D02*
X0144846Y0030652D01*
X0145954Y0030652D01*
X0146977Y0031076D01*
X0147453Y0031552D01*
X0148136Y0031552D01*
X0148631Y0030357D01*
X0150483Y0028505D01*
X0152903Y0027502D01*
X0155522Y0027502D01*
X0156865Y0028059D01*
X0156865Y0015420D01*
X0140984Y0015420D01*
X0140984Y0027187D01*
X0142416Y0025756D01*
X0142416Y0024058D01*
X0142412Y0024055D01*
X0142151Y0023602D01*
X0142016Y0023097D01*
X0142016Y0021436D01*
X0142016Y0019775D01*
X0142151Y0019270D01*
X0142412Y0018818D01*
X0142782Y0018448D01*
X0143234Y0018187D01*
X0143739Y0018052D01*
X0145400Y0018052D01*
X0147061Y0018052D01*
X0147566Y0018187D01*
X0148018Y0018448D01*
X0148388Y0018818D01*
X0148649Y0019270D01*
X0148784Y0019775D01*
X0148784Y0021436D01*
X0145400Y0021436D01*
X0145400Y0018052D01*
X0145400Y0021436D01*
X0145400Y0021436D01*
X0145400Y0021436D01*
X0142016Y0021436D01*
X0145400Y0021436D01*
X0145400Y0021436D01*
X0148784Y0021436D01*
X0148784Y0023097D01*
X0148689Y0023452D01*
X0148954Y0023452D01*
X0149977Y0023876D01*
X0150760Y0024659D01*
X0151184Y0025682D01*
X0151184Y0026790D01*
X0150760Y0027813D01*
X0149977Y0028597D01*
X0148954Y0029020D01*
X0147846Y0029020D01*
X0146823Y0028597D01*
X0146647Y0028420D01*
X0145080Y0028420D01*
X0144484Y0029017D01*
X0144484Y0030802D01*
X0144484Y0030139D02*
X0148848Y0030139D01*
X0150401Y0028172D02*
X0151285Y0028172D01*
X0151184Y0026205D02*
X0156865Y0026205D01*
X0156865Y0024238D02*
X0150340Y0024238D01*
X0148784Y0022271D02*
X0156865Y0022271D01*
X0156865Y0020304D02*
X0148784Y0020304D01*
X0147826Y0018337D02*
X0156865Y0018337D01*
X0156865Y0016370D02*
X0140984Y0016370D01*
X0140984Y0018337D02*
X0142974Y0018337D01*
X0142016Y0020304D02*
X0140984Y0020304D01*
X0140984Y0022271D02*
X0142016Y0022271D01*
X0142416Y0024238D02*
X0140984Y0024238D01*
X0140984Y0026205D02*
X0141966Y0026205D01*
X0145400Y0020304D02*
X0145400Y0020304D01*
X0145400Y0018337D02*
X0145400Y0018337D01*
X0160077Y0031040D02*
X0160797Y0032777D01*
X0160797Y0035396D01*
X0159794Y0037816D01*
X0157942Y0039668D01*
X0156051Y0040452D01*
X0156954Y0040452D01*
X0157977Y0040876D01*
X0158760Y0041659D01*
X0159184Y0042682D01*
X0159184Y0043790D01*
X0159146Y0043882D01*
X0159794Y0044530D01*
X0160797Y0046950D01*
X0160797Y0049570D01*
X0159794Y0051990D01*
X0157942Y0053842D01*
X0155522Y0054844D01*
X0152903Y0054844D01*
X0150483Y0053842D01*
X0148631Y0051990D01*
X0147914Y0050260D01*
X0147884Y0050289D01*
X0147884Y0055015D01*
X0151057Y0058188D01*
X0152903Y0057424D01*
X0155522Y0057424D01*
X0157942Y0058426D01*
X0159794Y0060278D01*
X0160797Y0062698D01*
X0160797Y0065318D01*
X0159794Y0067738D01*
X0157942Y0069590D01*
X0155522Y0070592D01*
X0153221Y0070592D01*
X0161900Y0079271D01*
X0164420Y0076752D01*
X0180347Y0076752D01*
X0187816Y0069283D01*
X0187816Y0066980D01*
X0188744Y0066052D01*
X0191447Y0066052D01*
X0191623Y0065876D01*
X0192646Y0065452D01*
X0193754Y0065452D01*
X0194777Y0065876D01*
X0195560Y0066659D01*
X0195984Y0067682D01*
X0195984Y0068790D01*
X0195560Y0069813D01*
X0194777Y0070597D01*
X0194056Y0070895D01*
X0194184Y0071375D01*
X0194184Y0073036D01*
X0190800Y0073036D01*
X0190800Y0073036D01*
X0194184Y0073036D01*
X0194184Y0074697D01*
X0194049Y0075202D01*
X0193788Y0075655D01*
X0193418Y0076024D01*
X0192966Y0076285D01*
X0192461Y0076420D01*
X0190800Y0076420D01*
X0190800Y0073036D01*
X0190800Y0076420D01*
X0189139Y0076420D01*
X0188634Y0076285D01*
X0188182Y0076024D01*
X0187812Y0075655D01*
X0187551Y0075202D01*
X0187482Y0074946D01*
X0181908Y0080520D01*
X0165980Y0080520D01*
X0164084Y0082417D01*
X0164084Y0084574D01*
X0164539Y0084452D01*
X0166200Y0084452D01*
X0167861Y0084452D01*
X0168366Y0084587D01*
X0168818Y0084848D01*
X0169188Y0085218D01*
X0169449Y0085670D01*
X0169584Y0086175D01*
X0169584Y0087836D01*
X0166200Y0087836D01*
X0166200Y0084452D01*
X0166200Y0087836D01*
X0166200Y0087836D01*
X0166200Y0087836D01*
X0169584Y0087836D01*
X0169584Y0089497D01*
X0169449Y0090002D01*
X0169188Y0090455D01*
X0168818Y0090824D01*
X0168366Y0091085D01*
X0167861Y0091220D01*
X0166200Y0091220D01*
X0164972Y0091220D01*
X0164560Y0092213D01*
X0164084Y0092689D01*
X0164084Y0094030D01*
X0164356Y0094302D01*
X0164462Y0094118D01*
X0164832Y0093748D01*
X0165284Y0093487D01*
X0165789Y0093352D01*
X0167650Y0093352D01*
X0169511Y0093352D01*
X0170016Y0093487D01*
X0170468Y0093748D01*
X0170838Y0094118D01*
X0171099Y0094570D01*
X0171234Y0095075D01*
X0171234Y0097436D01*
X0167650Y0097436D01*
X0167650Y0093352D01*
X0167650Y0097436D01*
X0167650Y0097436D01*
X0167650Y0097436D01*
X0171234Y0097436D01*
X0171234Y0099797D01*
X0171099Y0100302D01*
X0170838Y0100755D01*
X0170468Y0101124D01*
X0170016Y0101385D01*
X0169511Y0101520D01*
X0167650Y0101520D01*
X0166949Y0101520D01*
X0169876Y0104448D01*
X0169876Y0104022D01*
X0170300Y0102998D01*
X0171084Y0102215D01*
X0172107Y0101791D01*
X0173214Y0101791D01*
X0174238Y0102215D01*
X0175021Y0102998D01*
X0175445Y0104022D01*
X0175445Y0105129D01*
X0175141Y0105864D01*
X0177357Y0108080D01*
X0180605Y0111328D01*
X0181937Y0112660D01*
X0181937Y0109852D01*
X0183290Y0106585D01*
X0185791Y0104084D01*
X0189058Y0102731D01*
X0192595Y0102731D01*
X0195862Y0104084D01*
X0198363Y0106585D01*
X0199717Y0109852D01*
X0199717Y0113389D01*
X0198363Y0116656D01*
X0195862Y0119157D01*
X0192595Y0120510D01*
X0189787Y0120510D01*
X0202016Y0132739D01*
X0202016Y0103843D01*
X0202470Y0102746D01*
X0203310Y0101906D01*
X0204406Y0101452D01*
X0213016Y0101452D01*
X0213016Y0015420D01*
X0198017Y0015420D01*
X0198017Y0030288D01*
X0197264Y0031040D01*
X0160077Y0031040D01*
X0160519Y0032106D02*
X0213016Y0032106D01*
X0213016Y0030139D02*
X0198017Y0030139D01*
X0198017Y0028172D02*
X0213016Y0028172D01*
X0213016Y0026205D02*
X0198017Y0026205D01*
X0198017Y0024238D02*
X0213016Y0024238D01*
X0213016Y0022271D02*
X0198017Y0022271D01*
X0198017Y0020304D02*
X0213016Y0020304D01*
X0213016Y0018337D02*
X0198017Y0018337D01*
X0198017Y0016370D02*
X0213016Y0016370D01*
X0213016Y0034073D02*
X0160797Y0034073D01*
X0160530Y0036040D02*
X0213016Y0036040D01*
X0213016Y0038007D02*
X0159603Y0038007D01*
X0157204Y0039974D02*
X0213016Y0039974D01*
X0213016Y0041941D02*
X0158877Y0041941D01*
X0159173Y0043908D02*
X0213016Y0043908D01*
X0213016Y0045875D02*
X0160352Y0045875D01*
X0160797Y0047842D02*
X0213016Y0047842D01*
X0213016Y0049810D02*
X0160697Y0049810D01*
X0159883Y0051777D02*
X0213016Y0051777D01*
X0213016Y0053744D02*
X0158040Y0053744D01*
X0156135Y0057678D02*
X0213016Y0057678D01*
X0213016Y0059645D02*
X0159161Y0059645D01*
X0160347Y0061612D02*
X0213016Y0061612D01*
X0213016Y0063579D02*
X0160797Y0063579D01*
X0160702Y0065546D02*
X0192420Y0065546D01*
X0193980Y0065546D02*
X0213016Y0065546D01*
X0213016Y0067513D02*
X0195914Y0067513D01*
X0195699Y0069480D02*
X0213016Y0069480D01*
X0213016Y0071447D02*
X0194184Y0071447D01*
X0194184Y0073414D02*
X0213016Y0073414D01*
X0213016Y0075381D02*
X0193946Y0075381D01*
X0190800Y0075381D02*
X0190800Y0075381D01*
X0190800Y0073414D02*
X0190800Y0073414D01*
X0190800Y0073036D02*
X0190800Y0073036D01*
X0187654Y0075381D02*
X0187047Y0075381D01*
X0185080Y0077348D02*
X0213016Y0077348D01*
X0213016Y0079315D02*
X0183113Y0079315D01*
X0181718Y0075381D02*
X0158009Y0075381D01*
X0159976Y0077348D02*
X0163824Y0077348D01*
X0165219Y0081282D02*
X0213016Y0081282D01*
X0213016Y0083249D02*
X0164084Y0083249D01*
X0166200Y0085216D02*
X0166200Y0085216D01*
X0166200Y0087183D02*
X0166200Y0087183D01*
X0166200Y0087836D02*
X0166200Y0091220D01*
X0166200Y0087836D01*
X0166200Y0087836D01*
X0166200Y0089150D02*
X0166200Y0089150D01*
X0166200Y0091117D02*
X0166200Y0091117D01*
X0168248Y0091117D02*
X0213016Y0091117D01*
X0213016Y0093084D02*
X0164084Y0093084D01*
X0160316Y0093084D02*
X0140984Y0093084D01*
X0140984Y0095051D02*
X0158366Y0095051D01*
X0158366Y0097018D02*
X0140984Y0097018D01*
X0140984Y0098985D02*
X0158366Y0098985D01*
X0159125Y0100952D02*
X0140984Y0100952D01*
X0140984Y0102919D02*
X0163018Y0102919D01*
X0163200Y0103452D02*
X0163200Y0106836D01*
X0163200Y0106836D01*
X0163200Y0106836D01*
X0159816Y0106836D01*
X0159816Y0105175D01*
X0159951Y0104670D01*
X0160212Y0104218D01*
X0160582Y0103848D01*
X0161034Y0103587D01*
X0161539Y0103452D01*
X0163200Y0103452D01*
X0163200Y0104886D02*
X0163200Y0104886D01*
X0163200Y0106836D02*
X0163200Y0106836D01*
X0159816Y0106836D01*
X0159816Y0108497D01*
X0159820Y0108512D01*
X0159423Y0108676D01*
X0158640Y0109459D01*
X0158216Y0110482D01*
X0158216Y0111590D01*
X0158640Y0112613D01*
X0159423Y0113397D01*
X0160446Y0113820D01*
X0165256Y0113820D01*
X0166184Y0112892D01*
X0166184Y0109458D01*
X0166188Y0109455D01*
X0166449Y0109002D01*
X0166584Y0108497D01*
X0166584Y0106836D01*
X0163200Y0106836D01*
X0166584Y0106853D02*
X0166952Y0106853D01*
X0166498Y0108820D02*
X0167716Y0108820D01*
X0167716Y0110787D02*
X0166184Y0110787D01*
X0166184Y0112754D02*
X0167716Y0112754D01*
X0167716Y0114721D02*
X0140984Y0114721D01*
X0140984Y0112754D02*
X0158780Y0112754D01*
X0158216Y0110787D02*
X0140984Y0110787D01*
X0140984Y0108820D02*
X0159279Y0108820D01*
X0159816Y0106853D02*
X0140984Y0106853D01*
X0140984Y0104886D02*
X0159893Y0104886D01*
X0167650Y0101520D02*
X0167650Y0097436D01*
X0167650Y0097436D01*
X0167650Y0101520D01*
X0167650Y0100952D02*
X0167650Y0100952D01*
X0167650Y0098985D02*
X0167650Y0098985D01*
X0167650Y0097018D02*
X0167650Y0097018D01*
X0167650Y0095051D02*
X0167650Y0095051D01*
X0171228Y0095051D02*
X0213016Y0095051D01*
X0213016Y0097018D02*
X0171234Y0097018D01*
X0171234Y0098985D02*
X0213016Y0098985D01*
X0213016Y0100952D02*
X0170640Y0100952D01*
X0170380Y0102919D02*
X0168347Y0102919D01*
X0174942Y0102919D02*
X0188604Y0102919D01*
X0184989Y0104886D02*
X0175445Y0104886D01*
X0176130Y0106853D02*
X0183179Y0106853D01*
X0182365Y0108820D02*
X0178097Y0108820D01*
X0180064Y0110787D02*
X0181937Y0110787D01*
X0180605Y0111328D02*
X0180605Y0111328D01*
X0176600Y0123036D02*
X0173216Y0123036D01*
X0173216Y0122155D01*
X0172750Y0122620D01*
X0169450Y0122620D01*
X0168665Y0121836D01*
X0167984Y0122517D01*
X0167984Y0124892D01*
X0167846Y0125031D01*
X0167846Y0125193D01*
X0173349Y0125193D01*
X0173216Y0124697D01*
X0173216Y0123036D01*
X0176600Y0123036D01*
X0176600Y0123036D01*
X0173216Y0122589D02*
X0172782Y0122589D01*
X0173216Y0124556D02*
X0167984Y0124556D01*
X0167984Y0122589D02*
X0169418Y0122589D01*
X0169111Y0116688D02*
X0168317Y0116688D01*
X0161000Y0122836D02*
X0157616Y0122836D01*
X0157616Y0121720D01*
X0156180Y0121720D01*
X0150784Y0127117D01*
X0150784Y0127756D01*
X0151584Y0128556D01*
X0151958Y0128929D01*
X0153035Y0128929D01*
X0153035Y0126121D01*
X0153963Y0125193D01*
X0157861Y0125193D01*
X0157751Y0125002D01*
X0157616Y0124497D01*
X0157616Y0122836D01*
X0161000Y0122836D01*
X0161000Y0122836D01*
X0157616Y0122589D02*
X0155312Y0122589D01*
X0153345Y0124556D02*
X0157631Y0124556D01*
X0153035Y0126523D02*
X0151378Y0126523D01*
X0151519Y0128490D02*
X0153035Y0128490D01*
X0151584Y0128556D02*
X0151584Y0128556D01*
X0150011Y0133082D02*
X0148984Y0133082D01*
X0150011Y0133082D01*
X0150011Y0133082D01*
X0150011Y0133082D01*
X0148984Y0133082D02*
X0148984Y0133082D01*
X0145216Y0132424D02*
X0140033Y0132424D01*
X0140033Y0130457D02*
X0141239Y0130457D01*
X0140416Y0128490D02*
X0140033Y0128490D01*
X0140416Y0127436D02*
X0143800Y0127436D01*
X0143800Y0124052D01*
X0143800Y0127436D01*
X0143800Y0127436D01*
X0140416Y0127436D01*
X0140416Y0126523D02*
X0140033Y0126523D01*
X0140033Y0124556D02*
X0141074Y0124556D01*
X0140753Y0122589D02*
X0148741Y0122589D01*
X0147978Y0120622D02*
X0140984Y0120622D01*
X0140984Y0118655D02*
X0148844Y0118655D01*
X0152083Y0116688D02*
X0140984Y0116688D01*
X0143800Y0124556D02*
X0143800Y0124556D01*
X0143800Y0126523D02*
X0143800Y0126523D01*
X0143800Y0127436D02*
X0143800Y0127436D01*
X0143800Y0130820D01*
X0143800Y0127436D01*
X0143800Y0127436D01*
X0143800Y0128490D02*
X0143800Y0128490D01*
X0143800Y0130457D02*
X0143800Y0130457D01*
X0143400Y0133852D02*
X0143400Y0137236D01*
X0143400Y0137236D01*
X0143400Y0133852D01*
X0143400Y0134391D02*
X0143400Y0134391D01*
X0143400Y0136358D02*
X0143400Y0136358D01*
X0143400Y0137236D02*
X0143400Y0140620D01*
X0141739Y0140620D01*
X0141234Y0140485D01*
X0140782Y0140224D01*
X0140412Y0139855D01*
X0140151Y0139402D01*
X0140033Y0138962D01*
X0140033Y0143249D01*
X0140530Y0143746D01*
X0140984Y0144843D01*
X0140984Y0146787D01*
X0141620Y0146152D01*
X0142693Y0145079D01*
X0142693Y0142476D01*
X0143621Y0141548D01*
X0144616Y0141548D01*
X0144616Y0140620D01*
X0143400Y0140620D01*
X0143400Y0137236D01*
X0143400Y0137236D01*
X0143400Y0138325D02*
X0143400Y0138325D01*
X0143400Y0140292D02*
X0143400Y0140292D01*
X0142910Y0142259D02*
X0140033Y0142259D01*
X0140033Y0140292D02*
X0140900Y0140292D01*
X0140729Y0144226D02*
X0142693Y0144226D01*
X0141578Y0146193D02*
X0140984Y0146193D01*
X0140984Y0155085D02*
X0140984Y0240452D01*
X0146141Y0240452D01*
X0145878Y0240090D01*
X0145451Y0239252D01*
X0145161Y0238359D01*
X0145014Y0237431D01*
X0145014Y0237305D01*
X0150640Y0237305D01*
X0150640Y0236616D01*
X0151329Y0236616D01*
X0151329Y0237305D01*
X0156955Y0237305D01*
X0156955Y0237431D01*
X0156808Y0238359D01*
X0156517Y0239252D01*
X0156091Y0240090D01*
X0155828Y0240452D01*
X0167558Y0240452D01*
X0167295Y0240090D01*
X0166869Y0239252D01*
X0166578Y0238359D01*
X0166431Y0237431D01*
X0166431Y0237305D01*
X0172057Y0237305D01*
X0172057Y0236616D01*
X0172746Y0236616D01*
X0172746Y0230990D01*
X0172871Y0230990D01*
X0173800Y0231137D01*
X0174693Y0231428D01*
X0175531Y0231854D01*
X0176291Y0232407D01*
X0176956Y0233071D01*
X0177508Y0233831D01*
X0177935Y0234669D01*
X0178225Y0235563D01*
X0178372Y0236491D01*
X0178372Y0236616D01*
X0172746Y0236616D01*
X0172746Y0237305D01*
X0178372Y0237305D01*
X0178372Y0237431D01*
X0178225Y0238359D01*
X0177935Y0239252D01*
X0177508Y0240090D01*
X0177245Y0240452D01*
X0194210Y0240452D01*
X0193977Y0240132D01*
X0193596Y0239384D01*
X0193337Y0238586D01*
X0193206Y0237757D01*
X0193205Y0237338D01*
X0198536Y0237338D01*
X0198536Y0237338D01*
X0193206Y0237338D01*
X0193206Y0236918D01*
X0193337Y0236090D01*
X0193596Y0235292D01*
X0193977Y0234544D01*
X0194470Y0233865D01*
X0195063Y0233272D01*
X0195742Y0232779D01*
X0196490Y0232398D01*
X0197288Y0232138D01*
X0198117Y0232007D01*
X0198536Y0232007D01*
X0198536Y0237338D01*
X0203867Y0237338D01*
X0203867Y0237757D01*
X0203736Y0238586D01*
X0203476Y0239384D01*
X0203095Y0240132D01*
X0202863Y0240452D01*
X0234013Y0240452D01*
X0233780Y0240132D01*
X0233399Y0239384D01*
X0233140Y0238586D01*
X0233009Y0237757D01*
X0233009Y0237338D01*
X0238339Y0237338D01*
X0238339Y0237338D01*
X0233009Y0237338D01*
X0233009Y0236918D01*
X0233140Y0236090D01*
X0233399Y0235292D01*
X0233780Y0234544D01*
X0234273Y0233865D01*
X0234867Y0233272D01*
X0235545Y0232779D01*
X0236293Y0232398D01*
X0237091Y0232138D01*
X0237920Y0232007D01*
X0238339Y0232007D01*
X0238339Y0237338D01*
X0238339Y0237338D01*
X0243670Y0237338D01*
X0243670Y0237757D01*
X0243539Y0238586D01*
X0243280Y0239384D01*
X0242899Y0240132D01*
X0242666Y0240452D01*
X0248016Y0240452D01*
X0248016Y0211125D01*
X0247871Y0211270D01*
X0247173Y0211806D01*
X0246411Y0212245D01*
X0245599Y0212582D01*
X0244749Y0212810D01*
X0244028Y0212905D01*
X0244028Y0206806D01*
X0242847Y0206806D01*
X0242847Y0205625D01*
X0236749Y0205625D01*
X0236844Y0204904D01*
X0237072Y0204055D01*
X0237408Y0203242D01*
X0237848Y0202481D01*
X0238383Y0201783D01*
X0239005Y0201161D01*
X0239703Y0200626D01*
X0240464Y0200186D01*
X0241277Y0199849D01*
X0242126Y0199622D01*
X0242847Y0199527D01*
X0242847Y0205625D01*
X0244028Y0205625D01*
X0244028Y0199527D01*
X0244749Y0199622D01*
X0245599Y0199849D01*
X0246411Y0200186D01*
X0247173Y0200626D01*
X0247871Y0201161D01*
X0248016Y0201306D01*
X0248016Y0173722D01*
X0245862Y0175875D01*
X0242595Y0177228D01*
X0239058Y0177228D01*
X0235791Y0175875D01*
X0233290Y0173374D01*
X0231937Y0170107D01*
X0231937Y0166570D01*
X0233290Y0163303D01*
X0235791Y0160802D01*
X0236713Y0160420D01*
X0204406Y0160420D01*
X0203310Y0159966D01*
X0202470Y0159127D01*
X0202016Y0158030D01*
X0202016Y0154934D01*
X0201580Y0155369D01*
X0198629Y0158320D01*
X0194598Y0158320D01*
X0196380Y0160103D01*
X0197484Y0161207D01*
X0197484Y0169702D01*
X0198800Y0169702D01*
X0200261Y0169702D01*
X0200766Y0169837D01*
X0201218Y0170098D01*
X0201588Y0170468D01*
X0201849Y0170920D01*
X0201984Y0171425D01*
X0201984Y0172786D01*
X0198800Y0172786D01*
X0198800Y0169702D01*
X0198800Y0172786D01*
X0198800Y0172786D01*
X0198800Y0172786D01*
X0201984Y0172786D01*
X0201984Y0174147D01*
X0201849Y0174652D01*
X0201588Y0175105D01*
X0201573Y0175119D01*
X0201584Y0175130D01*
X0201584Y0178642D01*
X0200656Y0179570D01*
X0199935Y0179570D01*
X0200418Y0180053D01*
X0200938Y0181309D01*
X0201458Y0180053D01*
X0202945Y0178567D01*
X0204887Y0177762D01*
X0206989Y0177762D01*
X0208931Y0178567D01*
X0210418Y0180053D01*
X0210938Y0181309D01*
X0211458Y0180053D01*
X0212945Y0178567D01*
X0214887Y0177762D01*
X0216989Y0177762D01*
X0218931Y0178567D01*
X0220418Y0180053D01*
X0220938Y0181309D01*
X0221458Y0180053D01*
X0222945Y0178567D01*
X0224887Y0177762D01*
X0226989Y0177762D01*
X0228931Y0178567D01*
X0230418Y0180053D01*
X0231222Y0181995D01*
X0231222Y0184098D01*
X0230418Y0186040D01*
X0228931Y0187526D01*
X0226989Y0188331D01*
X0224887Y0188331D01*
X0222945Y0187526D01*
X0221458Y0186040D01*
X0220938Y0184784D01*
X0220418Y0186040D01*
X0218931Y0187526D01*
X0216989Y0188331D01*
X0214887Y0188331D01*
X0212945Y0187526D01*
X0211458Y0186040D01*
X0210938Y0184784D01*
X0210418Y0186040D01*
X0208931Y0187526D01*
X0206989Y0188331D01*
X0204887Y0188331D01*
X0202945Y0187526D01*
X0201458Y0186040D01*
X0200938Y0184784D01*
X0200418Y0186040D01*
X0198931Y0187526D01*
X0198331Y0187775D01*
X0198778Y0188222D01*
X0199887Y0187762D01*
X0201989Y0187762D01*
X0203931Y0188567D01*
X0205418Y0190053D01*
X0205938Y0191309D01*
X0206458Y0190053D01*
X0207945Y0188567D01*
X0209887Y0187762D01*
X0211989Y0187762D01*
X0213931Y0188567D01*
X0215418Y0190053D01*
X0215938Y0191309D01*
X0216458Y0190053D01*
X0217945Y0188567D01*
X0219887Y0187762D01*
X0221989Y0187762D01*
X0223931Y0188567D01*
X0225418Y0190053D01*
X0225938Y0191309D01*
X0226458Y0190053D01*
X0227945Y0188567D01*
X0229887Y0187762D01*
X0231989Y0187762D01*
X0233931Y0188567D01*
X0235418Y0190053D01*
X0236222Y0191995D01*
X0236222Y0194098D01*
X0235418Y0196040D01*
X0233931Y0197526D01*
X0231989Y0198331D01*
X0229887Y0198331D01*
X0227945Y0197526D01*
X0226458Y0196040D01*
X0225938Y0194784D01*
X0225418Y0196040D01*
X0223931Y0197526D01*
X0222028Y0198314D01*
X0222177Y0198376D01*
X0222960Y0199159D01*
X0223177Y0199682D01*
X0223289Y0199652D01*
X0224650Y0199652D01*
X0226011Y0199652D01*
X0226516Y0199787D01*
X0226968Y0200048D01*
X0227338Y0200418D01*
X0227599Y0200870D01*
X0227734Y0201375D01*
X0227734Y0202836D01*
X0224650Y0202836D01*
X0224650Y0199652D01*
X0224650Y0202836D01*
X0224650Y0202836D01*
X0224650Y0202836D01*
X0227734Y0202836D01*
X0227734Y0204297D01*
X0227599Y0204802D01*
X0227338Y0205255D01*
X0226968Y0205624D01*
X0226516Y0205885D01*
X0226011Y0206020D01*
X0224650Y0206020D01*
X0223289Y0206020D01*
X0222784Y0205885D01*
X0222332Y0205624D01*
X0222317Y0205610D01*
X0222306Y0205620D01*
X0219684Y0205620D01*
X0219649Y0205752D01*
X0219388Y0206205D01*
X0219018Y0206574D01*
X0218566Y0206835D01*
X0218061Y0206970D01*
X0216600Y0206970D01*
X0215139Y0206970D01*
X0214634Y0206835D01*
X0214182Y0206574D01*
X0213812Y0206205D01*
X0213551Y0205752D01*
X0213416Y0205247D01*
X0213416Y0203886D01*
X0213416Y0202525D01*
X0213551Y0202020D01*
X0213812Y0201568D01*
X0213827Y0201553D01*
X0213816Y0201542D01*
X0213816Y0197574D01*
X0211989Y0198331D01*
X0209887Y0198331D01*
X0207945Y0197526D01*
X0206458Y0196040D01*
X0205938Y0194784D01*
X0205418Y0196040D01*
X0203931Y0197526D01*
X0201989Y0198331D01*
X0199887Y0198331D01*
X0197945Y0197526D01*
X0196784Y0196366D01*
X0196784Y0197086D01*
X0193600Y0197086D01*
X0193600Y0197086D01*
X0190416Y0197086D01*
X0190416Y0196534D01*
X0187933Y0199017D01*
X0186829Y0200120D01*
X0186410Y0200120D01*
X0186569Y0200186D01*
X0187330Y0200626D01*
X0188028Y0201161D01*
X0188650Y0201783D01*
X0189185Y0202481D01*
X0189625Y0203242D01*
X0189962Y0204055D01*
X0190189Y0204904D01*
X0190284Y0205625D01*
X0184186Y0205625D01*
X0184186Y0206806D01*
X0190284Y0206806D01*
X0190189Y0207527D01*
X0189962Y0208377D01*
X0189802Y0208763D01*
X0192784Y0208763D01*
X0196196Y0210176D01*
X0198808Y0212788D01*
X0200221Y0216200D01*
X0200221Y0219893D01*
X0198808Y0223305D01*
X0196196Y0225917D01*
X0192784Y0227330D01*
X0191486Y0227330D01*
X0192716Y0228561D01*
X0193467Y0230373D01*
X0193467Y0232334D01*
X0192716Y0234147D01*
X0191329Y0235534D01*
X0189517Y0236284D01*
X0187555Y0236284D01*
X0185743Y0235534D01*
X0184356Y0234147D01*
X0183606Y0232334D01*
X0183606Y0230373D01*
X0184356Y0228561D01*
X0185743Y0227173D01*
X0187228Y0226558D01*
X0185679Y0225917D01*
X0183068Y0223305D01*
X0181654Y0219893D01*
X0181654Y0216200D01*
X0183068Y0212788D01*
X0184186Y0211670D01*
X0184186Y0206806D01*
X0183005Y0206806D01*
X0183005Y0212905D01*
X0182284Y0212810D01*
X0181434Y0212582D01*
X0180622Y0212245D01*
X0179860Y0211806D01*
X0179162Y0211270D01*
X0178541Y0210649D01*
X0178299Y0210333D01*
X0178225Y0210800D01*
X0177935Y0211693D01*
X0177508Y0212531D01*
X0176956Y0213291D01*
X0176291Y0213956D01*
X0175531Y0214508D01*
X0174693Y0214935D01*
X0173800Y0215225D01*
X0172871Y0215372D01*
X0172746Y0215372D01*
X0172746Y0209746D01*
X0172057Y0209746D01*
X0172057Y0209057D01*
X0166431Y0209057D01*
X0166431Y0208932D01*
X0166578Y0208003D01*
X0166869Y0207110D01*
X0167295Y0206272D01*
X0167696Y0205720D01*
X0163069Y0205720D01*
X0163588Y0205889D01*
X0164280Y0206242D01*
X0164909Y0206699D01*
X0165459Y0207248D01*
X0165915Y0207877D01*
X0166268Y0208569D01*
X0166508Y0209308D01*
X0166578Y0209746D01*
X0172057Y0209746D01*
X0172057Y0215372D01*
X0171932Y0215372D01*
X0171003Y0215225D01*
X0170110Y0214935D01*
X0169272Y0214508D01*
X0168512Y0213956D01*
X0167848Y0213291D01*
X0167295Y0212531D01*
X0166869Y0211693D01*
X0166619Y0210924D01*
X0166508Y0211621D01*
X0166268Y0212360D01*
X0165915Y0213052D01*
X0165459Y0213681D01*
X0164909Y0214230D01*
X0164383Y0214612D01*
X0165539Y0215769D01*
X0166230Y0217436D01*
X0166230Y0219241D01*
X0165539Y0220909D01*
X0164263Y0222185D01*
X0164044Y0222276D01*
X0164263Y0222366D01*
X0165539Y0223643D01*
X0166230Y0225310D01*
X0166230Y0227115D01*
X0165539Y0228783D01*
X0164263Y0230059D01*
X0164044Y0230150D01*
X0164263Y0230240D01*
X0165539Y0231517D01*
X0166230Y0233184D01*
X0166230Y0234989D01*
X0165539Y0236657D01*
X0164263Y0237933D01*
X0162595Y0238624D01*
X0160790Y0238624D01*
X0159123Y0237933D01*
X0157847Y0236657D01*
X0157156Y0234989D01*
X0157156Y0233184D01*
X0157354Y0232705D01*
X0155520Y0230870D01*
X0152094Y0230870D01*
X0151166Y0229942D01*
X0151166Y0227067D01*
X0150834Y0226735D01*
X0150834Y0226836D01*
X0147450Y0226836D01*
X0147450Y0226836D01*
X0144066Y0226836D01*
X0144066Y0224125D01*
X0144201Y0223620D01*
X0144462Y0223168D01*
X0144832Y0222798D01*
X0145284Y0222537D01*
X0145789Y0222402D01*
X0146501Y0222402D01*
X0143420Y0219320D01*
X0142316Y0218217D01*
X0142316Y0194486D01*
X0143420Y0193382D01*
X0147216Y0189586D01*
X0147216Y0173620D01*
X0146800Y0173620D01*
X0146800Y0170236D01*
X0143416Y0170236D01*
X0143416Y0168575D01*
X0143551Y0168070D01*
X0143812Y0167618D01*
X0143816Y0167614D01*
X0143816Y0164180D01*
X0144313Y0163683D01*
X0144151Y0163402D01*
X0144016Y0162897D01*
X0144016Y0161236D01*
X0144016Y0159575D01*
X0144151Y0159070D01*
X0144412Y0158618D01*
X0144416Y0158614D01*
X0144416Y0158517D01*
X0140984Y0155085D01*
X0140984Y0156028D02*
X0141927Y0156028D01*
X0140984Y0157995D02*
X0143894Y0157995D01*
X0144016Y0159962D02*
X0140984Y0159962D01*
X0140984Y0161929D02*
X0144016Y0161929D01*
X0144016Y0161236D02*
X0147400Y0161236D01*
X0144016Y0161236D01*
X0144099Y0163896D02*
X0140984Y0163896D01*
X0140984Y0165863D02*
X0143816Y0165863D01*
X0143689Y0167830D02*
X0140984Y0167830D01*
X0140984Y0169797D02*
X0143416Y0169797D01*
X0143416Y0170236D02*
X0146800Y0170236D01*
X0146800Y0170236D01*
X0146800Y0173620D01*
X0145139Y0173620D01*
X0144634Y0173485D01*
X0144182Y0173224D01*
X0143812Y0172855D01*
X0143551Y0172402D01*
X0143416Y0171897D01*
X0143416Y0170236D01*
X0143416Y0171764D02*
X0140984Y0171764D01*
X0140984Y0173731D02*
X0147216Y0173731D01*
X0147216Y0175698D02*
X0140984Y0175698D01*
X0140984Y0177666D02*
X0147216Y0177666D01*
X0147216Y0179633D02*
X0140984Y0179633D01*
X0140984Y0181600D02*
X0147216Y0181600D01*
X0147216Y0183567D02*
X0140984Y0183567D01*
X0140984Y0185534D02*
X0147216Y0185534D01*
X0147216Y0187501D02*
X0140984Y0187501D01*
X0140984Y0189468D02*
X0147216Y0189468D01*
X0145367Y0191435D02*
X0140984Y0191435D01*
X0140984Y0193402D02*
X0143400Y0193402D01*
X0142316Y0195369D02*
X0140984Y0195369D01*
X0140984Y0197336D02*
X0142316Y0197336D01*
X0142316Y0199303D02*
X0140984Y0199303D01*
X0140984Y0201270D02*
X0142316Y0201270D01*
X0142316Y0203237D02*
X0140984Y0203237D01*
X0140984Y0205204D02*
X0142316Y0205204D01*
X0142316Y0207171D02*
X0140984Y0207171D01*
X0140984Y0209138D02*
X0142316Y0209138D01*
X0142316Y0211105D02*
X0140984Y0211105D01*
X0140984Y0213072D02*
X0142316Y0213072D01*
X0142316Y0215039D02*
X0140984Y0215039D01*
X0140984Y0217006D02*
X0142316Y0217006D01*
X0143072Y0218973D02*
X0140984Y0218973D01*
X0140984Y0220940D02*
X0145039Y0220940D01*
X0144723Y0222907D02*
X0140984Y0222907D01*
X0140984Y0224874D02*
X0144066Y0224874D01*
X0144066Y0226836D02*
X0147450Y0226836D01*
X0147450Y0226836D01*
X0150834Y0226836D01*
X0150834Y0229547D01*
X0150699Y0230052D01*
X0150438Y0230505D01*
X0150068Y0230874D01*
X0149622Y0231131D01*
X0150514Y0230990D01*
X0150640Y0230990D01*
X0150640Y0236616D01*
X0145014Y0236616D01*
X0145014Y0236491D01*
X0145161Y0235563D01*
X0145451Y0234669D01*
X0145878Y0233831D01*
X0146430Y0233071D01*
X0147095Y0232407D01*
X0147855Y0231854D01*
X0148692Y0231428D01*
X0149480Y0231172D01*
X0149111Y0231270D01*
X0147450Y0231270D01*
X0147450Y0226836D01*
X0147450Y0231270D01*
X0145789Y0231270D01*
X0145284Y0231135D01*
X0144832Y0230874D01*
X0144462Y0230505D01*
X0144201Y0230052D01*
X0144066Y0229547D01*
X0144066Y0226836D01*
X0144066Y0226841D02*
X0140984Y0226841D01*
X0140984Y0228808D02*
X0144066Y0228808D01*
X0144733Y0230775D02*
X0140984Y0230775D01*
X0140984Y0232742D02*
X0146759Y0232742D01*
X0147450Y0230775D02*
X0147450Y0230775D01*
X0147450Y0228808D02*
X0147450Y0228808D01*
X0147450Y0226841D02*
X0147450Y0226841D01*
X0147450Y0226836D02*
X0147450Y0226836D01*
X0150834Y0226841D02*
X0150940Y0226841D01*
X0150834Y0228808D02*
X0151166Y0228808D01*
X0151998Y0230775D02*
X0150167Y0230775D01*
X0151329Y0230990D02*
X0151454Y0230990D01*
X0152382Y0231137D01*
X0153276Y0231428D01*
X0154113Y0231854D01*
X0154874Y0232407D01*
X0155538Y0233071D01*
X0156091Y0233831D01*
X0156517Y0234669D01*
X0156808Y0235563D01*
X0156955Y0236491D01*
X0156955Y0236616D01*
X0151329Y0236616D01*
X0151329Y0230990D01*
X0151329Y0232742D02*
X0150640Y0232742D01*
X0150640Y0234709D02*
X0151329Y0234709D01*
X0151329Y0236676D02*
X0157866Y0236676D01*
X0157156Y0234709D02*
X0156530Y0234709D01*
X0157339Y0232742D02*
X0155209Y0232742D01*
X0150640Y0236676D02*
X0140984Y0236676D01*
X0140984Y0238643D02*
X0145253Y0238643D01*
X0145438Y0234709D02*
X0140984Y0234709D01*
X0152230Y0222802D02*
X0146084Y0216656D01*
X0146084Y0212815D01*
X0146430Y0213291D01*
X0147095Y0213956D01*
X0147855Y0214508D01*
X0148692Y0214935D01*
X0149586Y0215225D01*
X0150514Y0215372D01*
X0150640Y0215372D01*
X0150640Y0209746D01*
X0151329Y0209746D01*
X0151329Y0215372D01*
X0151454Y0215372D01*
X0152382Y0215225D01*
X0153276Y0214935D01*
X0154113Y0214508D01*
X0154316Y0214361D01*
X0154316Y0222065D01*
X0155052Y0222802D01*
X0152230Y0222802D01*
X0150368Y0220940D02*
X0154316Y0220940D01*
X0154316Y0218973D02*
X0148401Y0218973D01*
X0146434Y0217006D02*
X0154316Y0217006D01*
X0154316Y0215039D02*
X0152956Y0215039D01*
X0151329Y0215039D02*
X0150640Y0215039D01*
X0149013Y0215039D02*
X0146084Y0215039D01*
X0146084Y0213072D02*
X0146271Y0213072D01*
X0150640Y0213072D02*
X0151329Y0213072D01*
X0151329Y0211105D02*
X0150640Y0211105D01*
X0150640Y0209057D02*
X0151329Y0209057D01*
X0151329Y0203431D01*
X0151454Y0203431D01*
X0152382Y0203578D01*
X0153276Y0203869D01*
X0154113Y0204295D01*
X0154874Y0204848D01*
X0155275Y0205248D01*
X0155420Y0205103D01*
X0159771Y0200752D01*
X0162761Y0200752D01*
X0161393Y0199384D01*
X0160039Y0196116D01*
X0160039Y0195262D01*
X0158580Y0196720D01*
X0155220Y0196720D01*
X0154220Y0195720D01*
X0153116Y0194617D01*
X0153116Y0178420D01*
X0153000Y0178420D01*
X0153000Y0175036D01*
X0153000Y0178420D01*
X0151339Y0178420D01*
X0150984Y0178325D01*
X0150984Y0191147D01*
X0149880Y0192251D01*
X0146084Y0196047D01*
X0146084Y0205988D01*
X0146430Y0205512D01*
X0147095Y0204848D01*
X0147855Y0204295D01*
X0148692Y0203869D01*
X0149586Y0203578D01*
X0150514Y0203431D01*
X0150640Y0203431D01*
X0150640Y0209057D01*
X0150640Y0207171D02*
X0151329Y0207171D01*
X0151329Y0205204D02*
X0150640Y0205204D01*
X0146739Y0205204D02*
X0146084Y0205204D01*
X0146084Y0203237D02*
X0157286Y0203237D01*
X0155319Y0205204D02*
X0155230Y0205204D01*
X0159253Y0201270D02*
X0146084Y0201270D01*
X0146084Y0199303D02*
X0161359Y0199303D01*
X0160544Y0197336D02*
X0146084Y0197336D01*
X0146762Y0195369D02*
X0153868Y0195369D01*
X0153116Y0193402D02*
X0148729Y0193402D01*
X0150696Y0191435D02*
X0153116Y0191435D01*
X0153116Y0189468D02*
X0150984Y0189468D01*
X0150984Y0187501D02*
X0153116Y0187501D01*
X0153116Y0185534D02*
X0150984Y0185534D01*
X0150984Y0183567D02*
X0153116Y0183567D01*
X0153116Y0181600D02*
X0150984Y0181600D01*
X0150984Y0179633D02*
X0153116Y0179633D01*
X0153000Y0177666D02*
X0153000Y0177666D01*
X0153000Y0175698D02*
X0153000Y0175698D01*
X0153000Y0175036D02*
X0153000Y0175036D01*
X0158584Y0176420D02*
X0158584Y0178552D01*
X0159156Y0178552D01*
X0160084Y0179480D01*
X0160084Y0181132D01*
X0161629Y0179588D01*
X0161629Y0179348D01*
X0160520Y0178239D01*
X0159416Y0177135D01*
X0159416Y0176420D01*
X0159000Y0176420D01*
X0159000Y0173036D01*
X0159000Y0176420D01*
X0158584Y0176420D01*
X0159000Y0175698D02*
X0159000Y0175698D01*
X0159000Y0173731D02*
X0159000Y0173731D01*
X0159000Y0173036D02*
X0159000Y0173036D01*
X0158584Y0177666D02*
X0159946Y0177666D01*
X0160084Y0179633D02*
X0161584Y0179633D01*
X0157200Y0185436D02*
X0157200Y0185436D01*
X0157200Y0188720D01*
X0158316Y0188720D01*
X0158316Y0191656D01*
X0157020Y0192952D01*
X0156884Y0192952D01*
X0156884Y0188720D01*
X0157200Y0188720D01*
X0157200Y0185436D01*
X0157200Y0185534D02*
X0157200Y0185534D01*
X0157200Y0187501D02*
X0157200Y0187501D01*
X0156884Y0189468D02*
X0158316Y0189468D01*
X0158316Y0191435D02*
X0156884Y0191435D01*
X0159932Y0195369D02*
X0160039Y0195369D01*
X0165381Y0207171D02*
X0166849Y0207171D01*
X0166453Y0209138D02*
X0172057Y0209138D01*
X0172057Y0211105D02*
X0172746Y0211105D01*
X0172746Y0213072D02*
X0172057Y0213072D01*
X0172057Y0215039D02*
X0172746Y0215039D01*
X0174373Y0215039D02*
X0182135Y0215039D01*
X0181654Y0217006D02*
X0166052Y0217006D01*
X0166230Y0218973D02*
X0181654Y0218973D01*
X0182088Y0220940D02*
X0165508Y0220940D01*
X0164803Y0222907D02*
X0182903Y0222907D01*
X0184636Y0224874D02*
X0166049Y0224874D01*
X0166230Y0226841D02*
X0186546Y0226841D01*
X0184254Y0228808D02*
X0165514Y0228808D01*
X0164798Y0230775D02*
X0183606Y0230775D01*
X0183774Y0232742D02*
X0176626Y0232742D01*
X0177948Y0234709D02*
X0184919Y0234709D01*
X0192154Y0234709D02*
X0193893Y0234709D01*
X0193298Y0232742D02*
X0195814Y0232742D01*
X0198536Y0232742D02*
X0198536Y0232742D01*
X0198536Y0232007D02*
X0198956Y0232007D01*
X0199784Y0232138D01*
X0200582Y0232398D01*
X0201330Y0232779D01*
X0202009Y0233272D01*
X0202602Y0233865D01*
X0203095Y0234544D01*
X0203476Y0235292D01*
X0203736Y0236090D01*
X0203867Y0236918D01*
X0203867Y0237338D01*
X0198536Y0237338D01*
X0198536Y0237338D01*
X0198536Y0237338D01*
X0198536Y0232007D01*
X0198536Y0234709D02*
X0198536Y0234709D01*
X0198536Y0236676D02*
X0198536Y0236676D01*
X0201258Y0232742D02*
X0223577Y0232742D01*
X0223409Y0232334D02*
X0223409Y0230373D01*
X0224159Y0228561D01*
X0225546Y0227173D01*
X0227359Y0226423D01*
X0229320Y0226423D01*
X0231132Y0227173D01*
X0232519Y0228561D01*
X0233270Y0230373D01*
X0233270Y0232334D01*
X0232519Y0234147D01*
X0231132Y0235534D01*
X0229320Y0236284D01*
X0227359Y0236284D01*
X0225546Y0235534D01*
X0224159Y0234147D01*
X0223409Y0232334D01*
X0223409Y0230775D02*
X0193467Y0230775D01*
X0192819Y0228808D02*
X0224057Y0228808D01*
X0226349Y0226841D02*
X0193965Y0226841D01*
X0197239Y0224874D02*
X0229636Y0224874D01*
X0230679Y0225917D02*
X0228068Y0223305D01*
X0226654Y0219893D01*
X0226654Y0216200D01*
X0228068Y0212788D01*
X0230679Y0210176D01*
X0234091Y0208763D01*
X0237232Y0208763D01*
X0237072Y0208377D01*
X0236844Y0207527D01*
X0236749Y0206806D01*
X0242847Y0206806D01*
X0242847Y0211827D01*
X0243808Y0212788D01*
X0245221Y0216200D01*
X0245221Y0219893D01*
X0243808Y0223305D01*
X0241196Y0225917D01*
X0237784Y0227330D01*
X0234091Y0227330D01*
X0230679Y0225917D01*
X0230329Y0226841D02*
X0232911Y0226841D01*
X0232622Y0228808D02*
X0248016Y0228808D01*
X0248016Y0230775D02*
X0233270Y0230775D01*
X0233101Y0232742D02*
X0235617Y0232742D01*
X0238339Y0232742D02*
X0238339Y0232742D01*
X0238339Y0232007D02*
X0238759Y0232007D01*
X0239588Y0232138D01*
X0240386Y0232398D01*
X0241133Y0232779D01*
X0241812Y0233272D01*
X0242405Y0233865D01*
X0242899Y0234544D01*
X0243280Y0235292D01*
X0243539Y0236090D01*
X0243670Y0236918D01*
X0243670Y0237338D01*
X0238339Y0237338D01*
X0238339Y0237338D01*
X0238339Y0232007D01*
X0238339Y0234709D02*
X0238339Y0234709D01*
X0238339Y0236676D02*
X0238339Y0236676D01*
X0241061Y0232742D02*
X0248016Y0232742D01*
X0248016Y0234709D02*
X0242983Y0234709D01*
X0243632Y0236676D02*
X0248016Y0236676D01*
X0248016Y0238643D02*
X0243520Y0238643D01*
X0233158Y0238643D02*
X0203717Y0238643D01*
X0203829Y0236676D02*
X0233047Y0236676D01*
X0233696Y0234709D02*
X0231957Y0234709D01*
X0224722Y0234709D02*
X0203180Y0234709D01*
X0193244Y0236676D02*
X0172746Y0236676D01*
X0172057Y0236676D02*
X0165520Y0236676D01*
X0166431Y0236616D02*
X0166431Y0236491D01*
X0166578Y0235563D01*
X0166869Y0234669D01*
X0167295Y0233831D01*
X0167848Y0233071D01*
X0168512Y0232407D01*
X0169272Y0231854D01*
X0170110Y0231428D01*
X0171003Y0231137D01*
X0171932Y0230990D01*
X0172057Y0230990D01*
X0172057Y0236616D01*
X0166431Y0236616D01*
X0166230Y0234709D02*
X0166855Y0234709D01*
X0166047Y0232742D02*
X0168177Y0232742D01*
X0172057Y0232742D02*
X0172746Y0232742D01*
X0172746Y0234709D02*
X0172057Y0234709D01*
X0178133Y0238643D02*
X0193355Y0238643D01*
X0198973Y0222907D02*
X0227903Y0222907D01*
X0227088Y0220940D02*
X0199788Y0220940D01*
X0200221Y0218973D02*
X0226654Y0218973D01*
X0226654Y0217006D02*
X0200221Y0217006D01*
X0199740Y0215039D02*
X0227135Y0215039D01*
X0227950Y0213072D02*
X0198926Y0213072D01*
X0197125Y0211105D02*
X0229751Y0211105D01*
X0233186Y0209138D02*
X0193689Y0209138D01*
X0190236Y0207171D02*
X0236797Y0207171D01*
X0236804Y0205204D02*
X0227367Y0205204D01*
X0227734Y0203237D02*
X0237411Y0203237D01*
X0238896Y0201270D02*
X0227706Y0201270D01*
X0224650Y0201270D02*
X0224650Y0201270D01*
X0224650Y0202836D02*
X0224650Y0206020D01*
X0224650Y0202836D01*
X0224650Y0202836D01*
X0224650Y0203237D02*
X0224650Y0203237D01*
X0224650Y0205204D02*
X0224650Y0205204D01*
X0223020Y0199303D02*
X0248016Y0199303D01*
X0247979Y0201270D02*
X0248016Y0201270D01*
X0248016Y0197336D02*
X0234122Y0197336D01*
X0235696Y0195369D02*
X0248016Y0195369D01*
X0248016Y0193402D02*
X0236222Y0193402D01*
X0235990Y0191435D02*
X0248016Y0191435D01*
X0248016Y0189468D02*
X0234832Y0189468D01*
X0230627Y0185534D02*
X0248016Y0185534D01*
X0248016Y0187501D02*
X0228957Y0187501D01*
X0227044Y0189468D02*
X0224832Y0189468D01*
X0222919Y0187501D02*
X0218957Y0187501D01*
X0220627Y0185534D02*
X0221248Y0185534D01*
X0217044Y0189468D02*
X0214832Y0189468D01*
X0212919Y0187501D02*
X0208957Y0187501D01*
X0210627Y0185534D02*
X0211248Y0185534D01*
X0207044Y0189468D02*
X0204832Y0189468D01*
X0202919Y0187501D02*
X0198957Y0187501D01*
X0200627Y0185534D02*
X0201248Y0185534D01*
X0201879Y0179633D02*
X0199997Y0179633D01*
X0201584Y0177666D02*
X0248016Y0177666D01*
X0248016Y0179633D02*
X0229997Y0179633D01*
X0231058Y0181600D02*
X0248016Y0181600D01*
X0248016Y0183567D02*
X0231222Y0183567D01*
X0235615Y0175698D02*
X0201584Y0175698D01*
X0201984Y0173731D02*
X0233648Y0173731D01*
X0232624Y0171764D02*
X0201984Y0171764D01*
X0200618Y0169797D02*
X0231937Y0169797D01*
X0231937Y0167830D02*
X0197484Y0167830D01*
X0197484Y0165863D02*
X0232230Y0165863D01*
X0233045Y0163896D02*
X0197484Y0163896D01*
X0197484Y0161929D02*
X0234664Y0161929D01*
X0246039Y0175698D02*
X0248016Y0175698D01*
X0248006Y0173731D02*
X0248016Y0173731D01*
X0227754Y0197336D02*
X0224122Y0197336D01*
X0225696Y0195369D02*
X0226180Y0195369D01*
X0216600Y0203886D02*
X0216600Y0203886D01*
X0213416Y0203886D01*
X0216600Y0203886D01*
X0216600Y0203886D01*
X0216600Y0206970D01*
X0216600Y0203886D01*
X0216600Y0205204D02*
X0216600Y0205204D01*
X0213416Y0205204D02*
X0190229Y0205204D01*
X0189622Y0203237D02*
X0213416Y0203237D01*
X0213816Y0201270D02*
X0188137Y0201270D01*
X0187647Y0199303D02*
X0190753Y0199303D01*
X0190812Y0199405D02*
X0190551Y0198952D01*
X0190416Y0198447D01*
X0190416Y0197086D01*
X0193600Y0197086D01*
X0193600Y0197086D01*
X0196784Y0197086D01*
X0196784Y0198447D01*
X0196649Y0198952D01*
X0196388Y0199405D01*
X0196018Y0199774D01*
X0195566Y0200035D01*
X0195061Y0200170D01*
X0193600Y0200170D01*
X0192139Y0200170D01*
X0191634Y0200035D01*
X0191182Y0199774D01*
X0190812Y0199405D01*
X0190416Y0197336D02*
X0189614Y0197336D01*
X0193600Y0197336D02*
X0193600Y0197336D01*
X0193600Y0197086D02*
X0193600Y0200170D01*
X0193600Y0197086D01*
X0193600Y0197086D01*
X0193600Y0199303D02*
X0193600Y0199303D01*
X0196447Y0199303D02*
X0213816Y0199303D01*
X0207754Y0197336D02*
X0204122Y0197336D01*
X0205696Y0195369D02*
X0206180Y0195369D01*
X0197754Y0197336D02*
X0196784Y0197336D01*
X0184186Y0207171D02*
X0183005Y0207171D01*
X0183005Y0209138D02*
X0184186Y0209138D01*
X0184186Y0211105D02*
X0183005Y0211105D01*
X0182950Y0213072D02*
X0177115Y0213072D01*
X0178126Y0211105D02*
X0178997Y0211105D01*
X0170430Y0215039D02*
X0164809Y0215039D01*
X0165901Y0213072D02*
X0167688Y0213072D01*
X0166677Y0211105D02*
X0166590Y0211105D01*
X0166670Y0238643D02*
X0156715Y0238643D01*
X0209997Y0179633D02*
X0211879Y0179633D01*
X0219997Y0179633D02*
X0221879Y0179633D01*
X0203306Y0159962D02*
X0196239Y0159962D01*
X0198954Y0157995D02*
X0202016Y0157995D01*
X0202016Y0156028D02*
X0200921Y0156028D01*
X0197716Y0152207D02*
X0197716Y0144199D01*
X0197566Y0144285D01*
X0197061Y0144420D01*
X0195400Y0144420D01*
X0193739Y0144420D01*
X0193667Y0144401D01*
X0193667Y0144790D01*
X0193243Y0145813D01*
X0192460Y0146597D01*
X0191436Y0147020D01*
X0190667Y0147020D01*
X0190667Y0150087D01*
X0191118Y0150087D01*
X0192142Y0150511D01*
X0192925Y0151295D01*
X0193349Y0152318D01*
X0193349Y0153352D01*
X0196571Y0153352D01*
X0197716Y0152207D01*
X0197716Y0152094D02*
X0193256Y0152094D01*
X0191215Y0150127D02*
X0197716Y0150127D01*
X0197716Y0148160D02*
X0190667Y0148160D01*
X0192863Y0146193D02*
X0197716Y0146193D01*
X0197668Y0144226D02*
X0197716Y0144226D01*
X0195400Y0144226D02*
X0195400Y0144226D01*
X0195400Y0144420D02*
X0195400Y0141036D01*
X0195400Y0141036D01*
X0195400Y0144420D01*
X0195400Y0142259D02*
X0195400Y0142259D01*
X0201701Y0132424D02*
X0202016Y0132424D01*
X0202016Y0130457D02*
X0199734Y0130457D01*
X0197767Y0128490D02*
X0202016Y0128490D01*
X0202016Y0126523D02*
X0195800Y0126523D01*
X0193833Y0124556D02*
X0202016Y0124556D01*
X0202016Y0122589D02*
X0191866Y0122589D01*
X0189899Y0120622D02*
X0202016Y0120622D01*
X0202016Y0118655D02*
X0196364Y0118655D01*
X0198331Y0116688D02*
X0202016Y0116688D01*
X0202016Y0114721D02*
X0199165Y0114721D01*
X0199717Y0112754D02*
X0202016Y0112754D01*
X0202016Y0110787D02*
X0199717Y0110787D01*
X0199289Y0108820D02*
X0202016Y0108820D01*
X0202016Y0106853D02*
X0198474Y0106853D01*
X0196664Y0104886D02*
X0202016Y0104886D01*
X0202398Y0102919D02*
X0193049Y0102919D01*
X0213016Y0089150D02*
X0169584Y0089150D01*
X0169584Y0087183D02*
X0213016Y0087183D01*
X0213016Y0085216D02*
X0169186Y0085216D01*
X0160316Y0083249D02*
X0140984Y0083249D01*
X0140984Y0085216D02*
X0159780Y0085216D01*
X0159216Y0087183D02*
X0140984Y0087183D01*
X0140984Y0089150D02*
X0159216Y0089150D01*
X0159416Y0091117D02*
X0140984Y0091117D01*
X0140984Y0081282D02*
X0158581Y0081282D01*
X0156614Y0079315D02*
X0140984Y0079315D01*
X0140984Y0077348D02*
X0154647Y0077348D01*
X0152680Y0075381D02*
X0140984Y0075381D01*
X0140984Y0073414D02*
X0150713Y0073414D01*
X0148746Y0071447D02*
X0140984Y0071447D01*
X0140984Y0069480D02*
X0146779Y0069480D01*
X0144812Y0067513D02*
X0140984Y0067513D01*
X0140984Y0065546D02*
X0142845Y0065546D01*
X0141716Y0063579D02*
X0140984Y0063579D01*
X0140984Y0061612D02*
X0141716Y0061612D01*
X0141716Y0059645D02*
X0140429Y0059645D01*
X0140033Y0057678D02*
X0141716Y0057678D01*
X0141716Y0055711D02*
X0140033Y0055711D01*
X0140033Y0053744D02*
X0141716Y0053744D01*
X0141716Y0051777D02*
X0140033Y0051777D01*
X0140033Y0049810D02*
X0141716Y0049810D01*
X0147884Y0051777D02*
X0148543Y0051777D01*
X0147884Y0053744D02*
X0150385Y0053744D01*
X0148580Y0055711D02*
X0213016Y0055711D01*
X0187816Y0067513D02*
X0159888Y0067513D01*
X0158052Y0069480D02*
X0187619Y0069480D01*
X0185652Y0071447D02*
X0154075Y0071447D01*
X0156042Y0073414D02*
X0183685Y0073414D01*
X0152290Y0057678D02*
X0150547Y0057678D01*
X0168998Y0131561D02*
X0168998Y0144893D01*
X0170967Y0144893D01*
X0170967Y0131561D01*
X0168998Y0131561D01*
X0168998Y0132424D02*
X0170967Y0132424D01*
X0170967Y0134391D02*
X0168998Y0134391D01*
X0168998Y0136358D02*
X0170967Y0136358D01*
X0170967Y0138325D02*
X0168998Y0138325D01*
X0168998Y0140292D02*
X0170967Y0140292D01*
X0170967Y0142259D02*
X0168998Y0142259D01*
X0168998Y0144226D02*
X0170967Y0144226D01*
X0170967Y0146861D02*
X0168998Y0146861D01*
X0168998Y0160193D01*
X0170967Y0160193D01*
X0170967Y0146861D01*
X0170967Y0148160D02*
X0168998Y0148160D01*
X0168998Y0150127D02*
X0170967Y0150127D01*
X0170967Y0152094D02*
X0168998Y0152094D01*
X0168998Y0154061D02*
X0170967Y0154061D01*
X0170967Y0156028D02*
X0168998Y0156028D01*
X0168998Y0157995D02*
X0170967Y0157995D01*
X0170967Y0159962D02*
X0168998Y0159962D01*
X0189454Y0165720D02*
X0189696Y0165962D01*
X0191242Y0165962D01*
X0191242Y0169146D01*
X0191243Y0169146D01*
X0191243Y0165962D01*
X0192516Y0165962D01*
X0192516Y0163265D01*
X0191371Y0162120D01*
X0190780Y0162120D01*
X0190376Y0162525D01*
X0190039Y0162525D01*
X0189739Y0162825D01*
X0189712Y0162825D01*
X0189984Y0163482D01*
X0189984Y0164590D01*
X0189560Y0165613D01*
X0189454Y0165720D01*
X0189597Y0165863D02*
X0192516Y0165863D01*
X0192516Y0163896D02*
X0189984Y0163896D01*
X0191242Y0167830D02*
X0191243Y0167830D01*
X0191242Y0169147D02*
X0191242Y0172331D01*
X0189696Y0172331D01*
X0189565Y0172461D01*
X0189684Y0172580D01*
X0189684Y0173991D01*
X0190093Y0173991D01*
X0190686Y0174237D01*
X0192516Y0172407D01*
X0192516Y0172331D01*
X0191243Y0172331D01*
X0191243Y0169147D01*
X0191242Y0169147D01*
X0191242Y0169797D02*
X0191243Y0169797D01*
X0191242Y0171764D02*
X0191243Y0171764D01*
X0191191Y0173731D02*
X0189684Y0173731D01*
X0198800Y0171764D02*
X0198800Y0171764D01*
X0198800Y0169797D02*
X0198800Y0169797D01*
X0242847Y0201270D02*
X0244028Y0201270D01*
X0244028Y0203237D02*
X0242847Y0203237D01*
X0242847Y0205204D02*
X0244028Y0205204D01*
X0244028Y0207171D02*
X0242847Y0207171D01*
X0242847Y0209138D02*
X0244028Y0209138D01*
X0244028Y0211105D02*
X0242847Y0211105D01*
X0243926Y0213072D02*
X0248016Y0213072D01*
X0248016Y0215039D02*
X0244740Y0215039D01*
X0245221Y0217006D02*
X0248016Y0217006D01*
X0248016Y0218973D02*
X0245221Y0218973D01*
X0244788Y0220940D02*
X0248016Y0220940D01*
X0248016Y0222907D02*
X0243973Y0222907D01*
X0242239Y0224874D02*
X0248016Y0224874D01*
X0248016Y0226841D02*
X0238965Y0226841D01*
X0146800Y0171764D02*
X0146800Y0171764D01*
X0146800Y0170236D02*
X0146800Y0170236D01*
X0147400Y0161236D02*
X0147400Y0161236D01*
X0140639Y0134391D02*
X0140033Y0134391D01*
D30*
X0142800Y0132636D03*
X0149200Y0133036D03*
X0148600Y0141036D03*
X0148600Y0123036D03*
X0150763Y0120673D03*
X0157400Y0122836D03*
X0165061Y0125236D03*
X0173000Y0123036D03*
X0171100Y0118636D03*
X0172139Y0108697D03*
X0172661Y0104576D03*
X0161000Y0111036D03*
X0142800Y0106236D03*
X0162200Y0090636D03*
X0193200Y0068236D03*
X0175800Y0043236D03*
X0156400Y0043236D03*
X0146000Y0048236D03*
X0145400Y0033436D03*
X0148400Y0026236D03*
X0144400Y0018436D03*
X0190260Y0133082D03*
X0190883Y0144236D03*
X0195400Y0144036D03*
X0190565Y0152872D03*
X0187200Y0164036D03*
X0180000Y0167636D03*
X0177861Y0172330D03*
X0174661Y0173097D03*
X0171139Y0171976D03*
X0170700Y0166836D03*
X0165000Y0167036D03*
X0168000Y0159636D03*
X0152819Y0163036D03*
X0152919Y0166436D03*
X0153000Y0177036D03*
X0151400Y0180836D03*
X0152600Y0190036D03*
X0157400Y0190436D03*
X0164413Y0179468D03*
X0168739Y0182097D03*
X0172061Y0181176D03*
X0184600Y0172236D03*
X0191000Y0172636D03*
X0189539Y0176776D03*
X0193061Y0177497D03*
X0190100Y0193236D03*
X0186500Y0194636D03*
X0216600Y0197636D03*
X0220600Y0200736D03*
X0171200Y0136436D03*
X0166000Y0136236D03*
X0179000Y0133236D03*
D31*
X0180809Y0128377D02*
X0180809Y0123246D01*
X0180600Y0123036D01*
X0185800Y0123036D01*
X0194800Y0132036D01*
X0194800Y0137194D01*
X0190980Y0141014D01*
X0191378Y0141014D01*
X0191400Y0141036D01*
X0187602Y0140836D01*
X0187483Y0140956D01*
X0187483Y0138987D01*
X0187483Y0142924D02*
X0189215Y0142924D01*
X0189627Y0143336D01*
X0189983Y0143336D01*
X0190883Y0144236D01*
X0190460Y0152767D02*
X0187483Y0152767D01*
X0187483Y0154735D02*
X0189299Y0154735D01*
X0189800Y0155236D01*
X0197351Y0155236D01*
X0199600Y0152988D01*
X0199600Y0134685D01*
X0178976Y0114060D01*
X0178975Y0114061D02*
X0178941Y0114029D01*
X0178904Y0114000D01*
X0178864Y0113973D01*
X0178823Y0113950D01*
X0178781Y0113931D01*
X0178736Y0113914D01*
X0178691Y0113902D01*
X0178645Y0113892D01*
X0178598Y0113887D01*
X0178551Y0113885D01*
X0178504Y0113887D01*
X0178457Y0113892D01*
X0178411Y0113902D01*
X0178366Y0113914D01*
X0178321Y0113931D01*
X0178279Y0113950D01*
X0178238Y0113973D01*
X0178198Y0114000D01*
X0178161Y0114029D01*
X0178127Y0114061D01*
X0178127Y0114060D02*
X0178093Y0114092D01*
X0178056Y0114121D01*
X0178016Y0114148D01*
X0177975Y0114171D01*
X0177933Y0114190D01*
X0177888Y0114207D01*
X0177843Y0114219D01*
X0177797Y0114229D01*
X0177750Y0114234D01*
X0177703Y0114236D01*
X0177656Y0114234D01*
X0177609Y0114229D01*
X0177563Y0114219D01*
X0177518Y0114207D01*
X0177473Y0114190D01*
X0177431Y0114171D01*
X0177390Y0114148D01*
X0177350Y0114121D01*
X0177313Y0114092D01*
X0177279Y0114060D01*
X0174973Y0111755D01*
X0174974Y0111755D02*
X0174942Y0111721D01*
X0174913Y0111684D01*
X0174886Y0111644D01*
X0174863Y0111603D01*
X0174844Y0111561D01*
X0174827Y0111516D01*
X0174815Y0111471D01*
X0174805Y0111425D01*
X0174800Y0111378D01*
X0174798Y0111331D01*
X0174800Y0111284D01*
X0174805Y0111237D01*
X0174815Y0111191D01*
X0174827Y0111146D01*
X0174844Y0111101D01*
X0174863Y0111059D01*
X0174886Y0111018D01*
X0174913Y0110978D01*
X0174942Y0110941D01*
X0174974Y0110907D01*
X0174973Y0110906D02*
X0175005Y0110872D01*
X0175034Y0110835D01*
X0175061Y0110795D01*
X0175084Y0110754D01*
X0175103Y0110712D01*
X0175120Y0110667D01*
X0175132Y0110622D01*
X0175142Y0110576D01*
X0175147Y0110529D01*
X0175149Y0110482D01*
X0175147Y0110435D01*
X0175142Y0110388D01*
X0175132Y0110342D01*
X0175120Y0110297D01*
X0175103Y0110252D01*
X0175084Y0110210D01*
X0175061Y0110169D01*
X0175034Y0110129D01*
X0175005Y0110092D01*
X0174973Y0110058D01*
X0171776Y0106860D01*
X0172139Y0108697D01*
X0172624Y0106012D02*
X0172661Y0104576D01*
X0172624Y0106012D02*
X0175822Y0109210D01*
X0179824Y0113212D01*
X0200800Y0134188D01*
X0200800Y0153485D01*
X0197849Y0156436D01*
X0189800Y0156436D01*
X0189532Y0156704D01*
X0187483Y0156704D01*
X0187483Y0158672D02*
X0189636Y0158672D01*
X0190000Y0159036D01*
X0192649Y0159036D01*
X0195600Y0161988D01*
X0195600Y0173685D01*
X0191624Y0177660D01*
X0193061Y0177497D01*
X0190776Y0176812D02*
X0194400Y0173188D01*
X0194400Y0162485D01*
X0192151Y0160236D01*
X0190000Y0160236D01*
X0189595Y0160641D01*
X0187483Y0160641D01*
X0187200Y0164036D02*
X0185406Y0164036D01*
X0184746Y0163377D01*
X0182778Y0163377D02*
X0182778Y0167414D01*
X0184510Y0169146D01*
X0186043Y0169146D01*
X0188643Y0167574D02*
X0187200Y0166131D01*
X0187200Y0164036D01*
X0188643Y0167574D02*
X0188643Y0170719D01*
X0187000Y0172362D01*
X0186400Y0174436D01*
X0186400Y0174036D01*
X0184600Y0172236D01*
X0181200Y0174436D02*
X0181000Y0174436D01*
X0178024Y0177412D01*
X0178308Y0177696D01*
X0178024Y0177412D02*
X0177449Y0176836D01*
X0171849Y0176836D01*
X0168600Y0173588D01*
X0168600Y0165636D01*
X0168998Y0165238D01*
X0168998Y0163377D01*
X0167030Y0163377D02*
X0167030Y0165266D01*
X0167400Y0165636D01*
X0167400Y0174085D01*
X0171351Y0178036D01*
X0176951Y0178036D01*
X0177460Y0178544D01*
X0177459Y0178545D02*
X0177491Y0178579D01*
X0177520Y0178616D01*
X0177547Y0178656D01*
X0177570Y0178697D01*
X0177589Y0178739D01*
X0177606Y0178784D01*
X0177618Y0178829D01*
X0177628Y0178875D01*
X0177633Y0178922D01*
X0177635Y0178969D01*
X0177633Y0179016D01*
X0177628Y0179063D01*
X0177618Y0179109D01*
X0177606Y0179154D01*
X0177589Y0179199D01*
X0177570Y0179241D01*
X0177547Y0179282D01*
X0177520Y0179322D01*
X0177491Y0179359D01*
X0177459Y0179393D01*
X0177460Y0179393D02*
X0175232Y0181620D01*
X0176081Y0182469D02*
X0178308Y0180241D01*
X0178308Y0180242D02*
X0178365Y0180182D01*
X0178420Y0180119D01*
X0178471Y0180054D01*
X0178520Y0179986D01*
X0178565Y0179917D01*
X0178608Y0179845D01*
X0178646Y0179771D01*
X0178682Y0179696D01*
X0178713Y0179619D01*
X0178742Y0179541D01*
X0178766Y0179462D01*
X0178787Y0179381D01*
X0178804Y0179300D01*
X0178818Y0179218D01*
X0178827Y0179135D01*
X0178833Y0179052D01*
X0178835Y0178969D01*
X0178833Y0178886D01*
X0178827Y0178803D01*
X0178818Y0178720D01*
X0178804Y0178638D01*
X0178787Y0178557D01*
X0178766Y0178476D01*
X0178742Y0178397D01*
X0178713Y0178319D01*
X0178682Y0178242D01*
X0178646Y0178167D01*
X0178608Y0178093D01*
X0178565Y0178021D01*
X0178520Y0177952D01*
X0178471Y0177884D01*
X0178420Y0177819D01*
X0178365Y0177756D01*
X0178308Y0177696D01*
X0174661Y0173097D02*
X0173424Y0172860D01*
X0174600Y0171685D01*
X0174600Y0165836D01*
X0174904Y0165532D01*
X0174904Y0163377D01*
X0172935Y0163377D02*
X0172935Y0165372D01*
X0173400Y0165836D01*
X0173400Y0171188D01*
X0172576Y0172012D01*
X0171139Y0171976D01*
X0170700Y0166836D02*
X0170967Y0166569D01*
X0170967Y0163377D01*
X0165061Y0163377D02*
X0165061Y0166975D01*
X0165000Y0167036D01*
X0162600Y0167988D02*
X0165800Y0171188D01*
X0165800Y0176188D01*
X0170624Y0181012D01*
X0172061Y0181176D01*
X0169776Y0181860D02*
X0168739Y0182097D01*
X0169776Y0181860D02*
X0164600Y0176685D01*
X0164600Y0171685D01*
X0161400Y0168485D01*
X0161400Y0165636D01*
X0161124Y0165361D01*
X0161124Y0163377D01*
X0159156Y0163377D02*
X0159000Y0163533D01*
X0159000Y0169036D01*
X0160700Y0170736D01*
X0160773Y0170736D01*
X0161300Y0171263D01*
X0161300Y0176355D01*
X0164413Y0179468D01*
X0160600Y0183281D01*
X0160600Y0188933D01*
X0160200Y0189333D01*
X0160200Y0192436D01*
X0157800Y0194836D01*
X0156000Y0194836D01*
X0155000Y0193836D01*
X0155000Y0178006D01*
X0155300Y0177706D01*
X0155300Y0173263D01*
X0155000Y0172963D01*
X0155000Y0169036D01*
X0155219Y0168817D01*
X0155219Y0163377D01*
X0157187Y0163377D02*
X0157187Y0166776D01*
X0156700Y0167263D01*
X0156700Y0180936D01*
X0157200Y0181436D01*
X0159000Y0179363D02*
X0159000Y0173036D01*
X0155000Y0169036D02*
X0153000Y0171036D01*
X0149100Y0170255D02*
X0149100Y0190366D01*
X0144200Y0195266D01*
X0144200Y0217436D01*
X0153600Y0226836D01*
X0154150Y0226836D01*
X0161400Y0234087D01*
X0161693Y0234087D01*
X0161693Y0226213D02*
X0161693Y0225529D01*
X0159400Y0223236D01*
X0158151Y0223236D01*
X0156200Y0221285D01*
X0156200Y0206988D01*
X0160551Y0202636D01*
X0173951Y0202636D01*
X0179551Y0197036D01*
X0185551Y0197036D01*
X0188000Y0194588D01*
X0188000Y0194036D01*
X0186500Y0194636D01*
X0185924Y0192312D02*
X0188151Y0190085D01*
X0188152Y0190085D02*
X0188186Y0190053D01*
X0188223Y0190024D01*
X0188263Y0189997D01*
X0188304Y0189974D01*
X0188346Y0189955D01*
X0188391Y0189938D01*
X0188436Y0189926D01*
X0188482Y0189916D01*
X0188529Y0189911D01*
X0188576Y0189909D01*
X0188623Y0189911D01*
X0188670Y0189916D01*
X0188716Y0189926D01*
X0188761Y0189938D01*
X0188806Y0189955D01*
X0188848Y0189974D01*
X0188889Y0189997D01*
X0188929Y0190024D01*
X0188966Y0190053D01*
X0189000Y0190085D01*
X0189351Y0190436D01*
X0193600Y0190436D01*
X0193600Y0192986D01*
X0193600Y0190436D02*
X0195049Y0190436D01*
X0196024Y0189460D01*
X0197352Y0189460D01*
X0200938Y0193046D01*
X0195076Y0188712D02*
X0195076Y0183909D01*
X0195938Y0183046D01*
X0195938Y0179748D01*
X0198800Y0176886D01*
X0190776Y0176812D02*
X0189539Y0176776D01*
X0186170Y0177709D02*
X0185898Y0177437D01*
X0185838Y0177380D01*
X0185775Y0177325D01*
X0185710Y0177274D01*
X0185642Y0177225D01*
X0185573Y0177180D01*
X0185501Y0177137D01*
X0185427Y0177099D01*
X0185352Y0177063D01*
X0185275Y0177032D01*
X0185197Y0177003D01*
X0185118Y0176979D01*
X0185037Y0176958D01*
X0184956Y0176941D01*
X0184874Y0176927D01*
X0184791Y0176918D01*
X0184708Y0176912D01*
X0184625Y0176910D01*
X0184542Y0176912D01*
X0184459Y0176918D01*
X0184376Y0176927D01*
X0184294Y0176941D01*
X0184213Y0176958D01*
X0184132Y0176979D01*
X0184053Y0177003D01*
X0183975Y0177032D01*
X0183898Y0177063D01*
X0183823Y0177099D01*
X0183749Y0177137D01*
X0183677Y0177180D01*
X0183608Y0177225D01*
X0183540Y0177274D01*
X0183475Y0177325D01*
X0183412Y0177380D01*
X0183352Y0177437D01*
X0183353Y0177437D02*
X0177201Y0183589D01*
X0178050Y0184437D02*
X0177990Y0184494D01*
X0177927Y0184549D01*
X0177862Y0184600D01*
X0177794Y0184649D01*
X0177725Y0184694D01*
X0177653Y0184737D01*
X0177579Y0184775D01*
X0177504Y0184811D01*
X0177427Y0184842D01*
X0177349Y0184871D01*
X0177270Y0184895D01*
X0177189Y0184916D01*
X0177108Y0184933D01*
X0177026Y0184947D01*
X0176943Y0184956D01*
X0176860Y0184962D01*
X0176777Y0184964D01*
X0176694Y0184962D01*
X0176611Y0184956D01*
X0176528Y0184947D01*
X0176446Y0184933D01*
X0176365Y0184916D01*
X0176284Y0184895D01*
X0176205Y0184871D01*
X0176127Y0184842D01*
X0176050Y0184811D01*
X0175975Y0184775D01*
X0175901Y0184737D01*
X0175829Y0184694D01*
X0175760Y0184649D01*
X0175692Y0184600D01*
X0175627Y0184549D01*
X0175564Y0184494D01*
X0175504Y0184437D01*
X0176638Y0185572D01*
X0176638Y0188875D01*
X0179170Y0188103D02*
X0179441Y0188375D01*
X0180290Y0187526D02*
X0180018Y0187255D01*
X0179170Y0188103D02*
X0179113Y0188043D01*
X0179058Y0187980D01*
X0179007Y0187915D01*
X0178958Y0187847D01*
X0178913Y0187778D01*
X0178870Y0187706D01*
X0178832Y0187632D01*
X0178796Y0187557D01*
X0178765Y0187480D01*
X0178736Y0187402D01*
X0178712Y0187323D01*
X0178691Y0187242D01*
X0178674Y0187161D01*
X0178660Y0187079D01*
X0178651Y0186996D01*
X0178645Y0186913D01*
X0178643Y0186830D01*
X0178645Y0186747D01*
X0178651Y0186664D01*
X0178660Y0186581D01*
X0178674Y0186499D01*
X0178691Y0186418D01*
X0178712Y0186337D01*
X0178736Y0186258D01*
X0178765Y0186180D01*
X0178796Y0186103D01*
X0178832Y0186028D01*
X0178870Y0185954D01*
X0178913Y0185882D01*
X0178958Y0185813D01*
X0179007Y0185745D01*
X0179058Y0185680D01*
X0179113Y0185617D01*
X0179170Y0185557D01*
X0184138Y0180589D01*
X0184170Y0180555D01*
X0184199Y0180518D01*
X0184226Y0180478D01*
X0184249Y0180437D01*
X0184268Y0180395D01*
X0184285Y0180350D01*
X0184297Y0180305D01*
X0184307Y0180259D01*
X0184312Y0180212D01*
X0184314Y0180165D01*
X0184312Y0180118D01*
X0184307Y0180071D01*
X0184297Y0180025D01*
X0184285Y0179980D01*
X0184268Y0179935D01*
X0184249Y0179893D01*
X0184226Y0179852D01*
X0184199Y0179812D01*
X0184170Y0179775D01*
X0184138Y0179741D01*
X0183866Y0179469D01*
X0183832Y0179437D01*
X0183795Y0179408D01*
X0183755Y0179381D01*
X0183714Y0179358D01*
X0183672Y0179339D01*
X0183627Y0179322D01*
X0183582Y0179310D01*
X0183536Y0179300D01*
X0183489Y0179295D01*
X0183442Y0179293D01*
X0183395Y0179295D01*
X0183348Y0179300D01*
X0183302Y0179310D01*
X0183257Y0179322D01*
X0183212Y0179339D01*
X0183170Y0179358D01*
X0183129Y0179381D01*
X0183089Y0179408D01*
X0183052Y0179437D01*
X0183018Y0179469D01*
X0178050Y0184437D01*
X0177201Y0183588D02*
X0177167Y0183620D01*
X0177130Y0183649D01*
X0177090Y0183676D01*
X0177049Y0183699D01*
X0177007Y0183718D01*
X0176962Y0183735D01*
X0176917Y0183747D01*
X0176871Y0183757D01*
X0176824Y0183762D01*
X0176777Y0183764D01*
X0176730Y0183762D01*
X0176683Y0183757D01*
X0176637Y0183747D01*
X0176592Y0183735D01*
X0176547Y0183718D01*
X0176505Y0183699D01*
X0176464Y0183676D01*
X0176424Y0183649D01*
X0176387Y0183620D01*
X0176353Y0183588D01*
X0176353Y0183589D02*
X0176081Y0183317D01*
X0175232Y0184166D02*
X0175175Y0184106D01*
X0175120Y0184043D01*
X0175069Y0183978D01*
X0175020Y0183910D01*
X0174975Y0183841D01*
X0174932Y0183769D01*
X0174894Y0183695D01*
X0174858Y0183620D01*
X0174827Y0183543D01*
X0174798Y0183465D01*
X0174774Y0183386D01*
X0174753Y0183305D01*
X0174736Y0183224D01*
X0174722Y0183142D01*
X0174713Y0183059D01*
X0174707Y0182976D01*
X0174705Y0182893D01*
X0174707Y0182810D01*
X0174713Y0182727D01*
X0174722Y0182644D01*
X0174736Y0182562D01*
X0174753Y0182481D01*
X0174774Y0182400D01*
X0174798Y0182321D01*
X0174827Y0182243D01*
X0174858Y0182166D01*
X0174894Y0182091D01*
X0174932Y0182017D01*
X0174975Y0181945D01*
X0175020Y0181876D01*
X0175069Y0181808D01*
X0175120Y0181743D01*
X0175175Y0181680D01*
X0175232Y0181620D01*
X0176081Y0182469D02*
X0176049Y0182503D01*
X0176020Y0182540D01*
X0175993Y0182580D01*
X0175970Y0182621D01*
X0175951Y0182663D01*
X0175934Y0182708D01*
X0175922Y0182753D01*
X0175912Y0182799D01*
X0175907Y0182846D01*
X0175905Y0182893D01*
X0175907Y0182940D01*
X0175912Y0182987D01*
X0175922Y0183033D01*
X0175934Y0183078D01*
X0175951Y0183123D01*
X0175970Y0183165D01*
X0175993Y0183206D01*
X0176020Y0183246D01*
X0176049Y0183283D01*
X0176081Y0183317D01*
X0175232Y0184166D02*
X0175504Y0184437D01*
X0172962Y0185198D02*
X0172362Y0184598D01*
X0168270Y0184598D01*
X0166639Y0182967D01*
X0166639Y0181694D01*
X0164413Y0179468D01*
X0159400Y0179763D02*
X0159400Y0188436D01*
X0157400Y0190436D01*
X0159400Y0179763D02*
X0159000Y0179363D01*
X0153000Y0177036D02*
X0153000Y0175036D01*
X0149100Y0170255D02*
X0152919Y0166436D01*
X0152819Y0163036D02*
X0152819Y0160977D01*
X0152483Y0160641D01*
X0149000Y0164124D01*
X0146800Y0166236D01*
X0147400Y0157236D02*
X0145800Y0157236D01*
X0142400Y0153836D01*
X0142400Y0148036D01*
X0144600Y0145836D01*
X0145639Y0145836D01*
X0146639Y0144836D01*
X0146639Y0145112D01*
X0146858Y0144893D01*
X0152483Y0144893D01*
X0152483Y0142924D01*
X0152483Y0140956D02*
X0148680Y0140956D01*
X0148600Y0141036D01*
X0146639Y0142045D02*
X0146500Y0141906D01*
X0146500Y0138136D01*
X0147400Y0137236D01*
X0147400Y0134206D01*
X0147100Y0133906D01*
X0147100Y0132166D01*
X0149700Y0129566D01*
X0149700Y0129336D01*
X0147800Y0127436D01*
X0155400Y0119836D01*
X0168000Y0119836D01*
X0169330Y0119836D01*
X0170230Y0120736D01*
X0171970Y0120736D01*
X0173200Y0119506D01*
X0173200Y0119436D01*
X0173200Y0117766D01*
X0169600Y0114166D01*
X0169600Y0106836D01*
X0161550Y0098786D01*
X0161550Y0097436D01*
X0162200Y0096786D01*
X0162200Y0090636D01*
X0162200Y0087836D01*
X0162200Y0082236D01*
X0143600Y0063636D01*
X0143600Y0038036D01*
X0142600Y0037036D01*
X0142600Y0028236D01*
X0145400Y0025436D01*
X0147600Y0025436D01*
X0148400Y0026236D01*
X0145400Y0033436D02*
X0153562Y0033436D01*
X0154213Y0034087D01*
X0156400Y0043236D02*
X0154213Y0045424D01*
X0154213Y0048260D01*
X0146000Y0048236D02*
X0146000Y0055795D01*
X0154213Y0064008D01*
X0165200Y0078636D02*
X0162200Y0081636D01*
X0162200Y0082236D01*
X0165200Y0078636D02*
X0181127Y0078636D01*
X0189027Y0070736D01*
X0189100Y0070736D01*
X0190800Y0069036D01*
X0191600Y0068236D01*
X0193200Y0068236D01*
X0163200Y0110836D02*
X0163000Y0111036D01*
X0161000Y0111036D01*
X0166600Y0117636D02*
X0167600Y0118636D01*
X0171100Y0118636D01*
X0173200Y0119436D02*
X0178600Y0119436D01*
X0180600Y0121436D01*
X0180600Y0123036D01*
X0187483Y0133082D02*
X0190260Y0133082D01*
X0190460Y0152767D02*
X0190565Y0152872D01*
X0180809Y0163377D02*
X0180809Y0166827D01*
X0180000Y0167636D01*
X0178220Y0166446D02*
X0177900Y0166766D01*
X0177900Y0170397D01*
X0177861Y0170436D01*
X0177861Y0172330D01*
X0178220Y0166446D02*
X0178220Y0166057D01*
X0178841Y0165436D01*
X0178841Y0163377D01*
X0163093Y0163377D02*
X0163093Y0165143D01*
X0162600Y0165636D01*
X0162600Y0167988D01*
X0152483Y0156704D02*
X0147932Y0156704D01*
X0147400Y0157236D01*
X0146639Y0151827D02*
X0146639Y0150726D01*
X0149902Y0147464D01*
X0149902Y0147335D01*
X0150400Y0146836D01*
X0152457Y0146836D01*
X0152483Y0146861D01*
X0152483Y0152767D02*
X0163093Y0152767D01*
X0169983Y0145877D01*
X0169983Y0140219D01*
X0166000Y0136236D01*
X0165061Y0128377D02*
X0165061Y0125236D01*
X0165061Y0122898D01*
X0165000Y0122836D01*
X0168000Y0119836D01*
X0166600Y0117636D02*
X0153800Y0117636D01*
X0150763Y0120673D01*
X0149700Y0129336D02*
X0151477Y0131113D01*
X0152483Y0131113D01*
X0152483Y0133082D02*
X0149246Y0133082D01*
X0149200Y0133036D01*
X0152483Y0133082D02*
X0157187Y0133082D01*
X0169983Y0145877D01*
X0146639Y0144836D02*
X0146639Y0142045D01*
X0186170Y0177709D02*
X0186227Y0177769D01*
X0186282Y0177832D01*
X0186333Y0177897D01*
X0186382Y0177965D01*
X0186427Y0178034D01*
X0186470Y0178106D01*
X0186508Y0178180D01*
X0186544Y0178255D01*
X0186575Y0178332D01*
X0186604Y0178410D01*
X0186628Y0178489D01*
X0186649Y0178570D01*
X0186666Y0178651D01*
X0186680Y0178733D01*
X0186689Y0178816D01*
X0186695Y0178899D01*
X0186697Y0178982D01*
X0186695Y0179065D01*
X0186689Y0179148D01*
X0186680Y0179231D01*
X0186666Y0179313D01*
X0186649Y0179394D01*
X0186628Y0179475D01*
X0186604Y0179554D01*
X0186575Y0179632D01*
X0186544Y0179709D01*
X0186508Y0179784D01*
X0186470Y0179858D01*
X0186427Y0179930D01*
X0186382Y0179999D01*
X0186333Y0180067D01*
X0186282Y0180132D01*
X0186227Y0180195D01*
X0186170Y0180255D01*
X0180018Y0186406D01*
X0180019Y0186406D02*
X0179987Y0186440D01*
X0179958Y0186477D01*
X0179931Y0186517D01*
X0179908Y0186558D01*
X0179889Y0186600D01*
X0179872Y0186645D01*
X0179860Y0186690D01*
X0179850Y0186736D01*
X0179845Y0186783D01*
X0179843Y0186830D01*
X0179845Y0186877D01*
X0179850Y0186924D01*
X0179860Y0186970D01*
X0179872Y0187015D01*
X0179889Y0187060D01*
X0179908Y0187102D01*
X0179931Y0187143D01*
X0179958Y0187183D01*
X0179987Y0187220D01*
X0180019Y0187254D01*
X0179441Y0188375D02*
X0179501Y0188432D01*
X0179564Y0188487D01*
X0179629Y0188538D01*
X0179697Y0188587D01*
X0179766Y0188632D01*
X0179838Y0188675D01*
X0179912Y0188713D01*
X0179987Y0188749D01*
X0180064Y0188780D01*
X0180142Y0188809D01*
X0180221Y0188833D01*
X0180302Y0188854D01*
X0180383Y0188871D01*
X0180465Y0188885D01*
X0180548Y0188894D01*
X0180631Y0188900D01*
X0180714Y0188902D01*
X0180797Y0188900D01*
X0180880Y0188894D01*
X0180963Y0188885D01*
X0181045Y0188871D01*
X0181126Y0188854D01*
X0181207Y0188833D01*
X0181286Y0188809D01*
X0181364Y0188780D01*
X0181441Y0188749D01*
X0181516Y0188713D01*
X0181590Y0188675D01*
X0181662Y0188632D01*
X0181731Y0188587D01*
X0181799Y0188538D01*
X0181864Y0188487D01*
X0181927Y0188432D01*
X0181987Y0188375D01*
X0188138Y0182223D01*
X0188139Y0182223D02*
X0188173Y0182191D01*
X0188210Y0182162D01*
X0188250Y0182135D01*
X0188291Y0182112D01*
X0188333Y0182093D01*
X0188378Y0182076D01*
X0188423Y0182064D01*
X0188469Y0182054D01*
X0188516Y0182049D01*
X0188563Y0182047D01*
X0188610Y0182049D01*
X0188657Y0182054D01*
X0188703Y0182064D01*
X0188748Y0182076D01*
X0188793Y0182093D01*
X0188835Y0182112D01*
X0188876Y0182135D01*
X0188916Y0182162D01*
X0188953Y0182191D01*
X0188987Y0182223D01*
X0189259Y0182495D01*
X0189258Y0182495D02*
X0189290Y0182529D01*
X0189319Y0182566D01*
X0189346Y0182606D01*
X0189369Y0182647D01*
X0189388Y0182689D01*
X0189405Y0182734D01*
X0189417Y0182779D01*
X0189427Y0182825D01*
X0189432Y0182872D01*
X0189434Y0182919D01*
X0189432Y0182966D01*
X0189427Y0183013D01*
X0189417Y0183059D01*
X0189405Y0183104D01*
X0189388Y0183149D01*
X0189369Y0183191D01*
X0189346Y0183232D01*
X0189319Y0183272D01*
X0189290Y0183309D01*
X0189258Y0183343D01*
X0189259Y0183343D02*
X0183107Y0189495D01*
X0183956Y0190343D02*
X0190107Y0184192D01*
X0190164Y0184132D01*
X0190219Y0184069D01*
X0190270Y0184004D01*
X0190319Y0183936D01*
X0190364Y0183867D01*
X0190407Y0183795D01*
X0190445Y0183721D01*
X0190481Y0183646D01*
X0190512Y0183569D01*
X0190541Y0183491D01*
X0190565Y0183412D01*
X0190586Y0183331D01*
X0190603Y0183250D01*
X0190617Y0183168D01*
X0190626Y0183085D01*
X0190632Y0183002D01*
X0190634Y0182919D01*
X0190632Y0182836D01*
X0190626Y0182753D01*
X0190617Y0182670D01*
X0190603Y0182588D01*
X0190586Y0182507D01*
X0190565Y0182426D01*
X0190541Y0182347D01*
X0190512Y0182269D01*
X0190481Y0182192D01*
X0190445Y0182117D01*
X0190407Y0182043D01*
X0190364Y0181971D01*
X0190319Y0181902D01*
X0190270Y0181834D01*
X0190219Y0181769D01*
X0190164Y0181706D01*
X0190107Y0181646D01*
X0189835Y0181375D01*
X0189836Y0181374D02*
X0189776Y0181317D01*
X0189713Y0181262D01*
X0189648Y0181211D01*
X0189580Y0181162D01*
X0189511Y0181117D01*
X0189439Y0181074D01*
X0189365Y0181036D01*
X0189290Y0181000D01*
X0189213Y0180969D01*
X0189135Y0180940D01*
X0189056Y0180916D01*
X0188975Y0180895D01*
X0188894Y0180878D01*
X0188812Y0180864D01*
X0188729Y0180855D01*
X0188646Y0180849D01*
X0188563Y0180847D01*
X0188480Y0180849D01*
X0188397Y0180855D01*
X0188314Y0180864D01*
X0188232Y0180878D01*
X0188151Y0180895D01*
X0188070Y0180916D01*
X0187991Y0180940D01*
X0187913Y0180969D01*
X0187836Y0181000D01*
X0187761Y0181036D01*
X0187687Y0181074D01*
X0187615Y0181117D01*
X0187546Y0181162D01*
X0187478Y0181211D01*
X0187413Y0181262D01*
X0187350Y0181317D01*
X0187290Y0181374D01*
X0187290Y0181375D02*
X0181138Y0187526D01*
X0181104Y0187558D01*
X0181067Y0187587D01*
X0181027Y0187614D01*
X0180986Y0187637D01*
X0180944Y0187656D01*
X0180899Y0187673D01*
X0180854Y0187685D01*
X0180808Y0187695D01*
X0180761Y0187700D01*
X0180714Y0187702D01*
X0180667Y0187700D01*
X0180620Y0187695D01*
X0180574Y0187685D01*
X0180529Y0187673D01*
X0180484Y0187656D01*
X0180442Y0187637D01*
X0180401Y0187614D01*
X0180361Y0187587D01*
X0180324Y0187558D01*
X0180290Y0187526D01*
X0183956Y0191192D02*
X0184227Y0191463D01*
X0183378Y0192312D02*
X0183438Y0192369D01*
X0183501Y0192424D01*
X0183566Y0192475D01*
X0183634Y0192524D01*
X0183703Y0192569D01*
X0183775Y0192612D01*
X0183849Y0192650D01*
X0183924Y0192686D01*
X0184001Y0192717D01*
X0184079Y0192746D01*
X0184158Y0192770D01*
X0184239Y0192791D01*
X0184320Y0192808D01*
X0184402Y0192822D01*
X0184485Y0192831D01*
X0184568Y0192837D01*
X0184651Y0192839D01*
X0184734Y0192837D01*
X0184817Y0192831D01*
X0184900Y0192822D01*
X0184982Y0192808D01*
X0185063Y0192791D01*
X0185144Y0192770D01*
X0185223Y0192746D01*
X0185301Y0192717D01*
X0185378Y0192686D01*
X0185453Y0192650D01*
X0185527Y0192612D01*
X0185599Y0192569D01*
X0185668Y0192524D01*
X0185736Y0192475D01*
X0185801Y0192424D01*
X0185864Y0192369D01*
X0185924Y0192312D01*
X0185076Y0191463D02*
X0187303Y0189236D01*
X0187363Y0189179D01*
X0187426Y0189124D01*
X0187491Y0189073D01*
X0187559Y0189024D01*
X0187628Y0188979D01*
X0187700Y0188936D01*
X0187774Y0188898D01*
X0187849Y0188862D01*
X0187926Y0188831D01*
X0188004Y0188802D01*
X0188083Y0188778D01*
X0188164Y0188757D01*
X0188245Y0188740D01*
X0188327Y0188726D01*
X0188410Y0188717D01*
X0188493Y0188711D01*
X0188576Y0188709D01*
X0188659Y0188711D01*
X0188742Y0188717D01*
X0188825Y0188726D01*
X0188907Y0188740D01*
X0188988Y0188757D01*
X0189069Y0188778D01*
X0189148Y0188802D01*
X0189226Y0188831D01*
X0189303Y0188862D01*
X0189378Y0188898D01*
X0189452Y0188936D01*
X0189524Y0188979D01*
X0189593Y0189024D01*
X0189661Y0189073D01*
X0189726Y0189124D01*
X0189789Y0189179D01*
X0189849Y0189236D01*
X0194551Y0189236D01*
X0195076Y0188712D01*
X0190100Y0193236D02*
X0189200Y0194036D01*
X0189200Y0195085D01*
X0186049Y0198236D01*
X0180049Y0198236D01*
X0174449Y0203836D01*
X0161049Y0203836D01*
X0157400Y0207485D01*
X0157400Y0220788D01*
X0158649Y0222036D01*
X0159400Y0222036D01*
X0161693Y0219743D01*
X0161693Y0218339D01*
X0183379Y0192312D02*
X0183107Y0192040D01*
X0183107Y0192041D02*
X0183050Y0191981D01*
X0182995Y0191918D01*
X0182944Y0191853D01*
X0182895Y0191785D01*
X0182850Y0191716D01*
X0182807Y0191644D01*
X0182769Y0191570D01*
X0182733Y0191495D01*
X0182702Y0191418D01*
X0182673Y0191340D01*
X0182649Y0191261D01*
X0182628Y0191180D01*
X0182611Y0191099D01*
X0182597Y0191017D01*
X0182588Y0190934D01*
X0182582Y0190851D01*
X0182580Y0190768D01*
X0182582Y0190685D01*
X0182588Y0190602D01*
X0182597Y0190519D01*
X0182611Y0190437D01*
X0182628Y0190356D01*
X0182649Y0190275D01*
X0182673Y0190196D01*
X0182702Y0190118D01*
X0182733Y0190041D01*
X0182769Y0189966D01*
X0182807Y0189892D01*
X0182850Y0189820D01*
X0182895Y0189751D01*
X0182944Y0189683D01*
X0182995Y0189618D01*
X0183050Y0189555D01*
X0183107Y0189495D01*
X0183956Y0190344D02*
X0183924Y0190378D01*
X0183895Y0190415D01*
X0183868Y0190455D01*
X0183845Y0190496D01*
X0183826Y0190538D01*
X0183809Y0190583D01*
X0183797Y0190628D01*
X0183787Y0190674D01*
X0183782Y0190721D01*
X0183780Y0190768D01*
X0183782Y0190815D01*
X0183787Y0190862D01*
X0183797Y0190908D01*
X0183809Y0190953D01*
X0183826Y0190998D01*
X0183845Y0191040D01*
X0183868Y0191081D01*
X0183895Y0191121D01*
X0183924Y0191158D01*
X0183956Y0191192D01*
X0184227Y0191463D02*
X0184261Y0191495D01*
X0184298Y0191524D01*
X0184338Y0191551D01*
X0184379Y0191574D01*
X0184421Y0191593D01*
X0184466Y0191610D01*
X0184511Y0191622D01*
X0184557Y0191632D01*
X0184604Y0191637D01*
X0184651Y0191639D01*
X0184698Y0191637D01*
X0184745Y0191632D01*
X0184791Y0191622D01*
X0184836Y0191610D01*
X0184881Y0191593D01*
X0184923Y0191574D01*
X0184964Y0191551D01*
X0185004Y0191524D01*
X0185041Y0191495D01*
X0185075Y0191463D01*
X0216600Y0197636D02*
X0216600Y0199786D01*
X0220550Y0200786D02*
X0220600Y0200736D01*
X0220550Y0200786D02*
X0220550Y0202836D01*
D32*
X0123500Y0144939D02*
X0123881Y0144020D01*
X0124000Y0143901D01*
X0124000Y0122972D01*
X0123881Y0122852D01*
X0123500Y0121934D01*
X0123500Y0060939D01*
X0123881Y0060020D01*
X0124000Y0059901D01*
X0124000Y0036972D01*
X0123881Y0036852D01*
X0123500Y0035934D01*
X0123500Y0027816D01*
X0122758Y0028557D01*
X0119671Y0029836D01*
X0116329Y0029836D01*
X0113242Y0028557D01*
X0110879Y0026194D01*
X0109600Y0023107D01*
X0109600Y0019765D01*
X0110879Y0016678D01*
X0112621Y0014936D01*
X0106000Y0014936D01*
X0106000Y0043836D01*
X0107330Y0043836D01*
X0108653Y0044384D01*
X0109666Y0045397D01*
X0110214Y0046720D01*
X0110214Y0048152D01*
X0109666Y0049475D01*
X0108653Y0050488D01*
X0107330Y0051036D01*
X0105898Y0051036D01*
X0104575Y0050488D01*
X0103562Y0049475D01*
X0103014Y0048152D01*
X0103014Y0046720D01*
X0103552Y0045422D01*
X0022288Y0044633D01*
X0023052Y0045397D01*
X0023600Y0046720D01*
X0023600Y0048152D01*
X0023052Y0049475D01*
X0022039Y0050488D01*
X0020716Y0051036D01*
X0019284Y0051036D01*
X0017961Y0050488D01*
X0016948Y0049475D01*
X0016400Y0048152D01*
X0016400Y0046720D01*
X0016948Y0045397D01*
X0017756Y0044589D01*
X0003500Y0044451D01*
X0003500Y0173936D01*
X0123500Y0173936D01*
X0123500Y0144939D01*
X0123500Y0145238D02*
X0003500Y0145238D01*
X0003500Y0144240D02*
X0123790Y0144240D01*
X0124000Y0143241D02*
X0003500Y0143241D01*
X0003500Y0142243D02*
X0124000Y0142243D01*
X0124000Y0141244D02*
X0003500Y0141244D01*
X0003500Y0140246D02*
X0124000Y0140246D01*
X0124000Y0139247D02*
X0003500Y0139247D01*
X0003500Y0138249D02*
X0124000Y0138249D01*
X0124000Y0137250D02*
X0003500Y0137250D01*
X0003500Y0136252D02*
X0124000Y0136252D01*
X0124000Y0135253D02*
X0003500Y0135253D01*
X0003500Y0134255D02*
X0124000Y0134255D01*
X0124000Y0133256D02*
X0003500Y0133256D01*
X0003500Y0132258D02*
X0124000Y0132258D01*
X0124000Y0131259D02*
X0003500Y0131259D01*
X0003500Y0130261D02*
X0124000Y0130261D01*
X0124000Y0129262D02*
X0003500Y0129262D01*
X0003500Y0128264D02*
X0124000Y0128264D01*
X0124000Y0127265D02*
X0003500Y0127265D01*
X0003500Y0126267D02*
X0124000Y0126267D01*
X0124000Y0125268D02*
X0003500Y0125268D01*
X0003500Y0124269D02*
X0124000Y0124269D01*
X0124000Y0123271D02*
X0003500Y0123271D01*
X0003500Y0122272D02*
X0106070Y0122272D01*
X0106220Y0122302D02*
X0105447Y0122149D01*
X0104719Y0121847D01*
X0104064Y0121409D01*
X0103507Y0120852D01*
X0103069Y0120197D01*
X0102768Y0119469D01*
X0102614Y0118696D01*
X0102614Y0118590D01*
X0106327Y0118590D01*
X0106327Y0122302D01*
X0106220Y0122302D01*
X0106327Y0122272D02*
X0106902Y0122272D01*
X0106902Y0122302D02*
X0107008Y0122302D01*
X0107781Y0122149D01*
X0108509Y0121847D01*
X0109164Y0121409D01*
X0109721Y0120852D01*
X0110159Y0120197D01*
X0110460Y0119469D01*
X0110614Y0118696D01*
X0110614Y0118590D01*
X0106902Y0118590D01*
X0106902Y0118015D01*
X0110614Y0118015D01*
X0110614Y0117908D01*
X0110460Y0117136D01*
X0110159Y0116408D01*
X0109721Y0115753D01*
X0109164Y0115195D01*
X0108509Y0114758D01*
X0107781Y0114456D01*
X0107008Y0114302D01*
X0106902Y0114302D01*
X0106902Y0118015D01*
X0106327Y0118015D01*
X0106327Y0114302D01*
X0106220Y0114302D01*
X0105447Y0114456D01*
X0104719Y0114758D01*
X0104064Y0115195D01*
X0103507Y0115753D01*
X0103069Y0116408D01*
X0102768Y0117136D01*
X0102614Y0117908D01*
X0102614Y0118015D01*
X0106327Y0118015D01*
X0106327Y0118590D01*
X0106902Y0118590D01*
X0106902Y0122302D01*
X0107158Y0122272D02*
X0123640Y0122272D01*
X0123500Y0121274D02*
X0109299Y0121274D01*
X0110107Y0120275D02*
X0123500Y0120275D01*
X0123500Y0119277D02*
X0110499Y0119277D01*
X0110489Y0117280D02*
X0123500Y0117280D01*
X0123500Y0118278D02*
X0106902Y0118278D01*
X0106327Y0118278D02*
X0023600Y0118278D01*
X0023600Y0117586D02*
X0023052Y0116263D01*
X0022039Y0115250D01*
X0020716Y0114702D01*
X0019284Y0114702D01*
X0017961Y0115250D01*
X0016948Y0116263D01*
X0016400Y0117586D01*
X0016400Y0119018D01*
X0016948Y0120342D01*
X0017961Y0121354D01*
X0019284Y0121902D01*
X0020716Y0121902D01*
X0022039Y0121354D01*
X0023052Y0120342D01*
X0023600Y0119018D01*
X0023600Y0117586D01*
X0023473Y0117280D02*
X0102739Y0117280D01*
X0103154Y0116281D02*
X0023059Y0116281D01*
X0022072Y0115283D02*
X0103977Y0115283D01*
X0104575Y0113480D02*
X0103562Y0112468D01*
X0103014Y0111144D01*
X0103014Y0109712D01*
X0103562Y0108389D01*
X0104575Y0107376D01*
X0105898Y0106828D01*
X0107330Y0106828D01*
X0108653Y0107376D01*
X0109666Y0108389D01*
X0110214Y0109712D01*
X0110214Y0111144D01*
X0109666Y0112468D01*
X0108653Y0113480D01*
X0107330Y0114028D01*
X0105898Y0114028D01*
X0104575Y0113480D01*
X0104381Y0113286D02*
X0022234Y0113286D01*
X0022039Y0113480D02*
X0020716Y0114028D01*
X0019284Y0114028D01*
X0017961Y0113480D01*
X0016948Y0112468D01*
X0016400Y0111144D01*
X0016400Y0109712D01*
X0016948Y0108389D01*
X0017961Y0107376D01*
X0019284Y0106828D01*
X0020716Y0106828D01*
X0022039Y0107376D01*
X0023052Y0108389D01*
X0023600Y0109712D01*
X0023600Y0111144D01*
X0023052Y0112468D01*
X0022039Y0113480D01*
X0023127Y0112287D02*
X0103488Y0112287D01*
X0103074Y0111289D02*
X0023540Y0111289D01*
X0023600Y0110290D02*
X0103014Y0110290D01*
X0103188Y0109292D02*
X0023426Y0109292D01*
X0022956Y0108293D02*
X0103658Y0108293D01*
X0104772Y0107295D02*
X0021842Y0107295D01*
X0020716Y0106154D02*
X0019284Y0106154D01*
X0017961Y0105606D01*
X0016948Y0104594D01*
X0016400Y0103270D01*
X0016400Y0101838D01*
X0016948Y0100515D01*
X0017961Y0099502D01*
X0019284Y0098954D01*
X0020716Y0098954D01*
X0022039Y0099502D01*
X0023052Y0100515D01*
X0023600Y0101838D01*
X0023600Y0103270D01*
X0023052Y0104594D01*
X0022039Y0105606D01*
X0020716Y0106154D01*
X0022348Y0105298D02*
X0104266Y0105298D01*
X0104575Y0105606D02*
X0103562Y0104594D01*
X0103014Y0103270D01*
X0103014Y0101838D01*
X0103562Y0100515D01*
X0104575Y0099502D01*
X0105898Y0098954D01*
X0107330Y0098954D01*
X0108653Y0099502D01*
X0109666Y0100515D01*
X0110214Y0101838D01*
X0110214Y0103270D01*
X0109666Y0104594D01*
X0108653Y0105606D01*
X0107330Y0106154D01*
X0105898Y0106154D01*
X0104575Y0105606D01*
X0103440Y0104299D02*
X0023174Y0104299D01*
X0023587Y0103301D02*
X0103027Y0103301D01*
X0103014Y0102302D02*
X0023600Y0102302D01*
X0023379Y0101304D02*
X0103236Y0101304D01*
X0103772Y0100305D02*
X0022842Y0100305D01*
X0021567Y0099307D02*
X0105047Y0099307D01*
X0105898Y0098280D02*
X0104575Y0097732D01*
X0103562Y0096720D01*
X0103014Y0095396D01*
X0103014Y0093964D01*
X0103562Y0092641D01*
X0104575Y0091628D01*
X0105898Y0091080D01*
X0107330Y0091080D01*
X0108653Y0091628D01*
X0109666Y0092641D01*
X0110214Y0093964D01*
X0110214Y0095396D01*
X0109666Y0096720D01*
X0108653Y0097732D01*
X0107330Y0098280D01*
X0105898Y0098280D01*
X0104152Y0097310D02*
X0023027Y0097310D01*
X0023107Y0097230D02*
X0022550Y0097787D01*
X0021895Y0098225D01*
X0021167Y0098527D01*
X0020394Y0098680D01*
X0020287Y0098680D01*
X0020287Y0094968D01*
X0019713Y0094968D01*
X0019713Y0098680D01*
X0019606Y0098680D01*
X0018833Y0098527D01*
X0018105Y0098225D01*
X0017450Y0097787D01*
X0016893Y0097230D01*
X0016455Y0096575D01*
X0016154Y0095847D01*
X0016000Y0095074D01*
X0016000Y0094968D01*
X0019713Y0094968D01*
X0019713Y0094393D01*
X0020287Y0094393D01*
X0020287Y0090680D01*
X0020394Y0090680D01*
X0021167Y0090834D01*
X0021895Y0091136D01*
X0022550Y0091573D01*
X0023107Y0092130D01*
X0023545Y0092786D01*
X0023846Y0093514D01*
X0024000Y0094286D01*
X0024000Y0094393D01*
X0020287Y0094393D01*
X0020287Y0094968D01*
X0024000Y0094968D01*
X0024000Y0095074D01*
X0023846Y0095847D01*
X0023545Y0096575D01*
X0023107Y0097230D01*
X0023654Y0096311D02*
X0103393Y0096311D01*
X0103014Y0095313D02*
X0023953Y0095313D01*
X0024000Y0094314D02*
X0103014Y0094314D01*
X0103283Y0093316D02*
X0023764Y0093316D01*
X0023232Y0092317D02*
X0103886Y0092317D01*
X0105323Y0091319D02*
X0022169Y0091319D01*
X0022039Y0089858D02*
X0020716Y0090406D01*
X0019284Y0090406D01*
X0017961Y0089858D01*
X0016948Y0088846D01*
X0016400Y0087522D01*
X0016400Y0086090D01*
X0016948Y0084767D01*
X0017961Y0083754D01*
X0019284Y0083206D01*
X0020716Y0083206D01*
X0022039Y0083754D01*
X0023052Y0084767D01*
X0023600Y0086090D01*
X0023600Y0087522D01*
X0023052Y0088846D01*
X0022039Y0089858D01*
X0022576Y0089322D02*
X0104038Y0089322D01*
X0103562Y0088846D02*
X0104575Y0089858D01*
X0105898Y0090406D01*
X0107330Y0090406D01*
X0108653Y0089858D01*
X0109666Y0088846D01*
X0110214Y0087522D01*
X0110214Y0086090D01*
X0109666Y0084767D01*
X0108653Y0083754D01*
X0107330Y0083206D01*
X0105898Y0083206D01*
X0104575Y0083754D01*
X0103562Y0084767D01*
X0103014Y0086090D01*
X0103014Y0087522D01*
X0103562Y0088846D01*
X0103346Y0088323D02*
X0023268Y0088323D01*
X0023600Y0087325D02*
X0103014Y0087325D01*
X0103014Y0086326D02*
X0023600Y0086326D01*
X0023284Y0085328D02*
X0103330Y0085328D01*
X0104000Y0084329D02*
X0022614Y0084329D01*
X0021016Y0083331D02*
X0105598Y0083331D01*
X0105898Y0082532D02*
X0104575Y0081984D01*
X0103562Y0080972D01*
X0103014Y0079648D01*
X0103014Y0078216D01*
X0103562Y0076893D01*
X0104575Y0075880D01*
X0105898Y0075332D01*
X0107330Y0075332D01*
X0108653Y0075880D01*
X0109666Y0076893D01*
X0110214Y0078216D01*
X0110214Y0079648D01*
X0109666Y0080972D01*
X0108653Y0081984D01*
X0107330Y0082532D01*
X0105898Y0082532D01*
X0105415Y0082332D02*
X0021200Y0082332D01*
X0020716Y0082532D02*
X0019284Y0082532D01*
X0017961Y0081984D01*
X0016948Y0080972D01*
X0016400Y0079648D01*
X0016400Y0078216D01*
X0016948Y0076893D01*
X0017961Y0075880D01*
X0019284Y0075332D01*
X0020716Y0075332D01*
X0022039Y0075880D01*
X0023052Y0076893D01*
X0023600Y0078216D01*
X0023600Y0079648D01*
X0023052Y0080972D01*
X0022039Y0081984D01*
X0020716Y0082532D01*
X0018984Y0083331D02*
X0003500Y0083331D01*
X0003500Y0084329D02*
X0017386Y0084329D01*
X0016716Y0085328D02*
X0003500Y0085328D01*
X0003500Y0086326D02*
X0016400Y0086326D01*
X0016400Y0087325D02*
X0003500Y0087325D01*
X0003500Y0088323D02*
X0016732Y0088323D01*
X0017424Y0089322D02*
X0003500Y0089322D01*
X0003500Y0090320D02*
X0019076Y0090320D01*
X0018833Y0090834D02*
X0019606Y0090680D01*
X0019713Y0090680D01*
X0019713Y0094393D01*
X0016000Y0094393D01*
X0016000Y0094286D01*
X0016154Y0093514D01*
X0016455Y0092786D01*
X0016893Y0092130D01*
X0017450Y0091573D01*
X0018105Y0091136D01*
X0018833Y0090834D01*
X0019713Y0091319D02*
X0020287Y0091319D01*
X0020287Y0092317D02*
X0019713Y0092317D01*
X0019713Y0093316D02*
X0020287Y0093316D01*
X0020287Y0094314D02*
X0019713Y0094314D01*
X0019713Y0095313D02*
X0020287Y0095313D01*
X0020287Y0096311D02*
X0019713Y0096311D01*
X0019713Y0097310D02*
X0020287Y0097310D01*
X0020287Y0098308D02*
X0019713Y0098308D01*
X0018306Y0098308D02*
X0003500Y0098308D01*
X0003500Y0097310D02*
X0016973Y0097310D01*
X0016346Y0096311D02*
X0003500Y0096311D01*
X0003500Y0095313D02*
X0016047Y0095313D01*
X0016000Y0094314D02*
X0003500Y0094314D01*
X0003500Y0093316D02*
X0016236Y0093316D01*
X0016768Y0092317D02*
X0003500Y0092317D01*
X0003500Y0091319D02*
X0017831Y0091319D01*
X0020924Y0090320D02*
X0105690Y0090320D01*
X0107538Y0090320D02*
X0123500Y0090320D01*
X0123500Y0089322D02*
X0109190Y0089322D01*
X0109883Y0088323D02*
X0123500Y0088323D01*
X0123500Y0087325D02*
X0110214Y0087325D01*
X0110214Y0086326D02*
X0123500Y0086326D01*
X0123500Y0085328D02*
X0109898Y0085328D01*
X0109228Y0084329D02*
X0123500Y0084329D01*
X0123500Y0083331D02*
X0107630Y0083331D01*
X0107814Y0082332D02*
X0123500Y0082332D01*
X0123500Y0081334D02*
X0109304Y0081334D01*
X0109930Y0080335D02*
X0123500Y0080335D01*
X0123500Y0079336D02*
X0110214Y0079336D01*
X0110214Y0078338D02*
X0123500Y0078338D01*
X0123500Y0077339D02*
X0109851Y0077339D01*
X0109114Y0076341D02*
X0123500Y0076341D01*
X0123500Y0075342D02*
X0107355Y0075342D01*
X0107330Y0074658D02*
X0105898Y0074658D01*
X0104575Y0074110D01*
X0103562Y0073098D01*
X0103014Y0071774D01*
X0103014Y0070342D01*
X0103562Y0069019D01*
X0104575Y0068006D01*
X0105898Y0067458D01*
X0107330Y0067458D01*
X0108653Y0068006D01*
X0109666Y0069019D01*
X0110214Y0070342D01*
X0110214Y0071774D01*
X0109666Y0073098D01*
X0108653Y0074110D01*
X0107330Y0074658D01*
X0108089Y0074344D02*
X0123500Y0074344D01*
X0123500Y0073345D02*
X0109418Y0073345D01*
X0109977Y0072347D02*
X0123500Y0072347D01*
X0123500Y0071348D02*
X0110214Y0071348D01*
X0110214Y0070350D02*
X0123500Y0070350D01*
X0123500Y0069351D02*
X0109804Y0069351D01*
X0109000Y0068353D02*
X0123500Y0068353D01*
X0123500Y0067354D02*
X0003500Y0067354D01*
X0003500Y0066356D02*
X0018250Y0066356D01*
X0017961Y0066236D02*
X0016948Y0065223D01*
X0016400Y0063900D01*
X0016400Y0062468D01*
X0016948Y0061145D01*
X0017961Y0060132D01*
X0019284Y0059584D01*
X0020716Y0059584D01*
X0022039Y0060132D01*
X0023052Y0061145D01*
X0023600Y0062468D01*
X0023600Y0063900D01*
X0023052Y0065223D01*
X0022039Y0066236D01*
X0020716Y0066784D01*
X0019284Y0066784D01*
X0017961Y0066236D01*
X0017082Y0065357D02*
X0003500Y0065357D01*
X0003500Y0064359D02*
X0016590Y0064359D01*
X0016400Y0063360D02*
X0003500Y0063360D01*
X0003500Y0062362D02*
X0016444Y0062362D01*
X0016858Y0061363D02*
X0003500Y0061363D01*
X0003500Y0060365D02*
X0017728Y0060365D01*
X0017974Y0058368D02*
X0003500Y0058368D01*
X0003500Y0059366D02*
X0124000Y0059366D01*
X0124000Y0058368D02*
X0108640Y0058368D01*
X0108653Y0058362D02*
X0107330Y0058910D01*
X0105898Y0058910D01*
X0104575Y0058362D01*
X0103562Y0057349D01*
X0103014Y0056026D01*
X0103014Y0054594D01*
X0103562Y0053271D01*
X0104575Y0052258D01*
X0105898Y0051710D01*
X0107330Y0051710D01*
X0108653Y0052258D01*
X0109666Y0053271D01*
X0110214Y0054594D01*
X0110214Y0056026D01*
X0109666Y0057349D01*
X0108653Y0058362D01*
X0109646Y0057369D02*
X0124000Y0057369D01*
X0124000Y0056371D02*
X0110072Y0056371D01*
X0110214Y0055372D02*
X0124000Y0055372D01*
X0124000Y0054374D02*
X0110123Y0054374D01*
X0109709Y0053375D02*
X0124000Y0053375D01*
X0124000Y0052377D02*
X0108772Y0052377D01*
X0108762Y0050380D02*
X0124000Y0050380D01*
X0124000Y0051378D02*
X0003500Y0051378D01*
X0003500Y0050380D02*
X0017852Y0050380D01*
X0016909Y0049381D02*
X0003500Y0049381D01*
X0003500Y0048383D02*
X0016495Y0048383D01*
X0016400Y0047384D02*
X0003500Y0047384D01*
X0003500Y0046386D02*
X0016539Y0046386D01*
X0016958Y0045387D02*
X0003500Y0045387D01*
X0003500Y0052377D02*
X0017842Y0052377D01*
X0017961Y0052258D02*
X0019284Y0051710D01*
X0020716Y0051710D01*
X0022039Y0052258D01*
X0023052Y0053271D01*
X0023600Y0054594D01*
X0023600Y0056026D01*
X0023052Y0057349D01*
X0022039Y0058362D01*
X0020716Y0058910D01*
X0019284Y0058910D01*
X0017961Y0058362D01*
X0016948Y0057349D01*
X0016400Y0056026D01*
X0016400Y0054594D01*
X0016948Y0053271D01*
X0017961Y0052258D01*
X0016905Y0053375D02*
X0003500Y0053375D01*
X0003500Y0054374D02*
X0016491Y0054374D01*
X0016400Y0055372D02*
X0003500Y0055372D01*
X0003500Y0056371D02*
X0016543Y0056371D01*
X0016968Y0057369D02*
X0003500Y0057369D01*
X0003500Y0068353D02*
X0017614Y0068353D01*
X0017961Y0068006D02*
X0016948Y0069019D01*
X0016400Y0070342D01*
X0016400Y0071774D01*
X0016948Y0073098D01*
X0017961Y0074110D01*
X0019284Y0074658D01*
X0020716Y0074658D01*
X0022039Y0074110D01*
X0023052Y0073098D01*
X0023600Y0071774D01*
X0023600Y0070342D01*
X0023052Y0069019D01*
X0022039Y0068006D01*
X0020716Y0067458D01*
X0019284Y0067458D01*
X0017961Y0068006D01*
X0016810Y0069351D02*
X0003500Y0069351D01*
X0003500Y0070350D02*
X0016400Y0070350D01*
X0016400Y0071348D02*
X0003500Y0071348D01*
X0003500Y0072347D02*
X0016637Y0072347D01*
X0017196Y0073345D02*
X0003500Y0073345D01*
X0003500Y0074344D02*
X0018525Y0074344D01*
X0019259Y0075342D02*
X0003500Y0075342D01*
X0003500Y0076341D02*
X0017500Y0076341D01*
X0016763Y0077339D02*
X0003500Y0077339D01*
X0003500Y0078338D02*
X0016400Y0078338D01*
X0016400Y0079336D02*
X0003500Y0079336D01*
X0003500Y0080335D02*
X0016684Y0080335D01*
X0017310Y0081334D02*
X0003500Y0081334D01*
X0003500Y0082332D02*
X0018800Y0082332D01*
X0022690Y0081334D02*
X0103924Y0081334D01*
X0103299Y0080335D02*
X0023316Y0080335D01*
X0023600Y0079336D02*
X0103014Y0079336D01*
X0103014Y0078338D02*
X0023600Y0078338D01*
X0023237Y0077339D02*
X0103377Y0077339D01*
X0104114Y0076341D02*
X0022500Y0076341D01*
X0020741Y0075342D02*
X0105874Y0075342D01*
X0105139Y0074344D02*
X0021475Y0074344D01*
X0022804Y0073345D02*
X0103810Y0073345D01*
X0103251Y0072347D02*
X0023363Y0072347D01*
X0023600Y0071348D02*
X0103014Y0071348D01*
X0103014Y0070350D02*
X0023600Y0070350D01*
X0023190Y0069351D02*
X0103425Y0069351D01*
X0104228Y0068353D02*
X0022386Y0068353D01*
X0021750Y0066356D02*
X0104864Y0066356D01*
X0104575Y0066236D02*
X0103562Y0065223D01*
X0103014Y0063900D01*
X0103014Y0062468D01*
X0103562Y0061145D01*
X0104575Y0060132D01*
X0105898Y0059584D01*
X0107330Y0059584D01*
X0108653Y0060132D01*
X0109666Y0061145D01*
X0110214Y0062468D01*
X0110214Y0063900D01*
X0109666Y0065223D01*
X0108653Y0066236D01*
X0107330Y0066784D01*
X0105898Y0066784D01*
X0104575Y0066236D01*
X0103696Y0065357D02*
X0022918Y0065357D01*
X0023410Y0064359D02*
X0103204Y0064359D01*
X0103014Y0063360D02*
X0023600Y0063360D01*
X0023556Y0062362D02*
X0103058Y0062362D01*
X0103472Y0061363D02*
X0023142Y0061363D01*
X0022272Y0060365D02*
X0104342Y0060365D01*
X0104588Y0058368D02*
X0022026Y0058368D01*
X0023032Y0057369D02*
X0103582Y0057369D01*
X0103157Y0056371D02*
X0023457Y0056371D01*
X0023600Y0055372D02*
X0103014Y0055372D01*
X0103105Y0054374D02*
X0023509Y0054374D01*
X0023095Y0053375D02*
X0103519Y0053375D01*
X0104457Y0052377D02*
X0022158Y0052377D01*
X0022148Y0050380D02*
X0104466Y0050380D01*
X0103523Y0049381D02*
X0023091Y0049381D01*
X0023505Y0048383D02*
X0103110Y0048383D01*
X0103014Y0047384D02*
X0023600Y0047384D01*
X0023461Y0046386D02*
X0103153Y0046386D01*
X0099936Y0045387D02*
X0023042Y0045387D01*
X0021694Y0098308D02*
X0123500Y0098308D01*
X0123500Y0097310D02*
X0109076Y0097310D01*
X0109835Y0096311D02*
X0123500Y0096311D01*
X0123500Y0095313D02*
X0110214Y0095313D01*
X0110214Y0094314D02*
X0123500Y0094314D01*
X0123500Y0093316D02*
X0109945Y0093316D01*
X0109342Y0092317D02*
X0123500Y0092317D01*
X0123500Y0091319D02*
X0107906Y0091319D01*
X0108181Y0099307D02*
X0123500Y0099307D01*
X0123500Y0100305D02*
X0109456Y0100305D01*
X0109993Y0101304D02*
X0123500Y0101304D01*
X0123500Y0102302D02*
X0110214Y0102302D01*
X0110202Y0103301D02*
X0123500Y0103301D01*
X0123500Y0104299D02*
X0109788Y0104299D01*
X0108962Y0105298D02*
X0123500Y0105298D01*
X0123500Y0106296D02*
X0003500Y0106296D01*
X0003500Y0105298D02*
X0017652Y0105298D01*
X0016826Y0104299D02*
X0003500Y0104299D01*
X0003500Y0103301D02*
X0016413Y0103301D01*
X0016400Y0102302D02*
X0003500Y0102302D01*
X0003500Y0101304D02*
X0016621Y0101304D01*
X0017158Y0100305D02*
X0003500Y0100305D01*
X0003500Y0099307D02*
X0018433Y0099307D01*
X0018158Y0107295D02*
X0003500Y0107295D01*
X0003500Y0108293D02*
X0017044Y0108293D01*
X0016574Y0109292D02*
X0003500Y0109292D01*
X0003500Y0110290D02*
X0016400Y0110290D01*
X0016460Y0111289D02*
X0003500Y0111289D01*
X0003500Y0112287D02*
X0016873Y0112287D01*
X0017766Y0113286D02*
X0003500Y0113286D01*
X0003500Y0114284D02*
X0123500Y0114284D01*
X0123500Y0113286D02*
X0108848Y0113286D01*
X0109741Y0112287D02*
X0123500Y0112287D01*
X0123500Y0111289D02*
X0110154Y0111289D01*
X0110214Y0110290D02*
X0123500Y0110290D01*
X0123500Y0109292D02*
X0110040Y0109292D01*
X0109570Y0108293D02*
X0123500Y0108293D01*
X0123500Y0107295D02*
X0108456Y0107295D01*
X0109252Y0115283D02*
X0123500Y0115283D01*
X0123500Y0116281D02*
X0110075Y0116281D01*
X0106902Y0116281D02*
X0106327Y0116281D01*
X0106327Y0115283D02*
X0106902Y0115283D01*
X0106902Y0117280D02*
X0106327Y0117280D01*
X0106327Y0119277D02*
X0106902Y0119277D01*
X0106902Y0120275D02*
X0106327Y0120275D01*
X0106327Y0121274D02*
X0106902Y0121274D01*
X0103929Y0121274D02*
X0022120Y0121274D01*
X0023079Y0120275D02*
X0103122Y0120275D01*
X0102730Y0119277D02*
X0023493Y0119277D01*
X0017880Y0121274D02*
X0003500Y0121274D01*
X0003500Y0120275D02*
X0016921Y0120275D01*
X0016507Y0119277D02*
X0003500Y0119277D01*
X0003500Y0118278D02*
X0016400Y0118278D01*
X0016527Y0117280D02*
X0003500Y0117280D01*
X0003500Y0116281D02*
X0016940Y0116281D01*
X0017928Y0115283D02*
X0003500Y0115283D01*
X0003500Y0146237D02*
X0123500Y0146237D01*
X0123500Y0147235D02*
X0003500Y0147235D01*
X0003500Y0148234D02*
X0123500Y0148234D01*
X0123500Y0149232D02*
X0003500Y0149232D01*
X0003500Y0150231D02*
X0123500Y0150231D01*
X0123500Y0151229D02*
X0003500Y0151229D01*
X0003500Y0152228D02*
X0123500Y0152228D01*
X0123500Y0153226D02*
X0003500Y0153226D01*
X0003500Y0154225D02*
X0123500Y0154225D01*
X0123500Y0155223D02*
X0003500Y0155223D01*
X0003500Y0156222D02*
X0123500Y0156222D01*
X0123500Y0157220D02*
X0117115Y0157220D01*
X0116671Y0157036D02*
X0119758Y0158315D01*
X0122121Y0160678D01*
X0123400Y0163765D01*
X0123400Y0167107D01*
X0122121Y0170194D01*
X0119758Y0172557D01*
X0116671Y0173836D01*
X0113329Y0173836D01*
X0110242Y0172557D01*
X0107879Y0170194D01*
X0106600Y0167107D01*
X0106600Y0163765D01*
X0107879Y0160678D01*
X0110242Y0158315D01*
X0113329Y0157036D01*
X0116671Y0157036D01*
X0119526Y0158219D02*
X0123500Y0158219D01*
X0123500Y0159217D02*
X0120661Y0159217D01*
X0121659Y0160216D02*
X0123500Y0160216D01*
X0123500Y0161214D02*
X0122343Y0161214D01*
X0122757Y0162213D02*
X0123500Y0162213D01*
X0123500Y0163211D02*
X0123171Y0163211D01*
X0123400Y0164210D02*
X0123500Y0164210D01*
X0123500Y0165208D02*
X0123400Y0165208D01*
X0123400Y0166207D02*
X0123500Y0166207D01*
X0123500Y0167205D02*
X0123359Y0167205D01*
X0123500Y0168204D02*
X0122946Y0168204D01*
X0122532Y0169202D02*
X0123500Y0169202D01*
X0123500Y0170201D02*
X0122115Y0170201D01*
X0121116Y0171200D02*
X0123500Y0171200D01*
X0123500Y0172198D02*
X0120118Y0172198D01*
X0118215Y0173197D02*
X0123500Y0173197D01*
X0111785Y0173197D02*
X0015215Y0173197D01*
X0016758Y0172557D02*
X0013671Y0173836D01*
X0010329Y0173836D01*
X0007242Y0172557D01*
X0004879Y0170194D01*
X0003600Y0167107D01*
X0003600Y0163765D01*
X0004879Y0160678D01*
X0007242Y0158315D01*
X0010329Y0157036D01*
X0013671Y0157036D01*
X0016758Y0158315D01*
X0019121Y0160678D01*
X0020400Y0163765D01*
X0020400Y0167107D01*
X0019121Y0170194D01*
X0016758Y0172557D01*
X0017118Y0172198D02*
X0109882Y0172198D01*
X0108884Y0171200D02*
X0018116Y0171200D01*
X0019115Y0170201D02*
X0107885Y0170201D01*
X0107468Y0169202D02*
X0019532Y0169202D01*
X0019946Y0168204D02*
X0107054Y0168204D01*
X0106641Y0167205D02*
X0020359Y0167205D01*
X0020400Y0166207D02*
X0106600Y0166207D01*
X0106600Y0165208D02*
X0020400Y0165208D01*
X0020400Y0164210D02*
X0106600Y0164210D01*
X0106829Y0163211D02*
X0020171Y0163211D01*
X0019757Y0162213D02*
X0107243Y0162213D01*
X0107657Y0161214D02*
X0019343Y0161214D01*
X0018659Y0160216D02*
X0108341Y0160216D01*
X0109339Y0159217D02*
X0017661Y0159217D01*
X0016526Y0158219D02*
X0110474Y0158219D01*
X0112885Y0157220D02*
X0014115Y0157220D01*
X0009885Y0157220D02*
X0003500Y0157220D01*
X0003500Y0158219D02*
X0007474Y0158219D01*
X0006339Y0159217D02*
X0003500Y0159217D01*
X0003500Y0160216D02*
X0005341Y0160216D01*
X0004657Y0161214D02*
X0003500Y0161214D01*
X0003500Y0162213D02*
X0004243Y0162213D01*
X0003829Y0163211D02*
X0003500Y0163211D01*
X0003500Y0164210D02*
X0003600Y0164210D01*
X0003600Y0165208D02*
X0003500Y0165208D01*
X0003500Y0166207D02*
X0003600Y0166207D01*
X0003641Y0167205D02*
X0003500Y0167205D01*
X0003500Y0168204D02*
X0004054Y0168204D01*
X0004468Y0169202D02*
X0003500Y0169202D01*
X0003500Y0170201D02*
X0004885Y0170201D01*
X0005884Y0171200D02*
X0003500Y0171200D01*
X0003500Y0172198D02*
X0006882Y0172198D01*
X0008785Y0173197D02*
X0003500Y0173197D01*
X0108365Y0066356D02*
X0123500Y0066356D01*
X0123500Y0065357D02*
X0109532Y0065357D01*
X0110024Y0064359D02*
X0123500Y0064359D01*
X0123500Y0063360D02*
X0110214Y0063360D01*
X0110170Y0062362D02*
X0123500Y0062362D01*
X0123500Y0061363D02*
X0109756Y0061363D01*
X0108886Y0060365D02*
X0123738Y0060365D01*
X0124000Y0049381D02*
X0109705Y0049381D01*
X0110119Y0048383D02*
X0124000Y0048383D01*
X0124000Y0047384D02*
X0110214Y0047384D01*
X0110076Y0046386D02*
X0124000Y0046386D01*
X0124000Y0045387D02*
X0109656Y0045387D01*
X0108658Y0044389D02*
X0124000Y0044389D01*
X0124000Y0043390D02*
X0106000Y0043390D01*
X0106000Y0042392D02*
X0124000Y0042392D01*
X0124000Y0041393D02*
X0106000Y0041393D01*
X0106000Y0040395D02*
X0124000Y0040395D01*
X0124000Y0039396D02*
X0106000Y0039396D01*
X0106000Y0038398D02*
X0124000Y0038398D01*
X0124000Y0037399D02*
X0106000Y0037399D01*
X0106000Y0036400D02*
X0123693Y0036400D01*
X0123500Y0035402D02*
X0106000Y0035402D01*
X0106000Y0034403D02*
X0123500Y0034403D01*
X0123500Y0033405D02*
X0106000Y0033405D01*
X0106000Y0032406D02*
X0123500Y0032406D01*
X0123500Y0031408D02*
X0106000Y0031408D01*
X0106000Y0030409D02*
X0123500Y0030409D01*
X0123500Y0029411D02*
X0120698Y0029411D01*
X0122903Y0028412D02*
X0123500Y0028412D01*
X0115302Y0029411D02*
X0106000Y0029411D01*
X0106000Y0028412D02*
X0113097Y0028412D01*
X0112098Y0027414D02*
X0106000Y0027414D01*
X0106000Y0026415D02*
X0111100Y0026415D01*
X0110557Y0025417D02*
X0106000Y0025417D01*
X0106000Y0024418D02*
X0110143Y0024418D01*
X0109730Y0023420D02*
X0106000Y0023420D01*
X0106000Y0022421D02*
X0109600Y0022421D01*
X0109600Y0021423D02*
X0106000Y0021423D01*
X0106000Y0020424D02*
X0109600Y0020424D01*
X0109741Y0019426D02*
X0106000Y0019426D01*
X0106000Y0018427D02*
X0110154Y0018427D01*
X0110568Y0017429D02*
X0106000Y0017429D01*
X0106000Y0016430D02*
X0111127Y0016430D01*
X0112125Y0015432D02*
X0106000Y0015432D01*
M02*
