%
M48
M72
T01C0.01200
T02C0.03150
T03C0.03622
T04C0.03937
T05C0.05315
T06C0.06299
T07C0.11800
T08C0.11811
T09C0.12598
%
T01
X142800Y106236
X150763Y120673
X148600Y123036
X149200Y133036
X142800Y132636
X148600Y141036
X157400Y122836
X165061Y125236
X173000Y123036
X171100Y118636
X172139Y108697
X172661Y104576
X161000Y111036
X162200Y90636
X193200Y68236
X175800Y43236
X156400Y43236
X146000Y48236
X145400Y33436
X148400Y26236
X144400Y18436
X190260Y133082
X190883Y144236
X195400Y144036
X190565Y152872
X187200Y164036
X180000Y167636
X177861Y172330
X174661Y173097
X171139Y171976
X170700Y166836
X165000Y167036
X168000Y159636
X152819Y163036
X152919Y166436
X153000Y177036
X151400Y180836
X152600Y190036
X157400Y190436
X164413Y179468
X168739Y182097
X172061Y181176
X184600Y172236
X191000Y172636
X189539Y176776
X193061Y177497
X190100Y193236
X186500Y194636
X216600Y197636
X220600Y200736
X171200Y136436
X166000Y136236
X179000Y133236
T02
X106614Y118302
X106614Y110428
X106614Y102554
X106614Y94680
X106614Y86806
X106614Y78932
X106614Y71058
X106614Y63184
X106614Y55310
X106614Y47436
X20000Y47436
X20000Y55310
X20000Y63184
X20000Y71058
X20000Y78932
X20000Y86806
X20000Y94680
X20000Y102554
X20000Y110428
X20000Y118302
T03
X161693Y210465
X161693Y218339
X161693Y226213
X161693Y234087
T04
X188536Y231354
X198536Y237338
X228339Y231354
X238339Y237338
X230938Y193046
X220938Y193046
X210938Y193046
X200938Y193046
X205938Y183046
X215938Y183046
X225938Y183046
X195938Y183046
T05
X172402Y209402
X150984Y209402
X150984Y236961
X172402Y236961
T06
X183595Y206216
X243438Y206216
T07
X10000Y21436
X118000Y21436
X115000Y165436
X12000Y165436
T08
X168929Y194348
X240827Y168339
X190827Y111620
T09
X190938Y218046
X235938Y218046
M30
