G75*
%MOIN*%
%OFA0B0*%
%FSLAX25Y25*%
%IPPOS*%
%LPD*%
%AMOC8*
5,1,8,0,0,1.08239X$1,22.5*
%
%ADD10C,0.00000*%
%ADD11C,0.11811*%
%ADD12C,0.10000*%
%ADD13C,0.07000*%
%ADD14R,0.05575X0.02565*%
%ADD15R,0.02756X0.05510*%
%ADD16R,0.03150X0.03543*%
%ADD17R,0.03959X0.04724*%
%ADD18R,0.03800X0.05700*%
%ADD19R,0.04724X0.05906*%
%ADD20R,0.01181X0.02559*%
%ADD21R,0.02559X0.01181*%
%ADD22R,0.06693X0.06693*%
%ADD23R,0.03150X0.07874*%
%ADD24R,0.02200X0.02400*%
%ADD25R,0.05900X0.05900*%
%ADD26C,0.05900*%
%ADD27R,0.02362X0.06102*%
%ADD28R,0.04724X0.07087*%
%ADD29R,0.07000X0.07000*%
%ADD30R,0.01200X0.03600*%
%ADD31R,0.06102X0.02362*%
%ADD32R,0.07087X0.04724*%
%ADD33R,0.05700X0.03800*%
%ADD34C,0.01181*%
%ADD35R,0.05906X0.04331*%
%ADD36R,0.07874X0.01378*%
%ADD37R,0.18110X0.18110*%
%ADD38C,0.06298*%
%ADD39C,0.03800*%
%ADD40R,0.04724X0.03959*%
%ADD41R,0.03600X0.03200*%
%ADD42R,0.00866X0.01378*%
%ADD43R,0.01772X0.00866*%
%ADD44R,0.01378X0.00866*%
%ADD45C,0.06500*%
%ADD46R,0.03800X0.03600*%
%ADD47R,0.01181X0.04724*%
%ADD48R,0.04724X0.01181*%
%ADD49R,0.03200X0.03600*%
%ADD50R,0.03200X0.04200*%
%ADD51R,0.07870X0.03940*%
%ADD52R,0.03500X0.07870*%
%ADD53C,0.03900*%
%ADD54R,0.04331X0.05906*%
D10*
X0001000Y0002150D02*
X0001000Y0367150D01*
X0082000Y0367150D01*
X0082000Y0219150D01*
X0094000Y0219150D01*
X0094000Y0300150D01*
X0247000Y0300150D01*
X0247000Y0265150D01*
X0262000Y0265150D01*
X0262000Y0338150D01*
X0352000Y0338150D01*
X0352000Y0228150D01*
X0247000Y0228150D01*
X0247000Y0188150D01*
X0263000Y0188150D01*
X0263000Y0214150D01*
X0325000Y0214150D01*
X0325000Y0133150D01*
X0263000Y0133150D01*
X0263000Y0163150D01*
X0248000Y0163150D01*
X0248000Y0085150D01*
X0261000Y0085150D01*
X0261000Y0120150D01*
X0341000Y0120150D01*
X0341000Y0001150D01*
X0261000Y0001150D01*
X0261000Y0045150D01*
X0248000Y0045150D01*
X0248000Y0002150D01*
X0094000Y0002150D01*
X0094000Y0026150D01*
X0081000Y0026150D01*
X0081000Y0002150D01*
X0001000Y0002150D01*
X0081000Y0071150D02*
X0081000Y0179150D01*
X0094000Y0179150D01*
X0094000Y0071150D01*
X0081000Y0071150D01*
X0119300Y0018885D02*
X0119302Y0018972D01*
X0119308Y0019059D01*
X0119318Y0019146D01*
X0119332Y0019232D01*
X0119350Y0019317D01*
X0119371Y0019401D01*
X0119397Y0019485D01*
X0119426Y0019567D01*
X0119460Y0019647D01*
X0119496Y0019726D01*
X0119537Y0019803D01*
X0119581Y0019879D01*
X0119628Y0019952D01*
X0119678Y0020023D01*
X0119732Y0020091D01*
X0119789Y0020157D01*
X0119849Y0020221D01*
X0119911Y0020281D01*
X0119977Y0020339D01*
X0120045Y0020393D01*
X0120115Y0020445D01*
X0120188Y0020493D01*
X0120263Y0020538D01*
X0120339Y0020579D01*
X0120418Y0020617D01*
X0120498Y0020651D01*
X0120580Y0020681D01*
X0120663Y0020707D01*
X0120747Y0020730D01*
X0120832Y0020749D01*
X0120918Y0020764D01*
X0121004Y0020775D01*
X0121091Y0020782D01*
X0121178Y0020785D01*
X0121265Y0020784D01*
X0121352Y0020779D01*
X0121439Y0020770D01*
X0121525Y0020757D01*
X0121611Y0020740D01*
X0121695Y0020719D01*
X0121779Y0020695D01*
X0121861Y0020666D01*
X0121942Y0020634D01*
X0122022Y0020598D01*
X0122099Y0020559D01*
X0122175Y0020516D01*
X0122249Y0020469D01*
X0122320Y0020420D01*
X0122389Y0020367D01*
X0122456Y0020310D01*
X0122520Y0020251D01*
X0122581Y0020189D01*
X0122640Y0020125D01*
X0122695Y0020057D01*
X0122747Y0019988D01*
X0122796Y0019916D01*
X0122842Y0019841D01*
X0122884Y0019765D01*
X0122922Y0019687D01*
X0122957Y0019607D01*
X0122989Y0019526D01*
X0123016Y0019443D01*
X0123040Y0019359D01*
X0123060Y0019274D01*
X0123076Y0019189D01*
X0123088Y0019102D01*
X0123096Y0019016D01*
X0123100Y0018929D01*
X0123100Y0018841D01*
X0123096Y0018754D01*
X0123088Y0018668D01*
X0123076Y0018581D01*
X0123060Y0018496D01*
X0123040Y0018411D01*
X0123016Y0018327D01*
X0122989Y0018244D01*
X0122957Y0018163D01*
X0122922Y0018083D01*
X0122884Y0018005D01*
X0122842Y0017929D01*
X0122796Y0017854D01*
X0122747Y0017782D01*
X0122695Y0017713D01*
X0122640Y0017645D01*
X0122581Y0017581D01*
X0122520Y0017519D01*
X0122456Y0017460D01*
X0122389Y0017403D01*
X0122320Y0017350D01*
X0122249Y0017301D01*
X0122175Y0017254D01*
X0122099Y0017211D01*
X0122022Y0017172D01*
X0121942Y0017136D01*
X0121861Y0017104D01*
X0121779Y0017075D01*
X0121695Y0017051D01*
X0121611Y0017030D01*
X0121525Y0017013D01*
X0121439Y0017000D01*
X0121352Y0016991D01*
X0121265Y0016986D01*
X0121178Y0016985D01*
X0121091Y0016988D01*
X0121004Y0016995D01*
X0120918Y0017006D01*
X0120832Y0017021D01*
X0120747Y0017040D01*
X0120663Y0017063D01*
X0120580Y0017089D01*
X0120498Y0017119D01*
X0120418Y0017153D01*
X0120339Y0017191D01*
X0120263Y0017232D01*
X0120188Y0017277D01*
X0120115Y0017325D01*
X0120045Y0017377D01*
X0119977Y0017431D01*
X0119911Y0017489D01*
X0119849Y0017549D01*
X0119789Y0017613D01*
X0119732Y0017679D01*
X0119678Y0017747D01*
X0119628Y0017818D01*
X0119581Y0017891D01*
X0119537Y0017967D01*
X0119496Y0018044D01*
X0119460Y0018123D01*
X0119426Y0018203D01*
X0119397Y0018285D01*
X0119371Y0018369D01*
X0119350Y0018453D01*
X0119332Y0018538D01*
X0119318Y0018624D01*
X0119308Y0018711D01*
X0119302Y0018798D01*
X0119300Y0018885D01*
X0235700Y0008850D02*
X0235702Y0008991D01*
X0235708Y0009132D01*
X0235718Y0009272D01*
X0235732Y0009412D01*
X0235750Y0009552D01*
X0235771Y0009691D01*
X0235797Y0009830D01*
X0235826Y0009968D01*
X0235860Y0010104D01*
X0235897Y0010240D01*
X0235938Y0010375D01*
X0235983Y0010509D01*
X0236032Y0010641D01*
X0236084Y0010772D01*
X0236140Y0010901D01*
X0236200Y0011028D01*
X0236263Y0011154D01*
X0236329Y0011278D01*
X0236400Y0011401D01*
X0236473Y0011521D01*
X0236550Y0011639D01*
X0236630Y0011755D01*
X0236714Y0011868D01*
X0236800Y0011979D01*
X0236890Y0012088D01*
X0236983Y0012194D01*
X0237078Y0012297D01*
X0237177Y0012398D01*
X0237278Y0012496D01*
X0237382Y0012591D01*
X0237489Y0012683D01*
X0237598Y0012772D01*
X0237710Y0012857D01*
X0237824Y0012940D01*
X0237940Y0013020D01*
X0238059Y0013096D01*
X0238180Y0013168D01*
X0238302Y0013238D01*
X0238427Y0013303D01*
X0238553Y0013366D01*
X0238681Y0013424D01*
X0238811Y0013479D01*
X0238942Y0013531D01*
X0239075Y0013578D01*
X0239209Y0013622D01*
X0239344Y0013663D01*
X0239480Y0013699D01*
X0239617Y0013731D01*
X0239755Y0013760D01*
X0239893Y0013785D01*
X0240033Y0013805D01*
X0240173Y0013822D01*
X0240313Y0013835D01*
X0240454Y0013844D01*
X0240594Y0013849D01*
X0240735Y0013850D01*
X0240876Y0013847D01*
X0241017Y0013840D01*
X0241157Y0013829D01*
X0241297Y0013814D01*
X0241437Y0013795D01*
X0241576Y0013773D01*
X0241714Y0013746D01*
X0241852Y0013716D01*
X0241988Y0013681D01*
X0242124Y0013643D01*
X0242258Y0013601D01*
X0242392Y0013555D01*
X0242524Y0013506D01*
X0242654Y0013452D01*
X0242783Y0013395D01*
X0242910Y0013335D01*
X0243036Y0013271D01*
X0243159Y0013203D01*
X0243281Y0013132D01*
X0243401Y0013058D01*
X0243518Y0012980D01*
X0243633Y0012899D01*
X0243746Y0012815D01*
X0243857Y0012728D01*
X0243965Y0012637D01*
X0244070Y0012544D01*
X0244173Y0012447D01*
X0244273Y0012348D01*
X0244370Y0012246D01*
X0244464Y0012141D01*
X0244555Y0012034D01*
X0244643Y0011924D01*
X0244728Y0011812D01*
X0244810Y0011697D01*
X0244889Y0011580D01*
X0244964Y0011461D01*
X0245036Y0011340D01*
X0245104Y0011217D01*
X0245169Y0011092D01*
X0245231Y0010965D01*
X0245288Y0010836D01*
X0245343Y0010706D01*
X0245393Y0010575D01*
X0245440Y0010442D01*
X0245483Y0010308D01*
X0245522Y0010172D01*
X0245557Y0010036D01*
X0245589Y0009899D01*
X0245616Y0009761D01*
X0245640Y0009622D01*
X0245660Y0009482D01*
X0245676Y0009342D01*
X0245688Y0009202D01*
X0245696Y0009061D01*
X0245700Y0008920D01*
X0245700Y0008780D01*
X0245696Y0008639D01*
X0245688Y0008498D01*
X0245676Y0008358D01*
X0245660Y0008218D01*
X0245640Y0008078D01*
X0245616Y0007939D01*
X0245589Y0007801D01*
X0245557Y0007664D01*
X0245522Y0007528D01*
X0245483Y0007392D01*
X0245440Y0007258D01*
X0245393Y0007125D01*
X0245343Y0006994D01*
X0245288Y0006864D01*
X0245231Y0006735D01*
X0245169Y0006608D01*
X0245104Y0006483D01*
X0245036Y0006360D01*
X0244964Y0006239D01*
X0244889Y0006120D01*
X0244810Y0006003D01*
X0244728Y0005888D01*
X0244643Y0005776D01*
X0244555Y0005666D01*
X0244464Y0005559D01*
X0244370Y0005454D01*
X0244273Y0005352D01*
X0244173Y0005253D01*
X0244070Y0005156D01*
X0243965Y0005063D01*
X0243857Y0004972D01*
X0243746Y0004885D01*
X0243633Y0004801D01*
X0243518Y0004720D01*
X0243401Y0004642D01*
X0243281Y0004568D01*
X0243159Y0004497D01*
X0243036Y0004429D01*
X0242910Y0004365D01*
X0242783Y0004305D01*
X0242654Y0004248D01*
X0242524Y0004194D01*
X0242392Y0004145D01*
X0242258Y0004099D01*
X0242124Y0004057D01*
X0241988Y0004019D01*
X0241852Y0003984D01*
X0241714Y0003954D01*
X0241576Y0003927D01*
X0241437Y0003905D01*
X0241297Y0003886D01*
X0241157Y0003871D01*
X0241017Y0003860D01*
X0240876Y0003853D01*
X0240735Y0003850D01*
X0240594Y0003851D01*
X0240454Y0003856D01*
X0240313Y0003865D01*
X0240173Y0003878D01*
X0240033Y0003895D01*
X0239893Y0003915D01*
X0239755Y0003940D01*
X0239617Y0003969D01*
X0239480Y0004001D01*
X0239344Y0004037D01*
X0239209Y0004078D01*
X0239075Y0004122D01*
X0238942Y0004169D01*
X0238811Y0004221D01*
X0238681Y0004276D01*
X0238553Y0004334D01*
X0238427Y0004397D01*
X0238302Y0004462D01*
X0238180Y0004532D01*
X0238059Y0004604D01*
X0237940Y0004680D01*
X0237824Y0004760D01*
X0237710Y0004843D01*
X0237598Y0004928D01*
X0237489Y0005017D01*
X0237382Y0005109D01*
X0237278Y0005204D01*
X0237177Y0005302D01*
X0237078Y0005403D01*
X0236983Y0005506D01*
X0236890Y0005612D01*
X0236800Y0005721D01*
X0236714Y0005832D01*
X0236630Y0005945D01*
X0236550Y0006061D01*
X0236473Y0006179D01*
X0236400Y0006299D01*
X0236329Y0006422D01*
X0236263Y0006546D01*
X0236200Y0006672D01*
X0236140Y0006799D01*
X0236084Y0006928D01*
X0236032Y0007059D01*
X0235983Y0007191D01*
X0235938Y0007325D01*
X0235897Y0007460D01*
X0235860Y0007596D01*
X0235826Y0007732D01*
X0235797Y0007870D01*
X0235771Y0008009D01*
X0235750Y0008148D01*
X0235732Y0008288D01*
X0235718Y0008428D01*
X0235708Y0008568D01*
X0235702Y0008709D01*
X0235700Y0008850D01*
X0263594Y0009650D02*
X0263596Y0009803D01*
X0263602Y0009957D01*
X0263612Y0010110D01*
X0263626Y0010262D01*
X0263644Y0010415D01*
X0263666Y0010566D01*
X0263691Y0010717D01*
X0263721Y0010868D01*
X0263755Y0011018D01*
X0263792Y0011166D01*
X0263833Y0011314D01*
X0263878Y0011460D01*
X0263927Y0011606D01*
X0263980Y0011750D01*
X0264036Y0011892D01*
X0264096Y0012033D01*
X0264160Y0012173D01*
X0264227Y0012311D01*
X0264298Y0012447D01*
X0264373Y0012581D01*
X0264450Y0012713D01*
X0264532Y0012843D01*
X0264616Y0012971D01*
X0264704Y0013097D01*
X0264795Y0013220D01*
X0264889Y0013341D01*
X0264987Y0013459D01*
X0265087Y0013575D01*
X0265191Y0013688D01*
X0265297Y0013799D01*
X0265406Y0013907D01*
X0265518Y0014012D01*
X0265632Y0014113D01*
X0265750Y0014212D01*
X0265869Y0014308D01*
X0265991Y0014401D01*
X0266116Y0014490D01*
X0266243Y0014577D01*
X0266372Y0014659D01*
X0266503Y0014739D01*
X0266636Y0014815D01*
X0266771Y0014888D01*
X0266908Y0014957D01*
X0267047Y0015022D01*
X0267187Y0015084D01*
X0267329Y0015142D01*
X0267472Y0015197D01*
X0267617Y0015248D01*
X0267763Y0015295D01*
X0267910Y0015338D01*
X0268058Y0015377D01*
X0268207Y0015413D01*
X0268357Y0015444D01*
X0268508Y0015472D01*
X0268659Y0015496D01*
X0268812Y0015516D01*
X0268964Y0015532D01*
X0269117Y0015544D01*
X0269270Y0015552D01*
X0269423Y0015556D01*
X0269577Y0015556D01*
X0269730Y0015552D01*
X0269883Y0015544D01*
X0270036Y0015532D01*
X0270188Y0015516D01*
X0270341Y0015496D01*
X0270492Y0015472D01*
X0270643Y0015444D01*
X0270793Y0015413D01*
X0270942Y0015377D01*
X0271090Y0015338D01*
X0271237Y0015295D01*
X0271383Y0015248D01*
X0271528Y0015197D01*
X0271671Y0015142D01*
X0271813Y0015084D01*
X0271953Y0015022D01*
X0272092Y0014957D01*
X0272229Y0014888D01*
X0272364Y0014815D01*
X0272497Y0014739D01*
X0272628Y0014659D01*
X0272757Y0014577D01*
X0272884Y0014490D01*
X0273009Y0014401D01*
X0273131Y0014308D01*
X0273250Y0014212D01*
X0273368Y0014113D01*
X0273482Y0014012D01*
X0273594Y0013907D01*
X0273703Y0013799D01*
X0273809Y0013688D01*
X0273913Y0013575D01*
X0274013Y0013459D01*
X0274111Y0013341D01*
X0274205Y0013220D01*
X0274296Y0013097D01*
X0274384Y0012971D01*
X0274468Y0012843D01*
X0274550Y0012713D01*
X0274627Y0012581D01*
X0274702Y0012447D01*
X0274773Y0012311D01*
X0274840Y0012173D01*
X0274904Y0012033D01*
X0274964Y0011892D01*
X0275020Y0011750D01*
X0275073Y0011606D01*
X0275122Y0011460D01*
X0275167Y0011314D01*
X0275208Y0011166D01*
X0275245Y0011018D01*
X0275279Y0010868D01*
X0275309Y0010717D01*
X0275334Y0010566D01*
X0275356Y0010415D01*
X0275374Y0010262D01*
X0275388Y0010110D01*
X0275398Y0009957D01*
X0275404Y0009803D01*
X0275406Y0009650D01*
X0275404Y0009497D01*
X0275398Y0009343D01*
X0275388Y0009190D01*
X0275374Y0009038D01*
X0275356Y0008885D01*
X0275334Y0008734D01*
X0275309Y0008583D01*
X0275279Y0008432D01*
X0275245Y0008282D01*
X0275208Y0008134D01*
X0275167Y0007986D01*
X0275122Y0007840D01*
X0275073Y0007694D01*
X0275020Y0007550D01*
X0274964Y0007408D01*
X0274904Y0007267D01*
X0274840Y0007127D01*
X0274773Y0006989D01*
X0274702Y0006853D01*
X0274627Y0006719D01*
X0274550Y0006587D01*
X0274468Y0006457D01*
X0274384Y0006329D01*
X0274296Y0006203D01*
X0274205Y0006080D01*
X0274111Y0005959D01*
X0274013Y0005841D01*
X0273913Y0005725D01*
X0273809Y0005612D01*
X0273703Y0005501D01*
X0273594Y0005393D01*
X0273482Y0005288D01*
X0273368Y0005187D01*
X0273250Y0005088D01*
X0273131Y0004992D01*
X0273009Y0004899D01*
X0272884Y0004810D01*
X0272757Y0004723D01*
X0272628Y0004641D01*
X0272497Y0004561D01*
X0272364Y0004485D01*
X0272229Y0004412D01*
X0272092Y0004343D01*
X0271953Y0004278D01*
X0271813Y0004216D01*
X0271671Y0004158D01*
X0271528Y0004103D01*
X0271383Y0004052D01*
X0271237Y0004005D01*
X0271090Y0003962D01*
X0270942Y0003923D01*
X0270793Y0003887D01*
X0270643Y0003856D01*
X0270492Y0003828D01*
X0270341Y0003804D01*
X0270188Y0003784D01*
X0270036Y0003768D01*
X0269883Y0003756D01*
X0269730Y0003748D01*
X0269577Y0003744D01*
X0269423Y0003744D01*
X0269270Y0003748D01*
X0269117Y0003756D01*
X0268964Y0003768D01*
X0268812Y0003784D01*
X0268659Y0003804D01*
X0268508Y0003828D01*
X0268357Y0003856D01*
X0268207Y0003887D01*
X0268058Y0003923D01*
X0267910Y0003962D01*
X0267763Y0004005D01*
X0267617Y0004052D01*
X0267472Y0004103D01*
X0267329Y0004158D01*
X0267187Y0004216D01*
X0267047Y0004278D01*
X0266908Y0004343D01*
X0266771Y0004412D01*
X0266636Y0004485D01*
X0266503Y0004561D01*
X0266372Y0004641D01*
X0266243Y0004723D01*
X0266116Y0004810D01*
X0265991Y0004899D01*
X0265869Y0004992D01*
X0265750Y0005088D01*
X0265632Y0005187D01*
X0265518Y0005288D01*
X0265406Y0005393D01*
X0265297Y0005501D01*
X0265191Y0005612D01*
X0265087Y0005725D01*
X0264987Y0005841D01*
X0264889Y0005959D01*
X0264795Y0006080D01*
X0264704Y0006203D01*
X0264616Y0006329D01*
X0264532Y0006457D01*
X0264450Y0006587D01*
X0264373Y0006719D01*
X0264298Y0006853D01*
X0264227Y0006989D01*
X0264160Y0007127D01*
X0264096Y0007267D01*
X0264036Y0007408D01*
X0263980Y0007550D01*
X0263927Y0007694D01*
X0263878Y0007840D01*
X0263833Y0007986D01*
X0263792Y0008134D01*
X0263755Y0008282D01*
X0263721Y0008432D01*
X0263691Y0008583D01*
X0263666Y0008734D01*
X0263644Y0008885D01*
X0263626Y0009038D01*
X0263612Y0009190D01*
X0263602Y0009343D01*
X0263596Y0009497D01*
X0263594Y0009650D01*
X0325594Y0009650D02*
X0325596Y0009803D01*
X0325602Y0009957D01*
X0325612Y0010110D01*
X0325626Y0010262D01*
X0325644Y0010415D01*
X0325666Y0010566D01*
X0325691Y0010717D01*
X0325721Y0010868D01*
X0325755Y0011018D01*
X0325792Y0011166D01*
X0325833Y0011314D01*
X0325878Y0011460D01*
X0325927Y0011606D01*
X0325980Y0011750D01*
X0326036Y0011892D01*
X0326096Y0012033D01*
X0326160Y0012173D01*
X0326227Y0012311D01*
X0326298Y0012447D01*
X0326373Y0012581D01*
X0326450Y0012713D01*
X0326532Y0012843D01*
X0326616Y0012971D01*
X0326704Y0013097D01*
X0326795Y0013220D01*
X0326889Y0013341D01*
X0326987Y0013459D01*
X0327087Y0013575D01*
X0327191Y0013688D01*
X0327297Y0013799D01*
X0327406Y0013907D01*
X0327518Y0014012D01*
X0327632Y0014113D01*
X0327750Y0014212D01*
X0327869Y0014308D01*
X0327991Y0014401D01*
X0328116Y0014490D01*
X0328243Y0014577D01*
X0328372Y0014659D01*
X0328503Y0014739D01*
X0328636Y0014815D01*
X0328771Y0014888D01*
X0328908Y0014957D01*
X0329047Y0015022D01*
X0329187Y0015084D01*
X0329329Y0015142D01*
X0329472Y0015197D01*
X0329617Y0015248D01*
X0329763Y0015295D01*
X0329910Y0015338D01*
X0330058Y0015377D01*
X0330207Y0015413D01*
X0330357Y0015444D01*
X0330508Y0015472D01*
X0330659Y0015496D01*
X0330812Y0015516D01*
X0330964Y0015532D01*
X0331117Y0015544D01*
X0331270Y0015552D01*
X0331423Y0015556D01*
X0331577Y0015556D01*
X0331730Y0015552D01*
X0331883Y0015544D01*
X0332036Y0015532D01*
X0332188Y0015516D01*
X0332341Y0015496D01*
X0332492Y0015472D01*
X0332643Y0015444D01*
X0332793Y0015413D01*
X0332942Y0015377D01*
X0333090Y0015338D01*
X0333237Y0015295D01*
X0333383Y0015248D01*
X0333528Y0015197D01*
X0333671Y0015142D01*
X0333813Y0015084D01*
X0333953Y0015022D01*
X0334092Y0014957D01*
X0334229Y0014888D01*
X0334364Y0014815D01*
X0334497Y0014739D01*
X0334628Y0014659D01*
X0334757Y0014577D01*
X0334884Y0014490D01*
X0335009Y0014401D01*
X0335131Y0014308D01*
X0335250Y0014212D01*
X0335368Y0014113D01*
X0335482Y0014012D01*
X0335594Y0013907D01*
X0335703Y0013799D01*
X0335809Y0013688D01*
X0335913Y0013575D01*
X0336013Y0013459D01*
X0336111Y0013341D01*
X0336205Y0013220D01*
X0336296Y0013097D01*
X0336384Y0012971D01*
X0336468Y0012843D01*
X0336550Y0012713D01*
X0336627Y0012581D01*
X0336702Y0012447D01*
X0336773Y0012311D01*
X0336840Y0012173D01*
X0336904Y0012033D01*
X0336964Y0011892D01*
X0337020Y0011750D01*
X0337073Y0011606D01*
X0337122Y0011460D01*
X0337167Y0011314D01*
X0337208Y0011166D01*
X0337245Y0011018D01*
X0337279Y0010868D01*
X0337309Y0010717D01*
X0337334Y0010566D01*
X0337356Y0010415D01*
X0337374Y0010262D01*
X0337388Y0010110D01*
X0337398Y0009957D01*
X0337404Y0009803D01*
X0337406Y0009650D01*
X0337404Y0009497D01*
X0337398Y0009343D01*
X0337388Y0009190D01*
X0337374Y0009038D01*
X0337356Y0008885D01*
X0337334Y0008734D01*
X0337309Y0008583D01*
X0337279Y0008432D01*
X0337245Y0008282D01*
X0337208Y0008134D01*
X0337167Y0007986D01*
X0337122Y0007840D01*
X0337073Y0007694D01*
X0337020Y0007550D01*
X0336964Y0007408D01*
X0336904Y0007267D01*
X0336840Y0007127D01*
X0336773Y0006989D01*
X0336702Y0006853D01*
X0336627Y0006719D01*
X0336550Y0006587D01*
X0336468Y0006457D01*
X0336384Y0006329D01*
X0336296Y0006203D01*
X0336205Y0006080D01*
X0336111Y0005959D01*
X0336013Y0005841D01*
X0335913Y0005725D01*
X0335809Y0005612D01*
X0335703Y0005501D01*
X0335594Y0005393D01*
X0335482Y0005288D01*
X0335368Y0005187D01*
X0335250Y0005088D01*
X0335131Y0004992D01*
X0335009Y0004899D01*
X0334884Y0004810D01*
X0334757Y0004723D01*
X0334628Y0004641D01*
X0334497Y0004561D01*
X0334364Y0004485D01*
X0334229Y0004412D01*
X0334092Y0004343D01*
X0333953Y0004278D01*
X0333813Y0004216D01*
X0333671Y0004158D01*
X0333528Y0004103D01*
X0333383Y0004052D01*
X0333237Y0004005D01*
X0333090Y0003962D01*
X0332942Y0003923D01*
X0332793Y0003887D01*
X0332643Y0003856D01*
X0332492Y0003828D01*
X0332341Y0003804D01*
X0332188Y0003784D01*
X0332036Y0003768D01*
X0331883Y0003756D01*
X0331730Y0003748D01*
X0331577Y0003744D01*
X0331423Y0003744D01*
X0331270Y0003748D01*
X0331117Y0003756D01*
X0330964Y0003768D01*
X0330812Y0003784D01*
X0330659Y0003804D01*
X0330508Y0003828D01*
X0330357Y0003856D01*
X0330207Y0003887D01*
X0330058Y0003923D01*
X0329910Y0003962D01*
X0329763Y0004005D01*
X0329617Y0004052D01*
X0329472Y0004103D01*
X0329329Y0004158D01*
X0329187Y0004216D01*
X0329047Y0004278D01*
X0328908Y0004343D01*
X0328771Y0004412D01*
X0328636Y0004485D01*
X0328503Y0004561D01*
X0328372Y0004641D01*
X0328243Y0004723D01*
X0328116Y0004810D01*
X0327991Y0004899D01*
X0327869Y0004992D01*
X0327750Y0005088D01*
X0327632Y0005187D01*
X0327518Y0005288D01*
X0327406Y0005393D01*
X0327297Y0005501D01*
X0327191Y0005612D01*
X0327087Y0005725D01*
X0326987Y0005841D01*
X0326889Y0005959D01*
X0326795Y0006080D01*
X0326704Y0006203D01*
X0326616Y0006329D01*
X0326532Y0006457D01*
X0326450Y0006587D01*
X0326373Y0006719D01*
X0326298Y0006853D01*
X0326227Y0006989D01*
X0326160Y0007127D01*
X0326096Y0007267D01*
X0326036Y0007408D01*
X0325980Y0007550D01*
X0325927Y0007694D01*
X0325878Y0007840D01*
X0325833Y0007986D01*
X0325792Y0008134D01*
X0325755Y0008282D01*
X0325721Y0008432D01*
X0325691Y0008583D01*
X0325666Y0008734D01*
X0325644Y0008885D01*
X0325626Y0009038D01*
X0325612Y0009190D01*
X0325602Y0009343D01*
X0325596Y0009497D01*
X0325594Y0009650D01*
X0265594Y0109650D02*
X0265596Y0109803D01*
X0265602Y0109957D01*
X0265612Y0110110D01*
X0265626Y0110262D01*
X0265644Y0110415D01*
X0265666Y0110566D01*
X0265691Y0110717D01*
X0265721Y0110868D01*
X0265755Y0111018D01*
X0265792Y0111166D01*
X0265833Y0111314D01*
X0265878Y0111460D01*
X0265927Y0111606D01*
X0265980Y0111750D01*
X0266036Y0111892D01*
X0266096Y0112033D01*
X0266160Y0112173D01*
X0266227Y0112311D01*
X0266298Y0112447D01*
X0266373Y0112581D01*
X0266450Y0112713D01*
X0266532Y0112843D01*
X0266616Y0112971D01*
X0266704Y0113097D01*
X0266795Y0113220D01*
X0266889Y0113341D01*
X0266987Y0113459D01*
X0267087Y0113575D01*
X0267191Y0113688D01*
X0267297Y0113799D01*
X0267406Y0113907D01*
X0267518Y0114012D01*
X0267632Y0114113D01*
X0267750Y0114212D01*
X0267869Y0114308D01*
X0267991Y0114401D01*
X0268116Y0114490D01*
X0268243Y0114577D01*
X0268372Y0114659D01*
X0268503Y0114739D01*
X0268636Y0114815D01*
X0268771Y0114888D01*
X0268908Y0114957D01*
X0269047Y0115022D01*
X0269187Y0115084D01*
X0269329Y0115142D01*
X0269472Y0115197D01*
X0269617Y0115248D01*
X0269763Y0115295D01*
X0269910Y0115338D01*
X0270058Y0115377D01*
X0270207Y0115413D01*
X0270357Y0115444D01*
X0270508Y0115472D01*
X0270659Y0115496D01*
X0270812Y0115516D01*
X0270964Y0115532D01*
X0271117Y0115544D01*
X0271270Y0115552D01*
X0271423Y0115556D01*
X0271577Y0115556D01*
X0271730Y0115552D01*
X0271883Y0115544D01*
X0272036Y0115532D01*
X0272188Y0115516D01*
X0272341Y0115496D01*
X0272492Y0115472D01*
X0272643Y0115444D01*
X0272793Y0115413D01*
X0272942Y0115377D01*
X0273090Y0115338D01*
X0273237Y0115295D01*
X0273383Y0115248D01*
X0273528Y0115197D01*
X0273671Y0115142D01*
X0273813Y0115084D01*
X0273953Y0115022D01*
X0274092Y0114957D01*
X0274229Y0114888D01*
X0274364Y0114815D01*
X0274497Y0114739D01*
X0274628Y0114659D01*
X0274757Y0114577D01*
X0274884Y0114490D01*
X0275009Y0114401D01*
X0275131Y0114308D01*
X0275250Y0114212D01*
X0275368Y0114113D01*
X0275482Y0114012D01*
X0275594Y0113907D01*
X0275703Y0113799D01*
X0275809Y0113688D01*
X0275913Y0113575D01*
X0276013Y0113459D01*
X0276111Y0113341D01*
X0276205Y0113220D01*
X0276296Y0113097D01*
X0276384Y0112971D01*
X0276468Y0112843D01*
X0276550Y0112713D01*
X0276627Y0112581D01*
X0276702Y0112447D01*
X0276773Y0112311D01*
X0276840Y0112173D01*
X0276904Y0112033D01*
X0276964Y0111892D01*
X0277020Y0111750D01*
X0277073Y0111606D01*
X0277122Y0111460D01*
X0277167Y0111314D01*
X0277208Y0111166D01*
X0277245Y0111018D01*
X0277279Y0110868D01*
X0277309Y0110717D01*
X0277334Y0110566D01*
X0277356Y0110415D01*
X0277374Y0110262D01*
X0277388Y0110110D01*
X0277398Y0109957D01*
X0277404Y0109803D01*
X0277406Y0109650D01*
X0277404Y0109497D01*
X0277398Y0109343D01*
X0277388Y0109190D01*
X0277374Y0109038D01*
X0277356Y0108885D01*
X0277334Y0108734D01*
X0277309Y0108583D01*
X0277279Y0108432D01*
X0277245Y0108282D01*
X0277208Y0108134D01*
X0277167Y0107986D01*
X0277122Y0107840D01*
X0277073Y0107694D01*
X0277020Y0107550D01*
X0276964Y0107408D01*
X0276904Y0107267D01*
X0276840Y0107127D01*
X0276773Y0106989D01*
X0276702Y0106853D01*
X0276627Y0106719D01*
X0276550Y0106587D01*
X0276468Y0106457D01*
X0276384Y0106329D01*
X0276296Y0106203D01*
X0276205Y0106080D01*
X0276111Y0105959D01*
X0276013Y0105841D01*
X0275913Y0105725D01*
X0275809Y0105612D01*
X0275703Y0105501D01*
X0275594Y0105393D01*
X0275482Y0105288D01*
X0275368Y0105187D01*
X0275250Y0105088D01*
X0275131Y0104992D01*
X0275009Y0104899D01*
X0274884Y0104810D01*
X0274757Y0104723D01*
X0274628Y0104641D01*
X0274497Y0104561D01*
X0274364Y0104485D01*
X0274229Y0104412D01*
X0274092Y0104343D01*
X0273953Y0104278D01*
X0273813Y0104216D01*
X0273671Y0104158D01*
X0273528Y0104103D01*
X0273383Y0104052D01*
X0273237Y0104005D01*
X0273090Y0103962D01*
X0272942Y0103923D01*
X0272793Y0103887D01*
X0272643Y0103856D01*
X0272492Y0103828D01*
X0272341Y0103804D01*
X0272188Y0103784D01*
X0272036Y0103768D01*
X0271883Y0103756D01*
X0271730Y0103748D01*
X0271577Y0103744D01*
X0271423Y0103744D01*
X0271270Y0103748D01*
X0271117Y0103756D01*
X0270964Y0103768D01*
X0270812Y0103784D01*
X0270659Y0103804D01*
X0270508Y0103828D01*
X0270357Y0103856D01*
X0270207Y0103887D01*
X0270058Y0103923D01*
X0269910Y0103962D01*
X0269763Y0104005D01*
X0269617Y0104052D01*
X0269472Y0104103D01*
X0269329Y0104158D01*
X0269187Y0104216D01*
X0269047Y0104278D01*
X0268908Y0104343D01*
X0268771Y0104412D01*
X0268636Y0104485D01*
X0268503Y0104561D01*
X0268372Y0104641D01*
X0268243Y0104723D01*
X0268116Y0104810D01*
X0267991Y0104899D01*
X0267869Y0104992D01*
X0267750Y0105088D01*
X0267632Y0105187D01*
X0267518Y0105288D01*
X0267406Y0105393D01*
X0267297Y0105501D01*
X0267191Y0105612D01*
X0267087Y0105725D01*
X0266987Y0105841D01*
X0266889Y0105959D01*
X0266795Y0106080D01*
X0266704Y0106203D01*
X0266616Y0106329D01*
X0266532Y0106457D01*
X0266450Y0106587D01*
X0266373Y0106719D01*
X0266298Y0106853D01*
X0266227Y0106989D01*
X0266160Y0107127D01*
X0266096Y0107267D01*
X0266036Y0107408D01*
X0265980Y0107550D01*
X0265927Y0107694D01*
X0265878Y0107840D01*
X0265833Y0107986D01*
X0265792Y0108134D01*
X0265755Y0108282D01*
X0265721Y0108432D01*
X0265691Y0108583D01*
X0265666Y0108734D01*
X0265644Y0108885D01*
X0265626Y0109038D01*
X0265612Y0109190D01*
X0265602Y0109343D01*
X0265596Y0109497D01*
X0265594Y0109650D01*
X0267500Y0145150D02*
X0267502Y0145291D01*
X0267508Y0145432D01*
X0267518Y0145572D01*
X0267532Y0145712D01*
X0267550Y0145852D01*
X0267571Y0145991D01*
X0267597Y0146130D01*
X0267626Y0146268D01*
X0267660Y0146404D01*
X0267697Y0146540D01*
X0267738Y0146675D01*
X0267783Y0146809D01*
X0267832Y0146941D01*
X0267884Y0147072D01*
X0267940Y0147201D01*
X0268000Y0147328D01*
X0268063Y0147454D01*
X0268129Y0147578D01*
X0268200Y0147701D01*
X0268273Y0147821D01*
X0268350Y0147939D01*
X0268430Y0148055D01*
X0268514Y0148168D01*
X0268600Y0148279D01*
X0268690Y0148388D01*
X0268783Y0148494D01*
X0268878Y0148597D01*
X0268977Y0148698D01*
X0269078Y0148796D01*
X0269182Y0148891D01*
X0269289Y0148983D01*
X0269398Y0149072D01*
X0269510Y0149157D01*
X0269624Y0149240D01*
X0269740Y0149320D01*
X0269859Y0149396D01*
X0269980Y0149468D01*
X0270102Y0149538D01*
X0270227Y0149603D01*
X0270353Y0149666D01*
X0270481Y0149724D01*
X0270611Y0149779D01*
X0270742Y0149831D01*
X0270875Y0149878D01*
X0271009Y0149922D01*
X0271144Y0149963D01*
X0271280Y0149999D01*
X0271417Y0150031D01*
X0271555Y0150060D01*
X0271693Y0150085D01*
X0271833Y0150105D01*
X0271973Y0150122D01*
X0272113Y0150135D01*
X0272254Y0150144D01*
X0272394Y0150149D01*
X0272535Y0150150D01*
X0272676Y0150147D01*
X0272817Y0150140D01*
X0272957Y0150129D01*
X0273097Y0150114D01*
X0273237Y0150095D01*
X0273376Y0150073D01*
X0273514Y0150046D01*
X0273652Y0150016D01*
X0273788Y0149981D01*
X0273924Y0149943D01*
X0274058Y0149901D01*
X0274192Y0149855D01*
X0274324Y0149806D01*
X0274454Y0149752D01*
X0274583Y0149695D01*
X0274710Y0149635D01*
X0274836Y0149571D01*
X0274959Y0149503D01*
X0275081Y0149432D01*
X0275201Y0149358D01*
X0275318Y0149280D01*
X0275433Y0149199D01*
X0275546Y0149115D01*
X0275657Y0149028D01*
X0275765Y0148937D01*
X0275870Y0148844D01*
X0275973Y0148747D01*
X0276073Y0148648D01*
X0276170Y0148546D01*
X0276264Y0148441D01*
X0276355Y0148334D01*
X0276443Y0148224D01*
X0276528Y0148112D01*
X0276610Y0147997D01*
X0276689Y0147880D01*
X0276764Y0147761D01*
X0276836Y0147640D01*
X0276904Y0147517D01*
X0276969Y0147392D01*
X0277031Y0147265D01*
X0277088Y0147136D01*
X0277143Y0147006D01*
X0277193Y0146875D01*
X0277240Y0146742D01*
X0277283Y0146608D01*
X0277322Y0146472D01*
X0277357Y0146336D01*
X0277389Y0146199D01*
X0277416Y0146061D01*
X0277440Y0145922D01*
X0277460Y0145782D01*
X0277476Y0145642D01*
X0277488Y0145502D01*
X0277496Y0145361D01*
X0277500Y0145220D01*
X0277500Y0145080D01*
X0277496Y0144939D01*
X0277488Y0144798D01*
X0277476Y0144658D01*
X0277460Y0144518D01*
X0277440Y0144378D01*
X0277416Y0144239D01*
X0277389Y0144101D01*
X0277357Y0143964D01*
X0277322Y0143828D01*
X0277283Y0143692D01*
X0277240Y0143558D01*
X0277193Y0143425D01*
X0277143Y0143294D01*
X0277088Y0143164D01*
X0277031Y0143035D01*
X0276969Y0142908D01*
X0276904Y0142783D01*
X0276836Y0142660D01*
X0276764Y0142539D01*
X0276689Y0142420D01*
X0276610Y0142303D01*
X0276528Y0142188D01*
X0276443Y0142076D01*
X0276355Y0141966D01*
X0276264Y0141859D01*
X0276170Y0141754D01*
X0276073Y0141652D01*
X0275973Y0141553D01*
X0275870Y0141456D01*
X0275765Y0141363D01*
X0275657Y0141272D01*
X0275546Y0141185D01*
X0275433Y0141101D01*
X0275318Y0141020D01*
X0275201Y0140942D01*
X0275081Y0140868D01*
X0274959Y0140797D01*
X0274836Y0140729D01*
X0274710Y0140665D01*
X0274583Y0140605D01*
X0274454Y0140548D01*
X0274324Y0140494D01*
X0274192Y0140445D01*
X0274058Y0140399D01*
X0273924Y0140357D01*
X0273788Y0140319D01*
X0273652Y0140284D01*
X0273514Y0140254D01*
X0273376Y0140227D01*
X0273237Y0140205D01*
X0273097Y0140186D01*
X0272957Y0140171D01*
X0272817Y0140160D01*
X0272676Y0140153D01*
X0272535Y0140150D01*
X0272394Y0140151D01*
X0272254Y0140156D01*
X0272113Y0140165D01*
X0271973Y0140178D01*
X0271833Y0140195D01*
X0271693Y0140215D01*
X0271555Y0140240D01*
X0271417Y0140269D01*
X0271280Y0140301D01*
X0271144Y0140337D01*
X0271009Y0140378D01*
X0270875Y0140422D01*
X0270742Y0140469D01*
X0270611Y0140521D01*
X0270481Y0140576D01*
X0270353Y0140634D01*
X0270227Y0140697D01*
X0270102Y0140762D01*
X0269980Y0140832D01*
X0269859Y0140904D01*
X0269740Y0140980D01*
X0269624Y0141060D01*
X0269510Y0141143D01*
X0269398Y0141228D01*
X0269289Y0141317D01*
X0269182Y0141409D01*
X0269078Y0141504D01*
X0268977Y0141602D01*
X0268878Y0141703D01*
X0268783Y0141806D01*
X0268690Y0141912D01*
X0268600Y0142021D01*
X0268514Y0142132D01*
X0268430Y0142245D01*
X0268350Y0142361D01*
X0268273Y0142479D01*
X0268200Y0142599D01*
X0268129Y0142722D01*
X0268063Y0142846D01*
X0268000Y0142972D01*
X0267940Y0143099D01*
X0267884Y0143228D01*
X0267832Y0143359D01*
X0267783Y0143491D01*
X0267738Y0143625D01*
X0267697Y0143760D01*
X0267660Y0143896D01*
X0267626Y0144032D01*
X0267597Y0144170D01*
X0267571Y0144309D01*
X0267550Y0144448D01*
X0267532Y0144588D01*
X0267518Y0144728D01*
X0267508Y0144868D01*
X0267502Y0145009D01*
X0267500Y0145150D01*
X0267500Y0183150D02*
X0267502Y0183291D01*
X0267508Y0183432D01*
X0267518Y0183572D01*
X0267532Y0183712D01*
X0267550Y0183852D01*
X0267571Y0183991D01*
X0267597Y0184130D01*
X0267626Y0184268D01*
X0267660Y0184404D01*
X0267697Y0184540D01*
X0267738Y0184675D01*
X0267783Y0184809D01*
X0267832Y0184941D01*
X0267884Y0185072D01*
X0267940Y0185201D01*
X0268000Y0185328D01*
X0268063Y0185454D01*
X0268129Y0185578D01*
X0268200Y0185701D01*
X0268273Y0185821D01*
X0268350Y0185939D01*
X0268430Y0186055D01*
X0268514Y0186168D01*
X0268600Y0186279D01*
X0268690Y0186388D01*
X0268783Y0186494D01*
X0268878Y0186597D01*
X0268977Y0186698D01*
X0269078Y0186796D01*
X0269182Y0186891D01*
X0269289Y0186983D01*
X0269398Y0187072D01*
X0269510Y0187157D01*
X0269624Y0187240D01*
X0269740Y0187320D01*
X0269859Y0187396D01*
X0269980Y0187468D01*
X0270102Y0187538D01*
X0270227Y0187603D01*
X0270353Y0187666D01*
X0270481Y0187724D01*
X0270611Y0187779D01*
X0270742Y0187831D01*
X0270875Y0187878D01*
X0271009Y0187922D01*
X0271144Y0187963D01*
X0271280Y0187999D01*
X0271417Y0188031D01*
X0271555Y0188060D01*
X0271693Y0188085D01*
X0271833Y0188105D01*
X0271973Y0188122D01*
X0272113Y0188135D01*
X0272254Y0188144D01*
X0272394Y0188149D01*
X0272535Y0188150D01*
X0272676Y0188147D01*
X0272817Y0188140D01*
X0272957Y0188129D01*
X0273097Y0188114D01*
X0273237Y0188095D01*
X0273376Y0188073D01*
X0273514Y0188046D01*
X0273652Y0188016D01*
X0273788Y0187981D01*
X0273924Y0187943D01*
X0274058Y0187901D01*
X0274192Y0187855D01*
X0274324Y0187806D01*
X0274454Y0187752D01*
X0274583Y0187695D01*
X0274710Y0187635D01*
X0274836Y0187571D01*
X0274959Y0187503D01*
X0275081Y0187432D01*
X0275201Y0187358D01*
X0275318Y0187280D01*
X0275433Y0187199D01*
X0275546Y0187115D01*
X0275657Y0187028D01*
X0275765Y0186937D01*
X0275870Y0186844D01*
X0275973Y0186747D01*
X0276073Y0186648D01*
X0276170Y0186546D01*
X0276264Y0186441D01*
X0276355Y0186334D01*
X0276443Y0186224D01*
X0276528Y0186112D01*
X0276610Y0185997D01*
X0276689Y0185880D01*
X0276764Y0185761D01*
X0276836Y0185640D01*
X0276904Y0185517D01*
X0276969Y0185392D01*
X0277031Y0185265D01*
X0277088Y0185136D01*
X0277143Y0185006D01*
X0277193Y0184875D01*
X0277240Y0184742D01*
X0277283Y0184608D01*
X0277322Y0184472D01*
X0277357Y0184336D01*
X0277389Y0184199D01*
X0277416Y0184061D01*
X0277440Y0183922D01*
X0277460Y0183782D01*
X0277476Y0183642D01*
X0277488Y0183502D01*
X0277496Y0183361D01*
X0277500Y0183220D01*
X0277500Y0183080D01*
X0277496Y0182939D01*
X0277488Y0182798D01*
X0277476Y0182658D01*
X0277460Y0182518D01*
X0277440Y0182378D01*
X0277416Y0182239D01*
X0277389Y0182101D01*
X0277357Y0181964D01*
X0277322Y0181828D01*
X0277283Y0181692D01*
X0277240Y0181558D01*
X0277193Y0181425D01*
X0277143Y0181294D01*
X0277088Y0181164D01*
X0277031Y0181035D01*
X0276969Y0180908D01*
X0276904Y0180783D01*
X0276836Y0180660D01*
X0276764Y0180539D01*
X0276689Y0180420D01*
X0276610Y0180303D01*
X0276528Y0180188D01*
X0276443Y0180076D01*
X0276355Y0179966D01*
X0276264Y0179859D01*
X0276170Y0179754D01*
X0276073Y0179652D01*
X0275973Y0179553D01*
X0275870Y0179456D01*
X0275765Y0179363D01*
X0275657Y0179272D01*
X0275546Y0179185D01*
X0275433Y0179101D01*
X0275318Y0179020D01*
X0275201Y0178942D01*
X0275081Y0178868D01*
X0274959Y0178797D01*
X0274836Y0178729D01*
X0274710Y0178665D01*
X0274583Y0178605D01*
X0274454Y0178548D01*
X0274324Y0178494D01*
X0274192Y0178445D01*
X0274058Y0178399D01*
X0273924Y0178357D01*
X0273788Y0178319D01*
X0273652Y0178284D01*
X0273514Y0178254D01*
X0273376Y0178227D01*
X0273237Y0178205D01*
X0273097Y0178186D01*
X0272957Y0178171D01*
X0272817Y0178160D01*
X0272676Y0178153D01*
X0272535Y0178150D01*
X0272394Y0178151D01*
X0272254Y0178156D01*
X0272113Y0178165D01*
X0271973Y0178178D01*
X0271833Y0178195D01*
X0271693Y0178215D01*
X0271555Y0178240D01*
X0271417Y0178269D01*
X0271280Y0178301D01*
X0271144Y0178337D01*
X0271009Y0178378D01*
X0270875Y0178422D01*
X0270742Y0178469D01*
X0270611Y0178521D01*
X0270481Y0178576D01*
X0270353Y0178634D01*
X0270227Y0178697D01*
X0270102Y0178762D01*
X0269980Y0178832D01*
X0269859Y0178904D01*
X0269740Y0178980D01*
X0269624Y0179060D01*
X0269510Y0179143D01*
X0269398Y0179228D01*
X0269289Y0179317D01*
X0269182Y0179409D01*
X0269078Y0179504D01*
X0268977Y0179602D01*
X0268878Y0179703D01*
X0268783Y0179806D01*
X0268690Y0179912D01*
X0268600Y0180021D01*
X0268514Y0180132D01*
X0268430Y0180245D01*
X0268350Y0180361D01*
X0268273Y0180479D01*
X0268200Y0180599D01*
X0268129Y0180722D01*
X0268063Y0180846D01*
X0268000Y0180972D01*
X0267940Y0181099D01*
X0267884Y0181228D01*
X0267832Y0181359D01*
X0267783Y0181491D01*
X0267738Y0181625D01*
X0267697Y0181760D01*
X0267660Y0181896D01*
X0267626Y0182032D01*
X0267597Y0182170D01*
X0267571Y0182309D01*
X0267550Y0182448D01*
X0267532Y0182588D01*
X0267518Y0182728D01*
X0267508Y0182868D01*
X0267502Y0183009D01*
X0267500Y0183150D01*
X0311500Y0184150D02*
X0311502Y0184291D01*
X0311508Y0184432D01*
X0311518Y0184572D01*
X0311532Y0184712D01*
X0311550Y0184852D01*
X0311571Y0184991D01*
X0311597Y0185130D01*
X0311626Y0185268D01*
X0311660Y0185404D01*
X0311697Y0185540D01*
X0311738Y0185675D01*
X0311783Y0185809D01*
X0311832Y0185941D01*
X0311884Y0186072D01*
X0311940Y0186201D01*
X0312000Y0186328D01*
X0312063Y0186454D01*
X0312129Y0186578D01*
X0312200Y0186701D01*
X0312273Y0186821D01*
X0312350Y0186939D01*
X0312430Y0187055D01*
X0312514Y0187168D01*
X0312600Y0187279D01*
X0312690Y0187388D01*
X0312783Y0187494D01*
X0312878Y0187597D01*
X0312977Y0187698D01*
X0313078Y0187796D01*
X0313182Y0187891D01*
X0313289Y0187983D01*
X0313398Y0188072D01*
X0313510Y0188157D01*
X0313624Y0188240D01*
X0313740Y0188320D01*
X0313859Y0188396D01*
X0313980Y0188468D01*
X0314102Y0188538D01*
X0314227Y0188603D01*
X0314353Y0188666D01*
X0314481Y0188724D01*
X0314611Y0188779D01*
X0314742Y0188831D01*
X0314875Y0188878D01*
X0315009Y0188922D01*
X0315144Y0188963D01*
X0315280Y0188999D01*
X0315417Y0189031D01*
X0315555Y0189060D01*
X0315693Y0189085D01*
X0315833Y0189105D01*
X0315973Y0189122D01*
X0316113Y0189135D01*
X0316254Y0189144D01*
X0316394Y0189149D01*
X0316535Y0189150D01*
X0316676Y0189147D01*
X0316817Y0189140D01*
X0316957Y0189129D01*
X0317097Y0189114D01*
X0317237Y0189095D01*
X0317376Y0189073D01*
X0317514Y0189046D01*
X0317652Y0189016D01*
X0317788Y0188981D01*
X0317924Y0188943D01*
X0318058Y0188901D01*
X0318192Y0188855D01*
X0318324Y0188806D01*
X0318454Y0188752D01*
X0318583Y0188695D01*
X0318710Y0188635D01*
X0318836Y0188571D01*
X0318959Y0188503D01*
X0319081Y0188432D01*
X0319201Y0188358D01*
X0319318Y0188280D01*
X0319433Y0188199D01*
X0319546Y0188115D01*
X0319657Y0188028D01*
X0319765Y0187937D01*
X0319870Y0187844D01*
X0319973Y0187747D01*
X0320073Y0187648D01*
X0320170Y0187546D01*
X0320264Y0187441D01*
X0320355Y0187334D01*
X0320443Y0187224D01*
X0320528Y0187112D01*
X0320610Y0186997D01*
X0320689Y0186880D01*
X0320764Y0186761D01*
X0320836Y0186640D01*
X0320904Y0186517D01*
X0320969Y0186392D01*
X0321031Y0186265D01*
X0321088Y0186136D01*
X0321143Y0186006D01*
X0321193Y0185875D01*
X0321240Y0185742D01*
X0321283Y0185608D01*
X0321322Y0185472D01*
X0321357Y0185336D01*
X0321389Y0185199D01*
X0321416Y0185061D01*
X0321440Y0184922D01*
X0321460Y0184782D01*
X0321476Y0184642D01*
X0321488Y0184502D01*
X0321496Y0184361D01*
X0321500Y0184220D01*
X0321500Y0184080D01*
X0321496Y0183939D01*
X0321488Y0183798D01*
X0321476Y0183658D01*
X0321460Y0183518D01*
X0321440Y0183378D01*
X0321416Y0183239D01*
X0321389Y0183101D01*
X0321357Y0182964D01*
X0321322Y0182828D01*
X0321283Y0182692D01*
X0321240Y0182558D01*
X0321193Y0182425D01*
X0321143Y0182294D01*
X0321088Y0182164D01*
X0321031Y0182035D01*
X0320969Y0181908D01*
X0320904Y0181783D01*
X0320836Y0181660D01*
X0320764Y0181539D01*
X0320689Y0181420D01*
X0320610Y0181303D01*
X0320528Y0181188D01*
X0320443Y0181076D01*
X0320355Y0180966D01*
X0320264Y0180859D01*
X0320170Y0180754D01*
X0320073Y0180652D01*
X0319973Y0180553D01*
X0319870Y0180456D01*
X0319765Y0180363D01*
X0319657Y0180272D01*
X0319546Y0180185D01*
X0319433Y0180101D01*
X0319318Y0180020D01*
X0319201Y0179942D01*
X0319081Y0179868D01*
X0318959Y0179797D01*
X0318836Y0179729D01*
X0318710Y0179665D01*
X0318583Y0179605D01*
X0318454Y0179548D01*
X0318324Y0179494D01*
X0318192Y0179445D01*
X0318058Y0179399D01*
X0317924Y0179357D01*
X0317788Y0179319D01*
X0317652Y0179284D01*
X0317514Y0179254D01*
X0317376Y0179227D01*
X0317237Y0179205D01*
X0317097Y0179186D01*
X0316957Y0179171D01*
X0316817Y0179160D01*
X0316676Y0179153D01*
X0316535Y0179150D01*
X0316394Y0179151D01*
X0316254Y0179156D01*
X0316113Y0179165D01*
X0315973Y0179178D01*
X0315833Y0179195D01*
X0315693Y0179215D01*
X0315555Y0179240D01*
X0315417Y0179269D01*
X0315280Y0179301D01*
X0315144Y0179337D01*
X0315009Y0179378D01*
X0314875Y0179422D01*
X0314742Y0179469D01*
X0314611Y0179521D01*
X0314481Y0179576D01*
X0314353Y0179634D01*
X0314227Y0179697D01*
X0314102Y0179762D01*
X0313980Y0179832D01*
X0313859Y0179904D01*
X0313740Y0179980D01*
X0313624Y0180060D01*
X0313510Y0180143D01*
X0313398Y0180228D01*
X0313289Y0180317D01*
X0313182Y0180409D01*
X0313078Y0180504D01*
X0312977Y0180602D01*
X0312878Y0180703D01*
X0312783Y0180806D01*
X0312690Y0180912D01*
X0312600Y0181021D01*
X0312514Y0181132D01*
X0312430Y0181245D01*
X0312350Y0181361D01*
X0312273Y0181479D01*
X0312200Y0181599D01*
X0312129Y0181722D01*
X0312063Y0181846D01*
X0312000Y0181972D01*
X0311940Y0182099D01*
X0311884Y0182228D01*
X0311832Y0182359D01*
X0311783Y0182491D01*
X0311738Y0182625D01*
X0311697Y0182760D01*
X0311660Y0182896D01*
X0311626Y0183032D01*
X0311597Y0183170D01*
X0311571Y0183309D01*
X0311550Y0183448D01*
X0311532Y0183588D01*
X0311518Y0183728D01*
X0311508Y0183868D01*
X0311502Y0184009D01*
X0311500Y0184150D01*
X0310500Y0145150D02*
X0310502Y0145291D01*
X0310508Y0145432D01*
X0310518Y0145572D01*
X0310532Y0145712D01*
X0310550Y0145852D01*
X0310571Y0145991D01*
X0310597Y0146130D01*
X0310626Y0146268D01*
X0310660Y0146404D01*
X0310697Y0146540D01*
X0310738Y0146675D01*
X0310783Y0146809D01*
X0310832Y0146941D01*
X0310884Y0147072D01*
X0310940Y0147201D01*
X0311000Y0147328D01*
X0311063Y0147454D01*
X0311129Y0147578D01*
X0311200Y0147701D01*
X0311273Y0147821D01*
X0311350Y0147939D01*
X0311430Y0148055D01*
X0311514Y0148168D01*
X0311600Y0148279D01*
X0311690Y0148388D01*
X0311783Y0148494D01*
X0311878Y0148597D01*
X0311977Y0148698D01*
X0312078Y0148796D01*
X0312182Y0148891D01*
X0312289Y0148983D01*
X0312398Y0149072D01*
X0312510Y0149157D01*
X0312624Y0149240D01*
X0312740Y0149320D01*
X0312859Y0149396D01*
X0312980Y0149468D01*
X0313102Y0149538D01*
X0313227Y0149603D01*
X0313353Y0149666D01*
X0313481Y0149724D01*
X0313611Y0149779D01*
X0313742Y0149831D01*
X0313875Y0149878D01*
X0314009Y0149922D01*
X0314144Y0149963D01*
X0314280Y0149999D01*
X0314417Y0150031D01*
X0314555Y0150060D01*
X0314693Y0150085D01*
X0314833Y0150105D01*
X0314973Y0150122D01*
X0315113Y0150135D01*
X0315254Y0150144D01*
X0315394Y0150149D01*
X0315535Y0150150D01*
X0315676Y0150147D01*
X0315817Y0150140D01*
X0315957Y0150129D01*
X0316097Y0150114D01*
X0316237Y0150095D01*
X0316376Y0150073D01*
X0316514Y0150046D01*
X0316652Y0150016D01*
X0316788Y0149981D01*
X0316924Y0149943D01*
X0317058Y0149901D01*
X0317192Y0149855D01*
X0317324Y0149806D01*
X0317454Y0149752D01*
X0317583Y0149695D01*
X0317710Y0149635D01*
X0317836Y0149571D01*
X0317959Y0149503D01*
X0318081Y0149432D01*
X0318201Y0149358D01*
X0318318Y0149280D01*
X0318433Y0149199D01*
X0318546Y0149115D01*
X0318657Y0149028D01*
X0318765Y0148937D01*
X0318870Y0148844D01*
X0318973Y0148747D01*
X0319073Y0148648D01*
X0319170Y0148546D01*
X0319264Y0148441D01*
X0319355Y0148334D01*
X0319443Y0148224D01*
X0319528Y0148112D01*
X0319610Y0147997D01*
X0319689Y0147880D01*
X0319764Y0147761D01*
X0319836Y0147640D01*
X0319904Y0147517D01*
X0319969Y0147392D01*
X0320031Y0147265D01*
X0320088Y0147136D01*
X0320143Y0147006D01*
X0320193Y0146875D01*
X0320240Y0146742D01*
X0320283Y0146608D01*
X0320322Y0146472D01*
X0320357Y0146336D01*
X0320389Y0146199D01*
X0320416Y0146061D01*
X0320440Y0145922D01*
X0320460Y0145782D01*
X0320476Y0145642D01*
X0320488Y0145502D01*
X0320496Y0145361D01*
X0320500Y0145220D01*
X0320500Y0145080D01*
X0320496Y0144939D01*
X0320488Y0144798D01*
X0320476Y0144658D01*
X0320460Y0144518D01*
X0320440Y0144378D01*
X0320416Y0144239D01*
X0320389Y0144101D01*
X0320357Y0143964D01*
X0320322Y0143828D01*
X0320283Y0143692D01*
X0320240Y0143558D01*
X0320193Y0143425D01*
X0320143Y0143294D01*
X0320088Y0143164D01*
X0320031Y0143035D01*
X0319969Y0142908D01*
X0319904Y0142783D01*
X0319836Y0142660D01*
X0319764Y0142539D01*
X0319689Y0142420D01*
X0319610Y0142303D01*
X0319528Y0142188D01*
X0319443Y0142076D01*
X0319355Y0141966D01*
X0319264Y0141859D01*
X0319170Y0141754D01*
X0319073Y0141652D01*
X0318973Y0141553D01*
X0318870Y0141456D01*
X0318765Y0141363D01*
X0318657Y0141272D01*
X0318546Y0141185D01*
X0318433Y0141101D01*
X0318318Y0141020D01*
X0318201Y0140942D01*
X0318081Y0140868D01*
X0317959Y0140797D01*
X0317836Y0140729D01*
X0317710Y0140665D01*
X0317583Y0140605D01*
X0317454Y0140548D01*
X0317324Y0140494D01*
X0317192Y0140445D01*
X0317058Y0140399D01*
X0316924Y0140357D01*
X0316788Y0140319D01*
X0316652Y0140284D01*
X0316514Y0140254D01*
X0316376Y0140227D01*
X0316237Y0140205D01*
X0316097Y0140186D01*
X0315957Y0140171D01*
X0315817Y0140160D01*
X0315676Y0140153D01*
X0315535Y0140150D01*
X0315394Y0140151D01*
X0315254Y0140156D01*
X0315113Y0140165D01*
X0314973Y0140178D01*
X0314833Y0140195D01*
X0314693Y0140215D01*
X0314555Y0140240D01*
X0314417Y0140269D01*
X0314280Y0140301D01*
X0314144Y0140337D01*
X0314009Y0140378D01*
X0313875Y0140422D01*
X0313742Y0140469D01*
X0313611Y0140521D01*
X0313481Y0140576D01*
X0313353Y0140634D01*
X0313227Y0140697D01*
X0313102Y0140762D01*
X0312980Y0140832D01*
X0312859Y0140904D01*
X0312740Y0140980D01*
X0312624Y0141060D01*
X0312510Y0141143D01*
X0312398Y0141228D01*
X0312289Y0141317D01*
X0312182Y0141409D01*
X0312078Y0141504D01*
X0311977Y0141602D01*
X0311878Y0141703D01*
X0311783Y0141806D01*
X0311690Y0141912D01*
X0311600Y0142021D01*
X0311514Y0142132D01*
X0311430Y0142245D01*
X0311350Y0142361D01*
X0311273Y0142479D01*
X0311200Y0142599D01*
X0311129Y0142722D01*
X0311063Y0142846D01*
X0311000Y0142972D01*
X0310940Y0143099D01*
X0310884Y0143228D01*
X0310832Y0143359D01*
X0310783Y0143491D01*
X0310738Y0143625D01*
X0310697Y0143760D01*
X0310660Y0143896D01*
X0310626Y0144032D01*
X0310597Y0144170D01*
X0310571Y0144309D01*
X0310550Y0144448D01*
X0310532Y0144588D01*
X0310518Y0144728D01*
X0310508Y0144868D01*
X0310502Y0145009D01*
X0310500Y0145150D01*
X0338194Y0236450D02*
X0338196Y0236603D01*
X0338202Y0236757D01*
X0338212Y0236910D01*
X0338226Y0237062D01*
X0338244Y0237215D01*
X0338266Y0237366D01*
X0338291Y0237517D01*
X0338321Y0237668D01*
X0338355Y0237818D01*
X0338392Y0237966D01*
X0338433Y0238114D01*
X0338478Y0238260D01*
X0338527Y0238406D01*
X0338580Y0238550D01*
X0338636Y0238692D01*
X0338696Y0238833D01*
X0338760Y0238973D01*
X0338827Y0239111D01*
X0338898Y0239247D01*
X0338973Y0239381D01*
X0339050Y0239513D01*
X0339132Y0239643D01*
X0339216Y0239771D01*
X0339304Y0239897D01*
X0339395Y0240020D01*
X0339489Y0240141D01*
X0339587Y0240259D01*
X0339687Y0240375D01*
X0339791Y0240488D01*
X0339897Y0240599D01*
X0340006Y0240707D01*
X0340118Y0240812D01*
X0340232Y0240913D01*
X0340350Y0241012D01*
X0340469Y0241108D01*
X0340591Y0241201D01*
X0340716Y0241290D01*
X0340843Y0241377D01*
X0340972Y0241459D01*
X0341103Y0241539D01*
X0341236Y0241615D01*
X0341371Y0241688D01*
X0341508Y0241757D01*
X0341647Y0241822D01*
X0341787Y0241884D01*
X0341929Y0241942D01*
X0342072Y0241997D01*
X0342217Y0242048D01*
X0342363Y0242095D01*
X0342510Y0242138D01*
X0342658Y0242177D01*
X0342807Y0242213D01*
X0342957Y0242244D01*
X0343108Y0242272D01*
X0343259Y0242296D01*
X0343412Y0242316D01*
X0343564Y0242332D01*
X0343717Y0242344D01*
X0343870Y0242352D01*
X0344023Y0242356D01*
X0344177Y0242356D01*
X0344330Y0242352D01*
X0344483Y0242344D01*
X0344636Y0242332D01*
X0344788Y0242316D01*
X0344941Y0242296D01*
X0345092Y0242272D01*
X0345243Y0242244D01*
X0345393Y0242213D01*
X0345542Y0242177D01*
X0345690Y0242138D01*
X0345837Y0242095D01*
X0345983Y0242048D01*
X0346128Y0241997D01*
X0346271Y0241942D01*
X0346413Y0241884D01*
X0346553Y0241822D01*
X0346692Y0241757D01*
X0346829Y0241688D01*
X0346964Y0241615D01*
X0347097Y0241539D01*
X0347228Y0241459D01*
X0347357Y0241377D01*
X0347484Y0241290D01*
X0347609Y0241201D01*
X0347731Y0241108D01*
X0347850Y0241012D01*
X0347968Y0240913D01*
X0348082Y0240812D01*
X0348194Y0240707D01*
X0348303Y0240599D01*
X0348409Y0240488D01*
X0348513Y0240375D01*
X0348613Y0240259D01*
X0348711Y0240141D01*
X0348805Y0240020D01*
X0348896Y0239897D01*
X0348984Y0239771D01*
X0349068Y0239643D01*
X0349150Y0239513D01*
X0349227Y0239381D01*
X0349302Y0239247D01*
X0349373Y0239111D01*
X0349440Y0238973D01*
X0349504Y0238833D01*
X0349564Y0238692D01*
X0349620Y0238550D01*
X0349673Y0238406D01*
X0349722Y0238260D01*
X0349767Y0238114D01*
X0349808Y0237966D01*
X0349845Y0237818D01*
X0349879Y0237668D01*
X0349909Y0237517D01*
X0349934Y0237366D01*
X0349956Y0237215D01*
X0349974Y0237062D01*
X0349988Y0236910D01*
X0349998Y0236757D01*
X0350004Y0236603D01*
X0350006Y0236450D01*
X0350004Y0236297D01*
X0349998Y0236143D01*
X0349988Y0235990D01*
X0349974Y0235838D01*
X0349956Y0235685D01*
X0349934Y0235534D01*
X0349909Y0235383D01*
X0349879Y0235232D01*
X0349845Y0235082D01*
X0349808Y0234934D01*
X0349767Y0234786D01*
X0349722Y0234640D01*
X0349673Y0234494D01*
X0349620Y0234350D01*
X0349564Y0234208D01*
X0349504Y0234067D01*
X0349440Y0233927D01*
X0349373Y0233789D01*
X0349302Y0233653D01*
X0349227Y0233519D01*
X0349150Y0233387D01*
X0349068Y0233257D01*
X0348984Y0233129D01*
X0348896Y0233003D01*
X0348805Y0232880D01*
X0348711Y0232759D01*
X0348613Y0232641D01*
X0348513Y0232525D01*
X0348409Y0232412D01*
X0348303Y0232301D01*
X0348194Y0232193D01*
X0348082Y0232088D01*
X0347968Y0231987D01*
X0347850Y0231888D01*
X0347731Y0231792D01*
X0347609Y0231699D01*
X0347484Y0231610D01*
X0347357Y0231523D01*
X0347228Y0231441D01*
X0347097Y0231361D01*
X0346964Y0231285D01*
X0346829Y0231212D01*
X0346692Y0231143D01*
X0346553Y0231078D01*
X0346413Y0231016D01*
X0346271Y0230958D01*
X0346128Y0230903D01*
X0345983Y0230852D01*
X0345837Y0230805D01*
X0345690Y0230762D01*
X0345542Y0230723D01*
X0345393Y0230687D01*
X0345243Y0230656D01*
X0345092Y0230628D01*
X0344941Y0230604D01*
X0344788Y0230584D01*
X0344636Y0230568D01*
X0344483Y0230556D01*
X0344330Y0230548D01*
X0344177Y0230544D01*
X0344023Y0230544D01*
X0343870Y0230548D01*
X0343717Y0230556D01*
X0343564Y0230568D01*
X0343412Y0230584D01*
X0343259Y0230604D01*
X0343108Y0230628D01*
X0342957Y0230656D01*
X0342807Y0230687D01*
X0342658Y0230723D01*
X0342510Y0230762D01*
X0342363Y0230805D01*
X0342217Y0230852D01*
X0342072Y0230903D01*
X0341929Y0230958D01*
X0341787Y0231016D01*
X0341647Y0231078D01*
X0341508Y0231143D01*
X0341371Y0231212D01*
X0341236Y0231285D01*
X0341103Y0231361D01*
X0340972Y0231441D01*
X0340843Y0231523D01*
X0340716Y0231610D01*
X0340591Y0231699D01*
X0340469Y0231792D01*
X0340350Y0231888D01*
X0340232Y0231987D01*
X0340118Y0232088D01*
X0340006Y0232193D01*
X0339897Y0232301D01*
X0339791Y0232412D01*
X0339687Y0232525D01*
X0339587Y0232641D01*
X0339489Y0232759D01*
X0339395Y0232880D01*
X0339304Y0233003D01*
X0339216Y0233129D01*
X0339132Y0233257D01*
X0339050Y0233387D01*
X0338973Y0233519D01*
X0338898Y0233653D01*
X0338827Y0233789D01*
X0338760Y0233927D01*
X0338696Y0234067D01*
X0338636Y0234208D01*
X0338580Y0234350D01*
X0338527Y0234494D01*
X0338478Y0234640D01*
X0338433Y0234786D01*
X0338392Y0234934D01*
X0338355Y0235082D01*
X0338321Y0235232D01*
X0338291Y0235383D01*
X0338266Y0235534D01*
X0338244Y0235685D01*
X0338226Y0235838D01*
X0338212Y0235990D01*
X0338202Y0236143D01*
X0338196Y0236297D01*
X0338194Y0236450D01*
X0335594Y0327850D02*
X0335596Y0328003D01*
X0335602Y0328157D01*
X0335612Y0328310D01*
X0335626Y0328462D01*
X0335644Y0328615D01*
X0335666Y0328766D01*
X0335691Y0328917D01*
X0335721Y0329068D01*
X0335755Y0329218D01*
X0335792Y0329366D01*
X0335833Y0329514D01*
X0335878Y0329660D01*
X0335927Y0329806D01*
X0335980Y0329950D01*
X0336036Y0330092D01*
X0336096Y0330233D01*
X0336160Y0330373D01*
X0336227Y0330511D01*
X0336298Y0330647D01*
X0336373Y0330781D01*
X0336450Y0330913D01*
X0336532Y0331043D01*
X0336616Y0331171D01*
X0336704Y0331297D01*
X0336795Y0331420D01*
X0336889Y0331541D01*
X0336987Y0331659D01*
X0337087Y0331775D01*
X0337191Y0331888D01*
X0337297Y0331999D01*
X0337406Y0332107D01*
X0337518Y0332212D01*
X0337632Y0332313D01*
X0337750Y0332412D01*
X0337869Y0332508D01*
X0337991Y0332601D01*
X0338116Y0332690D01*
X0338243Y0332777D01*
X0338372Y0332859D01*
X0338503Y0332939D01*
X0338636Y0333015D01*
X0338771Y0333088D01*
X0338908Y0333157D01*
X0339047Y0333222D01*
X0339187Y0333284D01*
X0339329Y0333342D01*
X0339472Y0333397D01*
X0339617Y0333448D01*
X0339763Y0333495D01*
X0339910Y0333538D01*
X0340058Y0333577D01*
X0340207Y0333613D01*
X0340357Y0333644D01*
X0340508Y0333672D01*
X0340659Y0333696D01*
X0340812Y0333716D01*
X0340964Y0333732D01*
X0341117Y0333744D01*
X0341270Y0333752D01*
X0341423Y0333756D01*
X0341577Y0333756D01*
X0341730Y0333752D01*
X0341883Y0333744D01*
X0342036Y0333732D01*
X0342188Y0333716D01*
X0342341Y0333696D01*
X0342492Y0333672D01*
X0342643Y0333644D01*
X0342793Y0333613D01*
X0342942Y0333577D01*
X0343090Y0333538D01*
X0343237Y0333495D01*
X0343383Y0333448D01*
X0343528Y0333397D01*
X0343671Y0333342D01*
X0343813Y0333284D01*
X0343953Y0333222D01*
X0344092Y0333157D01*
X0344229Y0333088D01*
X0344364Y0333015D01*
X0344497Y0332939D01*
X0344628Y0332859D01*
X0344757Y0332777D01*
X0344884Y0332690D01*
X0345009Y0332601D01*
X0345131Y0332508D01*
X0345250Y0332412D01*
X0345368Y0332313D01*
X0345482Y0332212D01*
X0345594Y0332107D01*
X0345703Y0331999D01*
X0345809Y0331888D01*
X0345913Y0331775D01*
X0346013Y0331659D01*
X0346111Y0331541D01*
X0346205Y0331420D01*
X0346296Y0331297D01*
X0346384Y0331171D01*
X0346468Y0331043D01*
X0346550Y0330913D01*
X0346627Y0330781D01*
X0346702Y0330647D01*
X0346773Y0330511D01*
X0346840Y0330373D01*
X0346904Y0330233D01*
X0346964Y0330092D01*
X0347020Y0329950D01*
X0347073Y0329806D01*
X0347122Y0329660D01*
X0347167Y0329514D01*
X0347208Y0329366D01*
X0347245Y0329218D01*
X0347279Y0329068D01*
X0347309Y0328917D01*
X0347334Y0328766D01*
X0347356Y0328615D01*
X0347374Y0328462D01*
X0347388Y0328310D01*
X0347398Y0328157D01*
X0347404Y0328003D01*
X0347406Y0327850D01*
X0347404Y0327697D01*
X0347398Y0327543D01*
X0347388Y0327390D01*
X0347374Y0327238D01*
X0347356Y0327085D01*
X0347334Y0326934D01*
X0347309Y0326783D01*
X0347279Y0326632D01*
X0347245Y0326482D01*
X0347208Y0326334D01*
X0347167Y0326186D01*
X0347122Y0326040D01*
X0347073Y0325894D01*
X0347020Y0325750D01*
X0346964Y0325608D01*
X0346904Y0325467D01*
X0346840Y0325327D01*
X0346773Y0325189D01*
X0346702Y0325053D01*
X0346627Y0324919D01*
X0346550Y0324787D01*
X0346468Y0324657D01*
X0346384Y0324529D01*
X0346296Y0324403D01*
X0346205Y0324280D01*
X0346111Y0324159D01*
X0346013Y0324041D01*
X0345913Y0323925D01*
X0345809Y0323812D01*
X0345703Y0323701D01*
X0345594Y0323593D01*
X0345482Y0323488D01*
X0345368Y0323387D01*
X0345250Y0323288D01*
X0345131Y0323192D01*
X0345009Y0323099D01*
X0344884Y0323010D01*
X0344757Y0322923D01*
X0344628Y0322841D01*
X0344497Y0322761D01*
X0344364Y0322685D01*
X0344229Y0322612D01*
X0344092Y0322543D01*
X0343953Y0322478D01*
X0343813Y0322416D01*
X0343671Y0322358D01*
X0343528Y0322303D01*
X0343383Y0322252D01*
X0343237Y0322205D01*
X0343090Y0322162D01*
X0342942Y0322123D01*
X0342793Y0322087D01*
X0342643Y0322056D01*
X0342492Y0322028D01*
X0342341Y0322004D01*
X0342188Y0321984D01*
X0342036Y0321968D01*
X0341883Y0321956D01*
X0341730Y0321948D01*
X0341577Y0321944D01*
X0341423Y0321944D01*
X0341270Y0321948D01*
X0341117Y0321956D01*
X0340964Y0321968D01*
X0340812Y0321984D01*
X0340659Y0322004D01*
X0340508Y0322028D01*
X0340357Y0322056D01*
X0340207Y0322087D01*
X0340058Y0322123D01*
X0339910Y0322162D01*
X0339763Y0322205D01*
X0339617Y0322252D01*
X0339472Y0322303D01*
X0339329Y0322358D01*
X0339187Y0322416D01*
X0339047Y0322478D01*
X0338908Y0322543D01*
X0338771Y0322612D01*
X0338636Y0322685D01*
X0338503Y0322761D01*
X0338372Y0322841D01*
X0338243Y0322923D01*
X0338116Y0323010D01*
X0337991Y0323099D01*
X0337869Y0323192D01*
X0337750Y0323288D01*
X0337632Y0323387D01*
X0337518Y0323488D01*
X0337406Y0323593D01*
X0337297Y0323701D01*
X0337191Y0323812D01*
X0337087Y0323925D01*
X0336987Y0324041D01*
X0336889Y0324159D01*
X0336795Y0324280D01*
X0336704Y0324403D01*
X0336616Y0324529D01*
X0336532Y0324657D01*
X0336450Y0324787D01*
X0336373Y0324919D01*
X0336298Y0325053D01*
X0336227Y0325189D01*
X0336160Y0325327D01*
X0336096Y0325467D01*
X0336036Y0325608D01*
X0335980Y0325750D01*
X0335927Y0325894D01*
X0335878Y0326040D01*
X0335833Y0326186D01*
X0335792Y0326334D01*
X0335755Y0326482D01*
X0335721Y0326632D01*
X0335691Y0326783D01*
X0335666Y0326934D01*
X0335644Y0327085D01*
X0335626Y0327238D01*
X0335612Y0327390D01*
X0335602Y0327543D01*
X0335596Y0327697D01*
X0335594Y0327850D01*
X0265194Y0328850D02*
X0265196Y0329003D01*
X0265202Y0329157D01*
X0265212Y0329310D01*
X0265226Y0329462D01*
X0265244Y0329615D01*
X0265266Y0329766D01*
X0265291Y0329917D01*
X0265321Y0330068D01*
X0265355Y0330218D01*
X0265392Y0330366D01*
X0265433Y0330514D01*
X0265478Y0330660D01*
X0265527Y0330806D01*
X0265580Y0330950D01*
X0265636Y0331092D01*
X0265696Y0331233D01*
X0265760Y0331373D01*
X0265827Y0331511D01*
X0265898Y0331647D01*
X0265973Y0331781D01*
X0266050Y0331913D01*
X0266132Y0332043D01*
X0266216Y0332171D01*
X0266304Y0332297D01*
X0266395Y0332420D01*
X0266489Y0332541D01*
X0266587Y0332659D01*
X0266687Y0332775D01*
X0266791Y0332888D01*
X0266897Y0332999D01*
X0267006Y0333107D01*
X0267118Y0333212D01*
X0267232Y0333313D01*
X0267350Y0333412D01*
X0267469Y0333508D01*
X0267591Y0333601D01*
X0267716Y0333690D01*
X0267843Y0333777D01*
X0267972Y0333859D01*
X0268103Y0333939D01*
X0268236Y0334015D01*
X0268371Y0334088D01*
X0268508Y0334157D01*
X0268647Y0334222D01*
X0268787Y0334284D01*
X0268929Y0334342D01*
X0269072Y0334397D01*
X0269217Y0334448D01*
X0269363Y0334495D01*
X0269510Y0334538D01*
X0269658Y0334577D01*
X0269807Y0334613D01*
X0269957Y0334644D01*
X0270108Y0334672D01*
X0270259Y0334696D01*
X0270412Y0334716D01*
X0270564Y0334732D01*
X0270717Y0334744D01*
X0270870Y0334752D01*
X0271023Y0334756D01*
X0271177Y0334756D01*
X0271330Y0334752D01*
X0271483Y0334744D01*
X0271636Y0334732D01*
X0271788Y0334716D01*
X0271941Y0334696D01*
X0272092Y0334672D01*
X0272243Y0334644D01*
X0272393Y0334613D01*
X0272542Y0334577D01*
X0272690Y0334538D01*
X0272837Y0334495D01*
X0272983Y0334448D01*
X0273128Y0334397D01*
X0273271Y0334342D01*
X0273413Y0334284D01*
X0273553Y0334222D01*
X0273692Y0334157D01*
X0273829Y0334088D01*
X0273964Y0334015D01*
X0274097Y0333939D01*
X0274228Y0333859D01*
X0274357Y0333777D01*
X0274484Y0333690D01*
X0274609Y0333601D01*
X0274731Y0333508D01*
X0274850Y0333412D01*
X0274968Y0333313D01*
X0275082Y0333212D01*
X0275194Y0333107D01*
X0275303Y0332999D01*
X0275409Y0332888D01*
X0275513Y0332775D01*
X0275613Y0332659D01*
X0275711Y0332541D01*
X0275805Y0332420D01*
X0275896Y0332297D01*
X0275984Y0332171D01*
X0276068Y0332043D01*
X0276150Y0331913D01*
X0276227Y0331781D01*
X0276302Y0331647D01*
X0276373Y0331511D01*
X0276440Y0331373D01*
X0276504Y0331233D01*
X0276564Y0331092D01*
X0276620Y0330950D01*
X0276673Y0330806D01*
X0276722Y0330660D01*
X0276767Y0330514D01*
X0276808Y0330366D01*
X0276845Y0330218D01*
X0276879Y0330068D01*
X0276909Y0329917D01*
X0276934Y0329766D01*
X0276956Y0329615D01*
X0276974Y0329462D01*
X0276988Y0329310D01*
X0276998Y0329157D01*
X0277004Y0329003D01*
X0277006Y0328850D01*
X0277004Y0328697D01*
X0276998Y0328543D01*
X0276988Y0328390D01*
X0276974Y0328238D01*
X0276956Y0328085D01*
X0276934Y0327934D01*
X0276909Y0327783D01*
X0276879Y0327632D01*
X0276845Y0327482D01*
X0276808Y0327334D01*
X0276767Y0327186D01*
X0276722Y0327040D01*
X0276673Y0326894D01*
X0276620Y0326750D01*
X0276564Y0326608D01*
X0276504Y0326467D01*
X0276440Y0326327D01*
X0276373Y0326189D01*
X0276302Y0326053D01*
X0276227Y0325919D01*
X0276150Y0325787D01*
X0276068Y0325657D01*
X0275984Y0325529D01*
X0275896Y0325403D01*
X0275805Y0325280D01*
X0275711Y0325159D01*
X0275613Y0325041D01*
X0275513Y0324925D01*
X0275409Y0324812D01*
X0275303Y0324701D01*
X0275194Y0324593D01*
X0275082Y0324488D01*
X0274968Y0324387D01*
X0274850Y0324288D01*
X0274731Y0324192D01*
X0274609Y0324099D01*
X0274484Y0324010D01*
X0274357Y0323923D01*
X0274228Y0323841D01*
X0274097Y0323761D01*
X0273964Y0323685D01*
X0273829Y0323612D01*
X0273692Y0323543D01*
X0273553Y0323478D01*
X0273413Y0323416D01*
X0273271Y0323358D01*
X0273128Y0323303D01*
X0272983Y0323252D01*
X0272837Y0323205D01*
X0272690Y0323162D01*
X0272542Y0323123D01*
X0272393Y0323087D01*
X0272243Y0323056D01*
X0272092Y0323028D01*
X0271941Y0323004D01*
X0271788Y0322984D01*
X0271636Y0322968D01*
X0271483Y0322956D01*
X0271330Y0322948D01*
X0271177Y0322944D01*
X0271023Y0322944D01*
X0270870Y0322948D01*
X0270717Y0322956D01*
X0270564Y0322968D01*
X0270412Y0322984D01*
X0270259Y0323004D01*
X0270108Y0323028D01*
X0269957Y0323056D01*
X0269807Y0323087D01*
X0269658Y0323123D01*
X0269510Y0323162D01*
X0269363Y0323205D01*
X0269217Y0323252D01*
X0269072Y0323303D01*
X0268929Y0323358D01*
X0268787Y0323416D01*
X0268647Y0323478D01*
X0268508Y0323543D01*
X0268371Y0323612D01*
X0268236Y0323685D01*
X0268103Y0323761D01*
X0267972Y0323841D01*
X0267843Y0323923D01*
X0267716Y0324010D01*
X0267591Y0324099D01*
X0267469Y0324192D01*
X0267350Y0324288D01*
X0267232Y0324387D01*
X0267118Y0324488D01*
X0267006Y0324593D01*
X0266897Y0324701D01*
X0266791Y0324812D01*
X0266687Y0324925D01*
X0266587Y0325041D01*
X0266489Y0325159D01*
X0266395Y0325280D01*
X0266304Y0325403D01*
X0266216Y0325529D01*
X0266132Y0325657D01*
X0266050Y0325787D01*
X0265973Y0325919D01*
X0265898Y0326053D01*
X0265827Y0326189D01*
X0265760Y0326327D01*
X0265696Y0326467D01*
X0265636Y0326608D01*
X0265580Y0326750D01*
X0265527Y0326894D01*
X0265478Y0327040D01*
X0265433Y0327186D01*
X0265392Y0327334D01*
X0265355Y0327482D01*
X0265321Y0327632D01*
X0265291Y0327783D01*
X0265266Y0327934D01*
X0265244Y0328085D01*
X0265226Y0328238D01*
X0265212Y0328390D01*
X0265202Y0328543D01*
X0265196Y0328697D01*
X0265194Y0328850D01*
X0234500Y0292050D02*
X0234502Y0292191D01*
X0234508Y0292332D01*
X0234518Y0292472D01*
X0234532Y0292612D01*
X0234550Y0292752D01*
X0234571Y0292891D01*
X0234597Y0293030D01*
X0234626Y0293168D01*
X0234660Y0293304D01*
X0234697Y0293440D01*
X0234738Y0293575D01*
X0234783Y0293709D01*
X0234832Y0293841D01*
X0234884Y0293972D01*
X0234940Y0294101D01*
X0235000Y0294228D01*
X0235063Y0294354D01*
X0235129Y0294478D01*
X0235200Y0294601D01*
X0235273Y0294721D01*
X0235350Y0294839D01*
X0235430Y0294955D01*
X0235514Y0295068D01*
X0235600Y0295179D01*
X0235690Y0295288D01*
X0235783Y0295394D01*
X0235878Y0295497D01*
X0235977Y0295598D01*
X0236078Y0295696D01*
X0236182Y0295791D01*
X0236289Y0295883D01*
X0236398Y0295972D01*
X0236510Y0296057D01*
X0236624Y0296140D01*
X0236740Y0296220D01*
X0236859Y0296296D01*
X0236980Y0296368D01*
X0237102Y0296438D01*
X0237227Y0296503D01*
X0237353Y0296566D01*
X0237481Y0296624D01*
X0237611Y0296679D01*
X0237742Y0296731D01*
X0237875Y0296778D01*
X0238009Y0296822D01*
X0238144Y0296863D01*
X0238280Y0296899D01*
X0238417Y0296931D01*
X0238555Y0296960D01*
X0238693Y0296985D01*
X0238833Y0297005D01*
X0238973Y0297022D01*
X0239113Y0297035D01*
X0239254Y0297044D01*
X0239394Y0297049D01*
X0239535Y0297050D01*
X0239676Y0297047D01*
X0239817Y0297040D01*
X0239957Y0297029D01*
X0240097Y0297014D01*
X0240237Y0296995D01*
X0240376Y0296973D01*
X0240514Y0296946D01*
X0240652Y0296916D01*
X0240788Y0296881D01*
X0240924Y0296843D01*
X0241058Y0296801D01*
X0241192Y0296755D01*
X0241324Y0296706D01*
X0241454Y0296652D01*
X0241583Y0296595D01*
X0241710Y0296535D01*
X0241836Y0296471D01*
X0241959Y0296403D01*
X0242081Y0296332D01*
X0242201Y0296258D01*
X0242318Y0296180D01*
X0242433Y0296099D01*
X0242546Y0296015D01*
X0242657Y0295928D01*
X0242765Y0295837D01*
X0242870Y0295744D01*
X0242973Y0295647D01*
X0243073Y0295548D01*
X0243170Y0295446D01*
X0243264Y0295341D01*
X0243355Y0295234D01*
X0243443Y0295124D01*
X0243528Y0295012D01*
X0243610Y0294897D01*
X0243689Y0294780D01*
X0243764Y0294661D01*
X0243836Y0294540D01*
X0243904Y0294417D01*
X0243969Y0294292D01*
X0244031Y0294165D01*
X0244088Y0294036D01*
X0244143Y0293906D01*
X0244193Y0293775D01*
X0244240Y0293642D01*
X0244283Y0293508D01*
X0244322Y0293372D01*
X0244357Y0293236D01*
X0244389Y0293099D01*
X0244416Y0292961D01*
X0244440Y0292822D01*
X0244460Y0292682D01*
X0244476Y0292542D01*
X0244488Y0292402D01*
X0244496Y0292261D01*
X0244500Y0292120D01*
X0244500Y0291980D01*
X0244496Y0291839D01*
X0244488Y0291698D01*
X0244476Y0291558D01*
X0244460Y0291418D01*
X0244440Y0291278D01*
X0244416Y0291139D01*
X0244389Y0291001D01*
X0244357Y0290864D01*
X0244322Y0290728D01*
X0244283Y0290592D01*
X0244240Y0290458D01*
X0244193Y0290325D01*
X0244143Y0290194D01*
X0244088Y0290064D01*
X0244031Y0289935D01*
X0243969Y0289808D01*
X0243904Y0289683D01*
X0243836Y0289560D01*
X0243764Y0289439D01*
X0243689Y0289320D01*
X0243610Y0289203D01*
X0243528Y0289088D01*
X0243443Y0288976D01*
X0243355Y0288866D01*
X0243264Y0288759D01*
X0243170Y0288654D01*
X0243073Y0288552D01*
X0242973Y0288453D01*
X0242870Y0288356D01*
X0242765Y0288263D01*
X0242657Y0288172D01*
X0242546Y0288085D01*
X0242433Y0288001D01*
X0242318Y0287920D01*
X0242201Y0287842D01*
X0242081Y0287768D01*
X0241959Y0287697D01*
X0241836Y0287629D01*
X0241710Y0287565D01*
X0241583Y0287505D01*
X0241454Y0287448D01*
X0241324Y0287394D01*
X0241192Y0287345D01*
X0241058Y0287299D01*
X0240924Y0287257D01*
X0240788Y0287219D01*
X0240652Y0287184D01*
X0240514Y0287154D01*
X0240376Y0287127D01*
X0240237Y0287105D01*
X0240097Y0287086D01*
X0239957Y0287071D01*
X0239817Y0287060D01*
X0239676Y0287053D01*
X0239535Y0287050D01*
X0239394Y0287051D01*
X0239254Y0287056D01*
X0239113Y0287065D01*
X0238973Y0287078D01*
X0238833Y0287095D01*
X0238693Y0287115D01*
X0238555Y0287140D01*
X0238417Y0287169D01*
X0238280Y0287201D01*
X0238144Y0287237D01*
X0238009Y0287278D01*
X0237875Y0287322D01*
X0237742Y0287369D01*
X0237611Y0287421D01*
X0237481Y0287476D01*
X0237353Y0287534D01*
X0237227Y0287597D01*
X0237102Y0287662D01*
X0236980Y0287732D01*
X0236859Y0287804D01*
X0236740Y0287880D01*
X0236624Y0287960D01*
X0236510Y0288043D01*
X0236398Y0288128D01*
X0236289Y0288217D01*
X0236182Y0288309D01*
X0236078Y0288404D01*
X0235977Y0288502D01*
X0235878Y0288603D01*
X0235783Y0288706D01*
X0235690Y0288812D01*
X0235600Y0288921D01*
X0235514Y0289032D01*
X0235430Y0289145D01*
X0235350Y0289261D01*
X0235273Y0289379D01*
X0235200Y0289499D01*
X0235129Y0289622D01*
X0235063Y0289746D01*
X0235000Y0289872D01*
X0234940Y0289999D01*
X0234884Y0290128D01*
X0234832Y0290259D01*
X0234783Y0290391D01*
X0234738Y0290525D01*
X0234697Y0290660D01*
X0234660Y0290796D01*
X0234626Y0290932D01*
X0234597Y0291070D01*
X0234571Y0291209D01*
X0234550Y0291348D01*
X0234532Y0291488D01*
X0234518Y0291628D01*
X0234508Y0291768D01*
X0234502Y0291909D01*
X0234500Y0292050D01*
X0118051Y0281877D02*
X0118053Y0281989D01*
X0118059Y0282100D01*
X0118069Y0282212D01*
X0118083Y0282323D01*
X0118100Y0282433D01*
X0118122Y0282543D01*
X0118148Y0282651D01*
X0118177Y0282759D01*
X0118210Y0282866D01*
X0118247Y0282972D01*
X0118288Y0283076D01*
X0118332Y0283178D01*
X0118380Y0283279D01*
X0118432Y0283378D01*
X0118487Y0283476D01*
X0118545Y0283571D01*
X0118607Y0283664D01*
X0118672Y0283755D01*
X0118741Y0283843D01*
X0118812Y0283930D01*
X0118886Y0284013D01*
X0118963Y0284094D01*
X0119044Y0284172D01*
X0119126Y0284247D01*
X0119212Y0284319D01*
X0119300Y0284388D01*
X0119390Y0284454D01*
X0119483Y0284516D01*
X0119577Y0284576D01*
X0119674Y0284632D01*
X0119773Y0284684D01*
X0119873Y0284733D01*
X0119976Y0284778D01*
X0120079Y0284820D01*
X0120184Y0284858D01*
X0120291Y0284892D01*
X0120398Y0284922D01*
X0120507Y0284949D01*
X0120617Y0284971D01*
X0120727Y0284990D01*
X0120838Y0285005D01*
X0120949Y0285016D01*
X0121060Y0285023D01*
X0121172Y0285026D01*
X0121284Y0285025D01*
X0121395Y0285020D01*
X0121507Y0285011D01*
X0121618Y0284998D01*
X0121728Y0284981D01*
X0121838Y0284961D01*
X0121947Y0284936D01*
X0122055Y0284908D01*
X0122162Y0284875D01*
X0122268Y0284839D01*
X0122373Y0284799D01*
X0122476Y0284756D01*
X0122577Y0284709D01*
X0122677Y0284658D01*
X0122774Y0284604D01*
X0122870Y0284547D01*
X0122964Y0284486D01*
X0123055Y0284421D01*
X0123145Y0284354D01*
X0123231Y0284283D01*
X0123315Y0284210D01*
X0123397Y0284133D01*
X0123476Y0284054D01*
X0123551Y0283972D01*
X0123624Y0283887D01*
X0123694Y0283800D01*
X0123761Y0283710D01*
X0123824Y0283618D01*
X0123884Y0283524D01*
X0123941Y0283427D01*
X0123994Y0283329D01*
X0124044Y0283229D01*
X0124090Y0283127D01*
X0124133Y0283024D01*
X0124172Y0282919D01*
X0124207Y0282813D01*
X0124238Y0282706D01*
X0124266Y0282597D01*
X0124289Y0282488D01*
X0124309Y0282378D01*
X0124325Y0282267D01*
X0124337Y0282156D01*
X0124345Y0282045D01*
X0124349Y0281933D01*
X0124349Y0281821D01*
X0124345Y0281709D01*
X0124337Y0281598D01*
X0124325Y0281487D01*
X0124309Y0281376D01*
X0124289Y0281266D01*
X0124266Y0281157D01*
X0124238Y0281048D01*
X0124207Y0280941D01*
X0124172Y0280835D01*
X0124133Y0280730D01*
X0124090Y0280627D01*
X0124044Y0280525D01*
X0123994Y0280425D01*
X0123941Y0280327D01*
X0123884Y0280230D01*
X0123824Y0280136D01*
X0123761Y0280044D01*
X0123694Y0279954D01*
X0123624Y0279867D01*
X0123551Y0279782D01*
X0123476Y0279700D01*
X0123397Y0279621D01*
X0123315Y0279544D01*
X0123231Y0279471D01*
X0123145Y0279400D01*
X0123055Y0279333D01*
X0122964Y0279268D01*
X0122870Y0279207D01*
X0122775Y0279150D01*
X0122677Y0279096D01*
X0122577Y0279045D01*
X0122476Y0278998D01*
X0122373Y0278955D01*
X0122268Y0278915D01*
X0122162Y0278879D01*
X0122055Y0278846D01*
X0121947Y0278818D01*
X0121838Y0278793D01*
X0121728Y0278773D01*
X0121618Y0278756D01*
X0121507Y0278743D01*
X0121395Y0278734D01*
X0121284Y0278729D01*
X0121172Y0278728D01*
X0121060Y0278731D01*
X0120949Y0278738D01*
X0120838Y0278749D01*
X0120727Y0278764D01*
X0120617Y0278783D01*
X0120507Y0278805D01*
X0120398Y0278832D01*
X0120291Y0278862D01*
X0120184Y0278896D01*
X0120079Y0278934D01*
X0119976Y0278976D01*
X0119873Y0279021D01*
X0119773Y0279070D01*
X0119674Y0279122D01*
X0119577Y0279178D01*
X0119483Y0279238D01*
X0119390Y0279300D01*
X0119300Y0279366D01*
X0119212Y0279435D01*
X0119126Y0279507D01*
X0119044Y0279582D01*
X0118963Y0279660D01*
X0118886Y0279741D01*
X0118812Y0279824D01*
X0118741Y0279911D01*
X0118672Y0279999D01*
X0118607Y0280090D01*
X0118545Y0280183D01*
X0118487Y0280278D01*
X0118432Y0280376D01*
X0118380Y0280475D01*
X0118332Y0280576D01*
X0118288Y0280678D01*
X0118247Y0280782D01*
X0118210Y0280888D01*
X0118177Y0280995D01*
X0118148Y0281103D01*
X0118122Y0281211D01*
X0118100Y0281321D01*
X0118083Y0281431D01*
X0118069Y0281542D01*
X0118059Y0281654D01*
X0118053Y0281765D01*
X0118051Y0281877D01*
X0096600Y0292050D02*
X0096602Y0292191D01*
X0096608Y0292332D01*
X0096618Y0292472D01*
X0096632Y0292612D01*
X0096650Y0292752D01*
X0096671Y0292891D01*
X0096697Y0293030D01*
X0096726Y0293168D01*
X0096760Y0293304D01*
X0096797Y0293440D01*
X0096838Y0293575D01*
X0096883Y0293709D01*
X0096932Y0293841D01*
X0096984Y0293972D01*
X0097040Y0294101D01*
X0097100Y0294228D01*
X0097163Y0294354D01*
X0097229Y0294478D01*
X0097300Y0294601D01*
X0097373Y0294721D01*
X0097450Y0294839D01*
X0097530Y0294955D01*
X0097614Y0295068D01*
X0097700Y0295179D01*
X0097790Y0295288D01*
X0097883Y0295394D01*
X0097978Y0295497D01*
X0098077Y0295598D01*
X0098178Y0295696D01*
X0098282Y0295791D01*
X0098389Y0295883D01*
X0098498Y0295972D01*
X0098610Y0296057D01*
X0098724Y0296140D01*
X0098840Y0296220D01*
X0098959Y0296296D01*
X0099080Y0296368D01*
X0099202Y0296438D01*
X0099327Y0296503D01*
X0099453Y0296566D01*
X0099581Y0296624D01*
X0099711Y0296679D01*
X0099842Y0296731D01*
X0099975Y0296778D01*
X0100109Y0296822D01*
X0100244Y0296863D01*
X0100380Y0296899D01*
X0100517Y0296931D01*
X0100655Y0296960D01*
X0100793Y0296985D01*
X0100933Y0297005D01*
X0101073Y0297022D01*
X0101213Y0297035D01*
X0101354Y0297044D01*
X0101494Y0297049D01*
X0101635Y0297050D01*
X0101776Y0297047D01*
X0101917Y0297040D01*
X0102057Y0297029D01*
X0102197Y0297014D01*
X0102337Y0296995D01*
X0102476Y0296973D01*
X0102614Y0296946D01*
X0102752Y0296916D01*
X0102888Y0296881D01*
X0103024Y0296843D01*
X0103158Y0296801D01*
X0103292Y0296755D01*
X0103424Y0296706D01*
X0103554Y0296652D01*
X0103683Y0296595D01*
X0103810Y0296535D01*
X0103936Y0296471D01*
X0104059Y0296403D01*
X0104181Y0296332D01*
X0104301Y0296258D01*
X0104418Y0296180D01*
X0104533Y0296099D01*
X0104646Y0296015D01*
X0104757Y0295928D01*
X0104865Y0295837D01*
X0104970Y0295744D01*
X0105073Y0295647D01*
X0105173Y0295548D01*
X0105270Y0295446D01*
X0105364Y0295341D01*
X0105455Y0295234D01*
X0105543Y0295124D01*
X0105628Y0295012D01*
X0105710Y0294897D01*
X0105789Y0294780D01*
X0105864Y0294661D01*
X0105936Y0294540D01*
X0106004Y0294417D01*
X0106069Y0294292D01*
X0106131Y0294165D01*
X0106188Y0294036D01*
X0106243Y0293906D01*
X0106293Y0293775D01*
X0106340Y0293642D01*
X0106383Y0293508D01*
X0106422Y0293372D01*
X0106457Y0293236D01*
X0106489Y0293099D01*
X0106516Y0292961D01*
X0106540Y0292822D01*
X0106560Y0292682D01*
X0106576Y0292542D01*
X0106588Y0292402D01*
X0106596Y0292261D01*
X0106600Y0292120D01*
X0106600Y0291980D01*
X0106596Y0291839D01*
X0106588Y0291698D01*
X0106576Y0291558D01*
X0106560Y0291418D01*
X0106540Y0291278D01*
X0106516Y0291139D01*
X0106489Y0291001D01*
X0106457Y0290864D01*
X0106422Y0290728D01*
X0106383Y0290592D01*
X0106340Y0290458D01*
X0106293Y0290325D01*
X0106243Y0290194D01*
X0106188Y0290064D01*
X0106131Y0289935D01*
X0106069Y0289808D01*
X0106004Y0289683D01*
X0105936Y0289560D01*
X0105864Y0289439D01*
X0105789Y0289320D01*
X0105710Y0289203D01*
X0105628Y0289088D01*
X0105543Y0288976D01*
X0105455Y0288866D01*
X0105364Y0288759D01*
X0105270Y0288654D01*
X0105173Y0288552D01*
X0105073Y0288453D01*
X0104970Y0288356D01*
X0104865Y0288263D01*
X0104757Y0288172D01*
X0104646Y0288085D01*
X0104533Y0288001D01*
X0104418Y0287920D01*
X0104301Y0287842D01*
X0104181Y0287768D01*
X0104059Y0287697D01*
X0103936Y0287629D01*
X0103810Y0287565D01*
X0103683Y0287505D01*
X0103554Y0287448D01*
X0103424Y0287394D01*
X0103292Y0287345D01*
X0103158Y0287299D01*
X0103024Y0287257D01*
X0102888Y0287219D01*
X0102752Y0287184D01*
X0102614Y0287154D01*
X0102476Y0287127D01*
X0102337Y0287105D01*
X0102197Y0287086D01*
X0102057Y0287071D01*
X0101917Y0287060D01*
X0101776Y0287053D01*
X0101635Y0287050D01*
X0101494Y0287051D01*
X0101354Y0287056D01*
X0101213Y0287065D01*
X0101073Y0287078D01*
X0100933Y0287095D01*
X0100793Y0287115D01*
X0100655Y0287140D01*
X0100517Y0287169D01*
X0100380Y0287201D01*
X0100244Y0287237D01*
X0100109Y0287278D01*
X0099975Y0287322D01*
X0099842Y0287369D01*
X0099711Y0287421D01*
X0099581Y0287476D01*
X0099453Y0287534D01*
X0099327Y0287597D01*
X0099202Y0287662D01*
X0099080Y0287732D01*
X0098959Y0287804D01*
X0098840Y0287880D01*
X0098724Y0287960D01*
X0098610Y0288043D01*
X0098498Y0288128D01*
X0098389Y0288217D01*
X0098282Y0288309D01*
X0098178Y0288404D01*
X0098077Y0288502D01*
X0097978Y0288603D01*
X0097883Y0288706D01*
X0097790Y0288812D01*
X0097700Y0288921D01*
X0097614Y0289032D01*
X0097530Y0289145D01*
X0097450Y0289261D01*
X0097373Y0289379D01*
X0097300Y0289499D01*
X0097229Y0289622D01*
X0097163Y0289746D01*
X0097100Y0289872D01*
X0097040Y0289999D01*
X0096984Y0290128D01*
X0096932Y0290259D01*
X0096883Y0290391D01*
X0096838Y0290525D01*
X0096797Y0290660D01*
X0096760Y0290796D01*
X0096726Y0290932D01*
X0096697Y0291070D01*
X0096671Y0291209D01*
X0096650Y0291348D01*
X0096632Y0291488D01*
X0096618Y0291628D01*
X0096608Y0291768D01*
X0096602Y0291909D01*
X0096600Y0292050D01*
X0047100Y0191250D02*
X0047102Y0191338D01*
X0047108Y0191426D01*
X0047118Y0191514D01*
X0047132Y0191601D01*
X0047150Y0191687D01*
X0047171Y0191772D01*
X0047197Y0191857D01*
X0047226Y0191940D01*
X0047259Y0192022D01*
X0047296Y0192102D01*
X0047336Y0192180D01*
X0047380Y0192257D01*
X0047427Y0192331D01*
X0047478Y0192403D01*
X0047531Y0192473D01*
X0047588Y0192541D01*
X0047648Y0192605D01*
X0047711Y0192667D01*
X0047776Y0192726D01*
X0047844Y0192782D01*
X0047915Y0192835D01*
X0047987Y0192885D01*
X0048062Y0192931D01*
X0048139Y0192974D01*
X0048218Y0193014D01*
X0048299Y0193049D01*
X0048381Y0193082D01*
X0048464Y0193110D01*
X0048549Y0193135D01*
X0048635Y0193155D01*
X0048721Y0193172D01*
X0048808Y0193185D01*
X0048896Y0193194D01*
X0048984Y0193199D01*
X0049072Y0193200D01*
X0049160Y0193197D01*
X0049248Y0193190D01*
X0049335Y0193179D01*
X0049422Y0193164D01*
X0049508Y0193145D01*
X0049594Y0193123D01*
X0049678Y0193096D01*
X0049760Y0193066D01*
X0049842Y0193032D01*
X0049922Y0192994D01*
X0049999Y0192953D01*
X0050075Y0192909D01*
X0050149Y0192861D01*
X0050221Y0192809D01*
X0050290Y0192755D01*
X0050357Y0192697D01*
X0050421Y0192637D01*
X0050482Y0192573D01*
X0050541Y0192507D01*
X0050596Y0192439D01*
X0050648Y0192367D01*
X0050697Y0192294D01*
X0050742Y0192219D01*
X0050784Y0192141D01*
X0050823Y0192062D01*
X0050858Y0191981D01*
X0050889Y0191898D01*
X0050916Y0191815D01*
X0050940Y0191730D01*
X0050960Y0191644D01*
X0050976Y0191557D01*
X0050988Y0191470D01*
X0050996Y0191382D01*
X0051000Y0191294D01*
X0051000Y0191206D01*
X0050996Y0191118D01*
X0050988Y0191030D01*
X0050976Y0190943D01*
X0050960Y0190856D01*
X0050940Y0190770D01*
X0050916Y0190685D01*
X0050889Y0190602D01*
X0050858Y0190519D01*
X0050823Y0190438D01*
X0050784Y0190359D01*
X0050742Y0190281D01*
X0050697Y0190206D01*
X0050648Y0190133D01*
X0050596Y0190061D01*
X0050541Y0189993D01*
X0050482Y0189927D01*
X0050421Y0189863D01*
X0050357Y0189803D01*
X0050290Y0189745D01*
X0050221Y0189691D01*
X0050149Y0189639D01*
X0050075Y0189591D01*
X0049999Y0189547D01*
X0049922Y0189506D01*
X0049842Y0189468D01*
X0049760Y0189434D01*
X0049678Y0189404D01*
X0049594Y0189377D01*
X0049508Y0189355D01*
X0049422Y0189336D01*
X0049335Y0189321D01*
X0049248Y0189310D01*
X0049160Y0189303D01*
X0049072Y0189300D01*
X0048984Y0189301D01*
X0048896Y0189306D01*
X0048808Y0189315D01*
X0048721Y0189328D01*
X0048635Y0189345D01*
X0048549Y0189365D01*
X0048464Y0189390D01*
X0048381Y0189418D01*
X0048299Y0189451D01*
X0048218Y0189486D01*
X0048139Y0189526D01*
X0048062Y0189569D01*
X0047987Y0189615D01*
X0047915Y0189665D01*
X0047844Y0189718D01*
X0047776Y0189774D01*
X0047711Y0189833D01*
X0047648Y0189895D01*
X0047588Y0189959D01*
X0047531Y0190027D01*
X0047478Y0190097D01*
X0047427Y0190169D01*
X0047380Y0190243D01*
X0047336Y0190320D01*
X0047296Y0190398D01*
X0047259Y0190478D01*
X0047226Y0190560D01*
X0047197Y0190643D01*
X0047171Y0190728D01*
X0047150Y0190813D01*
X0047132Y0190899D01*
X0047118Y0190986D01*
X0047108Y0191074D01*
X0047102Y0191162D01*
X0047100Y0191250D01*
X0030600Y0191250D02*
X0030602Y0191338D01*
X0030608Y0191426D01*
X0030618Y0191514D01*
X0030632Y0191601D01*
X0030650Y0191687D01*
X0030671Y0191772D01*
X0030697Y0191857D01*
X0030726Y0191940D01*
X0030759Y0192022D01*
X0030796Y0192102D01*
X0030836Y0192180D01*
X0030880Y0192257D01*
X0030927Y0192331D01*
X0030978Y0192403D01*
X0031031Y0192473D01*
X0031088Y0192541D01*
X0031148Y0192605D01*
X0031211Y0192667D01*
X0031276Y0192726D01*
X0031344Y0192782D01*
X0031415Y0192835D01*
X0031487Y0192885D01*
X0031562Y0192931D01*
X0031639Y0192974D01*
X0031718Y0193014D01*
X0031799Y0193049D01*
X0031881Y0193082D01*
X0031964Y0193110D01*
X0032049Y0193135D01*
X0032135Y0193155D01*
X0032221Y0193172D01*
X0032308Y0193185D01*
X0032396Y0193194D01*
X0032484Y0193199D01*
X0032572Y0193200D01*
X0032660Y0193197D01*
X0032748Y0193190D01*
X0032835Y0193179D01*
X0032922Y0193164D01*
X0033008Y0193145D01*
X0033094Y0193123D01*
X0033178Y0193096D01*
X0033260Y0193066D01*
X0033342Y0193032D01*
X0033422Y0192994D01*
X0033499Y0192953D01*
X0033575Y0192909D01*
X0033649Y0192861D01*
X0033721Y0192809D01*
X0033790Y0192755D01*
X0033857Y0192697D01*
X0033921Y0192637D01*
X0033982Y0192573D01*
X0034041Y0192507D01*
X0034096Y0192439D01*
X0034148Y0192367D01*
X0034197Y0192294D01*
X0034242Y0192219D01*
X0034284Y0192141D01*
X0034323Y0192062D01*
X0034358Y0191981D01*
X0034389Y0191898D01*
X0034416Y0191815D01*
X0034440Y0191730D01*
X0034460Y0191644D01*
X0034476Y0191557D01*
X0034488Y0191470D01*
X0034496Y0191382D01*
X0034500Y0191294D01*
X0034500Y0191206D01*
X0034496Y0191118D01*
X0034488Y0191030D01*
X0034476Y0190943D01*
X0034460Y0190856D01*
X0034440Y0190770D01*
X0034416Y0190685D01*
X0034389Y0190602D01*
X0034358Y0190519D01*
X0034323Y0190438D01*
X0034284Y0190359D01*
X0034242Y0190281D01*
X0034197Y0190206D01*
X0034148Y0190133D01*
X0034096Y0190061D01*
X0034041Y0189993D01*
X0033982Y0189927D01*
X0033921Y0189863D01*
X0033857Y0189803D01*
X0033790Y0189745D01*
X0033721Y0189691D01*
X0033649Y0189639D01*
X0033575Y0189591D01*
X0033499Y0189547D01*
X0033422Y0189506D01*
X0033342Y0189468D01*
X0033260Y0189434D01*
X0033178Y0189404D01*
X0033094Y0189377D01*
X0033008Y0189355D01*
X0032922Y0189336D01*
X0032835Y0189321D01*
X0032748Y0189310D01*
X0032660Y0189303D01*
X0032572Y0189300D01*
X0032484Y0189301D01*
X0032396Y0189306D01*
X0032308Y0189315D01*
X0032221Y0189328D01*
X0032135Y0189345D01*
X0032049Y0189365D01*
X0031964Y0189390D01*
X0031881Y0189418D01*
X0031799Y0189451D01*
X0031718Y0189486D01*
X0031639Y0189526D01*
X0031562Y0189569D01*
X0031487Y0189615D01*
X0031415Y0189665D01*
X0031344Y0189718D01*
X0031276Y0189774D01*
X0031211Y0189833D01*
X0031148Y0189895D01*
X0031088Y0189959D01*
X0031031Y0190027D01*
X0030978Y0190097D01*
X0030927Y0190169D01*
X0030880Y0190243D01*
X0030836Y0190320D01*
X0030796Y0190398D01*
X0030759Y0190478D01*
X0030726Y0190560D01*
X0030697Y0190643D01*
X0030671Y0190728D01*
X0030650Y0190813D01*
X0030632Y0190899D01*
X0030618Y0190986D01*
X0030608Y0191074D01*
X0030602Y0191162D01*
X0030600Y0191250D01*
D11*
X0271500Y0109650D03*
X0269500Y0009650D03*
X0331500Y0009650D03*
X0344100Y0236450D03*
X0341500Y0327850D03*
X0271100Y0328850D03*
D12*
X0239500Y0292050D03*
X0272500Y0183150D03*
X0272500Y0145150D03*
X0315500Y0145150D03*
X0316500Y0184150D03*
X0240700Y0008850D03*
X0101600Y0292050D03*
D13*
X0186900Y0182550D03*
X0186900Y0172550D03*
X0186900Y0162550D03*
X0283500Y0240850D03*
X0293500Y0240850D03*
X0303500Y0240850D03*
X0303500Y0251550D03*
X0293500Y0251550D03*
X0283500Y0251550D03*
X0283500Y0261950D03*
X0283500Y0272250D03*
X0293500Y0272250D03*
X0303500Y0272250D03*
X0303500Y0261950D03*
X0293500Y0261950D03*
X0293500Y0282750D03*
X0303500Y0282750D03*
X0303500Y0293250D03*
X0293500Y0293250D03*
X0283500Y0293250D03*
X0283500Y0282750D03*
X0283500Y0303850D03*
X0293500Y0303850D03*
X0303500Y0303850D03*
X0303500Y0314450D03*
X0293500Y0314450D03*
X0283500Y0314450D03*
X0287300Y0329450D03*
X0297300Y0329450D03*
X0307300Y0329450D03*
X0317300Y0329450D03*
X0312500Y0030650D03*
X0302500Y0030650D03*
X0292500Y0030650D03*
X0282500Y0030650D03*
X0272500Y0030650D03*
D14*
X0312009Y0085150D03*
X0325991Y0085150D03*
D15*
X0331500Y0056770D03*
X0327760Y0046530D03*
X0335240Y0046530D03*
D16*
X0332000Y0041087D03*
X0328260Y0033213D03*
X0335740Y0033213D03*
X0313791Y0208150D03*
X0309461Y0208150D03*
X0305130Y0208150D03*
X0300799Y0208150D03*
X0288201Y0208150D03*
X0283870Y0208150D03*
X0279539Y0208150D03*
X0275209Y0208150D03*
D17*
X0161457Y0097750D03*
X0154743Y0097750D03*
X0155057Y0064550D03*
X0148343Y0064550D03*
X0149543Y0214750D03*
X0156257Y0214750D03*
X0155857Y0225350D03*
X0149143Y0225350D03*
X0328143Y0023650D03*
X0334857Y0023650D03*
D18*
X0281750Y0079150D03*
X0275250Y0079150D03*
X0208150Y0085950D03*
X0201650Y0085950D03*
X0191050Y0111950D03*
X0184550Y0111950D03*
D19*
X0294988Y0079150D03*
X0306012Y0079150D03*
D20*
X0291453Y0085650D03*
X0289484Y0085650D03*
X0287516Y0085650D03*
X0285547Y0085650D03*
X0285547Y0097461D03*
X0287516Y0097461D03*
X0289484Y0097461D03*
X0291453Y0097461D03*
D21*
X0294406Y0094508D03*
X0294406Y0092540D03*
X0294406Y0090571D03*
X0294406Y0088603D03*
X0282594Y0088603D03*
X0282594Y0090571D03*
X0282594Y0092540D03*
X0282594Y0094508D03*
D22*
X0288500Y0091556D03*
D23*
X0275937Y0092650D03*
X0268063Y0092650D03*
D24*
X0284450Y0106150D03*
X0288550Y0106150D03*
D25*
X0332000Y0064619D03*
D26*
X0332000Y0072650D03*
X0332000Y0080681D03*
D27*
X0329780Y0092650D03*
X0325843Y0092650D03*
X0321906Y0092650D03*
X0317969Y0092650D03*
X0314031Y0092650D03*
X0310094Y0092650D03*
D28*
X0304976Y0107807D03*
X0334898Y0107807D03*
D29*
X0273500Y0240850D03*
X0273500Y0251550D03*
X0273500Y0261950D03*
X0273500Y0272250D03*
X0273500Y0282750D03*
X0273500Y0293250D03*
X0273500Y0303850D03*
X0273500Y0314450D03*
D30*
G36*
X0316487Y0271254D02*
X0317336Y0272103D01*
X0319881Y0269558D01*
X0319032Y0268709D01*
X0316487Y0271254D01*
G37*
G36*
X0315095Y0269862D02*
X0315944Y0270711D01*
X0318489Y0268166D01*
X0317640Y0267317D01*
X0315095Y0269862D01*
G37*
G36*
X0317879Y0272646D02*
X0318728Y0273495D01*
X0321273Y0270950D01*
X0320424Y0270101D01*
X0317879Y0272646D01*
G37*
G36*
X0319271Y0274038D02*
X0320120Y0274887D01*
X0322665Y0272342D01*
X0321816Y0271493D01*
X0319271Y0274038D01*
G37*
G36*
X0320663Y0275430D02*
X0321512Y0276279D01*
X0324057Y0273734D01*
X0323208Y0272885D01*
X0320663Y0275430D01*
G37*
G36*
X0322055Y0276822D02*
X0322904Y0277671D01*
X0325449Y0275126D01*
X0324600Y0274277D01*
X0322055Y0276822D01*
G37*
G36*
X0323447Y0278214D02*
X0324296Y0279063D01*
X0326841Y0276518D01*
X0325992Y0275669D01*
X0323447Y0278214D01*
G37*
G36*
X0324839Y0279606D02*
X0325688Y0280455D01*
X0328233Y0277910D01*
X0327384Y0277061D01*
X0324839Y0279606D01*
G37*
G36*
X0330016Y0277061D02*
X0329167Y0277910D01*
X0331712Y0280455D01*
X0332561Y0279606D01*
X0330016Y0277061D01*
G37*
G36*
X0331408Y0275669D02*
X0330559Y0276518D01*
X0333104Y0279063D01*
X0333953Y0278214D01*
X0331408Y0275669D01*
G37*
G36*
X0332800Y0274277D02*
X0331951Y0275126D01*
X0334496Y0277671D01*
X0335345Y0276822D01*
X0332800Y0274277D01*
G37*
G36*
X0334192Y0272885D02*
X0333343Y0273734D01*
X0335888Y0276279D01*
X0336737Y0275430D01*
X0334192Y0272885D01*
G37*
G36*
X0335584Y0271493D02*
X0334735Y0272342D01*
X0337280Y0274887D01*
X0338129Y0274038D01*
X0335584Y0271493D01*
G37*
G36*
X0336976Y0270101D02*
X0336127Y0270950D01*
X0338672Y0273495D01*
X0339521Y0272646D01*
X0336976Y0270101D01*
G37*
G36*
X0338368Y0268709D02*
X0337519Y0269558D01*
X0340064Y0272103D01*
X0340913Y0271254D01*
X0338368Y0268709D01*
G37*
G36*
X0339760Y0267317D02*
X0338911Y0268166D01*
X0341456Y0270711D01*
X0342305Y0269862D01*
X0339760Y0267317D01*
G37*
G36*
X0338911Y0265534D02*
X0339760Y0266383D01*
X0342305Y0263838D01*
X0341456Y0262989D01*
X0338911Y0265534D01*
G37*
G36*
X0337519Y0264142D02*
X0338368Y0264991D01*
X0340913Y0262446D01*
X0340064Y0261597D01*
X0337519Y0264142D01*
G37*
G36*
X0336127Y0262750D02*
X0336976Y0263599D01*
X0339521Y0261054D01*
X0338672Y0260205D01*
X0336127Y0262750D01*
G37*
G36*
X0334735Y0261358D02*
X0335584Y0262207D01*
X0338129Y0259662D01*
X0337280Y0258813D01*
X0334735Y0261358D01*
G37*
G36*
X0333343Y0259966D02*
X0334192Y0260815D01*
X0336737Y0258270D01*
X0335888Y0257421D01*
X0333343Y0259966D01*
G37*
G36*
X0331951Y0258574D02*
X0332800Y0259423D01*
X0335345Y0256878D01*
X0334496Y0256029D01*
X0331951Y0258574D01*
G37*
G36*
X0330559Y0257182D02*
X0331408Y0258031D01*
X0333953Y0255486D01*
X0333104Y0254637D01*
X0330559Y0257182D01*
G37*
G36*
X0329167Y0255790D02*
X0330016Y0256639D01*
X0332561Y0254094D01*
X0331712Y0253245D01*
X0329167Y0255790D01*
G37*
G36*
X0325688Y0253245D02*
X0324839Y0254094D01*
X0327384Y0256639D01*
X0328233Y0255790D01*
X0325688Y0253245D01*
G37*
G36*
X0324296Y0254637D02*
X0323447Y0255486D01*
X0325992Y0258031D01*
X0326841Y0257182D01*
X0324296Y0254637D01*
G37*
G36*
X0322904Y0256029D02*
X0322055Y0256878D01*
X0324600Y0259423D01*
X0325449Y0258574D01*
X0322904Y0256029D01*
G37*
G36*
X0321512Y0257421D02*
X0320663Y0258270D01*
X0323208Y0260815D01*
X0324057Y0259966D01*
X0321512Y0257421D01*
G37*
G36*
X0320120Y0258813D02*
X0319271Y0259662D01*
X0321816Y0262207D01*
X0322665Y0261358D01*
X0320120Y0258813D01*
G37*
G36*
X0318728Y0260205D02*
X0317879Y0261054D01*
X0320424Y0263599D01*
X0321273Y0262750D01*
X0318728Y0260205D01*
G37*
G36*
X0317336Y0261597D02*
X0316487Y0262446D01*
X0319032Y0264991D01*
X0319881Y0264142D01*
X0317336Y0261597D01*
G37*
G36*
X0315944Y0262989D02*
X0315095Y0263838D01*
X0317640Y0266383D01*
X0318489Y0265534D01*
X0315944Y0262989D01*
G37*
D31*
X0327415Y0307511D03*
X0327415Y0311448D03*
X0327415Y0315385D03*
D32*
X0317474Y0320504D03*
X0317474Y0302393D03*
D33*
X0343500Y0282500D03*
X0343500Y0276000D03*
X0224300Y0218800D03*
X0224300Y0212300D03*
X0171700Y0118200D03*
X0171700Y0111700D03*
X0189900Y0094200D03*
X0189900Y0087700D03*
D34*
X0312722Y0235575D02*
X0315478Y0235575D01*
X0315478Y0232819D01*
X0312722Y0232819D01*
X0312722Y0235575D01*
X0312722Y0233999D02*
X0315478Y0233999D01*
X0315478Y0235179D02*
X0312722Y0235179D01*
X0312722Y0242481D02*
X0315478Y0242481D01*
X0315478Y0239725D01*
X0312722Y0239725D01*
X0312722Y0242481D01*
X0312722Y0240905D02*
X0315478Y0240905D01*
X0315478Y0242085D02*
X0312722Y0242085D01*
X0318122Y0242481D02*
X0320878Y0242481D01*
X0320878Y0239725D01*
X0318122Y0239725D01*
X0318122Y0242481D01*
X0318122Y0240905D02*
X0320878Y0240905D01*
X0320878Y0242085D02*
X0318122Y0242085D01*
X0318122Y0235575D02*
X0320878Y0235575D01*
X0320878Y0232819D01*
X0318122Y0232819D01*
X0318122Y0235575D01*
X0318122Y0233999D02*
X0320878Y0233999D01*
X0320878Y0235179D02*
X0318122Y0235179D01*
X0324522Y0235575D02*
X0327278Y0235575D01*
X0327278Y0232819D01*
X0324522Y0232819D01*
X0324522Y0235575D01*
X0324522Y0233999D02*
X0327278Y0233999D01*
X0327278Y0235179D02*
X0324522Y0235179D01*
X0324522Y0242481D02*
X0327278Y0242481D01*
X0327278Y0239725D01*
X0324522Y0239725D01*
X0324522Y0242481D01*
X0324522Y0240905D02*
X0327278Y0240905D01*
X0327278Y0242085D02*
X0324522Y0242085D01*
X0330922Y0242481D02*
X0333678Y0242481D01*
X0333678Y0239725D01*
X0330922Y0239725D01*
X0330922Y0242481D01*
X0330922Y0240905D02*
X0333678Y0240905D01*
X0333678Y0242085D02*
X0330922Y0242085D01*
X0330922Y0235575D02*
X0333678Y0235575D01*
X0333678Y0232819D01*
X0330922Y0232819D01*
X0330922Y0235575D01*
X0330922Y0233999D02*
X0333678Y0233999D01*
X0333678Y0235179D02*
X0330922Y0235179D01*
X0332922Y0288219D02*
X0335678Y0288219D01*
X0332922Y0288219D02*
X0332922Y0290975D01*
X0335678Y0290975D01*
X0335678Y0288219D01*
X0335678Y0289399D02*
X0332922Y0289399D01*
X0332922Y0290579D02*
X0335678Y0290579D01*
X0339522Y0288219D02*
X0342278Y0288219D01*
X0339522Y0288219D02*
X0339522Y0290975D01*
X0342278Y0290975D01*
X0342278Y0288219D01*
X0342278Y0289399D02*
X0339522Y0289399D01*
X0339522Y0290579D02*
X0342278Y0290579D01*
X0342278Y0295125D02*
X0339522Y0295125D01*
X0339522Y0297881D01*
X0342278Y0297881D01*
X0342278Y0295125D01*
X0342278Y0296305D02*
X0339522Y0296305D01*
X0339522Y0297485D02*
X0342278Y0297485D01*
X0335678Y0295125D02*
X0332922Y0295125D01*
X0332922Y0297881D01*
X0335678Y0297881D01*
X0335678Y0295125D01*
X0335678Y0296305D02*
X0332922Y0296305D01*
X0332922Y0297485D02*
X0335678Y0297485D01*
D35*
X0294500Y0193583D03*
D36*
X0136554Y0193491D03*
X0136554Y0195853D03*
X0136554Y0198215D03*
X0136554Y0200578D03*
X0136554Y0202940D03*
X0136554Y0205302D03*
X0136554Y0207664D03*
X0136554Y0210026D03*
X0136554Y0212389D03*
X0136554Y0228924D03*
X0136554Y0231286D03*
X0136554Y0233648D03*
X0136554Y0236011D03*
X0136554Y0238373D03*
X0136554Y0240735D03*
X0136554Y0243097D03*
X0136554Y0245459D03*
X0136554Y0247822D03*
X0136554Y0250184D03*
X0136554Y0252546D03*
X0136554Y0254908D03*
X0136554Y0257270D03*
X0136554Y0259633D03*
X0136554Y0261995D03*
X0136554Y0264357D03*
X0136554Y0266719D03*
X0136554Y0269081D03*
X0136554Y0271444D03*
X0136554Y0273806D03*
X0105846Y0272625D03*
X0105846Y0274987D03*
X0105846Y0270263D03*
X0105846Y0267900D03*
X0105846Y0265538D03*
X0105846Y0263176D03*
X0105846Y0260814D03*
X0105846Y0258452D03*
X0105846Y0256089D03*
X0105846Y0253727D03*
X0105846Y0251365D03*
X0105846Y0249003D03*
X0105846Y0246641D03*
X0105846Y0244278D03*
X0105846Y0241916D03*
X0105846Y0239554D03*
X0105846Y0237192D03*
X0105846Y0234830D03*
X0105846Y0232467D03*
X0105846Y0230105D03*
X0105846Y0213570D03*
X0105846Y0211207D03*
X0105846Y0208845D03*
X0105846Y0206483D03*
X0105846Y0204121D03*
X0105846Y0201759D03*
X0105846Y0199396D03*
X0105846Y0197034D03*
X0105846Y0194672D03*
X0105846Y0192310D03*
X0105846Y0189948D03*
X0105846Y0187585D03*
X0105846Y0185223D03*
X0105846Y0182861D03*
X0105846Y0180499D03*
X0105846Y0178137D03*
X0105846Y0175774D03*
X0105846Y0173412D03*
X0105846Y0171050D03*
X0105846Y0168688D03*
X0105846Y0166326D03*
X0105846Y0163963D03*
X0105846Y0161601D03*
X0105846Y0159239D03*
X0105846Y0156877D03*
X0105846Y0154515D03*
X0105846Y0152152D03*
X0105846Y0149790D03*
X0105846Y0147428D03*
X0105846Y0145066D03*
X0105846Y0142704D03*
X0105846Y0140341D03*
X0105846Y0137979D03*
X0105846Y0135617D03*
X0105846Y0133255D03*
X0105846Y0130893D03*
X0105846Y0128530D03*
X0105846Y0126168D03*
X0105846Y0123806D03*
X0105846Y0121444D03*
X0105846Y0119081D03*
X0105846Y0116719D03*
X0105846Y0114357D03*
X0105846Y0111995D03*
X0105846Y0109633D03*
X0105846Y0107270D03*
X0105846Y0104908D03*
X0105846Y0102546D03*
X0105846Y0100184D03*
X0105846Y0097822D03*
X0105846Y0095459D03*
X0105846Y0093097D03*
X0105846Y0090735D03*
X0105846Y0088373D03*
X0105846Y0086011D03*
X0105846Y0083648D03*
X0105846Y0081286D03*
X0105846Y0078924D03*
X0105846Y0076562D03*
X0105846Y0074200D03*
X0105846Y0071837D03*
X0105846Y0069475D03*
X0105846Y0067113D03*
X0105846Y0064751D03*
X0105846Y0062389D03*
X0105846Y0060026D03*
X0105846Y0057664D03*
X0105846Y0055302D03*
X0105846Y0052940D03*
X0105846Y0050578D03*
X0105846Y0048215D03*
X0105846Y0045853D03*
X0105846Y0043491D03*
X0105846Y0041129D03*
X0105846Y0038767D03*
X0105846Y0036404D03*
X0105846Y0034042D03*
X0105846Y0031680D03*
X0105846Y0029318D03*
X0105846Y0026956D03*
X0136554Y0028137D03*
X0136554Y0030499D03*
X0136554Y0032861D03*
X0136554Y0035223D03*
X0136554Y0037585D03*
X0136554Y0039948D03*
X0136554Y0042310D03*
X0136554Y0044672D03*
X0136554Y0047034D03*
X0136554Y0049396D03*
X0136554Y0051759D03*
X0136554Y0054121D03*
X0136554Y0056483D03*
X0136554Y0058845D03*
X0136554Y0061207D03*
X0136554Y0063570D03*
X0136554Y0065932D03*
X0136554Y0068294D03*
X0136554Y0070656D03*
X0136554Y0073019D03*
X0136554Y0075381D03*
X0136554Y0077743D03*
X0136554Y0080105D03*
X0136554Y0082467D03*
X0136554Y0084830D03*
X0136554Y0087192D03*
X0136554Y0089554D03*
X0136554Y0091916D03*
X0136554Y0094278D03*
X0136554Y0096641D03*
X0136554Y0099003D03*
X0136554Y0101365D03*
X0136554Y0103727D03*
X0136554Y0106089D03*
X0136554Y0108452D03*
X0136554Y0110814D03*
X0136554Y0113176D03*
X0136554Y0115538D03*
X0136554Y0117900D03*
X0136554Y0120263D03*
X0136554Y0122625D03*
X0136554Y0124987D03*
X0136554Y0127349D03*
X0136554Y0129711D03*
X0136554Y0132074D03*
X0136554Y0134436D03*
X0136554Y0136798D03*
X0136554Y0139160D03*
X0136554Y0141522D03*
X0136554Y0143885D03*
X0136554Y0146247D03*
X0136554Y0148609D03*
X0136554Y0150971D03*
X0136554Y0153333D03*
X0136554Y0155696D03*
X0136554Y0158058D03*
X0136554Y0160420D03*
X0136554Y0162782D03*
X0136554Y0165144D03*
X0136554Y0167507D03*
X0136554Y0169869D03*
X0136554Y0172231D03*
X0136554Y0174593D03*
X0136554Y0176956D03*
X0136554Y0179318D03*
X0136554Y0181680D03*
X0136554Y0184042D03*
X0136554Y0186404D03*
X0136554Y0188767D03*
X0136554Y0191129D03*
X0136554Y0025774D03*
D37*
X0168444Y0016444D03*
X0168444Y0282286D03*
D38*
X0121200Y0281877D03*
D39*
X0121200Y0018885D03*
D40*
X0156400Y0108393D03*
X0156400Y0115107D03*
X0147100Y0120793D03*
X0147100Y0127507D03*
X0161900Y0238593D03*
X0161900Y0245307D03*
D41*
X0148200Y0263900D03*
X0148200Y0269400D03*
D42*
X0198525Y0096922D03*
X0200100Y0096922D03*
X0201675Y0096922D03*
X0201675Y0093378D03*
X0200100Y0093378D03*
X0198525Y0093378D03*
D43*
X0202069Y0095150D03*
D44*
X0197935Y0095150D03*
D45*
X0200900Y0111150D03*
X0210900Y0111150D03*
D46*
X0211150Y0193950D03*
X0204250Y0193950D03*
X0194550Y0197350D03*
X0187650Y0197350D03*
X0187850Y0207550D03*
X0194750Y0207550D03*
X0204250Y0203350D03*
X0211150Y0203350D03*
X0177350Y0202150D03*
X0170450Y0202150D03*
X0170450Y0211550D03*
X0177350Y0211550D03*
D47*
X0184336Y0219312D03*
X0186305Y0219312D03*
X0188273Y0219312D03*
X0190242Y0219312D03*
X0192210Y0219312D03*
X0194179Y0219312D03*
X0196147Y0219312D03*
X0198116Y0219312D03*
X0200084Y0219312D03*
X0202053Y0219312D03*
X0204021Y0219312D03*
X0205990Y0219312D03*
X0207958Y0219312D03*
X0209927Y0219312D03*
X0211895Y0219312D03*
X0213864Y0219312D03*
X0213864Y0264588D03*
X0211895Y0264588D03*
X0209927Y0264588D03*
X0207958Y0264588D03*
X0205990Y0264588D03*
X0204021Y0264588D03*
X0202053Y0264588D03*
X0200084Y0264588D03*
X0198116Y0264588D03*
X0196147Y0264588D03*
X0194179Y0264588D03*
X0192210Y0264588D03*
X0190242Y0264588D03*
X0188273Y0264588D03*
X0186305Y0264588D03*
X0184336Y0264588D03*
D48*
X0176462Y0256714D03*
X0176462Y0254745D03*
X0176462Y0252777D03*
X0176462Y0250808D03*
X0176462Y0248840D03*
X0176462Y0246871D03*
X0176462Y0244903D03*
X0176462Y0242934D03*
X0176462Y0240966D03*
X0176462Y0238997D03*
X0176462Y0237029D03*
X0176462Y0235060D03*
X0176462Y0233092D03*
X0176462Y0231123D03*
X0176462Y0229155D03*
X0176462Y0227186D03*
X0221738Y0227186D03*
X0221738Y0229155D03*
X0221738Y0231123D03*
X0221738Y0233092D03*
X0221738Y0235060D03*
X0221738Y0237029D03*
X0221738Y0238997D03*
X0221738Y0240966D03*
X0221738Y0242934D03*
X0221738Y0244903D03*
X0221738Y0246871D03*
X0221738Y0248840D03*
X0221738Y0250808D03*
X0221738Y0252777D03*
X0221738Y0254745D03*
X0221738Y0256714D03*
D49*
X0180250Y0264750D03*
X0174750Y0264750D03*
D50*
X0227650Y0252750D03*
X0233750Y0252750D03*
D51*
X0058500Y0192850D03*
X0058500Y0175050D03*
X0023100Y0175050D03*
X0023100Y0192850D03*
D52*
X0040800Y0201650D03*
X0040800Y0166250D03*
D53*
X0032550Y0191250D03*
X0049050Y0191250D03*
D54*
X0061847Y0243044D03*
X0067753Y0243044D03*
X0067753Y0254856D03*
X0061847Y0254856D03*
X0049753Y0255044D03*
X0043847Y0255044D03*
X0043847Y0266856D03*
X0049753Y0266856D03*
X0032753Y0267044D03*
X0026847Y0267044D03*
X0015753Y0266856D03*
X0009847Y0266856D03*
X0009847Y0255044D03*
X0015753Y0255044D03*
X0026847Y0278856D03*
X0032753Y0278856D03*
X0063847Y0322044D03*
X0069753Y0322044D03*
X0069753Y0333856D03*
X0063847Y0333856D03*
X0051753Y0333044D03*
X0045847Y0333044D03*
X0045847Y0344856D03*
X0051753Y0344856D03*
X0033753Y0343044D03*
X0027847Y0343044D03*
X0027847Y0354856D03*
X0033753Y0354856D03*
X0015753Y0344856D03*
X0009847Y0344856D03*
X0009847Y0333044D03*
X0015753Y0333044D03*
X0063647Y0128856D03*
X0069553Y0128856D03*
X0069553Y0117044D03*
X0063647Y0117044D03*
X0053353Y0114256D03*
X0047447Y0114256D03*
X0047447Y0102444D03*
X0053353Y0102444D03*
X0032753Y0101856D03*
X0026847Y0101856D03*
X0015753Y0100044D03*
X0009847Y0100044D03*
X0009847Y0111856D03*
X0015753Y0111856D03*
X0026847Y0090044D03*
X0032753Y0090044D03*
X0066447Y0044856D03*
X0072353Y0044856D03*
X0072353Y0033044D03*
X0066447Y0033044D03*
X0053753Y0035856D03*
X0047847Y0035856D03*
X0047847Y0024044D03*
X0053753Y0024044D03*
X0033753Y0020856D03*
X0027847Y0020856D03*
X0016753Y0023044D03*
X0010847Y0023044D03*
X0010847Y0034856D03*
X0016753Y0034856D03*
X0027847Y0009044D03*
X0033753Y0009044D03*
M02*
